<?xml version="1.0" encoding="UTF-8"?>
<svg width="120px" height="120px" viewBox="0 0 120 120" version="1.1" xmlns="http://www.w3.org/2000/svg" xmlns:xlink="http://www.w3.org/1999/xlink">
    <!-- Generator: Sketch 52.6 (67491) - http://www.bohemiancoding.com/sketch -->
    <title>Group</title>
    <desc>Created with Sketch.</desc>
    <defs>
        <rect id="path-1" x="0" y="0" width="120" height="120"></rect>
    </defs>
    <g id="Page-1" stroke="none" stroke-width="1" fill="none" fill-rule="evenodd">
        <g id="Group">
            <mask id="mask-2" fill="white">
                <use xlink:href="#path-1"></use>
            </mask>
            <use id="Rectangle" fill="#EEEEEE" xlink:href="#path-1"></use>
            <g id="football" opacity="0.347539993" mask="url(#mask-2)" fill="#000000">
                <g transform="translate(27.679325, 11.204819)">
                    <path d="M58.6999806,61.8256136 L56.65876,45.3134126 C56.6335882,45.1194995 56.5897474,44.9074281 56.530384,44.7153085 L56.4406047,44.4254477 L51.1417377,27.3153669 C51.1046094,27.1970014 51.05951,27.0669788 51.0144105,26.9499584 C49.9689431,24.2598351 32.8613705,17.3704294 30.5929746,17.7239564 L2.68650371,22.0725407 C1.14515244,22.3108408 -0.0268031251,23.7422106 0.000466290368,25.4502147 C0.0304626473,27.3030371 1.45979955,28.7790181 3.19329531,28.7469608 L25.7990114,28.3326818 L16.5074825,54.3060464 L5.15564439,72.0474096 C4.15590567,73.6072327 4.29246251,75.7557445 5.57915939,77.1555053 C7.04121959,78.7458166 9.43295709,78.7684584 10.9210281,77.2059452 L24.5467159,62.9003178 L21.7153116,73.3019037 L10.274743,91.3060022 C9.21857753,92.9817249 9.47553933,95.2907474 10.9495561,96.6308771 C12.5332799,98.071214 14.909285,97.8665404 16.2570234,96.1742287 L30.1275067,78.7541111 C30.3259441,78.5023604 30.5029856,78.2037567 30.6292639,77.8849771 L30.8488876,77.3308117 L45.0900252,39.2050393 L48.2511797,47.3395238 L50.9762334,63.1318926 C51.3546489,65.3019254 53.2632983,66.810412 55.3351445,66.5178611 C57.4764229,66.2149981 58.983163,64.114236 58.6999806,61.8256136 Z" id="Path" fill-rule="evenodd"></path>
                    <ellipse id="Oval" fill-rule="evenodd" cx="45.8227848" cy="10.0301205" rx="9.36708861" ry="10.0301205"></ellipse>
                    <path d="M45.7383966,77.3493976 C40.5268523,77.3493976 36.2869198,81.8894458 36.2869198,87.4698795 C36.2869198,93.0503133 40.5270624,97.5903614 45.7383966,97.5903614 C50.9499409,97.5903614 55.1898734,93.0503133 55.1898734,87.4698795 C55.1898734,81.8894458 50.950151,77.3493976 45.7383966,77.3493976 Z M52.3882457,90.5651727 L50.7195349,87.4698795 L52.3882457,84.3745863 L52.6171814,84.3745863 C52.9923,85.3268112 53.2000225,86.3728193 53.2000225,87.4698795 C53.2000225,88.5669398 52.9923,89.6127229 52.6171814,90.5651727 L52.3882457,90.5651727 Z M48.3921613,80.0041124 L47.4075274,81.8300723 L44.0694759,81.8300723 L43.084842,80.0041124 C43.9098509,79.6665382 44.8039606,79.4800964 45.7383966,79.4800964 C46.6730427,79.4800964 47.5669423,79.6665382 48.3921613,80.0041124 Z M49.0766582,87.4698795 L47.4075274,90.5651727 L44.0694759,90.5651727 L42.4005551,87.4698795 L44.0694759,84.3745863 L47.4075274,84.3745863 L49.0766582,87.4698795 Z M38.8598218,84.3745863 L39.0887576,84.3745863 L40.7574684,87.4698795 L39.0887576,90.5651727 L38.8598218,90.5651727 C38.4847032,89.6129478 38.2767707,88.5669398 38.2767707,87.4698795 C38.2767707,86.3728193 38.4847032,85.3270361 38.8598218,84.3745863 Z M43.084842,94.9356466 L44.0694759,93.1096867 L47.4075274,93.1096867 L48.3921613,94.9356466 C47.5669423,95.2732209 46.6730427,95.4596627 45.7383966,95.4596627 C44.8039606,95.4598876 43.9098509,95.2732209 43.084842,94.9356466 Z" id="Shape" fill-rule="nonzero"></path>
                </g>
            </g>
        </g>
    </g>
</svg>