<?xml version="1.0" encoding="UTF-8"?>
<svg width="19px" height="22px" viewBox="0 0 19 22" version="1.1" xmlns="http://www.w3.org/2000/svg" xmlns:xlink="http://www.w3.org/1999/xlink">
    <!-- Generator: Sketch 52.6 (67491) - http://www.bohemiancoding.com/sketch -->
    <title>Nav_bottom / Icon_with_text / News / Inactive Copy</title>
    <desc>Created with Sketch.</desc>
    <defs>
        <path d="M8.66583166,0.512210483 C8.57903307,0.519026347 8.50801603,0.536936119 8.50801603,0.55209054 C8.50801603,0.567172453 8.45390782,0.579571525 8.38777555,0.579571525 C8.32164329,0.579571525 8.26753507,0.592623181 8.26753507,0.608575204 C8.26753507,0.624527227 8.22695391,0.637578882 8.17735471,0.637578882 C8.12775551,0.637578882 8.08717435,0.650630537 8.08717435,0.66658256 C8.08717435,0.682534583 8.05418337,0.695586238 8.01382766,0.695586238 C7.97347194,0.695586238 7.93206413,0.708637893 7.92184369,0.724589916 C7.91162325,0.740541939 7.87697896,0.753593594 7.84488978,0.753593594 C7.8128006,0.753593594 7.78657315,0.766645249 7.78657315,0.782597272 C7.78657315,0.798549295 7.75951904,0.811600951 7.72645291,0.811600951 C7.69338677,0.811600951 7.66633267,0.824652606 7.66633267,0.840604629 C7.66633267,0.856556652 7.63927856,0.869608307 7.60621242,0.869608307 C7.57314629,0.869608307 7.54609218,0.882659962 7.54609218,0.898611985 C7.54609218,0.914564008 7.52204409,0.927615663 7.49258517,0.927615663 C7.4632014,0.927615663 7.41961423,0.953718973 7.39579158,0.985623019 C7.37196894,1.01752707 7.32838176,1.04363038 7.298998,1.04363038 C7.26953908,1.04363038 7.24549098,1.05450675 7.24549098,1.06770343 C7.24549098,1.08097261 7.20829158,1.11026633 7.16282565,1.13281669 C7.11735972,1.15529454 7.05986974,1.19401445 7.03507014,1.21881259 C7.01027054,1.24361074 6.94263527,1.29552732 6.88476954,1.33417472 C6.75528557,1.42067819 6.34368737,1.82187157 6.34368737,1.86160661 C6.34368737,1.87748612 6.30310621,1.9270099 6.25350701,1.97174808 C6.20390782,2.01648625 6.16332665,2.07101316 6.16332665,2.09298345 C6.16332665,2.11495374 6.13627255,2.15178841 6.10320641,2.17477382 C6.07014028,2.19775924 6.04308617,2.23981457 6.04308617,2.26816567 C6.04308617,2.29658927 6.03294088,2.31986472 6.02054108,2.32000974 C6.00814128,2.32015476 5.98311623,2.34952098 5.96492986,2.38526802 C5.94666834,2.42101505 5.9010521,2.50904121 5.86347695,2.58082532 C5.82582665,2.65260942 5.78321643,2.73403725 5.76878758,2.76173576 C5.75428357,2.78943427 5.74248497,2.83185215 5.74248497,2.85599771 C5.74248497,2.88014328 5.72895792,2.89986578 5.71242485,2.89986578 C5.69589178,2.89986578 5.68236473,2.93902074 5.68236473,2.98687681 C5.68236473,3.03473288 5.66883768,3.07388785 5.65230461,3.07388785 C5.63577154,3.07388785 5.62224449,3.11304281 5.62224449,3.16089888 C5.62224449,3.20875495 5.60871743,3.24790991 5.59218437,3.24790991 C5.5756513,3.24790991 5.56212425,3.30011653 5.56212425,3.36392463 C5.56212425,3.42773272 5.54859719,3.47993934 5.53206413,3.47993934 C5.51553106,3.47993934 5.50200401,3.55092584 5.50200401,3.63771935 C5.50200401,3.72451285 5.48847695,3.80362039 5.47194389,3.81348164 C5.45368236,3.82435802 5.44188377,4.04043542 5.44188377,4.36455152 C5.44188377,4.68866763 5.45368236,4.90474503 5.47194389,4.91562141 C5.48847695,4.92548266 5.50200401,5.00379259 5.50200401,5.08964348 C5.50200401,5.17549436 5.51553106,5.25380429 5.53206413,5.26366554 C5.54859719,5.27352679 5.56212425,5.31920759 5.56212425,5.36517842 C5.56212425,5.41114925 5.5756513,5.45683004 5.59218437,5.46669129 C5.60871743,5.47655254 5.62224449,5.52223333 5.62224449,5.56820416 C5.62224449,5.61417499 5.63577154,5.65985579 5.65230461,5.66971704 C5.66883768,5.67957829 5.68236473,5.71300503 5.68236473,5.74396645 C5.68236473,5.77492788 5.69589178,5.80023359 5.71242485,5.80023359 C5.72895792,5.80023359 5.74248497,5.83938856 5.74248497,5.88724462 C5.74248497,5.93510069 5.75601202,5.97425566 5.77254509,5.97425566 C5.78907816,5.97425566 5.80260521,6.00035897 5.80260521,6.03226301 C5.80260521,6.06416706 5.81613226,6.09027037 5.83266533,6.09027037 C5.8491984,6.09027037 5.86272545,6.11637368 5.86272545,6.14827773 C5.86272545,6.18018177 5.87625251,6.20628508 5.89278557,6.20628508 C5.90931864,6.20628508 5.92284569,6.22644264 5.92284569,6.25102326 C5.92284569,6.27560387 5.9498998,6.32374998 5.98296593,6.35797432 C6.01603206,6.39219866 6.04308617,6.43737189 6.04308617,6.45825454 C6.04308617,6.47920969 6.05661323,6.49632187 6.07314629,6.49632187 C6.08967936,6.49632187 6.10320641,6.51720451 6.10320641,6.54272775 C6.10320641,6.56817848 6.14378758,6.62560576 6.19338677,6.67034393 C6.24298597,6.71508211 6.28356713,6.76656364 6.28356713,6.78490846 C6.28356713,6.82435346 6.96638277,7.48244692 7.00741483,7.48244692 C7.02289579,7.48244692 7.07805611,7.52160189 7.12998497,7.56945796 C7.18191383,7.61731402 7.24263527,7.65646899 7.26495491,7.65646899 C7.2873497,7.65646899 7.30561122,7.66952065 7.30561122,7.68547267 C7.30561122,7.70142469 7.33266533,7.71447635 7.36573146,7.71447635 C7.3987976,7.71447635 7.4258517,7.72557025 7.4258517,7.73912947 C7.4258517,7.75268869 7.51715932,7.80627299 7.62875752,7.85818957 C7.74035571,7.91010616 7.85518537,7.96427052 7.88389279,7.97855484 C7.9126002,7.99283915 7.95656313,8.00451313 7.98158818,8.00451313 C8.00661323,8.00451313 8.02705411,8.01756478 8.02705411,8.03351681 C8.02705411,8.04946883 8.06763527,8.06252048 8.11723447,8.06252048 C8.16683367,8.06252048 8.20741483,8.07557214 8.20741483,8.09152416 C8.20741483,8.10747619 8.25393287,8.12052784 8.31082164,8.12052784 C8.36771042,8.12052784 8.42264529,8.1335795 8.43286573,8.14953152 C8.44308617,8.16548354 8.49719439,8.1785352 8.55310621,8.1785352 C8.60901804,8.1785352 8.66312625,8.19158685 8.67334669,8.20753887 C8.68356713,8.2234909 8.77825651,8.23654255 8.88376754,8.23654255 C8.98927856,8.23654255 9.08396794,8.24959421 9.09418838,8.26554623 C9.11883768,8.30404861 9.88116232,8.30404861 9.90581162,8.26554623 C9.91603206,8.24959421 10.0107214,8.23654255 10.1162325,8.23654255 C10.2217435,8.23654255 10.3164329,8.2234909 10.3266533,8.20753887 C10.3368737,8.19158685 10.390982,8.1785352 10.4468938,8.1785352 C10.5028056,8.1785352 10.5569138,8.16548354 10.5671343,8.14953152 C10.5773547,8.1335795 10.6322896,8.12052784 10.6891784,8.12052784 C10.7460671,8.12052784 10.7925852,8.10747619 10.7925852,8.09152416 C10.7925852,8.07557214 10.8331663,8.06252048 10.8827655,8.06252048 C10.9323647,8.06252048 10.9729459,8.04946883 10.9729459,8.03351681 C10.9729459,8.01756478 10.9933868,8.00451313 11.0184118,8.00451313 C11.0434369,8.00451313 11.0873998,7.99283915 11.1161072,7.97855484 C11.1448146,7.96427052 11.2596443,7.91010616 11.3712425,7.85818957 C11.4828407,7.80627299 11.5741483,7.75268869 11.5741483,7.73912947 C11.5741483,7.72557025 11.6012024,7.71447635 11.6342685,7.71447635 C11.6673347,7.71447635 11.6943888,7.70142469 11.6943888,7.68547267 C11.6943888,7.66952065 11.7126503,7.65646899 11.7350451,7.65646899 C11.7573647,7.65646899 11.8180862,7.61731402 11.870015,7.56945796 C11.9219439,7.52160189 11.9771042,7.48244692 11.9925852,7.48244692 C12.0336172,7.48244692 12.7164329,6.82435346 12.7164329,6.78490846 C12.7164329,6.76656364 12.757014,6.71508211 12.8066132,6.67034393 C12.8562124,6.62560576 12.8967936,6.56817848 12.8967936,6.54272775 C12.8967936,6.51720451 12.9103206,6.49632187 12.9268537,6.49632187 C12.9433868,6.49632187 12.9569138,6.47920969 12.9569138,6.45825454 C12.9569138,6.43737189 12.9839679,6.39219866 13.0170341,6.35797432 C13.0501002,6.32374998 13.0771543,6.27560387 13.0771543,6.25102326 C13.0771543,6.22644264 13.0906814,6.20628508 13.1072144,6.20628508 C13.1237475,6.20628508 13.1372745,6.18018177 13.1372745,6.14827773 C13.1372745,6.11637368 13.1508016,6.09027037 13.1673347,6.09027037 C13.1838677,6.09027037 13.1973948,6.06416706 13.1973948,6.03226301 C13.1973948,6.00035897 13.2109218,5.97425566 13.2274549,5.97425566 C13.243988,5.97425566 13.257515,5.93510069 13.257515,5.88724462 C13.257515,5.83938856 13.2710421,5.80023359 13.2875752,5.80023359 C13.3041082,5.80023359 13.3176353,5.77492788 13.3176353,5.74396645 C13.3176353,5.71300503 13.3311623,5.67957829 13.3476954,5.66971704 C13.3642285,5.65985579 13.3777555,5.61417499 13.3777555,5.56820416 C13.3777555,5.52223333 13.3912826,5.47655254 13.4078156,5.46669129 C13.4243487,5.45683004 13.4378758,5.41114925 13.4378758,5.36517842 C13.4378758,5.31920759 13.4514028,5.27352679 13.4679359,5.26366554 C13.4844689,5.25380429 13.497996,5.17549436 13.497996,5.08964348 C13.497996,5.00379259 13.511523,4.92548266 13.5280561,4.91562141 C13.5463176,4.90474503 13.5581162,4.68866763 13.5581162,4.36455152 C13.5581162,4.04043542 13.5463176,3.82435802 13.5280561,3.81348164 C13.511523,3.80362039 13.497996,3.72451285 13.497996,3.63771935 C13.497996,3.55092584 13.4844689,3.47993934 13.4679359,3.47993934 C13.4514028,3.47993934 13.4378758,3.42773272 13.4378758,3.36392463 C13.4378758,3.30011653 13.4243487,3.24790991 13.4078156,3.24790991 C13.3912826,3.24790991 13.3777555,3.20875495 13.3777555,3.16089888 C13.3777555,3.11304281 13.3642285,3.07388785 13.3476954,3.07388785 C13.3311623,3.07388785 13.3176353,3.03473288 13.3176353,2.98687681 C13.3176353,2.93902074 13.3041082,2.89986578 13.2875752,2.89986578 C13.2710421,2.89986578 13.257515,2.88014328 13.257515,2.85599771 C13.257515,2.83185215 13.2457164,2.78943427 13.2312124,2.76173576 C13.2167836,2.73403725 13.1741733,2.65260942 13.136523,2.58082532 C13.0989479,2.50904121 13.0533317,2.42101505 13.0350701,2.38526802 C13.0168838,2.34952098 12.9918587,2.32015476 12.9794589,2.32000974 C12.9670591,2.31986472 12.9569138,2.29658927 12.9569138,2.26816567 C12.9569138,2.23981457 12.9298597,2.19775924 12.8967936,2.17477382 C12.8637275,2.15178841 12.8366733,2.11495374 12.8366733,2.09298345 C12.8366733,2.07101316 12.7960922,2.01648625 12.746493,1.97174808 C12.6968938,1.9270099 12.6563126,1.87748612 12.6563126,1.86160661 C12.6563126,1.82187157 12.2447144,1.42067819 12.1152305,1.33417472 C12.0573647,1.29552732 11.9897295,1.24361074 11.9649299,1.21881259 C11.9401303,1.19401445 11.8826403,1.15529454 11.8371743,1.13281669 C11.7917084,1.11026633 11.754509,1.08097261 11.754509,1.06770343 C11.754509,1.05450675 11.7304609,1.04363038 11.701002,1.04363038 C11.6716182,1.04363038 11.6280311,1.01752707 11.6042084,0.985623019 C11.5803858,0.953718973 11.5367986,0.927615663 11.5074148,0.927615663 C11.4779559,0.927615663 11.4539078,0.914564008 11.4539078,0.898611985 C11.4539078,0.882659962 11.4268537,0.869608307 11.3937876,0.869608307 C11.3607214,0.869608307 11.3336673,0.856556652 11.3336673,0.840604629 C11.3336673,0.824652606 11.3066132,0.811600951 11.2735471,0.811600951 C11.240481,0.811600951 11.2134269,0.798549295 11.2134269,0.782597272 C11.2134269,0.766645249 11.1871994,0.753593594 11.1551102,0.753593594 C11.123021,0.753593594 11.0883768,0.740541939 11.0781563,0.724589916 C11.0679359,0.708637893 11.0265281,0.695586238 10.9861723,0.695586238 C10.9458166,0.695586238 10.9128257,0.682534583 10.9128257,0.66658256 C10.9128257,0.650630537 10.8722445,0.637578882 10.8226453,0.637578882 C10.7730461,0.637578882 10.7324649,0.624527227 10.7324649,0.608575204 C10.7324649,0.592623181 10.679484,0.579571525 10.6147044,0.579571525 C10.5496994,0.579571525 10.4916082,0.563982048 10.4849198,0.544694603 C10.4727455,0.509455134 9.02933367,0.483714369 8.66583166,0.512210483 M9.84569138,2.52281796 C9.85591182,2.53876998 9.91084669,2.55182164 9.96773547,2.55182164 C10.0246242,2.55182164 10.0711423,2.56487329 10.0711423,2.58082532 C10.0711423,2.59677734 10.1117234,2.60982899 10.1613226,2.60982899 C10.2109218,2.60982899 10.251503,2.62288065 10.251503,2.63883267 C10.251503,2.6547847 10.2785571,2.66783635 10.3116232,2.66783635 C10.3446894,2.66783635 10.3717435,2.68088801 10.3717435,2.69684003 C10.3717435,2.71279205 10.389479,2.72584371 10.4111974,2.72584371 C10.4328407,2.72584371 10.4796593,2.75194702 10.5151303,2.78385106 C10.5506012,2.81575511 10.5921593,2.84185842 10.60749,2.84185842 C10.6435621,2.84185842 11.0330661,3.20643465 11.0330661,3.24022394 C11.0330661,3.25436323 11.0567385,3.29127041 11.0856713,3.32223184 C11.1530812,3.39430598 11.2735471,3.61806936 11.2735471,3.6712186 C11.2735471,3.69362394 11.2870741,3.71196876 11.3036072,3.71196876 C11.3201403,3.71196876 11.3336673,3.7438003 11.3336673,3.78273774 C11.3336673,3.82167518 11.3471944,3.86162774 11.3637275,3.87148899 C11.3802605,3.88135024 11.3937876,3.94008269 11.3937876,4.00200555 C11.3937876,4.0639284 11.4073146,4.12266085 11.4238477,4.1325221 C11.4403808,4.14238335 11.4539078,4.24759419 11.4539078,4.36629174 C11.4539078,4.49079003 11.4412074,4.58207911 11.4238477,4.58207911 C11.4073146,4.58207911 11.3937876,4.64733738 11.3937876,4.7270975 C11.3937876,4.80685761 11.3802605,4.87211589 11.3637275,4.87211589 C11.3471944,4.87211589 11.3336673,4.90394743 11.3336673,4.94288486 C11.3336673,4.9818223 11.3201403,5.02177487 11.3036072,5.03163612 C11.2870741,5.04149737 11.2735471,5.07492411 11.2735471,5.10588554 C11.2735471,5.13684696 11.26002,5.16215267 11.243487,5.16215267 C11.2269539,5.16215267 11.2134269,5.18535561 11.2134269,5.21377922 C11.2134269,5.24213031 11.1863727,5.28418565 11.1533066,5.30717106 C11.1202405,5.33015648 11.0931864,5.365831 11.0931864,5.38649612 C11.0931864,5.43783263 10.5935872,5.9162483 10.540005,5.9162483 C10.5163327,5.9162483 10.49251,5.92603704 10.4869489,5.93800106 C10.47252,5.96932503 10.2235471,6.09027037 10.173497,6.09027037 C10.1502756,6.09027037 10.1312625,6.10332203 10.1312625,6.11927405 C10.1312625,6.13522607 10.0906814,6.14827773 10.0410822,6.14827773 C9.99148297,6.14827773 9.9509018,6.16132938 9.9509018,6.17728141 C9.9509018,6.1953362 9.78053607,6.20628508 9.5,6.20628508 C9.21946393,6.20628508 9.0490982,6.1953362 9.0490982,6.17728141 C9.0490982,6.16132938 9.00851703,6.14827773 8.95891784,6.14827773 C8.90931864,6.14827773 8.86873747,6.13522607 8.86873747,6.11927405 C8.86873747,6.10332203 8.84972445,6.09027037 8.82650301,6.09027037 C8.77645291,6.09027037 8.52747996,5.96932503 8.5130511,5.93800106 C8.50748998,5.92603704 8.48366733,5.9162483 8.45999499,5.9162483 C8.40641283,5.9162483 7.90681363,5.43783263 7.90681363,5.38649612 C7.90681363,5.365831 7.87975952,5.33015648 7.84669339,5.30717106 C7.81362725,5.28418565 7.78657315,5.24213031 7.78657315,5.21377922 C7.78657315,5.18535561 7.77304609,5.16215267 7.75651303,5.16215267 C7.73997996,5.16215267 7.72645291,5.13684696 7.72645291,5.10588554 C7.72645291,5.07492411 7.71292585,5.04149737 7.69639279,5.03163612 C7.67985972,5.02177487 7.66633267,4.9818223 7.66633267,4.94288486 C7.66633267,4.90394743 7.65280561,4.87211589 7.63627255,4.87211589 C7.61973948,4.87211589 7.60621242,4.80685761 7.60621242,4.7270975 C7.60621242,4.64733738 7.59268537,4.58207911 7.5761523,4.58207911 C7.55879259,4.58207911 7.54609218,4.49079003 7.54609218,4.36629174 C7.54609218,4.24759419 7.55961924,4.14238335 7.5761523,4.1325221 C7.59268537,4.12266085 7.60621242,4.0639284 7.60621242,4.00200555 C7.60621242,3.94008269 7.61973948,3.88135024 7.63627255,3.87148899 C7.65280561,3.86162774 7.66633267,3.82167518 7.66633267,3.78273774 C7.66633267,3.7438003 7.67985972,3.71196876 7.69639279,3.71196876 C7.71292585,3.71196876 7.72645291,3.69362394 7.72645291,3.6712186 C7.72645291,3.61806936 7.84691884,3.39430598 7.91432866,3.32223184 C7.94326152,3.29127041 7.96693387,3.25436323 7.96693387,3.24022394 C7.96693387,3.20643465 8.35643788,2.84185842 8.39251002,2.84185842 C8.40784068,2.84185842 8.4493988,2.81575511 8.48486974,2.78385106 C8.52034068,2.75194702 8.56715932,2.72584371 8.58880261,2.72584371 C8.61052104,2.72584371 8.62825651,2.71279205 8.62825651,2.69684003 C8.62825651,2.68088801 8.65531062,2.66783635 8.68837675,2.66783635 C8.72144289,2.66783635 8.74849699,2.6547847 8.74849699,2.63883267 C8.74849699,2.62288065 8.78907816,2.60982899 8.83867735,2.60982899 C8.88827655,2.60982899 8.92885772,2.59677734 8.92885772,2.58082532 C8.92885772,2.56487329 8.97537575,2.55182164 9.03226453,2.55182164 C9.08915331,2.55182164 9.14408818,2.53876998 9.15430862,2.52281796 C9.16482966,2.50635837 9.31437876,2.49381428 9.5,2.49381428 C9.68562124,2.49381428 9.83517034,2.50635837 9.84569138,2.52281796 M0.459343687,12.5798434 L0.466933868,17.9672766 L1.09068136,17.9751076 C1.47236974,17.9798932 1.71442886,17.99396 1.71442886,18.0113622 C1.71442886,18.0275317 1.81730962,18.0397858 1.95310621,18.0397858 C2.08439379,18.0397858 2.2002004,18.0528374 2.21042084,18.0687894 C2.22064128,18.0847415 2.31615731,18.0977931 2.42264529,18.0977931 C2.53168838,18.0977931 2.61623246,18.1104822 2.61623246,18.1267968 C2.61623246,18.1428938 2.69641784,18.1558005 2.79659319,18.1558005 C2.89676854,18.1558005 2.97695391,18.1687071 2.97695391,18.1848042 C2.97695391,18.2007562 3.03023547,18.2138078 3.09539078,18.2138078 C3.16054609,18.2138078 3.22224449,18.2268595 3.23246493,18.2428115 C3.24268537,18.2587635 3.31114729,18.2718152 3.38456914,18.2718152 C3.45799098,18.2718152 3.51803607,18.2848668 3.51803607,18.3008189 C3.51803607,18.3167709 3.57214429,18.3298225 3.63827655,18.3298225 C3.70440882,18.3298225 3.75851703,18.3428742 3.75851703,18.3588262 C3.75851703,18.3747782 3.79827154,18.3878299 3.84689379,18.3878299 C3.89551603,18.3878299 3.94368737,18.4008816 3.95390782,18.4168336 C3.96412826,18.4327856 4.01906313,18.4458373 4.0759519,18.4458373 C4.13284068,18.4458373 4.17935872,18.4588889 4.17935872,18.4748409 C4.17935872,18.490793 4.21993988,18.5038446 4.26953908,18.5038446 C4.31913828,18.5038446 4.35971944,18.5168963 4.35971944,18.5328483 C4.35971944,18.5488003 4.39947395,18.561852 4.44809619,18.561852 C4.49671844,18.561852 4.54488978,18.5749036 4.55511022,18.5908556 C4.56533066,18.6068077 4.60591182,18.6198593 4.64529058,18.6198593 C4.68466934,18.6198593 4.7252505,18.632911 4.73547094,18.648863 C4.74569138,18.664815 4.7870992,18.6778667 4.82745491,18.6778667 C4.86781062,18.6778667 4.9008016,18.6909183 4.9008016,18.7068704 C4.9008016,18.7228224 4.94138277,18.735874 4.99098196,18.735874 C5.04058116,18.735874 5.08116232,18.7489257 5.08116232,18.7648777 C5.08116232,18.7808297 5.11415331,18.7938814 5.15450902,18.7938814 C5.19486473,18.7938814 5.23627255,18.806933 5.24649299,18.8228851 C5.25671343,18.8388371 5.29135772,18.8518888 5.32344689,18.8518888 C5.35553607,18.8518888 5.38176353,18.8649404 5.38176353,18.8808924 C5.38176353,18.8968445 5.40799098,18.9098961 5.44008016,18.9098961 C5.47216934,18.9098961 5.50681363,18.9229478 5.51703407,18.9388998 C5.52725451,18.9548518 5.56866232,18.9679035 5.60901804,18.9679035 C5.64937375,18.9679035 5.68236473,18.9809551 5.68236473,18.9969071 C5.68236473,19.0128592 5.70941884,19.0259108 5.74248497,19.0259108 C5.7755511,19.0259108 5.80260521,19.0389625 5.80260521,19.0549145 C5.80260521,19.0708665 5.82101703,19.0839182 5.84348697,19.0839182 C5.88046092,19.0839182 6.05488477,19.1607054 6.38877756,19.3238511 C6.45490982,19.3561902 6.53937876,19.3969404 6.57642786,19.4145601 C6.61347695,19.4321073 6.64391283,19.4562529 6.64406313,19.4682169 C6.64421343,19.4801809 6.67134269,19.4899697 6.70440882,19.4899697 C6.73747495,19.4899697 6.76452906,19.5030213 6.76452906,19.5189733 C6.76452906,19.5349254 6.79158317,19.547977 6.8246493,19.547977 C6.85771543,19.547977 6.88476954,19.5610287 6.88476954,19.5769807 C6.88476954,19.5929327 6.90566132,19.6059844 6.93113727,19.6059844 C6.95661323,19.6059844 7.00651303,19.6320877 7.04198397,19.6639917 C7.07745491,19.6958958 7.12427355,19.7219991 7.14591683,19.7219991 C7.16763527,19.7219991 7.18537074,19.7350507 7.18537074,19.7510028 C7.18537074,19.7669548 7.20626253,19.7800065 7.23173848,19.7800065 C7.25721443,19.7800065 7.30711423,19.8061098 7.34258517,19.8380138 C7.37805611,19.8699179 7.42487475,19.8960212 7.44651804,19.8960212 C7.46823647,19.8960212 7.48597194,19.9090728 7.48597194,19.9250248 C7.48597194,19.9409769 7.51002004,19.9540285 7.53947896,19.9540285 C7.56886273,19.9540285 7.6124499,19.9801318 7.63627255,20.0120359 C7.66009519,20.0439399 7.70067635,20.0700432 7.72645291,20.0700432 C7.75222946,20.0700432 7.79281062,20.0961465 7.81663327,20.1280506 C7.84045591,20.1599546 7.87742986,20.1860579 7.89869739,20.1860579 C7.91996493,20.1860579 7.97985972,20.2252129 8.03178858,20.273069 C8.08371743,20.320925 8.13782565,20.36008 8.15202906,20.36008 C8.16623246,20.36008 8.22034068,20.399235 8.27226954,20.447091 C8.3241984,20.4949471 8.37830661,20.5341021 8.39251002,20.5341021 C8.40671343,20.5341021 8.46082164,20.573257 8.5127505,20.6211131 C8.56467936,20.6689692 8.61968938,20.7081242 8.63509519,20.7081242 C8.65042585,20.7081242 8.71497996,20.7603308 8.77855711,20.8241389 C8.84213427,20.887947 8.90856713,20.9401536 8.92630261,20.9401536 C8.94396293,20.9401536 9.06773547,21.0445668 9.2012024,21.172183 C9.33474449,21.2997992 9.46851202,21.4042124 9.49842184,21.4042124 C9.52840681,21.4042124 9.66435371,21.2997992 9.8006012,21.172183 C9.9368487,21.0445668 10.0612976,20.9401536 10.0770792,20.9401536 C10.0929359,20.9401536 10.1578657,20.887947 10.2214429,20.8241389 C10.28502,20.7603308 10.3528808,20.7081242 10.3723447,20.7081242 C10.3918086,20.7081242 10.4456162,20.6689692 10.491984,20.6211131 C10.5383517,20.573257 10.5890782,20.5341021 10.6047846,20.5341021 C10.620491,20.5341021 10.6758016,20.4949471 10.7277305,20.447091 C10.7796593,20.399235 10.8395541,20.36008 10.8608216,20.36008 C10.8820892,20.36008 10.9190631,20.3339767 10.9428858,20.3020727 C10.9667084,20.2701686 11.0001503,20.2440653 11.0171343,20.2439928 C11.0341934,20.2439928 11.0954409,20.2048378 11.1533066,20.1570543 C11.2111723,20.1092707 11.2692635,20.0701157 11.2823397,20.0701157 C11.2954158,20.0700432 11.3351703,20.0439399 11.3706413,20.0120359 C11.4061122,19.9801318 11.4529309,19.9540285 11.4745741,19.9540285 C11.4962926,19.9540285 11.5140281,19.9409769 11.5140281,19.9250248 C11.5140281,19.9090728 11.5380762,19.8960212 11.5675351,19.8960212 C11.5969188,19.8960212 11.640506,19.8699179 11.6643287,19.8380138 C11.6881513,19.8061098 11.7317385,19.7800065 11.7611222,19.7800065 C11.7905812,19.7800065 11.8146293,19.7669548 11.8146293,19.7510028 C11.8146293,19.7350507 11.8323647,19.7219991 11.8540832,19.7219991 C11.8757265,19.7219991 11.9225451,19.6958958 11.958016,19.6639917 C11.993487,19.6320877 12.0433868,19.6059844 12.0688627,19.6059844 C12.0943387,19.6059844 12.1152305,19.5929327 12.1152305,19.5769807 C12.1152305,19.5610287 12.1422846,19.547977 12.1753507,19.547977 C12.2084168,19.547977 12.2354709,19.5349254 12.2354709,19.5189733 C12.2354709,19.5030213 12.2625251,19.4899697 12.2955912,19.4899697 C12.3286573,19.4899697 12.3557114,19.476918 12.3557114,19.460966 C12.3557114,19.445014 12.3816383,19.4319623 12.4133517,19.4319623 C12.44499,19.4319623 12.4754259,19.4221736 12.480987,19.4102096 C12.4954158,19.3788856 12.7443888,19.2579402 12.7944389,19.2579402 C12.8176603,19.2579402 12.8366733,19.2448886 12.8366733,19.2289366 C12.8366733,19.2129845 12.8637275,19.1999329 12.8967936,19.1999329 C12.9298597,19.1999329 12.9569138,19.1868812 12.9569138,19.1709292 C12.9569138,19.1549772 12.9839679,19.1419255 13.0170341,19.1419255 C13.0501002,19.1419255 13.0771543,19.1288739 13.0771543,19.1129219 C13.0771543,19.0969698 13.1042084,19.0839182 13.1372745,19.0839182 C13.1703407,19.0839182 13.1973948,19.0708665 13.1973948,19.0549145 C13.1973948,19.0389625 13.2244489,19.0259108 13.257515,19.0259108 C13.2905812,19.0259108 13.3176353,19.0128592 13.3176353,18.9969071 C13.3176353,18.9809551 13.3582164,18.9679035 13.4078156,18.9679035 C13.4574148,18.9679035 13.497996,18.9548518 13.497996,18.9388998 C13.497996,18.9229478 13.5250501,18.9098961 13.5581162,18.9098961 C13.5911824,18.9098961 13.6182365,18.8968445 13.6182365,18.8808924 C13.6182365,18.8649404 13.6512275,18.8518888 13.6915832,18.8518888 C13.7319389,18.8518888 13.7733467,18.8388371 13.7835671,18.8228851 C13.7937876,18.806933 13.8284319,18.7938814 13.860521,18.7938814 C13.8926102,18.7938814 13.9188377,18.7808297 13.9188377,18.7648777 C13.9188377,18.7489257 13.9594188,18.735874 14.009018,18.735874 C14.0586172,18.735874 14.0991984,18.7228224 14.0991984,18.7068704 C14.0991984,18.6909183 14.1321894,18.6778667 14.1725451,18.6778667 C14.2129008,18.6778667 14.2543086,18.664815 14.2645291,18.648863 C14.2747495,18.632911 14.3229208,18.6198593 14.3715431,18.6198593 C14.4201653,18.6198593 14.4599198,18.6068077 14.4599198,18.5908556 C14.4599198,18.5749036 14.500501,18.561852 14.5501002,18.561852 C14.5996994,18.561852 14.6402806,18.5488003 14.6402806,18.5328483 C14.6402806,18.5168963 14.6808617,18.5038446 14.7304609,18.5038446 C14.7800601,18.5038446 14.8206413,18.490793 14.8206413,18.4748409 C14.8206413,18.4588889 14.8671593,18.4458373 14.9240481,18.4458373 C14.9809369,18.4458373 15.0358717,18.4327856 15.0460922,18.4168336 C15.0563126,18.4008816 15.104484,18.3878299 15.1531062,18.3878299 C15.2017285,18.3878299 15.241483,18.3747782 15.241483,18.3588262 C15.241483,18.3428742 15.2955912,18.3298225 15.3617234,18.3298225 C15.4278557,18.3298225 15.4819639,18.3167709 15.4819639,18.3008189 C15.4819639,18.2848668 15.5495992,18.2718152 15.6322645,18.2718152 C15.7149299,18.2718152 15.7825651,18.2587635 15.7825651,18.2428115 C15.7825651,18.2268595 15.8358467,18.2138078 15.901002,18.2138078 C15.9661573,18.2138078 16.0278557,18.2007562 16.0380762,18.1848042 C16.0482966,18.1688521 16.1302856,18.1558005 16.2202405,18.1558005 C16.3101954,18.1558005 16.3837675,18.1427488 16.3837675,18.1267968 C16.3837675,18.1104822 16.4683116,18.0977931 16.5773547,18.0977931 C16.6838427,18.0977931 16.7793587,18.0847415 16.7895792,18.0687894 C16.7997996,18.0528374 16.9156062,18.0397858 17.0468938,18.0397858 C17.1826904,18.0397858 17.2855711,18.0275317 17.2855711,18.0113622 C17.2855711,17.99396 17.5276303,17.9798932 17.9093186,17.9751076 L18.5330661,17.9672766 L18.5406563,12.5798434 L18.5482465,7.19241014 L18.1742234,7.19241014 C17.9572645,7.19241014 17.7923096,7.20459169 17.7815631,7.22141382 C17.7708918,7.23816344 17.6108968,7.2504175 17.404008,7.2504175 C17.1847946,7.2504175 17.0450902,7.26172893 17.0450902,7.27942117 C17.0450902,7.29631582 16.9449148,7.30842485 16.8046092,7.30842485 C16.6643036,7.30842485 16.5641283,7.32053389 16.5641283,7.33742853 C16.5641283,7.35352557 16.4839429,7.36643221 16.3837675,7.36643221 C16.2835922,7.36643221 16.2034068,7.37933885 16.2034068,7.39543589 C16.2034068,7.41138791 16.1298347,7.42443957 16.0398798,7.42443957 C15.9499248,7.42443957 15.8679359,7.43749122 15.8577154,7.45344324 C15.847495,7.46939527 15.7857966,7.48244692 15.7206413,7.48244692 C15.655486,7.48244692 15.6022044,7.49549858 15.6022044,7.5114506 C15.6022044,7.52740262 15.5421593,7.54045428 15.4687375,7.54045428 C15.3953156,7.54045428 15.3268537,7.55350593 15.3166333,7.56945796 C15.3064128,7.58540998 15.2590681,7.59846163 15.2114228,7.59846163 C15.1637776,7.59846163 15.1164329,7.61151329 15.1062124,7.62746531 C15.095992,7.64341734 15.0410571,7.65646899 14.9841683,7.65646899 C14.9272796,7.65646899 14.8807615,7.66952065 14.8807615,7.68547267 C14.8807615,7.70142469 14.8342435,7.71447635 14.7773547,7.71447635 C14.7204659,7.71447635 14.6655311,7.727528 14.6553106,7.74348002 C14.6450902,7.75943205 14.5969188,7.7724837 14.5482966,7.7724837 C14.4996743,7.7724837 14.4599198,7.78553536 14.4599198,7.80148738 C14.4599198,7.8174394 14.4193387,7.83049106 14.3697395,7.83049106 C14.3201403,7.83049106 14.2795591,7.84354271 14.2795591,7.85949474 C14.2795591,7.87544676 14.238978,7.88849842 14.1893788,7.88849842 C14.1397796,7.88849842 14.0991984,7.90155007 14.0991984,7.91750209 C14.0991984,7.93345412 14.0662074,7.94650577 14.0258517,7.94650577 C13.985496,7.94650577 13.9440882,7.95955743 13.9338677,7.97550945 C13.9236473,7.99146147 13.889003,8.00451313 13.8569138,8.00451313 C13.8248246,8.00451313 13.7985972,8.01756478 13.7985972,8.03351681 C13.7985972,8.04946883 13.758016,8.06252048 13.7084168,8.06252048 C13.6588176,8.06252048 13.6182365,8.07557214 13.6182365,8.09152416 C13.6182365,8.10747619 13.592009,8.12052784 13.5599198,8.12052784 C13.5278307,8.12052784 13.4931864,8.1335795 13.4829659,8.14953152 C13.4727455,8.16548354 13.4313377,8.1785352 13.390982,8.1785352 C13.3506263,8.1785352 13.3176353,8.19158685 13.3176353,8.20753887 C13.3176353,8.2234909 13.2905812,8.23654255 13.257515,8.23654255 C13.2244489,8.23654255 13.1973948,8.24959421 13.1973948,8.26554623 C13.1973948,8.28149825 13.1703407,8.29454991 13.1372745,8.29454991 C13.1042084,8.29454991 13.0771543,8.30760156 13.0771543,8.32355359 C13.0771543,8.33950561 13.0441633,8.35255727 13.0038076,8.35255727 C12.9634519,8.35255727 12.9220441,8.36560892 12.9118236,8.38156094 C12.9016032,8.39751297 12.8669589,8.41056462 12.8348697,8.41056462 C12.8027806,8.41056462 12.7765531,8.42361628 12.7765531,8.4395683 C12.7765531,8.45552032 12.749499,8.46857198 12.7164329,8.46857198 C12.6833667,8.46857198 12.6563126,8.48162363 12.6563126,8.49757566 C12.6563126,8.51352768 12.6292585,8.52657933 12.5961924,8.52657933 C12.5631263,8.52657933 12.5360721,8.53963099 12.5360721,8.55558301 C12.5360721,8.57153504 12.509018,8.58458669 12.4759519,8.58458669 C12.4428858,8.58458669 12.4158317,8.59763835 12.4158317,8.61359037 C12.4158317,8.62954239 12.3887776,8.64259405 12.3557114,8.64259405 C12.3226453,8.64259405 12.2955912,8.6556457 12.2955912,8.67159773 C12.2955912,8.68754975 12.2778557,8.7006014 12.2561373,8.7006014 C12.234494,8.7006014 12.1876754,8.72670471 12.1522044,8.75860876 C12.1167335,8.79051281 12.0668337,8.81661612 12.0413577,8.81661612 C12.0158818,8.81661612 11.99499,8.82966777 11.99499,8.84561979 C11.99499,8.86157182 11.9679359,8.87462347 11.9348697,8.87462347 C11.9018036,8.87462347 11.8747495,8.88767513 11.8747495,8.90362715 C11.8747495,8.91957917 11.857014,8.93263083 11.8352956,8.93263083 C11.8136523,8.93263083 11.7668337,8.95873414 11.7313627,8.99063818 C11.6958918,9.02254223 11.645992,9.04864554 11.620516,9.04864554 C11.5950401,9.04864554 11.5741483,9.0616972 11.5741483,9.07764922 C11.5741483,9.09360124 11.5564128,9.1066529 11.5346944,9.1066529 C11.5130511,9.1066529 11.4662325,9.13275621 11.4307615,9.16466025 C11.3952906,9.1965643 11.3483968,9.22266761 11.3265281,9.22266761 C11.3046593,9.22266761 11.2673096,9.24877092 11.243487,9.28067497 C11.2196643,9.31257901 11.1790832,9.33868232 11.1533066,9.33868232 C11.1275301,9.33868232 11.0869489,9.36478563 11.0631263,9.39668968 C11.0393036,9.42859372 10.9987224,9.45469703 10.9729459,9.45469703 C10.9471693,9.45469703 10.9065882,9.48080035 10.8827655,9.51270439 C10.8589429,9.54460844 10.8241483,9.57071175 10.8054359,9.57071175 C10.7867234,9.57071175 10.729008,9.60986671 10.6770792,9.65772278 C10.6251503,9.70557885 10.5718687,9.74473382 10.5587174,9.74473382 C10.545491,9.74473382 10.4748497,9.79694044 10.4018036,9.86074853 C10.3287575,9.92455662 10.2572144,9.97676324 10.2428607,9.97676324 C10.228507,9.97676324 10.1647796,10.0289699 10.1012024,10.092778 C10.0376253,10.156586 9.97044088,10.2087927 9.95180361,10.2087927 C9.93316633,10.2087927 9.8238978,10.3008068 9.70899299,10.4132686 L9.5,10.617672 L9.29100701,10.4132686 C9.1761022,10.3008068 9.06683367,10.2087927 9.04819639,10.2087927 C9.02955912,10.2087927 8.96237475,10.156586 8.8987976,10.092778 C8.83522044,10.0289699 8.77149299,9.97676324 8.75713928,9.97676324 C8.74278557,9.97676324 8.67124248,9.92455662 8.59819639,9.86074853 C8.5251503,9.79694044 8.45450902,9.74473382 8.44128257,9.74473382 C8.42813126,9.74473382 8.3748497,9.70557885 8.32292084,9.65772278 C8.27099198,9.60986671 8.21327655,9.57071175 8.19456413,9.57071175 C8.1758517,9.57071175 8.14105711,9.54460844 8.11723447,9.51270439 C8.09341182,9.48080035 8.05283066,9.45469703 8.02705411,9.45469703 C8.00127756,9.45469703 7.96069639,9.42859372 7.93687375,9.39668968 C7.9130511,9.36478563 7.87246994,9.33868232 7.84669339,9.33868232 C7.82091683,9.33868232 7.78033567,9.31257901 7.75651303,9.28067497 C7.73269038,9.24877092 7.69534068,9.22266761 7.67347194,9.22266761 C7.65160321,9.22266761 7.60470942,9.1965643 7.56923848,9.16466025 C7.53376754,9.13275621 7.4869489,9.1066529 7.46530561,9.1066529 C7.44358717,9.1066529 7.4258517,9.09360124 7.4258517,9.07764922 C7.4258517,9.0616972 7.40495992,9.04864554 7.37948397,9.04864554 C7.35400802,9.04864554 7.30410822,9.02254223 7.26863727,8.99063818 C7.23316633,8.95873414 7.1863477,8.93263083 7.16470441,8.93263083 C7.14298597,8.93263083 7.1252505,8.91957917 7.1252505,8.90362715 C7.1252505,8.88767513 7.09819639,8.87462347 7.06513026,8.87462347 C7.03206413,8.87462347 7.00501002,8.86157182 7.00501002,8.84561979 C7.00501002,8.82966777 6.98411824,8.81661612 6.95864228,8.81661612 C6.93316633,8.81661612 6.88326653,8.79051281 6.84779559,8.75860876 C6.81232465,8.72670471 6.76550601,8.7006014 6.74386273,8.7006014 C6.72214429,8.7006014 6.70440882,8.68754975 6.70440882,8.67159773 C6.70440882,8.6556457 6.67735471,8.64259405 6.64428858,8.64259405 C6.61122244,8.64259405 6.58416834,8.62954239 6.58416834,8.61359037 C6.58416834,8.59763835 6.55711423,8.58458669 6.5240481,8.58458669 C6.49098196,8.58458669 6.46392786,8.57153504 6.46392786,8.55558301 C6.46392786,8.53963099 6.43687375,8.52657933 6.40380762,8.52657933 C6.37074148,8.52657933 6.34368737,8.51352768 6.34368737,8.49757566 C6.34368737,8.48162363 6.31663327,8.46857198 6.28356713,8.46857198 C6.250501,8.46857198 6.22344689,8.45552032 6.22344689,8.4395683 C6.22344689,8.42361628 6.19721944,8.41056462 6.16513026,8.41056462 C6.13304108,8.41056462 6.09839679,8.39751297 6.08817635,8.38156094 C6.07795591,8.36560892 6.0365481,8.35255727 5.99619238,8.35255727 C5.95583667,8.35255727 5.92284569,8.33950561 5.92284569,8.32355359 C5.92284569,8.30760156 5.89579158,8.29454991 5.86272545,8.29454991 C5.82965932,8.29454991 5.80260521,8.28149825 5.80260521,8.26554623 C5.80260521,8.24959421 5.7755511,8.23654255 5.74248497,8.23654255 C5.70941884,8.23654255 5.68236473,8.2234909 5.68236473,8.20753887 C5.68236473,8.19158685 5.64937375,8.1785352 5.60901804,8.1785352 C5.56866232,8.1785352 5.52725451,8.16548354 5.51703407,8.14953152 C5.50681363,8.1335795 5.47216934,8.12052784 5.44008016,8.12052784 C5.40799098,8.12052784 5.38176353,8.10747619 5.38176353,8.09152416 C5.38176353,8.07557214 5.34118236,8.06252048 5.29158317,8.06252048 C5.24198397,8.06252048 5.20140281,8.04946883 5.20140281,8.03351681 C5.20140281,8.01756478 5.17517535,8.00451313 5.14308617,8.00451313 C5.11099699,8.00451313 5.07635271,7.99146147 5.06613226,7.97550945 C5.05591182,7.95955743 5.01450401,7.94650577 4.9741483,7.94650577 C4.93379259,7.94650577 4.9008016,7.93345412 4.9008016,7.91750209 C4.9008016,7.90155007 4.86022044,7.88849842 4.81062124,7.88849842 C4.76102204,7.88849842 4.72044088,7.87544676 4.72044088,7.85949474 C4.72044088,7.84354271 4.67985972,7.83049106 4.63026052,7.83049106 C4.58066132,7.83049106 4.54008016,7.8174394 4.54008016,7.80148738 C4.54008016,7.78553536 4.50032565,7.7724837 4.45170341,7.7724837 C4.40308116,7.7724837 4.35490982,7.75943205 4.34468938,7.74348002 C4.33446894,7.727528 4.27953407,7.71447635 4.22264529,7.71447635 C4.16575651,7.71447635 4.11923848,7.70142469 4.11923848,7.68547267 C4.11923848,7.66952065 4.07272044,7.65646899 4.01583166,7.65646899 C3.95894289,7.65646899 3.90400802,7.64341734 3.89378758,7.62746531 C3.88356713,7.61151329 3.83622244,7.59846163 3.78857715,7.59846163 C3.74093186,7.59846163 3.69358717,7.58540998 3.68336673,7.56945796 C3.67314629,7.55350593 3.60468437,7.54045428 3.53126253,7.54045428 C3.45784068,7.54045428 3.39779559,7.52740262 3.39779559,7.5114506 C3.39779559,7.49549858 3.34451403,7.48244692 3.27935872,7.48244692 C3.21420341,7.48244692 3.15250501,7.46939527 3.14228457,7.45344324 C3.13206413,7.43749122 3.05007515,7.42443957 2.96012024,7.42443957 C2.87016533,7.42443957 2.79659319,7.41138791 2.79659319,7.39543589 C2.79659319,7.37933885 2.71640782,7.36643221 2.61623246,7.36643221 C2.51605711,7.36643221 2.43587174,7.35352557 2.43587174,7.33742853 C2.43587174,7.32053389 2.33569639,7.30842485 2.19539078,7.30842485 C2.05508517,7.30842485 1.95490982,7.29631582 1.95490982,7.27942117 C1.95490982,7.26172893 1.81520541,7.2504175 1.59599198,7.2504175 C1.38910321,7.2504175 1.22910822,7.23816344 1.21843687,7.22141382 C1.20769038,7.20459169 1.04273547,7.19241014 0.825776553,7.19241014 L0.451753507,7.19241014 L0.459343687,12.5798434 M2.78156313,9.48370071 C2.79178357,9.49965274 2.85348196,9.51270439 2.91863727,9.51270439 C2.98379259,9.51270439 3.03707415,9.52575605 3.03707415,9.54170807 C3.03707415,9.55766009 3.09118236,9.57071175 3.15731463,9.57071175 C3.22344689,9.57071175 3.27755511,9.5837634 3.27755511,9.59971543 C3.27755511,9.61566745 3.33166333,9.6287191 3.39779559,9.6287191 C3.46392786,9.6287191 3.51803607,9.64177076 3.51803607,9.65772278 C3.51803607,9.6736748 3.55861723,9.68672646 3.60821643,9.68672646 C3.65781563,9.68672646 3.69839679,9.69977812 3.69839679,9.71573014 C3.69839679,9.73168216 3.7381513,9.74473382 3.78677355,9.74473382 C3.83539579,9.74473382 3.88356713,9.75778547 3.89378758,9.77373749 C3.90400802,9.78968952 3.94458918,9.80274117 3.98396794,9.80274117 C4.02334669,9.80274117 4.06392786,9.81579283 4.0741483,9.83174485 C4.08436874,9.84769687 4.12577655,9.86074853 4.16613226,9.86074853 C4.20648798,9.86074853 4.23947896,9.87380018 4.23947896,9.88975221 C4.23947896,9.90570423 4.28006012,9.91875588 4.32965932,9.91875588 C4.37925852,9.91875588 4.41983968,9.93180754 4.41983968,9.94775956 C4.41983968,9.96371159 4.44606713,9.97676324 4.47815631,9.97676324 C4.51024549,9.97676324 4.54488978,9.9898149 4.55511022,10.0057669 C4.56533066,10.0217189 4.60673848,10.0347706 4.64709419,10.0347706 C4.6874499,10.0347706 4.72044088,10.0478223 4.72044088,10.0637743 C4.72044088,10.0797263 4.74749499,10.092778 4.78056112,10.092778 C4.81362725,10.092778 4.84068136,10.1058296 4.84068136,10.1217816 C4.84068136,10.1377337 4.86690882,10.1507853 4.898998,10.1507853 C4.93108717,10.1507853 4.96573146,10.163837 4.9759519,10.179789 C4.98617234,10.195741 5.02758016,10.2087927 5.06793587,10.2087927 C5.10829158,10.2087927 5.14128257,10.2218443 5.14128257,10.2377963 C5.14128257,10.2537484 5.16833667,10.2668 5.20140281,10.2668 C5.23446894,10.2668 5.26152305,10.2798517 5.26152305,10.2958037 C5.26152305,10.3117557 5.28857715,10.3248074 5.32164329,10.3248074 C5.35470942,10.3248074 5.38176353,10.337859 5.38176353,10.3538111 C5.38176353,10.3697631 5.40881764,10.3828147 5.44188377,10.3828147 C5.4749499,10.3828147 5.50200401,10.3958664 5.50200401,10.4118184 C5.50200401,10.4277704 5.52905812,10.4408221 5.56212425,10.4408221 C5.59519038,10.4408221 5.62224449,10.4538737 5.62224449,10.4698258 C5.62224449,10.4857778 5.6492986,10.4988294 5.68236473,10.4988294 C5.71543086,10.4988294 5.74248497,10.5103584 5.74248497,10.5244252 C5.74248497,10.5385645 5.76615731,10.5573444 5.79509018,10.5661905 C5.86543086,10.5876532 6.025501,10.6818427 6.0380511,10.7091061 C6.04361222,10.7210701 6.0740481,10.7308589 6.10568637,10.7308589 C6.1373998,10.7308589 6.16332665,10.7439105 6.16332665,10.7598626 C6.16332665,10.7758146 6.18106212,10.7888662 6.20278056,10.7888662 C6.22442385,10.7888662 6.27124248,10.8149695 6.30671343,10.8468736 C6.34218437,10.8787776 6.38907816,10.9048809 6.41094689,10.9048809 C6.43281563,10.9048809 6.47016533,10.9309843 6.49398798,10.9628883 C6.51781062,10.9947923 6.55839178,11.0208957 6.58416834,11.0208957 C6.60994489,11.0208957 6.65052605,11.046999 6.6743487,11.078903 C6.69817134,11.1108071 6.73875251,11.1369104 6.76452906,11.1369104 C6.79030561,11.1369104 6.83088677,11.1630137 6.85470942,11.1949177 C6.87853206,11.2268218 6.91670842,11.2529251 6.93947896,11.2529251 C6.9622495,11.2529251 7.01876253,11.29208 7.06513026,11.3399361 C7.111498,11.3877922 7.16560621,11.4269471 7.18537074,11.4269471 C7.20513527,11.4269471 7.25924349,11.4661021 7.30561122,11.5139582 C7.35197896,11.5618143 7.40556112,11.6009692 7.4247996,11.6009692 C7.44403808,11.6009692 7.52317134,11.6633271 7.6006513,11.7395343 C7.67813126,11.8157415 7.78882766,11.9102934 7.84669339,11.9495934 C7.90455912,11.9888934 8.0748497,12.13964 8.2251503,12.2845859 C8.3754509,12.4294593 8.55107715,12.5862242 8.61540581,12.6328476 C8.67980962,12.679471 8.89120741,12.8709678 9.08532064,13.058404 C9.52006513,13.4783773 9.48181363,13.4769996 9.88424349,13.0869727 C10.0614479,12.9151984 10.2537575,12.7424815 10.3116232,12.703109 C10.369489,12.6637365 10.5482715,12.5040712 10.7088677,12.3483215 C10.8694639,12.1924992 11.0139028,12.0650281 11.0296844,12.0650281 C11.0455411,12.0650281 11.1543587,11.9736665 11.2714429,11.8620023 C11.3886022,11.7503382 11.4958417,11.6589766 11.5098196,11.6589766 C11.5237224,11.6589766 11.5776052,11.6198216 11.6295341,11.5719655 C11.6814629,11.5241095 11.7388778,11.4849545 11.7572144,11.4849545 C11.7755511,11.4849545 11.8283818,11.4457995 11.8747495,11.3979435 C11.9211172,11.3500874 11.9752255,11.3109324 11.99499,11.3109324 C12.0147545,11.3109324 12.0688627,11.2717775 12.1152305,11.2239214 C12.1615982,11.1760653 12.2148798,11.1369104 12.2337425,11.1369104 C12.2526052,11.1369104 12.2970942,11.1108071 12.3325651,11.078903 C12.3680361,11.046999 12.4148547,11.0208957 12.436498,11.0208957 C12.4582164,11.0208957 12.4759519,11.007844 12.4759519,10.991892 C12.4759519,10.97594 12.4936874,10.9628883 12.5154058,10.9628883 C12.5370491,10.9628883 12.5838677,10.936785 12.6193387,10.9048809 C12.6548096,10.8729769 12.7017034,10.8468736 12.7235721,10.8468736 C12.7454409,10.8468736 12.7827906,10.8207703 12.8066132,10.7888662 C12.8304359,10.7569622 12.874023,10.7308589 12.9034068,10.7308589 C12.9328657,10.7308589 12.9569138,10.7178072 12.9569138,10.7018552 C12.9569138,10.6859032 12.9839679,10.6728515 13.0170341,10.6728515 C13.0501002,10.6728515 13.0771543,10.6597999 13.0771543,10.6438478 C13.0771543,10.6278958 13.1042084,10.6148442 13.1372745,10.6148442 C13.1703407,10.6148442 13.1973948,10.6017925 13.1973948,10.5858405 C13.1973948,10.5698885 13.2151303,10.5568368 13.2368487,10.5568368 C13.258492,10.5568368 13.3053106,10.5307335 13.3407816,10.4988294 C13.3762525,10.4669254 13.4261523,10.4408221 13.4516283,10.4408221 C13.4771042,10.4408221 13.497996,10.4277704 13.497996,10.4118184 C13.497996,10.3958664 13.5250501,10.3828147 13.5581162,10.3828147 C13.5911824,10.3828147 13.6182365,10.3697631 13.6182365,10.3538111 C13.6182365,10.337859 13.6444639,10.3248074 13.6765531,10.3248074 C13.7086423,10.3248074 13.7432866,10.3117557 13.753507,10.2958037 C13.7637275,10.2798517 13.8051353,10.2668 13.845491,10.2668 C13.8858467,10.2668 13.9188377,10.2537484 13.9188377,10.2377963 C13.9188377,10.2218443 13.9458918,10.2087927 13.9789579,10.2087927 C14.012024,10.2087927 14.0390782,10.195741 14.0390782,10.179789 C14.0390782,10.163837 14.0661323,10.1507853 14.0991984,10.1507853 C14.1322645,10.1507853 14.1593186,10.1377337 14.1593186,10.1217816 C14.1593186,10.1058296 14.1863727,10.092778 14.2194389,10.092778 C14.252505,10.092778 14.2795591,10.0797263 14.2795591,10.0637743 C14.2795591,10.0478223 14.3201403,10.0347706 14.3697395,10.0347706 C14.4193387,10.0347706 14.4599198,10.0217189 14.4599198,10.0057669 C14.4599198,9.9898149 14.500501,9.97676324 14.5501002,9.97676324 C14.5996994,9.97676324 14.6402806,9.96371159 14.6402806,9.94775956 C14.6402806,9.93180754 14.6673347,9.91875588 14.7004008,9.91875588 C14.7334669,9.91875588 14.760521,9.90570423 14.760521,9.88975221 C14.760521,9.87380018 14.8011022,9.86074853 14.8507014,9.86074853 C14.9003006,9.86074853 14.9408818,9.84769687 14.9408818,9.83174485 C14.9408818,9.81579283 14.9814629,9.80274117 15.0310621,9.80274117 C15.0806613,9.80274117 15.1212425,9.78968952 15.1212425,9.77373749 C15.1212425,9.75778547 15.1677605,9.74473382 15.2246493,9.74473382 C15.2815381,9.74473382 15.3364729,9.73168216 15.3466934,9.71573014 C15.3569138,9.69977812 15.4050852,9.68672646 15.4537074,9.68672646 C15.5023297,9.68672646 15.5420842,9.6736748 15.5420842,9.65772278 C15.5420842,9.64177076 15.5826653,9.6287191 15.6322645,9.6287191 C15.6818637,9.6287191 15.7224449,9.61566745 15.7224449,9.59971543 C15.7224449,9.5837634 15.78249,9.57071175 15.8559118,9.57071175 C15.9293337,9.57071175 15.9977956,9.55766009 16.008016,9.54170807 C16.0182365,9.52575605 16.0799349,9.51270439 16.1450902,9.51270439 C16.2102455,9.51270439 16.2635271,9.49965274 16.2635271,9.48370071 C16.2635271,9.46774869 16.3041082,9.45469703 16.3537074,9.45469703 L16.4438878,9.45469703 L16.4438878,12.7263119 C16.4438878,15.2322297 16.4354709,16.0060479 16.4078156,16.0327312 C16.387976,16.0518737 16.2932866,16.0675356 16.1973948,16.0675356 C16.1012024,16.0675356 16.0230461,16.0805148 16.0230461,16.0965393 C16.0230461,16.1124914 15.9494739,16.125543 15.859519,16.125543 C15.7695641,16.125543 15.6875752,16.1385947 15.6773547,16.1545467 C15.6671343,16.1704987 15.599499,16.1835504 15.5270541,16.1835504 C15.4546092,16.1835504 15.3869739,16.196602 15.3767535,16.212554 C15.3665331,16.2285061 15.3048347,16.2415577 15.2396794,16.2415577 C15.174524,16.2415577 15.1212425,16.2546094 15.1212425,16.2705614 C15.1212425,16.2865134 15.0671343,16.2995651 15.001002,16.2995651 C14.9348697,16.2995651 14.8807615,16.3126167 14.8807615,16.3285688 C14.8807615,16.3445208 14.8207164,16.3575724 14.7472946,16.3575724 C14.6738727,16.3575724 14.6054108,16.3706241 14.5951904,16.3865761 C14.5849699,16.4025281 14.5367986,16.4155798 14.4881764,16.4155798 C14.4395541,16.4155798 14.3997996,16.4286314 14.3997996,16.4445835 C14.3997996,16.4605355 14.3600451,16.4735871 14.3114228,16.4735871 C14.2628006,16.4735871 14.2146293,16.4866388 14.2044088,16.5025908 C14.1941884,16.5185428 14.1392535,16.5315945 14.0823647,16.5315945 C14.025476,16.5315945 13.9789579,16.5446462 13.9789579,16.5605982 C13.9789579,16.5765502 13.9383768,16.5896019 13.8887776,16.5896019 C13.8391784,16.5896019 13.7985972,16.6026535 13.7985972,16.6186055 C13.7985972,16.6345576 13.758016,16.6476092 13.7084168,16.6476092 C13.6588176,16.6476092 13.6182365,16.6606609 13.6182365,16.6766129 C13.6182365,16.6925649 13.5776553,16.7056166 13.5280561,16.7056166 C13.4784569,16.7056166 13.4378758,16.7186682 13.4378758,16.7346202 C13.4378758,16.7505723 13.3972946,16.7636239 13.3476954,16.7636239 C13.2980962,16.7636239 13.257515,16.7766756 13.257515,16.7926276 C13.257515,16.8085796 13.2312876,16.8216313 13.1991984,16.8216313 C13.1671092,16.8216313 13.1324649,16.8346829 13.1222445,16.850635 C13.112024,16.866587 13.0706162,16.8796386 13.0302605,16.8796386 C12.9899048,16.8796386 12.9569138,16.8926903 12.9569138,16.9086423 C12.9569138,16.9245943 12.9163327,16.937646 12.8667335,16.937646 C12.8171343,16.937646 12.7765531,16.9506976 12.7765531,16.9666497 C12.7765531,16.9826017 12.749499,16.9956533 12.7164329,16.9956533 C12.6833667,16.9956533 12.6563126,17.008705 12.6563126,17.024657 C12.6563126,17.0406091 12.6300852,17.0536607 12.597996,17.0536607 C12.5659068,17.0536607 12.5312625,17.0667124 12.5210421,17.0826644 C12.5108216,17.0986164 12.4694138,17.1116681 12.4290581,17.1116681 C12.3887024,17.1116681 12.3557114,17.1247197 12.3557114,17.1406717 C12.3557114,17.1566238 12.3286573,17.1696754 12.2955912,17.1696754 C12.2625251,17.1696754 12.2354709,17.1827271 12.2354709,17.1986791 C12.2354709,17.2146311 12.2084168,17.2276828 12.1753507,17.2276828 C12.1422846,17.2276828 12.1152305,17.2407344 12.1152305,17.2566865 C12.1152305,17.2726385 12.0900551,17.2856901 12.0592435,17.2856901 C12.028507,17.2856901 11.8966182,17.339637 11.7661573,17.4056203 C11.6357715,17.4716037 11.4986974,17.5401249 11.4616483,17.5578897 C11.4245992,17.5756544 11.3941633,17.6000175 11.394013,17.6119815 C11.3938627,17.6239455 11.3667335,17.6337343 11.3336673,17.6337343 C11.3006012,17.6337343 11.2735471,17.6467859 11.2735471,17.6627379 C11.2735471,17.67869 11.246493,17.6917416 11.2134269,17.6917416 C11.1803607,17.6917416 11.1533066,17.7047933 11.1533066,17.7207453 C11.1533066,17.7366973 11.1262525,17.749749 11.0931864,17.749749 C11.0601202,17.749749 11.0330661,17.7628006 11.0330661,17.7787527 C11.0330661,17.7947047 11.0121743,17.8077563 10.9866984,17.8077563 C10.9612224,17.8077563 10.9113226,17.8338596 10.8758517,17.8657637 C10.8403808,17.8976677 10.7935621,17.9237711 10.7719188,17.9237711 C10.7502004,17.9237711 10.7324649,17.9368227 10.7324649,17.9527747 C10.7324649,17.9687268 10.7115731,17.9817784 10.6860972,17.9817784 C10.6606212,17.9817784 10.6107214,18.0078817 10.5752505,18.0397858 C10.5397796,18.0716898 10.4929609,18.0977931 10.4713176,18.0977931 C10.4495992,18.0977931 10.4318637,18.1108448 10.4318637,18.1267968 C10.4318637,18.1427488 10.4048096,18.1558005 10.3717435,18.1558005 C10.3386774,18.1558005 10.3116232,18.1666769 10.3116232,18.1798735 C10.3116232,18.1931427 10.2744238,18.2224364 10.2289579,18.2449868 C10.183492,18.2674646 10.1244238,18.3088674 10.0976703,18.3368559 C10.0709168,18.364917 10.0299599,18.3878299 10.0065882,18.3878299 C9.98329158,18.3878299 9.94466433,18.4139332 9.92084168,18.4458373 C9.89701904,18.4777413 9.85643788,18.5038446 9.83066132,18.5038446 C9.80488477,18.5038446 9.76430361,18.5299479 9.74048096,18.561852 C9.71665832,18.593756 9.67803106,18.6198593 9.65473447,18.6198593 C9.63136273,18.6198593 9.58702405,18.6479929 9.55613727,18.6822897 L9.5,18.7447202 L9.44386273,18.6822897 C9.41297595,18.6479929 9.36863727,18.6198593 9.34526553,18.6198593 C9.32196894,18.6198593 9.28334168,18.593756 9.25951904,18.561852 C9.23569639,18.5299479 9.19511523,18.5038446 9.16933868,18.5038446 C9.14356212,18.5038446 9.10298096,18.4777413 9.07915832,18.4458373 C9.05533567,18.4139332 9.01836172,18.3878299 8.99709419,18.3878299 C8.97582665,18.3878299 8.91593186,18.3486749 8.86400301,18.3008189 C8.81207415,18.2529628 8.75135271,18.2138078 8.72903307,18.2138078 C8.70663828,18.2138078 8.68837675,18.2007562 8.68837675,18.1848042 C8.68837675,18.1688521 8.66748497,18.1558005 8.64200902,18.1558005 C8.61653307,18.1558005 8.56663327,18.1296972 8.53116232,18.0977931 C8.49569138,18.0658891 8.44887275,18.0397858 8.42722946,18.0397858 C8.40551102,18.0397858 8.38777555,18.0267341 8.38777555,18.0107821 C8.38777555,17.9948301 8.36688377,17.9817784 8.34140782,17.9817784 C8.31593186,17.9817784 8.26603206,17.9556751 8.23056112,17.9237711 C8.19509018,17.891867 8.14827154,17.8657637 8.12662826,17.8657637 C8.10490982,17.8657637 8.08717435,17.852712 8.08717435,17.83676 C8.08717435,17.820808 8.06012024,17.8077563 8.02705411,17.8077563 C7.99398798,17.8077563 7.96693387,17.7947047 7.96693387,17.7787527 C7.96693387,17.7628006 7.93987976,17.749749 7.90681363,17.749749 C7.87374749,17.749749 7.84661824,17.7399602 7.84646794,17.7279962 C7.84631764,17.7160322 7.81588176,17.6918866 7.77883267,17.6743394 C7.59787074,17.5886335 7.43990481,17.5010424 7.43088677,17.481465 C7.42532565,17.4695009 7.39488978,17.4597122 7.3632515,17.4597122 C7.33153808,17.4597122 7.30561122,17.4466605 7.30561122,17.4307085 C7.30561122,17.4147565 7.27855711,17.4017048 7.24549098,17.4017048 C7.21242485,17.4017048 7.18537074,17.3886532 7.18537074,17.3727012 C7.18537074,17.3567491 7.15831663,17.3436975 7.1252505,17.3436975 C7.09218437,17.3436975 7.06513026,17.3306458 7.06513026,17.3146938 C7.06513026,17.2987418 7.03890281,17.2856901 7.00681363,17.2856901 C6.97472445,17.2856901 6.94008016,17.2726385 6.92985972,17.2566865 C6.91963928,17.2407344 6.87823146,17.2276828 6.83787575,17.2276828 C6.79752004,17.2276828 6.76452906,17.2146311 6.76452906,17.1986791 C6.76452906,17.1827271 6.73747495,17.1696754 6.70440882,17.1696754 C6.67134269,17.1696754 6.64428858,17.1566238 6.64428858,17.1406717 C6.64428858,17.1247197 6.61723447,17.1116681 6.58416834,17.1116681 C6.5511022,17.1116681 6.5240481,17.0986164 6.5240481,17.0826644 C6.5240481,17.0667124 6.49105711,17.0536607 6.4507014,17.0536607 C6.41034569,17.0536607 6.36893788,17.0406091 6.35871743,17.024657 C6.34849699,17.008705 6.31385271,16.9956533 6.28176353,16.9956533 C6.24967435,16.9956533 6.22344689,16.9826017 6.22344689,16.9666497 C6.22344689,16.9506976 6.19045591,16.937646 6.1501002,16.937646 C6.10974449,16.937646 6.06833667,16.9245943 6.05811623,16.9086423 C6.04789579,16.8926903 6.0132515,16.8796386 5.98116232,16.8796386 C5.94907315,16.8796386 5.92284569,16.866587 5.92284569,16.850635 C5.92284569,16.8346829 5.88226453,16.8216313 5.83266533,16.8216313 C5.78306613,16.8216313 5.74248497,16.8085796 5.74248497,16.7926276 C5.74248497,16.7766756 5.70190381,16.7636239 5.65230461,16.7636239 C5.60270541,16.7636239 5.56212425,16.7505723 5.56212425,16.7346202 C5.56212425,16.7186682 5.53589679,16.7056166 5.50380762,16.7056166 C5.47171844,16.7056166 5.43707415,16.6925649 5.42685371,16.6766129 C5.41663327,16.6606609 5.3760521,16.6476092 5.33667335,16.6476092 C5.29729459,16.6476092 5.25671343,16.6345576 5.24649299,16.6186055 C5.23627255,16.6026535 5.18133768,16.5896019 5.1244489,16.5896019 C5.06756012,16.5896019 5.02104208,16.5765502 5.02104208,16.5605982 C5.02104208,16.5446462 4.98046092,16.5315945 4.93086172,16.5315945 C4.88126253,16.5315945 4.84068136,16.5185428 4.84068136,16.5025908 C4.84068136,16.4866388 4.80092685,16.4735871 4.75230461,16.4735871 C4.70368236,16.4735871 4.65551102,16.4605355 4.64529058,16.4445835 C4.63507014,16.4286314 4.58013527,16.4155798 4.52324649,16.4155798 C4.46635772,16.4155798 4.41983968,16.4025281 4.41983968,16.3865761 C4.41983968,16.3706241 4.36573146,16.3575724 4.2995992,16.3575724 C4.23346693,16.3575724 4.17935872,16.3445208 4.17935872,16.3285688 C4.17935872,16.3126167 4.1252505,16.2995651 4.05911824,16.2995651 C3.99298597,16.2995651 3.93887776,16.2865134 3.93887776,16.2705614 C3.93887776,16.2546094 3.88559619,16.2415577 3.82044088,16.2415577 C3.75528557,16.2415577 3.69358717,16.2285061 3.68336673,16.212554 C3.67314629,16.196602 3.60551102,16.1835504 3.53306613,16.1835504 C3.46062124,16.1835504 3.39298597,16.1704987 3.38276553,16.1545467 C3.37254509,16.1385947 3.29055611,16.125543 3.2006012,16.125543 C3.11064629,16.125543 3.03707415,16.1124914 3.03707415,16.0965393 C3.03707415,16.0805873 2.96538076,16.0675356 2.87775551,16.0675356 C2.79013026,16.0675356 2.68198898,16.0512211 2.6375,16.0312811 L2.55656313,15.9950265 L2.55633768,12.7248617 L2.55611222,9.45469703 L2.65951904,9.45469703 C2.71640782,9.45469703 2.77134269,9.46774869 2.78156313,9.48370071" id="path-1"></path>
    </defs>
    <g id="Material-Components" stroke="none" stroke-width="1" fill="none" fill-rule="evenodd">
        <g id="Navigation" transform="translate(-297.000000, -1215.000000)">
            <g id="Bottom-Navigation-/-Primary-Color-/-Active-/-Resting-Copy-6" transform="translate(81.000000, 1185.000000)">
                <g id="Bottom-Navigation-/-4-up-/-Primary-Color-Copy-4">
                    <g id="Nav_bottom-/-Icon_with_text-/-News-/-Inactive-Copy" transform="translate(216.000000, 30.000000)">
                        <mask id="mask-2" fill="white">
                            <use xlink:href="#path-1"></use>
                        </mask>
                        <g id="News"></g>
                        <g id="-/-Color-/-Icons-/-Selected-/-On-Primary-/-Inactive-" mask="url(#mask-2)" fill="#FFFFFF" fill-opacity="0.54">
                            <g transform="translate(-6.000000, 0.000000)" id="Rectangle">
                                <rect x="0" y="0" width="31" height="36"></rect>
                            </g>
                        </g>
                    </g>
                </g>
            </g>
        </g>
    </g>
</svg>