<?xml version="1.0" encoding="UTF-8"?>
<svg width="14px" height="14px" viewBox="0 0 14 14" version="1.1" xmlns="http://www.w3.org/2000/svg" xmlns:xlink="http://www.w3.org/1999/xlink">
    <!-- Generator: Sketch 52.6 (67491) - http://www.bohemiancoding.com/sketch -->
    <title>Icon / Fullscreen exit / Filled</title>
    <desc>Created with Sketch.</desc>
    <defs>
        <path d="M5,16 L8,16 L8,19 L10,19 L10,14 L5,14 L5,16 Z M8,8 L5,8 L5,10 L10,10 L10,5 L8,5 L8,8 Z M14,19 L16,19 L16,16 L19,16 L19,14 L14,14 L14,19 Z M16,8 L16,5 L14,5 L14,10 L19,10 L19,8 L16,8 Z" id="path-1"></path>
    </defs>
    <g id="Material-Theme" stroke="none" stroke-width="1" fill="none" fill-rule="evenodd">
        <g id="System-Icons" transform="translate(-913.000000, -1349.000000)">
            <g id="Icon-/-Fullscreen-exit-/-Filled" transform="translate(908.000000, 1344.000000)">
                <mask id="mask-2" fill="white">
                    <use xlink:href="#path-1"></use>
                </mask>
                <g id="icon/navigation/fullscreen_exit_24px" fill-rule="nonzero"></g>
                <g id="✱-/-Color-/-Icons-/-Selected-/-On-Surface-/-Inactive" mask="url(#mask-2)" fill="#414141" fill-opacity="0.54" fill-rule="evenodd">
                    <rect id="Rectangle" x="0" y="0" width="24" height="24"></rect>
                </g>
            </g>
        </g>
    </g>
</svg>