<?xml version="1.0" encoding="UTF-8"?>
<svg width="23px" height="31px" viewBox="0 0 23 31" version="1.1" xmlns="http://www.w3.org/2000/svg" xmlns:xlink="http://www.w3.org/1999/xlink">
    <!-- Generator: Sketch 52.6 (67491) - http://www.bohemiancoding.com/sketch -->
    <title>Like</title>
    <desc>Created with Sketch.</desc>
    <defs>
        <path d="M0.916666667,8.33333333 L4.58333333,8.33333333 L4.58333333,18.3333333 L0.916666667,18.3333333 L0.916666667,8.33333333 Z M8.25,18.3333333 L16.5,18.3333333 C17.2608333,18.3333333 17.9116667,17.9166667 18.1866667,17.3166667 L20.955,11.4416667 C21.0375,11.25 21.0833333,11.05 21.0833333,10.8333333 L21.0833333,9.16666667 C21.0833333,8.25 20.2583333,7.5 19.25,7.5 L13.4658333,7.5 L14.3366667,3.69166667 L14.3641667,3.425 C14.3641667,3.08333333 14.2083333,2.76666667 13.9608333,2.54166667 L12.9891667,1.66666667 L6.94833333,7.15833333 C6.61833333,7.45833333 6.41666667,7.875 6.41666667,8.33333333 L6.41666667,16.6666667 C6.41666667,17.5833333 7.24166667,18.3333333 8.25,18.3333333 Z M8.25,8.33333333 L12.2283333,4.71666667 L11,9.16666667 L19.25,9.16666667 L19.25,10.8333333 L16.5,16.6666667 L8.25,16.6666667 L8.25,8.33333333 Z" id="path-1"></path>
    </defs>
    <g id="Material-Components" stroke="none" stroke-width="1" fill="none" fill-rule="evenodd">
        <g id="Profiles,-Page-1" transform="translate(-648.000000, -462.000000)">
            <g id="Cards-/-Profiles-/-Detailed" transform="translate(340.000000, 374.000000)">
                <g id="Cards-/-List-1-up-/-Filled-/-Image-Left-/-Selected">
                    <g id="Like" transform="translate(303.000000, 87.000000)">
                        <g id="Icon-/-Thumbs-Up-/-Outlined" transform="translate(5.500000, 0.000000)">
                            <mask id="mask-2" fill="white">
                                <use xlink:href="#path-1"></use>
                            </mask>
                            <g id="Mask" fill-rule="nonzero"></g>
                            <g id="✱-/-Color-/-Icons-/-Selected-/-On-Surface-/-Inactive" mask="url(#mask-2)" fill="#414141" fill-opacity="0.54" fill-rule="evenodd">
                                <rect id="Rectangle" x="0" y="0" width="22" height="20"></rect>
                            </g>
                        </g>
                        <text font-family="Roboto-Regular, Roboto" font-size="12" font-weight="normal" line-spacing="16" letter-spacing="0.400000006" fill="#000000" fill-opacity="0.38">
                            <tspan x="4.75761718" y="30.325">Like</tspan>
                        </text>
                    </g>
                </g>
            </g>
        </g>
    </g>
</svg>