<?xml version="1.0" encoding="UTF-8"?>
<svg width="38px" height="36px" viewBox="0 0 38 36" version="1.1" xmlns="http://www.w3.org/2000/svg" xmlns:xlink="http://www.w3.org/1999/xlink">
    <!-- Generator: Sketch 52.6 (67491) - http://www.bohemiancoding.com/sketch -->
    <title>Nav_bottom / Icon_with_text / Games / Active</title>
    <desc>Created with Sketch.</desc>
    <g id="Material-Components" stroke="none" stroke-width="1" fill="none" fill-rule="evenodd">
        <g id="Navigation" transform="translate(-116.000000, -865.000000)" fill="#FFFFFF">
            <g id="Bottom-Navigation-/-Primary-Color-/-Active-/-Resting-Copy-3" transform="translate(90.000000, 836.000000)">
                <g id="Bottom-Navigation-/-4-up-/-Primary-Color-Copy-3">
                    <g id="Nav_bottom-/-Icon_with_text-/-Games-/-Active" transform="translate(26.000000, 29.000000)">
                        <path d="M14.7649514,0.0445385206 C14.3052075,0.192452431 14.1501421,0.498122291 14.1497173,1.25751752 L14.1493633,1.81908056 L13.3924463,1.81922217 C12.8946087,1.81936378 12.5297449,1.83564918 12.3263191,1.86680386 C10.1936399,2.19336151 8.54159235,3.77007135 8.08758375,5.91230938 L8.01337897,6.26272868 L8.00282887,10.83666 C7.99518181,14.1632714 8.00261645,15.5082329 8.03030163,15.7686577 C8.28435385,18.1626113 10.1404645,20.0056228 12.5704584,20.2768101 C12.970088,20.321418 25.0299215,20.321418 25.4294803,20.2768101 C27.8600406,20.005552 29.7155848,18.1631778 29.9697079,15.7686577 C29.9973222,15.5082329 30.0048277,14.1632714 29.9971806,10.83666 L29.9866305,6.26272868 L29.9123549,5.91230938 C29.3728834,3.36647668 27.3820288,1.82000104 24.6433203,1.81922217 L23.9221604,1.81908056 L23.9093445,1.25751752 C23.8898728,0.407561311 23.6747639,0.0773217407 23.096349,0.00934790061 C22.4280812,-0.0691760494 22.0935225,0.347022111 22.0930268,1.25751752 L22.0926728,1.81908056 L19.0357618,1.81908056 L15.9788508,1.81908056 L15.9666014,1.25751752 C15.9560513,0.773133111 15.9450055,0.675349911 15.8861657,0.546553651 C15.6949892,0.127877281 15.1978597,-0.0947370395 14.7649514,0.0445385206 M14.3353856,4.45422102 C14.3525915,5.17941691 14.5951731,5.49273383 15.1683484,5.52990702 C15.7944866,5.57054971 16.1218939,5.20504871 16.1464636,4.43793562 L16.1603416,4.00658496 L19.214208,4.00658496 L22.2681451,4.00658496 L22.2786952,4.45422102 C22.2959011,5.17941691 22.5384827,5.49273383 23.111658,5.52990702 C23.738929,5.57062052 24.0652035,5.20533194 24.0899148,4.43460773 L24.1037928,4 L24.8893863,4.01437363 C25.6245658,4.02782679 25.6933185,4.03434095 25.9609655,4.11548472 C27.4626917,4.57105105 28.3607253,5.80491784 28.3607253,7.41278236 L28.3607253,7.81545655 L19.1803626,7.81545655 L10,7.81545655 L10,7.41278236 C10,5.8346564 10.8983876,4.57345846 12.332848,4.13793025 C12.6945963,4.02803921 12.8294819,4.01451524 13.6028967,4.01040849 L14.3248355,4.00658496 L14.3353856,4.45422102 M14.6070739,12.4579505 C15.5288191,12.8896369 15.6742703,14.9453901 14.8420336,15.7790334 C13.8463161,16.776541 12.7903082,14.4823757 13.5709497,13.0176979 C13.8465718,12.5005949 14.2420713,12.2869254 14.6070739,12.4579505 M14.056556,11.0250258 C12.5650259,11.274688 11.6368997,13.332596 12.1358702,15.2835868 C12.7584681,17.7177583 15.2262725,18.1438693 16.2829116,15.9996487 C17.3998068,13.7330752 16.0393387,10.6930868 14.056556,11.0250258 M23.3275104,11.2723951 C23.2463667,11.3133918 23.1496456,11.3993504 23.0996565,11.4748297 L23.0127774,11.6061042 L23.0040683,14.0955044 C22.9940846,16.92619 22.9797818,16.770275 23.2666172,16.9601061 C23.4678481,17.0932923 24.1528969,17.0932923 24.354057,16.9601061 C24.6384851,16.7719035 24.624253,16.9209503 24.624253,14.1338813 C24.624253,11.3470247 24.6384851,11.4959299 24.3542694,11.3075857 C24.1650756,11.1822589 23.547859,11.1610879 23.3275104,11.2723951 M2.5733104,27.0921956 C2.5733104,27.1117686 2.51806247,27.1278705 2.45066577,27.1278705 C2.38317266,27.1278705 2.31809001,27.143876 2.30594125,27.163449 C2.29379249,27.1831185 2.22870985,27.199124 2.16131315,27.199124 C2.09382004,27.199124 2.03857211,27.2151295 2.03857211,27.2347989 C2.03857211,27.2543719 1.99855833,27.2703774 1.9494812,27.2703774 C1.90050048,27.2703774 1.86039029,27.2864793 1.86039029,27.3060523 C1.86039029,27.3256254 1.82828285,27.3417273 1.78913685,27.3417273 C1.74989442,27.3417273 1.71778698,27.3577328 1.71778698,27.3773058 C1.71778698,27.3969752 1.68577596,27.4129807 1.64653354,27.4129807 C1.60690544,27.4129807 1.5752801,27.4367962 1.5752801,27.4664931 C1.5752801,27.4959008 1.54567955,27.5199091 1.50961894,27.5199091 C1.47355833,27.5199091 1.36759415,27.5921267 1.27416439,27.6803499 C1.18083106,27.768573 1.09125806,27.8406942 1.07525255,27.8406942 C1.03764924,27.8406942 0.826685055,28.0510799 0.826685055,28.0884904 C0.826685055,28.1041102 0.770569353,28.1782562 0.701919215,28.2531736 C0.633365496,28.3279945 0.577153375,28.4182424 0.577153375,28.4536281 C0.577153375,28.4890138 0.55314511,28.5179394 0.523737397,28.5179394 C0.494040427,28.5179394 0.470225,28.5496612 0.470225,28.5892893 C0.470225,28.6284353 0.45421949,28.6605427 0.434646488,28.6605427 C0.414977066,28.6605427 0.398971557,28.6926501 0.398971557,28.7318926 C0.398971557,28.7710386 0.382966047,28.803146 0.363296625,28.803146 C0.343723623,28.803146 0.327718113,28.8432562 0.327718113,28.8922369 C0.327718113,28.9412176 0.311616185,28.9813278 0.292043182,28.9813278 C0.272470179,28.9813278 0.256368251,29.0134353 0.256368251,29.0526777 C0.256368251,29.0918237 0.240362741,29.1239311 0.22069332,29.1239311 C0.201120317,29.1239311 0.185114807,29.1871818 0.185114807,29.2644132 C0.185114807,29.3416446 0.169012879,29.4148265 0.149439876,29.4268788 C0.129866873,29.4390276 0.113282851,29.4921543 0.112704339,29.5448953 C0.112029408,29.5976364 0.0880211434,29.6718788 0.0591919423,29.7099642 C-0.020449931,29.8153499 -0.0193893249,33.1161488 0.0603489671,33.1161488 C0.0999770662,33.1161488 0.113764945,33.1577052 0.113764945,33.2764931 C0.113764945,33.3647163 0.129866873,33.4369339 0.149439876,33.4369339 C0.169012879,33.4369339 0.185114807,33.4930496 0.185114807,33.5616997 C0.185114807,33.6303499 0.201120317,33.6864656 0.22069332,33.6864656 C0.240362741,33.6864656 0.256368251,33.7345785 0.256368251,33.7933939 C0.256368251,33.8522094 0.272470179,33.9003223 0.292043182,33.9003223 C0.311616185,33.9003223 0.327718113,33.9324298 0.327718113,33.9715758 C0.327718113,34.0108182 0.340734642,34.0429256 0.356643733,34.0429256 C0.372649243,34.0429256 0.407649243,34.0990413 0.434646488,34.1676915 C0.461547314,34.2362452 0.504646488,34.2924573 0.530390289,34.2924573 C0.556134091,34.2924573 0.577153375,34.3209008 0.577153375,34.3558044 C0.577153375,34.390708 0.609260813,34.4423884 0.648503237,34.4706391 C0.687649243,34.4988898 0.719756681,34.5344683 0.719756681,34.5497025 C0.719756681,34.5649366 0.775872383,34.6369614 0.844522521,34.7096612 C0.913172659,34.7824573 0.969288361,34.8546749 0.969288361,34.8701019 C0.969288361,34.8856254 0.99445365,34.8983526 1.02530764,34.8983526 C1.08084483,34.8983526 1.18314511,34.9791515 1.18314511,35.0231185 C1.18314511,35.0601433 1.28158864,35.1478843 1.32314511,35.1478843 C1.34416439,35.1478843 1.36132693,35.1638898 1.36132693,35.1835592 C1.36132693,35.2031322 1.38986687,35.2191377 1.42477045,35.2191377 C1.45967404,35.2191377 1.51135448,35.2512452 1.53960517,35.2904876 C1.56785585,35.3296336 1.61953629,35.3617411 1.65443988,35.3617411 C1.68924704,35.3617411 1.71778698,35.3777466 1.71778698,35.397416 C1.71778698,35.416989 1.74989442,35.4329945 1.78913685,35.4329945 C1.82828285,35.4329945 1.86039029,35.4488072 1.86039029,35.4679945 C1.86039029,35.4872782 1.90050048,35.513022 1.9494812,35.5253636 C1.99855833,35.5376088 2.03857211,35.5620028 2.03857211,35.5794546 C2.03857211,35.5970028 2.08581729,35.6112727 2.14347569,35.6112727 C2.20113409,35.6112727 2.25821398,35.6272782 2.27026632,35.6469477 C2.28241508,35.6665207 2.35550048,35.6825262 2.43282831,35.6825262 C2.51005971,35.6825262 2.5733104,35.6986281 2.5733104,35.7182011 C2.5733104,35.7377741 2.66153354,35.753876 2.76932968,35.753876 C2.87712583,35.753876 2.96534897,35.7698815 2.96534897,35.7894546 C2.96534897,35.8119201 3.20822775,35.8251295 3.62273189,35.8251295 C4.02248395,35.8251295 4.28869607,35.8111488 4.30200186,35.7894546 C4.31415062,35.7698815 4.41837927,35.753876 4.53369607,35.753876 C4.64901288,35.753876 4.75333795,35.7377741 4.76539029,35.7182011 C4.77753905,35.6986281 4.84262169,35.6825262 4.91011481,35.6825262 C4.97760792,35.6825262 5.03275944,35.6665207 5.03275944,35.6469477 C5.03275944,35.6272782 5.08087238,35.6112727 5.13968781,35.6112727 C5.19850324,35.6112727 5.24661618,35.5952672 5.24661618,35.5755978 C5.24661618,35.5560248 5.28672638,35.5400193 5.33570709,35.5400193 C5.38478423,35.5400193 5.42489442,35.5253636 5.42489442,35.5075262 C5.42489442,35.4730083 5.76882004,35.2904876 5.83390269,35.2904876 C5.85511481,35.2904876 5.89561068,35.2583802 5.92386136,35.2191377 C5.95211205,35.1799917 5.99694676,35.1478843 6.0233655,35.1478843 C6.08092748,35.1478843 6.17339304,35.0615895 6.17339304,35.0078843 C6.17339304,34.986865 6.18988065,34.9697025 6.20993574,34.9697025 C6.23008726,34.9697025 6.3183104,34.8978705 6.40605145,34.8102259 L6.56552803,34.6507493 L6.56552803,33.0101846 L6.56552803,31.3695234 L5.03275944,31.3695234 L3.50008726,31.3695234 L3.50008726,31.9042617 L3.50008726,32.4389036 L4.39118919,32.4389036 L5.28229112,32.4389036 L5.28229112,33.3487108 L5.28229112,34.2585179 L5.19869607,34.2903361 C5.15270434,34.3077879 5.09253905,34.3435592 5.06505971,34.3696887 C5.03748395,34.3959146 4.95475668,34.4490413 4.88128561,34.4877052 C4.80771811,34.5264656 4.74764924,34.5705289 4.74764924,34.5856667 C4.74764924,34.6008044 4.70753905,34.6132424 4.65846191,34.6132424 C4.6094812,34.6132424 4.56937101,34.6292479 4.56937101,34.6488209 C4.56937101,34.6684904 4.50525255,34.6844959 4.4267677,34.6844959 C4.34837927,34.6844959 4.28426081,34.7005014 4.28426081,34.7201708 C4.28426081,34.74254 4.0525666,34.7557493 3.66043161,34.7557493 C3.26839304,34.7557493 3.03669883,34.74254 3.03669883,34.7201708 C3.03669883,34.7005014 2.9814509,34.6844959 2.9140542,34.6844959 C2.84656109,34.6844959 2.78147844,34.6684904 2.76932968,34.6488209 C2.75718092,34.6292479 2.71697431,34.6132424 2.67994952,34.6132424 C2.64292472,34.6132424 2.56935723,34.5731322 2.51642335,34.5240551 C2.46358588,34.4750744 2.39859966,34.4349642 2.37198809,34.4349642 C2.34547293,34.4349642 2.32377872,34.422719 2.32377872,34.4077741 C2.32377872,34.3928292 2.25956384,34.3408595 2.18117541,34.2924573 C2.10278698,34.2439587 2.03857211,34.1920854 2.03857211,34.1770441 C2.03857211,34.1620992 2.02140957,34.149854 2.00039029,34.149854 C1.94234621,34.149854 1.86039029,34.0553636 1.86039029,33.988449 C1.86039029,33.9556667 1.81227734,33.8839311 1.75346191,33.8290689 C1.69464649,33.7741102 1.64653354,33.7035317 1.64653354,33.6721956 C1.64653354,33.6407631 1.63052803,33.6151157 1.61085861,33.6151157 C1.59128561,33.6151157 1.5752801,33.5767411 1.5752801,33.5298815 C1.5752801,33.4829256 1.55117541,33.4352948 1.5217677,33.4240138 C1.49235999,33.4127328 1.4682553,33.3718512 1.4682553,33.3331873 C1.4682553,33.2945234 1.45224979,33.2529669 1.43267679,33.2409146 C1.41300737,33.2287658 1.39700186,33.1646474 1.39700186,33.0983113 C1.39700186,33.0319752 1.38099635,32.9678568 1.36132693,32.955708 C1.34175393,32.9436557 1.32574842,32.8063554 1.32574842,32.6506391 C1.32574842,32.4856667 1.31080351,32.3675537 1.29007348,32.3675537 C1.26722225,32.3675537 1.25439855,32.0237245 1.25439855,31.4073196 C1.25439855,30.8055703 1.26770434,30.4387934 1.29007348,30.4250055 C1.30964649,30.4128568 1.32574842,30.2765207 1.32574842,30.1219614 C1.32574842,29.9674986 1.34175393,29.8311625 1.36132693,29.8190138 C1.38099635,29.806865 1.39700186,29.7507493 1.39700186,29.6942479 C1.39700186,29.6377466 1.41300737,29.5816309 1.43267679,29.5694821 C1.45224979,29.5573333 1.4682553,29.5175124 1.4682553,29.4808733 C1.4682553,29.4441377 1.49235999,29.3901433 1.5217677,29.3607355 C1.55117541,29.3313278 1.5752801,29.2820579 1.5752801,29.2512039 C1.5752801,29.2204463 1.59128561,29.1951846 1.61085861,29.1951846 C1.63052803,29.1951846 1.64653354,29.1705014 1.64653354,29.1402259 C1.64653354,29.1100468 1.67864098,29.0508457 1.71778698,29.0088072 C1.75702941,28.9666722 1.78913685,28.9104601 1.78913685,28.8839449 C1.78913685,28.8365069 1.94359966,28.6605427 1.98515613,28.6605427 C2.02131315,28.6605427 2.18117541,28.4874711 2.18117541,28.4483251 C2.18117541,28.4277879 2.20971536,28.411011 2.24461894,28.411011 C2.27952252,28.411011 2.33120296,28.379 2.35945365,28.3397576 C2.38770434,28.3005152 2.44738753,28.2685041 2.49202941,28.2685041 C2.5367677,28.2685041 2.5733104,28.2524022 2.5733104,28.2328292 C2.5733104,28.2132562 2.62142335,28.1971543 2.68023877,28.1971543 C2.7390542,28.1971543 2.78716715,28.1826915 2.78716715,28.1649504 C2.78716715,28.1028568 3.63227734,28.0299642 3.68945365,28.0871405 C3.71076219,28.108449 3.78510103,28.1260937 3.85471536,28.1263829 C3.9789991,28.1269614 4.22361343,28.1959973 4.27172638,28.2440138 C4.28512858,28.2575124 4.32552803,28.2685041 4.36149222,28.2685041 C4.39735999,28.2685041 4.4267677,28.2845096 4.4267677,28.3040827 C4.4267677,28.3237521 4.4514509,28.3397576 4.48143712,28.3397576 C4.51151977,28.3397576 4.58315888,28.3878705 4.64062445,28.446686 C4.69818643,28.5055014 4.7618228,28.5536143 4.78207073,28.5536143 C4.80231866,28.5536143 4.81890269,28.571259 4.81890269,28.5927603 C4.81890269,28.6143581 4.86701563,28.6769339 4.92583106,28.7318926 C4.98464649,28.7867548 5.03275944,28.8489449 5.03275944,28.8700606 C5.03275944,28.8910799 5.06477045,28.9608871 5.10391646,29.0250055 C5.14306247,29.0892204 5.1751699,29.1678981 5.1751699,29.1998127 C5.17526632,29.2317273 5.19937101,29.277719 5.22877872,29.302113 C5.26416439,29.3315207 5.28229112,29.4113554 5.28229112,29.5382424 L5.28229112,29.7299229 L5.92386136,29.7299229 L6.56552803,29.7299229 L6.56552803,29.5873196 C6.56552803,29.5089311 6.5494261,29.4447163 6.5298531,29.4447163 C6.50950875,29.4447163 6.49417817,29.3384628 6.49417817,29.1973058 C6.49417817,29.061259 6.47817266,28.9399642 6.45850324,28.9279119 C6.43893023,28.9157631 6.42292472,28.8596474 6.42292472,28.803146 C6.42292472,28.7466446 6.4068228,28.6905289 6.38724979,28.6783802 C6.36767679,28.6662314 6.35157486,28.6252535 6.35157486,28.5871681 C6.35157486,28.5490827 6.33556935,28.5179394 6.31599635,28.5179394 C6.29632693,28.5179394 6.28032142,28.488146 6.28032142,28.4516997 C6.28032142,28.4152535 6.24021123,28.355281 6.19123051,28.318449 C6.14224979,28.2816171 6.1021396,28.2297438 6.1021396,28.2030358 C6.1021396,28.1763278 6.05402665,28.1095096 5.99521123,28.054551 C5.9363958,27.9996887 5.88818643,27.9408733 5.88818643,27.924 C5.88818643,27.9071267 5.8452801,27.8614242 5.79273189,27.8224711 C5.74018368,27.7835179 5.66063822,27.7155427 5.61609277,27.6713829 C5.57154731,27.6273196 5.51408175,27.591259 5.48843437,27.591259 C5.46278698,27.591259 5.41168506,27.5511488 5.3748531,27.5020716 C5.33802114,27.4530909 5.27814511,27.4129807 5.24160241,27.4129807 C5.20515613,27.4129807 5.17536274,27.3969752 5.17536274,27.3773058 C5.17536274,27.3577328 5.1432553,27.3417273 5.10401288,27.3417273 C5.06486687,27.3417273 5.03275944,27.3256254 5.03275944,27.3060523 C5.03275944,27.2864793 4.98561068,27.2703774 4.92795227,27.2703774 C4.87029387,27.2703774 4.81321398,27.2543719 4.80106522,27.2347989 C4.78891646,27.2151295 4.73183657,27.199124 4.67417817,27.199124 C4.61651977,27.199124 4.56937101,27.1831185 4.56937101,27.163449 C4.56937101,27.143876 4.49724979,27.1278705 4.40902665,27.1278705 C4.32080351,27.1278705 4.24858588,27.1117686 4.24858588,27.0921956 C4.24858588,27.0694408 3.94563822,27.0565207 3.41089993,27.0565207 C2.87625806,27.0565207 2.5733104,27.0694408 2.5733104,27.0921956 M10.5220707,29.2293168 C10.5220707,29.2497576 10.4498531,29.2665344 10.36163,29.2665344 C10.2734068,29.2665344 10.2011892,29.28254 10.2011892,29.302113 C10.2011892,29.3217824 10.1703352,29.3377879 10.132539,29.3377879 C10.0946465,29.3377879 10.0396878,29.3618926 10.0102801,29.3913003 C9.98087238,29.420708 9.92359966,29.4447163 9.88300737,29.4447163 C9.84241508,29.4447163 9.80915062,29.4608182 9.80915062,29.4803912 C9.80915062,29.4999642 9.77704318,29.5160661 9.73789718,29.5160661 C9.69865475,29.5160661 9.66654731,29.5320716 9.66654731,29.5516446 C9.66654731,29.5713141 9.64138202,29.5873196 9.61052803,29.5873196 C9.57977045,29.5873196 9.53426081,29.6073747 9.5094812,29.631865 C9.48470158,29.6563554 9.42174015,29.7083251 9.3694812,29.7472782 C9.31722225,29.7862314 9.27450875,29.8320303 9.27450875,29.8490964 C9.27450875,29.8661625 9.18628561,29.9628705 9.07839304,30.0640138 C8.9705969,30.165157 8.88237376,30.2757493 8.88237376,30.3096887 C8.88237376,30.3437245 8.86636825,30.3714931 8.84669883,30.3714931 C8.82712583,30.3714931 8.81112032,30.4106391 8.81112032,30.4584628 C8.81112032,30.5063829 8.79501839,30.5554601 8.77544539,30.5675124 C8.75587238,30.5796612 8.73977045,30.7249642 8.73977045,30.8904187 L8.73977045,31.1913416 L9.34190544,31.1913416 C9.99186412,31.1913416 9.98733244,31.1926915 9.98733244,30.9944546 C9.98733244,30.9481736 10.0034344,30.9004463 10.0230074,30.8883939 C10.0425804,30.8762452 10.0586823,30.8418237 10.0586823,30.8118375 C10.0586823,30.737113 10.445225,30.3714931 10.5242884,30.3714931 C10.5594812,30.3714931 10.6123187,30.3474849 10.6417264,30.3180771 C10.6711341,30.2886694 10.7515473,30.2645647 10.8203903,30.2645647 C10.8892333,30.2645647 10.9554729,30.2485592 10.9676217,30.2288898 C10.979674,30.2093168 11.0448531,30.1933113 11.1122498,30.1933113 C11.1797429,30.1933113 11.2348944,30.2093168 11.2348944,30.2288898 C11.2348944,30.2485592 11.3082691,30.2645647 11.3978421,30.2645647 C11.495225,30.2645647 11.5823875,30.2860661 11.6143021,30.3180771 C11.6437098,30.3474849 11.6965473,30.3714931 11.7317402,30.3714931 C11.8232415,30.3714931 12.1973462,30.7413554 12.1973462,30.8317962 C12.1973462,30.8726777 12.2111341,30.906135 12.2280074,30.906135 C12.2448806,30.906135 12.2680211,30.9966722 12.2793986,31.1072645 C12.2908724,31.2179532 12.3170983,31.3253636 12.3378283,31.3460937 C12.3585583,31.3668237 12.375528,31.5009422 12.375528,31.6440276 L12.375528,31.9042617 L11.4131727,31.9042617 C10.7953214,31.9042617 10.4507209,31.916989 10.4507209,31.9398402 C10.4507209,31.9595096 10.3623049,31.9755152 10.2542195,31.9755152 C10.1461341,31.9755152 10.0298531,31.9901708 9.99581729,32.0082011 C9.96178147,32.026135 9.84164373,32.0677879 9.72893023,32.1006667 C9.61621674,32.133449 9.52394401,32.1719201 9.52394401,32.1859973 C9.52394401,32.2001708 9.46782831,32.2337245 9.39927459,32.2606254 C9.33062445,32.2876226 9.27450875,32.3226226 9.27450875,32.3386281 C9.27450875,32.3545372 9.2459688,32.3675537 9.21106522,32.3675537 C9.17616164,32.3675537 9.1244812,32.3996612 9.09623051,32.4389036 C9.06797982,32.478146 9.02815888,32.510157 9.00771811,32.510157 C8.98727734,32.510157 8.9386823,32.5526777 8.89972913,32.604551 C8.86077596,32.6564242 8.77679525,32.755832 8.71306247,32.8253499 C8.64932968,32.8949642 8.59726357,32.9807769 8.59726357,33.0161625 C8.59726357,33.0515482 8.5814509,33.0804738 8.56226357,33.0804738 C8.54307624,33.0804738 8.51675393,33.1246336 8.50383382,33.1785317 C8.49101012,33.2324298 8.465652,33.2953912 8.44762169,33.3183388 C8.40047293,33.3784077 8.40510103,34.4838485 8.45253905,34.4996612 C8.47326908,34.5066033 8.49033519,34.5595372 8.49033519,34.617292 C8.49033519,34.677843 8.5129936,34.7310661 8.54375117,34.7429256 C8.57315888,34.7542066 8.59726357,34.7937383 8.59726357,34.8308595 C8.59726357,34.8679807 8.61326908,34.8983526 8.63284208,34.8983526 C8.6525115,34.8983526 8.66851701,34.9348953 8.66851701,34.9796336 C8.66851701,35.0242755 8.70062445,35.0839587 8.73977045,35.1122094 C8.77901288,35.1404601 8.81112032,35.1852948 8.81112032,35.2118099 C8.81112032,35.2692755 8.89741508,35.3617411 8.95112032,35.3617411 C8.9721396,35.3617411 8.98930214,35.3777466 8.98930214,35.397416 C8.98930214,35.416989 9.02140957,35.4329945 9.060652,35.4329945 C9.099798,35.4329945 9.13190544,35.4502535 9.13190544,35.4712727 C9.13190544,35.5341377 9.22861343,35.6112727 9.30758037,35.6112727 C9.34817266,35.6112727 9.38143712,35.6272782 9.38143712,35.6469477 C9.38143712,35.6665207 9.42955007,35.6825262 9.4883655,35.6825262 C9.54718092,35.6825262 9.59529387,35.6986281 9.59529387,35.7182011 C9.59529387,35.7377741 9.65844814,35.753876 9.73577596,35.753876 C9.81300737,35.753876 9.88609277,35.7698815 9.89824153,35.7894546 C9.91125806,35.8105703 10.1303214,35.8251295 10.4350046,35.8251295 C10.7544399,35.8251295 10.9497842,35.8116309 10.9497842,35.7894546 C10.9497842,35.7698815 11.0058999,35.753876 11.0745501,35.753876 C11.1431038,35.753876 11.1993159,35.7377741 11.1993159,35.7182011 C11.1993159,35.6986281 11.2464647,35.6825262 11.3041231,35.6825262 C11.3617815,35.6825262 11.4188614,35.6665207 11.4310101,35.6469477 C11.4430625,35.6272782 11.4803765,35.6112727 11.5137374,35.6112727 C11.5470983,35.6112727 11.6045638,35.5711625 11.6413958,35.5221818 C11.6782278,35.4731047 11.730101,35.4329945 11.756809,35.4329945 C11.7834206,35.4329945 11.8052112,35.416989 11.8052112,35.397416 C11.8052112,35.3777466 11.8293159,35.3617411 11.8587236,35.3617411 C11.8881313,35.3617411 11.9121396,35.3457355 11.9121396,35.3260661 C11.9121396,35.3064931 11.9321947,35.2904876 11.9566851,35.2903912 C12.0053765,35.2903912 12.1973462,35.1366033 12.1973462,35.0976501 C12.1973462,35.0843444 12.2374564,35.0302535 12.2864371,34.977416 L12.375528,34.8812865 L12.375528,35.1372782 C12.375528,35.2780496 12.39163,35.4031047 12.411203,35.4152535 C12.430776,35.4273058 12.4468779,35.4924849 12.4468779,35.5598815 L12.4468779,35.6825262 L13.1062856,35.6825262 L13.7656933,35.6825262 L13.7656933,35.4890138 C13.7656933,35.3645372 13.7466024,35.2765069 13.7122773,35.2420854 C13.6736134,35.2034215 13.6587649,35.1093168 13.6587649,34.9029807 C13.6587649,34.7459146 13.6427594,34.6074573 13.62309,34.595405 C13.6000459,34.581135 13.5875115,33.9006116 13.5875115,32.6705978 C13.5875115,31.4404876 13.5748806,30.7599642 13.5518366,30.7457906 C13.5322636,30.7336419 13.5161616,30.6695234 13.5161616,30.6031873 C13.5161616,30.5368512 13.5001561,30.4727328 13.4805831,30.460584 C13.4609137,30.4485317 13.4449082,30.4074573 13.4449082,30.3693719 C13.4449082,30.3313829 13.4320845,30.3002397 13.4163683,30.3002397 C13.4007484,30.3002397 13.3675804,30.2440276 13.3428008,30.1754738 C13.3180211,30.1068237 13.2784895,30.050708 13.2549633,30.050708 C13.2315335,30.050708 13.1804316,30.0065482 13.1414784,29.9526501 C13.0220156,29.7873884 12.8494261,29.6312865 12.7162718,29.5681322 C12.6464647,29.5349642 12.5893848,29.493697 12.5893848,29.4763416 C12.5893848,29.4589862 12.5430074,29.4447163 12.4863132,29.4447163 C12.4274977,29.4447163 12.374371,29.4217686 12.3627043,29.3913003 C12.3514233,29.3618926 12.3095776,29.3377879 12.2697567,29.3377879 C12.2299357,29.3377879 12.1973462,29.3233251 12.1973462,29.305584 C12.1973462,29.2560248 11.8845638,29.2263278 11.1725115,29.2084904 C10.7344812,29.1974986 10.5220707,29.2043444 10.5220707,29.2293168 M18.0074426,29.2308595 C18.0074426,29.2504325 17.9512305,29.2665344 17.8826768,29.2665344 C17.8140267,29.2665344 17.757911,29.28254 17.757911,29.302113 C17.757911,29.3217824 17.7269605,29.3377879 17.6891644,29.3377879 C17.6513683,29.3377879 17.5963132,29.3618926 17.5669054,29.3913003 C17.5374977,29.420708 17.480225,29.4447163 17.4396327,29.4447163 C17.3990404,29.4447163 17.365776,29.4608182 17.365776,29.4803912 C17.365776,29.4999642 17.3440817,29.5160661 17.317663,29.5160661 C17.2911479,29.5160661 17.2206658,29.5627328 17.1609826,29.6197163 C17.1012994,29.6766997 17.0186685,29.7414931 16.9774013,29.763573 C16.9361341,29.7856529 16.9023875,29.8203636 16.9023875,29.8406116 C16.9023875,29.8797576 16.8146465,29.9794546 16.780225,29.9794546 C16.7690404,29.9794546 16.7598806,29.843022 16.7598806,29.6764105 C16.7598806,29.4982287 16.7451286,29.3734628 16.7242057,29.3734628 C16.7046327,29.3734628 16.6885308,29.3489725 16.6885308,29.3190827 C16.6885308,29.2722231 16.6088889,29.2660523 16.1093435,29.2745372 L15.5300597,29.2843719 L15.5209963,32.483449 L15.511933,35.6825262 L16.1715335,35.6825262 L16.8311341,35.6825262 L16.8311341,33.3379119 C16.8311341,31.0340827 16.8323875,30.9923333 16.9023875,30.9418099 C16.94163,30.9135592 16.9737374,30.853876 16.9737374,30.8092342 C16.9737374,30.7644959 16.991382,30.7279532 17.0128834,30.7279532 C17.0343848,30.7279532 17.0945501,30.6837934 17.1465198,30.6298953 C17.2385032,30.5346336 17.272539,30.5145785 17.5529247,30.391259 C17.6264922,30.3589587 17.6865611,30.3172094 17.6865611,30.2985041 C17.6865611,30.2383388 18.4319743,30.2563692 18.4936823,30.3180771 C18.52309,30.3474849 18.5781451,30.3714931 18.6159413,30.3714931 C18.6537374,30.3714931 18.6846878,30.3836419 18.6846878,30.3984904 C18.6846878,30.4132424 18.7367539,30.4483388 18.8004867,30.4764931 C18.9431864,30.5393581 19.0054729,30.5987521 19.0054729,30.6719339 C19.0054729,30.7027879 19.0214784,30.7279532 19.0411479,30.7279532 C19.0607209,30.7279532 19.0767264,30.7519614 19.0767264,30.7813692 C19.0767264,30.8107769 19.0928283,30.8348815 19.1124013,30.8348815 C19.1319743,30.8348815 19.1480762,30.8660248 19.1480762,30.9041102 C19.1480762,30.9420992 19.1640817,30.9831736 19.1836548,30.9953223 C19.2033242,31.0073747 19.2193297,31.0724573 19.2193297,31.1399504 C19.2193297,31.2074435 19.2353352,31.262595 19.2550046,31.262595 C19.2783379,31.262595 19.2905831,32.0230496 19.2905831,33.4726088 L19.2905831,35.6825262 L19.9500873,35.6825262 L20.609495,35.6825262 L20.609495,33.5973747 C20.609495,32.2309284 20.6217402,31.5121267 20.6450735,31.5121267 C20.6647429,31.5121267 20.6807484,31.4399091 20.6807484,31.351686 C20.6807484,31.2634628 20.6967539,31.1913416 20.7164233,31.1913416 C20.7359963,31.1913416 20.7520019,31.1592342 20.7520019,31.1199917 C20.7520019,31.0808457 20.7669468,31.0487383 20.7850735,31.0487383 C20.8182415,31.0487383 20.9302801,30.8511763 20.9302801,30.792843 C20.9302801,30.7301708 21.2513545,30.4427466 21.3214509,30.4427466 C21.3611754,30.4427466 21.3936685,30.4267411 21.3936685,30.4071681 C21.3936685,30.3874986 21.4246189,30.3714931 21.4624151,30.3714931 C21.5002112,30.3714931 21.5551699,30.3474849 21.5845776,30.3180771 C21.6246878,30.2779669 21.723517,30.2645647 21.9792195,30.2645647 C22.2587374,30.2645647 22.3204454,30.2742066 22.3204454,30.3180771 C22.3204454,30.3474849 22.3439716,30.3714931 22.3728008,30.3714931 C22.5373875,30.3714931 22.8807346,30.6690413 22.9152525,30.8416309 C22.9264371,30.8975537 22.9495776,30.9519339 22.9666437,30.9624435 C22.9837098,30.9730496 22.9976906,31.0199091 22.9976906,31.0665758 C22.9976906,31.1132424 23.0136961,31.1613554 23.0332691,31.1735041 C23.0564096,31.1877741 23.068944,31.9629807 23.068944,33.3826501 C23.068944,34.5855703 23.0786823,35.5951708 23.0905418,35.6261212 C23.1091506,35.6747163 23.2013269,35.6825262 23.7500459,35.6825262 L24.3877594,35.6825262 L24.3877594,33.401259 C24.3877594,31.9042617 24.3755143,31.1199917 24.3521809,31.1199917 C24.3325115,31.1199917 24.316506,31.0407355 24.316506,30.9439311 C24.316506,30.8470303 24.3005005,30.757843 24.2808311,30.7457906 C24.2612581,30.7336419 24.2452525,30.676562 24.2452525,30.6189036 C24.2452525,30.5612452 24.2291506,30.5140964 24.2095776,30.5140964 C24.1900046,30.5140964 24.1739027,30.4659835 24.1739027,30.4071681 C24.1739027,30.3483526 24.1578972,30.3002397 24.1383242,30.3002397 C24.1186548,30.3002397 24.1026492,30.2769063 24.1026492,30.2483664 C24.1026492,30.2198265 24.062539,30.1563829 24.0135583,30.1074022 C23.9644812,30.0584215 23.924371,30.0017273 23.924371,29.9814793 C23.924371,29.8843857 23.5432278,29.5160661 23.4428559,29.5160661 C23.413641,29.5160661 23.3897291,29.4999642 23.3897291,29.4803912 C23.3897291,29.4608182 23.3676492,29.4447163 23.340652,29.4447163 C23.3136548,29.4447163 23.2716162,29.420708 23.2471258,29.3913003 C23.2227319,29.3618926 23.1726906,29.3377879 23.1358586,29.3377879 C23.0990267,29.3377879 23.068944,29.3217824 23.068944,29.302113 C23.068944,29.28254 23.0217952,29.2665344 22.9641368,29.2665344 C22.9064784,29.2665344 22.8493986,29.2504325 22.8372498,29.2308595 C22.8241368,29.209551 22.5933104,29.1951846 22.2648118,29.1951846 C21.9216575,29.1951846 21.7144537,29.2086832 21.7144537,29.2308595 C21.7144537,29.2504325 21.6583379,29.2665344 21.5896878,29.2665344 C21.5210377,29.2665344 21.464922,29.28254 21.464922,29.302113 C21.464922,29.3217824 21.4339716,29.3377879 21.3961754,29.3377879 C21.3583793,29.3377879 21.3034206,29.3618926 21.2740129,29.3913003 C21.2446052,29.420708 21.1972636,29.4447163 21.16882,29.4447163 C21.1403765,29.4447163 21.0509963,29.5089311 20.9701975,29.5873196 C20.8893986,29.665708 20.811203,29.7301157 20.7965473,29.7305014 C20.7500735,29.7314656 20.5381451,29.9334628 20.5381451,29.9768512 C20.5381451,30.0181185 20.3807897,30.1933113 20.3437649,30.1933113 C20.3330625,30.1933113 20.3242884,30.1687245 20.3242884,30.1387383 C20.3242884,30.1086557 20.3002801,30.0749091 20.2708724,30.0636281 C20.2414647,30.0523471 20.21736,30.012719 20.21736,29.9755978 C20.21736,29.9384766 20.2013545,29.9081047 20.1816851,29.9081047 C20.1621121,29.9081047 20.1461065,29.8908457 20.1461065,29.8696336 C20.1461065,29.8485179 20.0837236,29.7723471 20.0074564,29.7003223 C19.792057,29.4970716 19.7218641,29.4447163 19.664495,29.4447163 C19.6352801,29.4447163 19.6114647,29.430832 19.6114647,29.4139587 C19.6114647,29.3743306 19.3303076,29.2665344 19.2270432,29.2665344 C19.1835583,29.2665344 19.1480762,29.2504325 19.1480762,29.2308595 C19.1480762,29.2085868 18.9341231,29.1951846 18.5777594,29.1951846 C18.2212994,29.1951846 18.0074426,29.2085868 18.0074426,29.2308595 M28.2730487,29.2308595 C28.2730487,29.2504325 28.216933,29.2665344 28.1482829,29.2665344 C28.0797291,29.2665344 28.023517,29.28254 28.023517,29.302113 C28.023517,29.3217824 27.994495,29.3377879 27.9591093,29.3377879 C27.9236272,29.3377879 27.8634619,29.3613141 27.8253765,29.3901433 C27.7873875,29.418876 27.7316575,29.4429807 27.7016713,29.4435592 C27.6716851,29.4442342 27.6240542,29.4768237 27.5958035,29.5160661 C27.5675528,29.5552121 27.5158724,29.5873196 27.4809688,29.5873196 C27.4461616,29.5873196 27.4176217,29.6033251 27.4176217,29.6229945 C27.4176217,29.6425675 27.3975666,29.6587658 27.3730762,29.6588623 C27.3150322,29.6592479 26.9276217,30.0277603 26.7924426,30.2110523 C26.7345914,30.2895372 26.6791506,30.3616584 26.6692195,30.3714931 C26.6592884,30.3813278 26.6283379,30.4333939 26.6005694,30.4873884 C26.5728008,30.5412865 26.5367402,30.5853499 26.5204454,30.5853499 C26.5041506,30.5853499 26.4908448,30.6241102 26.4908448,30.6715482 C26.4908448,30.7188898 26.4787925,30.7629532 26.4641368,30.7695096 C26.4220019,30.7882149 26.3125666,31.0002397 26.3125666,31.0632011 C26.3125666,31.0944408 26.2965611,31.1199917 26.2769881,31.1199917 C26.2573187,31.1199917 26.2413132,31.1832424 26.2413132,31.2604738 C26.2413132,31.3378017 26.2253076,31.4108871 26.2056382,31.4230358 C26.1860652,31.4350882 26.1700597,31.5153085 26.1700597,31.6012176 C26.1700597,31.6871267 26.1539578,31.7673471 26.1343848,31.7794959 C26.1124977,31.7929945 26.0987098,32.0828292 26.0987098,32.5301157 C26.0987098,32.9920579 26.1118228,33.2587521 26.1343848,33.2587521 C26.1539578,33.2587521 26.1700597,33.3469752 26.1700597,33.4547714 C26.1700597,33.5625675 26.1860652,33.6507906 26.2056382,33.6507906 C26.2253076,33.6507906 26.2413132,33.7071956 26.2413132,33.7760386 C26.2413132,33.8900055 26.2645501,33.9591377 26.354798,34.1141791 C26.3719605,34.1435868 26.3953903,34.1957493 26.4069605,34.2300744 C26.4184344,34.264303 26.442057,34.2924573 26.4593159,34.2924573 C26.4766713,34.2924573 26.4908448,34.3244683 26.4908448,34.3637108 C26.4908448,34.4029532 26.5068503,34.4349642 26.5265198,34.4349642 C26.5460928,34.4349642 26.5620983,34.4640827 26.5620983,34.4995647 C26.5620983,34.5350468 26.5942057,34.5985868 26.6334481,34.6406254 C26.6725941,34.6827603 26.7047016,34.7299091 26.7047016,34.7454325 C26.704798,34.7920992 26.870349,34.9697025 26.9138338,34.9697025 C26.9360101,34.9697025 26.9542333,34.9872507 26.9542333,35.0088485 C26.9542333,35.072292 27.2804178,35.3617411 27.3519605,35.3617411 C27.3880211,35.3617411 27.4176217,35.3777466 27.4176217,35.397416 C27.4176217,35.416989 27.4496327,35.4329945 27.4888751,35.4329945 C27.5285032,35.4329945 27.5601286,35.4568099 27.5601286,35.4865069 C27.5601286,35.5162039 27.5918503,35.5400193 27.6314784,35.5400193 C27.6706244,35.5400193 27.7027319,35.5560248 27.7027319,35.5755978 C27.7027319,35.5952672 27.7428421,35.6112727 27.7918228,35.6112727 C27.8408999,35.6112727 27.8810101,35.6272782 27.8810101,35.6469477 C27.8810101,35.6665207 27.9291231,35.6825262 27.9879385,35.6825262 C28.0467539,35.6825262 28.0948669,35.6986281 28.0948669,35.7182011 C28.0948669,35.7377741 28.18309,35.753876 28.2908862,35.753876 C28.3986823,35.753876 28.4869054,35.7698815 28.4869054,35.7894546 C28.4869054,35.8117273 28.7007622,35.8251295 29.0572222,35.8251295 C29.4136823,35.8251295 29.627539,35.8117273 29.627539,35.7894546 C29.627539,35.7698815 29.7157622,35.753876 29.8235583,35.753876 C29.9314509,35.753876 30.019674,35.7377741 30.019674,35.7182011 C30.019674,35.6986281 30.0917952,35.6825262 30.1800184,35.6825262 C30.2682415,35.6825262 30.3404592,35.6665207 30.3404592,35.6469477 C30.3404592,35.6272782 30.3591644,35.6112727 30.3819192,35.6112727 C30.4484481,35.6112727 30.6969192,35.4933526 30.6969192,35.4618237 C30.6969192,35.446011 30.7290267,35.4329945 30.7681727,35.4329945 C30.8074151,35.4329945 30.8395225,35.416989 30.8395225,35.397416 C30.8395225,35.3777466 30.8635308,35.3617411 30.8929385,35.3617411 C30.9223462,35.3617411 30.9464509,35.3482424 30.9464509,35.3317548 C30.9464509,35.3151708 31.0167402,35.2655152 31.1026492,35.2213554 C31.2812167,35.1294683 31.3764784,34.9934215 31.3092746,34.9261212 C31.2861341,34.9030771 31.267236,34.8588209 31.267236,34.8277741 C31.267236,34.7968237 31.2343572,34.7479394 31.194247,34.7191102 C31.1248256,34.6692617 31.0177043,34.4936832 31.0177043,34.4297576 C31.0177043,34.4133664 30.9827043,34.3596612 30.9399908,34.3104876 C30.8625666,34.2214931 30.6612443,34.1826364 30.6612443,34.2567824 C30.6612443,34.2763554 30.6322222,34.2924573 30.5966437,34.2924573 C30.5611616,34.2924573 30.5009963,34.3205152 30.4630074,34.3547438 C30.4250184,34.3890689 30.3297567,34.4492342 30.2513683,34.4884766 C30.1728834,34.5276226 30.1034619,34.5717824 30.0969054,34.586438 C30.090349,34.6011901 30.0542884,34.6132424 30.0166851,34.6132424 C29.9790817,34.6132424 29.9483242,34.6292479 29.9483242,34.6488209 C29.9483242,34.6684904 29.8851699,34.6844959 29.8078421,34.6844959 C29.7306107,34.6844959 29.6575253,34.7005014 29.6453765,34.7201708 C29.6322636,34.7413829 29.4074151,34.7557493 29.090776,34.7557493 C28.7594812,34.7557493 28.5582553,34.7423471 28.5582553,34.7201708 C28.5582553,34.7005014 28.5101424,34.6844959 28.4513269,34.6844959 C28.3925115,34.6844959 28.3443986,34.6684904 28.3443986,34.6488209 C28.3443986,34.6292479 28.3276217,34.6132424 28.3071809,34.6132424 C28.261382,34.6132424 28.2040129,34.5665758 28.0125253,34.3733526 C27.7508448,34.1092617 27.7027319,34.0470716 27.7027319,33.9729256 C27.7027319,33.9330083 27.6867264,33.9003223 27.667057,33.9003223 C27.647484,33.9003223 27.6314784,33.8682149 27.6314784,33.8290689 C27.6314784,33.7898265 27.6153765,33.757719 27.5958035,33.757719 C27.5762305,33.757719 27.5601286,33.7105703 27.5601286,33.6529119 C27.5601286,33.5952535 27.5441231,33.5381736 27.5245501,33.5260248 C27.5048806,33.5139725 27.4888751,33.4407906 27.4888751,33.3635592 C27.4888751,33.2863278 27.4728696,33.2230771 27.4532002,33.2230771 C27.4336272,33.2230771 27.4176217,33.134854 27.4176217,33.0270579 L27.4176217,32.8309422 L29.4493572,32.8309422 L31.4810928,32.8309422 L31.4810928,32.1359559 C31.4810928,31.6962865 31.4679798,31.4408733 31.4454178,31.4408733 C31.4258448,31.4408733 31.4098393,31.3526501 31.4098393,31.2447576 C31.4098393,31.1369614 31.3937374,31.0487383 31.3741644,31.0487383 C31.354495,31.0487383 31.3382966,31.0126777 31.3380074,30.9685179 C31.3374289,30.8816446 31.2599082,30.6375124 31.2203765,30.5978843 C31.2068779,30.5844821 31.1958862,30.5440827 31.1958862,30.5081185 C31.1958862,30.4721543 31.1718779,30.4427466 31.1424702,30.4427466 C31.1130625,30.4427466 31.0889578,30.4137245 31.0889578,30.3782424 C31.0889578,30.3426639 31.0569468,30.2792204 31.0177043,30.2370854 C30.9784619,30.1950468 30.9464509,30.1433664 30.9464509,30.1222507 C30.9464509,30.0625675 30.4566437,29.5873196 30.3951286,29.5873196 C30.3650459,29.5873196 30.3404592,29.5713141 30.3404592,29.5516446 C30.3404592,29.5320716 30.3124013,29.5159697 30.2780762,29.5159697 C30.2437512,29.5159697 30.1691231,29.4758595 30.1121396,29.4268788 C30.0551561,29.3778981 29.9638476,29.3377879 29.9092746,29.3377879 C29.8547016,29.3377879 29.8000322,29.3217824 29.7879798,29.302113 C29.7758311,29.28254 29.7187512,29.2665344 29.6610928,29.2665344 C29.6034344,29.2665344 29.5562856,29.2504325 29.5562856,29.2308595 C29.5562856,29.2083939 29.3186134,29.1951846 28.9147154,29.1951846 C28.5107209,29.1951846 28.2730487,29.2083939 28.2730487,29.2308595 M34.7247154,29.2308595 C34.7247154,29.2504325 34.644495,29.2665344 34.5465335,29.2665344 C34.4484757,29.2665344 34.3682553,29.28254 34.3682553,29.302113 C34.3682553,29.3217824 34.3356658,29.3377879 34.2958448,29.3377879 C34.2560239,29.3377879 34.2142746,29.3618926 34.2029936,29.3913003 C34.1912305,29.4217686 34.1381038,29.4447163 34.0792884,29.4447163 C34.0225941,29.4447163 33.9762167,29.4608182 33.9762167,29.4803912 C33.9762167,29.4999642 33.9521121,29.5160661 33.9227043,29.5160661 C33.8932966,29.5160661 33.8692884,29.5320716 33.8692884,29.5516446 C33.8692884,29.5713141 33.8447016,29.5873196 33.8146189,29.5873196 C33.7535859,29.5873196 33.5128283,29.8138072 33.5128283,29.8712727 C33.5128283,29.8915207 33.4948944,29.9081047 33.4731038,29.9081047 C33.4197842,29.9081047 33.1920432,30.1593719 33.1920432,30.2180909 C33.1920432,30.2436419 33.1759413,30.2645647 33.1563683,30.2645647 C33.1367952,30.2645647 33.1206933,30.3046749 33.1206933,30.3536557 C33.1206933,30.4027328 33.1046878,30.4427466 33.0851148,30.4427466 C33.0654454,30.4427466 33.0494399,30.4896061 33.0494399,30.5467824 C33.0494399,30.6039587 33.0293848,30.6573747 33.0048944,30.6655703 C32.930652,30.690157 32.919371,31.4698953 32.9928421,31.4980496 C33.0261065,31.5107769 33.0494399,31.5613967 33.0494399,31.6207906 C33.0494399,31.6763278 33.0654454,31.7316722 33.0851148,31.7438209 C33.1046878,31.7559697 33.1206933,31.7969477 33.1206933,31.8350331 C33.1206933,31.8731185 33.1340955,31.9042617 33.1503903,31.9042617 C33.1666851,31.9042617 33.2027457,31.947843 33.2305143,32.0011625 C33.2999357,32.1340276 33.5365473,32.3675537 33.6019192,32.3675537 C33.6313269,32.3675537 33.6554316,32.3806667 33.6554316,32.3965758 C33.6554316,32.4125813 33.7115473,32.4475813 33.7801975,32.4745785 C33.8487512,32.5014793 33.9049633,32.5365758 33.9049633,32.5524849 C33.9049633,32.5683939 33.9277181,32.5815069 33.9554867,32.5815069 C34.0149771,32.5815069 34.2381864,32.6942204 34.2554454,32.7329807 C34.2620019,32.7476364 34.3131038,32.7596887 34.3691231,32.7596887 C34.4251424,32.7596887 34.4809688,32.7756942 34.4930211,32.7953636 C34.5051699,32.8149366 34.5532829,32.8309422 34.5999495,32.8309422 C34.6467126,32.8309422 34.6948256,32.8470441 34.7068779,32.8666171 C34.7190267,32.8861901 34.7841093,32.902292 34.8516024,32.902292 C34.9190955,32.902292 34.974247,32.9182975 34.974247,32.9378705 C34.974247,32.95754 35.0464647,32.9735455 35.1346878,32.9735455 C35.222911,32.9735455 35.2950322,32.989551 35.2950322,33.0092204 C35.2950322,33.0287934 35.359247,33.0448953 35.4376355,33.0448953 C35.5160239,33.0448953 35.5802388,33.0609008 35.5802388,33.0804738 C35.5802388,33.1001433 35.6082966,33.1162452 35.6426217,33.1163416 C35.6769468,33.116438 35.7508999,33.1405427 35.8071121,33.169854 C35.8632278,33.1990689 35.9393986,33.2230771 35.9764233,33.2230771 C36.0133517,33.2230771 36.0436272,33.2390827 36.0436272,33.2587521 C36.0436272,33.2783251 36.0756382,33.2943306 36.1148806,33.2943306 C36.1541231,33.2943306 36.1861341,33.3104325 36.1861341,33.3300055 C36.1861341,33.3495785 36.2037787,33.3656804 36.2253765,33.3656804 C36.276382,33.3656804 36.5070156,33.5962176 36.5070156,33.6472231 C36.5070156,33.6688209 36.5230211,33.6864656 36.5425941,33.6864656 C36.5633242,33.6864656 36.5782691,33.8029394 36.5782691,33.9645372 L36.5782691,34.2426088 L36.4089578,34.4282149 C36.3158173,34.5302259 36.2115886,34.6136281 36.1772636,34.6134353 C36.1429385,34.6133388 36.1148806,34.6292479 36.1148806,34.6488209 C36.1148806,34.6684904 36.0837374,34.6844959 36.045652,34.6844959 C36.007663,34.6844959 35.9665886,34.7005014 35.9544399,34.7201708 C35.9414233,34.7413829 35.7164784,34.7557493 35.3998393,34.7557493 C35.068641,34.7557493 34.8673187,34.7423471 34.8673187,34.7201708 C34.8673187,34.7005014 34.8352112,34.6844959 34.7960652,34.6844959 C34.7568228,34.6844959 34.7247154,34.6684904 34.7247154,34.6488209 C34.7247154,34.6292479 34.6927043,34.6132424 34.6534619,34.6132424 C34.6142195,34.6132424 34.5822085,34.5971405 34.5822085,34.5775675 C34.5822085,34.5579945 34.5621534,34.5418926 34.5375666,34.5418926 C34.4696878,34.5418926 34.1900735,34.2727879 34.1900735,34.207416 C34.1900735,34.1757906 34.174068,34.149854 34.1543986,34.149854 C34.1348256,34.149854 34.11882,34.1027052 34.11882,34.0450468 C34.11882,33.9873884 34.1027181,33.9302121 34.0831451,33.9181598 C34.0635721,33.906011 34.0474702,33.8329256 34.0474702,33.7555978 L34.0474702,33.6151157 L33.4237374,33.6151157 L32.7999082,33.6151157 L32.7999082,33.9537383 C32.7999082,34.1557355 32.8142746,34.2924573 32.8355831,34.2924573 C32.8551561,34.2924573 32.8712581,34.3405703 32.8712581,34.3993857 C32.8712581,34.4582011 32.8872636,34.5063141 32.9068366,34.5063141 C32.926506,34.5063141 32.9425115,34.5389036 32.9425115,34.5787245 C32.9425115,34.6185455 32.9666162,34.6602948 32.9960239,34.6715758 C33.0254316,34.6828568 33.0494399,34.7160248 33.0494399,34.7453361 C33.0494399,34.774551 33.0975528,34.8433939 33.1563683,34.8983526 C33.2151837,34.9533113 33.2632966,35.0085592 33.2632966,35.0211901 C33.2632966,35.0547438 33.43309,35.2191377 33.4677043,35.2191377 C33.4839027,35.2191377 33.5202525,35.2512452 33.5485032,35.2904876 C33.5767539,35.3296336 33.6245776,35.3617411 33.6548531,35.3617411 C33.6850322,35.3617411 33.7398944,35.4018512 33.7767264,35.450832 C33.8134619,35.4999091 33.8734344,35.5400193 33.9098806,35.5400193 C33.9463269,35.5400193 33.9762167,35.5560248 33.9762167,35.5755978 C33.9762167,35.5952672 34.0243297,35.6112727 34.0831451,35.6112727 C34.1419605,35.6112727 34.1900735,35.6272782 34.1900735,35.6469477 C34.1900735,35.6665207 34.2461892,35.6825262 34.3148393,35.6825262 C34.3834895,35.6825262 34.4396052,35.6986281 34.4396052,35.7182011 C34.4396052,35.7377741 34.5027594,35.753876 34.5800873,35.753876 C34.6573187,35.753876 34.7304041,35.7698815 34.7425528,35.7894546 C34.755955,35.8111488 35.0161892,35.8251295 35.4040817,35.8251295 C35.80663,35.8251295 36.0436272,35.8119201 36.0436272,35.7894546 C36.0436272,35.7698815 36.1228834,35.753876 36.2196878,35.753876 C36.3165886,35.753876 36.405776,35.7377741 36.4178283,35.7182011 C36.4299771,35.6986281 36.4712443,35.6825262 36.5095225,35.6825262 C36.5478972,35.6825262 36.6070983,35.6678705 36.6411341,35.6499366 C36.6751699,35.6319063 36.7632002,35.5911212 36.8366713,35.5591102 C36.9102388,35.5270992 36.9703076,35.4857355 36.9703076,35.4670303 C36.9703076,35.4483251 36.9988476,35.4329945 37.0337512,35.4329945 C37.0686548,35.4329945 37.1203352,35.4009835 37.1485859,35.3617411 C37.1768366,35.3224986 37.2129936,35.2904876 37.2289027,35.2904876 C37.2448118,35.2904876 37.3134619,35.234854 37.3814371,35.1668788 C37.4494123,35.0989036 37.5050459,35.0302535 37.5050459,35.0143444 C37.5050459,34.9984353 37.537057,34.9622782 37.5762994,34.9340276 C37.6155418,34.9057769 37.6476492,34.8540964 37.6476492,34.8191928 C37.6476492,34.7842893 37.6716575,34.7557493 37.7010652,34.7557493 C37.7304729,34.7557493 37.7545776,34.7247025 37.7545776,34.6866171 C37.7545776,34.6485317 37.7705831,34.6074573 37.7901561,34.595405 C37.8098256,34.5832562 37.8258311,34.5351433 37.8258311,34.4884766 C37.8258311,34.4417135 37.8418366,34.3936006 37.861506,34.3815482 C37.882236,34.3686281 37.8970845,34.1673058 37.8970845,33.8982011 C37.8970845,33.6144408 37.883393,33.4369339 37.861506,33.4369339 C37.8418366,33.4369339 37.8258311,33.3888209 37.8258311,33.3300055 C37.8258311,33.2711901 37.8098256,33.2230771 37.7901561,33.2230771 C37.7705831,33.2230771 37.7545776,33.1932838 37.7545776,33.1567411 C37.7545776,33.1202948 37.7144674,33.0603223 37.6653903,33.0235868 C37.6164096,32.9867548 37.5762994,32.9342066 37.5762994,32.9068237 C37.5762994,32.8563003 37.4039027,32.6885317 37.3518366,32.6884353 C37.3362167,32.6884353 37.2862718,32.6483251 37.2408586,32.5992479 C37.195349,32.5502672 37.1320019,32.510157 37.0998944,32.510157 C37.0678834,32.510157 37.0416575,32.4941515 37.0416575,32.4745785 C37.0416575,32.4549091 37.0095501,32.4389036 36.9703076,32.4389036 C36.9311616,32.4389036 36.8990542,32.4228017 36.8990542,32.4032287 C36.8990542,32.3836557 36.858944,32.3675537 36.8099633,32.3675537 C36.7609826,32.3675537 36.7208724,32.3515482 36.7208724,32.3319752 C36.7208724,32.3123058 36.6887649,32.2963003 36.6495225,32.2963003 C36.6103765,32.2963003 36.5782691,32.2802948 36.5782691,32.2606254 C36.5782691,32.2410523 36.5320845,32.2250468 36.4756795,32.2250468 C36.4192746,32.2250468 36.3531313,32.2009422 36.3287374,32.1715344 C36.3043435,32.1421267 36.2471671,32.1181185 36.2017539,32.1181185 C36.1562443,32.1181185 36.1091919,32.1020165 36.0970432,32.0824435 C36.0849908,32.0628705 36.011809,32.0467686 35.9345776,32.0467686 C35.8572498,32.0467686 35.7940955,32.0307631 35.7940955,32.0111901 C35.7940955,31.9915207 35.7308448,31.9755152 35.6536134,31.9755152 C35.576382,31.9755152 35.5032002,31.9595096 35.4911479,31.9398402 C35.4789991,31.9202672 35.4058173,31.9042617 35.3285859,31.9042617 C35.2513545,31.9042617 35.1881038,31.8881598 35.1881038,31.8685868 C35.1881038,31.8490138 35.1239853,31.8329119 35.0455005,31.8329119 C34.9671121,31.8329119 34.9029936,31.8169063 34.9029936,31.7973333 C34.9029936,31.7776639 34.8628834,31.7616584 34.8138063,31.7616584 C34.7648256,31.7616584 34.7247154,31.7450744 34.7247154,31.7249229 C34.7247154,31.7046749 34.6966575,31.6774849 34.6623324,31.6644683 C34.6281038,31.6515482 34.5825941,31.6239725 34.5612856,31.6032424 C34.5400735,31.5825124 34.4799082,31.5337245 34.4276492,31.4947714 C34.3753903,31.4558182 34.3326768,31.3956529 34.3326768,31.361135 C34.3326768,31.3265207 34.3165749,31.29827 34.2970019,31.29827 C34.2769468,31.29827 34.2613269,31.1979945 34.2613269,31.068697 C34.2613269,30.9423884 34.2774289,30.8291928 34.2970019,30.8170441 C34.3165749,30.8048953 34.3326768,30.7639174 34.3326768,30.725832 C34.3326768,30.6877466 34.3467539,30.6566997 34.3640129,30.6566997 C34.3812718,30.6566997 34.4590817,30.5947989 34.5368917,30.519303 C34.614798,30.4437108 34.720955,30.3712039 34.7729247,30.3581873 C34.824798,30.3451708 34.8673187,30.3187521 34.8673187,30.2995647 C34.8673187,30.280281 34.9385721,30.2645647 35.0256382,30.2645647 C35.1127043,30.2645647 35.1937925,30.2485592 35.2059413,30.2288898 C35.21809,30.2093168 35.2822085,30.1933113 35.3485446,30.1933113 C35.4147842,30.1933113 35.4789991,30.2093168 35.4911479,30.2288898 C35.5032002,30.2485592 35.5843848,30.2645647 35.6714509,30.2645647 C35.758517,30.2645647 35.8297705,30.2770028 35.8297705,30.2921405 C35.8297705,30.3072782 35.8898393,30.3511488 35.9634068,30.3896198 C36.0368779,30.4280909 36.1229798,30.4879669 36.1547016,30.5224849 C36.1864233,30.5570992 36.2232553,30.5853499 36.2365611,30.5853499 C36.2909413,30.5853499 36.4356658,30.7654601 36.4356658,30.8332424 C36.4356658,30.8733526 36.4517677,30.906135 36.4713407,30.906135 C36.4909137,30.906135 36.5070156,30.9703499 36.5070156,31.0487383 C36.5070156,31.1271267 36.5230211,31.1913416 36.5425941,31.1913416 C36.5622636,31.1913416 36.5782691,31.2157355 36.5782691,31.2456254 C36.5782691,31.2925813 36.6618641,31.2986557 37.1931313,31.2901708 L37.8079936,31.2804325 L37.8187925,31.0524022 C37.8247705,30.9252259 37.812911,30.8076915 37.7919881,30.7867686 C37.7714509,30.7662314 37.7545776,30.7039449 37.7545776,30.6484077 C37.7545776,30.5916171 37.7311479,30.5384904 37.7010652,30.5270165 C37.6705969,30.5152535 37.6476492,30.4621267 37.6476492,30.4033113 C37.6476492,30.3466171 37.6315473,30.3002397 37.6119743,30.3002397 C37.5924013,30.3002397 37.5762994,30.276135 37.5762994,30.2467273 C37.5762994,30.2173196 37.5602939,30.1933113 37.5406244,30.1933113 C37.5210514,30.1933113 37.5050459,30.1677603 37.5050459,30.1366171 C37.5050459,30.0673884 37.0192884,29.5873196 36.9492884,29.5873196 C36.9216162,29.5873196 36.8990542,29.5713141 36.8990542,29.5516446 C36.8990542,29.5320716 36.858944,29.5160661 36.8099633,29.5160661 C36.7609826,29.5160661 36.7208724,29.4999642 36.7208724,29.4803912 C36.7208724,29.4608182 36.6887649,29.4447163 36.6495225,29.4447163 C36.6103765,29.4447163 36.5782691,29.4317962 36.5782691,29.4159835 C36.5782691,29.3657493 36.3099357,29.2665344 36.1741782,29.2665344 C36.1023462,29.2665344 36.0436272,29.2504325 36.0436272,29.2308595 C36.0436272,29.2083939 35.7999771,29.1951846 35.3841231,29.1951846 C34.9682691,29.1951846 34.7247154,29.2083939 34.7247154,29.2308595 M28.9502939,30.2288898 C28.9502939,30.2485592 29.0367815,30.2645647 29.1425528,30.2645647 C29.280528,30.2645647 29.3405969,30.2796061 29.3552525,30.3180771 C29.3665335,30.3474849 29.4003765,30.3714931 29.4303627,30.3714931 C29.4604454,30.3714931 29.4849357,30.3874986 29.4849357,30.4071681 C29.4849357,30.4267411 29.5170432,30.4427466 29.5562856,30.4427466 C29.5954316,30.4427466 29.627539,30.4588485 29.627539,30.4784215 C29.627539,30.4979945 29.6443159,30.5140964 29.6648531,30.5140964 C29.7231864,30.5140964 29.8586548,30.664124 29.9147705,30.791011 C29.9428283,30.8543581 29.9779247,30.906135 29.9926768,30.906135 C30.0075253,30.906135 30.019674,30.9382424 30.019674,30.9774849 C30.019674,31.0166309 30.0356795,31.0487383 30.0552525,31.0487383 C30.074922,31.0487383 30.0909275,31.0956942 30.0909275,31.1531598 C30.0909275,31.2105289 30.1150322,31.2815895 30.1444399,31.3109973 C30.181079,31.3476364 30.1978559,31.4379807 30.1978559,31.5987108 L30.1978559,31.8329119 L28.8433655,31.8329119 L27.4888751,31.8329119 L27.4888751,31.6725675 C27.4888751,31.5843444 27.5048806,31.5121267 27.5245501,31.5121267 C27.5441231,31.5121267 27.5601286,31.464978 27.5601286,31.4073196 C27.5601286,31.3496612 27.5762305,31.2925813 27.5958035,31.2804325 C27.6153765,31.2682838 27.6314784,31.2273058 27.6314784,31.1892204 C27.6314784,31.151135 27.647484,31.1199917 27.667057,31.1199917 C27.6867264,31.1199917 27.7027319,31.0953085 27.7027319,31.0650331 C27.7027319,31.0347576 27.7428421,30.9667824 27.7918228,30.9138485 C27.8408999,30.861011 27.8810101,30.8051846 27.8810101,30.7897576 C27.8810101,30.7383664 28.1989991,30.4427466 28.2543435,30.4427466 C28.2842333,30.4427466 28.3087236,30.4284766 28.3087236,30.4110248 C28.3087236,30.393573 28.3488338,30.3691791 28.3978145,30.3568375 C28.4467952,30.3445923 28.4869054,30.3187521 28.4869054,30.2995647 C28.4869054,30.280281 28.5511203,30.2645647 28.6295087,30.2645647 C28.7078972,30.2645647 28.7721121,30.2485592 28.7721121,30.2288898 C28.7721121,30.2093168 28.8122222,30.1933113 28.861203,30.1933113 C28.9101837,30.1933113 28.9502939,30.2093168 28.9502939,30.2288898 M12.375528,33.2587521 C12.375528,33.4940138 12.361933,33.6864656 12.345349,33.6864656 C12.3286685,33.6864656 12.2861479,33.750584 12.2507622,33.8290689 C12.2154729,33.9074573 12.1728559,33.9715758 12.1562718,33.9715758 C12.1396878,33.9715758 12.1260928,33.9880634 12.1260928,34.0082149 C12.1260928,34.062113 11.8150459,34.3637108 11.7594123,34.3637108 C11.7331864,34.3637108 11.6806382,34.39254 11.6426492,34.4278292 C11.6046603,34.4632149 11.5454592,34.5027466 11.5111341,34.5158595 C11.4769054,34.5289725 11.4487512,34.556259 11.4487512,34.5764105 C11.4487512,34.5966584 11.3926355,34.6132424 11.3240817,34.6132424 C11.2554316,34.6132424 11.1993159,34.6292479 11.1993159,34.6488209 C11.1993159,34.6684904 11.1190955,34.6844959 11.0210377,34.6844959 C10.9230762,34.6844959 10.8428559,34.7005014 10.8428559,34.7201708 C10.8428559,34.7399366 10.747787,34.7557493 10.6289991,34.7557493 C10.5101148,34.7557493 10.4151424,34.7399366 10.4151424,34.7201708 C10.4151424,34.7005014 10.3670294,34.6844959 10.308214,34.6844959 C10.2493986,34.6844959 10.2011892,34.6684904 10.2011892,34.6488209 C10.2011892,34.6292479 10.1691782,34.6132424 10.1299357,34.6132424 C10.0906933,34.6132424 10.0586823,34.5971405 10.0586823,34.5775675 C10.0586823,34.5579945 10.0414233,34.5418926 10.0205005,34.5418926 C9.97499084,34.5418926 9.88040406,34.4527052 9.88040406,34.4097989 C9.88040406,34.3931185 9.84839304,34.3562865 9.80915062,34.3280358 C9.76730489,34.2978568 9.73789718,34.2357631 9.73789718,34.1776226 C9.73789718,34.123146 9.72179525,34.0785041 9.70222225,34.0785041 C9.68264924,34.0785041 9.66654731,34.0153499 9.66654731,33.938022 C9.66654731,33.8607906 9.68264924,33.7877052 9.70222225,33.7755565 C9.72179525,33.7634077 9.73789718,33.7018926 9.73789718,33.6387383 C9.73789718,33.5648815 9.7632553,33.5056804 9.80915062,33.4726088 C9.84839304,33.4443581 9.88040406,33.3926777 9.88040406,33.3577741 C9.88040406,33.3228705 9.89477045,33.2943306 9.91231866,33.2943306 C9.92986687,33.2943306 9.98202941,33.2545096 10.028214,33.2058182 C10.0743021,33.1572231 10.1285859,33.117113 10.1488338,33.1167273 C10.1689853,33.116438 10.2086134,33.0840413 10.2368641,33.0448953 C10.2651148,33.0056529 10.324798,32.9735455 10.3695363,32.9735455 C10.4141782,32.9735455 10.4507209,32.95754 10.4507209,32.9378705 C10.4507209,32.9182975 10.5149357,32.902292 10.5933242,32.902292 C10.6717126,32.902292 10.7359275,32.8861901 10.7359275,32.8666171 C10.7359275,32.8438623 11.0328972,32.8309422 11.555776,32.8309422 L12.375528,32.8309422 L12.375528,33.2587521" id="Games"></path>
                    </g>
                </g>
            </g>
        </g>
    </g>
</svg>