<?xml version="1.0" encoding="UTF-8"?>
<svg width="38px" height="36px" viewBox="0 0 38 36" version="1.1" xmlns="http://www.w3.org/2000/svg" xmlns:xlink="http://www.w3.org/1999/xlink">
    <!-- Generator: Sketch 52.6 (67491) - http://www.bohemiancoding.com/sketch -->
    <title>Nav_bottom / Icon_with_text / Games / Active</title>
    <desc>Created with Sketch.</desc>
    <g id="Material-Components" stroke="none" stroke-width="1" fill="none" fill-rule="evenodd">
        <g id="Navigation" transform="translate(-116.000000, -1071.000000)" fill="#FFFFFF">
            <g id="Bottom-Navigation-/-Primary-Color-/-Active-/-Resting-Copy-3" transform="translate(90.000000, 1042.000000)">
                <g id="Bottom-Navigation-/-4-up-/-Primary-Color-Copy-3">
                    <g id="Nav_bottom-/-Icon_with_text-/-Games-/-Active" transform="translate(26.000000, 29.000000)">
                        <path d="M14.9154414,0.543512703 C14.4665804,0.688019839 14.3151857,0.986649467 14.3147709,1.7285542 L14.3144253,2.27718324 L13.5754257,2.27732159 C13.0893727,2.27745994 12.7331459,2.29337025 12.5345354,2.32380737 C10.4523401,2.6428437 8.83939922,4.18323853 8.39613773,6.27613623 L8.32368949,6.61848463 L8.31338913,11.0870685 C8.30592309,14.3370609 8.31318174,15.6510451 8.34021157,15.9054717 C8.58824996,18.2442875 10.4004235,20.0448505 12.7728956,20.3097917 C13.1630653,20.3533722 24.9374233,20.3533722 25.3275239,20.3097917 C27.700549,20.0447813 29.5121695,18.2448409 29.7602771,15.9054717 C29.7872377,15.6510451 29.7945655,14.3370609 29.7870994,11.0870685 L29.7767991,6.61848463 L29.7042817,6.27613623 C29.1775804,3.78893951 27.2338525,2.27808252 24.5599736,2.27732159 L23.8558847,2.27718324 L23.8433721,1.7285542 C23.8243614,0.898174301 23.6143444,0.575540855 23.0496215,0.509132598 C22.3971727,0.432417223 22.0705336,0.839029448 22.0700496,1.7285542 L22.069704,2.27718324 L19.0851549,2.27718324 L16.1006059,2.27718324 L16.0886464,1.7285542 C16.0783461,1.2553262 16.0675618,1.15979516 16.0101148,1.03396535 C15.8234638,0.624931993 15.3381021,0.407444958 14.9154414,0.543512703 M14.4960441,4.85163077 C14.5128427,5.56012384 14.7496821,5.8662244 15.3092893,5.90254142 C15.9206058,5.94224802 16.2402629,5.58516529 16.264251,4.83572046 L16.2778005,4.41430472 L19.259377,4.41430472 L22.2410225,4.41430472 L22.2513229,4.85163077 C22.2681215,5.56012384 22.5049608,5.8662244 23.0645681,5.90254142 C23.6769906,5.9423172 23.9955417,5.58544199 24.019668,4.83246921 L24.0332175,4.40787143 L24.8002148,4.421914 C25.5179914,4.43505731 25.5851166,4.44142143 25.846428,4.52069629 C27.3126059,4.96576995 28.1893816,6.17121815 28.1893816,7.7420501 L28.1893816,8.13544984 L19.2263328,8.13544984 L10.263284,8.13544984 L10.263284,7.7420501 C10.263284,6.20027176 11.1404053,4.96812191 12.5409098,4.54262485 C12.8940949,4.43526484 13.0257875,4.42205235 13.7808944,4.41804019 L14.4857438,4.41430472 L14.4960441,4.85163077 M14.7613012,12.6710172 C15.6612271,13.092761 15.8032353,15.1011657 14.9906989,15.9156084 C14.0185517,16.8901413 12.9875412,14.6488156 13.7497037,13.2178724 C14.0188014,12.7126794 14.4049387,12.5039312 14.7613012,12.6710172 M14.2238149,11.2710958 C12.7675916,11.5150077 11.8614357,13.5255177 12.3485948,15.431573 C12.9564548,17.8096803 15.3658423,18.2259771 16.3974691,16.1311425 C17.4879255,13.916773 16.159662,10.9468021 14.2238149,11.2710958 M23.275311,11.5127676 C23.1960881,11.5528201 23.1016565,11.6367989 23.0528507,11.7105397 L22.9680282,11.8387907 L22.9595252,14.2708547 C22.9497779,17.0363435 22.9358136,16.8840196 23.2158592,17.0694785 C23.4123266,17.1995971 24.0811592,17.1995971 24.2775576,17.0694785 C24.5552528,16.8856106 24.5413576,17.0312245 24.5413576,14.3083477 C24.5413576,11.5856784 24.5552528,11.731154 24.2777649,11.5471477 C24.0930497,11.4247075 23.4904436,11.4040241 23.275311,11.5127676 M3.01239603,26.9682043 C3.01239603,26.9873265 2.95845591,27.0030576 2.8926546,27.0030576 C2.82675916,27.0030576 2.76321712,27.0186944 2.75135594,27.0378166 C2.73949476,27.057033 2.67595273,27.0726699 2.61015142,27.0726699 C2.54425598,27.0726699 2.49031585,27.0883067 2.49031585,27.1075231 C2.49031585,27.1266453 2.45124927,27.1422822 2.40333387,27.1422822 C2.3555126,27.1422822 2.31635188,27.1580133 2.31635188,27.1771355 C2.31635188,27.1962577 2.28500448,27.2119887 2.24678512,27.2119887 C2.20847163,27.2119887 2.17712422,27.2276256 2.17712422,27.2467478 C2.17712422,27.2659642 2.14587096,27.281601 2.10755746,27.281601 C2.06886742,27.281601 2.0379907,27.304868 2.0379907,27.3338809 C2.0379907,27.3626113 2.00909084,27.3860666 1.97388385,27.3860666 C1.93867685,27.3860666 1.83522101,27.4566209 1.74400289,27.5428121 C1.6528789,27.6290033 1.56542624,27.6994634 1.5497996,27.6994634 C1.51308643,27.6994634 1.3071161,27.9050034 1.3071161,27.9415523 C1.3071161,27.9568123 1.25232875,28.0292506 1.18530367,28.1024424 C1.11837272,28.1755401 1.06349123,28.2637094 1.06349123,28.2982801 C1.06349123,28.3328508 1.04005128,28.3611102 1.0113397,28.3611102 C0.982345701,28.3611102 0.959094024,28.3921013 0.959094024,28.4308167 C0.959094024,28.4690611 0.94346739,28.500429 0.924357711,28.500429 C0.905153896,28.500429 0.889527263,28.5317969 0.889527263,28.5701355 C0.889527263,28.6083799 0.873900629,28.6397479 0.854696814,28.6397479 C0.835587136,28.6397479 0.819960502,28.6789342 0.819960502,28.7267868 C0.819960502,28.7746394 0.804239732,28.8138258 0.785130054,28.8138258 C0.766020375,28.8138258 0.750299605,28.8451937 0.750299605,28.8835323 C0.750299605,28.9217767 0.734672971,28.9531446 0.715469156,28.9531446 C0.696359478,28.9531446 0.680732844,29.0149385 0.680732844,29.0903911 C0.680732844,29.1658437 0.665012074,29.23734 0.645902396,29.2491147 C0.626792717,29.2609837 0.610601265,29.3128868 0.610036447,29.3644131 C0.609377493,29.4159394 0.585937542,29.4884719 0.557790774,29.5256801 C0.480034152,29.6286385 0.481069651,32.8534129 0.558920411,32.8534129 C0.597610449,32.8534129 0.611071947,32.8940123 0.611071947,33.0100642 C0.611071947,33.0962554 0.626792717,33.1668097 0.645902396,33.1668097 C0.665012074,33.1668097 0.680732844,33.2216329 0.680732844,33.2887019 C0.680732844,33.3557709 0.696359478,33.4105941 0.715469156,33.4105941 C0.734672971,33.4105941 0.750299605,33.4575989 0.750299605,33.5150597 C0.750299605,33.5725205 0.766020375,33.6195253 0.785130054,33.6195253 C0.804239732,33.6195253 0.819960502,33.6508932 0.819960502,33.6891376 C0.819960502,33.7274762 0.832668909,33.7588441 0.848201406,33.7588441 C0.86382804,33.7588441 0.897999534,33.8136674 0.924357711,33.8807363 C0.950621752,33.9477111 0.9927007,34.0026285 1.0178351,34.0026285 C1.04296951,34.0026285 1.06349123,34.030417 1.06349123,34.0645166 C1.06349123,34.0986163 1.09483864,34.1491064 1.13315213,34.1767065 C1.17137149,34.2043065 1.20271889,34.2390655 1.20271889,34.2539488 C1.20271889,34.2688321 1.25750624,34.339198 1.32453132,34.4102233 C1.3915564,34.4813428 1.44634376,34.5518971 1.44634376,34.5669688 C1.44634376,34.5821347 1.47091334,34.5945688 1.50103698,34.5945688 C1.55525951,34.5945688 1.65513818,34.6735067 1.65513818,34.716461 C1.65513818,34.752633 1.75125139,34.8383532 1.79182415,34.8383532 C1.81234588,34.8383532 1.82910215,34.8539901 1.82910215,34.8732065 C1.82910215,34.8923287 1.85696651,34.9079656 1.89104386,34.9079656 C1.92512122,34.9079656 1.9755783,34.9393335 2.00316025,34.9776721 C2.0307422,35.0159165 2.08119928,35.0472844 2.11527664,35.0472844 C2.14925986,35.0472844 2.17712422,35.0629213 2.17712422,35.0821377 C2.17712422,35.1012599 2.20847163,35.1168967 2.24678512,35.1168967 C2.28500448,35.1168967 2.31635188,35.1323452 2.31635188,35.1510906 C2.31635188,35.1699302 2.3555126,35.1950811 2.40333387,35.2071384 C2.45124927,35.2191016 2.49031585,35.2429337 2.49031585,35.2599835 C2.49031585,35.2771275 2.53644266,35.2910688 2.5927362,35.2910688 C2.64902973,35.2910688 2.70475845,35.3067057 2.71652549,35.3259221 C2.72838667,35.3450443 2.79974202,35.3606812 2.87523938,35.3606812 C2.95064259,35.3606812 3.01239603,35.3764122 3.01239603,35.3955344 C3.01239603,35.4146566 3.09853079,35.4303877 3.20377523,35.4303877 C3.30901966,35.4303877 3.39515442,35.4460245 3.39515442,35.4651467 C3.39515442,35.4870949 3.63228388,35.5 4.03697604,35.5 C4.42726534,35.5 4.68717579,35.4863413 4.70016661,35.4651467 C4.71202779,35.4460245 4.81378918,35.4303877 4.92637625,35.4303877 C5.03896332,35.4303877 5.14081885,35.4146566 5.15258589,35.3955344 C5.16444707,35.3764122 5.22798911,35.3606812 5.29388455,35.3606812 C5.35977999,35.3606812 5.41362598,35.3450443 5.41362598,35.3259221 C5.41362598,35.3067057 5.46060002,35.2910688 5.51802319,35.2910688 C5.57544636,35.2910688 5.6224204,35.275432 5.6224204,35.2562156 C5.6224204,35.2370934 5.66158112,35.2214565 5.70940239,35.2214565 C5.75731779,35.2214565 5.79647851,35.2071384 5.79647851,35.1897118 C5.79647851,35.1559889 6.13226286,34.9776721 6.19580489,34.9776721 C6.21651489,34.9776721 6.25605216,34.9463041 6.28363411,34.9079656 C6.31121606,34.8697212 6.35498946,34.8383532 6.38078282,34.8383532 C6.43698222,34.8383532 6.52725897,34.754046 6.52725897,34.7015777 C6.52725897,34.6810426 6.54335629,34.6642753 6.56293665,34.6642753 C6.58261115,34.6642753 6.6687459,34.5940978 6.75440998,34.5084718 L6.9101115,34.3526683 L6.9101115,32.7498893 L6.9101115,31.1470161 L5.41362598,31.1470161 L3.9172346,31.1470161 L3.9172346,31.6694382 L3.9172346,32.1917661 L4.78724273,32.1917661 L5.65725085,32.1917661 L5.65725085,33.0806185 L5.65725085,33.9694709 L5.57563464,34.0005562 C5.5307316,34.017606 5.47199052,34.0525535 5.44516166,34.0780811 C5.41823866,34.103703 5.33746968,34.1556061 5.26573778,34.1933795 C5.19391175,34.2312471 5.1352648,34.2742956 5.1352648,34.2890847 C5.1352648,34.3038738 5.09610408,34.3160253 5.04818868,34.3160253 C5.00036742,34.3160253 4.9612067,34.3316622 4.9612067,34.3507844 C4.9612067,34.3700008 4.89860603,34.3856376 4.82197904,34.3856376 C4.74544619,34.3856376 4.68284552,34.4012745 4.68284552,34.4204909 C4.68284552,34.4423448 4.45663588,34.45525 4.07378335,34.45525 C3.69102496,34.45525 3.46481532,34.4423448 3.46481532,34.4204909 C3.46481532,34.4012745 3.41087519,34.3856376 3.34507389,34.3856376 C3.27917844,34.3856376 3.21563641,34.3700008 3.20377523,34.3507844 C3.19191405,34.3316622 3.15265919,34.3160253 3.11651083,34.3160253 C3.08036248,34.3160253 3.00853644,34.2768389 2.95685559,34.2288922 C2.90526887,34.1810396 2.84182097,34.1418532 2.81583934,34.1418532 C2.78995184,34.1418532 2.76877117,34.12989 2.76877117,34.1152894 C2.76877117,34.1006887 2.70607636,34.0499159 2.62954351,34.0026285 C2.55301066,33.955247 2.49031585,33.9045684 2.49031585,33.8898735 C2.49031585,33.8752728 2.47355958,33.8633097 2.45303786,33.8633097 C2.39636778,33.8633097 2.31635188,33.7709957 2.31635188,33.7056222 C2.31635188,33.6735949 2.26937784,33.6035116 2.21195467,33.5499129 C2.1545315,33.4962201 2.10755746,33.4272671 2.10755746,33.3966528 C2.10755746,33.3659442 2.09193083,33.3408876 2.07272701,33.3408876 C2.05361733,33.3408876 2.0379907,33.3033968 2.0379907,33.2576165 C2.0379907,33.2117421 2.01445661,33.1652083 1.98574503,33.1541871 C1.95703344,33.143166 1.93349936,33.103226 1.93349936,33.0654526 C1.93349936,33.0276792 1.91787272,32.9870799 1.89876304,32.9753051 C1.87955923,32.9634362 1.86393259,32.9007945 1.86393259,32.8359863 C1.86393259,32.7711781 1.84830596,32.7085364 1.82910215,32.6966674 C1.80999247,32.6848927 1.79436583,32.5507547 1.79436583,32.398625 C1.79436583,32.2374522 1.7797747,32.1220596 1.75953539,32.1220596 C1.73722507,32.1220596 1.72470494,31.7861495 1.72470494,31.1839417 C1.72470494,30.596052 1.73769575,30.2377228 1.75953539,30.2242525 C1.77864506,30.2123835 1.79436583,30.0791875 1.79436583,29.9281881 C1.79436583,29.7772829 1.80999247,29.644087 1.82910215,29.632218 C1.84830596,29.6203491 1.86393259,29.5655258 1.86393259,29.5103258 C1.86393259,29.4551258 1.87955923,29.4003025 1.89876304,29.3884336 C1.91787272,29.3765646 1.93349936,29.3376609 1.93349936,29.3018656 C1.93349936,29.2659762 1.95703344,29.2132253 1.98574503,29.1844949 C2.01445661,29.1557645 2.0379907,29.1076293 2.0379907,29.077486 C2.0379907,29.0474368 2.05361733,29.0227569 2.07272701,29.0227569 C2.09193083,29.0227569 2.10755746,28.9986422 2.10755746,28.9690641 C2.10755746,28.9395801 2.13890487,28.8817425 2.17712422,28.8406722 C2.21543772,28.7995077 2.24678512,28.7445902 2.24678512,28.7186858 C2.24678512,28.6723404 2.39759155,28.500429 2.43816431,28.500429 C2.47346544,28.500429 2.62954351,28.3313436 2.62954351,28.2930992 C2.62954351,28.273035 2.65740787,28.2566446 2.69148523,28.2566446 C2.72556258,28.2566446 2.77601967,28.2253708 2.80360161,28.1870323 C2.83118356,28.1486937 2.88945396,28.1174199 2.93303909,28.1174199 C2.97671836,28.1174199 3.01239603,28.1016889 3.01239603,28.0825667 C3.01239603,28.0634445 3.05937007,28.0477134 3.11679324,28.0477134 C3.17421641,28.0477134 3.22119045,28.0335837 3.22119045,28.0162513 C3.22119045,27.9555878 4.04629554,27.8843741 4.10211839,27.9402335 C4.12292252,27.9610512 4.19550165,27.9782895 4.26346809,27.9785721 C4.38480984,27.9791373 4.62363376,28.046583 4.67060779,28.0934936 C4.68369275,28.1066814 4.72313587,28.1174199 4.75824873,28.1174199 C4.79326745,28.1174199 4.82197904,28.1330568 4.82197904,28.152179 C4.82197904,28.1713954 4.84607794,28.1870323 4.87535435,28.1870323 C4.90472489,28.1870323 4.9746682,28.2340371 5.03077346,28.2914978 C5.08697286,28.3489586 5.14910285,28.3959634 5.16887148,28.3959634 C5.18864011,28.3959634 5.20483156,28.4132017 5.20483156,28.4342078 C5.20483156,28.4553082 5.2518056,28.5164427 5.30922877,28.5701355 C5.36665195,28.6237342 5.41362598,28.6844919 5.41362598,28.7051213 C5.41362598,28.7256564 5.44487925,28.7938558 5.48309861,28.8564975 C5.52131796,28.9192333 5.55266537,28.9960989 5.55266537,29.0272784 C5.5527595,29.058458 5.57629359,29.1033904 5.60500518,29.1272225 C5.63955322,29.1559529 5.65725085,29.2339489 5.65725085,29.3579134 L5.65725085,29.5451791 L6.28363411,29.5451791 L6.9101115,29.5451791 L6.9101115,29.4058602 C6.9101115,29.3292772 6.89439073,29.2665414 6.87528105,29.2665414 C6.85541828,29.2665414 6.8404506,29.1627352 6.8404506,29.0248293 C6.8404506,28.8919159 6.82482397,28.7734148 6.80562015,28.7616401 C6.78651047,28.7497711 6.77088384,28.6949479 6.77088384,28.6397479 C6.77088384,28.5845478 6.75516307,28.5297246 6.73605339,28.5178556 C6.71694371,28.5059867 6.70122294,28.4659525 6.70122294,28.4287443 C6.70122294,28.3915361 6.68559631,28.3611102 6.66648663,28.3611102 C6.64728282,28.3611102 6.63165618,28.332003 6.63165618,28.2963961 C6.63165618,28.2607893 6.59249546,28.2021981 6.5446742,28.1662145 C6.49685293,28.1302309 6.45769221,28.0795523 6.45769221,28.0534595 C6.45769221,28.0273666 6.41071818,27.9620874 6.353295,27.9083946 C6.29587183,27.8547959 6.24880366,27.7973351 6.24880366,27.7808505 C6.24880366,27.7643658 6.20691298,27.719716 6.15560867,27.68166 C6.10430436,27.643604 6.02664188,27.5771944 5.98315089,27.5340517 C5.93965989,27.4910032 5.88355463,27.4557732 5.85851436,27.4557732 C5.83347409,27.4557732 5.78358183,27.4165868 5.74762174,27.36864 C5.71166166,27.3207874 5.65320299,27.281601 5.61752531,27.281601 C5.58194177,27.281601 5.55285364,27.2659642 5.55285364,27.2467478 C5.55285364,27.2276256 5.52150624,27.2119887 5.48319274,27.2119887 C5.44497339,27.2119887 5.41362598,27.1962577 5.41362598,27.1771355 C5.41362598,27.1580133 5.36759331,27.1422822 5.31129977,27.1422822 C5.25500624,27.1422822 5.19927752,27.1266453 5.18741634,27.1075231 C5.17555516,27.0883067 5.11982644,27.0726699 5.06353291,27.0726699 C5.00723937,27.0726699 4.9612067,27.057033 4.9612067,27.0378166 C4.9612067,27.0186944 4.89079271,27.0030576 4.80465795,27.0030576 C4.71852319,27.0030576 4.64801507,26.9873265 4.64801507,26.9682043 C4.64801507,26.9459736 4.35223867,26.933351 3.83015848,26.933351 C3.30817244,26.933351 3.01239603,26.9459736 3.01239603,26.9682043 M10.7729965,29.056103 C10.7729965,29.076073 10.7024884,29.0924635 10.6163536,29.0924635 C10.5302189,29.0924635 10.4597108,29.1081003 10.4597108,29.1272225 C10.4597108,29.1464389 10.4295871,29.1620758 10.3926857,29.1620758 C10.3556901,29.1620758 10.3020324,29.1856253 10.2733208,29.2143557 C10.2446092,29.2430861 10.1886922,29.2665414 10.1490608,29.2665414 C10.1094294,29.2665414 10.0769524,29.2822724 10.0769524,29.3013946 C10.0769524,29.3205168 10.045605,29.3362479 10.0073856,29.3362479 C9.96907211,29.3362479 9.9377247,29.3518848 9.9377247,29.3710069 C9.9377247,29.3902233 9.91315512,29.4058602 9.88303149,29.4058602 C9.85300199,29.4058602 9.80856964,29.4254534 9.78437659,29.4493797 C9.76018355,29.473306 9.69871252,29.5240787 9.64769062,29.5621347 C9.59666872,29.6001907 9.55496632,29.6449347 9.55496632,29.6616078 C9.55496632,29.6782808 9.46883156,29.7727614 9.36349298,29.8715751 C9.25824855,29.9703888 9.17211379,30.0784339 9.17211379,30.1115916 C9.17211379,30.1448435 9.15648716,30.1719726 9.13728334,30.1719726 C9.11817366,30.1719726 9.10254703,30.210217 9.10254703,30.2569392 C9.10254703,30.3037556 9.08682626,30.3517024 9.06771658,30.3634771 C9.0486069,30.3753461 9.03288613,30.5173024 9.03288613,30.6789462 L9.03288613,30.9729382 L9.62076762,30.9729382 C10.2553407,30.9729382 10.2509163,30.974257 10.2509163,30.7805859 C10.2509163,30.7353708 10.2666371,30.6887428 10.2857468,30.6769681 C10.3048565,30.6650991 10.3205772,30.6314704 10.3205772,30.6021748 C10.3205772,30.5291714 10.6979698,30.1719726 10.7751617,30.1719726 C10.8095214,30.1719726 10.8611081,30.1485173 10.8898197,30.1197869 C10.9185313,30.0910565 10.997041,30.067507 11.0642544,30.067507 C11.1314677,30.067507 11.1961394,30.0518701 11.2080006,30.0326537 C11.2197676,30.0135315 11.2834038,29.9978947 11.3492051,29.9978947 C11.4151005,29.9978947 11.4689465,30.0135315 11.4689465,30.0326537 C11.4689465,30.0518701 11.5405843,30.067507 11.628037,30.067507 C11.7231147,30.067507 11.8082139,30.0885131 11.8393731,30.1197869 C11.8680846,30.1485173 11.9196714,30.1719726 11.9540311,30.1719726 C12.0433665,30.1719726 12.4086156,30.5333161 12.4086156,30.6216738 C12.4086156,30.6616138 12.422077,30.6943005 12.4385509,30.6943005 C12.4550248,30.6943005 12.4776175,30.7827524 12.4887256,30.8907975 C12.4999278,30.9989368 12.5255329,31.1038734 12.5457722,31.124126 C12.5660115,31.1443785 12.5825795,31.275408 12.5825795,31.4151978 L12.5825795,31.6694382 L11.6430046,31.6694382 C11.0397789,31.6694382 10.7033356,31.6818724 10.7033356,31.7041973 C10.7033356,31.7234137 10.6170126,31.7390505 10.5114857,31.7390505 C10.4059589,31.7390505 10.2924305,31.7533686 10.2592003,31.7709837 C10.2259702,31.7885045 10.1086763,31.829198 9.99863092,31.8613195 C9.88858553,31.8933469 9.79849705,31.9309319 9.79849705,31.9446848 C9.79849705,31.9585319 9.74370969,31.9913128 9.67677875,32.017594 C9.60975367,32.0439695 9.55496632,32.0781634 9.55496632,32.0938002 C9.55496632,32.1093429 9.52710196,32.1220596 9.4930246,32.1220596 C9.45894724,32.1220596 9.40849016,32.1534276 9.38090821,32.1917661 C9.35332626,32.2301047 9.31444795,32.2613785 9.29449104,32.2613785 C9.27453414,32.2613785 9.22708942,32.3029198 9.18905833,32.3535983 C9.15102725,32.4042768 9.06903449,32.501395 9.00681036,32.5693117 C8.94458624,32.6373227 8.89375261,32.7211589 8.89375261,32.7557296 C8.89375261,32.7903003 8.87831425,32.8185597 8.85958112,32.8185597 C8.84084798,32.8185597 8.81514876,32.8617023 8.80253449,32.914359 C8.79001436,32.9670157 8.7652565,33.028527 8.747653,33.0509461 C8.70162033,33.1096315 8.70613887,34.1896116 8.75245395,34.2050601 C8.77269327,34.2118423 8.7893554,34.263557 8.7893554,34.3199816 C8.7893554,34.379138 8.81147744,34.4311353 8.84150694,34.4427216 C8.87021852,34.4537428 8.89375261,34.492364 8.89375261,34.5286302 C8.89375261,34.5648964 8.90937924,34.5945688 8.92848892,34.5945688 C8.94769274,34.5945688 8.96331937,34.6302698 8.96331937,34.6739777 C8.96331937,34.7175914 8.99466678,34.7759 9.03288613,34.8035 C9.07119963,34.8311 9.10254703,34.8749021 9.10254703,34.9008065 C9.10254703,34.9569485 9.18679906,35.0472844 9.23923301,35.0472844 C9.25975473,35.0472844 9.276511,35.0629213 9.276511,35.0821377 C9.276511,35.1012599 9.3078584,35.1168967 9.3461719,35.1168967 C9.38439125,35.1168967 9.41573866,35.1337582 9.41573866,35.1542933 C9.41573866,35.2157104 9.51015741,35.2910688 9.58725508,35.2910688 C9.62688648,35.2910688 9.65936352,35.3067057 9.65936352,35.3259221 C9.65936352,35.3450443 9.70633756,35.3606812 9.76376073,35.3606812 C9.82118391,35.3606812 9.86815794,35.3764122 9.86815794,35.3955344 C9.86815794,35.4146566 9.92981725,35.4303877 10.0053146,35.4303877 C10.0807178,35.4303877 10.1520732,35.4460245 10.1639343,35.4651467 C10.1766428,35.4857761 10.3905205,35.5 10.6879914,35.5 C10.9998651,35.5 11.1905854,35.4868123 11.1905854,35.4651467 C11.1905854,35.4460245 11.2453727,35.4303877 11.3123978,35.4303877 C11.3793287,35.4303877 11.4342102,35.4146566 11.4342102,35.3955344 C11.4342102,35.3764122 11.4802429,35.3606812 11.5365364,35.3606812 C11.59283,35.3606812 11.6485587,35.3450443 11.6604199,35.3259221 C11.6721869,35.3067057 11.7086177,35.2910688 11.7411888,35.2910688 C11.77376,35.2910688 11.8298653,35.2518825 11.8658254,35.2040299 C11.9017855,35.1560831 11.9524308,35.1168967 11.9785066,35.1168967 C12.0044882,35.1168967 12.025763,35.1012599 12.025763,35.0821377 C12.025763,35.0629213 12.0492971,35.0472844 12.0780087,35.0472844 C12.1067203,35.0472844 12.1301602,35.0316475 12.1301602,35.0124311 C12.1301602,34.9933089 12.1497406,34.9776721 12.1736512,34.9775779 C12.2211901,34.9775779 12.4086156,34.8273321 12.4086156,34.7892761 C12.4086156,34.7762767 12.4477763,34.7234317 12.4955975,34.6718112 L12.5825795,34.5778958 L12.5825795,34.8279914 C12.5825795,34.9655205 12.5983003,35.0876953 12.61741,35.0995643 C12.6365196,35.111339 12.6522404,35.1750169 12.6522404,35.2408613 L12.6522404,35.3606812 L13.2960389,35.3606812 L13.9398374,35.3606812 L13.9398374,35.1716258 C13.9398374,35.0500161 13.9211984,34.9640134 13.8876858,34.9303847 C13.8499372,34.8926113 13.8354402,34.800674 13.8354402,34.5990903 C13.8354402,34.4456418 13.8198135,34.3103734 13.8006097,34.2985987 C13.7781111,34.2846574 13.7658734,33.6198079 13.7658734,32.4181239 C13.7658734,31.2163458 13.7535415,30.5514963 13.731043,30.5376492 C13.7119333,30.5257803 13.6962125,30.4631386 13.6962125,30.3983304 C13.6962125,30.3335221 13.6805859,30.2708805 13.6614762,30.2590115 C13.6422724,30.2472368 13.6266457,30.2071084 13.6266457,30.1699002 C13.6266457,30.1327862 13.6141256,30.1023602 13.5987814,30.1023602 C13.5835313,30.1023602 13.5511484,30.0474428 13.5269554,29.980468 C13.5027623,29.913399 13.4641664,29.8585758 13.4411971,29.8585758 C13.418322,29.8585758 13.3684297,29.8154331 13.3303987,29.7627764 C13.2137637,29.6013211 13.0452597,29.4488145 12.9152574,29.3871148 C12.8471027,29.3547107 12.7913739,29.3143939 12.7913739,29.2974383 C12.7913739,29.2804827 12.7460944,29.2665414 12.6907422,29.2665414 C12.633319,29.2665414 12.5814499,29.2441222 12.5700594,29.2143557 C12.5590454,29.1856253 12.5181903,29.1620758 12.4793119,29.1620758 C12.4404336,29.1620758 12.4086156,29.1479461 12.4086156,29.1306136 C12.4086156,29.0821959 12.1032372,29.0531829 11.4080403,29.0357563 C10.9803789,29.0250177 10.7729965,29.0317057 10.7729965,29.056103 M18.0811777,29.0576102 C18.0811777,29.0767324 18.0262962,29.0924635 17.9593653,29.0924635 C17.8923402,29.0924635 17.8375528,29.1081003 17.8375528,29.1272225 C17.8375528,29.1464389 17.8073351,29.1620758 17.7704336,29.1620758 C17.7335322,29.1620758 17.6797803,29.1856253 17.6510687,29.2143557 C17.6223572,29.2430861 17.5664402,29.2665414 17.5268088,29.2665414 C17.4871774,29.2665414 17.4547003,29.2822724 17.4547003,29.3013946 C17.4547003,29.3205168 17.4335196,29.3362479 17.4077263,29.3362479 C17.3818388,29.3362479 17.3130251,29.3818397 17.2547547,29.4375107 C17.1964843,29.4931818 17.1158095,29.5564828 17.0755191,29.5780542 C17.0352288,29.5996255 17.002281,29.6335368 17.002281,29.6533184 C17.002281,29.6915628 16.916617,29.7889635 16.8830103,29.7889635 C16.8720905,29.7889635 16.8631475,29.6556733 16.8631475,29.4928992 C16.8631475,29.3188213 16.8487446,29.196929 16.8283171,29.196929 C16.8092074,29.196929 16.7934866,29.1730027 16.7934866,29.1438014 C16.7934866,29.0980211 16.71573,29.0919925 16.2280096,29.1002819 L15.6624384,29.1098901 L15.6535896,32.2352856 L15.6447408,35.3606812 L16.2887275,35.3606812 L16.9327143,35.3606812 L16.9327143,33.0700683 C16.9327143,30.8193012 16.933938,30.7785135 17.002281,30.7291538 C17.0405945,30.7015537 17.0719419,30.6432452 17.0719419,30.5996315 C17.0719419,30.5559236 17.0891689,30.5202226 17.1101613,30.5202226 C17.1311537,30.5202226 17.1898948,30.4770799 17.2406343,30.4244232 C17.3304403,30.3313556 17.3636705,30.3117624 17.637419,30.1912832 C17.709245,30.1597268 17.7678919,30.1189391 17.7678919,30.1006647 C17.7678919,30.0418851 18.49566,30.0595002 18.5559073,30.1197869 C18.5846189,30.1485173 18.6383707,30.1719726 18.6752722,30.1719726 C18.7121736,30.1719726 18.7423914,30.1838415 18.7423914,30.198348 C18.7423914,30.2127603 18.793225,30.2470484 18.8554492,30.2745542 C18.994771,30.3359713 19.055583,30.3939973 19.055583,30.4654935 C19.055583,30.4956369 19.0712097,30.5202226 19.0904135,30.5202226 C19.1095232,30.5202226 19.1251498,30.5436779 19.1251498,30.5724083 C19.1251498,30.6011387 19.1408706,30.6246882 19.1599803,30.6246882 C19.1790899,30.6246882 19.1948107,30.6551141 19.1948107,30.6923223 C19.1948107,30.7294363 19.2104373,30.7695647 19.229547,30.7814336 C19.2487508,30.7932084 19.2643775,30.856792 19.2643775,30.9227306 C19.2643775,30.9886692 19.2800041,31.0425505 19.2992079,31.0425505 C19.3219889,31.0425505 19.3339442,31.7854902 19.3339442,33.2016629 L19.3339442,35.3606812 L19.9778368,35.3606812 L20.6216353,35.3606812 L20.6216353,33.3235551 C20.6216353,31.988581 20.6335906,31.2863349 20.6563716,31.2863349 C20.6755754,31.2863349 20.6912021,31.2157806 20.6912021,31.1295895 C20.6912021,31.0433983 20.7068287,30.9729382 20.7260325,30.9729382 C20.7451422,30.9729382 20.7607688,30.9415702 20.7607688,30.9032317 C20.7607688,30.8649873 20.77536,30.8336193 20.7930576,30.8336193 C20.8254405,30.8336193 20.9348269,30.6406076 20.9348269,30.5836178 C20.9348269,30.5223891 21.248301,30.2415849 21.3167381,30.2415849 C21.3555223,30.2415849 21.3872462,30.225948 21.3872462,30.2068258 C21.3872462,30.1876094 21.417464,30.1719726 21.4543654,30.1719726 C21.4912669,30.1719726 21.5449246,30.1485173 21.5736362,30.1197869 C21.6127969,30.0806005 21.7092867,30.067507 21.9589363,30.067507 C22.2318375,30.067507 22.2920848,30.0769268 22.2920848,30.1197869 C22.2920848,30.1485173 22.3150541,30.1719726 22.3432008,30.1719726 C22.5038916,30.1719726 22.8391111,30.4626676 22.8728119,30.631282 C22.8837317,30.6859169 22.9063245,30.7390445 22.9229866,30.7493121 C22.9396487,30.7596739 22.9532985,30.8054541 22.9532985,30.851046 C22.9532985,30.8966378 22.9689251,30.9436426 22.9880348,30.9555116 C23.0106275,30.9694529 23.0228653,31.7268048 23.0228653,33.1137762 C23.0228653,34.2889905 23.032373,35.2753378 23.0439518,35.3055753 C23.0621201,35.3530511 23.1521145,35.3606812 23.6878444,35.3606812 L24.3104622,35.3606812 L24.3104622,33.1319564 C24.3104622,31.6694382 24.2985069,30.9032317 24.2757259,30.9032317 C24.2565221,30.9032317 24.2408955,30.8258009 24.2408955,30.7312261 C24.2408955,30.6365571 24.2252688,30.549424 24.206065,30.5376492 C24.1869553,30.5257803 24.1713287,30.470015 24.1713287,30.4136846 C24.1713287,30.3573542 24.1556079,30.3112914 24.1364983,30.3112914 C24.1173886,30.3112914 24.1016678,30.2642866 24.1016678,30.2068258 C24.1016678,30.149365 24.0860412,30.1023602 24.0669315,30.1023602 C24.0477277,30.1023602 24.032101,30.0795643 24.032101,30.0516817 C24.032101,30.0237991 23.9929403,29.9618168 23.9451191,29.9139642 C23.8972037,29.8661117 23.8580429,29.8107232 23.8580429,29.7909416 C23.8580429,29.6960843 23.485922,29.3362479 23.387926,29.3362479 C23.3594027,29.3362479 23.3360569,29.3205168 23.3360569,29.3013946 C23.3360569,29.2822724 23.3144997,29.2665414 23.2881415,29.2665414 C23.2617833,29.2665414 23.2207399,29.2430861 23.1968292,29.2143557 C23.1730127,29.1856253 23.124156,29.1620758 23.0881959,29.1620758 C23.0522358,29.1620758 23.0228653,29.1464389 23.0228653,29.1272225 C23.0228653,29.1081003 22.9768326,29.0924635 22.9205391,29.0924635 C22.8642455,29.0924635 22.8085168,29.0767324 22.7966556,29.0576102 C22.7838531,29.0367924 22.5584907,29.0227569 22.2377681,29.0227569 C21.9027369,29.0227569 21.7004379,29.0359447 21.7004379,29.0576102 C21.7004379,29.0767324 21.6456505,29.0924635 21.5786254,29.0924635 C21.5116003,29.0924635 21.456813,29.1081003 21.456813,29.1272225 C21.456813,29.1464389 21.4265952,29.1620758 21.3896938,29.1620758 C21.3527923,29.1620758 21.2991346,29.1856253 21.270423,29.2143557 C21.2417114,29.2430861 21.1954905,29.2665414 21.1677203,29.2665414 C21.13995,29.2665414 21.0526857,29.3292772 20.9737994,29.4058602 C20.8949131,29.4824432 20.8185686,29.5453675 20.8042598,29.5457442 C20.7588861,29.5466862 20.5519744,29.744031 20.5519744,29.7864201 C20.5519744,29.8267369 20.3983439,29.9978947 20.3621955,29.9978947 C20.3517464,29.9978947 20.34318,29.9738742 20.34318,29.9445786 C20.34318,29.9151888 20.3197401,29.8822195 20.2910285,29.8711983 C20.2623169,29.8601772 20.2387828,29.8214618 20.2387828,29.7851956 C20.2387828,29.7489293 20.2231562,29.719257 20.2039523,29.719257 C20.1848427,29.719257 20.169216,29.7023955 20.169216,29.681672 C20.169216,29.6610426 20.1083098,29.5866262 20.033848,29.5162603 C19.8235474,29.3176909 19.7550161,29.2665414 19.699005,29.2665414 C19.6704817,29.2665414 19.64723,29.2529769 19.64723,29.2364922 C19.64723,29.1977768 19.3727284,29.0924635 19.2719084,29.0924635 C19.2294529,29.0924635 19.1948107,29.0767324 19.1948107,29.0576102 C19.1948107,29.0358505 18.9859221,29.0227569 18.6379942,29.0227569 C18.2899721,29.0227569 18.0811777,29.0358505 18.0811777,29.0576102 M28.1037805,29.0576102 C28.1037805,29.0767324 28.0489931,29.0924635 27.981968,29.0924635 C27.9150371,29.0924635 27.8601556,29.1081003 27.8601556,29.1272225 C27.8601556,29.1464389 27.8318206,29.1620758 27.7972725,29.1620758 C27.7626304,29.1620758 27.7038893,29.1850601 27.6667054,29.2132253 C27.6296157,29.2412963 27.5752049,29.2648458 27.5459285,29.265411 C27.5166521,29.2660704 27.4701487,29.2979093 27.4425668,29.3362479 C27.4149848,29.3744923 27.3645277,29.4058602 27.3304504,29.4058602 C27.2964672,29.4058602 27.2686028,29.4214971 27.2686028,29.4407135 C27.2686028,29.4598357 27.2490224,29.4756609 27.2251118,29.4757551 C27.1684417,29.4761319 26.7902019,29.8361567 26.6582227,30.0152271 C26.6017409,30.0919043 26.5476125,30.1623644 26.5379165,30.1719726 C26.5282204,30.1815808 26.4980027,30.2324477 26.4708914,30.2851986 C26.4437801,30.3378552 26.4085731,30.3809037 26.3926641,30.3809037 C26.3767551,30.3809037 26.3637642,30.4187713 26.3637642,30.4651168 C26.3637642,30.511368 26.3519972,30.5544165 26.3376885,30.5608219 C26.2965509,30.5790963 26.1897061,30.7862377 26.1897061,30.847749 C26.1897061,30.8782692 26.1740795,30.9032317 26.1549698,30.9032317 C26.135766,30.9032317 26.1201394,30.9650256 26.1201394,31.0404782 C26.1201394,31.1160249 26.1045127,31.187427 26.0853089,31.199296 C26.0661992,31.2110707 26.0505726,31.2894435 26.0505726,31.3733739 C26.0505726,31.4573043 26.0348518,31.5356771 26.0157422,31.547546 C25.9943732,31.5607337 25.9809117,31.8438929 25.9809117,32.2808775 C25.9809117,32.7321801 25.9937143,32.9927318 26.0157422,32.9927318 C26.0348518,32.9927318 26.0505726,33.0789229 26.0505726,33.1842363 C26.0505726,33.2895497 26.0661992,33.3757408 26.0853089,33.3757408 C26.1045127,33.3757408 26.1201394,33.4308467 26.1201394,33.498104 C26.1201394,33.6094461 26.1428262,33.6769861 26.2309379,33.8284564 C26.2476941,33.8571868 26.2705693,33.908148 26.2818656,33.9416824 C26.2930678,33.9751227 26.3161312,34.0026285 26.3329817,34.0026285 C26.3499262,34.0026285 26.3637642,34.0339023 26.3637642,34.0722409 C26.3637642,34.1105795 26.3793909,34.1418532 26.3985947,34.1418532 C26.4177044,34.1418532 26.433331,34.170301 26.433331,34.2049659 C26.433331,34.2396307 26.4646784,34.3017072 26.5029919,34.3427775 C26.5412113,34.3839421 26.5725587,34.4300049 26.5725587,34.4451708 C26.5726528,34.4907626 26.7342849,34.6642753 26.7767404,34.6642753 C26.7983918,34.6642753 26.8161835,34.6814194 26.8161835,34.7025197 C26.8161835,34.764502 27.1346468,35.0472844 27.204496,35.0472844 C27.2397029,35.0472844 27.2686028,35.0629213 27.2686028,35.0821377 C27.2686028,35.1012599 27.2998561,35.1168967 27.3381696,35.1168967 C27.3768596,35.1168967 27.4077363,35.1401636 27.4077363,35.1691766 C27.4077363,35.1981896 27.4387072,35.2214565 27.4773972,35.2214565 C27.5156166,35.2214565 27.546964,35.2370934 27.546964,35.2562156 C27.546964,35.275432 27.5861247,35.2910688 27.633946,35.2910688 C27.6818614,35.2910688 27.7210221,35.3067057 27.7210221,35.3259221 C27.7210221,35.3450443 27.7679961,35.3606812 27.8254193,35.3606812 C27.8828425,35.3606812 27.9298165,35.3764122 27.9298165,35.3955344 C27.9298165,35.4146566 28.0159513,35.4303877 28.1211957,35.4303877 C28.2264401,35.4303877 28.3125749,35.4460245 28.3125749,35.4651467 C28.3125749,35.4869065 28.5213693,35.5 28.8693914,35.5 C29.2174135,35.5 29.4262079,35.4869065 29.4262079,35.4651467 C29.4262079,35.4460245 29.5123426,35.4303877 29.6175871,35.4303877 C29.7229257,35.4303877 29.8090604,35.4146566 29.8090604,35.3955344 C29.8090604,35.3764122 29.8794744,35.3606812 29.9656092,35.3606812 C30.0517439,35.3606812 30.122252,35.3450443 30.122252,35.3259221 C30.122252,35.3067057 30.1405145,35.2910688 30.1627307,35.2910688 C30.2276848,35.2910688 30.4702741,35.1758647 30.4702741,35.1450619 C30.4702741,35.1296135 30.5016215,35.1168967 30.5398409,35.1168967 C30.5781544,35.1168967 30.6095018,35.1012599 30.6095018,35.0821377 C30.6095018,35.0629213 30.6329417,35.0472844 30.6616533,35.0472844 C30.6903649,35.0472844 30.713899,35.0340967 30.713899,35.0179888 C30.713899,35.0017868 30.7825244,34.9532748 30.8663999,34.9101321 C31.0407404,34.8203614 31.1337471,34.687448 31.0681341,34.6216978 C31.0455413,34.5991845 31.0270906,34.5559476 31.0270906,34.5256159 C31.0270906,34.4953783 30.9949901,34.4476199 30.9558294,34.4194547 C30.8880512,34.3707543 30.7834657,34.1992198 30.7834657,34.1367665 C30.7834657,34.1207528 30.7492943,34.0682846 30.7075919,34.0202436 C30.6320004,33.9332988 30.4354437,33.895337 30.4354437,33.9677753 C30.4354437,33.9868975 30.4071086,34.0026285 30.3723723,34.0026285 C30.3377301,34.0026285 30.2789891,34.0300402 30.2418993,34.0634805 C30.2048096,34.0970149 30.1118029,34.1557945 30.0352701,34.1941331 C29.9586431,34.2323775 29.8908649,34.2755202 29.8844636,34.2898383 C29.8780624,34.3042506 29.8428554,34.3160253 29.8061422,34.3160253 C29.769429,34.3160253 29.7393995,34.3316622 29.7393995,34.3507844 C29.7393995,34.3700008 29.6777402,34.3856376 29.6022429,34.3856376 C29.5268396,34.3856376 29.4554843,34.4012745 29.4436231,34.4204909 C29.4308206,34.4412144 29.2112946,34.45525 28.9021508,34.45525 C28.5786984,34.45525 28.3822358,34.4421564 28.3822358,34.4204909 C28.3822358,34.4012745 28.3352618,34.3856376 28.2778386,34.3856376 C28.2204154,34.3856376 28.1734414,34.3700008 28.1734414,34.3507844 C28.1734414,34.3316622 28.1570617,34.3160253 28.1371047,34.3160253 C28.09239,34.3160253 28.0363789,34.2704335 27.8494241,34.0816607 C27.593938,33.8236523 27.546964,33.7628946 27.546964,33.6904564 C27.546964,33.6514584 27.5313374,33.6195253 27.5121335,33.6195253 C27.4930239,33.6195253 27.4773972,33.5881573 27.4773972,33.5499129 C27.4773972,33.5115744 27.4616765,33.4802064 27.4425668,33.4802064 C27.4234571,33.4802064 27.4077363,33.4341436 27.4077363,33.3778132 C27.4077363,33.3214828 27.3921097,33.2657176 27.373,33.2538486 C27.3537962,33.2420739 27.3381696,33.1705776 27.3381696,33.095125 C27.3381696,33.0196724 27.3225429,32.9578785 27.3033391,32.9578785 C27.2842294,32.9578785 27.2686028,32.8716873 27.2686028,32.766374 L27.2686028,32.5747752 L29.2522439,32.5747752 L31.235885,32.5747752 L31.235885,31.895796 C31.235885,31.4662531 31.2230825,31.2167226 31.2010546,31.2167226 C31.1819449,31.2167226 31.1663183,31.1305314 31.1663183,31.0251239 C31.1663183,30.9198105 31.1505975,30.8336193 31.1314878,30.8336193 C31.112284,30.8336193 31.0964691,30.7983893 31.0961867,30.7552466 C31.0956219,30.6703742 31.0199363,30.4318649 30.9813404,30.3931495 C30.9681613,30.380056 30.9574297,30.340587 30.9574297,30.3054511 C30.9574297,30.2703153 30.9339898,30.2415849 30.9052782,30.2415849 C30.8765666,30.2415849 30.8530325,30.2132313 30.8530325,30.1785664 C30.8530325,30.1438074 30.8217792,30.0818251 30.7834657,30.0406605 C30.7451523,29.9995902 30.713899,29.9491001 30.713899,29.9284707 C30.713899,29.8701622 30.2356863,29.4058602 30.1756274,29.4058602 C30.1462568,29.4058602 30.122252,29.3902233 30.122252,29.3710069 C30.122252,29.3518848 30.0948584,29.3361537 30.0613458,29.3361537 C30.0278333,29.3361537 29.9549718,29.2969673 29.8993372,29.2491147 C29.8437026,29.2012621 29.7545555,29.1620758 29.7012743,29.1620758 C29.6479931,29.1620758 29.5946178,29.1464389 29.5828508,29.1272225 C29.5709896,29.1081003 29.5152609,29.0924635 29.4589673,29.0924635 C29.4026738,29.0924635 29.3566411,29.0767324 29.3566411,29.0576102 C29.3566411,29.0356621 29.124595,29.0227569 28.7302579,29.0227569 C28.3358266,29.0227569 28.1037805,29.0356621 28.1037805,29.0576102 M34.4027259,29.0576102 C34.4027259,29.0767324 34.3244045,29.0924635 34.2287619,29.0924635 C34.1330253,29.0924635 34.0547038,29.1081003 34.0547038,29.1272225 C34.0547038,29.1464389 34.0228857,29.1620758 33.9840074,29.1620758 C33.9451291,29.1620758 33.9043681,29.1856253 33.8933541,29.2143557 C33.8818695,29.2441222 33.8300004,29.2665414 33.7725772,29.2665414 C33.717225,29.2665414 33.6719454,29.2822724 33.6719454,29.3013946 C33.6719454,29.3205168 33.6484113,29.3362479 33.6196998,29.3362479 C33.5909882,29.3362479 33.5675482,29.3518848 33.5675482,29.3710069 C33.5675482,29.3902233 33.5435435,29.4058602 33.5141729,29.4058602 C33.4545846,29.4058602 33.2195261,29.6271313 33.2195261,29.6832733 C33.2195261,29.7030549 33.2020168,29.719257 33.180742,29.719257 C33.1286846,29.719257 32.9063345,29.964737 32.9063345,30.0221035 C32.9063345,30.047066 32.8906137,30.067507 32.8715041,30.067507 C32.8523944,30.067507 32.8366736,30.1066933 32.8366736,30.1545459 C32.8366736,30.2024927 32.821047,30.2415849 32.8019373,30.2415849 C32.7827335,30.2415849 32.7671069,30.2873651 32.7671069,30.3432245 C32.7671069,30.399084 32.7475265,30.4512696 32.7236159,30.4592765 C32.6511309,30.483297 32.6401169,31.2450762 32.7118488,31.272582 C32.7443259,31.2850162 32.7671069,31.3344701 32.7671069,31.3924961 C32.7671069,31.4467541 32.7827335,31.5008238 32.8019373,31.5126927 C32.821047,31.5245617 32.8366736,31.5645958 32.8366736,31.6018041 C32.8366736,31.6390123 32.8497586,31.6694382 32.8656676,31.6694382 C32.8815767,31.6694382 32.9167837,31.7120157 32.9438949,31.7641072 C33.0116731,31.8939121 33.2426837,32.1220596 33.3065081,32.1220596 C33.3352197,32.1220596 33.3587538,32.1348705 33.3587538,32.1504132 C33.3587538,32.1660501 33.4135412,32.200244 33.4805662,32.2266194 C33.5474972,32.2529006 33.6023787,32.2871887 33.6023787,32.3027314 C33.6023787,32.3182741 33.6245948,32.331085 33.6517061,32.331085 C33.7097882,32.331085 33.9277139,32.4412025 33.9445643,32.4790701 C33.9509656,32.4933881 34.0008578,32.5051629 34.055551,32.5051629 C34.1102443,32.5051629 34.1647492,32.5207998 34.1765163,32.5400162 C34.1883774,32.5591384 34.2353515,32.5747752 34.2809135,32.5747752 C34.3265696,32.5747752 34.3735436,32.5905063 34.3853107,32.6096285 C34.3971719,32.6287507 34.4607139,32.6444817 34.5266093,32.6444817 C34.5925048,32.6444817 34.6463508,32.6601186 34.6463508,32.6792408 C34.6463508,32.6984572 34.7168589,32.7140941 34.8029936,32.7140941 C34.8891284,32.7140941 34.9595424,32.7297309 34.9595424,32.7489473 C34.9595424,32.7680695 35.0222372,32.7838006 35.0987701,32.7838006 C35.1753029,32.7838006 35.2379977,32.7994375 35.2379977,32.8185597 C35.2379977,32.837776 35.2653914,32.8535071 35.2989039,32.8536013 C35.3324165,32.8536955 35.404619,32.877245 35.4595005,32.9058812 C35.5142879,32.9344232 35.5886556,32.9578785 35.624804,32.9578785 C35.6608582,32.9578785 35.690417,32.9735154 35.690417,32.9927318 C35.690417,33.011854 35.7216703,33.0274908 35.7599838,33.0274908 C35.7982972,33.0274908 35.8295505,33.0432219 35.8295505,33.0623441 C35.8295505,33.0814663 35.8467775,33.0971973 35.867864,33.0971973 C35.9176621,33.0971973 36.1428363,33.3224248 36.1428363,33.3722555 C36.1428363,33.3933559 36.1584629,33.4105941 36.1775726,33.4105941 C36.1978119,33.4105941 36.212403,33.5243853 36.212403,33.6822611 L36.212403,33.9539282 L36.0470996,34.1352593 C35.9561639,34.2349208 35.8544025,34.3164021 35.82089,34.3162137 C35.7873774,34.3161195 35.7599838,34.3316622 35.7599838,34.3507844 C35.7599838,34.3700008 35.7295777,34.3856376 35.6923939,34.3856376 C35.6553041,34.3856376 35.6152021,34.4012745 35.6033409,34.4204909 C35.5906325,34.4412144 35.3710124,34.45525 35.0618686,34.45525 C34.7385102,34.45525 34.5419536,34.4421564 34.5419536,34.4204909 C34.5419536,34.4012745 34.5106062,34.3856376 34.4723868,34.3856376 C34.4340733,34.3856376 34.4027259,34.3700008 34.4027259,34.3507844 C34.4027259,34.3316622 34.3714726,34.3160253 34.3331591,34.3160253 C34.2948456,34.3160253 34.2635924,34.3002942 34.2635924,34.281172 C34.2635924,34.2620498 34.244012,34.2463188 34.2200072,34.2463188 C34.1537353,34.2463188 33.8807399,33.9834122 33.8807399,33.9195459 C33.8807399,33.888649 33.8651132,33.8633097 33.8459094,33.8633097 C33.8267997,33.8633097 33.8111731,33.8172469 33.8111731,33.7609165 C33.8111731,33.7045861 33.7954523,33.6487267 33.7763426,33.6369519 C33.757233,33.625083 33.7415122,33.5536809 33.7415122,33.4781341 L33.7415122,33.3408876 L33.1325442,33.3408876 L32.523482,33.3408876 L32.523482,33.671711 C32.523482,33.8690558 32.5375083,34.0026285 32.5583124,34.0026285 C32.5774221,34.0026285 32.5931429,34.0496334 32.5931429,34.1070941 C32.5931429,34.1645549 32.6087695,34.2115597 32.6278792,34.2115597 C32.647083,34.2115597 32.6627097,34.2433986 32.6627097,34.2823024 C32.6627097,34.3212062 32.6862437,34.3619939 32.7149553,34.3730151 C32.7436669,34.3840363 32.7671069,34.4164404 32.7671069,34.4450766 C32.7671069,34.4736186 32.8140809,34.5408759 32.8715041,34.5945688 C32.9289272,34.6482617 32.9759013,34.7022371 32.9759013,34.7145771 C32.9759013,34.747358 33.1416754,34.9079656 33.1754703,34.9079656 C33.1912852,34.9079656 33.2267746,34.9393335 33.2543566,34.9776721 C33.2819385,35.0159165 33.3286302,35.0472844 33.358189,35.0472844 C33.3876537,35.0472844 33.4412172,35.0864708 33.4771773,35.1343234 C33.5130433,35.1822701 33.5715961,35.2214565 33.6071796,35.2214565 C33.6427632,35.2214565 33.6719454,35.2370934 33.6719454,35.2562156 C33.6719454,35.275432 33.7189195,35.2910688 33.7763426,35.2910688 C33.8337658,35.2910688 33.8807399,35.3067057 33.8807399,35.3259221 C33.8807399,35.3450443 33.9355272,35.3606812 34.0025523,35.3606812 C34.0695774,35.3606812 34.1243647,35.3764122 34.1243647,35.3955344 C34.1243647,35.4146566 34.186024,35.4303877 34.2615214,35.4303877 C34.3369246,35.4303877 34.4082799,35.4460245 34.4201411,35.4651467 C34.4332261,35.4863413 34.6873001,35.5 35.0660106,35.5 C35.4590299,35.5 35.690417,35.4870949 35.690417,35.4651467 C35.690417,35.4460245 35.7677971,35.4303877 35.86231,35.4303877 C35.956917,35.4303877 36.0439931,35.4146566 36.0557602,35.3955344 C36.0676213,35.3764122 36.1079117,35.3606812 36.1452838,35.3606812 C36.1827501,35.3606812 36.2405498,35.3463631 36.2737799,35.3288422 C36.3070101,35.3112272 36.3929566,35.2713814 36.4646885,35.2401077 C36.5365145,35.208834 36.5951614,35.168423 36.5951614,35.1501486 C36.5951614,35.1318742 36.6230258,35.1168967 36.6571031,35.1168967 C36.6911805,35.1168967 36.7416376,35.085623 36.7692195,35.0472844 C36.7968015,35.0089458 36.8321026,34.9776721 36.8476351,34.9776721 C36.8631676,34.9776721 36.9301927,34.9233198 36.9965588,34.8569102 C37.0629249,34.7905006 37.1172416,34.7234317 37.1172416,34.707889 C37.1172416,34.6923463 37.1484949,34.6570221 37.1868084,34.6294221 C37.2251219,34.601822 37.2564693,34.5513319 37.2564693,34.5172322 C37.2564693,34.4831326 37.2799092,34.45525 37.3086208,34.45525 C37.3373324,34.45525 37.3608665,34.4249182 37.3608665,34.38771 C37.3608665,34.3505018 37.3764931,34.3103734 37.3956028,34.2985987 C37.4148066,34.2867297 37.4304332,34.2397249 37.4304332,34.1941331 C37.4304332,34.1484471 37.4460599,34.1014423 37.4652637,34.0896675 C37.485503,34.077045 37.5,33.8803595 37.5,33.6174529 C37.5,33.3402282 37.4866326,33.1668097 37.4652637,33.1668097 C37.4460599,33.1668097 37.4304332,33.1198049 37.4304332,33.0623441 C37.4304332,33.0048833 37.4148066,32.9578785 37.3956028,32.9578785 C37.3764931,32.9578785 37.3608665,32.9287713 37.3608665,32.8930703 C37.3608665,32.8574634 37.3217058,32.7988723 37.2737904,32.7629828 C37.2259691,32.7269992 37.1868084,32.6756613 37.1868084,32.648909 C37.1868084,32.5995493 37.0184926,32.4356448 36.967659,32.4355506 C36.9524089,32.4355506 36.9036462,32.3963642 36.859308,32.3484174 C36.8148757,32.3005648 36.7530281,32.2613785 36.7216807,32.2613785 C36.6904274,32.2613785 36.6648223,32.2457416 36.6648223,32.2266194 C36.6648223,32.207403 36.6334749,32.1917661 36.5951614,32.1917661 C36.5569421,32.1917661 36.5255947,32.1760351 36.5255947,32.1569129 C36.5255947,32.1377907 36.4864339,32.1220596 36.4386127,32.1220596 C36.3907914,32.1220596 36.3516307,32.1064228 36.3516307,32.0873006 C36.3516307,32.0680842 36.3202833,32.0524473 36.2819698,32.0524473 C36.2437504,32.0524473 36.212403,32.0368104 36.212403,32.017594 C36.212403,31.9984718 36.1673117,31.982835 36.112242,31.982835 C36.0571722,31.982835 35.9925947,31.9592855 35.9687782,31.9305551 C35.9449617,31.9018247 35.8891388,31.8783694 35.8448006,31.8783694 C35.8003682,31.8783694 35.7544297,31.8626383 35.7425685,31.8435161 C35.7308015,31.8243939 35.659352,31.8086629 35.5839488,31.8086629 C35.5084514,31.8086629 35.4467921,31.793026 35.4467921,31.7739038 C35.4467921,31.7546874 35.3850387,31.7390505 35.3096355,31.7390505 C35.2342323,31.7390505 35.1627828,31.7234137 35.1510157,31.7041973 C35.1391545,31.6850751 35.0677051,31.6694382 34.9923018,31.6694382 C34.9168986,31.6694382 34.8551452,31.6537071 34.8551452,31.634585 C34.8551452,31.6154628 34.7925445,31.5997317 34.7159175,31.5997317 C34.6393847,31.5997317 34.576784,31.5840948 34.576784,31.5649726 C34.576784,31.5457562 34.5376233,31.5301194 34.4897079,31.5301194 C34.4418866,31.5301194 34.4027259,31.5139173 34.4027259,31.4942299 C34.4027259,31.4744484 34.3753322,31.4478845 34.3418197,31.4351678 C34.3084013,31.4225453 34.2639689,31.3956046 34.2431648,31.3753521 C34.2224548,31.3550995 34.1637137,31.3074353 34.1126918,31.2693793 C34.0616699,31.2313233 34.0199675,31.1725438 34.0199675,31.1388209 C34.0199675,31.1050038 34.0042467,31.0774038 33.9851371,31.0774038 C33.9655567,31.0774038 33.9503066,30.9794378 33.9503066,30.8531183 C33.9503066,30.7297189 33.9660274,30.6191305 33.9851371,30.6072615 C34.0042467,30.5953926 34.0199675,30.5553584 34.0199675,30.5181502 C34.0199675,30.480942 34.0337114,30.4506103 34.0505618,30.4506103 C34.0674122,30.4506103 34.1433803,30.3901351 34.2193483,30.3163781 C34.2954105,30.2425269 34.3990546,30.17169 34.4497941,30.1589732 C34.5004394,30.1462565 34.5419536,30.1204463 34.5419536,30.1017009 C34.5419536,30.0828613 34.6115203,30.067507 34.6965254,30.067507 C34.7815306,30.067507 34.8606992,30.0518701 34.8725604,30.0326537 C34.8844216,30.0135315 34.9470223,29.9978947 35.0117881,29.9978947 C35.0764597,29.9978947 35.1391545,30.0135315 35.1510157,30.0326537 C35.1627828,30.0518701 35.2420456,30.067507 35.3270507,30.067507 C35.4120558,30.067507 35.4816226,30.0796585 35.4816226,30.0944476 C35.4816226,30.1092367 35.5402695,30.1520968 35.6120956,30.1896818 C35.6838274,30.2272668 35.7678912,30.2857638 35.7988621,30.3194866 C35.8298329,30.3533037 35.865793,30.3809037 35.8787838,30.3809037 C35.9318767,30.3809037 36.0731754,30.5568656 36.0731754,30.6230868 C36.0731754,30.6622732 36.0888962,30.6943005 36.1080058,30.6943005 C36.1271155,30.6943005 36.1428363,30.7570364 36.1428363,30.8336193 C36.1428363,30.9102023 36.1584629,30.9729382 36.1775726,30.9729382 C36.1967764,30.9729382 36.212403,30.9967703 36.212403,31.0259717 C36.212403,31.0718461 36.2940193,31.0777806 36.8127105,31.0694911 L37.413018,31.0599771 L37.4235613,30.8371989 C37.4293977,30.7129517 37.417819,30.5981243 37.3973914,30.5776834 C37.3773403,30.5576192 37.3608665,30.4967673 37.3608665,30.4425092 C37.3608665,30.3870266 37.3379913,30.3351235 37.3086208,30.3239139 C37.2788737,30.3124218 37.2564693,30.2605187 37.2564693,30.2030579 C37.2564693,30.1476695 37.2407485,30.1023602 37.2216388,30.1023602 C37.2025291,30.1023602 37.1868084,30.0788107 37.1868084,30.0500804 C37.1868084,30.02135 37.1711817,29.9978947 37.1519779,29.9978947 C37.1328682,29.9978947 37.1172416,29.9729322 37.1172416,29.9425062 C37.1172416,29.8748721 36.6429827,29.4058602 36.5746397,29.4058602 C36.5476226,29.4058602 36.5255947,29.3902233 36.5255947,29.3710069 C36.5255947,29.3518848 36.4864339,29.3362479 36.4386127,29.3362479 C36.3907914,29.3362479 36.3516307,29.3205168 36.3516307,29.3013946 C36.3516307,29.2822724 36.3202833,29.2665414 36.2819698,29.2665414 C36.2437504,29.2665414 36.212403,29.2539188 36.212403,29.2384704 C36.212403,29.1893932 35.9504216,29.0924635 35.8178776,29.0924635 C35.747746,29.0924635 35.690417,29.0767324 35.690417,29.0576102 C35.690417,29.0356621 35.4525344,29.0227569 35.0465244,29.0227569 C34.6405143,29.0227569 34.4027259,29.0356621 34.4027259,29.0576102 M28.7649942,30.0326537 C28.7649942,30.0518701 28.8494345,30.067507 28.9527021,30.067507 C29.0874112,30.067507 29.1460581,30.0822019 29.1603668,30.1197869 C29.1713808,30.1485173 29.2044227,30.1719726 29.2336991,30.1719726 C29.2630696,30.1719726 29.2869802,30.1876094 29.2869802,30.2068258 C29.2869802,30.225948 29.3183276,30.2415849 29.3566411,30.2415849 C29.3948605,30.2415849 29.4262079,30.257316 29.4262079,30.2764382 C29.4262079,30.2955603 29.4425876,30.3112914 29.4626387,30.3112914 C29.5195911,30.3112914 29.6518527,30.4578635 29.7066401,30.5818281 C29.7340337,30.6437162 29.7682994,30.6943005 29.7827022,30.6943005 C29.7971992,30.6943005 29.8090604,30.7256684 29.8090604,30.764007 C29.8090604,30.8022514 29.824687,30.8336193 29.8437967,30.8336193 C29.8630005,30.8336193 29.8786272,30.8794938 29.8786272,30.9356358 C29.8786272,30.9916836 29.9021613,31.0611075 29.9308728,31.0898379 C29.9666447,31.1256331 29.9830244,31.2138967 29.9830244,31.3709247 L29.9830244,31.5997317 L28.660597,31.5997317 L27.3381696,31.5997317 L27.3381696,31.4430804 C27.3381696,31.3568892 27.3537962,31.2863349 27.373,31.2863349 C27.3921097,31.2863349 27.4077363,31.2402721 27.4077363,31.1839417 C27.4077363,31.1276113 27.4234571,31.0718461 27.4425668,31.0599771 C27.4616765,31.0481082 27.4773972,31.008074 27.4773972,30.9708658 C27.4773972,30.9336576 27.4930239,30.9032317 27.5121335,30.9032317 C27.5313374,30.9032317 27.546964,30.879117 27.546964,30.8495388 C27.546964,30.8199606 27.5861247,30.753551 27.633946,30.7018363 C27.6818614,30.6502158 27.7210221,30.5956752 27.7210221,30.5806035 C27.7210221,30.530396 28.0314838,30.2415849 28.085518,30.2415849 C28.1147003,30.2415849 28.1386109,30.2276436 28.1386109,30.2105937 C28.1386109,30.1935439 28.1777717,30.1697118 28.2255929,30.1576545 C28.2734142,30.1456913 28.3125749,30.1204463 28.3125749,30.1017009 C28.3125749,30.0828613 28.3752697,30.067507 28.4518026,30.067507 C28.5283354,30.067507 28.5910302,30.0518701 28.5910302,30.0326537 C28.5910302,30.0135315 28.6301909,29.9978947 28.6780122,29.9978947 C28.7258335,29.9978947 28.7649942,30.0135315 28.7649942,30.0326537 M12.5825795,32.9927318 C12.5825795,33.2225749 12.5693063,33.4105941 12.5531148,33.4105941 C12.5368293,33.4105941 12.4953151,33.4732358 12.4607671,33.5499129 C12.4263132,33.6264959 12.3847049,33.6891376 12.3685135,33.6891376 C12.352322,33.6891376 12.3390488,33.7052455 12.3390488,33.7249328 C12.3390488,33.7775895 12.0353649,34.0722409 11.9810483,34.0722409 C11.9554432,34.0722409 11.9041389,34.1004061 11.8670491,34.1348825 C11.8299594,34.1694532 11.7721597,34.2080744 11.7386472,34.2208853 C11.7052288,34.2336962 11.6777409,34.2603543 11.6777409,34.2800417 C11.6777409,34.2998232 11.6229536,34.3160253 11.5560227,34.3160253 C11.4889976,34.3160253 11.4342102,34.3316622 11.4342102,34.3507844 C11.4342102,34.3700008 11.3558888,34.3856376 11.2601521,34.3856376 C11.1645096,34.3856376 11.0861881,34.4012745 11.0861881,34.4204909 C11.0861881,34.4398015 10.9933697,34.45525 10.8773937,34.45525 C10.7613236,34.45525 10.6685993,34.4398015 10.6685993,34.4204909 C10.6685993,34.4012745 10.6216253,34.3856376 10.5642021,34.3856376 C10.5067789,34.3856376 10.4597108,34.3700008 10.4597108,34.3507844 C10.4597108,34.3316622 10.4284575,34.3160253 10.390144,34.3160253 C10.3518305,34.3160253 10.3205772,34.3002942 10.3205772,34.281172 C10.3205772,34.2620498 10.3037268,34.2463188 10.2832992,34.2463188 C10.2388669,34.2463188 10.1465191,34.1591856 10.1465191,34.1172675 C10.1465191,34.1009713 10.1152659,34.0649876 10.0769524,34.0373876 C10.0360972,34.0079036 10.0073856,33.9472401 10.0073856,33.8904387 C10.0073856,33.8372169 9.99166483,33.7936032 9.97255515,33.7936032 C9.95344547,33.7936032 9.9377247,33.7319035 9.9377247,33.6563567 C9.9377247,33.5809041 9.95344547,33.509502 9.97255515,33.4976331 C9.99166483,33.4857641 10.0073856,33.4256658 10.0073856,33.3639661 C10.0073856,33.2918104 10.0321435,33.2339728 10.0769524,33.2016629 C10.1152659,33.1740629 10.1465191,33.1235728 10.1465191,33.0894731 C10.1465191,33.0553734 10.1605454,33.0274908 10.1776783,33.0274908 C10.1948111,33.0274908 10.2457388,32.988587 10.2908301,32.9410171 C10.3358273,32.8935413 10.3888261,32.8543549 10.4085947,32.8539781 C10.4282692,32.8536955 10.4669592,32.822045 10.4945412,32.7838006 C10.5221231,32.745462 10.5803935,32.7140941 10.6240728,32.7140941 C10.6676579,32.7140941 10.7033356,32.6984572 10.7033356,32.6792408 C10.7033356,32.6601186 10.7660304,32.6444817 10.8425633,32.6444817 C10.9190961,32.6444817 10.9817909,32.6287507 10.9817909,32.6096285 C10.9817909,32.5873978 11.2717309,32.5747752 11.7822323,32.5747752 L12.5825795,32.5747752 L12.5825795,32.9927318" id="Games"></path>
                    </g>
                </g>
            </g>
        </g>
    </g>
</svg>