<?xml version="1.0" encoding="UTF-8"?>
<svg width="38px" height="36px" viewBox="0 0 38 36" version="1.1" xmlns="http://www.w3.org/2000/svg" xmlns:xlink="http://www.w3.org/1999/xlink">
    <!-- Generator: Sketch 52.6 (67491) - http://www.bohemiancoding.com/sketch -->
    <title>Nav_bottom / Icon_with_text / Games / Inactive</title>
    <desc>Created with Sketch.</desc>
    <defs>
        <path d="M14.9229974,0.524258953 C14.8798829,0.53356163 14.8446759,0.556140003 14.8446759,0.574454649 C14.8446759,0.592769295 14.8238718,0.607789243 14.7985491,0.607789243 C14.742538,0.607789243 14.6010511,0.757019692 14.6010511,0.816130454 C14.6010511,0.83948405 14.5854244,0.858573919 14.5662206,0.858573919 C14.547111,0.858573919 14.5314843,0.906928461 14.5314843,0.966039223 C14.5314843,1.02514998 14.5157636,1.07350453 14.4966539,1.07350453 C14.4749084,1.07350453 14.4618234,1.29444311 14.4618234,1.66461215 L14.4618234,2.25571977 L13.557079,2.25571977 C12.9770108,2.25571977 12.6522404,2.26851095 12.6522404,2.29147693 C12.6522404,2.31124512 12.5661057,2.327331 12.4607671,2.327331 C12.3555227,2.327331 12.2693879,2.34341688 12.2693879,2.36318507 C12.2693879,2.38285636 12.2233552,2.39894224 12.1670617,2.39894224 C12.1107681,2.39894224 12.0550394,2.41512502 12.0431783,2.43479631 C12.0314112,2.45446759 11.9765297,2.47065038 11.9213658,2.47065038 C11.8662019,2.47065038 11.8114146,2.48673626 11.7995534,2.50640754 C11.7877863,2.52617573 11.7398709,2.54226161 11.6931793,2.54226161 C11.6408395,2.54226161 11.6081742,2.56290193 11.6081742,2.59604271 C11.6081742,2.63160607 11.5736261,2.64972691 11.505848,2.64972691 C11.4495544,2.64972691 11.3938257,2.6659097 11.3819645,2.68558098 C11.3701034,2.70525227 11.3300954,2.72143505 11.2929116,2.72143505 C11.2557277,2.72143505 11.2254158,2.73752093 11.2254158,2.75719222 C11.2254158,2.77696041 11.1940684,2.79304629 11.1557549,2.79304629 C11.1175355,2.79304629 11.0861881,2.80913217 11.0861881,2.82890036 C11.0861881,2.84857164 11.0626541,2.86465752 11.0339425,2.86465752 C11.0052309,2.86465752 10.9817909,2.8808403 10.9817909,2.90051159 C10.9817909,2.92018288 10.9504435,2.93636566 10.91213,2.93636566 C10.8739107,2.93636566 10.8425633,2.95245154 10.8425633,2.97212283 C10.8425633,2.99189101 10.8185585,3.00797689 10.7892821,3.00797689 C10.7600057,3.00797689 10.7269638,3.03220262 10.7159499,3.061758 C10.7049359,3.09131338 10.6740592,3.1154422 10.6474186,3.1154422 C10.620778,3.1154422 10.5989384,3.13152808 10.5989384,3.15129627 C10.5989384,3.17096755 10.5773812,3.18705343 10.5509289,3.18705343 C10.5245707,3.18705343 10.4384359,3.25159076 10.3595497,3.3303728 C10.2806634,3.40915485 10.2020596,3.47369218 10.1850209,3.47369218 C10.1679822,3.47369218 10.1450129,3.497821 10.133999,3.52737638 C10.122985,3.55693176 10.0938969,3.58154509 10.0693273,3.5819327 C10.0448519,3.58232032 9.97773265,3.64104347 9.92030948,3.71226709 C9.86288631,3.78358762 9.78851859,3.87186615 9.75500605,3.90859234 C9.72158765,3.94522163 9.69409984,3.98485492 9.69409984,3.99667707 C9.69409984,4.00849922 9.6471258,4.06324935 9.58970263,4.118484 C9.53227946,4.17371865 9.48530542,4.24116306 9.48530542,4.26829586 C9.48530542,4.29542867 9.45405215,4.34087613 9.41573866,4.36926868 C9.37742516,4.39766122 9.3461719,4.43458122 9.3461719,4.45134542 C9.3461719,4.46810962 9.32659154,4.5043513 9.30258677,4.53177482 C9.1944241,4.65600432 9.17211379,4.692246 9.17211379,4.74389524 C9.17211379,4.77432275 9.15648716,4.79912989 9.13728334,4.79912989 C9.11817366,4.79912989 9.10254703,4.8228711 9.10254703,4.85184506 C9.10254703,4.88072212 9.07119963,4.96182984 9.03288613,5.03198753 C8.99466678,5.10214522 8.96331937,5.18325294 8.96331937,5.2122269 C8.96331937,5.24120087 8.94769274,5.26484517 8.92848892,5.26484517 C8.90937924,5.26484517 8.89375261,5.30341252 8.89375261,5.35060423 C8.89375261,5.39769903 8.87021852,5.44556906 8.84150694,5.4569067 C8.81279535,5.46824434 8.7893554,5.51834313 8.7893554,5.56824812 C8.7893554,5.6181531 8.77363463,5.65894922 8.75452495,5.65894922 C8.73541527,5.65894922 8.7196945,5.70633473 8.7196945,5.76428266 C8.7196945,5.82223059 8.70406787,5.8795971 8.68486406,5.89180686 C8.66575438,5.90391972 8.65012774,5.97746902 8.65012774,6.05508823 C8.65012774,6.13270744 8.63440697,6.19627574 8.6152973,6.19627574 C8.59618762,6.19627574 8.58046685,6.268856 8.58046685,6.35752215 C8.58046685,6.44618829 8.56484021,6.51867165 8.54573053,6.51867165 C8.52266713,6.51867165 8.51090009,8.17852123 8.51090009,11.4265123 C8.51090009,14.6745033 8.52266713,16.3343529 8.54573053,16.3343529 C8.56531089,16.3343529 8.58046685,16.4359071 8.58046685,16.5672105 C8.58046685,16.6986108 8.59571693,16.8000681 8.6152973,16.8000681 C8.63440697,16.8000681 8.65012774,16.8726484 8.65012774,16.9613146 C8.65012774,17.0499807 8.66575438,17.1224641 8.68486406,17.1224641 C8.70406787,17.1224641 8.7196945,17.1698496 8.7196945,17.2277975 C8.7196945,17.2857454 8.73541527,17.3431119 8.75452495,17.3553217 C8.77363463,17.3675315 8.7893554,17.4076493 8.7893554,17.4444724 C8.7893554,17.4812955 8.81279535,17.5355611 8.84150694,17.5651165 C8.87021852,17.5946718 8.89375261,17.6433171 8.89375261,17.6730663 C8.89375261,17.7029124 8.90937924,17.737216 8.92848892,17.7494257 C8.94769274,17.7615386 8.96331937,17.8028192 8.96331937,17.8410959 C8.96331937,17.8792756 8.97894601,17.9105752 8.99814982,17.9105752 C9.0172595,17.9105752 9.03288613,17.9428439 9.03288613,17.9822834 C9.03288613,18.021626 9.0486069,18.0538946 9.06771658,18.0538946 C9.08682626,18.0538946 9.10254703,18.0765699 9.10254703,18.1042841 C9.10254703,18.1887834 9.251659,18.4479987 9.30042163,18.4479987 C9.32555604,18.4479987 9.3461719,18.4801704 9.3461719,18.5196099 C9.3461719,18.5590494 9.36179853,18.5912211 9.38090821,18.5912211 C9.40011202,18.5912211 9.41573866,18.6118615 9.41573866,18.6370562 C9.41573866,18.662251 9.44708606,18.706148 9.48530542,18.7345405 C9.52361891,18.7629331 9.55496632,18.8075084 9.55496632,18.8336722 C9.55496632,18.8898758 9.70991474,19.0569364 9.76216042,19.0569364 C9.78221146,19.0569364 9.79849705,19.0734099 9.79849705,19.0935657 C9.79849705,19.1312609 10.1643109,19.5226517 10.199612,19.5226517 C10.2104377,19.5226517 10.2576,19.5588934 10.3043858,19.6032749 C10.3510774,19.6475595 10.4281751,19.7201398 10.4755257,19.7645213 C10.5228762,19.8088059 10.5900896,19.8450476 10.6248259,19.8450476 C10.6595622,19.8450476 10.7105841,19.8773163 10.7381661,19.9167558 C10.765748,19.9560983 10.8145106,19.988367 10.846517,19.988367 C10.8785234,19.988367 10.9137304,20.0125927 10.9247443,20.0421481 C10.9357583,20.0717035 10.9674822,20.0958323 10.9951583,20.0958323 C11.0229285,20.0958323 11.0507929,20.1079452 11.0571941,20.1226744 C11.0764921,20.1673466 11.366432,20.3107629 11.437505,20.3107629 C11.4739358,20.3107629 11.503777,20.3269457 11.503777,20.346617 C11.503777,20.3662883 11.5429377,20.382471 11.590759,20.382471 C11.6386744,20.382471 11.6777409,20.3985569 11.6777409,20.4182282 C11.6777409,20.4379964 11.7234912,20.4540823 11.7793141,20.4540823 C11.8351369,20.4540823 11.8863471,20.4712341 11.8931249,20.492262 C11.8999027,20.513193 11.9717288,20.5394537 12.052686,20.5506945 C12.1335491,20.5618383 12.1998211,20.5849981 12.1998211,20.602053 C12.1998211,20.6192048 12.2702351,20.6331588 12.3563699,20.6331588 C12.4425046,20.6331588 12.5130128,20.6493416 12.5130128,20.6690129 C12.5130128,20.6897501 12.6232464,20.7048669 12.7740529,20.7048669 C12.9248593,20.7048669 13.0349988,20.7199838 13.0349988,20.7406241 C13.0349988,20.7644622 15.1114584,20.7764782 19.1948107,20.7764782 C23.2780689,20.7764782 25.3545285,20.7644622 25.3545285,20.7406241 C25.3545285,20.7199838 25.464009,20.7048669 25.6134975,20.7048669 C25.7559258,20.7048669 25.8820685,20.6886842 25.8939297,20.6690129 C25.9057909,20.6493416 25.9771463,20.6331588 26.0526436,20.6331588 C26.1280468,20.6331588 26.1897061,20.6192048 26.1897061,20.602053 C26.1897061,20.5849981 26.2559781,20.5618383 26.3369354,20.5506945 C26.4177985,20.5394537 26.4896245,20.513193 26.4964024,20.492262 C26.5031802,20.4712341 26.5543903,20.4540823 26.6102132,20.4540823 C26.6661302,20.4540823 26.7117863,20.4379964 26.7117863,20.4182282 C26.7117863,20.3985569 26.750947,20.382471 26.7987683,20.382471 C26.8465896,20.382471 26.8857503,20.3662883 26.8857503,20.346617 C26.8857503,20.3269457 26.9170977,20.3107629 26.9554112,20.3107629 C26.9936305,20.3107629 27.0249779,20.294677 27.0249779,20.2750057 C27.0249779,20.2552375 27.0563253,20.2391517 27.0945447,20.2391517 C27.1328582,20.2391517 27.1642056,20.2229689 27.1642056,20.2032976 C27.1642056,20.1836263 27.2033663,20.1674435 27.2511876,20.1674435 C27.2990088,20.1674435 27.3381696,20.1513576 27.3381696,20.1316864 C27.3381696,20.1119182 27.3621743,20.0958323 27.3914507,20.0958323 C27.4208213,20.0958323 27.453769,20.0717035 27.464783,20.0421481 C27.4757969,20.0125927 27.5144869,19.988367 27.5507294,19.988367 C27.5869719,19.988367 27.6166249,19.9722811 27.6166249,19.9525129 C27.6166249,19.9328416 27.6400648,19.9167558 27.6687764,19.9167558 C27.697488,19.9167558 27.7210221,19.900573 27.7210221,19.8809017 C27.7210221,19.8612304 27.7450269,19.8450476 27.7743033,19.8450476 C27.8036738,19.8450476 27.881148,19.7927201 27.9464786,19.7286672 C28.0986971,19.5793399 28.1656281,19.5226517 28.189727,19.5226517 C28.2188151,19.5226517 28.7649942,18.9526689 28.7650883,18.9222414 C28.7651825,18.907706 28.8120624,18.8392925 28.8693914,18.7703946 C28.9267204,18.7013997 28.9736945,18.6270752 28.9736945,18.6052721 C28.9737886,18.583372 29.0129493,18.5352113 29.0608647,18.4981944 C29.108686,18.4611775 29.1478467,18.4025512 29.1478467,18.3677631 C29.1478467,18.3330718 29.1634733,18.3046793 29.182583,18.3046793 C29.2017868,18.3046793 29.2174135,18.2804536 29.2174135,18.2508982 C29.2174135,18.2213428 29.2330401,18.197214 29.2522439,18.197214 C29.2713536,18.197214 29.2869802,18.1649453 29.2869802,18.1255059 C29.2869802,18.0861633 29.302701,18.0538946 29.3218107,18.0538946 C29.3409204,18.0538946 29.3566411,18.021626 29.3566411,17.9822834 C29.3566411,17.9428439 29.3722678,17.9105752 29.3914716,17.9105752 C29.4105813,17.9105752 29.4262079,17.8772407 29.4262079,17.8364445 C29.4262079,17.7955515 29.449742,17.7379912 29.4784536,17.7084358 C29.5071651,17.6788804 29.5306051,17.6236458 29.5306051,17.5856599 C29.5306051,17.5476739 29.5463259,17.5165681 29.5654355,17.5165681 C29.5845452,17.5165681 29.600266,17.4690857 29.600266,17.4111378 C29.600266,17.3532867 29.6158926,17.2958233 29.6350023,17.2837105 C29.6542061,17.2715007 29.6698328,17.2141342 29.6698328,17.1561863 C29.6698328,17.0982383 29.6854594,17.0508528 29.7046632,17.0508528 C29.7237729,17.0508528 29.7393995,16.9782726 29.7393995,16.8896064 C29.7393995,16.8009403 29.7551203,16.7284569 29.77423,16.7284569 C29.7939045,16.7284569 29.8090604,16.6269027 29.8090604,16.4955993 C29.8090604,16.364199 29.8242164,16.2627416 29.8437967,16.2627416 C29.8668601,16.2627416 29.8786272,14.6267302 29.8786272,11.4265123 C29.8786272,8.22629436 29.8668601,6.59037979 29.8437967,6.59037979 C29.824687,6.59037979 29.8090604,6.51072561 29.8090604,6.41333821 C29.8090604,6.31595081 29.7933396,6.22641254 29.77423,6.21420277 C29.7551203,6.20199301 29.7393995,6.13755259 29.7393995,6.0708834 C29.7393995,6.00421421 29.7237729,5.93977379 29.7046632,5.92756403 C29.6854594,5.91545117 29.6698328,5.85895678 29.6698328,5.80217169 C29.6698328,5.7454835 29.6542061,5.68898912 29.6350023,5.67687626 C29.6158926,5.66466649 29.600266,5.62881242 29.600266,5.59722208 C29.600266,5.51834313 29.4889968,5.26484517 29.4543547,5.26484517 C29.4389163,5.26484517 29.4262079,5.23257651 29.4262079,5.19323394 C29.4262079,5.15379446 29.4105813,5.1215258 29.3914716,5.1215258 C29.3722678,5.1215258 29.3566411,5.0813111 29.3566411,5.03198753 C29.3566411,4.98276086 29.3409204,4.94244926 29.3218107,4.94244926 C29.302701,4.94244926 29.2869802,4.9101806 29.2869802,4.87083803 C29.2869802,4.83139855 29.2713536,4.79912989 29.2522439,4.79912989 C29.2330401,4.79912989 29.2174135,4.76695813 29.2174135,4.72751865 C29.2174135,4.68807918 29.2017868,4.65590742 29.182583,4.65590742 C29.1634733,4.65590742 29.1478467,4.63400737 29.1478467,4.60735907 C29.1478467,4.58071078 29.108686,4.51539823 29.0608647,4.46219855 C29.0129493,4.40909576 28.9737886,4.35027571 28.9737886,4.33167035 C28.9737886,4.3129681 28.9111879,4.23127896 28.8346551,4.15007434 C28.7580281,4.06886972 28.6954274,3.98640536 28.6954274,3.96683098 C28.6954274,3.92022069 28.1696759,3.40208094 28.1223253,3.40208094 C28.1117821,3.40208094 28.0539824,3.3536295 27.9939234,3.29451874 C27.9338644,3.23550488 27.8635445,3.18705343 27.837657,3.18705343 C27.8117695,3.18705343 27.7905889,3.17096755 27.7905889,3.15129627 C27.7905889,3.13152808 27.7687492,3.1154422 27.7421086,3.1154422 C27.715468,3.1154422 27.6845913,3.09131338 27.6735774,3.061758 C27.6625634,3.03220262 27.6296157,3.00797689 27.6002452,3.00797689 C27.5709688,3.00797689 27.546964,2.99189101 27.546964,2.97212283 C27.546964,2.95245154 27.5156166,2.93636566 27.4773972,2.93636566 C27.4390837,2.93636566 27.4077363,2.92018288 27.4077363,2.90051159 C27.4077363,2.8808403 27.3764831,2.86465752 27.3381696,2.86465752 C27.2998561,2.86465752 27.2686028,2.84857164 27.2686028,2.82890036 C27.2686028,2.80913217 27.2294421,2.79304629 27.1815267,2.79304629 C27.1337054,2.79304629 27.0945447,2.77696041 27.0945447,2.75719222 C27.0945447,2.73752093 27.0632914,2.72143505 27.0249779,2.72143505 C26.9866644,2.72143505 26.9554112,2.70525227 26.9554112,2.68558098 C26.9554112,2.6659097 26.9005297,2.64972691 26.8335987,2.64972691 C26.7589486,2.64972691 26.7117863,2.63228439 26.7117863,2.60476397 C26.7117863,2.55476208 26.4829409,2.47065038 26.3469138,2.47065038 C26.298716,2.47065038 26.259367,2.45446759 26.259367,2.43479631 C26.259367,2.41512502 26.1976136,2.39894224 26.1222104,2.39894224 C26.0468072,2.39894224 25.9753577,2.38285636 25.9634965,2.36318507 C25.9517294,2.34341688 25.8333059,2.327331 25.7004795,2.327331 C25.5626639,2.327331 25.4589257,2.31192344 25.4589257,2.29147693 C25.4589257,2.26880166 25.1988269,2.25571977 24.7483845,2.25571977 L24.0377492,2.25571977 L24.0262646,1.80182664 C24.0180747,1.47943073 24.0020716,1.34376668 23.9711948,1.33320427 C23.9451191,1.3242892 23.9277038,1.25480983 23.9277038,1.16003881 C23.9277038,1.07302001 23.9120772,1.00189329 23.8928734,1.00189329 C23.8737637,1.00189329 23.8580429,0.961775496 23.8580429,0.912742634 C23.8580429,0.863709772 23.8306493,0.789191451 23.7972309,0.747135597 C23.6073578,0.508754491 23.5203759,0.485400895 22.8980405,0.505750501 L22.4925952,0.519026197 L22.39234,0.642674283 C22.3371761,0.710700111 22.2920848,0.787059587 22.2920848,0.812448144 C22.2920848,0.837836701 22.276364,0.858573919 22.2572544,0.858573919 C22.2381447,0.858573919 22.2224239,0.90557182 22.2224239,0.963035233 C22.2224239,1.02049865 22.2028435,1.07418285 22.1789329,1.08241959 C22.147209,1.09327272 22.1324296,1.25335629 22.1243338,1.6764343 L22.1132257,2.25571977 L19.2271936,2.25571977 L16.3410673,2.25571977 L16.3410673,1.70250118 C16.3410673,1.37244994 16.327041,1.14046442 16.306331,1.12728563 C16.2871272,1.11507587 16.2715006,1.06749655 16.2715006,1.02146768 C16.2715006,0.975535706 16.2479665,0.928634708 16.2192549,0.91729707 C16.1905433,0.905959432 16.1671034,0.871946518 16.1671034,0.841809719 C16.1671034,0.811576018 16.1541125,0.786865782 16.1382035,0.786865782 C16.1222945,0.786865782 16.0883112,0.746651083 16.0627061,0.697327512 C16.0371011,0.648100845 15.9888091,0.607789243 15.9552966,0.607789243 C15.9218782,0.607789243 15.8879891,0.587633442 15.8800816,0.563020109 C15.8653964,0.51776646 15.0973379,0.486563729 14.9229974,0.524258953 M14.4618234,4.61792149 C14.4618234,4.86444244 14.4766028,5.05505042 14.4966539,5.0678416 C14.5157636,5.08005136 14.5314843,5.12927803 14.5314843,5.17743877 C14.5314843,5.2255026 14.547111,5.26484517 14.5662206,5.26484517 C14.5854244,5.26484517 14.6010511,5.2891678 14.6010511,5.31891698 C14.6010511,5.39847426 14.7764271,5.58724108 14.8504183,5.58724108 C14.8855311,5.58724108 14.9142427,5.60342387 14.9142427,5.62309515 C14.9142427,5.64276644 14.9603695,5.65894922 15.0165689,5.65894922 C15.0728625,5.65894922 15.1286853,5.6750351 15.1404524,5.69470639 C15.1523135,5.71447458 15.2706429,5.73056046 15.4035634,5.73056046 C15.5413791,5.73056046 15.6451173,5.7151529 15.6451173,5.69470639 C15.6451173,5.6750351 15.6927503,5.65894922 15.7511148,5.65894922 C15.8177634,5.65894922 15.889307,5.62571153 15.9440944,5.56941095 C15.9919156,5.52008738 16.046044,5.47977578 16.0643065,5.47977578 C16.0825689,5.47977578 16.0975366,5.44760402 16.0975366,5.40816455 C16.0975366,5.36872507 16.1131632,5.33655331 16.1322729,5.33655331 C16.1514767,5.33655331 16.1671034,5.31184307 16.1671034,5.28160937 C16.1671034,5.25147257 16.1905433,5.21755656 16.2192549,5.20621892 C16.2515437,5.19342774 16.2715006,5.13896832 16.2715006,5.06396548 C16.2715006,4.99710249 16.2871272,4.94244926 16.306331,4.94244926 C16.3273234,4.94244926 16.3410673,4.79321881 16.3410673,4.56627225 L16.3410673,4.19019214 L19.2267229,4.19019214 L22.1123785,4.19019214 L22.1238631,4.64398836 C22.1321471,4.96638428 22.1480562,5.10214522 22.1789329,5.11270764 C22.2028435,5.12084748 22.2224239,5.17104318 22.2224239,5.22414596 C22.2224239,5.27957441 22.2520769,5.34265819 22.2920848,5.37231048 C22.3303042,5.40070302 22.3616516,5.43771993 22.3616516,5.45448413 C22.3616516,5.53588255 22.5707284,5.65894922 22.709203,5.65894922 C22.7669085,5.65894922 22.8140708,5.6750351 22.8140708,5.69470639 C22.8140708,5.74180119 23.2904008,5.74180119 23.3186417,5.69470639 C23.3305029,5.6750351 23.3862316,5.65894922 23.4425251,5.65894922 C23.4988186,5.65894922 23.5448513,5.64276644 23.5448513,5.62309515 C23.5448513,5.60342387 23.5617017,5.58724108 23.5821293,5.58724108 C23.6266558,5.58724108 23.7189094,5.49760591 23.7189094,5.45448413 C23.7189094,5.43771993 23.7501627,5.40070302 23.7884762,5.37231048 C23.8267897,5.34391793 23.8580429,5.29197798 23.8580429,5.25699604 C23.8580429,5.22191719 23.8737637,5.19323394 23.8928734,5.19323394 C23.9120772,5.19323394 23.9277038,5.12763068 23.9277038,5.04739509 C23.9277038,4.96551215 23.950579,4.87791194 23.9798554,4.84777514 C24.0180747,4.80852947 24.032101,4.71269251 24.032101,4.49214154 L24.032101,4.19019214 L24.621677,4.19019214 C24.9771358,4.19019214 25.2197252,4.20433996 25.232716,4.2259493 C25.2445772,4.24571749 25.34728,4.26180337 25.4609967,4.26180337 C25.5756547,4.26180337 25.6677201,4.27779235 25.6677201,4.29765744 C25.6677201,4.31732873 25.7068808,4.33341461 25.7547021,4.33341461 C25.8026175,4.33341461 25.8417782,4.34959739 25.8417782,4.36926868 C25.8417782,4.38893996 25.8887522,4.40512274 25.9461754,4.40512274 C26.0035986,4.40512274 26.0505726,4.42120862 26.0505726,4.44087991 C26.0505726,4.4606481 26.0799431,4.47673398 26.1159032,4.47673398 C26.1518633,4.47673398 26.2007201,4.5009597 26.2245366,4.53051508 C26.2483531,4.56007046 26.2894907,4.58419928 26.3158488,4.58419928 C26.342207,4.58419928 26.3637642,4.60038206 26.3637642,4.62005335 C26.3637642,4.63972464 26.3951116,4.65590742 26.433331,4.65590742 C26.4716445,4.65590742 26.5029919,4.66802028 26.5029919,4.68294333 C26.5029919,4.69786637 26.5468594,4.73003813 26.6005172,4.75445766 C26.6541749,4.77887719 26.7738222,4.87151635 26.8663582,4.96027939 C26.9588942,5.04894554 27.0481355,5.1215258 27.0646093,5.1215258 C27.0810832,5.1215258 27.0945447,5.14187541 27.0945447,5.16668255 C27.0945447,5.19148969 27.1490496,5.26000003 27.215604,5.31891698 C27.2821584,5.37783394 27.3370399,5.44624738 27.3374165,5.47086071 C27.337793,5.49547405 27.3537962,5.51562985 27.373,5.51562985 C27.3921097,5.51562985 27.4077363,5.5443131 27.4077363,5.57939195 C27.4077363,5.6144708 27.4390837,5.66631384 27.4773972,5.69470639 C27.5156166,5.72319584 27.546964,5.77503888 27.546964,5.81011773 C27.546964,5.84519657 27.5626848,5.87387983 27.5817944,5.87387983 C27.6009041,5.87387983 27.6166249,5.906633 27.6166249,5.9466539 C27.6166249,5.98667479 27.6400648,6.02873064 27.6687764,6.04006828 C27.697488,6.05140592 27.7210221,6.0911361 27.7210221,6.12844372 C27.7210221,6.16575133 27.7366487,6.19627574 27.7557584,6.19627574 C27.7749622,6.19627574 27.7905889,6.24366125 27.7905889,6.30160918 C27.7905889,6.35955711 27.8062155,6.41692362 27.8254193,6.42913338 C27.844529,6.44134314 27.8601556,6.51479553 27.8601556,6.59241475 C27.8601556,6.67013087 27.8758764,6.73360226 27.8949861,6.73360226 C27.9151312,6.73360226 27.9298165,6.84707554 27.9298165,7.00231397 C27.9298165,7.1575524 27.9445018,7.27102568 27.9645528,7.27102568 C27.9848863,7.27102568 27.9993833,7.39041004 27.9993833,7.55756752 L27.9993833,7.84420626 L19.1948107,7.84420626 L10.390144,7.84420626 L10.390144,7.48595629 C10.390144,7.27102568 10.4040762,7.12770631 10.4249744,7.12770631 C10.4445548,7.12770631 10.4597108,7.02615208 10.4597108,6.89484866 C10.4597108,6.76344835 10.4749608,6.66199102 10.4945412,6.66199102 C10.5136509,6.66199102 10.5293716,6.60559354 10.5293716,6.53659868 C10.5293716,6.46760383 10.5449983,6.41120635 10.5642021,6.41120635 C10.5833118,6.41120635 10.5989384,6.3628518 10.5989384,6.30374104 C10.5989384,6.24463028 10.6130589,6.19627574 10.6302858,6.19627574 C10.6475128,6.19627574 10.6906272,6.12379238 10.7260225,6.03522314 C10.7614177,5.9466539 10.8020846,5.87407363 10.8164875,5.87397673 C10.8307962,5.87387983 10.8425633,5.84161117 10.8425633,5.80217169 C10.8425633,5.76282912 10.8581899,5.73056046 10.8773937,5.73056046 C10.8965034,5.73056046 10.91213,5.70943563 10.91213,5.68356255 C10.91213,5.65778639 10.9434774,5.60197032 10.9817909,5.55972066 C11.0200103,5.5173741 11.0513577,5.47347709 11.0513577,5.46213945 C11.0513577,5.40545126 11.5782388,4.87083803 11.6340617,4.87083803 C11.6496883,4.87083803 11.6849894,4.83856937 11.7125714,4.79912989 C11.7401533,4.75978732 11.7906104,4.72751865 11.8246878,4.72751865 C11.8587651,4.72751865 11.8866295,4.71143278 11.8866295,4.69166459 C11.8866295,4.6719933 11.9078102,4.65590742 11.9336977,4.65590742 C11.9595852,4.65590742 12.0230331,4.61559582 12.0747139,4.56627225 C12.1263006,4.51704558 12.1981267,4.47673398 12.2343692,4.47673398 C12.2705175,4.47673398 12.3097724,4.4606481 12.3216336,4.44087991 C12.3334006,4.42120862 12.3735027,4.40512274 12.4106866,4.40512274 C12.4477763,4.40512274 12.4781823,4.38893996 12.4781823,4.36926868 C12.4781823,4.34959739 12.5330638,4.33341461 12.5999947,4.33341461 C12.6670198,4.33341461 12.7218072,4.31732873 12.7218072,4.29765744 C12.7218072,4.27788925 12.8070006,4.26180337 12.9112095,4.26180337 C13.0153243,4.26180337 13.1102137,4.24571749 13.1219808,4.2259493 C13.1351599,4.20414615 13.4008127,4.19019214 13.8026807,4.19019214 L14.4618234,4.19019214 L14.4618234,4.61792149 M18.2203112,14.3121834 L18.2203112,18.845785 L17.724401,18.8244664 C17.451688,18.8126442 16.2458013,18.7954924 15.0448098,18.7861898 C13.6450023,18.7753366 12.8610348,18.7566344 12.8610348,18.734056 C12.8610348,18.7145785 12.8230979,18.6986864 12.7768769,18.6986864 C12.7305619,18.6986864 12.6482867,18.6759143 12.5941583,18.6480062 C12.4783706,18.5885079 12.2293799,18.4739686 12.069254,18.4064273 C12.007124,18.3802636 11.9561963,18.3466382 11.9561963,18.3317152 C11.9561963,18.3168891 11.9320032,18.3046793 11.9024444,18.3046793 C11.8727915,18.3046793 11.8094377,18.2643677 11.7616164,18.215141 C11.7137952,18.1658175 11.6593844,18.1255059 11.6406512,18.1255059 C11.5935831,18.1255059 11.0513577,17.5600775 11.0513577,17.5110446 C11.0513577,17.4891446 11.0227402,17.4451507 10.9878157,17.4132696 C10.9528911,17.3813886 10.9020574,17.3028972 10.8749462,17.2389413 C10.8478349,17.1748885 10.8137576,17.1224641 10.7992606,17.1224641 C10.7847636,17.1224641 10.7729965,17.0901954 10.7729965,17.0508528 C10.7729965,17.0114133 10.7572757,16.9791447 10.7381661,16.9791447 C10.7190564,16.9791447 10.7033356,16.9545313 10.7033356,16.9242976 C10.7033356,16.8941608 10.6798957,16.8601479 10.6511841,16.8488103 C10.6189894,16.836116 10.5989384,16.7816566 10.5989384,16.7066538 C10.5989384,16.6397908 10.5833118,16.5851375 10.5642021,16.5851375 C10.5449983,16.5851375 10.5293716,16.536783 10.5293716,16.4776722 C10.5293716,16.4185615 10.5136509,16.3702069 10.4945412,16.3702069 C10.4754315,16.3702069 10.4597108,16.3138094 10.4597108,16.2448146 C10.4597108,16.1758197 10.4440841,16.1194223 10.4249744,16.1194223 C10.4020052,16.1194223 10.390144,15.0387612 10.390144,12.9490504 L10.390144,9.77867863 L14.3052747,9.77867863 L18.2203112,9.77867863 L18.2203112,14.3121834 M27.9830035,11.4355242 C27.9341468,15.6903363 27.9092007,16.4780598 27.8212773,16.5340697 C27.8043328,16.544729 27.7905889,16.6009327 27.7905889,16.6588806 C27.7905889,16.7168286 27.7749622,16.7642141 27.7557584,16.7642141 C27.7366487,16.7642141 27.7210221,16.7964827 27.7210221,16.8359222 C27.7210221,16.8752648 27.7092551,16.9076304 27.6948522,16.9077273 C27.6598335,16.9081149 27.546964,17.1151963 27.546964,17.1791522 C27.546964,17.2070603 27.5313374,17.2299294 27.5121335,17.2299294 C27.4930239,17.2299294 27.4773972,17.2586126 27.4773972,17.2936915 C27.4773972,17.3287703 27.4460498,17.3807103 27.4077363,17.4091028 C27.369517,17.4374953 27.3381696,17.4814893 27.3381696,17.5068778 C27.3381696,17.5563952 26.8320926,18.0897487 26.7851185,18.0897487 C26.769586,18.0897487 26.7077385,18.1381032 26.6476795,18.197214 C26.5875263,18.2563248 26.5147589,18.3046793 26.4858591,18.3046793 C26.4569592,18.3046793 26.433331,18.3207652 26.433331,18.3405334 C26.433331,18.3602047 26.4020777,18.3762905 26.3637642,18.3762905 C26.3254507,18.3762905 26.2941033,18.3924733 26.2941033,18.4121446 C26.2941033,18.4318159 26.2637914,18.4479987 26.2266076,18.4479987 C26.1894237,18.4479987 26.1494158,18.4640845 26.1375546,18.4837558 C26.1256934,18.503524 26.0856855,18.5196099 26.0485016,18.5196099 C26.0113178,18.5196099 25.9809117,18.5356958 25.9809117,18.555464 C25.9809117,18.5751353 25.9428806,18.5912211 25.8964714,18.5912211 C25.8499681,18.5912211 25.7884029,18.6154469 25.7596913,18.6450022 C25.7309797,18.6745576 25.6672494,18.6986864 25.6180161,18.6986864 C25.5687828,18.6986864 25.5284924,18.7145785 25.5284924,18.734056 C25.5284924,18.7566344 24.7330403,18.7753366 23.3099811,18.7860928 C22.0897858,18.7952986 20.8838992,18.8125473 20.6302959,18.8243695 L20.169216,18.8459788 L20.169216,14.3122803 L20.169216,9.77867863 L24.0855705,9.77867863 L28.0020191,9.77867863 L27.9830035,11.4355242 M13.9398374,10.8891857 C13.9398374,10.908857 13.88505,10.9250398 13.8180249,10.9250398 C13.751094,10.9250398 13.6962125,10.9411257 13.6962125,10.960797 C13.6962125,10.9805652 13.6649592,10.996651 13.6266457,10.996651 C13.5883323,10.996651 13.557079,11.0090546 13.557079,11.0243653 C13.557079,11.039579 13.5021975,11.0824101 13.4352666,11.1195239 C13.3682415,11.1566377 13.3134541,11.2006316 13.3134541,11.217202 C13.3134541,11.2338693 13.2893552,11.2474357 13.2598905,11.2474357 C13.2076449,11.2474357 12.861129,11.5832042 12.8609407,11.6339813 C12.8608466,11.6479354 12.8139667,11.7157674 12.7566376,11.7847622 C12.6993086,11.8537571 12.6523346,11.9303104 12.6523346,11.9549237 C12.6522404,11.979537 12.6365196,11.9996928 12.61741,11.9996928 C12.5983003,11.9996928 12.5825795,12.0382602 12.5825795,12.0854519 C12.5825795,12.1325467 12.5591396,12.1804167 12.530428,12.1917544 C12.5017164,12.203092 12.4781823,12.2371049 12.4781823,12.2672417 C12.4781823,12.2974754 12.4625557,12.3220888 12.443446,12.3220888 C12.4242422,12.3220888 12.4086156,12.3624004 12.4086156,12.4117239 C12.4086156,12.4609506 12.3929889,12.5012622 12.3737851,12.5012622 C12.3546754,12.5012622 12.3390488,12.5496167 12.3390488,12.6087275 C12.3390488,12.6678383 12.323328,12.7161928 12.3042183,12.7161928 C12.2850145,12.7161928 12.2693879,12.7725903 12.2693879,12.8415851 C12.2693879,12.9104831 12.2537613,12.9669775 12.2345574,12.9669775 C12.2154478,12.9669775 12.1998211,13.0546746 12.1998211,13.1618492 C12.1998211,13.2690238 12.1841004,13.3667019 12.1649907,13.3789117 C12.14381,13.3923812 12.1301602,13.6651628 12.1301602,14.0774846 C12.1301602,14.4898064 12.14381,14.762588 12.1649907,14.7760575 C12.1841004,14.7881704 12.1998211,14.8858485 12.1998211,14.99312 C12.1998211,15.1002946 12.2154478,15.1879917 12.2345574,15.1879917 C12.2537613,15.1879917 12.2693879,15.2353772 12.2693879,15.2933251 C12.2693879,15.3512731 12.2850145,15.4086396 12.3042183,15.4208493 C12.323328,15.4330591 12.3390488,15.4904256 12.3390488,15.5483735 C12.3390488,15.6063215 12.3546754,15.653707 12.3737851,15.653707 C12.3929889,15.653707 12.4086156,15.6859756 12.4086156,15.7253182 C12.4086156,15.7647577 12.4242422,15.7970263 12.443446,15.7970263 C12.4625557,15.7970263 12.4781823,15.82726 12.4781823,15.8642769 C12.4781823,15.9012939 12.5017164,15.9515865 12.530428,15.9761029 C12.5591396,16.0006193 12.5825795,16.0429659 12.5825795,16.0700987 C12.5825795,16.0972315 12.5983003,16.1194223 12.61741,16.1194223 C12.6365196,16.1194223 12.6522404,16.1516909 12.6522404,16.1910335 C12.6522404,16.230473 12.6678671,16.2627416 12.6869767,16.2627416 C12.7061805,16.2627416 12.7218072,16.2786337 12.7218072,16.2981112 C12.7218072,16.389103 13.2934031,16.9791447 13.3815147,16.9791447 C13.4014716,16.9791447 13.4178513,16.9953275 13.4178513,17.0149988 C13.4178513,17.03467 13.4491046,17.0508528 13.4874181,17.0508528 C13.5257316,17.0508528 13.557079,17.0669387 13.557079,17.0867069 C13.557079,17.1063782 13.5883323,17.1224641 13.6266457,17.1224641 C13.6649592,17.1224641 13.6962125,17.1386468 13.6962125,17.1583181 C13.6962125,17.1779894 13.7443162,17.1941722 13.8031514,17.1941722 C13.8618925,17.1941722 13.9335302,17.218301 13.9622418,17.2478564 C14.0367037,17.3245066 14.8354506,17.3254756 14.9337289,17.2490192 C14.9709128,17.2200453 15.0443391,17.1959164 15.0969614,17.1952381 C15.1495836,17.1946567 15.192698,17.1779894 15.192698,17.1583181 C15.192698,17.1386468 15.2318587,17.1224641 15.27968,17.1224641 C15.3275013,17.1224641 15.366662,17.1063782 15.366662,17.0867069 C15.366662,17.0669387 15.3862424,17.050659 15.410153,17.0503683 C15.449502,17.0499807 15.5405318,16.9795323 15.8148451,16.7374689 C15.8650198,16.6930874 15.9178303,16.6568457 15.9322332,16.6568457 C15.9465419,16.6567488 15.9583089,16.6309726 15.9583089,16.5994792 C15.9583089,16.5679857 16.005283,16.4970528 16.0627061,16.4418182 C16.1201293,16.3865835 16.1671034,16.3151661 16.1671034,16.2829943 C16.1671034,16.2509195 16.1891313,16.2159375 16.2161484,16.2052782 C16.2430714,16.1946189 16.2841148,16.1387059 16.3073665,16.0810487 C16.3305241,16.0232946 16.3632835,15.9761029 16.3801339,15.9761029 C16.3969843,15.9761029 16.4107282,15.9367603 16.4107282,15.8886965 C16.4107282,15.8406326 16.4263549,15.7913091 16.4454645,15.7790993 C16.4646684,15.7668895 16.480295,15.717566 16.480295,15.6695021 C16.480295,15.6214383 16.4959216,15.5820957 16.5151254,15.5820957 C16.5342351,15.5820957 16.5498617,15.5256014 16.5498617,15.4567034 C16.5498617,15.3877085 16.5655825,15.3313111 16.5846922,15.3313111 C16.6038019,15.3313111 16.6195226,15.2898366 16.6195226,15.2391564 C16.6195226,15.1884762 16.6429626,15.1228729 16.6716742,15.0933176 C16.7051867,15.058917 16.7239199,14.9704447 16.7239199,14.8472811 C16.7239199,14.7414632 16.7395465,14.6449479 16.7587503,14.6327381 C16.779272,14.6196562 16.7934866,14.3994929 16.7934866,14.0932798 C16.7934866,13.7722405 16.7803075,13.5759152 16.7587503,13.5759152 C16.7393582,13.5759152 16.7239199,13.4800783 16.7239199,13.3599187 C16.7239199,13.2009011 16.7100818,13.1383987 16.6716742,13.1231849 C16.6362789,13.1092309 16.6195226,13.0520582 16.6195226,12.9451743 C16.6195226,12.85864 16.6038019,12.787804 16.5846922,12.787804 C16.5655825,12.787804 16.5498617,12.7394495 16.5498617,12.6803387 C16.5498617,12.621228 16.5342351,12.5728734 16.5151254,12.5728734 C16.4959216,12.5728734 16.480295,12.5325618 16.480295,12.4833352 C16.480295,12.4341085 16.4646684,12.3937969 16.4454645,12.3937969 C16.4263549,12.3937969 16.4107282,12.3615282 16.4107282,12.3220888 C16.4107282,12.2827462 16.3950075,12.2504775 16.3758978,12.2504775 C16.3567881,12.2504775 16.3410673,12.2182089 16.3410673,12.1788663 C16.3410673,12.1394268 16.3254407,12.1071581 16.306331,12.1071581 C16.2871272,12.1071581 16.2712182,12.0789594 16.2709357,12.044462 C16.2705592,12.0099645 16.2313985,11.9438768 16.1838596,11.8974603 C16.1364149,11.8510438 16.0975366,11.7941618 16.0975366,11.771002 C16.0975366,11.7478422 16.0661892,11.7056895 16.0278757,11.6772969 C15.9896563,11.6489044 15.9579324,11.6090773 15.9575558,11.5888246 C15.9570852,11.568475 15.9005092,11.5035501 15.8316956,11.4444393 C15.762976,11.3853285 15.6731699,11.3047053 15.6321265,11.2653628 C15.4887568,11.1275668 15.3012372,10.996651 15.247203,10.996651 C15.2171735,10.996651 15.192698,10.9805652 15.192698,10.960797 C15.192698,10.9411257 15.145724,10.9250398 15.0883008,10.9250398 C15.0308776,10.9250398 14.9839036,10.908857 14.9839036,10.8891857 C14.9839036,10.8668981 14.786688,10.8533317 14.4618234,10.8533317 C14.137053,10.8533317 13.9398374,10.8668981 13.9398374,10.8891857 M23.6145122,11.0325051 C23.5858006,11.051595 23.527342,11.0674871 23.4846982,11.0677778 C23.4375359,11.0680685 23.3317266,11.1459784 23.2143386,11.2668163 L23.0214532,11.4653703 L23.0308669,13.9774808 C23.0382095,15.9483887 23.0496,16.4927891 23.0837715,16.5045143 C23.1076821,16.5127511 23.1272625,16.5664353 23.1272625,16.6238987 C23.1272625,16.6813621 23.1428891,16.7284569 23.1620929,16.7284569 C23.1812026,16.7284569 23.1968292,16.7457056 23.1968292,16.7668305 C23.1968292,16.8118903 23.2564175,16.8719701 23.363074,16.9343755 C23.4573045,16.9896102 24.3650613,16.9974593 24.3975383,16.9433875 C24.4093054,16.9236193 24.4427238,16.9075334 24.4716237,16.9075334 C24.5324357,16.9075334 24.623748,16.8230341 24.623748,16.7668305 C24.623748,16.7457056 24.6393746,16.7284569 24.6584843,16.7284569 C24.6776881,16.7284569 24.6933148,16.6729316 24.6933148,16.6051964 C24.6933148,16.5373644 24.7089414,16.471955 24.7281452,16.4597452 C24.7507379,16.4453067 24.7628815,15.5876192 24.7628815,14.0037415 C24.7628815,12.4050376 24.7509262,11.5698316 24.7281452,11.5698316 C24.7089414,11.5698316 24.6933148,11.5088797 24.6933148,11.4344583 C24.6933148,11.3026704 24.606521,11.1757276 24.5164326,11.1757276 C24.4960991,11.1757276 24.455997,11.1515988 24.4272854,11.1220434 C24.398668,11.092488 24.3302309,11.0682623 24.2752552,11.0682623 C24.2203737,11.0682623 24.1656805,11.0521764 24.1539135,11.0325051 C24.1263315,10.9865731 23.68342,10.9865731 23.6145122,11.0325051 M14.70799,12.4564931 C14.7480921,12.4908936 14.8133285,12.547388 14.8529599,12.5818854 C14.8924972,12.6162859 14.9381533,12.6444847 14.9544389,12.6444847 C14.9706304,12.6444847 14.9839036,12.6731679 14.9839036,12.7082468 C14.9839036,12.7433256 15.0151569,12.7952656 15.0534704,12.8236581 C15.0917839,12.8520507 15.1230371,12.9039906 15.1230371,12.9390694 C15.1230371,12.9740514 15.1387579,13.0027346 15.1578676,13.0027346 C15.1769773,13.0027346 15.192698,13.0430462 15.192698,13.0923698 C15.192698,13.148089 15.2123725,13.1819081 15.2448496,13.1819081 C15.2811862,13.1819081 15.2970952,13.2195064 15.2970952,13.3051686 C15.2970952,13.3729037 15.3127219,13.43841 15.3318315,13.4505229 C15.3510354,13.4627327 15.366662,13.5926794 15.366662,13.7392935 C15.366662,13.8930784 15.3814414,14.0058733 15.4014924,14.0058733 C15.4206021,14.0058733 15.4363229,14.0370761 15.4363229,14.0753527 C15.4363229,14.1136294 15.4206021,14.1548131 15.4014924,14.1670229 C15.3823828,14.1792326 15.366662,14.3090825 15.366662,14.4556966 C15.366662,14.6095783 15.3519767,14.7222764 15.3318315,14.7222764 C15.3127219,14.7222764 15.2970952,14.7770265 15.2970952,14.8438895 C15.2970952,14.9188924 15.2770442,14.9732549 15.2448496,14.9860461 C15.216138,14.9973837 15.192698,15.0281019 15.192698,15.0543626 C15.192698,15.1211287 15.1110818,15.2948756 15.0795461,15.2951663 C15.0652374,15.2953601 15.0534704,15.3212332 15.0534704,15.3527266 C15.0534704,15.418136 14.7511044,15.7253182 14.6868093,15.7253182 C14.6634635,15.7253182 14.6248676,15.7495439 14.6010511,15.7790993 C14.5772346,15.8086547 14.5137867,15.8328804 14.4600348,15.8328804 C14.4063771,15.8328804 14.3389755,15.8086547 14.3102639,15.7790993 C14.2815523,15.7495439 14.2400382,15.7253182 14.2180103,15.7253182 C14.1959824,15.7253182 14.120485,15.6613623 14.0502593,15.5831617 C13.8626456,15.3745297 13.8354402,15.3382881 13.8354402,15.2970074 C13.8354402,15.276464 13.8198135,15.2596998 13.8006097,15.2596998 C13.7815,15.2596998 13.7658734,15.2274312 13.7658734,15.1879917 C13.7658734,15.1486491 13.7501526,15.1163805 13.731043,15.1163805 C13.7119333,15.1163805 13.6962125,15.0680259 13.6962125,15.0089151 C13.6962125,14.9498044 13.6805859,14.9014498 13.6614762,14.9014498 C13.6422724,14.9014498 13.6266457,14.8288696 13.6266457,14.7402034 C13.6266457,14.6515373 13.6110191,14.5790539 13.5918153,14.5790539 C13.5702581,14.5790539 13.557079,14.3886398 13.557079,14.0796164 C13.557079,13.7853224 13.5712936,13.5710701 13.5918153,13.5579882 C13.6110191,13.5458753 13.6266457,13.4894779 13.6266457,13.4326928 C13.6266457,13.3759077 13.6422724,13.3194133 13.6614762,13.3073004 C13.6805859,13.2950907 13.6962125,13.2457671 13.6962125,13.1977033 C13.6962125,13.1495425 13.7119333,13.1101999 13.731043,13.1101999 C13.7501526,13.1101999 13.7658734,13.0698883 13.7658734,13.0206617 C13.7658734,12.971435 13.7815,12.9311234 13.8006097,12.9311234 C13.8198135,12.9311234 13.8354402,12.912615 13.8354402,12.8899397 C13.8354402,12.8672644 13.9059483,12.7801487 13.9920831,12.6964246 C14.0782178,12.6127005 14.1486318,12.5264569 14.1486318,12.5047507 C14.1486318,12.4831414 14.1799792,12.4654081 14.2182927,12.4654081 C14.2565121,12.4654081 14.2878595,12.4493222 14.2878595,12.4295541 C14.2878595,12.3661796 14.6283506,12.3879827 14.70799,12.4564931 M3.01239603,26.7232147 C3.01239603,26.7428859 2.95845591,26.7590687 2.8926546,26.7590687 C2.82675916,26.7590687 2.76321712,26.7751546 2.75135594,26.7948259 C2.73949476,26.8145941 2.67595273,26.83068 2.61015142,26.83068 C2.54425598,26.83068 2.49031585,26.8467658 2.49031585,26.866534 C2.49031585,26.8862053 2.45124927,26.9022912 2.40333387,26.9022912 C2.3555126,26.9022912 2.31635188,26.918474 2.31635188,26.9381453 C2.31635188,26.9578166 2.28500448,26.9739993 2.24678512,26.9739993 C2.20847163,26.9739993 2.17712422,26.9900852 2.17712422,27.0097565 C2.17712422,27.0295247 2.14587096,27.0456106 2.10755746,27.0456106 C2.06886742,27.0456106 2.0379907,27.0695456 2.0379907,27.0993917 C2.0379907,27.1289471 2.00909084,27.1530759 1.97388385,27.1530759 C1.93867685,27.1530759 1.83522101,27.2256561 1.74400289,27.3143223 C1.6528789,27.4029884 1.56542624,27.4754718 1.5497996,27.4754718 C1.51308643,27.4754718 1.3071161,27.6869139 1.3071161,27.7245122 C1.3071161,27.7402105 1.25232875,27.8147288 1.18530367,27.8900223 C1.11837272,27.965219 1.06349123,28.0559201 1.06349123,28.0914834 C1.06349123,28.1270468 1.04005128,28.1561177 1.0113397,28.1561177 C0.982345701,28.1561177 0.959094024,28.1879987 0.959094024,28.2278258 C0.959094024,28.2671684 0.94346739,28.299437 0.924357711,28.299437 C0.905153896,28.299437 0.889527263,28.3317057 0.889527263,28.3711452 C0.889527263,28.4104878 0.873900629,28.4427564 0.854696814,28.4427564 C0.835587136,28.4427564 0.819960502,28.483068 0.819960502,28.5322947 C0.819960502,28.5815214 0.804239732,28.621833 0.785130054,28.621833 C0.766020375,28.621833 0.750299605,28.6541016 0.750299605,28.6935411 C0.750299605,28.7328837 0.734672971,28.7651523 0.715469156,28.7651523 C0.696359478,28.7651523 0.680732844,28.8287206 0.680732844,28.9063398 C0.680732844,28.9839591 0.665012074,29.0575083 0.645902396,29.0696212 C0.626792717,29.081831 0.610601265,29.1352245 0.610036447,29.1882303 C0.609377493,29.2412362 0.585937542,29.3158514 0.557790774,29.3541281 C0.480034152,29.4600429 0.481069651,32.7774164 0.558920411,32.7774164 C0.597610449,32.7774164 0.611071947,32.8191816 0.611071947,32.9385659 C0.611071947,33.0272321 0.626792717,33.0998123 0.645902396,33.0998123 C0.665012074,33.0998123 0.680732844,33.1562098 0.680732844,33.2252047 C0.680732844,33.2941995 0.696359478,33.350597 0.715469156,33.350597 C0.734672971,33.350597 0.750299605,33.3989516 0.750299605,33.4580623 C0.750299605,33.5171731 0.766020375,33.5655276 0.785130054,33.5655276 C0.804239732,33.5655276 0.819960502,33.5977963 0.819960502,33.6371389 C0.819960502,33.6765783 0.832668909,33.708847 0.848201406,33.708847 C0.86382804,33.708847 0.897999534,33.7652445 0.924357711,33.8342393 C0.950621752,33.9031373 0.9927007,33.9596317 1.0178351,33.9596317 C1.04296951,33.9596317 1.06349123,33.988218 1.06349123,34.0232969 C1.06349123,34.0583757 1.09483864,34.1103157 1.13315213,34.1387082 C1.17137149,34.1671008 1.20271889,34.2028579 1.20271889,34.2181686 C1.20271889,34.2334792 1.25750624,34.3058657 1.32453132,34.3789305 C1.3915564,34.4520922 1.44634376,34.5246724 1.44634376,34.5401769 C1.44634376,34.5557783 1.47091334,34.5685694 1.50103698,34.5685694 C1.55525951,34.5685694 1.65513818,34.6497741 1.65513818,34.6939618 C1.65513818,34.7311725 1.75125139,34.8193541 1.79182415,34.8193541 C1.81234588,34.8193541 1.82910215,34.83544 1.82910215,34.8552082 C1.82910215,34.8748795 1.85696651,34.8909653 1.89104386,34.8909653 C1.92512122,34.8909653 1.9755783,34.923234 2.00316025,34.9626735 C2.0307422,35.0020161 2.08119928,35.0342847 2.11527664,35.0342847 C2.14925986,35.0342847 2.17712422,35.0503706 2.17712422,35.0701388 C2.17712422,35.0898101 2.20847163,35.105896 2.24678512,35.105896 C2.28500448,35.105896 2.31635188,35.121788 2.31635188,35.1410717 C2.31635188,35.1604523 2.3555126,35.1863253 2.40333387,35.1987289 C2.45124927,35.2110356 2.49031585,35.235552 2.49031585,35.2530914 C2.49031585,35.2707278 2.53644266,35.2850694 2.5927362,35.2850694 C2.64902973,35.2850694 2.70475845,35.3011553 2.71652549,35.3209235 C2.72838667,35.3405947 2.79974202,35.3566806 2.87523938,35.3566806 C2.95064259,35.3566806 3.01239603,35.3728634 3.01239603,35.3925347 C3.01239603,35.412206 3.09853079,35.4283888 3.20377523,35.4283888 C3.30901966,35.4283888 3.39515442,35.4444746 3.39515442,35.4641459 C3.39515442,35.4867243 3.63228388,35.5 4.03697604,35.5 C4.42726534,35.5 4.68717579,35.4859491 4.70016661,35.4641459 C4.71202779,35.4444746 4.81378918,35.4283888 4.92637625,35.4283888 C5.03896332,35.4283888 5.14081885,35.412206 5.15258589,35.3925347 C5.16444707,35.3728634 5.22798911,35.3566806 5.29388455,35.3566806 C5.35977999,35.3566806 5.41362598,35.3405947 5.41362598,35.3209235 C5.41362598,35.3011553 5.46060002,35.2850694 5.51802319,35.2850694 C5.57544636,35.2850694 5.6224204,35.2689835 5.6224204,35.2492153 C5.6224204,35.229544 5.66158112,35.2134582 5.70940239,35.2134582 C5.75731779,35.2134582 5.79647851,35.1987289 5.79647851,35.1808019 C5.79647851,35.1461107 6.13226286,34.9626735 6.19580489,34.9626735 C6.21651489,34.9626735 6.25605216,34.9304048 6.28363411,34.8909653 C6.31121606,34.8516228 6.35498946,34.8193541 6.38078282,34.8193541 C6.43698222,34.8193541 6.52725897,34.732626 6.52725897,34.6786511 C6.52725897,34.6575263 6.54335629,34.6402776 6.56293665,34.6402776 C6.58261115,34.6402776 6.6687459,34.5680849 6.75440998,34.4800002 L6.9101115,34.3197228 L6.9101115,32.6709202 L6.9101115,31.0220206 L5.41362598,31.0220206 L3.9172346,31.0220206 L3.9172346,31.559444 L3.9172346,32.0967705 L4.78724273,32.0967705 L5.65725085,32.0967705 L5.65725085,33.0111462 L5.65725085,33.9255219 L5.57563464,33.9574998 C5.5307316,33.9750392 5.47199052,34.0109902 5.44516166,34.0372509 C5.41823866,34.0636085 5.33746968,34.117002 5.26573778,34.15586 C5.19391175,34.194815 5.1352648,34.2390996 5.1352648,34.2543134 C5.1352648,34.2695271 5.09610408,34.2820276 5.04818868,34.2820276 C5.00036742,34.2820276 4.9612067,34.2981135 4.9612067,34.3177848 C4.9612067,34.3375529 4.89860603,34.3536388 4.82197904,34.3536388 C4.74544619,34.3536388 4.68284552,34.3697247 4.68284552,34.3894929 C4.68284552,34.4119744 4.45663588,34.4252501 4.07378335,34.4252501 C3.69102496,34.4252501 3.46481532,34.4119744 3.46481532,34.3894929 C3.46481532,34.3697247 3.41087519,34.3536388 3.34507389,34.3536388 C3.27917844,34.3536388 3.21563641,34.3375529 3.20377523,34.3177848 C3.19191405,34.2981135 3.15265919,34.2820276 3.11651083,34.2820276 C3.08036248,34.2820276 3.00853644,34.241716 2.95685559,34.1923924 C2.90526887,34.1431658 2.84182097,34.1028542 2.81583934,34.1028542 C2.78995184,34.1028542 2.76877117,34.0905475 2.76877117,34.0755275 C2.76877117,34.0605076 2.70607636,34.0082769 2.62954351,33.9596317 C2.55301066,33.9108895 2.49031585,33.8587558 2.49031585,33.8436389 C2.49031585,33.828619 2.47355958,33.8163123 2.45303786,33.8163123 C2.39636778,33.8163123 2.31635188,33.7213475 2.31635188,33.6540969 C2.31635188,33.6211499 2.26937784,33.5490541 2.21195467,33.4939164 C2.1545315,33.4386818 2.10755746,33.3677488 2.10755746,33.3362554 C2.10755746,33.3046651 2.09193083,33.2788889 2.07272701,33.2788889 C2.05361733,33.2788889 2.0379907,33.2403215 2.0379907,33.1932267 C2.0379907,33.146035 2.01445661,33.098165 1.98574503,33.0868274 C1.95703344,33.0754897 1.93349936,33.0344029 1.93349936,32.9955448 C1.93349936,32.9566868 1.91787272,32.9149216 1.89876304,32.9028088 C1.87955923,32.890599 1.86393259,32.8261586 1.86393259,32.7594894 C1.86393259,32.6928202 1.84830596,32.6283798 1.82910215,32.61617 C1.80999247,32.6040572 1.79436583,32.4660675 1.79436583,32.3095693 C1.79436583,32.1437684 1.7797747,32.0250624 1.75953539,32.0250624 C1.73722507,32.0250624 1.72470494,31.6795067 1.72470494,31.0600065 C1.72470494,30.4552356 1.73769575,30.086617 1.75953539,30.0727599 C1.77864506,30.0605501 1.79436583,29.9235295 1.79436583,29.7681941 C1.79436583,29.6129557 1.80999247,29.475935 1.82910215,29.4637253 C1.84830596,29.4515155 1.86393259,29.395118 1.86393259,29.3383329 C1.86393259,29.2815478 1.87955923,29.2251503 1.89876304,29.2129406 C1.91787272,29.2007308 1.93349936,29.1607099 1.93349936,29.1238868 C1.93349936,29.0869668 1.95703344,29.0327012 1.98574503,29.0031458 C2.01445661,28.9735904 2.0379907,28.9240731 2.0379907,28.8930641 C2.0379907,28.8621521 2.05361733,28.8367636 2.07272701,28.8367636 C2.09193083,28.8367636 2.10755746,28.8119564 2.10755746,28.7815289 C2.10755746,28.7511983 2.13890487,28.6916999 2.17712422,28.6494503 C2.21543772,28.6071037 2.24678512,28.5506093 2.24678512,28.523961 C2.24678512,28.4762848 2.39759155,28.299437 2.43816431,28.299437 C2.47346544,28.299437 2.62954351,28.1254964 2.62954351,28.0861538 C2.62954351,28.0655135 2.65740787,28.0486524 2.69148523,28.0486524 C2.72556258,28.0486524 2.77601967,28.0164806 2.80360161,27.9770411 C2.83118356,27.9376017 2.88945396,27.9054299 2.93303909,27.9054299 C2.97671836,27.9054299 3.01239603,27.8892471 3.01239603,27.8695758 C3.01239603,27.8499045 3.05937007,27.8337218 3.11679324,27.8337218 C3.17421641,27.8337218 3.22119045,27.8191863 3.22119045,27.8013562 C3.22119045,27.7389507 4.04629554,27.6656922 4.10211839,27.7231556 C4.12292252,27.7445711 4.19550165,27.7623043 4.26346809,27.762595 C4.38480984,27.7631765 4.62363376,27.8325589 4.67060779,27.8808166 C4.68369275,27.894383 4.72313587,27.9054299 4.75824873,27.9054299 C4.79326745,27.9054299 4.82197904,27.9215158 4.82197904,27.9411871 C4.82197904,27.9609553 4.84607794,27.9770411 4.87535435,27.9770411 C4.90472489,27.9770411 4.9746682,28.0253957 5.03077346,28.0845064 C5.08697286,28.1436172 5.14910285,28.1919717 5.16887148,28.1919717 C5.18864011,28.1919717 5.20483156,28.209705 5.20483156,28.2313143 C5.20483156,28.2530206 5.2518056,28.3159105 5.30922877,28.3711452 C5.36665195,28.4262829 5.41362598,28.4887853 5.41362598,28.510007 C5.41362598,28.5311319 5.44487925,28.6012895 5.48309861,28.66573 C5.52131796,28.7302673 5.55266537,28.80934 5.55266537,28.8414149 C5.5527595,28.8734898 5.57629359,28.9197124 5.60500518,28.9442289 C5.63955322,28.9737842 5.65725085,29.0540198 5.65725085,29.181544 L5.65725085,29.374187 L6.28363411,29.374187 L6.9101115,29.374187 L6.9101115,29.2308676 C6.9101115,29.1520856 6.89439073,29.0875482 6.87528105,29.0875482 C6.85541828,29.0875482 6.8404506,28.9807613 6.8404506,28.8388954 C6.8404506,28.7021655 6.82482397,28.5802616 6.80562015,28.5681488 C6.78651047,28.555939 6.77088384,28.4995415 6.77088384,28.4427564 C6.77088384,28.3859713 6.75516307,28.3295738 6.73605339,28.3173641 C6.71694371,28.3051543 6.70122294,28.2639706 6.70122294,28.2256939 C6.70122294,28.1874173 6.68559631,28.1561177 6.66648663,28.1561177 C6.64728282,28.1561177 6.63165618,28.1261747 6.63165618,28.0895454 C6.63165618,28.0529161 6.59249546,27.9926425 6.5446742,27.9556256 C6.49685293,27.9186087 6.45769221,27.8664749 6.45769221,27.8396328 C6.45769221,27.8127907 6.41071818,27.745637 6.353295,27.6904024 C6.29587183,27.6352646 6.24880366,27.5761539 6.24880366,27.5591959 C6.24880366,27.5422379 6.20691298,27.4963059 6.15560867,27.4571571 C6.10430436,27.4180084 6.02664188,27.3496918 5.98315089,27.3053103 C5.93965989,27.2610257 5.88355463,27.224784 5.85851436,27.224784 C5.83347409,27.224784 5.78358183,27.1844724 5.74762174,27.1351488 C5.71166166,27.0859222 5.65320299,27.0456106 5.61752531,27.0456106 C5.58194177,27.0456106 5.55285364,27.0295247 5.55285364,27.0097565 C5.55285364,26.9900852 5.52150624,26.9739993 5.48319274,26.9739993 C5.44497339,26.9739993 5.41362598,26.9578166 5.41362598,26.9381453 C5.41362598,26.918474 5.36759331,26.9022912 5.31129977,26.9022912 C5.25500624,26.9022912 5.19927752,26.8862053 5.18741634,26.866534 C5.17555516,26.8467658 5.11982644,26.83068 5.06353291,26.83068 C5.00723937,26.83068 4.9612067,26.8145941 4.9612067,26.7948259 C4.9612067,26.7751546 4.89079271,26.7590687 4.80465795,26.7590687 C4.71852319,26.7590687 4.64801507,26.7428859 4.64801507,26.7232147 C4.64801507,26.7003456 4.35223867,26.6873606 3.83015848,26.6873606 C3.30817244,26.6873606 3.01239603,26.7003456 3.01239603,26.7232147 M10.7729965,28.8710672 C10.7729965,28.8916106 10.7024884,28.9084717 10.6163536,28.9084717 C10.5302189,28.9084717 10.4597108,28.9245576 10.4597108,28.9442289 C10.4597108,28.9639971 10.4295871,28.9800829 10.3926857,28.9800829 C10.3556901,28.9800829 10.3020324,29.0043087 10.2733208,29.033864 C10.2446092,29.0634194 10.1886922,29.0875482 10.1490608,29.0875482 C10.1094294,29.0875482 10.0769524,29.103731 10.0769524,29.1234023 C10.0769524,29.1430736 10.045605,29.1592564 10.0073856,29.1592564 C9.96907211,29.1592564 9.9377247,29.1753423 9.9377247,29.1950135 C9.9377247,29.2147817 9.91315512,29.2308676 9.88303149,29.2308676 C9.85300199,29.2308676 9.80856964,29.2510234 9.78437659,29.2756367 C9.76018355,29.3002501 9.69871252,29.3524807 9.64769062,29.3916295 C9.59666872,29.4307783 9.55496632,29.4768071 9.55496632,29.493959 C9.55496632,29.5111108 9.46883156,29.6083044 9.36349298,29.7099555 C9.25824855,29.8116066 9.17211379,29.9227542 9.17211379,29.9568641 C9.17211379,29.9910708 9.15648716,30.0189788 9.13728334,30.0189788 C9.11817366,30.0189788 9.10254703,30.0583214 9.10254703,30.1063852 C9.10254703,30.1545459 9.08682626,30.2038695 9.06771658,30.2159824 C9.0486069,30.2281921 9.03288613,30.3742248 9.03288613,30.5405102 L9.03288613,30.8429441 L9.62076762,30.8429441 C10.2553407,30.8429441 10.2509163,30.8443007 10.2509163,30.6450684 C10.2509163,30.598555 10.2666371,30.5505881 10.2857468,30.5384752 C10.3048565,30.5262654 10.3205772,30.4916711 10.3205772,30.4615343 C10.3205772,30.3864346 10.6979698,30.0189788 10.7751617,30.0189788 C10.8095214,30.0189788 10.8611081,29.99485 10.8898197,29.9652946 C10.9185313,29.9357392 10.997041,29.9115135 11.0642544,29.9115135 C11.1314677,29.9115135 11.1961394,29.8954276 11.2080006,29.8756594 C11.2197676,29.8559881 11.2834038,29.8399023 11.3492051,29.8399023 C11.4151005,29.8399023 11.4689465,29.8559881 11.4689465,29.8756594 C11.4689465,29.8954276 11.5405843,29.9115135 11.628037,29.9115135 C11.7231147,29.9115135 11.8082139,29.9331228 11.8393731,29.9652946 C11.8680846,29.99485 11.9196714,30.0189788 11.9540311,30.0189788 C12.0433665,30.0189788 12.4086156,30.3906983 12.4086156,30.4815932 C12.4086156,30.52268 12.422077,30.5563053 12.4385509,30.5563053 C12.4550248,30.5563053 12.4776175,30.6472971 12.4887256,30.7584448 C12.4999278,30.8696893 12.5255329,30.9776391 12.5457722,30.9984732 C12.5660115,31.0193073 12.5825795,31.1540992 12.5825795,31.2979031 L12.5825795,31.559444 L11.6430046,31.559444 C11.0397789,31.559444 10.7033356,31.5722352 10.7033356,31.5952012 C10.7033356,31.6149694 10.6170126,31.6310553 10.5114857,31.6310553 C10.4059589,31.6310553 10.2924305,31.6457845 10.2592003,31.6639053 C10.2259702,31.6819293 10.1086763,31.7237913 9.99863092,31.7568352 C9.88858553,31.7897822 9.79849705,31.8284464 9.79849705,31.8425943 C9.79849705,31.856839 9.74370969,31.8905612 9.67677875,31.9175971 C9.60975367,31.9447299 9.55496632,31.9799057 9.55496632,31.9959915 C9.55496632,32.0119805 9.52710196,32.0250624 9.4930246,32.0250624 C9.45894724,32.0250624 9.40849016,32.0573311 9.38090821,32.0967705 C9.35332626,32.13621 9.31444795,32.1683818 9.29449104,32.1683818 C9.27453414,32.1683818 9.22708942,32.211116 9.18905833,32.2632497 C9.15102725,32.3153835 9.06903449,32.4152903 9.00681036,32.4851573 C8.94458624,32.5551212 8.89375261,32.6413648 8.89375261,32.6769281 C8.89375261,32.7124915 8.87831425,32.7415624 8.85958112,32.7415624 C8.84084798,32.7415624 8.81514876,32.7859439 8.80253449,32.8401126 C8.79001436,32.8942813 8.7652565,32.9575589 8.747653,32.9806218 C8.70162033,33.0409923 8.70613887,34.1519839 8.75245395,34.167876 C8.77269327,34.174853 8.7893554,34.2280527 8.7893554,34.2860975 C8.7893554,34.3469525 8.81147744,34.4004429 8.84150694,34.412362 C8.87021852,34.4236996 8.89375261,34.4634298 8.89375261,34.5007374 C8.89375261,34.538045 8.90937924,34.5685694 8.92848892,34.5685694 C8.94769274,34.5685694 8.96331937,34.6052956 8.96331937,34.6502586 C8.96331937,34.6951246 8.99466678,34.7551075 9.03288613,34.7835 C9.07119963,34.8118926 9.10254703,34.8569524 9.10254703,34.8836007 C9.10254703,34.9413548 9.18679906,35.0342847 9.23923301,35.0342847 C9.25975473,35.0342847 9.276511,35.0503706 9.276511,35.0701388 C9.276511,35.0898101 9.3078584,35.105896 9.3461719,35.105896 C9.38439125,35.105896 9.41573866,35.1232416 9.41573866,35.1443664 C9.41573866,35.2075471 9.51015741,35.2850694 9.58725508,35.2850694 C9.62688648,35.2850694 9.65936352,35.3011553 9.65936352,35.3209235 C9.65936352,35.3405947 9.70633756,35.3566806 9.76376073,35.3566806 C9.82118391,35.3566806 9.86815794,35.3728634 9.86815794,35.3925347 C9.86815794,35.412206 9.92981725,35.4283888 10.0053146,35.4283888 C10.0807178,35.4283888 10.1520732,35.4444746 10.1639343,35.4641459 C10.1766428,35.4853677 10.3905205,35.5 10.6879914,35.5 C10.9998651,35.5 11.1905854,35.4864336 11.1905854,35.4641459 C11.1905854,35.4444746 11.2453727,35.4283888 11.3123978,35.4283888 C11.3793287,35.4283888 11.4342102,35.412206 11.4342102,35.3925347 C11.4342102,35.3728634 11.4802429,35.3566806 11.5365364,35.3566806 C11.59283,35.3566806 11.6485587,35.3405947 11.6604199,35.3209235 C11.6721869,35.3011553 11.7086177,35.2850694 11.7411888,35.2850694 C11.77376,35.2850694 11.8298653,35.2447578 11.8658254,35.1955311 C11.9017855,35.1462076 11.9524308,35.105896 11.9785066,35.105896 C12.0044882,35.105896 12.025763,35.0898101 12.025763,35.0701388 C12.025763,35.0503706 12.0492971,35.0342847 12.0780087,35.0342847 C12.1067203,35.0342847 12.1301602,35.0181988 12.1301602,34.9984306 C12.1301602,34.9787594 12.1497406,34.9626735 12.1736512,34.9625766 C12.2211901,34.9625766 12.4086156,34.8080165 12.4086156,34.7688677 C12.4086156,34.7554951 12.4477763,34.7011326 12.4955975,34.6480298 L12.5825795,34.5514176 L12.5825795,34.8086948 C12.5825795,34.950173 12.5983003,35.0758561 12.61741,35.0880658 C12.6365196,35.1001787 12.6522404,35.165685 12.6522404,35.2334202 L12.6522404,35.3566806 L13.2960389,35.3566806 L13.9398374,35.3566806 L13.9398374,35.1621965 C13.9398374,35.0370949 13.9211984,34.9486226 13.8876858,34.9140282 C13.8499372,34.8751702 13.8354402,34.780593 13.8354402,34.5732208 C13.8354402,34.415366 13.8198135,34.2762134 13.8006097,34.2641006 C13.7781111,34.2497589 13.7658734,33.5658183 13.7658734,32.3296282 C13.7658734,31.0933411 13.7535415,30.4094005 13.731043,30.3951558 C13.7119333,30.3829461 13.6962125,30.3185056 13.6962125,30.2518364 C13.6962125,30.1851673 13.6805859,30.1207268 13.6614762,30.1085171 C13.6422724,30.0964042 13.6266457,30.0551236 13.6266457,30.0168469 C13.6266457,29.9786672 13.6141256,29.9473676 13.5987814,29.9473676 C13.5835313,29.9473676 13.5511484,29.8908732 13.5269554,29.8219752 C13.5027623,29.7529804 13.4641664,29.6965829 13.4411971,29.6965829 C13.418322,29.6965829 13.3684297,29.6522014 13.3303987,29.5980327 C13.2137637,29.4319411 13.0452597,29.2750553 12.9152574,29.2115839 C12.8471027,29.1782493 12.7913739,29.1367749 12.7913739,29.1193324 C12.7913739,29.1018899 12.7460944,29.0875482 12.6907422,29.0875482 C12.633319,29.0875482 12.5814499,29.0644854 12.5700594,29.033864 C12.5590454,29.0043087 12.5181903,28.9800829 12.4793119,28.9800829 C12.4404336,28.9800829 12.4086156,28.9655475 12.4086156,28.9477174 C12.4086156,28.8979093 12.1032372,28.8680632 11.4080403,28.8501362 C10.9803789,28.8390892 10.7729965,28.8459693 10.7729965,28.8710672 M18.0811777,28.8726176 C18.0811777,28.8922889 18.0262962,28.9084717 17.9593653,28.9084717 C17.8923402,28.9084717 17.8375528,28.9245576 17.8375528,28.9442289 C17.8375528,28.9639971 17.8073351,28.9800829 17.7704336,28.9800829 C17.7335322,28.9800829 17.6797803,29.0043087 17.6510687,29.033864 C17.6223572,29.0634194 17.5664402,29.0875482 17.5268088,29.0875482 C17.4871774,29.0875482 17.4547003,29.103731 17.4547003,29.1234023 C17.4547003,29.1430736 17.4335196,29.1592564 17.4077263,29.1592564 C17.3818388,29.1592564 17.3130251,29.2061574 17.2547547,29.263427 C17.1964843,29.3206966 17.1158095,29.3858153 17.0755191,29.4080061 C17.0352288,29.4301969 17.002281,29.4650819 17.002281,29.4854315 C17.002281,29.5247741 16.916617,29.6249717 16.8830103,29.6249717 C16.8720905,29.6249717 16.8631475,29.4878541 16.8631475,29.3204059 C16.8631475,29.1413293 16.8487446,29.015937 16.8283171,29.015937 C16.8092074,29.015937 16.7934866,28.9913237 16.7934866,28.9612838 C16.7934866,28.914189 16.71573,28.9079872 16.2280096,28.9165146 L15.6624384,28.9263987 L15.6535896,32.1415397 L15.6447408,35.3566806 L16.2887275,35.3566806 L16.9327143,35.3566806 L16.9327143,33.0002931 C16.9327143,30.6848955 16.933938,30.6429365 17.002281,30.5921594 C17.0405945,30.5637668 17.0719419,30.503784 17.0719419,30.4589179 C17.0719419,30.413955 17.0891689,30.3772288 17.1101613,30.3772288 C17.1311537,30.3772288 17.1898948,30.3328473 17.2406343,30.2786785 C17.3304403,30.1829385 17.3636705,30.1627827 17.637419,30.0388439 C17.709245,30.0063814 17.7678919,29.9644225 17.7678919,29.9456233 C17.7678919,29.8851559 18.49566,29.9032768 18.5559073,29.9652946 C18.5846189,29.99485 18.6383707,30.0189788 18.6752722,30.0189788 C18.7121736,30.0189788 18.7423914,30.0311886 18.7423914,30.0461116 C18.7423914,30.0609378 18.793225,30.0962104 18.8554492,30.1245061 C18.994771,30.1876867 19.055583,30.2473789 19.055583,30.3209282 C19.055583,30.3519371 19.0712097,30.3772288 19.0904135,30.3772288 C19.1095232,30.3772288 19.1251498,30.4013576 19.1251498,30.430913 C19.1251498,30.4604684 19.1408706,30.4846941 19.1599803,30.4846941 C19.1790899,30.4846941 19.1948107,30.5159937 19.1948107,30.5542704 C19.1948107,30.5924501 19.2104373,30.6337307 19.229547,30.6459405 C19.2487508,30.6580534 19.2643775,30.7234628 19.2643775,30.7912948 C19.2643775,30.8591269 19.2800041,30.9145553 19.2992079,30.9145553 C19.3219889,30.9145553 19.3339442,31.6788284 19.3339442,33.1356664 L19.3339442,35.3566806 L19.9778368,35.3566806 L20.6216353,35.3566806 L20.6216353,33.2610588 C20.6216353,31.887751 20.6335906,31.16534 20.6563716,31.16534 C20.6755754,31.16534 20.6912021,31.0927597 20.6912021,31.0040936 C20.6912021,30.9154274 20.7068287,30.8429441 20.7260325,30.8429441 C20.7451422,30.8429441 20.7607688,30.8106754 20.7607688,30.7712359 C20.7607688,30.7318934 20.77536,30.6996247 20.7930576,30.6996247 C20.8254405,30.6996247 20.9348269,30.5010707 20.9348269,30.4424444 C20.9348269,30.3794576 21.248301,30.09059 21.3167381,30.09059 C21.3555223,30.09059 21.3872462,30.0745042 21.3872462,30.0548329 C21.3872462,30.0350647 21.417464,30.0189788 21.4543654,30.0189788 C21.4912669,30.0189788 21.5449246,29.99485 21.5736362,29.9652946 C21.6127969,29.924983 21.7092867,29.9115135 21.9589363,29.9115135 C22.2318375,29.9115135 22.2920848,29.9212038 22.2920848,29.9652946 C22.2920848,29.99485 22.3150541,30.0189788 22.3432008,30.0189788 C22.5038916,30.0189788 22.8391111,30.3180211 22.8728119,30.4914773 C22.8837317,30.547681 22.9063245,30.6023342 22.9229866,30.6128966 C22.9396487,30.6235559 22.9532985,30.6706507 22.9532985,30.7175517 C22.9532985,30.7644527 22.9689251,30.8128073 22.9880348,30.825017 C23.0106275,30.8393587 23.0228653,31.6184579 23.0228653,33.045256 C23.0228653,34.2542165 23.032373,35.2688866 23.0439518,35.2999924 C23.0621201,35.3488315 23.1521145,35.3566806 23.6878444,35.3566806 L24.3104622,35.3566806 L24.3104622,33.0639583 C24.3104622,31.559444 24.2985069,30.7712359 24.2757259,30.7712359 C24.2565221,30.7712359 24.2408955,30.6915818 24.2408955,30.5942913 C24.2408955,30.4969039 24.2252688,30.4072687 24.206065,30.3951558 C24.1869553,30.3829461 24.1713287,30.3255795 24.1713287,30.2676316 C24.1713287,30.2096837 24.1556079,30.1622982 24.1364983,30.1622982 C24.1173886,30.1622982 24.1016678,30.1139436 24.1016678,30.0548329 C24.1016678,29.9957221 24.0860412,29.9473676 24.0669315,29.9473676 C24.0477277,29.9473676 24.032101,29.9239171 24.032101,29.8952338 C24.032101,29.8665506 23.9929403,29.8027885 23.9451191,29.7535618 C23.8972037,29.7043351 23.8580429,29.6473562 23.8580429,29.6270066 C23.8580429,29.5294254 23.485922,29.1592564 23.387926,29.1592564 C23.3594027,29.1592564 23.3360569,29.1430736 23.3360569,29.1234023 C23.3360569,29.103731 23.3144997,29.0875482 23.2881415,29.0875482 C23.2617833,29.0875482 23.2207399,29.0634194 23.1968292,29.033864 C23.1730127,29.0043087 23.124156,28.9800829 23.0881959,28.9800829 C23.0522358,28.9800829 23.0228653,28.9639971 23.0228653,28.9442289 C23.0228653,28.9245576 22.9768326,28.9084717 22.9205391,28.9084717 C22.8642455,28.9084717 22.8085168,28.8922889 22.7966556,28.8726176 C22.7838531,28.8512021 22.5584907,28.8367636 22.2377681,28.8367636 C21.9027369,28.8367636 21.7004379,28.85033 21.7004379,28.8726176 C21.7004379,28.8922889 21.6456505,28.9084717 21.5786254,28.9084717 C21.5116003,28.9084717 21.456813,28.9245576 21.456813,28.9442289 C21.456813,28.9639971 21.4265952,28.9800829 21.3896938,28.9800829 C21.3527923,28.9800829 21.2991346,29.0043087 21.270423,29.033864 C21.2417114,29.0634194 21.1954905,29.0875482 21.1677203,29.0875482 C21.13995,29.0875482 21.0526857,29.1520856 20.9737994,29.2308676 C20.8949131,29.3096497 20.8185686,29.3743808 20.8042598,29.3747684 C20.7588861,29.3757374 20.5519744,29.578749 20.5519744,29.6223553 C20.5519744,29.6638297 20.3983439,29.8399023 20.3621955,29.8399023 C20.3517464,29.8399023 20.34318,29.815192 20.34318,29.7850552 C20.34318,29.7548215 20.3197401,29.7209055 20.2910285,29.7095679 C20.2623169,29.6982302 20.2387828,29.6584032 20.2387828,29.6210955 C20.2387828,29.5837879 20.2231562,29.5532635 20.2039523,29.5532635 C20.1848427,29.5532635 20.169216,29.5359179 20.169216,29.5145993 C20.169216,29.4933775 20.1083098,29.4168243 20.033848,29.3444378 C19.8235474,29.1401665 19.7550161,29.0875482 19.699005,29.0875482 C19.6704817,29.0875482 19.64723,29.0735942 19.64723,29.0566362 C19.64723,29.0168091 19.3727284,28.9084717 19.2719084,28.9084717 C19.2294529,28.9084717 19.1948107,28.8922889 19.1948107,28.8726176 C19.1948107,28.8502331 18.9859221,28.8367636 18.6379942,28.8367636 C18.2899721,28.8367636 18.0811777,28.8502331 18.0811777,28.8726176 M28.1037805,28.8726176 C28.1037805,28.8922889 28.0489931,28.9084717 27.981968,28.9084717 C27.9150371,28.9084717 27.8601556,28.9245576 27.8601556,28.9442289 C27.8601556,28.9639971 27.8318206,28.9800829 27.7972725,28.9800829 C27.7626304,28.9800829 27.7038893,29.0037272 27.6667054,29.0327012 C27.6296157,29.0615783 27.5752049,29.085804 27.5459285,29.0863854 C27.5166521,29.0870637 27.4701487,29.1198169 27.4425668,29.1592564 C27.4149848,29.198599 27.3645277,29.2308676 27.3304504,29.2308676 C27.2964672,29.2308676 27.2686028,29.2469535 27.2686028,29.2667217 C27.2686028,29.286393 27.2490224,29.3026727 27.2251118,29.3027696 C27.1684417,29.3031572 26.7902019,29.67352 26.6582227,29.8577324 C26.6017409,29.9366114 26.5476125,30.0090947 26.5379165,30.0189788 C26.5282204,30.0288629 26.4980027,30.0811905 26.4708914,30.1354561 C26.4437801,30.1896248 26.4085731,30.2339094 26.3926641,30.2339094 C26.3767551,30.2339094 26.3637642,30.2728644 26.3637642,30.3205406 C26.3637642,30.3681199 26.3519972,30.4124045 26.3376885,30.4189939 C26.2965509,30.4377931 26.1897061,30.6508825 26.1897061,30.7141601 C26.1897061,30.7455567 26.1740795,30.7712359 26.1549698,30.7712359 C26.135766,30.7712359 26.1201394,30.8348042 26.1201394,30.9124234 C26.1201394,30.9901396 26.1045127,31.0635919 26.0853089,31.0758017 C26.0661992,31.0879146 26.0505726,31.1685378 26.0505726,31.2548783 C26.0505726,31.3412187 26.0348518,31.4218419 26.0157422,31.4340517 C25.9943732,31.4476181 25.9809117,31.7389082 25.9809117,32.1884407 C25.9809117,32.6527024 25.9937143,32.9207358 26.0157422,32.9207358 C26.0348518,32.9207358 26.0505726,33.009402 26.0505726,33.1177394 C26.0505726,33.2260768 26.0661992,33.314743 26.0853089,33.314743 C26.1045127,33.314743 26.1201394,33.3714311 26.1201394,33.4406198 C26.1201394,33.555159 26.1428262,33.6246384 26.2309379,33.7804582 C26.2476941,33.8100136 26.2705693,33.8624381 26.2818656,33.8969355 C26.2930678,33.931336 26.3161312,33.9596317 26.3329817,33.9596317 C26.3499262,33.9596317 26.3637642,33.9918034 26.3637642,34.0312429 C26.3637642,34.0706824 26.3793909,34.1028542 26.3985947,34.1028542 C26.4177044,34.1028542 26.433331,34.1321188 26.433331,34.1677791 C26.433331,34.2034393 26.4646784,34.2672984 26.5029919,34.309548 C26.5412113,34.3518946 26.5725587,34.3992801 26.5725587,34.4148815 C26.5726528,34.4617825 26.7342849,34.6402776 26.7767404,34.6402776 C26.7983918,34.6402776 26.8161835,34.6579139 26.8161835,34.6796201 C26.8161835,34.7433822 27.1346468,35.0342847 27.204496,35.0342847 C27.2397029,35.0342847 27.2686028,35.0503706 27.2686028,35.0701388 C27.2686028,35.0898101 27.2998561,35.105896 27.3381696,35.105896 C27.3768596,35.105896 27.4077363,35.129831 27.4077363,35.1596771 C27.4077363,35.1895231 27.4387072,35.2134582 27.4773972,35.2134582 C27.5156166,35.2134582 27.546964,35.229544 27.546964,35.2492153 C27.546964,35.2689835 27.5861247,35.2850694 27.633946,35.2850694 C27.6818614,35.2850694 27.7210221,35.3011553 27.7210221,35.3209235 C27.7210221,35.3405947 27.7679961,35.3566806 27.8254193,35.3566806 C27.8828425,35.3566806 27.9298165,35.3728634 27.9298165,35.3925347 C27.9298165,35.412206 28.0159513,35.4283888 28.1211957,35.4283888 C28.2264401,35.4283888 28.3125749,35.4444746 28.3125749,35.4641459 C28.3125749,35.4865305 28.5213693,35.5 28.8693914,35.5 C29.2174135,35.5 29.4262079,35.4865305 29.4262079,35.4641459 C29.4262079,35.4444746 29.5123426,35.4283888 29.6175871,35.4283888 C29.7229257,35.4283888 29.8090604,35.412206 29.8090604,35.3925347 C29.8090604,35.3728634 29.8794744,35.3566806 29.9656092,35.3566806 C30.0517439,35.3566806 30.122252,35.3405947 30.122252,35.3209235 C30.122252,35.3011553 30.1405145,35.2850694 30.1627307,35.2850694 C30.2276848,35.2850694 30.4702741,35.1665572 30.4702741,35.1348699 C30.4702741,35.1189778 30.5016215,35.105896 30.5398409,35.105896 C30.5781544,35.105896 30.6095018,35.0898101 30.6095018,35.0701388 C30.6095018,35.0503706 30.6329417,35.0342847 30.6616533,35.0342847 C30.6903649,35.0342847 30.713899,35.0207183 30.713899,35.0041479 C30.713899,34.9874806 30.7825244,34.9375756 30.8663999,34.8931941 C31.0407404,34.8008457 31.1337471,34.6641157 31.0681341,34.5964775 C31.0455413,34.5733177 31.0270906,34.5288392 31.0270906,34.4976365 C31.0270906,34.4665307 30.9949901,34.4174009 30.9558294,34.388427 C30.8880512,34.3383282 30.7834657,34.161868 30.7834657,34.0976214 C30.7834657,34.0811479 30.7492943,34.027173 30.7075919,33.9777525 C30.6320004,33.8883112 30.4354437,33.8492593 30.4354437,33.9237776 C30.4354437,33.9434489 30.4071086,33.9596317 30.3723723,33.9596317 C30.3377301,33.9596317 30.2789891,33.9878304 30.2418993,34.0222309 C30.2048096,34.0567284 30.1118029,34.1171958 30.0352701,34.1566353 C29.9586431,34.1959778 29.8908649,34.2403593 29.8844636,34.2550886 C29.8780624,34.2699147 29.8428554,34.2820276 29.8061422,34.2820276 C29.769429,34.2820276 29.7393995,34.2981135 29.7393995,34.3177848 C29.7393995,34.3375529 29.6777402,34.3536388 29.6022429,34.3536388 C29.5268396,34.3536388 29.4554843,34.3697247 29.4436231,34.3894929 C29.4308206,34.4108115 29.2112946,34.4252501 28.9021508,34.4252501 C28.5786984,34.4252501 28.3822358,34.4117806 28.3822358,34.3894929 C28.3822358,34.3697247 28.3352618,34.3536388 28.2778386,34.3536388 C28.2204154,34.3536388 28.1734414,34.3375529 28.1734414,34.3177848 C28.1734414,34.2981135 28.1570617,34.2820276 28.1371047,34.2820276 C28.09239,34.2820276 28.0363789,34.2351266 27.8494241,34.0409332 C27.593938,33.7755162 27.546964,33.7130138 27.546964,33.6384955 C27.546964,33.5983777 27.5313374,33.5655276 27.5121335,33.5655276 C27.4930239,33.5655276 27.4773972,33.533259 27.4773972,33.4939164 C27.4773972,33.4544769 27.4616765,33.4222083 27.4425668,33.4222083 C27.4234571,33.4222083 27.4077363,33.3748227 27.4077363,33.3168748 C27.4077363,33.2589269 27.3921097,33.2015604 27.373,33.1893506 C27.3537962,33.1772378 27.3381696,33.1036885 27.3381696,33.0260693 C27.3381696,32.94845 27.3225429,32.8848817 27.3033391,32.8848817 C27.2842294,32.8848817 27.2686028,32.7962156 27.2686028,32.6878782 L27.2686028,32.4907777 L29.2522439,32.4907777 L31.235885,32.4907777 L31.235885,31.7923017 C31.235885,31.3504245 31.2230825,31.0937287 31.2010546,31.0937287 C31.1819449,31.0937287 31.1663183,31.0050626 31.1663183,30.8966283 C31.1663183,30.7882908 31.1505975,30.6996247 31.1314878,30.6996247 C31.112284,30.6996247 31.0964691,30.663383 31.0961867,30.6190015 C31.0956219,30.531692 31.0199363,30.2863339 30.9813404,30.2465068 C30.9681613,30.2330373 30.9574297,30.192435 30.9574297,30.1562902 C30.9574297,30.1201454 30.9339898,30.09059 30.9052782,30.09059 C30.8765666,30.09059 30.8530325,30.0614223 30.8530325,30.025762 C30.8530325,29.9900048 30.8217792,29.9262427 30.7834657,29.8838962 C30.7451523,29.8416465 30.713899,29.7897066 30.713899,29.7684848 C30.713899,29.708502 30.2356863,29.2308676 30.1756274,29.2308676 C30.1462568,29.2308676 30.122252,29.2147817 30.122252,29.1950135 C30.122252,29.1753423 30.0948584,29.1591595 30.0613458,29.1591595 C30.0278333,29.1591595 29.9549718,29.1188479 29.8993372,29.0696212 C29.8437026,29.0203945 29.7545555,28.9800829 29.7012743,28.9800829 C29.6479931,28.9800829 29.5946178,28.9639971 29.5828508,28.9442289 C29.5709896,28.9245576 29.5152609,28.9084717 29.4589673,28.9084717 C29.4026738,28.9084717 29.3566411,28.8922889 29.3566411,28.8726176 C29.3566411,28.8500393 29.124595,28.8367636 28.7302579,28.8367636 C28.3358266,28.8367636 28.1037805,28.8500393 28.1037805,28.8726176 M34.4027259,28.8726176 C34.4027259,28.8922889 34.3244045,28.9084717 34.2287619,28.9084717 C34.1330253,28.9084717 34.0547038,28.9245576 34.0547038,28.9442289 C34.0547038,28.9639971 34.0228857,28.9800829 33.9840074,28.9800829 C33.9451291,28.9800829 33.9043681,29.0043087 33.8933541,29.033864 C33.8818695,29.0644854 33.8300004,29.0875482 33.7725772,29.0875482 C33.717225,29.0875482 33.6719454,29.103731 33.6719454,29.1234023 C33.6719454,29.1430736 33.6484113,29.1592564 33.6196998,29.1592564 C33.5909882,29.1592564 33.5675482,29.1753423 33.5675482,29.1950135 C33.5675482,29.2147817 33.5435435,29.2308676 33.5141729,29.2308676 C33.4545846,29.2308676 33.2195261,29.4584925 33.2195261,29.5162466 C33.2195261,29.5365962 33.2020168,29.5532635 33.180742,29.5532635 C33.1286846,29.5532635 32.9063345,29.8057925 32.9063345,29.8648063 C32.9063345,29.8904856 32.8906137,29.9115135 32.8715041,29.9115135 C32.8523944,29.9115135 32.8366736,29.9518251 32.8366736,30.0010518 C32.8366736,30.0503753 32.821047,30.09059 32.8019373,30.09059 C32.7827335,30.09059 32.7671069,30.1376848 32.7671069,30.1951483 C32.7671069,30.2526117 32.7475265,30.3062959 32.7236159,30.3145326 C32.6511309,30.3392429 32.6401169,31.1228965 32.7118488,31.1511922 C32.7443259,31.1639833 32.7671069,31.2148574 32.7671069,31.2745495 C32.7671069,31.3303656 32.7827335,31.3859879 32.8019373,31.3981976 C32.821047,31.4104074 32.8366736,31.4515911 32.8366736,31.4898678 C32.8366736,31.5281444 32.8497586,31.559444 32.8656676,31.559444 C32.8815767,31.559444 32.9167837,31.6032441 32.9438949,31.6568314 C33.0116731,31.7903636 33.2426837,32.0250624 33.3065081,32.0250624 C33.3352197,32.0250624 33.3587538,32.0382412 33.3587538,32.0542302 C33.3587538,32.0703161 33.4135412,32.1054918 33.4805662,32.1326246 C33.5474972,32.1596605 33.6023787,32.1949332 33.6023787,32.2109222 C33.6023787,32.2269111 33.6245948,32.2400899 33.6517061,32.2400899 C33.7097882,32.2400899 33.9277139,32.3533694 33.9445643,32.3923244 C33.9509656,32.4070536 34.0008578,32.4191665 34.055551,32.4191665 C34.1102443,32.4191665 34.1647492,32.4352523 34.1765163,32.4550205 C34.1883774,32.4746918 34.2353515,32.4907777 34.2809135,32.4907777 C34.3265696,32.4907777 34.3735436,32.5069605 34.3853107,32.5266318 C34.3971719,32.546303 34.4607139,32.5624858 34.5266093,32.5624858 C34.5925048,32.5624858 34.6463508,32.5785717 34.6463508,32.598243 C34.6463508,32.6180112 34.7168589,32.6340971 34.8029936,32.6340971 C34.8891284,32.6340971 34.9595424,32.6501829 34.9595424,32.6699511 C34.9595424,32.6896224 35.0222372,32.7058052 35.0987701,32.7058052 C35.1753029,32.7058052 35.2379977,32.7218911 35.2379977,32.7415624 C35.2379977,32.7613306 35.2653914,32.7775133 35.2989039,32.7776102 C35.3324165,32.7777071 35.404619,32.8019329 35.4595005,32.8313913 C35.5142879,32.8607529 35.5886556,32.8848817 35.624804,32.8848817 C35.6608582,32.8848817 35.690417,32.9009676 35.690417,32.9207358 C35.690417,32.9404071 35.7216703,32.956493 35.7599838,32.956493 C35.7982972,32.956493 35.8295505,32.9726758 35.8295505,32.992347 C35.8295505,33.0120183 35.8467775,33.0282011 35.867864,33.0282011 C35.9176621,33.0282011 36.1428363,33.2598959 36.1428363,33.3111575 C36.1428363,33.3328638 36.1584629,33.350597 36.1775726,33.350597 C36.1978119,33.350597 36.212403,33.4676557 36.212403,33.630065 L36.212403,33.9095329 L36.0470996,34.0960709 C35.9561639,34.1985942 35.8544025,34.2824152 35.82089,34.2822214 C35.7873774,34.2821245 35.7599838,34.2981135 35.7599838,34.3177848 C35.7599838,34.3375529 35.7295777,34.3536388 35.6923939,34.3536388 C35.6553041,34.3536388 35.6152021,34.3697247 35.6033409,34.3894929 C35.5906325,34.4108115 35.3710124,34.4252501 35.0618686,34.4252501 C34.7385102,34.4252501 34.5419536,34.4117806 34.5419536,34.3894929 C34.5419536,34.3697247 34.5106062,34.3536388 34.4723868,34.3536388 C34.4340733,34.3536388 34.4027259,34.3375529 34.4027259,34.3177848 C34.4027259,34.2981135 34.3714726,34.2820276 34.3331591,34.2820276 C34.2948456,34.2820276 34.2635924,34.2658448 34.2635924,34.2461735 C34.2635924,34.2265022 34.244012,34.2103195 34.2200072,34.2103195 C34.1537353,34.2103195 33.8807399,33.9398635 33.8807399,33.8741633 C33.8807399,33.8423792 33.8651132,33.8163123 33.8459094,33.8163123 C33.8267997,33.8163123 33.8111731,33.7689268 33.8111731,33.7109789 C33.8111731,33.6530309 33.7954523,33.5955675 33.7763426,33.5834547 C33.757233,33.5712449 33.7415122,33.4977925 33.7415122,33.4200764 L33.7415122,33.2788889 L33.1325442,33.2788889 L32.523482,33.2788889 L32.523482,33.6192118 C32.523482,33.8222234 32.5375083,33.9596317 32.5583124,33.9596317 C32.5774221,33.9596317 32.5931429,34.0079862 32.5931429,34.067097 C32.5931429,34.1262077 32.6087695,34.1745623 32.6278792,34.1745623 C32.647083,34.1745623 32.6627097,34.2073155 32.6627097,34.2473364 C32.6627097,34.2873573 32.6862437,34.3293162 32.7149553,34.3406538 C32.7436669,34.3519915 32.7671069,34.3853261 32.7671069,34.4147845 C32.7671069,34.4441461 32.8140809,34.5133348 32.8715041,34.5685694 C32.9289272,34.6238041 32.9759013,34.6793294 32.9759013,34.6920237 C32.9759013,34.7257459 33.1416754,34.8909653 33.1754703,34.8909653 C33.1912852,34.8909653 33.2267746,34.923234 33.2543566,34.9626735 C33.2819385,35.0020161 33.3286302,35.0342847 33.358189,35.0342847 C33.3876537,35.0342847 33.4412172,35.0745963 33.4771773,35.123823 C33.5130433,35.1731466 33.5715961,35.2134582 33.6071796,35.2134582 C33.6427632,35.2134582 33.6719454,35.229544 33.6719454,35.2492153 C33.6719454,35.2689835 33.7189195,35.2850694 33.7763426,35.2850694 C33.8337658,35.2850694 33.8807399,35.3011553 33.8807399,35.3209235 C33.8807399,35.3405947 33.9355272,35.3566806 34.0025523,35.3566806 C34.0695774,35.3566806 34.1243647,35.3728634 34.1243647,35.3925347 C34.1243647,35.412206 34.186024,35.4283888 34.2615214,35.4283888 C34.3369246,35.4283888 34.4082799,35.4444746 34.4201411,35.4641459 C34.4332261,35.4859491 34.6873001,35.5 35.0660106,35.5 C35.4590299,35.5 35.690417,35.4867243 35.690417,35.4641459 C35.690417,35.4444746 35.7677971,35.4283888 35.86231,35.4283888 C35.956917,35.4283888 36.0439931,35.412206 36.0557602,35.3925347 C36.0676213,35.3728634 36.1079117,35.3566806 36.1452838,35.3566806 C36.1827501,35.3566806 36.2405498,35.3419514 36.2737799,35.3239275 C36.3070101,35.3058066 36.3929566,35.2648167 36.4646885,35.2326449 C36.5365145,35.2004732 36.5951614,35.1589018 36.5951614,35.1401027 C36.5951614,35.1213035 36.6230258,35.105896 36.6571031,35.105896 C36.6911805,35.105896 36.7416376,35.0737242 36.7692195,35.0342847 C36.7968015,34.9948452 36.8321026,34.9626735 36.8476351,34.9626735 C36.8631676,34.9626735 36.9301927,34.9067605 36.9965588,34.838444 C37.0629249,34.7701274 37.1172416,34.7011326 37.1172416,34.6851436 C37.1172416,34.6691546 37.1484949,34.632816 37.1868084,34.6044235 C37.2251219,34.576031 37.2564693,34.524091 37.2564693,34.4890122 C37.2564693,34.4539333 37.2799092,34.4252501 37.3086208,34.4252501 C37.3373324,34.4252501 37.3608665,34.3940473 37.3608665,34.3557707 C37.3608665,34.317494 37.3764931,34.2762134 37.3956028,34.2641006 C37.4148066,34.2518908 37.4304332,34.2035363 37.4304332,34.1566353 C37.4304332,34.1096374 37.4460599,34.0612828 37.4652637,34.0491699 C37.485503,34.036185 37.5,33.8338517 37.5,33.5633958 C37.5,33.2782106 37.4866326,33.0998123 37.4652637,33.0998123 C37.4460599,33.0998123 37.4304332,33.0514578 37.4304332,32.992347 C37.4304332,32.9332363 37.4148066,32.8848817 37.3956028,32.8848817 C37.3764931,32.8848817 37.3608665,32.8549387 37.3608665,32.8182126 C37.3608665,32.7815833 37.3217058,32.7213097 37.2737904,32.6843897 C37.2259691,32.6473728 37.1868084,32.5945607 37.1868084,32.5670403 C37.1868084,32.5162632 37.0184926,32.3476521 36.967659,32.3475552 C36.9524089,32.3475552 36.9036462,32.3072436 36.859308,32.2579201 C36.8148757,32.2086934 36.7530281,32.1683818 36.7216807,32.1683818 C36.6904274,32.1683818 36.6648223,32.1522959 36.6648223,32.1326246 C36.6648223,32.1128564 36.6334749,32.0967705 36.5951614,32.0967705 C36.5569421,32.0967705 36.5255947,32.0805878 36.5255947,32.0609165 C36.5255947,32.0412452 36.4864339,32.0250624 36.4386127,32.0250624 C36.3907914,32.0250624 36.3516307,32.0089765 36.3516307,31.9893052 C36.3516307,31.9695371 36.3202833,31.9534512 36.2819698,31.9534512 C36.2437504,31.9534512 36.212403,31.9373653 36.212403,31.9175971 C36.212403,31.8979258 36.1673117,31.8818399 36.112242,31.8818399 C36.0571722,31.8818399 35.9925947,31.8576142 35.9687782,31.8280588 C35.9449617,31.7985035 35.8891388,31.7743746 35.8448006,31.7743746 C35.8003682,31.7743746 35.7544297,31.7581919 35.7425685,31.7385206 C35.7308015,31.7188493 35.659352,31.7026665 35.5839488,31.7026665 C35.5084514,31.7026665 35.4467921,31.6865806 35.4467921,31.6669093 C35.4467921,31.6471411 35.3850387,31.6310553 35.3096355,31.6310553 C35.2342323,31.6310553 35.1627828,31.6149694 35.1510157,31.5952012 C35.1391545,31.5755299 35.0677051,31.559444 34.9923018,31.559444 C34.9168986,31.559444 34.8551452,31.5432612 34.8551452,31.52359 C34.8551452,31.5039187 34.7925445,31.4877359 34.7159175,31.4877359 C34.6393847,31.4877359 34.576784,31.47165 34.576784,31.4519787 C34.576784,31.4322105 34.5376233,31.4161247 34.4897079,31.4161247 C34.4418866,31.4161247 34.4027259,31.3994574 34.4027259,31.3792047 C34.4027259,31.3588551 34.3753322,31.3315284 34.3418197,31.3184465 C34.3084013,31.3054616 34.2639689,31.2777473 34.2431648,31.2569132 C34.2224548,31.2360791 34.1637137,31.1870462 34.1126918,31.1478975 C34.0616699,31.1087487 34.0199675,31.0482813 34.0199675,31.0135901 C34.0199675,30.9788019 34.0042467,30.9504094 33.9851371,30.9504094 C33.9655567,30.9504094 33.9503066,30.8496304 33.9503066,30.7196836 C33.9503066,30.5927408 33.9660274,30.4789768 33.9851371,30.4667671 C34.0042467,30.4545573 34.0199675,30.4133736 34.0199675,30.3750969 C34.0199675,30.3368203 34.0337114,30.3056176 34.0505618,30.3056176 C34.0674122,30.3056176 34.1433803,30.2434059 34.2193483,30.1675309 C34.2954105,30.0915591 34.3990546,30.0186881 34.4497941,30.0056062 C34.5004394,29.9925243 34.5419536,29.9659729 34.5419536,29.9466893 C34.5419536,29.9273087 34.6115203,29.9115135 34.6965254,29.9115135 C34.7815306,29.9115135 34.8606992,29.8954276 34.8725604,29.8756594 C34.8844216,29.8559881 34.9470223,29.8399023 35.0117881,29.8399023 C35.0764597,29.8399023 35.1391545,29.8559881 35.1510157,29.8756594 C35.1627828,29.8954276 35.2420456,29.9115135 35.3270507,29.9115135 C35.4120558,29.9115135 35.4816226,29.924014 35.4816226,29.9392277 C35.4816226,29.9544415 35.5402695,29.9985323 35.6120956,30.0371966 C35.6838274,30.0758608 35.7678912,30.1360375 35.7988621,30.1707287 C35.8298329,30.2055169 35.865793,30.2339094 35.8787838,30.2339094 C35.9318767,30.2339094 36.0731754,30.414924 36.0731754,30.4830467 C36.0731754,30.5233583 36.0888962,30.5563053 36.1080058,30.5563053 C36.1271155,30.5563053 36.1428363,30.6208426 36.1428363,30.6996247 C36.1428363,30.7784067 36.1584629,30.8429441 36.1775726,30.8429441 C36.1967764,30.8429441 36.212403,30.8674605 36.212403,30.8975004 C36.212403,30.9446921 36.2940193,30.950797 36.8127105,30.9422695 L37.413018,30.9324823 L37.4235613,30.703307 C37.4293977,30.5754921 37.417819,30.4573675 37.3973914,30.4363395 C37.3773403,30.4156992 37.3608665,30.3531 37.3608665,30.2972839 C37.3608665,30.2402081 37.3379913,30.1868146 37.3086208,30.1752832 C37.2788737,30.163461 37.2564693,30.1100675 37.2564693,30.0509568 C37.2564693,29.9939779 37.2407485,29.9473676 37.2216388,29.9473676 C37.2025291,29.9473676 37.1868084,29.9231419 37.1868084,29.8935865 C37.1868084,29.8640311 37.1711817,29.8399023 37.1519779,29.8399023 C37.1328682,29.8399023 37.1172416,29.814223 37.1172416,29.7829234 C37.1172416,29.7133471 36.6429827,29.2308676 36.5746397,29.2308676 C36.5476226,29.2308676 36.5255947,29.2147817 36.5255947,29.1950135 C36.5255947,29.1753423 36.4864339,29.1592564 36.4386127,29.1592564 C36.3907914,29.1592564 36.3516307,29.1430736 36.3516307,29.1234023 C36.3516307,29.103731 36.3202833,29.0875482 36.2819698,29.0875482 C36.2437504,29.0875482 36.212403,29.0745633 36.212403,29.0586712 C36.212403,29.0081848 35.9504216,28.9084717 35.8178776,28.9084717 C35.747746,28.9084717 35.690417,28.8922889 35.690417,28.8726176 C35.690417,28.8500393 35.4525344,28.8367636 35.0465244,28.8367636 C34.6405143,28.8367636 34.4027259,28.8500393 34.4027259,28.8726176 M28.7649942,29.8756594 C28.7649942,29.8954276 28.8494345,29.9115135 28.9527021,29.9115135 C29.0874112,29.9115135 29.1460581,29.9266304 29.1603668,29.9652946 C29.1713808,29.99485 29.2044227,30.0189788 29.2336991,30.0189788 C29.2630696,30.0189788 29.2869802,30.0350647 29.2869802,30.0548329 C29.2869802,30.0745042 29.3183276,30.09059 29.3566411,30.09059 C29.3948605,30.09059 29.4262079,30.1067728 29.4262079,30.1264441 C29.4262079,30.1461154 29.4425876,30.1622982 29.4626387,30.1622982 C29.5195911,30.1622982 29.6518527,30.3130791 29.7066401,30.4406033 C29.7340337,30.5042685 29.7682994,30.5563053 29.7827022,30.5563053 C29.7971992,30.5563053 29.8090604,30.588574 29.8090604,30.6280135 C29.8090604,30.667356 29.824687,30.6996247 29.8437967,30.6996247 C29.8630005,30.6996247 29.8786272,30.7468164 29.8786272,30.8045705 C29.8786272,30.8622277 29.9021613,30.9336452 29.9308728,30.9632006 C29.9666447,31.0000237 29.9830244,31.0908217 29.9830244,31.2523588 L29.9830244,31.4877359 L28.660597,31.4877359 L27.3381696,31.4877359 L27.3381696,31.3265864 C27.3381696,31.2379202 27.3537962,31.16534 27.373,31.16534 C27.3921097,31.16534 27.4077363,31.1179545 27.4077363,31.0600065 C27.4077363,31.0020586 27.4234571,30.9446921 27.4425668,30.9324823 C27.4616765,30.9202726 27.4773972,30.8790888 27.4773972,30.8408122 C27.4773972,30.8025356 27.4930239,30.7712359 27.5121335,30.7712359 C27.5313374,30.7712359 27.546964,30.7464288 27.546964,30.7160013 C27.546964,30.6855738 27.5861247,30.6172572 27.633946,30.5640576 C27.6818614,30.5109548 27.7210221,30.454848 27.7210221,30.4393435 C27.7210221,30.3876943 28.0314838,30.09059 28.085518,30.09059 C28.1147003,30.09059 28.1386109,30.0762484 28.1386109,30.058709 C28.1386109,30.0411696 28.1777717,30.0166531 28.2255929,30.0042496 C28.2734142,29.9919429 28.3125749,29.9659729 28.3125749,29.9466893 C28.3125749,29.9273087 28.3752697,29.9115135 28.4518026,29.9115135 C28.5283354,29.9115135 28.5910302,29.8954276 28.5910302,29.8756594 C28.5910302,29.8559881 28.6301909,29.8399023 28.6780122,29.8399023 C28.7258335,29.8399023 28.7649942,29.8559881 28.7649942,29.8756594 M12.5825795,32.9207358 C12.5825795,33.1571789 12.5693063,33.350597 12.5531148,33.350597 C12.5368293,33.350597 12.4953151,33.4150374 12.4607671,33.4939164 C12.4263132,33.5726984 12.3847049,33.6371389 12.3685135,33.6371389 C12.352322,33.6371389 12.3390488,33.6537093 12.3390488,33.673962 C12.3390488,33.7281307 12.0353649,34.0312429 11.9810483,34.0312429 C11.9554432,34.0312429 11.9041389,34.0602169 11.8670491,34.0956833 C11.8299594,34.1312467 11.7721597,34.1709769 11.7386472,34.1841557 C11.7052288,34.1973345 11.6777409,34.224758 11.6777409,34.2450107 C11.6777409,34.2653603 11.6229536,34.2820276 11.5560227,34.2820276 C11.4889976,34.2820276 11.4342102,34.2981135 11.4342102,34.3177848 C11.4342102,34.3375529 11.3558888,34.3536388 11.2601521,34.3536388 C11.1645096,34.3536388 11.0861881,34.3697247 11.0861881,34.3894929 C11.0861881,34.409358 10.9933697,34.4252501 10.8773937,34.4252501 C10.7613236,34.4252501 10.6685993,34.409358 10.6685993,34.3894929 C10.6685993,34.3697247 10.6216253,34.3536388 10.5642021,34.3536388 C10.5067789,34.3536388 10.4597108,34.3375529 10.4597108,34.3177848 C10.4597108,34.2981135 10.4284575,34.2820276 10.390144,34.2820276 C10.3518305,34.2820276 10.3205772,34.2658448 10.3205772,34.2461735 C10.3205772,34.2265022 10.3037268,34.2103195 10.2832992,34.2103195 C10.2388669,34.2103195 10.1465191,34.1206843 10.1465191,34.0775625 C10.1465191,34.0607983 10.1152659,34.0237814 10.0769524,33.9953888 C10.0360972,33.9650582 10.0073856,33.9026528 10.0073856,33.8442203 C10.0073856,33.7894702 9.99166483,33.7446042 9.97255515,33.7446042 C9.95344547,33.7446042 9.9377247,33.6811328 9.9377247,33.6034167 C9.9377247,33.5257974 9.95344547,33.4523451 9.97255515,33.4401353 C9.99166483,33.4279255 10.0073856,33.3661015 10.0073856,33.3026301 C10.0073856,33.2284025 10.0321435,33.1689041 10.0769524,33.1356664 C10.1152659,33.1072739 10.1465191,33.0553339 10.1465191,33.0202551 C10.1465191,32.9851762 10.1605454,32.956493 10.1776783,32.956493 C10.1948111,32.956493 10.2457388,32.9164721 10.2908301,32.8675361 C10.3358273,32.8186971 10.3888261,32.7783855 10.4085947,32.7779979 C10.4282692,32.7777071 10.4669592,32.7451478 10.4945412,32.7058052 C10.5221231,32.6663657 10.5803935,32.6340971 10.6240728,32.6340971 C10.6676579,32.6340971 10.7033356,32.6180112 10.7033356,32.598243 C10.7033356,32.5785717 10.7660304,32.5624858 10.8425633,32.5624858 C10.9190961,32.5624858 10.9817909,32.546303 10.9817909,32.5266318 C10.9817909,32.5037627 11.2717309,32.4907777 11.7822323,32.4907777 L12.5825795,32.4907777 L12.5825795,32.9207358" id="path-1"></path>
    </defs>
    <g id="Material-Components" stroke="none" stroke-width="1" fill="none" fill-rule="evenodd">
        <g id="Navigation" transform="translate(-116.000000, -947.000000)">
            <g id="Bottom-Navigation-/-Primary-Color-/-Active-/-Resting-Copy-5" transform="translate(90.000000, 917.000000)">
                <g id="Bottom-Navigation-/-4-up-/-Primary-Color-Copy-3">
                    <g id="Nav_bottom-/-Icon_with_text-/-Games-/-Inactive" transform="translate(26.000000, 30.000000)">
                        <mask id="mask-2" fill="white">
                            <use xlink:href="#path-1"></use>
                        </mask>
                        <g id="Games"></g>
                        <g id="-/-Color-/-Icons-/-Selected-/-On-Primary-/-Inactive-" mask="url(#mask-2)" fill="#FFFFFF" fill-opacity="0.54" fill-rule="evenodd">
                            <rect id="Rectangle" x="0" y="0" width="38" height="36"></rect>
                        </g>
                    </g>
                </g>
            </g>
        </g>
    </g>
</svg>