<?xml version="1.0" encoding="UTF-8"?>
<svg width="38px" height="35px" viewBox="0 0 38 35" version="1.1" xmlns="http://www.w3.org/2000/svg" xmlns:xlink="http://www.w3.org/1999/xlink">
    <!-- Generator: Sketch 52.6 (67491) - http://www.bohemiancoding.com/sketch -->
    <title>Nav_bottom / Icon_with_text / Games / Inactive</title>
    <desc>Created with Sketch.</desc>
    <g id="Material-Components" stroke="none" stroke-width="1" fill="none" fill-rule="evenodd">
        <g id="Navigation" transform="translate(-116.000000, -947.000000)" fill="#D69E8D">
            <g id="Bottom-Navigation-/-Primary-Color-/-Active-/-Resting-Copy-5" transform="translate(90.000000, 917.000000)">
                <g id="Bottom-Navigation-/-4-up-/-Primary-Color-Copy-3">
                    <g id="Nav_bottom-/-Icon_with_text-/-Games-/-Inactive" transform="translate(26.000000, 30.000000)">
                        <path d="M14.7726906,0.024137748 C14.7285308,0.0333939464 14.6924702,0.0558595111 14.6924702,0.0740826516 C14.6924702,0.0923057921 14.6711616,0.107250696 14.645225,0.107250696 C14.5878559,0.107250696 14.4429385,0.255735544 14.4429385,0.314550971 C14.4429385,0.337787886 14.426933,0.356782376 14.4072636,0.356782376 C14.3876906,0.356782376 14.3716851,0.404895324 14.3716851,0.463710751 C14.3716851,0.522526178 14.3555831,0.570639125 14.3360101,0.570639125 C14.3137374,0.570639125 14.3003352,0.790473836 14.3003352,1.1587934 L14.3003352,1.74694767 L13.3736548,1.74694767 C12.7795225,1.74694767 12.4468779,1.75967494 12.4468779,1.78252618 C12.4468779,1.8021956 12.3586548,1.81820111 12.2507622,1.81820111 C12.142966,1.81820111 12.0547429,1.83420662 12.0547429,1.85387604 C12.0547429,1.87344904 12.0075941,1.88945455 11.9499357,1.88945455 C11.8922773,1.88945455 11.8351975,1.90555648 11.8230487,1.92512948 C11.8109963,1.94470249 11.7547842,1.96080441 11.6982829,1.96080441 C11.6417815,1.96080441 11.5856658,1.97680992 11.573517,1.99638293 C11.5614647,2.01605235 11.5123875,2.03205786 11.4645638,2.03205786 C11.410955,2.03205786 11.3774977,2.05259505 11.3774977,2.08557025 C11.3774977,2.12095593 11.3421121,2.13898623 11.2726906,2.13898623 C11.2150322,2.13898623 11.1579523,2.15508816 11.1458035,2.17466116 C11.1336548,2.19423417 11.0926768,2.2103361 11.0545914,2.2103361 C11.016506,2.2103361 10.9854592,2.2263416 10.9854592,2.24591461 C10.9854592,2.26558403 10.9533517,2.28158954 10.9141093,2.28158954 C10.8749633,2.28158954 10.8428559,2.29759505 10.8428559,2.31726447 C10.8428559,2.33683747 10.8187512,2.35284298 10.7893435,2.35284298 C10.7599357,2.35284298 10.7359275,2.36894491 10.7359275,2.38851791 C10.7359275,2.40809092 10.70382,2.42419284 10.6645776,2.42419284 C10.6254316,2.42419284 10.5933242,2.44019835 10.5933242,2.45977136 C10.5933242,2.47944078 10.5687374,2.49544629 10.5387512,2.49544629 C10.5087649,2.49544629 10.474922,2.51955097 10.463641,2.54895868 C10.45236,2.5783664 10.4207346,2.60237466 10.3934481,2.60237466 C10.3661616,2.60237466 10.3437925,2.61838017 10.3437925,2.63804959 C10.3437925,2.6576226 10.3217126,2.67362811 10.2946189,2.67362811 C10.2676217,2.67362811 10.1793986,2.73784298 10.0985997,2.81623141 C10.0178008,2.89461984 9.93729112,2.95883472 9.91983933,2.95883472 C9.90238753,2.95883472 9.87886136,2.98284298 9.86758037,3.0122507 C9.85629938,3.04165841 9.82650599,3.06614877 9.8013407,3.06653444 C9.77627183,3.06692012 9.70752528,3.12534987 9.64870985,3.19621764 C9.58989442,3.26718183 9.51372362,3.35501929 9.47939855,3.39156199 C9.4451699,3.42800827 9.41701563,3.46744353 9.41701563,3.47920662 C9.41701563,3.4909697 9.36890269,3.54544629 9.31008726,3.60040497 C9.25127183,3.65536364 9.20315888,3.72247108 9.20315888,3.74946833 C9.20315888,3.77646557 9.17114787,3.82168596 9.13190544,3.84993665 C9.09266302,3.87818733 9.060652,3.91492287 9.060652,3.93160331 C9.060652,3.94828375 9.0405969,3.98434436 9.01601012,4.01163086 C8.905225,4.13523968 8.88237376,4.17130028 8.88237376,4.22269147 C8.88237376,4.25296695 8.86636825,4.27765014 8.84669883,4.27765014 C8.82712583,4.27765014 8.81112032,4.30127273 8.81112032,4.33010194 C8.81112032,4.35883472 8.77901288,4.4395372 8.73977045,4.50934436 C8.70062445,4.57915152 8.66851701,4.659854 8.66851701,4.6886832 C8.66851701,4.7175124 8.6525115,4.74103857 8.63284208,4.74103857 C8.61326908,4.74103857 8.59726357,4.77941323 8.59726357,4.82636915 C8.59726357,4.87322866 8.57315888,4.92085951 8.54375117,4.9321405 C8.51434346,4.94342149 8.49033519,4.99326998 8.49033519,5.04292563 C8.49033519,5.09258127 8.47423326,5.13317356 8.45466026,5.13317356 C8.43508726,5.13317356 8.41898533,5.18032232 8.41898533,5.23798072 C8.41898533,5.29563913 8.40297982,5.35271902 8.3833104,5.36486778 C8.3637374,5.37692012 8.34773189,5.45010194 8.34773189,5.52733334 C8.34773189,5.60456475 8.33162996,5.66781543 8.31205696,5.66781543 C8.29248395,5.66781543 8.27638202,5.74003306 8.27638202,5.82825621 C8.27638202,5.91647935 8.26037652,5.98860056 8.24080351,5.98860056 C8.21718092,5.98860056 8.20512858,7.64015703 8.20512858,10.8719201 C8.20512858,14.1036832 8.21718092,15.7552397 8.24080351,15.7552397 C8.26085861,15.7552397 8.27638202,15.8562865 8.27638202,15.9869339 C8.27638202,16.1176777 8.29200186,16.2186281 8.31205696,16.2186281 C8.33162996,16.2186281 8.34773189,16.2908457 8.34773189,16.3790689 C8.34773189,16.467292 8.3637374,16.5394132 8.3833104,16.5394132 C8.40297982,16.5394132 8.41898533,16.586562 8.41898533,16.6442204 C8.41898533,16.7018788 8.43508726,16.7589587 8.45466026,16.7711074 C8.47423326,16.7832562 8.49033519,16.8231736 8.49033519,16.8598127 C8.49033519,16.8964518 8.51434346,16.9504463 8.54375117,16.979854 C8.57315888,17.0092617 8.59726357,17.0576639 8.59726357,17.0872645 C8.59726357,17.1169614 8.61326908,17.1510937 8.63284208,17.1632424 C8.6525115,17.1752948 8.66851701,17.2163692 8.66851701,17.2544546 C8.66851701,17.2924435 8.68452252,17.3235868 8.70419194,17.3235868 C8.72376495,17.3235868 8.73977045,17.3556942 8.73977045,17.3949366 C8.73977045,17.4340827 8.75587238,17.4661901 8.77544539,17.4661901 C8.79501839,17.4661901 8.81112032,17.4887521 8.81112032,17.5163278 C8.81112032,17.600405 8.96384759,17.8583251 9.01379249,17.8583251 C9.03953629,17.8583251 9.060652,17.8903361 9.060652,17.9295785 C9.060652,17.9688209 9.07665751,18.000832 9.09623051,18.000832 C9.11589993,18.000832 9.13190544,18.0213692 9.13190544,18.046438 C9.13190544,18.0715069 9.16401288,18.1151846 9.20315888,18.1434353 C9.24240131,18.171686 9.27450875,18.2160386 9.27450875,18.2420716 C9.27450875,18.2979945 9.43321398,18.4642204 9.48672638,18.4642204 C9.50726357,18.4642204 9.52394401,18.4806116 9.52394401,18.5006667 C9.52394401,18.5381736 9.8986272,18.9276088 9.93478423,18.9276088 C9.94587238,18.9276088 9.99417817,18.9636694 10.0420983,19.0078292 C10.089922,19.0518926 10.1688889,19.1241102 10.2173875,19.16827 C10.2658862,19.2123333 10.3347291,19.2483939 10.3703076,19.2483939 C10.4058862,19.2483939 10.4581451,19.2805014 10.4863958,19.3197438 C10.5146465,19.3588898 10.5645914,19.3909973 10.5973738,19.3909973 C10.6301561,19.3909973 10.6662167,19.4151019 10.6774977,19.4445096 C10.6887787,19.4739174 10.7212718,19.4979256 10.7496189,19.4979256 C10.7780625,19.4979256 10.8066024,19.509978 10.8131589,19.5246336 C10.8329247,19.5690827 11.1298944,19.7117824 11.2026906,19.7117824 C11.2400046,19.7117824 11.2705694,19.7278843 11.2705694,19.7474573 C11.2705694,19.7670303 11.3106795,19.7831322 11.3596603,19.7831322 C11.4087374,19.7831322 11.4487512,19.7991377 11.4487512,19.8187108 C11.4487512,19.8383802 11.4956107,19.8543857 11.552787,19.8543857 C11.6099633,19.8543857 11.6624151,19.8714518 11.6693572,19.8923747 C11.6762994,19.9132011 11.7498669,19.9393306 11.832787,19.9505152 C11.9156107,19.9616033 11.9834895,19.9846474 11.9834895,20.0016171 C11.9834895,20.0186832 12.0556107,20.0325675 12.1438338,20.0325675 C12.232057,20.0325675 12.3042746,20.0486694 12.3042746,20.0682424 C12.3042746,20.088876 12.4171809,20.1039174 12.5716437,20.1039174 C12.7261065,20.1039174 12.8389165,20.1189587 12.8389165,20.1394959 C12.8389165,20.1632149 14.9657209,20.1751708 19.1480762,20.1751708 C23.3303352,20.1751708 25.4571396,20.1632149 25.4571396,20.1394959 C25.4571396,20.1189587 25.5692746,20.1039174 25.7223875,20.1039174 C25.8682691,20.1039174 25.9974702,20.0878154 26.0096189,20.0682424 C26.0217677,20.0486694 26.0948531,20.0325675 26.1721809,20.0325675 C26.2494123,20.0325675 26.3125666,20.0186832 26.3125666,20.0016171 C26.3125666,19.9846474 26.3804454,19.9616033 26.4633655,19.9505152 C26.5461892,19.9393306 26.6197567,19.9132011 26.6266988,19.8923747 C26.633641,19.8714518 26.6860928,19.8543857 26.7432691,19.8543857 C26.8005418,19.8543857 26.8473049,19.8383802 26.8473049,19.8187108 C26.8473049,19.7991377 26.8874151,19.7831322 26.9363958,19.7831322 C26.9853765,19.7831322 27.0254867,19.7670303 27.0254867,19.7474573 C27.0254867,19.7278843 27.0575941,19.7117824 27.0968366,19.7117824 C27.1359826,19.7117824 27.16809,19.6957769 27.16809,19.6762039 C27.16809,19.6565344 27.2001975,19.6405289 27.2393435,19.6405289 C27.2785859,19.6405289 27.3106933,19.624427 27.3106933,19.604854 C27.3106933,19.585281 27.3508035,19.5691791 27.3997842,19.5691791 C27.4487649,19.5691791 27.4888751,19.5531736 27.4888751,19.5336006 C27.4888751,19.5139311 27.5134619,19.4979256 27.5434481,19.4979256 C27.5735308,19.4979256 27.6072773,19.4739174 27.6185583,19.4445096 C27.6298393,19.4151019 27.6694674,19.3909973 27.7065886,19.3909973 C27.7437098,19.3909973 27.7740817,19.3749917 27.7740817,19.3553223 C27.7740817,19.3357493 27.79809,19.3197438 27.8274977,19.3197438 C27.8569054,19.3197438 27.8810101,19.3036419 27.8810101,19.2840689 C27.8810101,19.2644959 27.9055969,19.2483939 27.9355831,19.2483939 C27.9656658,19.2483939 28.0450184,19.1963278 28.111933,19.132595 C28.2678421,18.9840138 28.3363958,18.9276088 28.361079,18.9276088 C28.3908724,18.9276088 28.9502939,18.3604738 28.9503903,18.3301984 C28.9504867,18.3157355 28.9985032,18.2476639 29.0572222,18.1791102 C29.1159413,18.1104601 29.1640542,18.0365069 29.1640542,18.0148127 C29.1641506,17.993022 29.2042608,17.9451019 29.2533379,17.90827 C29.3023187,17.871438 29.3424289,17.8131047 29.3424289,17.7784904 C29.3424289,17.7439725 29.3584344,17.7157218 29.3780074,17.7157218 C29.3976768,17.7157218 29.4136823,17.6916171 29.4136823,17.6622094 C29.4136823,17.6328017 29.4296878,17.6087934 29.4493572,17.6087934 C29.4689302,17.6087934 29.4849357,17.576686 29.4849357,17.5374435 C29.4849357,17.4982975 29.5010377,17.4661901 29.5206107,17.4661901 C29.5401837,17.4661901 29.5562856,17.4340827 29.5562856,17.3949366 C29.5562856,17.3556942 29.5722911,17.3235868 29.5919605,17.3235868 C29.6115335,17.3235868 29.627539,17.2904187 29.627539,17.2498265 C29.627539,17.2091377 29.6516437,17.151865 29.6810514,17.1224573 C29.7104592,17.0930496 29.7344674,17.0380909 29.7344674,17.0002948 C29.7344674,16.9624986 29.7505694,16.9315482 29.7701424,16.9315482 C29.7897154,16.9315482 29.8058173,16.884303 29.8058173,16.8266446 C29.8058173,16.7690827 29.8218228,16.7119063 29.8413958,16.699854 C29.8610652,16.6877052 29.8770707,16.6306254 29.8770707,16.5729669 C29.8770707,16.5153085 29.8930762,16.4681598 29.9127457,16.4681598 C29.9323187,16.4681598 29.9483242,16.3959422 29.9483242,16.307719 C29.9483242,16.2194959 29.9644261,16.1473747 29.9839991,16.1473747 C30.0041506,16.1473747 30.019674,16.0463278 30.019674,15.9156804 C30.019674,15.7849366 30.0351975,15.6839862 30.0552525,15.6839862 C30.0788751,15.6839862 30.0909275,14.0561488 30.0909275,10.8719201 C30.0909275,7.68769147 30.0788751,6.05995042 30.0552525,6.05995042 C30.0356795,6.05995042 30.019674,5.98069422 30.019674,5.8837934 C30.019674,5.78689257 30.0035721,5.69780166 29.9839991,5.6856529 C29.9644261,5.67350414 29.9483242,5.60938568 29.9483242,5.54304959 C29.9483242,5.47671351 29.9323187,5.41259505 29.9127457,5.40044629 C29.8930762,5.38839395 29.8770707,5.33218183 29.8770707,5.27568045 C29.8770707,5.21927549 29.8610652,5.16306337 29.8413958,5.15101103 C29.8218228,5.13886227 29.8058173,5.10318733 29.8058173,5.07175483 C29.8058173,4.99326998 29.6918503,4.74103857 29.6563683,4.74103857 C29.6405556,4.74103857 29.627539,4.70893114 29.627539,4.66978513 C29.627539,4.63054271 29.6115335,4.59843527 29.5919605,4.59843527 C29.5722911,4.59843527 29.5562856,4.55842149 29.5562856,4.50934436 C29.5562856,4.46036364 29.5401837,4.42025345 29.5206107,4.42025345 C29.5010377,4.42025345 29.4849357,4.38814601 29.4849357,4.34900001 C29.4849357,4.30975758 29.4689302,4.27765014 29.4493572,4.27765014 C29.4296878,4.27765014 29.4136823,4.24563913 29.4136823,4.2063967 C29.4136823,4.16715428 29.3976768,4.13514326 29.3780074,4.13514326 C29.3584344,4.13514326 29.3424289,4.11335262 29.3424289,4.08683747 C29.3424289,4.06032232 29.3023187,3.9953361 29.2533379,3.94240221 C29.2042608,3.88956475 29.1641506,3.83103857 29.1641506,3.81252618 C29.1641506,3.79391736 29.1000322,3.71263637 29.0216437,3.63183747 C28.9431589,3.55103857 28.8790404,3.46898623 28.8790404,3.44950965 C28.8790404,3.40313224 28.3405418,2.88758127 28.2920432,2.88758127 C28.2812443,2.88758127 28.2220432,2.83937191 28.160528,2.78055648 C28.0990129,2.72183747 28.0269881,2.67362811 28.0004729,2.67362811 C27.9739578,2.67362811 27.9522636,2.6576226 27.9522636,2.63804959 C27.9522636,2.61838017 27.9298944,2.60237466 27.9026079,2.60237466 C27.8753214,2.60237466 27.8436961,2.5783664 27.8324151,2.54895868 C27.8211341,2.51955097 27.7873875,2.49544629 27.7573049,2.49544629 C27.7273187,2.49544629 27.7027319,2.47944078 27.7027319,2.45977136 C27.7027319,2.44019835 27.6706244,2.42419284 27.6314784,2.42419284 C27.592236,2.42419284 27.5601286,2.40809092 27.5601286,2.38851791 C27.5601286,2.36894491 27.5281176,2.35284298 27.4888751,2.35284298 C27.4496327,2.35284298 27.4176217,2.33683747 27.4176217,2.31726447 C27.4176217,2.29759505 27.3775115,2.28158954 27.3284344,2.28158954 C27.2794537,2.28158954 27.2393435,2.26558403 27.2393435,2.24591461 C27.2393435,2.2263416 27.2073324,2.2103361 27.16809,2.2103361 C27.1288476,2.2103361 27.0968366,2.19423417 27.0968366,2.17466116 C27.0968366,2.15508816 27.0406244,2.13898623 26.9720707,2.13898623 C26.8956107,2.13898623 26.8473049,2.12163086 26.8473049,2.09424794 C26.8473049,2.04449587 26.612911,1.96080441 26.4735859,1.96080441 C26.4242195,1.96080441 26.3839165,1.94470249 26.3839165,1.92512948 C26.3839165,1.90555648 26.3206658,1.88945455 26.2434344,1.88945455 C26.166203,1.88945455 26.0930211,1.87344904 26.0808724,1.85387604 C26.06882,1.83420662 25.9475253,1.81820111 25.8114784,1.81820111 C25.6703214,1.81820111 25.564068,1.80287053 25.564068,1.78252618 C25.564068,1.75996419 25.297663,1.74694767 24.8362994,1.74694767 L24.1084344,1.74694767 L24.0966713,1.29532232 C24.0882829,0.974537197 24.0718917,0.839550971 24.0402663,0.829041329 C24.0135583,0.820170806 23.9957209,0.751038574 23.9957209,0.656741054 C23.9957209,0.570157032 23.9797154,0.499385682 23.9600459,0.499385682 C23.9404729,0.499385682 23.924371,0.459468327 23.924371,0.410680448 C23.924371,0.361892569 23.8963132,0.287746563 23.8620845,0.245900833 C23.6676079,0.00871075079 23.578517,-0.0145261638 22.9410928,0.00572177007 L22.5258173,0.0189311365 L22.4231313,0.141961439 C22.36663,0.20964739 22.3204454,0.285625351 22.3204454,0.310887059 C22.3204454,0.336148767 22.3043435,0.356782376 22.2847705,0.356782376 C22.2651975,0.356782376 22.2490955,0.403545462 22.2490955,0.46072177 C22.2490955,0.517898079 22.2290404,0.571314057 22.2045501,0.579509649 C22.172057,0.590308547 22.1569192,0.749592293 22.1486272,1.17055648 L22.1372498,1.74694767 L19.1812443,1.74694767 L16.2251424,1.74694767 L16.2251424,1.19649312 C16.2251424,0.868090916 16.210776,0.63726447 16.1895638,0.624151522 C16.1698944,0.612002762 16.1538889,0.564661164 16.1538889,0.518862266 C16.1538889,0.473159787 16.1297842,0.42649312 16.1003765,0.415212128 C16.0709688,0.403931136 16.0469605,0.370088161 16.0469605,0.340101935 C16.0469605,0.310019291 16.0336548,0.285432514 16.01736,0.285432514 C16.0010652,0.285432514 15.9662581,0.24541874 15.9400322,0.196341605 C15.9138063,0.147360889 15.8643435,0.107250696 15.8300184,0.107250696 C15.7957897,0.107250696 15.761079,0.0871955993 15.7529798,0.0627052411 C15.7379385,0.0176776929 14.9512581,-0.013369139 14.7726906,0.024137748 M14.3003352,4.09734711 C14.3003352,4.34263637 14.3154729,4.53229202 14.3360101,4.54501929 C14.3555831,4.55716805 14.3716851,4.60614877 14.3716851,4.65406888 C14.3716851,4.70189257 14.3876906,4.74103857 14.4072636,4.74103857 C14.426933,4.74103857 14.4429385,4.76523968 14.4429385,4.79484023 C14.4429385,4.87400001 14.6225666,5.0618237 14.6983517,5.0618237 C14.7343159,5.0618237 14.7637236,5.07792563 14.7637236,5.09749863 C14.7637236,5.11707163 14.8109688,5.13317356 14.8685308,5.13317356 C14.9261892,5.13317356 14.9833655,5.14917907 14.9954178,5.16875207 C15.0075666,5.18842149 15.1287649,5.204427 15.2649082,5.204427 C15.4060652,5.204427 15.5123187,5.18909643 15.5123187,5.16875207 C15.5123187,5.14917907 15.5611065,5.13317356 15.6208862,5.13317356 C15.6891506,5.13317356 15.7624289,5.10010194 15.8185446,5.04408265 C15.8675253,4.99500552 15.922966,4.95489532 15.9416713,4.95489532 C15.9603765,4.95489532 15.9757071,4.9228843 15.9757071,4.88364188 C15.9757071,4.84439946 15.9917126,4.81238844 16.0112856,4.81238844 C16.030955,4.81238844 16.0469605,4.78780166 16.0469605,4.75771902 C16.0469605,4.72773279 16.0709688,4.69398623 16.1003765,4.68270524 C16.1334481,4.66997797 16.1538889,4.61579064 16.1538889,4.54116254 C16.1538889,4.47463362 16.1698944,4.42025345 16.1895638,4.42025345 C16.2110652,4.42025345 16.2251424,4.2717686 16.2251424,4.04595593 L16.2251424,3.67175483 L19.1807622,3.67175483 L22.136382,3.67175483 L22.1481451,4.12328375 C22.15663,4.44406888 22.1729247,4.57915152 22.2045501,4.58966116 C22.2290404,4.59776034 22.2490955,4.64770524 22.2490955,4.70054271 C22.2490955,4.75569422 22.2794674,4.81846282 22.3204454,4.84796695 C22.3595914,4.87621764 22.3916988,4.91304959 22.3916988,4.92973003 C22.3916988,5.01072177 22.6058448,5.13317356 22.7476768,5.13317356 C22.8067815,5.13317356 22.8550873,5.14917907 22.8550873,5.16875207 C22.8550873,5.21561158 23.342966,5.21561158 23.3718917,5.16875207 C23.3840404,5.14917907 23.4411203,5.13317356 23.4987787,5.13317356 C23.5564371,5.13317356 23.6035859,5.11707163 23.6035859,5.09749863 C23.6035859,5.07792563 23.6208448,5.0618237 23.6417677,5.0618237 C23.6873738,5.0618237 23.7818641,4.97263637 23.7818641,4.92973003 C23.7818641,4.91304959 23.8138751,4.87621764 23.8531176,4.84796695 C23.89236,4.81971626 23.924371,4.76803582 23.924371,4.73322866 C23.924371,4.69832508 23.9404729,4.66978513 23.9600459,4.66978513 C23.9797154,4.66978513 23.9957209,4.60450965 23.9957209,4.52467494 C23.9957209,4.44320111 24.0191506,4.35603857 24.0491368,4.32605235 C24.0882829,4.28700276 24.1026492,4.19164464 24.1026492,3.9721956 L24.1026492,3.67175483 L24.7065198,3.67175483 C25.0705969,3.67175483 25.319068,3.68583196 25.3323738,3.70733334 C25.3445225,3.72700276 25.4497154,3.74300827 25.5661892,3.74300827 C25.6836272,3.74300827 25.7779247,3.75891736 25.7779247,3.7786832 C25.7779247,3.79825621 25.8180349,3.81426171 25.8670156,3.81426171 C25.9160928,3.81426171 25.956203,3.83036364 25.956203,3.84993665 C25.956203,3.86950965 26.0043159,3.88561158 26.0631313,3.88561158 C26.1219468,3.88561158 26.1700597,3.90161709 26.1700597,3.92119009 C26.1700597,3.94085951 26.2001424,3.95686502 26.2369743,3.95686502 C26.2738063,3.95686502 26.3238476,3.9809697 26.3482415,4.01037742 C26.3726355,4.03978513 26.4147705,4.0637934 26.4417677,4.0637934 C26.4687649,4.0637934 26.4908448,4.07989532 26.4908448,4.09946833 C26.4908448,4.11904133 26.5229523,4.13514326 26.5620983,4.13514326 C26.6013407,4.13514326 26.6334481,4.1471956 26.6334481,4.16204408 C26.6334481,4.17689257 26.6783793,4.20890359 26.7333379,4.23320111 C26.7882966,4.25749863 26.9108448,4.34967494 27.0056244,4.4379945 C27.1004041,4.52621764 27.191809,4.59843527 27.2086823,4.59843527 C27.2255556,4.59843527 27.2393435,4.6186832 27.2393435,4.6433664 C27.2393435,4.66804959 27.2951699,4.73621764 27.3633379,4.79484023 C27.431506,4.85346282 27.4877181,4.92153444 27.4881038,4.9460248 C27.4884895,4.97051516 27.5048806,4.99057025 27.5245501,4.99057025 C27.5441231,4.99057025 27.5601286,5.0191102 27.5601286,5.05401378 C27.5601286,5.08891736 27.592236,5.14050138 27.6314784,5.16875207 C27.6706244,5.19709918 27.7027319,5.2486832 27.7027319,5.28358678 C27.7027319,5.31849037 27.7188338,5.34703031 27.7384068,5.34703031 C27.7579798,5.34703031 27.7740817,5.37961984 27.7740817,5.41944078 C27.7740817,5.45926171 27.79809,5.50110745 27.8274977,5.51238844 C27.8569054,5.52366943 27.8810101,5.56320111 27.8810101,5.60032232 C27.8810101,5.63744353 27.8970156,5.66781543 27.9165886,5.66781543 C27.9362581,5.66781543 27.9522636,5.71496419 27.9522636,5.7726226 C27.9522636,5.830281 27.9682691,5.88736089 27.9879385,5.89950965 C28.0075115,5.91165841 28.023517,5.98474381 28.023517,6.06197521 C28.023517,6.13930304 28.0396189,6.20245731 28.0591919,6.20245731 C28.0798256,6.20245731 28.0948669,6.31536364 28.0948669,6.46982645 C28.0948669,6.62428926 28.1099082,6.7371956 28.1304454,6.7371956 C28.1512718,6.7371956 28.1661203,6.85598348 28.1661203,7.02230579 L28.1661203,7.3075124 L19.1480762,7.3075124 L10.1299357,7.3075124 L10.1299357,6.95105235 C10.1299357,6.7371956 10.1442057,6.59459229 10.1656107,6.59459229 C10.1856658,6.59459229 10.2011892,6.49354546 10.2011892,6.36289808 C10.2011892,6.23215428 10.216809,6.13120386 10.2368641,6.13120386 C10.2564371,6.13120386 10.272539,6.07508816 10.272539,6.00643802 C10.272539,5.93778789 10.2885446,5.88167218 10.308214,5.88167218 C10.327787,5.88167218 10.3437925,5.83355924 10.3437925,5.77474381 C10.3437925,5.71592838 10.3582553,5.66781543 10.3758999,5.66781543 C10.3935446,5.66781543 10.4377043,5.59569422 10.4739578,5.5075675 C10.5102112,5.41944078 10.5518641,5.34722315 10.5666162,5.34712673 C10.5812718,5.34703031 10.5933242,5.31492287 10.5933242,5.27568045 C10.5933242,5.23653444 10.6093297,5.204427 10.6289991,5.204427 C10.6485721,5.204427 10.6645776,5.18340772 10.6645776,5.15766392 C10.6645776,5.13201654 10.6966851,5.07647935 10.7359275,5.03444078 C10.7750735,4.99230579 10.8071809,4.94862811 10.8071809,4.93734711 C10.8071809,4.88094216 11.3468366,4.34900001 11.4040129,4.34900001 C11.4200184,4.34900001 11.4561754,4.31689257 11.4844261,4.27765014 C11.5126768,4.23850414 11.5643572,4.2063967 11.5992608,4.2063967 C11.6341644,4.2063967 11.6627043,4.19039119 11.6627043,4.17072177 C11.6627043,4.15114877 11.6843986,4.13514326 11.7109137,4.13514326 C11.7374289,4.13514326 11.8024151,4.09503306 11.855349,4.04595593 C11.9081864,3.99697521 11.9817539,3.95686502 12.0188751,3.95686502 C12.0558999,3.95686502 12.0961065,3.94085951 12.1082553,3.92119009 C12.1203076,3.90161709 12.161382,3.88561158 12.1994674,3.88561158 C12.2374564,3.88561158 12.2685997,3.86950965 12.2685997,3.84993665 C12.2685997,3.83036364 12.3248118,3.81426171 12.3933655,3.81426171 C12.4620156,3.81426171 12.5181313,3.79825621 12.5181313,3.7786832 C12.5181313,3.75901378 12.6053903,3.74300827 12.7121258,3.74300827 C12.8187649,3.74300827 12.915955,3.72700276 12.9280074,3.70733334 C12.941506,3.68563913 13.2135997,3.67175483 13.6252112,3.67175483 L14.3003352,3.67175483 L14.3003352,4.09734711 M18.1499495,13.7431736 L18.1499495,18.254124 L17.6420156,18.2329119 C17.3626906,18.2211488 16.1275666,18.2040827 14.8974564,18.1948265 C13.4637098,18.1840276 12.6607346,18.1654187 12.6607346,18.1429532 C12.6607346,18.123573 12.6218779,18.1077603 12.5745363,18.1077603 C12.5270983,18.1077603 12.4428283,18.0851019 12.3873875,18.0573333 C12.2687925,17.9981322 12.0137649,17.8841653 11.8497567,17.8169614 C11.7861203,17.7909284 11.7339578,17.7574711 11.7339578,17.7426226 C11.7339578,17.7278705 11.7091782,17.7157218 11.6789027,17.7157218 C11.6485308,17.7157218 11.583641,17.6756116 11.5346603,17.6266309 C11.4856795,17.5775537 11.4299495,17.5374435 11.4107622,17.5374435 C11.3625528,17.5374435 10.8071809,16.9748402 10.8071809,16.9260523 C10.8071809,16.9042617 10.7778696,16.8604876 10.7420983,16.8287658 C10.7063269,16.7970441 10.6542608,16.7189449 10.6264922,16.6553085 C10.5987236,16.5915758 10.56382,16.5394132 10.5489716,16.5394132 C10.5341231,16.5394132 10.5220707,16.5073058 10.5220707,16.4681598 C10.5220707,16.4289174 10.5059688,16.3968099 10.4863958,16.3968099 C10.4668228,16.3968099 10.4507209,16.3723196 10.4507209,16.3422369 C10.4507209,16.3122507 10.4267126,16.2784077 10.3973049,16.2671267 C10.3643297,16.2544959 10.3437925,16.2003085 10.3437925,16.1256804 C10.3437925,16.0591515 10.327787,16.0047714 10.308214,16.0047714 C10.2885446,16.0047714 10.272539,15.9566584 10.272539,15.897843 C10.272539,15.8390276 10.2564371,15.7909146 10.2368641,15.7909146 C10.2172911,15.7909146 10.2011892,15.7347989 10.2011892,15.6661488 C10.2011892,15.5974986 10.1851837,15.5413829 10.1656107,15.5413829 C10.1420845,15.5413829 10.1299357,14.4661212 10.1299357,12.3868512 L10.1299357,9.23231957 L14.1399908,9.23231957 L18.1499495,9.23231957 L18.1499495,13.7431736 M28.1493435,10.8808871 C28.0993021,15.1144408 28.0737512,15.8982287 27.9836961,15.9539587 C27.9663407,15.9645647 27.9522636,16.0204876 27.9522636,16.078146 C27.9522636,16.1358044 27.9362581,16.1829532 27.9165886,16.1829532 C27.8970156,16.1829532 27.8810101,16.2150606 27.8810101,16.254303 C27.8810101,16.293449 27.8689578,16.3256529 27.8542057,16.3257493 C27.8183379,16.326135 27.7027319,16.5321818 27.7027319,16.5958182 C27.7027319,16.6235868 27.6867264,16.6463416 27.667057,16.6463416 C27.647484,16.6463416 27.6314784,16.6748815 27.6314784,16.7097851 C27.6314784,16.7446887 27.599371,16.7963692 27.5601286,16.8246198 C27.5209826,16.8528705 27.4888751,16.8966446 27.4888751,16.9219063 C27.4888751,16.9711763 26.970528,17.501865 26.9224151,17.501865 C26.906506,17.501865 26.8431589,17.549978 26.7816437,17.6087934 C26.7200322,17.6676088 26.6455005,17.7157218 26.6158999,17.7157218 C26.5862994,17.7157218 26.5620983,17.7317273 26.5620983,17.7513967 C26.5620983,17.7709697 26.5300873,17.7869752 26.4908448,17.7869752 C26.4516024,17.7869752 26.419495,17.8030771 26.419495,17.8226501 C26.419495,17.8422231 26.3884481,17.8583251 26.3503627,17.8583251 C26.3122773,17.8583251 26.2712994,17.8743306 26.2591506,17.8939036 C26.2470019,17.913573 26.2060239,17.9295785 26.1679385,17.9295785 C26.1298531,17.9295785 26.0987098,17.945584 26.0987098,17.9652535 C26.0987098,17.9848265 26.0597567,18.000832 26.0122222,18.000832 C25.9645914,18.000832 25.9015335,18.0249366 25.8721258,18.0543444 C25.8427181,18.0837521 25.7774426,18.1077603 25.7270156,18.1077603 C25.6765886,18.1077603 25.6353214,18.123573 25.6353214,18.1429532 C25.6353214,18.1654187 24.8205831,18.1840276 23.3630211,18.19473 C22.1132415,18.2038898 20.8781176,18.2210523 20.6183655,18.2328154 L20.1461065,18.2543168 L20.1461065,13.74327 L20.1461065,9.23231957 L24.1574151,9.23231957 L28.16882,9.23231957 L28.1493435,10.8808871 M13.7656933,10.3372782 C13.7656933,10.3568512 13.7095776,10.3729532 13.6409275,10.3729532 C13.5723738,10.3729532 13.5161616,10.3889587 13.5161616,10.4085317 C13.5161616,10.4282011 13.4841506,10.4442066 13.4449082,10.4442066 C13.4056658,10.4442066 13.3736548,10.4565482 13.3736548,10.4717824 C13.3736548,10.4869201 13.3174426,10.5295372 13.2488889,10.5664656 C13.1802388,10.6033939 13.1241231,10.6471681 13.1241231,10.6636557 C13.1241231,10.6802397 13.0994399,10.6937383 13.0692608,10.6937383 C13.0157484,10.6937383 12.6608311,11.0278292 12.6606382,11.0783526 C12.6605418,11.0922369 12.6125253,11.15973 12.5538063,11.2283802 C12.4950873,11.2970303 12.4469743,11.3732011 12.4469743,11.3976915 C12.4468779,11.4221818 12.430776,11.4422369 12.411203,11.4422369 C12.39163,11.4422369 12.375528,11.4806116 12.375528,11.5275675 C12.375528,11.574427 12.3515198,11.6220579 12.3221121,11.6333388 C12.2927043,11.6446198 12.2685997,11.6784628 12.2685997,11.708449 C12.2685997,11.7385317 12.2525941,11.763022 12.2330211,11.763022 C12.2133517,11.763022 12.1973462,11.8031322 12.1973462,11.8522094 C12.1973462,11.9011901 12.1813407,11.9413003 12.1616713,11.9413003 C12.1420983,11.9413003 12.1260928,11.9894132 12.1260928,12.0482287 C12.1260928,12.1070441 12.1099908,12.155157 12.0904178,12.155157 C12.0707484,12.155157 12.0547429,12.2112727 12.0547429,12.2799229 C12.0547429,12.3484766 12.0387374,12.4046887 12.019068,12.4046887 C11.999495,12.4046887 11.9834895,12.4919477 11.9834895,12.5985868 C11.9834895,12.7052259 11.9673875,12.802416 11.9478145,12.8145647 C11.9261203,12.8279669 11.9121396,13.0993857 11.9121396,13.5096474 C11.9121396,13.9199091 11.9261203,14.1913278 11.9478145,14.20473 C11.9673875,14.2167824 11.9834895,14.3139725 11.9834895,14.420708 C11.9834895,14.5273471 11.999495,14.6146061 12.019068,14.6146061 C12.0387374,14.6146061 12.0547429,14.6617548 12.0547429,14.7194132 C12.0547429,14.7770716 12.0707484,14.8341515 12.0904178,14.8463003 C12.1099908,14.858449 12.1260928,14.9155289 12.1260928,14.9731873 C12.1260928,15.0308457 12.1420983,15.0779945 12.1616713,15.0779945 C12.1813407,15.0779945 12.1973462,15.1101019 12.1973462,15.1492479 C12.1973462,15.1884904 12.2133517,15.2205978 12.2330211,15.2205978 C12.2525941,15.2205978 12.2685997,15.2506804 12.2685997,15.2875124 C12.2685997,15.3243444 12.2927043,15.3743857 12.3221121,15.3987796 C12.3515198,15.4231736 12.375528,15.4653085 12.375528,15.4923058 C12.375528,15.519303 12.39163,15.5413829 12.411203,15.5413829 C12.430776,15.5413829 12.4468779,15.5734904 12.4468779,15.6126364 C12.4468779,15.6518788 12.4628834,15.6839862 12.4824564,15.6839862 C12.5021258,15.6839862 12.5181313,15.6997989 12.5181313,15.7191791 C12.5181313,15.8097163 13.1035859,16.3968099 13.1938338,16.3968099 C13.2142746,16.3968099 13.2310514,16.4129119 13.2310514,16.4324849 C13.2310514,16.4520579 13.2630625,16.4681598 13.3023049,16.4681598 C13.3415473,16.4681598 13.3736548,16.4841653 13.3736548,16.5038347 C13.3736548,16.5234077 13.4056658,16.5394132 13.4449082,16.5394132 C13.4841506,16.5394132 13.5161616,16.5555152 13.5161616,16.5750882 C13.5161616,16.5946612 13.5654316,16.6107631 13.6256933,16.6107631 C13.6858586,16.6107631 13.7592333,16.6347714 13.788641,16.6641791 C13.8649082,16.7404463 14.6830211,16.7414105 14.7836823,16.6653361 C14.8217677,16.6365069 14.8969743,16.6124986 14.9508724,16.6118237 C15.0047705,16.6112452 15.0489302,16.5946612 15.0489302,16.5750882 C15.0489302,16.5555152 15.0890404,16.5394132 15.1380211,16.5394132 C15.1870019,16.5394132 15.2271121,16.5234077 15.2271121,16.5038347 C15.2271121,16.4841653 15.2471671,16.4679669 15.2716575,16.4676777 C15.3119605,16.467292 15.4051975,16.3971956 15.6861616,16.1563416 C15.7375528,16.1121818 15.7916437,16.0761212 15.8063958,16.0761212 C15.8210514,16.0760248 15.8331038,16.0503774 15.8331038,16.0190413 C15.8331038,15.9877052 15.8812167,15.9171267 15.9400322,15.8621681 C15.9988476,15.8072094 16.0469605,15.7361488 16.0469605,15.7041377 C16.0469605,15.6722231 16.0695225,15.637416 16.0971947,15.6268099 C16.1247705,15.6162039 16.166809,15.5605703 16.1906244,15.5032011 C16.2143435,15.4457355 16.2478972,15.3987796 16.2651561,15.3987796 C16.2824151,15.3987796 16.2964922,15.3596336 16.2964922,15.3118099 C16.2964922,15.2639862 16.3124977,15.2149091 16.3320707,15.2027603 C16.3517402,15.1906116 16.3677457,15.1415344 16.3677457,15.0937108 C16.3677457,15.0458871 16.3837512,15.0067411 16.4034206,15.0067411 C16.4229936,15.0067411 16.4389991,14.9505289 16.4389991,14.8819752 C16.4389991,14.8133251 16.455101,14.7572094 16.474674,14.7572094 C16.494247,14.7572094 16.510349,14.7159422 16.510349,14.6655152 C16.510349,14.6150882 16.5343572,14.5498127 16.5637649,14.520405 C16.59809,14.4861763 16.6172773,14.398146 16.6172773,14.2755978 C16.6172773,14.1703085 16.6332829,14.0742755 16.6529523,14.0621267 C16.6739716,14.0491102 16.6885308,13.8300468 16.6885308,13.5253636 C16.6885308,13.2059284 16.6750322,13.010584 16.6529523,13.010584 C16.63309,13.010584 16.6172773,12.9152259 16.6172773,12.7956667 C16.6172773,12.6374435 16.6031038,12.5752535 16.5637649,12.5601157 C16.5275115,12.5462314 16.510349,12.4893444 16.510349,12.3829945 C16.510349,12.2968926 16.494247,12.2264105 16.474674,12.2264105 C16.455101,12.2264105 16.4389991,12.1782975 16.4389991,12.1194821 C16.4389991,12.0606667 16.4229936,12.0125537 16.4034206,12.0125537 C16.3837512,12.0125537 16.3677457,11.9724435 16.3677457,11.9234628 C16.3677457,11.8744821 16.3517402,11.8343719 16.3320707,11.8343719 C16.3124977,11.8343719 16.2964922,11.8022645 16.2964922,11.763022 C16.2964922,11.723876 16.2803903,11.6917686 16.2608173,11.6917686 C16.2412443,11.6917686 16.2251424,11.6596612 16.2251424,11.6205152 C16.2251424,11.5812727 16.2091368,11.5491653 16.1895638,11.5491653 C16.1698944,11.5491653 16.1535997,11.5211074 16.1533104,11.4867824 C16.1529247,11.4524573 16.1128145,11.3866997 16.0641231,11.3405152 C16.015528,11.2943306 15.9757071,11.2377328 15.9757071,11.2146887 C15.9757071,11.1916446 15.9435997,11.1497025 15.9043572,11.1214518 C15.8652112,11.0932011 15.8327181,11.053573 15.8323324,11.0334215 C15.8318503,11.0131736 15.7739027,10.948573 15.7034206,10.8897576 C15.6330349,10.8309422 15.5410514,10.7507218 15.4990129,10.7115758 C15.3521671,10.5744683 15.160101,10.4442066 15.1047567,10.4442066 C15.0739991,10.4442066 15.0489302,10.4282011 15.0489302,10.4085317 C15.0489302,10.3889587 15.0008173,10.3729532 14.9420019,10.3729532 C14.8831864,10.3729532 14.8350735,10.3568512 14.8350735,10.3372782 C14.8350735,10.3151019 14.6330762,10.3016033 14.3003352,10.3016033 C13.9676906,10.3016033 13.7656933,10.3151019 13.7656933,10.3372782 M23.6749357,10.4798815 C23.645528,10.498876 23.585652,10.5146887 23.5419743,10.514978 C23.4936685,10.5152672 23.3852939,10.5927879 23.2650597,10.713022 L23.0674977,10.910584 L23.0771396,13.4101433 C23.0846603,15.3712039 23.0963269,15.9128843 23.1313269,15.924551 C23.1558173,15.9327466 23.1758724,15.9861625 23.1758724,16.0433388 C23.1758724,16.1005152 23.1918779,16.1473747 23.2115473,16.1473747 C23.2311203,16.1473747 23.2471258,16.1645372 23.2471258,16.1855565 C23.2471258,16.2303912 23.3081589,16.2901708 23.4174013,16.3522645 C23.5139165,16.4072231 24.4436823,16.4150331 24.4769468,16.3612314 C24.4889991,16.341562 24.5232278,16.3255565 24.5528283,16.3255565 C24.6151148,16.3255565 24.708641,16.2414793 24.708641,16.1855565 C24.708641,16.1645372 24.7246465,16.1473747 24.7442195,16.1473747 C24.7638889,16.1473747 24.7798944,16.0921267 24.7798944,16.02473 C24.7798944,15.9572369 24.7958999,15.8921543 24.8155694,15.8800055 C24.8387098,15.8656391 24.8511479,15.0122369 24.8511479,13.4362727 C24.8511479,11.8455565 24.8389027,11.0145234 24.8155694,11.0145234 C24.7958999,11.0145234 24.7798944,10.953876 24.7798944,10.8798265 C24.7798944,10.748697 24.6909963,10.6223884 24.5987236,10.6223884 C24.5778972,10.6223884 24.5368228,10.5983802 24.5074151,10.5689725 C24.4781038,10.5395647 24.4080074,10.5154601 24.3516988,10.5154601 C24.2954867,10.5154601 24.2394674,10.4994546 24.2274151,10.4798815 C24.1991644,10.4341791 23.7455143,10.4341791 23.6749357,10.4798815 M14.5524702,11.8967548 C14.5935446,11.9309835 14.6603627,11.9871956 14.700955,12.0215207 C14.7414509,12.0557493 14.788214,12.0838072 14.8048944,12.0838072 C14.8214784,12.0838072 14.8350735,12.1123471 14.8350735,12.1472507 C14.8350735,12.1821543 14.8670845,12.2338347 14.9063269,12.2620854 C14.9455694,12.2903361 14.9775804,12.3420165 14.9775804,12.3769201 C14.9775804,12.4117273 14.9936823,12.4402672 15.0132553,12.4402672 C15.0328283,12.4402672 15.0489302,12.4803774 15.0489302,12.5294546 C15.0489302,12.5848953 15.0690817,12.6185455 15.1023462,12.6185455 C15.1395638,12.6185455 15.1558586,12.6559559 15.1558586,12.7411901 C15.1558586,12.8085868 15.1718641,12.8737658 15.1914371,12.8858182 C15.2111065,12.8979669 15.2271121,13.0272645 15.2271121,13.173146 C15.2271121,13.3261625 15.2422498,13.4383939 15.262787,13.4383939 C15.28236,13.4383939 15.2984619,13.4694408 15.2984619,13.5075262 C15.2984619,13.5456116 15.28236,13.5865895 15.262787,13.5987383 C15.243214,13.6108871 15.2271121,13.7400882 15.2271121,13.8859697 C15.2271121,14.0390827 15.2120707,14.1512176 15.1914371,14.1512176 C15.1718641,14.1512176 15.1558586,14.2056942 15.1558586,14.2722231 C15.1558586,14.3468512 15.1353214,14.4009422 15.1023462,14.4136694 C15.0729385,14.4249504 15.0489302,14.4555152 15.0489302,14.4816446 C15.0489302,14.5480771 14.9653352,14.7209559 14.9330349,14.7212452 C14.9183793,14.721438 14.9063269,14.7471818 14.9063269,14.7785179 C14.9063269,14.8436006 14.59663,15.1492479 14.530776,15.1492479 C14.5068641,15.1492479 14.4673324,15.1733526 14.4429385,15.2027603 C14.4185446,15.2321681 14.3535583,15.2562727 14.2985032,15.2562727 C14.2435446,15.2562727 14.1745087,15.2321681 14.145101,15.2027603 C14.1156933,15.1733526 14.0731727,15.1492479 14.0506107,15.1492479 C14.0280487,15.1492479 13.9507209,15.0856116 13.8787925,15.0078017 C13.68663,14.8002121 13.6587649,14.7641515 13.6587649,14.7230771 C13.6587649,14.7026364 13.6427594,14.6859559 13.62309,14.6859559 C13.603517,14.6859559 13.5875115,14.6538485 13.5875115,14.6146061 C13.5875115,14.5754601 13.5714096,14.5433526 13.5518366,14.5433526 C13.5322636,14.5433526 13.5161616,14.4952397 13.5161616,14.4364242 C13.5161616,14.3776088 13.5001561,14.3294959 13.4805831,14.3294959 C13.4609137,14.3294959 13.4449082,14.2572782 13.4449082,14.1690551 C13.4449082,14.080832 13.4289027,14.0087108 13.4092333,14.0087108 C13.3871534,14.0087108 13.3736548,13.8192479 13.3736548,13.5117686 C13.3736548,13.2189449 13.388214,13.0057631 13.4092333,12.9927466 C13.4289027,12.9806942 13.4449082,12.9245785 13.4449082,12.8680771 C13.4449082,12.8115758 13.4609137,12.7553636 13.4805831,12.7433113 C13.5001561,12.7311625 13.5161616,12.6820854 13.5161616,12.6342617 C13.5161616,12.5863416 13.5322636,12.5471956 13.5518366,12.5471956 C13.5714096,12.5471956 13.5875115,12.5070854 13.5875115,12.4581047 C13.5875115,12.409124 13.603517,12.3690138 13.62309,12.3690138 C13.6427594,12.3690138 13.6587649,12.3505978 13.6587649,12.3280358 C13.6587649,12.3054738 13.7309826,12.2187934 13.8192057,12.1354876 C13.9074289,12.0521818 13.9795501,11.9663692 13.9795501,11.9447714 C13.9795501,11.92327 14.0116575,11.9056254 14.0508999,11.9056254 C14.0900459,11.9056254 14.1221534,11.8896198 14.1221534,11.8699504 C14.1221534,11.8068926 14.4708999,11.8285868 14.5524702,11.8967548 M2.5733104,26.0921956 C2.5733104,26.1117686 2.51806247,26.1278705 2.45066577,26.1278705 C2.38317266,26.1278705 2.31809001,26.143876 2.30594125,26.163449 C2.29379249,26.1831185 2.22870985,26.199124 2.16131315,26.199124 C2.09382004,26.199124 2.03857211,26.2151295 2.03857211,26.2347989 C2.03857211,26.2543719 1.99855833,26.2703774 1.9494812,26.2703774 C1.90050048,26.2703774 1.86039029,26.2864793 1.86039029,26.3060523 C1.86039029,26.3256254 1.82828285,26.3417273 1.78913685,26.3417273 C1.74989442,26.3417273 1.71778698,26.3577328 1.71778698,26.3773058 C1.71778698,26.3969752 1.68577596,26.4129807 1.64653354,26.4129807 C1.60690544,26.4129807 1.5752801,26.4367962 1.5752801,26.4664931 C1.5752801,26.4959008 1.54567955,26.5199091 1.50961894,26.5199091 C1.47355833,26.5199091 1.36759415,26.5921267 1.27416439,26.6803499 C1.18083106,26.768573 1.09125806,26.8406942 1.07525255,26.8406942 C1.03764924,26.8406942 0.826685055,27.0510799 0.826685055,27.0884904 C0.826685055,27.1041102 0.770569353,27.1782562 0.701919215,27.2531736 C0.633365496,27.3279945 0.577153375,27.4182424 0.577153375,27.4536281 C0.577153375,27.4890138 0.55314511,27.5179394 0.523737397,27.5179394 C0.494040427,27.5179394 0.470225,27.5496612 0.470225,27.5892893 C0.470225,27.6284353 0.45421949,27.6605427 0.434646488,27.6605427 C0.414977066,27.6605427 0.398971557,27.6926501 0.398971557,27.7318926 C0.398971557,27.7710386 0.382966047,27.803146 0.363296625,27.803146 C0.343723623,27.803146 0.327718113,27.8432562 0.327718113,27.8922369 C0.327718113,27.9412176 0.311616185,27.9813278 0.292043182,27.9813278 C0.272470179,27.9813278 0.256368251,28.0134353 0.256368251,28.0526777 C0.256368251,28.0918237 0.240362741,28.1239311 0.22069332,28.1239311 C0.201120317,28.1239311 0.185114807,28.1871818 0.185114807,28.2644132 C0.185114807,28.3416446 0.169012879,28.4148265 0.149439876,28.4268788 C0.129866873,28.4390276 0.113282851,28.4921543 0.112704339,28.5448953 C0.112029408,28.5976364 0.0880211434,28.6718788 0.0591919423,28.7099642 C-0.020449931,28.8153499 -0.0193893249,32.1161488 0.0603489671,32.1161488 C0.0999770662,32.1161488 0.113764945,32.1577052 0.113764945,32.2764931 C0.113764945,32.3647163 0.129866873,32.4369339 0.149439876,32.4369339 C0.169012879,32.4369339 0.185114807,32.4930496 0.185114807,32.5616997 C0.185114807,32.6303499 0.201120317,32.6864656 0.22069332,32.6864656 C0.240362741,32.6864656 0.256368251,32.7345785 0.256368251,32.7933939 C0.256368251,32.8522094 0.272470179,32.9003223 0.292043182,32.9003223 C0.311616185,32.9003223 0.327718113,32.9324298 0.327718113,32.9715758 C0.327718113,33.0108182 0.340734642,33.0429256 0.356643733,33.0429256 C0.372649243,33.0429256 0.407649243,33.0990413 0.434646488,33.1676915 C0.461547314,33.2362452 0.504646488,33.2924573 0.530390289,33.2924573 C0.556134091,33.2924573 0.577153375,33.3209008 0.577153375,33.3558044 C0.577153375,33.390708 0.609260813,33.4423884 0.648503237,33.4706391 C0.687649243,33.4988898 0.719756681,33.5344683 0.719756681,33.5497025 C0.719756681,33.5649366 0.775872383,33.6369614 0.844522521,33.7096612 C0.913172659,33.7824573 0.969288361,33.8546749 0.969288361,33.8701019 C0.969288361,33.8856254 0.99445365,33.8983526 1.02530764,33.8983526 C1.08084483,33.8983526 1.18314511,33.9791515 1.18314511,34.0231185 C1.18314511,34.0601433 1.28158864,34.1478843 1.32314511,34.1478843 C1.34416439,34.1478843 1.36132693,34.1638898 1.36132693,34.1835592 C1.36132693,34.2031322 1.38986687,34.2191377 1.42477045,34.2191377 C1.45967404,34.2191377 1.51135448,34.2512452 1.53960517,34.2904876 C1.56785585,34.3296336 1.61953629,34.3617411 1.65443988,34.3617411 C1.68924704,34.3617411 1.71778698,34.3777466 1.71778698,34.397416 C1.71778698,34.416989 1.74989442,34.4329945 1.78913685,34.4329945 C1.82828285,34.4329945 1.86039029,34.4488072 1.86039029,34.4679945 C1.86039029,34.4872782 1.90050048,34.513022 1.9494812,34.5253636 C1.99855833,34.5376088 2.03857211,34.5620028 2.03857211,34.5794546 C2.03857211,34.5970028 2.08581729,34.6112727 2.14347569,34.6112727 C2.20113409,34.6112727 2.25821398,34.6272782 2.27026632,34.6469477 C2.28241508,34.6665207 2.35550048,34.6825262 2.43282831,34.6825262 C2.51005971,34.6825262 2.5733104,34.6986281 2.5733104,34.7182011 C2.5733104,34.7377741 2.66153354,34.753876 2.76932968,34.753876 C2.87712583,34.753876 2.96534897,34.7698815 2.96534897,34.7894546 C2.96534897,34.8119201 3.20822775,34.8251295 3.62273189,34.8251295 C4.02248395,34.8251295 4.28869607,34.8111488 4.30200186,34.7894546 C4.31415062,34.7698815 4.41837927,34.753876 4.53369607,34.753876 C4.64901288,34.753876 4.75333795,34.7377741 4.76539029,34.7182011 C4.77753905,34.6986281 4.84262169,34.6825262 4.91011481,34.6825262 C4.97760792,34.6825262 5.03275944,34.6665207 5.03275944,34.6469477 C5.03275944,34.6272782 5.08087238,34.6112727 5.13968781,34.6112727 C5.19850324,34.6112727 5.24661618,34.5952672 5.24661618,34.5755978 C5.24661618,34.5560248 5.28672638,34.5400193 5.33570709,34.5400193 C5.38478423,34.5400193 5.42489442,34.5253636 5.42489442,34.5075262 C5.42489442,34.4730083 5.76882004,34.2904876 5.83390269,34.2904876 C5.85511481,34.2904876 5.89561068,34.2583802 5.92386136,34.2191377 C5.95211205,34.1799917 5.99694676,34.1478843 6.0233655,34.1478843 C6.08092748,34.1478843 6.17339304,34.0615895 6.17339304,34.0078843 C6.17339304,33.986865 6.18988065,33.9697025 6.20993574,33.9697025 C6.23008726,33.9697025 6.3183104,33.8978705 6.40605145,33.8102259 L6.56552803,33.6507493 L6.56552803,32.0101846 L6.56552803,30.3695234 L5.03275944,30.3695234 L3.50008726,30.3695234 L3.50008726,30.9042617 L3.50008726,31.4389036 L4.39118919,31.4389036 L5.28229112,31.4389036 L5.28229112,32.3487108 L5.28229112,33.2585179 L5.19869607,33.2903361 C5.15270434,33.3077879 5.09253905,33.3435592 5.06505971,33.3696887 C5.03748395,33.3959146 4.95475668,33.4490413 4.88128561,33.4877052 C4.80771811,33.5264656 4.74764924,33.5705289 4.74764924,33.5856667 C4.74764924,33.6008044 4.70753905,33.6132424 4.65846191,33.6132424 C4.6094812,33.6132424 4.56937101,33.6292479 4.56937101,33.6488209 C4.56937101,33.6684904 4.50525255,33.6844959 4.4267677,33.6844959 C4.34837927,33.6844959 4.28426081,33.7005014 4.28426081,33.7201708 C4.28426081,33.74254 4.0525666,33.7557493 3.66043161,33.7557493 C3.26839304,33.7557493 3.03669883,33.74254 3.03669883,33.7201708 C3.03669883,33.7005014 2.9814509,33.6844959 2.9140542,33.6844959 C2.84656109,33.6844959 2.78147844,33.6684904 2.76932968,33.6488209 C2.75718092,33.6292479 2.71697431,33.6132424 2.67994952,33.6132424 C2.64292472,33.6132424 2.56935723,33.5731322 2.51642335,33.5240551 C2.46358588,33.4750744 2.39859966,33.4349642 2.37198809,33.4349642 C2.34547293,33.4349642 2.32377872,33.422719 2.32377872,33.4077741 C2.32377872,33.3928292 2.25956384,33.3408595 2.18117541,33.2924573 C2.10278698,33.2439587 2.03857211,33.1920854 2.03857211,33.1770441 C2.03857211,33.1620992 2.02140957,33.149854 2.00039029,33.149854 C1.94234621,33.149854 1.86039029,33.0553636 1.86039029,32.988449 C1.86039029,32.9556667 1.81227734,32.8839311 1.75346191,32.8290689 C1.69464649,32.7741102 1.64653354,32.7035317 1.64653354,32.6721956 C1.64653354,32.6407631 1.63052803,32.6151157 1.61085861,32.6151157 C1.59128561,32.6151157 1.5752801,32.5767411 1.5752801,32.5298815 C1.5752801,32.4829256 1.55117541,32.4352948 1.5217677,32.4240138 C1.49235999,32.4127328 1.4682553,32.3718512 1.4682553,32.3331873 C1.4682553,32.2945234 1.45224979,32.2529669 1.43267679,32.2409146 C1.41300737,32.2287658 1.39700186,32.1646474 1.39700186,32.0983113 C1.39700186,32.0319752 1.38099635,31.9678568 1.36132693,31.955708 C1.34175393,31.9436557 1.32574842,31.8063554 1.32574842,31.6506391 C1.32574842,31.4856667 1.31080351,31.3675537 1.29007348,31.3675537 C1.26722225,31.3675537 1.25439855,31.0237245 1.25439855,30.4073196 C1.25439855,29.8055703 1.26770434,29.4387934 1.29007348,29.4250055 C1.30964649,29.4128568 1.32574842,29.2765207 1.32574842,29.1219614 C1.32574842,28.9674986 1.34175393,28.8311625 1.36132693,28.8190138 C1.38099635,28.806865 1.39700186,28.7507493 1.39700186,28.6942479 C1.39700186,28.6377466 1.41300737,28.5816309 1.43267679,28.5694821 C1.45224979,28.5573333 1.4682553,28.5175124 1.4682553,28.4808733 C1.4682553,28.4441377 1.49235999,28.3901433 1.5217677,28.3607355 C1.55117541,28.3313278 1.5752801,28.2820579 1.5752801,28.2512039 C1.5752801,28.2204463 1.59128561,28.1951846 1.61085861,28.1951846 C1.63052803,28.1951846 1.64653354,28.1705014 1.64653354,28.1402259 C1.64653354,28.1100468 1.67864098,28.0508457 1.71778698,28.0088072 C1.75702941,27.9666722 1.78913685,27.9104601 1.78913685,27.8839449 C1.78913685,27.8365069 1.94359966,27.6605427 1.98515613,27.6605427 C2.02131315,27.6605427 2.18117541,27.4874711 2.18117541,27.4483251 C2.18117541,27.4277879 2.20971536,27.411011 2.24461894,27.411011 C2.27952252,27.411011 2.33120296,27.379 2.35945365,27.3397576 C2.38770434,27.3005152 2.44738753,27.2685041 2.49202941,27.2685041 C2.5367677,27.2685041 2.5733104,27.2524022 2.5733104,27.2328292 C2.5733104,27.2132562 2.62142335,27.1971543 2.68023877,27.1971543 C2.7390542,27.1971543 2.78716715,27.1826915 2.78716715,27.1649504 C2.78716715,27.1028568 3.63227734,27.0299642 3.68945365,27.0871405 C3.71076219,27.108449 3.78510103,27.1260937 3.85471536,27.1263829 C3.9789991,27.1269614 4.22361343,27.1959973 4.27172638,27.2440138 C4.28512858,27.2575124 4.32552803,27.2685041 4.36149222,27.2685041 C4.39735999,27.2685041 4.4267677,27.2845096 4.4267677,27.3040827 C4.4267677,27.3237521 4.4514509,27.3397576 4.48143712,27.3397576 C4.51151977,27.3397576 4.58315888,27.3878705 4.64062445,27.446686 C4.69818643,27.5055014 4.7618228,27.5536143 4.78207073,27.5536143 C4.80231866,27.5536143 4.81890269,27.571259 4.81890269,27.5927603 C4.81890269,27.6143581 4.86701563,27.6769339 4.92583106,27.7318926 C4.98464649,27.7867548 5.03275944,27.8489449 5.03275944,27.8700606 C5.03275944,27.8910799 5.06477045,27.9608871 5.10391646,28.0250055 C5.14306247,28.0892204 5.1751699,28.1678981 5.1751699,28.1998127 C5.17526632,28.2317273 5.19937101,28.277719 5.22877872,28.302113 C5.26416439,28.3315207 5.28229112,28.4113554 5.28229112,28.5382424 L5.28229112,28.7299229 L5.92386136,28.7299229 L6.56552803,28.7299229 L6.56552803,28.5873196 C6.56552803,28.5089311 6.5494261,28.4447163 6.5298531,28.4447163 C6.50950875,28.4447163 6.49417817,28.3384628 6.49417817,28.1973058 C6.49417817,28.061259 6.47817266,27.9399642 6.45850324,27.9279119 C6.43893023,27.9157631 6.42292472,27.8596474 6.42292472,27.803146 C6.42292472,27.7466446 6.4068228,27.6905289 6.38724979,27.6783802 C6.36767679,27.6662314 6.35157486,27.6252535 6.35157486,27.5871681 C6.35157486,27.5490827 6.33556935,27.5179394 6.31599635,27.5179394 C6.29632693,27.5179394 6.28032142,27.488146 6.28032142,27.4516997 C6.28032142,27.4152535 6.24021123,27.355281 6.19123051,27.318449 C6.14224979,27.2816171 6.1021396,27.2297438 6.1021396,27.2030358 C6.1021396,27.1763278 6.05402665,27.1095096 5.99521123,27.054551 C5.9363958,26.9996887 5.88818643,26.9408733 5.88818643,26.924 C5.88818643,26.9071267 5.8452801,26.8614242 5.79273189,26.8224711 C5.74018368,26.7835179 5.66063822,26.7155427 5.61609277,26.6713829 C5.57154731,26.6273196 5.51408175,26.591259 5.48843437,26.591259 C5.46278698,26.591259 5.41168506,26.5511488 5.3748531,26.5020716 C5.33802114,26.4530909 5.27814511,26.4129807 5.24160241,26.4129807 C5.20515613,26.4129807 5.17536274,26.3969752 5.17536274,26.3773058 C5.17536274,26.3577328 5.1432553,26.3417273 5.10401288,26.3417273 C5.06486687,26.3417273 5.03275944,26.3256254 5.03275944,26.3060523 C5.03275944,26.2864793 4.98561068,26.2703774 4.92795227,26.2703774 C4.87029387,26.2703774 4.81321398,26.2543719 4.80106522,26.2347989 C4.78891646,26.2151295 4.73183657,26.199124 4.67417817,26.199124 C4.61651977,26.199124 4.56937101,26.1831185 4.56937101,26.163449 C4.56937101,26.143876 4.49724979,26.1278705 4.40902665,26.1278705 C4.32080351,26.1278705 4.24858588,26.1117686 4.24858588,26.0921956 C4.24858588,26.0694408 3.94563822,26.0565207 3.41089993,26.0565207 C2.87625806,26.0565207 2.5733104,26.0694408 2.5733104,26.0921956 M10.5220707,28.2293168 C10.5220707,28.2497576 10.4498531,28.2665344 10.36163,28.2665344 C10.2734068,28.2665344 10.2011892,28.28254 10.2011892,28.302113 C10.2011892,28.3217824 10.1703352,28.3377879 10.132539,28.3377879 C10.0946465,28.3377879 10.0396878,28.3618926 10.0102801,28.3913003 C9.98087238,28.420708 9.92359966,28.4447163 9.88300737,28.4447163 C9.84241508,28.4447163 9.80915062,28.4608182 9.80915062,28.4803912 C9.80915062,28.4999642 9.77704318,28.5160661 9.73789718,28.5160661 C9.69865475,28.5160661 9.66654731,28.5320716 9.66654731,28.5516446 C9.66654731,28.5713141 9.64138202,28.5873196 9.61052803,28.5873196 C9.57977045,28.5873196 9.53426081,28.6073747 9.5094812,28.631865 C9.48470158,28.6563554 9.42174015,28.7083251 9.3694812,28.7472782 C9.31722225,28.7862314 9.27450875,28.8320303 9.27450875,28.8490964 C9.27450875,28.8661625 9.18628561,28.9628705 9.07839304,29.0640138 C8.9705969,29.165157 8.88237376,29.2757493 8.88237376,29.3096887 C8.88237376,29.3437245 8.86636825,29.3714931 8.84669883,29.3714931 C8.82712583,29.3714931 8.81112032,29.4106391 8.81112032,29.4584628 C8.81112032,29.5063829 8.79501839,29.5554601 8.77544539,29.5675124 C8.75587238,29.5796612 8.73977045,29.7249642 8.73977045,29.8904187 L8.73977045,30.1913416 L9.34190544,30.1913416 C9.99186412,30.1913416 9.98733244,30.1926915 9.98733244,29.9944546 C9.98733244,29.9481736 10.0034344,29.9004463 10.0230074,29.8883939 C10.0425804,29.8762452 10.0586823,29.8418237 10.0586823,29.8118375 C10.0586823,29.737113 10.445225,29.3714931 10.5242884,29.3714931 C10.5594812,29.3714931 10.6123187,29.3474849 10.6417264,29.3180771 C10.6711341,29.2886694 10.7515473,29.2645647 10.8203903,29.2645647 C10.8892333,29.2645647 10.9554729,29.2485592 10.9676217,29.2288898 C10.979674,29.2093168 11.0448531,29.1933113 11.1122498,29.1933113 C11.1797429,29.1933113 11.2348944,29.2093168 11.2348944,29.2288898 C11.2348944,29.2485592 11.3082691,29.2645647 11.3978421,29.2645647 C11.495225,29.2645647 11.5823875,29.2860661 11.6143021,29.3180771 C11.6437098,29.3474849 11.6965473,29.3714931 11.7317402,29.3714931 C11.8232415,29.3714931 12.1973462,29.7413554 12.1973462,29.8317962 C12.1973462,29.8726777 12.2111341,29.906135 12.2280074,29.906135 C12.2448806,29.906135 12.2680211,29.9966722 12.2793986,30.1072645 C12.2908724,30.2179532 12.3170983,30.3253636 12.3378283,30.3460937 C12.3585583,30.3668237 12.375528,30.5009422 12.375528,30.6440276 L12.375528,30.9042617 L11.4131727,30.9042617 C10.7953214,30.9042617 10.4507209,30.916989 10.4507209,30.9398402 C10.4507209,30.9595096 10.3623049,30.9755152 10.2542195,30.9755152 C10.1461341,30.9755152 10.0298531,30.9901708 9.99581729,31.0082011 C9.96178147,31.026135 9.84164373,31.0677879 9.72893023,31.1006667 C9.61621674,31.133449 9.52394401,31.1719201 9.52394401,31.1859973 C9.52394401,31.2001708 9.46782831,31.2337245 9.39927459,31.2606254 C9.33062445,31.2876226 9.27450875,31.3226226 9.27450875,31.3386281 C9.27450875,31.3545372 9.2459688,31.3675537 9.21106522,31.3675537 C9.17616164,31.3675537 9.1244812,31.3996612 9.09623051,31.4389036 C9.06797982,31.478146 9.02815888,31.510157 9.00771811,31.510157 C8.98727734,31.510157 8.9386823,31.5526777 8.89972913,31.604551 C8.86077596,31.6564242 8.77679525,31.755832 8.71306247,31.8253499 C8.64932968,31.8949642 8.59726357,31.9807769 8.59726357,32.0161625 C8.59726357,32.0515482 8.5814509,32.0804738 8.56226357,32.0804738 C8.54307624,32.0804738 8.51675393,32.1246336 8.50383382,32.1785317 C8.49101012,32.2324298 8.465652,32.2953912 8.44762169,32.3183388 C8.40047293,32.3784077 8.40510103,33.4838485 8.45253905,33.4996612 C8.47326908,33.5066033 8.49033519,33.5595372 8.49033519,33.617292 C8.49033519,33.677843 8.5129936,33.7310661 8.54375117,33.7429256 C8.57315888,33.7542066 8.59726357,33.7937383 8.59726357,33.8308595 C8.59726357,33.8679807 8.61326908,33.8983526 8.63284208,33.8983526 C8.6525115,33.8983526 8.66851701,33.9348953 8.66851701,33.9796336 C8.66851701,34.0242755 8.70062445,34.0839587 8.73977045,34.1122094 C8.77901288,34.1404601 8.81112032,34.1852948 8.81112032,34.2118099 C8.81112032,34.2692755 8.89741508,34.3617411 8.95112032,34.3617411 C8.9721396,34.3617411 8.98930214,34.3777466 8.98930214,34.397416 C8.98930214,34.416989 9.02140957,34.4329945 9.060652,34.4329945 C9.099798,34.4329945 9.13190544,34.4502535 9.13190544,34.4712727 C9.13190544,34.5341377 9.22861343,34.6112727 9.30758037,34.6112727 C9.34817266,34.6112727 9.38143712,34.6272782 9.38143712,34.6469477 C9.38143712,34.6665207 9.42955007,34.6825262 9.4883655,34.6825262 C9.54718092,34.6825262 9.59529387,34.6986281 9.59529387,34.7182011 C9.59529387,34.7377741 9.65844814,34.753876 9.73577596,34.753876 C9.81300737,34.753876 9.88609277,34.7698815 9.89824153,34.7894546 C9.91125806,34.8105703 10.1303214,34.8251295 10.4350046,34.8251295 C10.7544399,34.8251295 10.9497842,34.8116309 10.9497842,34.7894546 C10.9497842,34.7698815 11.0058999,34.753876 11.0745501,34.753876 C11.1431038,34.753876 11.1993159,34.7377741 11.1993159,34.7182011 C11.1993159,34.6986281 11.2464647,34.6825262 11.3041231,34.6825262 C11.3617815,34.6825262 11.4188614,34.6665207 11.4310101,34.6469477 C11.4430625,34.6272782 11.4803765,34.6112727 11.5137374,34.6112727 C11.5470983,34.6112727 11.6045638,34.5711625 11.6413958,34.5221818 C11.6782278,34.4731047 11.730101,34.4329945 11.756809,34.4329945 C11.7834206,34.4329945 11.8052112,34.416989 11.8052112,34.397416 C11.8052112,34.3777466 11.8293159,34.3617411 11.8587236,34.3617411 C11.8881313,34.3617411 11.9121396,34.3457355 11.9121396,34.3260661 C11.9121396,34.3064931 11.9321947,34.2904876 11.9566851,34.2903912 C12.0053765,34.2903912 12.1973462,34.1366033 12.1973462,34.0976501 C12.1973462,34.0843444 12.2374564,34.0302535 12.2864371,33.977416 L12.375528,33.8812865 L12.375528,34.1372782 C12.375528,34.2780496 12.39163,34.4031047 12.411203,34.4152535 C12.430776,34.4273058 12.4468779,34.4924849 12.4468779,34.5598815 L12.4468779,34.6825262 L13.1062856,34.6825262 L13.7656933,34.6825262 L13.7656933,34.4890138 C13.7656933,34.3645372 13.7466024,34.2765069 13.7122773,34.2420854 C13.6736134,34.2034215 13.6587649,34.1093168 13.6587649,33.9029807 C13.6587649,33.7459146 13.6427594,33.6074573 13.62309,33.595405 C13.6000459,33.581135 13.5875115,32.9006116 13.5875115,31.6705978 C13.5875115,30.4404876 13.5748806,29.7599642 13.5518366,29.7457906 C13.5322636,29.7336419 13.5161616,29.6695234 13.5161616,29.6031873 C13.5161616,29.5368512 13.5001561,29.4727328 13.4805831,29.460584 C13.4609137,29.4485317 13.4449082,29.4074573 13.4449082,29.3693719 C13.4449082,29.3313829 13.4320845,29.3002397 13.4163683,29.3002397 C13.4007484,29.3002397 13.3675804,29.2440276 13.3428008,29.1754738 C13.3180211,29.1068237 13.2784895,29.050708 13.2549633,29.050708 C13.2315335,29.050708 13.1804316,29.0065482 13.1414784,28.9526501 C13.0220156,28.7873884 12.8494261,28.6312865 12.7162718,28.5681322 C12.6464647,28.5349642 12.5893848,28.493697 12.5893848,28.4763416 C12.5893848,28.4589862 12.5430074,28.4447163 12.4863132,28.4447163 C12.4274977,28.4447163 12.374371,28.4217686 12.3627043,28.3913003 C12.3514233,28.3618926 12.3095776,28.3377879 12.2697567,28.3377879 C12.2299357,28.3377879 12.1973462,28.3233251 12.1973462,28.305584 C12.1973462,28.2560248 11.8845638,28.2263278 11.1725115,28.2084904 C10.7344812,28.1974986 10.5220707,28.2043444 10.5220707,28.2293168 M18.0074426,28.2308595 C18.0074426,28.2504325 17.9512305,28.2665344 17.8826768,28.2665344 C17.8140267,28.2665344 17.757911,28.28254 17.757911,28.302113 C17.757911,28.3217824 17.7269605,28.3377879 17.6891644,28.3377879 C17.6513683,28.3377879 17.5963132,28.3618926 17.5669054,28.3913003 C17.5374977,28.420708 17.480225,28.4447163 17.4396327,28.4447163 C17.3990404,28.4447163 17.365776,28.4608182 17.365776,28.4803912 C17.365776,28.4999642 17.3440817,28.5160661 17.317663,28.5160661 C17.2911479,28.5160661 17.2206658,28.5627328 17.1609826,28.6197163 C17.1012994,28.6766997 17.0186685,28.7414931 16.9774013,28.763573 C16.9361341,28.7856529 16.9023875,28.8203636 16.9023875,28.8406116 C16.9023875,28.8797576 16.8146465,28.9794546 16.780225,28.9794546 C16.7690404,28.9794546 16.7598806,28.843022 16.7598806,28.6764105 C16.7598806,28.4982287 16.7451286,28.3734628 16.7242057,28.3734628 C16.7046327,28.3734628 16.6885308,28.3489725 16.6885308,28.3190827 C16.6885308,28.2722231 16.6088889,28.2660523 16.1093435,28.2745372 L15.5300597,28.2843719 L15.5209963,31.483449 L15.511933,34.6825262 L16.1715335,34.6825262 L16.8311341,34.6825262 L16.8311341,32.3379119 C16.8311341,30.0340827 16.8323875,29.9923333 16.9023875,29.9418099 C16.94163,29.9135592 16.9737374,29.853876 16.9737374,29.8092342 C16.9737374,29.7644959 16.991382,29.7279532 17.0128834,29.7279532 C17.0343848,29.7279532 17.0945501,29.6837934 17.1465198,29.6298953 C17.2385032,29.5346336 17.272539,29.5145785 17.5529247,29.391259 C17.6264922,29.3589587 17.6865611,29.3172094 17.6865611,29.2985041 C17.6865611,29.2383388 18.4319743,29.2563692 18.4936823,29.3180771 C18.52309,29.3474849 18.5781451,29.3714931 18.6159413,29.3714931 C18.6537374,29.3714931 18.6846878,29.3836419 18.6846878,29.3984904 C18.6846878,29.4132424 18.7367539,29.4483388 18.8004867,29.4764931 C18.9431864,29.5393581 19.0054729,29.5987521 19.0054729,29.6719339 C19.0054729,29.7027879 19.0214784,29.7279532 19.0411479,29.7279532 C19.0607209,29.7279532 19.0767264,29.7519614 19.0767264,29.7813692 C19.0767264,29.8107769 19.0928283,29.8348815 19.1124013,29.8348815 C19.1319743,29.8348815 19.1480762,29.8660248 19.1480762,29.9041102 C19.1480762,29.9420992 19.1640817,29.9831736 19.1836548,29.9953223 C19.2033242,30.0073747 19.2193297,30.0724573 19.2193297,30.1399504 C19.2193297,30.2074435 19.2353352,30.262595 19.2550046,30.262595 C19.2783379,30.262595 19.2905831,31.0230496 19.2905831,32.4726088 L19.2905831,34.6825262 L19.9500873,34.6825262 L20.609495,34.6825262 L20.609495,32.5973747 C20.609495,31.2309284 20.6217402,30.5121267 20.6450735,30.5121267 C20.6647429,30.5121267 20.6807484,30.4399091 20.6807484,30.351686 C20.6807484,30.2634628 20.6967539,30.1913416 20.7164233,30.1913416 C20.7359963,30.1913416 20.7520019,30.1592342 20.7520019,30.1199917 C20.7520019,30.0808457 20.7669468,30.0487383 20.7850735,30.0487383 C20.8182415,30.0487383 20.9302801,29.8511763 20.9302801,29.792843 C20.9302801,29.7301708 21.2513545,29.4427466 21.3214509,29.4427466 C21.3611754,29.4427466 21.3936685,29.4267411 21.3936685,29.4071681 C21.3936685,29.3874986 21.4246189,29.3714931 21.4624151,29.3714931 C21.5002112,29.3714931 21.5551699,29.3474849 21.5845776,29.3180771 C21.6246878,29.2779669 21.723517,29.2645647 21.9792195,29.2645647 C22.2587374,29.2645647 22.3204454,29.2742066 22.3204454,29.3180771 C22.3204454,29.3474849 22.3439716,29.3714931 22.3728008,29.3714931 C22.5373875,29.3714931 22.8807346,29.6690413 22.9152525,29.8416309 C22.9264371,29.8975537 22.9495776,29.9519339 22.9666437,29.9624435 C22.9837098,29.9730496 22.9976906,30.0199091 22.9976906,30.0665758 C22.9976906,30.1132424 23.0136961,30.1613554 23.0332691,30.1735041 C23.0564096,30.1877741 23.068944,30.9629807 23.068944,32.3826501 C23.068944,33.5855703 23.0786823,34.5951708 23.0905418,34.6261212 C23.1091506,34.6747163 23.2013269,34.6825262 23.7500459,34.6825262 L24.3877594,34.6825262 L24.3877594,32.401259 C24.3877594,30.9042617 24.3755143,30.1199917 24.3521809,30.1199917 C24.3325115,30.1199917 24.316506,30.0407355 24.316506,29.9439311 C24.316506,29.8470303 24.3005005,29.757843 24.2808311,29.7457906 C24.2612581,29.7336419 24.2452525,29.676562 24.2452525,29.6189036 C24.2452525,29.5612452 24.2291506,29.5140964 24.2095776,29.5140964 C24.1900046,29.5140964 24.1739027,29.4659835 24.1739027,29.4071681 C24.1739027,29.3483526 24.1578972,29.3002397 24.1383242,29.3002397 C24.1186548,29.3002397 24.1026492,29.2769063 24.1026492,29.2483664 C24.1026492,29.2198265 24.062539,29.1563829 24.0135583,29.1074022 C23.9644812,29.0584215 23.924371,29.0017273 23.924371,28.9814793 C23.924371,28.8843857 23.5432278,28.5160661 23.4428559,28.5160661 C23.413641,28.5160661 23.3897291,28.4999642 23.3897291,28.4803912 C23.3897291,28.4608182 23.3676492,28.4447163 23.340652,28.4447163 C23.3136548,28.4447163 23.2716162,28.420708 23.2471258,28.3913003 C23.2227319,28.3618926 23.1726906,28.3377879 23.1358586,28.3377879 C23.0990267,28.3377879 23.068944,28.3217824 23.068944,28.302113 C23.068944,28.28254 23.0217952,28.2665344 22.9641368,28.2665344 C22.9064784,28.2665344 22.8493986,28.2504325 22.8372498,28.2308595 C22.8241368,28.209551 22.5933104,28.1951846 22.2648118,28.1951846 C21.9216575,28.1951846 21.7144537,28.2086832 21.7144537,28.2308595 C21.7144537,28.2504325 21.6583379,28.2665344 21.5896878,28.2665344 C21.5210377,28.2665344 21.464922,28.28254 21.464922,28.302113 C21.464922,28.3217824 21.4339716,28.3377879 21.3961754,28.3377879 C21.3583793,28.3377879 21.3034206,28.3618926 21.2740129,28.3913003 C21.2446052,28.420708 21.1972636,28.4447163 21.16882,28.4447163 C21.1403765,28.4447163 21.0509963,28.5089311 20.9701975,28.5873196 C20.8893986,28.665708 20.811203,28.7301157 20.7965473,28.7305014 C20.7500735,28.7314656 20.5381451,28.9334628 20.5381451,28.9768512 C20.5381451,29.0181185 20.3807897,29.1933113 20.3437649,29.1933113 C20.3330625,29.1933113 20.3242884,29.1687245 20.3242884,29.1387383 C20.3242884,29.1086557 20.3002801,29.0749091 20.2708724,29.0636281 C20.2414647,29.0523471 20.21736,29.012719 20.21736,28.9755978 C20.21736,28.9384766 20.2013545,28.9081047 20.1816851,28.9081047 C20.1621121,28.9081047 20.1461065,28.8908457 20.1461065,28.8696336 C20.1461065,28.8485179 20.0837236,28.7723471 20.0074564,28.7003223 C19.792057,28.4970716 19.7218641,28.4447163 19.664495,28.4447163 C19.6352801,28.4447163 19.6114647,28.430832 19.6114647,28.4139587 C19.6114647,28.3743306 19.3303076,28.2665344 19.2270432,28.2665344 C19.1835583,28.2665344 19.1480762,28.2504325 19.1480762,28.2308595 C19.1480762,28.2085868 18.9341231,28.1951846 18.5777594,28.1951846 C18.2212994,28.1951846 18.0074426,28.2085868 18.0074426,28.2308595 M28.2730487,28.2308595 C28.2730487,28.2504325 28.216933,28.2665344 28.1482829,28.2665344 C28.0797291,28.2665344 28.023517,28.28254 28.023517,28.302113 C28.023517,28.3217824 27.994495,28.3377879 27.9591093,28.3377879 C27.9236272,28.3377879 27.8634619,28.3613141 27.8253765,28.3901433 C27.7873875,28.418876 27.7316575,28.4429807 27.7016713,28.4435592 C27.6716851,28.4442342 27.6240542,28.4768237 27.5958035,28.5160661 C27.5675528,28.5552121 27.5158724,28.5873196 27.4809688,28.5873196 C27.4461616,28.5873196 27.4176217,28.6033251 27.4176217,28.6229945 C27.4176217,28.6425675 27.3975666,28.6587658 27.3730762,28.6588623 C27.3150322,28.6592479 26.9276217,29.0277603 26.7924426,29.2110523 C26.7345914,29.2895372 26.6791506,29.3616584 26.6692195,29.3714931 C26.6592884,29.3813278 26.6283379,29.4333939 26.6005694,29.4873884 C26.5728008,29.5412865 26.5367402,29.5853499 26.5204454,29.5853499 C26.5041506,29.5853499 26.4908448,29.6241102 26.4908448,29.6715482 C26.4908448,29.7188898 26.4787925,29.7629532 26.4641368,29.7695096 C26.4220019,29.7882149 26.3125666,30.0002397 26.3125666,30.0632011 C26.3125666,30.0944408 26.2965611,30.1199917 26.2769881,30.1199917 C26.2573187,30.1199917 26.2413132,30.1832424 26.2413132,30.2604738 C26.2413132,30.3378017 26.2253076,30.4108871 26.2056382,30.4230358 C26.1860652,30.4350882 26.1700597,30.5153085 26.1700597,30.6012176 C26.1700597,30.6871267 26.1539578,30.7673471 26.1343848,30.7794959 C26.1124977,30.7929945 26.0987098,31.0828292 26.0987098,31.5301157 C26.0987098,31.9920579 26.1118228,32.2587521 26.1343848,32.2587521 C26.1539578,32.2587521 26.1700597,32.3469752 26.1700597,32.4547714 C26.1700597,32.5625675 26.1860652,32.6507906 26.2056382,32.6507906 C26.2253076,32.6507906 26.2413132,32.7071956 26.2413132,32.7760386 C26.2413132,32.8900055 26.2645501,32.9591377 26.354798,33.1141791 C26.3719605,33.1435868 26.3953903,33.1957493 26.4069605,33.2300744 C26.4184344,33.264303 26.442057,33.2924573 26.4593159,33.2924573 C26.4766713,33.2924573 26.4908448,33.3244683 26.4908448,33.3637108 C26.4908448,33.4029532 26.5068503,33.4349642 26.5265198,33.4349642 C26.5460928,33.4349642 26.5620983,33.4640827 26.5620983,33.4995647 C26.5620983,33.5350468 26.5942057,33.5985868 26.6334481,33.6406254 C26.6725941,33.6827603 26.7047016,33.7299091 26.7047016,33.7454325 C26.704798,33.7920992 26.870349,33.9697025 26.9138338,33.9697025 C26.9360101,33.9697025 26.9542333,33.9872507 26.9542333,34.0088485 C26.9542333,34.072292 27.2804178,34.3617411 27.3519605,34.3617411 C27.3880211,34.3617411 27.4176217,34.3777466 27.4176217,34.397416 C27.4176217,34.416989 27.4496327,34.4329945 27.4888751,34.4329945 C27.5285032,34.4329945 27.5601286,34.4568099 27.5601286,34.4865069 C27.5601286,34.5162039 27.5918503,34.5400193 27.6314784,34.5400193 C27.6706244,34.5400193 27.7027319,34.5560248 27.7027319,34.5755978 C27.7027319,34.5952672 27.7428421,34.6112727 27.7918228,34.6112727 C27.8408999,34.6112727 27.8810101,34.6272782 27.8810101,34.6469477 C27.8810101,34.6665207 27.9291231,34.6825262 27.9879385,34.6825262 C28.0467539,34.6825262 28.0948669,34.6986281 28.0948669,34.7182011 C28.0948669,34.7377741 28.18309,34.753876 28.2908862,34.753876 C28.3986823,34.753876 28.4869054,34.7698815 28.4869054,34.7894546 C28.4869054,34.8117273 28.7007622,34.8251295 29.0572222,34.8251295 C29.4136823,34.8251295 29.627539,34.8117273 29.627539,34.7894546 C29.627539,34.7698815 29.7157622,34.753876 29.8235583,34.753876 C29.9314509,34.753876 30.019674,34.7377741 30.019674,34.7182011 C30.019674,34.6986281 30.0917952,34.6825262 30.1800184,34.6825262 C30.2682415,34.6825262 30.3404592,34.6665207 30.3404592,34.6469477 C30.3404592,34.6272782 30.3591644,34.6112727 30.3819192,34.6112727 C30.4484481,34.6112727 30.6969192,34.4933526 30.6969192,34.4618237 C30.6969192,34.446011 30.7290267,34.4329945 30.7681727,34.4329945 C30.8074151,34.4329945 30.8395225,34.416989 30.8395225,34.397416 C30.8395225,34.3777466 30.8635308,34.3617411 30.8929385,34.3617411 C30.9223462,34.3617411 30.9464509,34.3482424 30.9464509,34.3317548 C30.9464509,34.3151708 31.0167402,34.2655152 31.1026492,34.2213554 C31.2812167,34.1294683 31.3764784,33.9934215 31.3092746,33.9261212 C31.2861341,33.9030771 31.267236,33.8588209 31.267236,33.8277741 C31.267236,33.7968237 31.2343572,33.7479394 31.194247,33.7191102 C31.1248256,33.6692617 31.0177043,33.4936832 31.0177043,33.4297576 C31.0177043,33.4133664 30.9827043,33.3596612 30.9399908,33.3104876 C30.8625666,33.2214931 30.6612443,33.1826364 30.6612443,33.2567824 C30.6612443,33.2763554 30.6322222,33.2924573 30.5966437,33.2924573 C30.5611616,33.2924573 30.5009963,33.3205152 30.4630074,33.3547438 C30.4250184,33.3890689 30.3297567,33.4492342 30.2513683,33.4884766 C30.1728834,33.5276226 30.1034619,33.5717824 30.0969054,33.586438 C30.090349,33.6011901 30.0542884,33.6132424 30.0166851,33.6132424 C29.9790817,33.6132424 29.9483242,33.6292479 29.9483242,33.6488209 C29.9483242,33.6684904 29.8851699,33.6844959 29.8078421,33.6844959 C29.7306107,33.6844959 29.6575253,33.7005014 29.6453765,33.7201708 C29.6322636,33.7413829 29.4074151,33.7557493 29.090776,33.7557493 C28.7594812,33.7557493 28.5582553,33.7423471 28.5582553,33.7201708 C28.5582553,33.7005014 28.5101424,33.6844959 28.4513269,33.6844959 C28.3925115,33.6844959 28.3443986,33.6684904 28.3443986,33.6488209 C28.3443986,33.6292479 28.3276217,33.6132424 28.3071809,33.6132424 C28.261382,33.6132424 28.2040129,33.5665758 28.0125253,33.3733526 C27.7508448,33.1092617 27.7027319,33.0470716 27.7027319,32.9729256 C27.7027319,32.9330083 27.6867264,32.9003223 27.667057,32.9003223 C27.647484,32.9003223 27.6314784,32.8682149 27.6314784,32.8290689 C27.6314784,32.7898265 27.6153765,32.757719 27.5958035,32.757719 C27.5762305,32.757719 27.5601286,32.7105703 27.5601286,32.6529119 C27.5601286,32.5952535 27.5441231,32.5381736 27.5245501,32.5260248 C27.5048806,32.5139725 27.4888751,32.4407906 27.4888751,32.3635592 C27.4888751,32.2863278 27.4728696,32.2230771 27.4532002,32.2230771 C27.4336272,32.2230771 27.4176217,32.134854 27.4176217,32.0270579 L27.4176217,31.8309422 L29.4493572,31.8309422 L31.4810928,31.8309422 L31.4810928,31.1359559 C31.4810928,30.6962865 31.4679798,30.4408733 31.4454178,30.4408733 C31.4258448,30.4408733 31.4098393,30.3526501 31.4098393,30.2447576 C31.4098393,30.1369614 31.3937374,30.0487383 31.3741644,30.0487383 C31.354495,30.0487383 31.3382966,30.0126777 31.3380074,29.9685179 C31.3374289,29.8816446 31.2599082,29.6375124 31.2203765,29.5978843 C31.2068779,29.5844821 31.1958862,29.5440827 31.1958862,29.5081185 C31.1958862,29.4721543 31.1718779,29.4427466 31.1424702,29.4427466 C31.1130625,29.4427466 31.0889578,29.4137245 31.0889578,29.3782424 C31.0889578,29.3426639 31.0569468,29.2792204 31.0177043,29.2370854 C30.9784619,29.1950468 30.9464509,29.1433664 30.9464509,29.1222507 C30.9464509,29.0625675 30.4566437,28.5873196 30.3951286,28.5873196 C30.3650459,28.5873196 30.3404592,28.5713141 30.3404592,28.5516446 C30.3404592,28.5320716 30.3124013,28.5159697 30.2780762,28.5159697 C30.2437512,28.5159697 30.1691231,28.4758595 30.1121396,28.4268788 C30.0551561,28.3778981 29.9638476,28.3377879 29.9092746,28.3377879 C29.8547016,28.3377879 29.8000322,28.3217824 29.7879798,28.302113 C29.7758311,28.28254 29.7187512,28.2665344 29.6610928,28.2665344 C29.6034344,28.2665344 29.5562856,28.2504325 29.5562856,28.2308595 C29.5562856,28.2083939 29.3186134,28.1951846 28.9147154,28.1951846 C28.5107209,28.1951846 28.2730487,28.2083939 28.2730487,28.2308595 M34.7247154,28.2308595 C34.7247154,28.2504325 34.644495,28.2665344 34.5465335,28.2665344 C34.4484757,28.2665344 34.3682553,28.28254 34.3682553,28.302113 C34.3682553,28.3217824 34.3356658,28.3377879 34.2958448,28.3377879 C34.2560239,28.3377879 34.2142746,28.3618926 34.2029936,28.3913003 C34.1912305,28.4217686 34.1381038,28.4447163 34.0792884,28.4447163 C34.0225941,28.4447163 33.9762167,28.4608182 33.9762167,28.4803912 C33.9762167,28.4999642 33.9521121,28.5160661 33.9227043,28.5160661 C33.8932966,28.5160661 33.8692884,28.5320716 33.8692884,28.5516446 C33.8692884,28.5713141 33.8447016,28.5873196 33.8146189,28.5873196 C33.7535859,28.5873196 33.5128283,28.8138072 33.5128283,28.8712727 C33.5128283,28.8915207 33.4948944,28.9081047 33.4731038,28.9081047 C33.4197842,28.9081047 33.1920432,29.1593719 33.1920432,29.2180909 C33.1920432,29.2436419 33.1759413,29.2645647 33.1563683,29.2645647 C33.1367952,29.2645647 33.1206933,29.3046749 33.1206933,29.3536557 C33.1206933,29.4027328 33.1046878,29.4427466 33.0851148,29.4427466 C33.0654454,29.4427466 33.0494399,29.4896061 33.0494399,29.5467824 C33.0494399,29.6039587 33.0293848,29.6573747 33.0048944,29.6655703 C32.930652,29.690157 32.919371,30.4698953 32.9928421,30.4980496 C33.0261065,30.5107769 33.0494399,30.5613967 33.0494399,30.6207906 C33.0494399,30.6763278 33.0654454,30.7316722 33.0851148,30.7438209 C33.1046878,30.7559697 33.1206933,30.7969477 33.1206933,30.8350331 C33.1206933,30.8731185 33.1340955,30.9042617 33.1503903,30.9042617 C33.1666851,30.9042617 33.2027457,30.947843 33.2305143,31.0011625 C33.2999357,31.1340276 33.5365473,31.3675537 33.6019192,31.3675537 C33.6313269,31.3675537 33.6554316,31.3806667 33.6554316,31.3965758 C33.6554316,31.4125813 33.7115473,31.4475813 33.7801975,31.4745785 C33.8487512,31.5014793 33.9049633,31.5365758 33.9049633,31.5524849 C33.9049633,31.5683939 33.9277181,31.5815069 33.9554867,31.5815069 C34.0149771,31.5815069 34.2381864,31.6942204 34.2554454,31.7329807 C34.2620019,31.7476364 34.3131038,31.7596887 34.3691231,31.7596887 C34.4251424,31.7596887 34.4809688,31.7756942 34.4930211,31.7953636 C34.5051699,31.8149366 34.5532829,31.8309422 34.5999495,31.8309422 C34.6467126,31.8309422 34.6948256,31.8470441 34.7068779,31.8666171 C34.7190267,31.8861901 34.7841093,31.902292 34.8516024,31.902292 C34.9190955,31.902292 34.974247,31.9182975 34.974247,31.9378705 C34.974247,31.95754 35.0464647,31.9735455 35.1346878,31.9735455 C35.222911,31.9735455 35.2950322,31.989551 35.2950322,32.0092204 C35.2950322,32.0287934 35.359247,32.0448953 35.4376355,32.0448953 C35.5160239,32.0448953 35.5802388,32.0609008 35.5802388,32.0804738 C35.5802388,32.1001433 35.6082966,32.1162452 35.6426217,32.1163416 C35.6769468,32.116438 35.7508999,32.1405427 35.8071121,32.169854 C35.8632278,32.1990689 35.9393986,32.2230771 35.9764233,32.2230771 C36.0133517,32.2230771 36.0436272,32.2390827 36.0436272,32.2587521 C36.0436272,32.2783251 36.0756382,32.2943306 36.1148806,32.2943306 C36.1541231,32.2943306 36.1861341,32.3104325 36.1861341,32.3300055 C36.1861341,32.3495785 36.2037787,32.3656804 36.2253765,32.3656804 C36.276382,32.3656804 36.5070156,32.5962176 36.5070156,32.6472231 C36.5070156,32.6688209 36.5230211,32.6864656 36.5425941,32.6864656 C36.5633242,32.6864656 36.5782691,32.8029394 36.5782691,32.9645372 L36.5782691,33.2426088 L36.4089578,33.4282149 C36.3158173,33.5302259 36.2115886,33.6136281 36.1772636,33.6134353 C36.1429385,33.6133388 36.1148806,33.6292479 36.1148806,33.6488209 C36.1148806,33.6684904 36.0837374,33.6844959 36.045652,33.6844959 C36.007663,33.6844959 35.9665886,33.7005014 35.9544399,33.7201708 C35.9414233,33.7413829 35.7164784,33.7557493 35.3998393,33.7557493 C35.068641,33.7557493 34.8673187,33.7423471 34.8673187,33.7201708 C34.8673187,33.7005014 34.8352112,33.6844959 34.7960652,33.6844959 C34.7568228,33.6844959 34.7247154,33.6684904 34.7247154,33.6488209 C34.7247154,33.6292479 34.6927043,33.6132424 34.6534619,33.6132424 C34.6142195,33.6132424 34.5822085,33.5971405 34.5822085,33.5775675 C34.5822085,33.5579945 34.5621534,33.5418926 34.5375666,33.5418926 C34.4696878,33.5418926 34.1900735,33.2727879 34.1900735,33.207416 C34.1900735,33.1757906 34.174068,33.149854 34.1543986,33.149854 C34.1348256,33.149854 34.11882,33.1027052 34.11882,33.0450468 C34.11882,32.9873884 34.1027181,32.9302121 34.0831451,32.9181598 C34.0635721,32.906011 34.0474702,32.8329256 34.0474702,32.7555978 L34.0474702,32.6151157 L33.4237374,32.6151157 L32.7999082,32.6151157 L32.7999082,32.9537383 C32.7999082,33.1557355 32.8142746,33.2924573 32.8355831,33.2924573 C32.8551561,33.2924573 32.8712581,33.3405703 32.8712581,33.3993857 C32.8712581,33.4582011 32.8872636,33.5063141 32.9068366,33.5063141 C32.926506,33.5063141 32.9425115,33.5389036 32.9425115,33.5787245 C32.9425115,33.6185455 32.9666162,33.6602948 32.9960239,33.6715758 C33.0254316,33.6828568 33.0494399,33.7160248 33.0494399,33.7453361 C33.0494399,33.774551 33.0975528,33.8433939 33.1563683,33.8983526 C33.2151837,33.9533113 33.2632966,34.0085592 33.2632966,34.0211901 C33.2632966,34.0547438 33.43309,34.2191377 33.4677043,34.2191377 C33.4839027,34.2191377 33.5202525,34.2512452 33.5485032,34.2904876 C33.5767539,34.3296336 33.6245776,34.3617411 33.6548531,34.3617411 C33.6850322,34.3617411 33.7398944,34.4018512 33.7767264,34.450832 C33.8134619,34.4999091 33.8734344,34.5400193 33.9098806,34.5400193 C33.9463269,34.5400193 33.9762167,34.5560248 33.9762167,34.5755978 C33.9762167,34.5952672 34.0243297,34.6112727 34.0831451,34.6112727 C34.1419605,34.6112727 34.1900735,34.6272782 34.1900735,34.6469477 C34.1900735,34.6665207 34.2461892,34.6825262 34.3148393,34.6825262 C34.3834895,34.6825262 34.4396052,34.6986281 34.4396052,34.7182011 C34.4396052,34.7377741 34.5027594,34.753876 34.5800873,34.753876 C34.6573187,34.753876 34.7304041,34.7698815 34.7425528,34.7894546 C34.755955,34.8111488 35.0161892,34.8251295 35.4040817,34.8251295 C35.80663,34.8251295 36.0436272,34.8119201 36.0436272,34.7894546 C36.0436272,34.7698815 36.1228834,34.753876 36.2196878,34.753876 C36.3165886,34.753876 36.405776,34.7377741 36.4178283,34.7182011 C36.4299771,34.6986281 36.4712443,34.6825262 36.5095225,34.6825262 C36.5478972,34.6825262 36.6070983,34.6678705 36.6411341,34.6499366 C36.6751699,34.6319063 36.7632002,34.5911212 36.8366713,34.5591102 C36.9102388,34.5270992 36.9703076,34.4857355 36.9703076,34.4670303 C36.9703076,34.4483251 36.9988476,34.4329945 37.0337512,34.4329945 C37.0686548,34.4329945 37.1203352,34.4009835 37.1485859,34.3617411 C37.1768366,34.3224986 37.2129936,34.2904876 37.2289027,34.2904876 C37.2448118,34.2904876 37.3134619,34.234854 37.3814371,34.1668788 C37.4494123,34.0989036 37.5050459,34.0302535 37.5050459,34.0143444 C37.5050459,33.9984353 37.537057,33.9622782 37.5762994,33.9340276 C37.6155418,33.9057769 37.6476492,33.8540964 37.6476492,33.8191928 C37.6476492,33.7842893 37.6716575,33.7557493 37.7010652,33.7557493 C37.7304729,33.7557493 37.7545776,33.7247025 37.7545776,33.6866171 C37.7545776,33.6485317 37.7705831,33.6074573 37.7901561,33.595405 C37.8098256,33.5832562 37.8258311,33.5351433 37.8258311,33.4884766 C37.8258311,33.4417135 37.8418366,33.3936006 37.861506,33.3815482 C37.882236,33.3686281 37.8970845,33.1673058 37.8970845,32.8982011 C37.8970845,32.6144408 37.883393,32.4369339 37.861506,32.4369339 C37.8418366,32.4369339 37.8258311,32.3888209 37.8258311,32.3300055 C37.8258311,32.2711901 37.8098256,32.2230771 37.7901561,32.2230771 C37.7705831,32.2230771 37.7545776,32.1932838 37.7545776,32.1567411 C37.7545776,32.1202948 37.7144674,32.0603223 37.6653903,32.0235868 C37.6164096,31.9867548 37.5762994,31.9342066 37.5762994,31.9068237 C37.5762994,31.8563003 37.4039027,31.6885317 37.3518366,31.6884353 C37.3362167,31.6884353 37.2862718,31.6483251 37.2408586,31.5992479 C37.195349,31.5502672 37.1320019,31.510157 37.0998944,31.510157 C37.0678834,31.510157 37.0416575,31.4941515 37.0416575,31.4745785 C37.0416575,31.4549091 37.0095501,31.4389036 36.9703076,31.4389036 C36.9311616,31.4389036 36.8990542,31.4228017 36.8990542,31.4032287 C36.8990542,31.3836557 36.858944,31.3675537 36.8099633,31.3675537 C36.7609826,31.3675537 36.7208724,31.3515482 36.7208724,31.3319752 C36.7208724,31.3123058 36.6887649,31.2963003 36.6495225,31.2963003 C36.6103765,31.2963003 36.5782691,31.2802948 36.5782691,31.2606254 C36.5782691,31.2410523 36.5320845,31.2250468 36.4756795,31.2250468 C36.4192746,31.2250468 36.3531313,31.2009422 36.3287374,31.1715344 C36.3043435,31.1421267 36.2471671,31.1181185 36.2017539,31.1181185 C36.1562443,31.1181185 36.1091919,31.1020165 36.0970432,31.0824435 C36.0849908,31.0628705 36.011809,31.0467686 35.9345776,31.0467686 C35.8572498,31.0467686 35.7940955,31.0307631 35.7940955,31.0111901 C35.7940955,30.9915207 35.7308448,30.9755152 35.6536134,30.9755152 C35.576382,30.9755152 35.5032002,30.9595096 35.4911479,30.9398402 C35.4789991,30.9202672 35.4058173,30.9042617 35.3285859,30.9042617 C35.2513545,30.9042617 35.1881038,30.8881598 35.1881038,30.8685868 C35.1881038,30.8490138 35.1239853,30.8329119 35.0455005,30.8329119 C34.9671121,30.8329119 34.9029936,30.8169063 34.9029936,30.7973333 C34.9029936,30.7776639 34.8628834,30.7616584 34.8138063,30.7616584 C34.7648256,30.7616584 34.7247154,30.7450744 34.7247154,30.7249229 C34.7247154,30.7046749 34.6966575,30.6774849 34.6623324,30.6644683 C34.6281038,30.6515482 34.5825941,30.6239725 34.5612856,30.6032424 C34.5400735,30.5825124 34.4799082,30.5337245 34.4276492,30.4947714 C34.3753903,30.4558182 34.3326768,30.3956529 34.3326768,30.361135 C34.3326768,30.3265207 34.3165749,30.29827 34.2970019,30.29827 C34.2769468,30.29827 34.2613269,30.1979945 34.2613269,30.068697 C34.2613269,29.9423884 34.2774289,29.8291928 34.2970019,29.8170441 C34.3165749,29.8048953 34.3326768,29.7639174 34.3326768,29.725832 C34.3326768,29.6877466 34.3467539,29.6566997 34.3640129,29.6566997 C34.3812718,29.6566997 34.4590817,29.5947989 34.5368917,29.519303 C34.614798,29.4437108 34.720955,29.3712039 34.7729247,29.3581873 C34.824798,29.3451708 34.8673187,29.3187521 34.8673187,29.2995647 C34.8673187,29.280281 34.9385721,29.2645647 35.0256382,29.2645647 C35.1127043,29.2645647 35.1937925,29.2485592 35.2059413,29.2288898 C35.21809,29.2093168 35.2822085,29.1933113 35.3485446,29.1933113 C35.4147842,29.1933113 35.4789991,29.2093168 35.4911479,29.2288898 C35.5032002,29.2485592 35.5843848,29.2645647 35.6714509,29.2645647 C35.758517,29.2645647 35.8297705,29.2770028 35.8297705,29.2921405 C35.8297705,29.3072782 35.8898393,29.3511488 35.9634068,29.3896198 C36.0368779,29.4280909 36.1229798,29.4879669 36.1547016,29.5224849 C36.1864233,29.5570992 36.2232553,29.5853499 36.2365611,29.5853499 C36.2909413,29.5853499 36.4356658,29.7654601 36.4356658,29.8332424 C36.4356658,29.8733526 36.4517677,29.906135 36.4713407,29.906135 C36.4909137,29.906135 36.5070156,29.9703499 36.5070156,30.0487383 C36.5070156,30.1271267 36.5230211,30.1913416 36.5425941,30.1913416 C36.5622636,30.1913416 36.5782691,30.2157355 36.5782691,30.2456254 C36.5782691,30.2925813 36.6618641,30.2986557 37.1931313,30.2901708 L37.8079936,30.2804325 L37.8187925,30.0524022 C37.8247705,29.9252259 37.812911,29.8076915 37.7919881,29.7867686 C37.7714509,29.7662314 37.7545776,29.7039449 37.7545776,29.6484077 C37.7545776,29.5916171 37.7311479,29.5384904 37.7010652,29.5270165 C37.6705969,29.5152535 37.6476492,29.4621267 37.6476492,29.4033113 C37.6476492,29.3466171 37.6315473,29.3002397 37.6119743,29.3002397 C37.5924013,29.3002397 37.5762994,29.276135 37.5762994,29.2467273 C37.5762994,29.2173196 37.5602939,29.1933113 37.5406244,29.1933113 C37.5210514,29.1933113 37.5050459,29.1677603 37.5050459,29.1366171 C37.5050459,29.0673884 37.0192884,28.5873196 36.9492884,28.5873196 C36.9216162,28.5873196 36.8990542,28.5713141 36.8990542,28.5516446 C36.8990542,28.5320716 36.858944,28.5160661 36.8099633,28.5160661 C36.7609826,28.5160661 36.7208724,28.4999642 36.7208724,28.4803912 C36.7208724,28.4608182 36.6887649,28.4447163 36.6495225,28.4447163 C36.6103765,28.4447163 36.5782691,28.4317962 36.5782691,28.4159835 C36.5782691,28.3657493 36.3099357,28.2665344 36.1741782,28.2665344 C36.1023462,28.2665344 36.0436272,28.2504325 36.0436272,28.2308595 C36.0436272,28.2083939 35.7999771,28.1951846 35.3841231,28.1951846 C34.9682691,28.1951846 34.7247154,28.2083939 34.7247154,28.2308595 M28.9502939,29.2288898 C28.9502939,29.2485592 29.0367815,29.2645647 29.1425528,29.2645647 C29.280528,29.2645647 29.3405969,29.2796061 29.3552525,29.3180771 C29.3665335,29.3474849 29.4003765,29.3714931 29.4303627,29.3714931 C29.4604454,29.3714931 29.4849357,29.3874986 29.4849357,29.4071681 C29.4849357,29.4267411 29.5170432,29.4427466 29.5562856,29.4427466 C29.5954316,29.4427466 29.627539,29.4588485 29.627539,29.4784215 C29.627539,29.4979945 29.6443159,29.5140964 29.6648531,29.5140964 C29.7231864,29.5140964 29.8586548,29.664124 29.9147705,29.791011 C29.9428283,29.8543581 29.9779247,29.906135 29.9926768,29.906135 C30.0075253,29.906135 30.019674,29.9382424 30.019674,29.9774849 C30.019674,30.0166309 30.0356795,30.0487383 30.0552525,30.0487383 C30.074922,30.0487383 30.0909275,30.0956942 30.0909275,30.1531598 C30.0909275,30.2105289 30.1150322,30.2815895 30.1444399,30.3109973 C30.181079,30.3476364 30.1978559,30.4379807 30.1978559,30.5987108 L30.1978559,30.8329119 L28.8433655,30.8329119 L27.4888751,30.8329119 L27.4888751,30.6725675 C27.4888751,30.5843444 27.5048806,30.5121267 27.5245501,30.5121267 C27.5441231,30.5121267 27.5601286,30.464978 27.5601286,30.4073196 C27.5601286,30.3496612 27.5762305,30.2925813 27.5958035,30.2804325 C27.6153765,30.2682838 27.6314784,30.2273058 27.6314784,30.1892204 C27.6314784,30.151135 27.647484,30.1199917 27.667057,30.1199917 C27.6867264,30.1199917 27.7027319,30.0953085 27.7027319,30.0650331 C27.7027319,30.0347576 27.7428421,29.9667824 27.7918228,29.9138485 C27.8408999,29.861011 27.8810101,29.8051846 27.8810101,29.7897576 C27.8810101,29.7383664 28.1989991,29.4427466 28.2543435,29.4427466 C28.2842333,29.4427466 28.3087236,29.4284766 28.3087236,29.4110248 C28.3087236,29.393573 28.3488338,29.3691791 28.3978145,29.3568375 C28.4467952,29.3445923 28.4869054,29.3187521 28.4869054,29.2995647 C28.4869054,29.280281 28.5511203,29.2645647 28.6295087,29.2645647 C28.7078972,29.2645647 28.7721121,29.2485592 28.7721121,29.2288898 C28.7721121,29.2093168 28.8122222,29.1933113 28.861203,29.1933113 C28.9101837,29.1933113 28.9502939,29.2093168 28.9502939,29.2288898 M12.375528,32.2587521 C12.375528,32.4940138 12.361933,32.6864656 12.345349,32.6864656 C12.3286685,32.6864656 12.2861479,32.750584 12.2507622,32.8290689 C12.2154729,32.9074573 12.1728559,32.9715758 12.1562718,32.9715758 C12.1396878,32.9715758 12.1260928,32.9880634 12.1260928,33.0082149 C12.1260928,33.062113 11.8150459,33.3637108 11.7594123,33.3637108 C11.7331864,33.3637108 11.6806382,33.39254 11.6426492,33.4278292 C11.6046603,33.4632149 11.5454592,33.5027466 11.5111341,33.5158595 C11.4769054,33.5289725 11.4487512,33.556259 11.4487512,33.5764105 C11.4487512,33.5966584 11.3926355,33.6132424 11.3240817,33.6132424 C11.2554316,33.6132424 11.1993159,33.6292479 11.1993159,33.6488209 C11.1993159,33.6684904 11.1190955,33.6844959 11.0210377,33.6844959 C10.9230762,33.6844959 10.8428559,33.7005014 10.8428559,33.7201708 C10.8428559,33.7399366 10.747787,33.7557493 10.6289991,33.7557493 C10.5101148,33.7557493 10.4151424,33.7399366 10.4151424,33.7201708 C10.4151424,33.7005014 10.3670294,33.6844959 10.308214,33.6844959 C10.2493986,33.6844959 10.2011892,33.6684904 10.2011892,33.6488209 C10.2011892,33.6292479 10.1691782,33.6132424 10.1299357,33.6132424 C10.0906933,33.6132424 10.0586823,33.5971405 10.0586823,33.5775675 C10.0586823,33.5579945 10.0414233,33.5418926 10.0205005,33.5418926 C9.97499084,33.5418926 9.88040406,33.4527052 9.88040406,33.4097989 C9.88040406,33.3931185 9.84839304,33.3562865 9.80915062,33.3280358 C9.76730489,33.2978568 9.73789718,33.2357631 9.73789718,33.1776226 C9.73789718,33.123146 9.72179525,33.0785041 9.70222225,33.0785041 C9.68264924,33.0785041 9.66654731,33.0153499 9.66654731,32.938022 C9.66654731,32.8607906 9.68264924,32.7877052 9.70222225,32.7755565 C9.72179525,32.7634077 9.73789718,32.7018926 9.73789718,32.6387383 C9.73789718,32.5648815 9.7632553,32.5056804 9.80915062,32.4726088 C9.84839304,32.4443581 9.88040406,32.3926777 9.88040406,32.3577741 C9.88040406,32.3228705 9.89477045,32.2943306 9.91231866,32.2943306 C9.92986687,32.2943306 9.98202941,32.2545096 10.028214,32.2058182 C10.0743021,32.1572231 10.1285859,32.117113 10.1488338,32.1167273 C10.1689853,32.116438 10.2086134,32.0840413 10.2368641,32.0448953 C10.2651148,32.0056529 10.324798,31.9735455 10.3695363,31.9735455 C10.4141782,31.9735455 10.4507209,31.95754 10.4507209,31.9378705 C10.4507209,31.9182975 10.5149357,31.902292 10.5933242,31.902292 C10.6717126,31.902292 10.7359275,31.8861901 10.7359275,31.8666171 C10.7359275,31.8438623 11.0328972,31.8309422 11.555776,31.8309422 L12.375528,31.8309422 L12.375528,32.2587521" id="Games"></path>
                    </g>
                </g>
            </g>
        </g>
    </g>
</svg>