<?xml version="1.0" encoding="UTF-8"?>
<svg width="144px" height="32px" viewBox="0 0 144 32" version="1.1" xmlns="http://www.w3.org/2000/svg" xmlns:xlink="http://www.w3.org/1999/xlink">
    <!-- Generator: Sketch 52.6 (67491) - http://www.bohemiancoding.com/sketch -->
    <title>Button / Message / Outlined</title>
    <desc>Created with Sketch.</desc>
    <defs>
        <path d="M4,0 L140,0 C142.209139,-4.05812251e-16 144,1.790861 144,4 L144,28 C144,30.209139 142.209139,32 140,32 L4,32 C1.790861,32 2.705415e-16,30.209139 0,28 L0,4 C-2.705415e-16,1.790861 1.790861,4.05812251e-16 4,0 Z" id="path-1"></path>
        <path d="M20,1.5 L4,1.5 C2.9,1.5 2.01,2.175 2.01,3 L2,16.5 L6,13.5 L20,13.5 C21.1,13.5 22,12.825 22,12 L22,3 C22,2.175 21.1,1.5 20,1.5 Z M18,10.5 L6,10.5 L6,9 L18,9 L18,10.5 Z M18,8.25 L6,8.25 L6,6.75 L18,6.75 L18,8.25 Z M18,6 L6,6 L6,4.5 L18,4.5 L18,6 Z" id="path-3"></path>
    </defs>
    <g id="Material-Components" stroke="none" stroke-width="1" fill="none" fill-rule="evenodd">
        <g id="Buttons" transform="translate(-76.000000, -1272.000000)">
            <g id="Buttons-/-Outlined-/-with-Icon-/-Disabled" transform="translate(76.000000, 1272.000000)">
                <mask id="mask-2" fill="white">
                    <use xlink:href="#path-1"></use>
                </mask>
                <path stroke-opacity="0.12" stroke="#000000" stroke-width="1" d="M4,0.5 C2.06700338,0.5 0.5,2.06700338 0.5,4 L0.5,28 C0.5,29.9329966 2.06700338,31.5 4,31.5 L140,31.5 C141.932997,31.5 143.5,29.9329966 143.5,28 L143.5,4 C143.5,2.06700338 141.932997,0.5 140,0.5 L4,0.5 Z"></path>
                <g id="✱-/-Text-/-Button-/-Black-/-Disabled-/-Center" stroke="#979797" stroke-width="1" mask="url(#mask-2)" fill-opacity="0.38" font-family="Roboto-Medium, Roboto" font-size="14" font-weight="400" letter-spacing="1.25" line-spacing="16">
                    <g transform="translate(40.000000, 8.000000)" id="Button" stroke="none">
                        <text>
                            <tspan x="0.458496094" y="13.1728516" fill="#000000">MESSAGE</tspan>
                        </text>
                    </g>
                </g>
                <g id="Scooru-/-Message-/-Filled" mask="url(#mask-2)">
                    <g transform="translate(14.163934, 7.111111)">
                        <mask id="mask-4" fill="white">
                            <use xlink:href="#path-3"></use>
                        </mask>
                        <g id="Message" stroke="none" fill="none" fill-rule="nonzero"></g>
                        <g id="✱-/-Color-/-Icons-/-Selected-/-On-Surface-/-Inactive" stroke="none" fill="none" mask="url(#mask-4)" fill-opacity="0.54" fill-rule="evenodd">
                            <rect id="Rectangle" fill="#414141" x="0" y="0" width="24" height="18"></rect>
                        </g>
                    </g>
                </g>
            </g>
        </g>
    </g>
</svg>