<?xml version="1.0" encoding="UTF-8"?>
<svg width="18px" height="16px" viewBox="0 0 18 16" version="1.1" xmlns="http://www.w3.org/2000/svg" xmlns:xlink="http://www.w3.org/1999/xlink">
    <!-- Generator: Sketch 52.6 (67491) - http://www.bohemiancoding.com/sketch -->
    <title>Icon / Thumbs Up / Filled</title>
    <desc>Created with Sketch.</desc>
    <defs>
        <path d="M0.75,16.5 L3.75,16.5 L3.75,7.5 L0.75,7.5 L0.75,16.5 Z M17.25,8.25 C17.25,7.425 16.575,6.75 15.75,6.75 L11.0175,6.75 L11.73,3.3225 L11.7525,3.0825 C11.7525,2.775 11.625,2.49 11.4225,2.2875 L10.6275,1.5 L5.6925,6.4425 C5.415,6.7125 5.25,7.0875 5.25,7.5 L5.25,15 C5.25,15.825 5.925,16.5 6.75,16.5 L13.5,16.5 C14.1225,16.5 14.655,16.125 14.88,15.585 L17.145,10.2975 C17.2125,10.125 17.25,9.945 17.25,9.75 L17.25,8.3175 L17.2425,8.31 L17.25,8.25 Z" id="path-1"></path>
    </defs>
    <g id="Material-Components" stroke="none" stroke-width="1" fill="none" fill-rule="evenodd">
        <g id="Profiles,-Page-1" transform="translate(-475.000000, -449.000000)">
            <g id="Cards-/-Profiles-/-Detailed" transform="translate(340.000000, 374.000000)">
                <g id="Cards-/-List-1-up-/-Filled-/-Image-Left-/-Selected">
                    <g id="Image-and-Description" transform="translate(135.000000, 18.000000)">
                        <g id="Icon-/-Thumbs-Up-/-Filled" transform="translate(0.000000, 56.000000)">
                            <mask id="mask-2" fill="white">
                                <use xlink:href="#path-1"></use>
                            </mask>
                            <g id="Mask" fill-rule="nonzero"></g>
                            <g id="✱-/-Color-/-Icons-/-Selected-/-On-Surface-/-Inactive" mask="url(#mask-2)" fill="#414141" fill-opacity="0.54" fill-rule="evenodd">
                                <rect id="Rectangle" x="0" y="0" width="18" height="18"></rect>
                            </g>
                        </g>
                    </g>
                </g>
            </g>
        </g>
    </g>
</svg>