<?xml version="1.0" encoding="UTF-8"?>
<svg width="32px" height="32px" viewBox="0 0 32 32" version="1.1" xmlns="http://www.w3.org/2000/svg" xmlns:xlink="http://www.w3.org/1999/xlink">
    <!-- Generator: Sketch 52.6 (67491) - http://www.bohemiancoding.com/sketch -->
    <title>TAB 3</title>
    <desc>Created with Sketch.</desc>
    <defs>
        <rect id="path-1" x="0" y="0" width="32" height="32" rx="16"></rect>
        <path d="M12,8 C13.66,8 15,6.66 15,5 C15,3.34 13.66,2 12,2 C10.34,2 9,3.34 9,5 C9,6.66 10.34,8 12,8 M12,11.55 C9.64,9.35 6.48,8 3,8 L3,19 C6.48,19 9.64,20.35 12,22.55 C14.359,20.359 17.52,19 21,19 L21,8 C17.52,8 14.359,9.35 12,11.55" id="path-3"></path>
    </defs>
    <g id="Material-Components" stroke="none" stroke-width="1" fill="none" fill-rule="evenodd">
        <g id="Bottom-Navigation" transform="translate(-362.000000, -1397.000000)">
            <g id="Bottom-Navigation-/-Primary-Color-/-Inactive-/-Pressed" transform="translate(153.000000, 1365.000000)">
                <g id="Bottom-Navigation-/-4-up-/-Primary-Color-Copy-2">
                    <g id="Bottom-Navigation-/-Elements-/-Inactive-/-Pressed" transform="translate(180.000000, 20.000000)">
                        <g id="✱-/-RIPPLE-/-Selected-/-On-Primary-/-Pressed" transform="translate(29.000000, 12.000000)">
                            <mask id="mask-2" fill="white">
                                <use xlink:href="#path-1"></use>
                            </mask>
                            <g id="Mask" opacity="0.16"></g>
                            <g id="✱-/-Color-/-Icons-/-Selected-/-On-Primary-/-Active-" opacity="0.16" mask="url(#mask-2)" fill="#FFFFFF" fill-rule="evenodd">
                                <rect id="Rectangle-3" x="0" y="0" width="32" height="32"></rect>
                            </g>
                        </g>
                        <g id="Scooru-/-News-/-Filled" transform="translate(33.000000, 16.000000)">
                            <mask id="mask-4" fill="white">
                                <use xlink:href="#path-3"></use>
                            </mask>
                            <g id="News" fill-rule="nonzero"></g>
                            <g id="✱-/-Color-/-Icons-/-Selected-/-On-Primary-/-Inactive-" mask="url(#mask-4)" fill="#FFFFFF" fill-opacity="0.54" fill-rule="evenodd">
                                <rect id="Rectangle" x="0" y="0" width="24" height="24"></rect>
                            </g>
                        </g>
                    </g>
                </g>
            </g>
        </g>
    </g>
</svg>