<?xml version="1.0" encoding="UTF-8"?>
<svg width="63px" height="14px" viewBox="0 0 63 14" version="1.1" xmlns="http://www.w3.org/2000/svg" xmlns:xlink="http://www.w3.org/1999/xlink">
    <!-- Generator: Sketch 52.6 (67491) - http://www.bohemiancoding.com/sketch -->
    <title>Button / Follow / Small no icon</title>
    <desc>Created with Sketch.</desc>
    <defs>
        <path d="M4,0 L59,0 C61.209139,-4.05812251e-16 63,1.790861 63,4 L63,10 C63,12.209139 61.209139,14 59,14 L4,14 C1.790861,14 2.705415e-16,12.209139 0,10 L0,4 C-2.705415e-16,1.790861 1.790861,4.05812251e-16 4,0 Z" id="path-1"></path>
    </defs>
    <g id="Material-Components" stroke="none" stroke-width="1" fill="none" fill-rule="evenodd">
        <g id="Card-/-Profile-/-Chip-/-Layout" transform="translate(-462.000000, -551.000000)">
            <g id="Cards-/-Profiles-/-Detailed-/-Overview" transform="translate(365.000000, 229.000000)">
                <g id="Cards-/-List-2-up-/-Filled-/-Overline-/-Resting" transform="translate(3.000000, 56.000000)">
                    <g id="Button-/-Follow-/-Small-no-icon" transform="translate(94.000000, 266.000000)">
                        <g id="Buttons-/-Outlined-/-with-Icon-/-Disabled">
                            <mask id="mask-2" fill="white">
                                <use xlink:href="#path-1"></use>
                            </mask>
                            <path stroke-opacity="0.12" stroke="#000000" d="M4,0.5 C2.06700338,0.5 0.5,2.06700338 0.5,4 L0.5,10 C0.5,11.9329966 2.06700338,13.5 4,13.5 L59,13.5 C60.9329966,13.5 62.5,11.9329966 62.5,10 L62.5,4 C62.5,2.06700338 60.9329966,0.5 59,0.5 L4,0.5 Z"></path>
                            <g id="TEXT-COLOR-&amp;-STYLE" mask="url(#mask-2)" fill-opacity="0.38" font-family="Roboto-Medium, Roboto" font-size="9" font-weight="400" letter-spacing="1.04999995" line-spacing="10">
                                <g transform="translate(8.000000, 2.000000)" id="Button">
                                    <text>
                                        <tspan x="0" y="9" fill="#000000">FOLLO</tspan>
                                        <tspan x="32.3159177" y="9" fill="#000000">W</tspan>
                                    </text>
                                </g>
                            </g>
                        </g>
                    </g>
                </g>
            </g>
        </g>
    </g>
</svg>