<?xml version="1.0" encoding="UTF-8"?>
<svg width="18px" height="12px" viewBox="0 0 18 12" version="1.1" xmlns="http://www.w3.org/2000/svg" xmlns:xlink="http://www.w3.org/1999/xlink">
    <!-- Generator: Sketch 52.6 (67491) - http://www.bohemiancoding.com/sketch -->
    <title>Icon / Visibility / Filled</title>
    <desc>Created with Sketch.</desc>
    <defs>
        <path d="M9,0.75 C5.25,0.75 2.0475,3.0825 0.75,6.375 C2.0475,9.6675 5.25,12 9,12 C12.75,12 15.9525,9.6675 17.25,6.375 C15.9525,3.0825 12.75,0.75 9,0.75 Z M9,10.125 C6.93,10.125 5.25,8.445 5.25,6.375 C5.25,4.305 6.93,2.625 9,2.625 C11.07,2.625 12.75,4.305 12.75,6.375 C12.75,8.445 11.07,10.125 9,10.125 Z M9,4.125 C7.755,4.125 6.75,5.13 6.75,6.375 C6.75,7.62 7.755,8.625 9,8.625 C10.245,8.625 11.25,7.62 11.25,6.375 C11.25,5.13 10.245,4.125 9,4.125 Z" id="path-1"></path>
    </defs>
    <g id="Page-1" stroke="none" stroke-width="1" fill="none" fill-rule="evenodd">
        <g id="Artboard" transform="translate(-135.000000, -78.000000)">
            <g id="Cards-/-Profiles-/-Detailed">
                <g id="Cards-/-List-1-up-/-Filled-/-Image-Left-/-Selected" transform="translate(0.000000, -1.000000)">
                    <g id="Icon-/-Visibility-/-Filled" transform="translate(135.000000, 79.000000)">
                        <mask id="mask-2" fill="white">
                            <use xlink:href="#path-1"></use>
                        </mask>
                        <g id="Mask" fill-rule="nonzero"></g>
                        <g id="↳-Icon-Color" mask="url(#mask-2)" fill="#1C1C1C" fill-opacity="0.54">
                            <g transform="translate(0.000000, -3.000000)" id="Rectangle">
                                <rect x="0" y="0" width="18" height="18"></rect>
                            </g>
                        </g>
                    </g>
                </g>
            </g>
        </g>
    </g>
</svg>