<?xml version="1.0" encoding="UTF-8"?>
<svg width="22px" height="22px" viewBox="0 0 22 22" version="1.1" xmlns="http://www.w3.org/2000/svg" xmlns:xlink="http://www.w3.org/1999/xlink">
    <!-- Generator: Sketch 52.6 (67491) - http://www.bohemiancoding.com/sketch -->
    <title>Icon / Game / Filled</title>
    <desc>Created with Sketch.</desc>
    <defs>
        <path d="M20.883003,8.95421505 L20.883003,8.51912107 C20.883003,6.70000347 19.5159177,5.22003046 17.8356006,5.22003046 L16.9930945,5.22003046 L16.9930945,5.72871105 C16.9930945,6.36053214 16.51825,6.8745493 15.9345793,6.8745493 C15.3509421,6.8745493 14.8760976,6.36053214 14.8760976,5.72871105 L14.8760976,5.22003046 L9.16817073,5.22003046 L9.16817073,5.72871105 C9.16817073,6.36053214 8.69332622,6.8745493 8.10965549,6.8745493 C7.52598476,6.8745493 7.05117378,6.36053214 7.05117378,5.72871105 L7.05117378,5.22003046 L6.16496951,5.22003046 C4.48431707,5.22003046 3.11699695,6.70000347 3.11699695,8.51912107 L3.11699695,8.95421505 L20.883003,8.95421505 Z M3.11699695,17.4092692 C3.11699695,19.2283868 4.48431707,20.7083598 6.16496951,20.7083598 L10.9415183,20.7083598 L10.9415183,11.2458552 L3.11699695,11.2458552 L3.11699695,17.4092692 Z M17.834997,20.7083598 C19.5156829,20.7083598 20.883003,19.2283868 20.883003,17.4092692 L20.883003,11.2458552 L13.0585152,11.2458552 L13.0585152,20.7083598 L17.834997,20.7083598 Z M6.16496951,23 C3.31700915,23 1,20.4919927 1,17.4092692 L1,8.51912107 C1,5.43617978 3.31714329,2.92802723 6.16530488,2.92802723 L7.05147561,2.92802723 L7.05147561,2.14580195 C7.05147561,1.51398086 7.52632012,1 8.10999085,1 C8.69366159,1 9.16847256,1.51398086 9.16847256,2.14580195 L9.16847256,2.92802723 L14.8764329,2.92802723 L14.8764329,2.14580195 C14.8764329,1.51398086 15.3512774,1 15.9349146,1 C16.5185518,1 16.9934299,1.51398086 16.9934299,2.14580195 L16.9934299,2.92802723 L17.834997,2.92802723 C20.6829909,2.92802723 23,5.43617978 23,8.51912107 L23,17.4092692 C23,20.4919927 20.683125,23 17.8353323,23 L6.16496951,23 Z M6.68905244,17.7714482 C6.71433902,17.7855338 6.79046707,17.8163553 6.97146402,17.8163553 C7.15772622,17.8163553 7.23569878,17.7845173 7.26152195,17.7700687 L7.26152195,14.2678253 C7.23559817,14.2534855 7.15635122,14.2208852 6.97146402,14.2208852 C6.79016524,14.2208852 6.71417134,14.2517793 6.68905244,14.2657923 L6.68905244,17.7714482 Z M6.97146402,19.3514002 C6.37045488,19.3514002 5.83085122,19.2152632 5.36771098,18.9467283 L5.36432378,18.9447317 C4.71441829,18.5575216 4.57799146,18.0194717 4.57799146,17.6362913 L4.57799146,14.4462193 C4.57799146,14.0458312 4.71411646,13.4865802 5.36268049,13.0960665 L5.3666378,13.0937068 C5.82632378,12.8256802 6.3662628,12.689761 6.97146402,12.689761 C7.57160122,12.689761 8.109025,12.8256802 8.56877805,13.0936705 C9.22894573,13.4805902 9.36738476,14.042818 9.36738476,14.4464008 L9.36738476,17.6362913 C9.36738476,18.0205608 9.2289122,18.5596998 8.56931463,18.9460023 C8.10771707,19.215118 7.57029329,19.3514002 6.97146402,19.3514002 Z M15.9492012,19.3513784 L18.0533537,19.3513784 L18.0533537,12.6897392 L15.9492012,12.6897392 L15.9492012,19.3513784 Z" id="path-1"></path>
    </defs>
    <g id="Material-Theme" stroke="none" stroke-width="1" fill="none" fill-rule="evenodd">
        <g id="System-Icons" transform="translate(-861.000000, -1393.000000)">
            <g id="Scooru-/-Game-1-/-Filled" transform="translate(860.000000, 1392.000000)">
                <mask id="mask-2" fill="white">
                    <use xlink:href="#path-1"></use>
                </mask>
                <g id="Match" fill-rule="nonzero"></g>
                <g id="✱-/-Color-/-Icons-/-Selected-/-On-Surface-/-Inactive" mask="url(#mask-2)" fill="#414141" fill-opacity="0.54" fill-rule="evenodd">
                    <rect id="Rectangle" x="0" y="0" width="24" height="24"></rect>
                </g>
            </g>
        </g>
    </g>
</svg>