<?xml version="1.0" encoding="UTF-8"?>
<svg width="22px" height="22px" viewBox="0 0 22 22" version="1.1" xmlns="http://www.w3.org/2000/svg" xmlns:xlink="http://www.w3.org/1999/xlink">
    <!-- Generator: Sketch 52.6 (67491) - http://www.bohemiancoding.com/sketch -->
    <title>Icon / Football_flat / Filled</title>
    <desc>Created with Sketch.</desc>
    <defs>
        <path d="M19.7785714,4.22142857 C18.7683673,3.21122449 17.5920408,2.41877551 16.2832653,1.86428571 C14.925102,1.29183673 13.4838776,1 12,1 C10.5161224,1 9.07489796,1.29183673 7.71897959,1.86428571 C6.40795918,2.41877551 5.23163265,3.21122449 4.22367347,4.22142857 C3.21571429,5.23163265 2.42102041,6.40795918 1.86653061,7.71673469 C1.29183673,9.07489796 1,10.5161224 1,12 C1,13.4838776 1.29183673,14.925102 1.86428571,16.2810204 C2.41877551,17.5920184 3.21122449,18.7683673 4.22142857,19.7763265 C5.23163265,20.7842633 6.40795918,21.5789796 7.71673469,22.1334694 C9.07489796,22.7081633 10.5161224,23 12,23 C13.4838776,23 14.925102,22.7081633 16.2810204,22.1357143 C17.5920184,21.5812245 18.7683673,20.7887755 19.7763265,19.7785714 C20.7842633,18.7683673 21.5789796,17.5920408 22.1334694,16.2832653 C22.7081633,14.925102 23,13.4838776 23,12 C23,10.5161224 22.7081633,9.07489796 22.1357143,7.71897959 C21.5812245,6.40795918 20.7887755,5.23163265 19.7785714,4.22142857 Z M21.5161224,16.0183673 C21.35,16.4112245 21.1614061,16.7906122 20.9504082,17.1565306 L20.8740816,16.8669388 C20.8381633,16.73 20.6944898,16.6357143 20.5530612,16.6559408 L16.3685714,17.2800224 C16.2271429,17.3002041 16.0677776,17.4236735 16.0138776,17.5539 L14.3571429,21.4487755 C14.3010204,21.5789796 14.3571429,21.7428571 14.4806122,21.8124265 L14.7410204,21.9606122 C13.8542857,22.2030612 12.9361224,22.3265306 12,22.3265306 C11.0638776,22.3265306 10.1457143,22.2030612 9.25897959,21.9583673 L9.51938776,21.8102041 C9.64285714,21.7406122 9.69897959,21.5767347 9.64285714,21.4465306 L7.98612245,17.5516327 C7.93,17.4214286 7.7705898,17.2979592 7.63142857,17.2777551 L3.44693878,16.6559184 C3.3055102,16.6357143 3.16183673,16.73 3.12591837,16.8669163 L3.04959184,17.1565082 C2.83857143,16.7905898 2.65,16.411202 2.48387755,16.0183449 C2.04387755,14.9789571 1.78122449,13.8856918 1.70040816,12.7587531 L1.92489796,12.9540592 C2.03265306,13.0483449 2.20326531,13.0438551 2.30877551,12.9495694 L5.42244898,10.0828571 C5.52795918,9.98632653 5.58857143,9.7955102 5.56163265,9.65632653 L4.7444898,5.50326531 C4.71755102,5.36408163 4.58061224,5.26081633 4.43918367,5.27204082 L4.14285714,5.29673469 C4.31795918,5.09020408 4.50428571,4.89040816 4.69734694,4.69734694 C5.64693878,3.75 6.75142857,3.00469388 7.98163265,2.48387755 C8.01306122,2.47040816 8.0444898,2.45693878 8.07591837,2.44346939 L7.95918367,2.72183673 C7.90306122,2.85204082 7.95918367,3.01591837 8.08489796,3.0855102 L11.7755102,5.15306122 C11.8989796,5.22265306 12.1010204,5.22265306 12.2244898,5.15306122 L15.9173469,3.0855102 C16.0408163,3.01591837 16.0969388,2.85428571 16.0430612,2.72183673 L15.9263265,2.44571429 C15.9577327,2.45918367 15.9891837,2.47265306 16.0205898,2.48612245 C17.2508163,3.00693878 18.3552837,3.75 19.3026306,4.69959184 C19.4957143,4.89265306 19.6797735,5.09244898 19.8571204,5.29897959 L19.5607939,5.27428571 C19.4193653,5.26306122 19.282449,5.36632653 19.2554878,5.5055102 L18.4383449,9.65857143 C18.4114061,9.7977551 18.4742857,9.98857143 18.5775286,10.085102 L21.691202,12.9495918 C21.7967122,13.0461224 21.9673245,13.0483673 22.0750796,12.9540816 L22.2995694,12.7587755 C22.2187755,13.8857143 21.9561224,14.9789796 21.5161224,16.0183673 Z M15.9330612,10.5587755 L12.2087755,7.85142857 C12.0942857,7.76836735 11.9079816,7.76836735 11.7912245,7.85142857 L8.06693878,10.5587755 C7.95244898,10.6418367 7.89408163,10.8192061 7.93897959,10.9539 L9.3622449,15.331451 C9.40714286,15.4661449 9.55755102,15.5761224 9.69897959,15.5761224 L14.3032653,15.5761224 C14.4447163,15.5761224 14.5973694,15.4661449 14.64,15.331451 L16.0632653,10.9539 C16.1059184,10.8191837 16.047551,10.6418367 15.9330612,10.5587755 Z" id="path-1"></path>
    </defs>
    <g id="Material-Theme" stroke="none" stroke-width="1" fill="none" fill-rule="evenodd">
        <g id="System-Icons" transform="translate(-381.000000, -1441.000000)">
            <g id="Icon-/-Football-flat-/-Filled" transform="translate(380.000000, 1440.000000)">
                <mask id="mask-2" fill="white">
                    <use xlink:href="#path-1"></use>
                </mask>
                <g id="Football" fill-rule="nonzero"></g>
                <g id="✱-/-Color-/-Icons-/-Selected-/-On-Surface-/-Inactive" mask="url(#mask-2)" fill="#414141" fill-opacity="0.54" fill-rule="evenodd">
                    <rect id="Rectangle" x="0" y="0" width="24" height="24"></rect>
                </g>
            </g>
        </g>
    </g>
</svg>