<?xml version="1.0" encoding="UTF-8"?>
<svg width="22px" height="22px" viewBox="0 0 22 22" version="1.1" xmlns="http://www.w3.org/2000/svg" xmlns:xlink="http://www.w3.org/1999/xlink">
    <!-- Generator: Sketch 52.6 (67491) - http://www.bohemiancoding.com/sketch -->
    <title>Icon / Football / Filled</title>
    <desc>Created with Sketch.</desc>
    <defs>
        <path d="M19.068541,6.43074739 C19.1470592,6.45876952 19.2244099,6.48766734 19.3005931,6.51919224 C19.4984941,6.60033966 19.6928925,6.68674123 19.8829125,6.77781316 C19.5361479,6.25444148 19.1356755,5.76522178 18.685582,5.3145325 C18.1032625,4.73307328 17.4590625,4.23626425 16.760571,3.82965145 L19.068541,6.43074739 Z M6.00327712,8.6491661 C6.7843733,8.15410845 7.64865797,7.69553795 8.69946,7.21799414 C8.86145865,7.14414414 9.02725186,7.07846727 9.19304507,7.0130823 C9.22252591,7.00140641 9.25171485,6.98973053 9.2809038,6.97805464 L10.3063114,3.89007417 C9.78704011,3.54972203 9.28382269,3.29402009 8.77681071,3.11275193 C7.47031352,3.58358211 6.30655026,4.32354151 5.31500179,5.3145325 C5.21196481,5.41786411 5.11155484,5.523239 5.01435565,5.62948958 C4.85060567,5.91963539 4.71254196,6.19518635 4.59315917,6.47073731 C4.43933343,6.8256843 4.29951838,7.19960461 4.16408168,7.56126524 L6.00327712,8.6491661 Z M11.5626037,8.57064576 C11.9759191,9.03388661 12.3886508,9.49712747 12.7996312,9.9627035 C12.8115986,9.97642267 12.8235661,9.99014184 12.8355336,10.0041529 L16.9266561,9.58411283 C17.127768,9.08993087 17.3341338,8.58057026 17.5244457,8.07733949 C17.6184341,7.82805928 17.7004551,7.5755682 17.7839355,7.31198503 L14.9076568,4.07017474 C14.7990739,4.06550439 14.6907829,4.0634611 14.5827838,4.0634611 C14.371164,4.0634611 14.1452415,4.07105043 13.8498494,4.08739668 C13.2973027,4.11950537 12.7304534,4.1784686 12.182285,4.23538855 L11.8069151,4.27421088 L10.6948163,7.62256365 L11.4528532,8.37974499 L11.4230805,8.41389696 L11.5626037,8.57064576 Z M3.06628544,15.0904616 C3.35992623,15.3879048 3.68771809,15.6590773 4.06075281,15.912736 L5.58120497,13.5285197 C5.35002853,12.3673526 5.22801873,11.1696984 5.22130528,9.98196871 L3.40020698,8.90457615 L3.39757997,8.90837082 C3.1699062,9.22916584 2.96178902,9.57185315 2.77848244,9.92767583 C2.39464781,11.6469503 2.49418211,13.4286908 3.06628544,15.0904616 Z M13.3521779,17.9703194 C14.4210771,17.9510541 15.5063221,17.8445117 16.583686,17.6521514 L18.6578525,13.7836378 C18.6058962,13.6829333 18.5542317,13.5828126 18.5022754,13.4835675 C18.1207759,12.7538245 17.6645527,11.9986865 17.0752279,11.1224111 L12.8597604,11.5555865 C12.6633188,11.9373881 12.4660015,12.3191896 12.2654735,12.6989478 C11.9549031,13.2888721 11.6417057,13.8785044 11.3258813,14.4663854 L13.3521779,17.9703194 Z M17.9190803,18.4332683 C17.9952634,18.6895541 18.0606467,18.9493426 18.1146462,19.2114663 C18.3113797,19.0442092 18.5025673,18.868487 18.685582,18.6854675 C20.0469544,17.324059 20.9538549,15.5817246 21.2959494,13.700739 C20.9439307,13.9123645 20.5595123,14.1149412 20.1257646,14.316934 L17.9190803,18.4332683 Z M10.9750302,20.1496239 C10.9864139,20.1353209 10.9975057,20.1204341 11.0083056,20.1058393 C11.3182922,19.6907615 11.6469597,19.2403641 12.0086107,18.7347981 L10.0436109,15.3371147 C8.79169707,15.1538033 7.69069005,14.9372156 6.68396333,14.6759676 L5.1430789,17.0914169 C5.1737273,17.1454179 5.30828833,17.3745572 5.34185562,17.4341042 C5.7134309,18.0937919 6.16002176,18.7485173 6.67170397,19.3828099 L10.9750302,20.1496239 Z M12.0004378,23 C10.5701795,23 9.17728304,22.7291194 7.86115349,22.1946556 C6.49598652,21.6415104 5.27151026,20.8285767 4.22187579,19.7783306 C3.17282509,18.729544 2.35962107,17.5050352 1.805323,16.1392482 C1.27087341,14.8213324 1,13.4286908 1,12.0004378 C1,10.5721849 1.27087341,9.17925142 1.805323,7.86075177 C2.35991296,6.49438098 3.17282509,5.26987223 4.22187579,4.22137749 C5.27267782,3.17113137 6.49715408,2.35790577 7.86115349,1.80476058 C9.17961816,1.2705887 10.5722227,1 12.0004378,1 C13.428361,1 14.8206737,1.2705887 16.1391384,1.80476058 C17.5031378,2.35732198 18.7273222,3.17054757 19.7784161,4.22137749 C20.8277587,5.27074792 21.6409627,6.49525667 22.194677,7.86045987 C22.7291266,9.17866762 23,10.5713092 23,12.0004378 C23,13.4292746 22.7291266,14.8219162 22.194677,16.1389563 C21.6409627,17.5047433 20.8280506,18.7289602 19.7784161,19.7783306 C18.7296573,20.8279929 17.505181,21.6409266 16.1391384,22.1946556 C14.8203818,22.7291194 13.4280692,23 12.0004378,23 Z" id="path-1"></path>
    </defs>
    <g id="Material-Theme" stroke="none" stroke-width="1" fill="none" fill-rule="evenodd">
        <g id="System-Icons" transform="translate(-813.000000, -1393.000000)">
            <g id="Scooru-/-Football-/-Filled" transform="translate(812.000000, 1392.000000)">
                <mask id="mask-2" fill="white">
                    <use xlink:href="#path-1"></use>
                </mask>
                <g id="Football" fill-rule="nonzero"></g>
                <g id="✱-/-Color-/-Icons-/-Selected-/-On-Surface-/-Inactive" mask="url(#mask-2)" fill="#414141" fill-opacity="0.54" fill-rule="evenodd">
                    <rect id="Rectangle" x="0" y="0" width="24" height="24"></rect>
                </g>
            </g>
        </g>
    </g>
</svg>