<?xml version="1.0" encoding="UTF-8"?>
<svg width="22px" height="21px" viewBox="0 0 22 21" version="1.1" xmlns="http://www.w3.org/2000/svg" xmlns:xlink="http://www.w3.org/1999/xlink">
    <!-- Generator: Sketch 52.6 (67491) - http://www.bohemiancoding.com/sketch -->
    <title>Nav_bottom / Icon_with_text / Games / Active</title>
    <desc>Created with Sketch.</desc>
    <g id="Material-Components" stroke="none" stroke-width="1" fill="none" fill-rule="evenodd">
        <g id="Navigation" transform="translate(-115.000000, -1341.000000)" fill="#FFFFFF">
            <g id="Bottom-Navigation-/-Primary-Color-/-Active-/-Resting-Copy-7" transform="translate(81.000000, 1310.000000)">
                <g id="Bottom-Navigation-/-4-up-/-Primary-Color-Copy-5">
                    <g id="Nav_bottom-/-Icon_with_text-/-Games-/-Active" transform="translate(34.000000, 31.000000)">
                        <path d="M6.91544138,0.543512703 C6.46658036,0.688019839 6.31518567,0.986649467 6.3147709,1.7285542 L6.31442525,2.27718324 L5.57542566,2.27732159 C5.0893727,2.27745994 4.73314587,2.29337025 4.53453541,2.32380737 C2.45234013,2.6428437 0.839399219,4.18323853 0.396137727,6.27613623 L0.323689492,6.61848463 L0.31338913,11.0870685 C0.305923088,14.3370609 0.313181738,15.6510451 0.340211566,15.9054717 C0.588249965,18.2442875 2.4004235,20.0448505 4.77289562,20.3097917 C5.16306528,20.3533722 16.9374233,20.3533722 17.3275239,20.3097917 C19.700549,20.0447813 21.5121695,18.2448409 21.7602771,15.9054717 C21.7872377,15.6510451 21.7945655,14.3370609 21.7870994,11.0870685 L21.7767991,6.61848463 L21.7042817,6.27613623 C21.1775804,3.78893951 19.2338525,2.27808252 16.5599736,2.27732159 L15.8558847,2.27718324 L15.8433721,1.7285542 C15.8243614,0.898174301 15.6143444,0.575540855 15.0496215,0.509132598 C14.3971727,0.432417223 14.0705336,0.839029448 14.0700496,1.7285542 L14.069704,2.27718324 L11.0851549,2.27718324 L8.10060591,2.27718324 L8.08864642,1.7285542 C8.07834606,1.2553262 8.06756178,1.15979516 8.01011476,1.03396535 C7.82346379,0.624931993 7.33810214,0.407444958 6.91544138,0.543512703 M6.49604414,4.85163077 C6.51284273,5.56012384 6.74968208,5.8662244 7.30928935,5.90254142 C7.92060584,5.94224802 8.24026291,5.58516529 8.26425102,4.83572046 L8.27780049,4.41430472 L11.259377,4.41430472 L14.2410225,4.41430472 L14.2513229,4.85163077 C14.2681215,5.56012384 14.5049608,5.8662244 15.0645681,5.90254142 C15.6769906,5.9423172 15.9955417,5.58544199 16.019668,4.83246921 L16.0332175,4.40787143 L16.8002148,4.421914 C17.5179914,4.43505731 17.5851166,4.44142143 17.846428,4.52069629 C19.3126059,4.96576995 20.1893816,6.17121815 20.1893816,7.7420501 L20.1893816,8.13544984 L11.2263328,8.13544984 L2.26328403,8.13544984 L2.26328403,7.7420501 C2.26328403,6.20027176 3.14040533,4.96812191 4.54090979,4.54262485 C4.89409491,4.43526484 5.02578753,4.42205235 5.78089441,4.41804019 L6.48574378,4.41430472 L6.49604414,4.85163077 M6.76130115,12.6710172 C7.66122714,13.092761 7.8032353,15.1011657 6.99069894,15.9156084 C6.01855167,16.8901413 4.98754122,14.6488156 5.7497037,13.2178724 C6.01880135,12.7126794 6.4049387,12.5039312 6.76130115,12.6710172 M6.22381486,11.2710958 C4.76759164,11.5150077 3.86143573,13.5255177 4.34859477,15.431573 C4.95645476,17.8096803 7.36584228,18.2259771 8.39746912,16.1311425 C9.48792555,13.916773 8.15966196,10.9468021 6.22381486,11.2710958 M15.275311,11.5127676 C15.1960881,11.5528201 15.1016565,11.6367989 15.0528507,11.7105397 L14.9680282,11.8387907 L14.9595252,14.2708547 C14.9497779,17.0363435 14.9358136,16.8840196 15.2158592,17.0694785 C15.4123266,17.1995971 16.0811592,17.1995971 16.2775576,17.0694785 C16.5552528,16.8856106 16.5413576,17.0312245 16.5413576,14.3083477 C16.5413576,11.5856784 16.5552528,11.731154 16.2777649,11.5471477 C16.0930497,11.4247075 15.4904436,11.4040241 15.275311,11.5127676" id="Games"></path>
                    </g>
                </g>
            </g>
        </g>
    </g>
</svg>