<?xml version="1.0" encoding="UTF-8"?>
<svg width="22px" height="21px" viewBox="0 0 22 21" version="1.1" xmlns="http://www.w3.org/2000/svg" xmlns:xlink="http://www.w3.org/1999/xlink">
    <!-- Generator: Sketch 52.6 (67491) - http://www.bohemiancoding.com/sketch -->
    <title>Nav_bottom / Icon_with_text / Games / Inactive Copy</title>
    <desc>Created with Sketch.</desc>
    <defs>
        <path d="M6.92299739,0.524258953 C6.87988294,0.53356163 6.84467595,0.556140003 6.84467595,0.574454649 C6.84467595,0.592769295 6.82387182,0.607789243 6.79854914,0.607789243 C6.74253801,0.607789243 6.60105108,0.757019692 6.60105108,0.816130454 C6.60105108,0.83948405 6.58542445,0.858573919 6.56622063,0.858573919 C6.54711095,0.858573919 6.53148432,0.906928461 6.53148432,0.966039223 C6.53148432,1.02514998 6.51576355,1.07350453 6.49665387,1.07350453 C6.47490838,1.07350453 6.46182342,1.29444311 6.46182342,1.66461215 L6.46182342,2.25571977 L5.55707899,2.25571977 C4.97701082,2.25571977 4.65224042,2.26851095 4.65224042,2.29147693 C4.65224042,2.31124512 4.56610566,2.327331 4.46076709,2.327331 C4.35552265,2.327331 4.26938789,2.34341688 4.26938789,2.36318507 C4.26938789,2.38285636 4.22335522,2.39894224 4.16706168,2.39894224 C4.11076815,2.39894224 4.05503943,2.41512502 4.04317825,2.43479631 C4.03141121,2.45446759 3.97652972,2.47065038 3.92136582,2.47065038 C3.86620192,2.47065038 3.81141456,2.48673626 3.79955338,2.50640754 C3.78778634,2.52617573 3.73987094,2.54226161 3.69317931,2.54226161 C3.6408395,2.54226161 3.60817419,2.56290193 3.60817419,2.59604271 C3.60817419,2.63160607 3.57362615,2.64972691 3.50584798,2.64972691 C3.44955444,2.64972691 3.39382573,2.6659097 3.38196455,2.68558098 C3.37010337,2.70525227 3.33009542,2.72143505 3.29291156,2.72143505 C3.2557277,2.72143505 3.2254158,2.73752093 3.2254158,2.75719222 C3.2254158,2.77696041 3.1940684,2.79304629 3.1557549,2.79304629 C3.11753555,2.79304629 3.08618814,2.80913217 3.08618814,2.82890036 C3.08618814,2.84857164 3.06265406,2.86465752 3.03394247,2.86465752 C3.00523088,2.86465752 2.98179093,2.8808403 2.98179093,2.90051159 C2.98179093,2.92018288 2.95044353,2.93636566 2.91213004,2.93636566 C2.87391068,2.93636566 2.84256328,2.95245154 2.84256328,2.97212283 C2.84256328,2.99189101 2.81855851,3.00797689 2.7892821,3.00797689 C2.7600057,3.00797689 2.72696384,3.03220262 2.71594989,3.061758 C2.70493594,3.09131338 2.67405921,3.1154422 2.64741863,3.1154422 C2.62077804,3.1154422 2.59893841,3.13152808 2.59893841,3.15129627 C2.59893841,3.17096755 2.57738118,3.18705343 2.55092887,3.18705343 C2.52457069,3.18705343 2.43843594,3.25159076 2.35954968,3.3303728 C2.28066342,3.40915485 2.20205957,3.47369218 2.18502089,3.47369218 C2.16798221,3.47369218 2.14501294,3.497821 2.13399899,3.52737638 C2.12298504,3.55693176 2.0938969,3.58154509 2.06932732,3.5819327 C2.04485187,3.58232032 1.97773265,3.64104347 1.92030948,3.71226709 C1.86288631,3.78358762 1.78851859,3.87186615 1.75500605,3.90859234 C1.72158765,3.94522163 1.69409984,3.98485492 1.69409984,3.99667707 C1.69409984,4.00849922 1.6471258,4.06324935 1.58970263,4.118484 C1.53227946,4.17371865 1.48530542,4.24116306 1.48530542,4.26829586 C1.48530542,4.29542867 1.45405215,4.34087613 1.41573866,4.36926868 C1.37742516,4.39766122 1.3461719,4.43458122 1.3461719,4.45134542 C1.3461719,4.46810962 1.32659154,4.5043513 1.30258677,4.53177482 C1.1944241,4.65600432 1.17211379,4.692246 1.17211379,4.74389524 C1.17211379,4.77432275 1.15648716,4.79912989 1.13728334,4.79912989 C1.11817366,4.79912989 1.10254703,4.8228711 1.10254703,4.85184506 C1.10254703,4.88072212 1.07119963,4.96182984 1.03288613,5.03198753 C0.994666775,5.10214522 0.963319372,5.18325294 0.963319372,5.2122269 C0.963319372,5.24120087 0.947692738,5.26484517 0.928488923,5.26484517 C0.909379245,5.26484517 0.893752611,5.30341252 0.893752611,5.35060423 C0.893752611,5.39769903 0.870218524,5.44556906 0.841506938,5.4569067 C0.812795352,5.46824434 0.789355402,5.51834313 0.789355402,5.56824812 C0.789355402,5.6181531 0.773634632,5.65894922 0.754524953,5.65894922 C0.735415275,5.65894922 0.719694505,5.70633473 0.719694505,5.76428266 C0.719694505,5.82223059 0.704067871,5.8795971 0.684864056,5.89180686 C0.665754377,5.90391972 0.650127744,5.97746902 0.650127744,6.05508823 C0.650127744,6.13270744 0.634406974,6.19627574 0.615297295,6.19627574 C0.596187617,6.19627574 0.580466847,6.268856 0.580466847,6.35752215 C0.580466847,6.44618829 0.564840213,6.51867165 0.545730534,6.51867165 C0.522667129,6.51867165 0.510900086,8.17852123 0.510900086,11.4265123 C0.510900086,14.6745033 0.522667129,16.3343529 0.545730534,16.3343529 C0.565310895,16.3343529 0.580466847,16.4359071 0.580466847,16.5672105 C0.580466847,16.6986108 0.595716935,16.8000681 0.615297295,16.8000681 C0.634406974,16.8000681 0.650127744,16.8726484 0.650127744,16.9613146 C0.650127744,17.0499807 0.665754377,17.1224641 0.684864056,17.1224641 C0.704067871,17.1224641 0.719694505,17.1698496 0.719694505,17.2277975 C0.719694505,17.2857454 0.735415275,17.3431119 0.754524953,17.3553217 C0.773634632,17.3675315 0.789355402,17.4076493 0.789355402,17.4444724 C0.789355402,17.4812955 0.812795352,17.5355611 0.841506938,17.5651165 C0.870218524,17.5946718 0.893752611,17.6433171 0.893752611,17.6730663 C0.893752611,17.7029124 0.909379245,17.737216 0.928488923,17.7494257 C0.947692738,17.7615386 0.963319372,17.8028192 0.963319372,17.8410959 C0.963319372,17.8792756 0.978946005,17.9105752 0.99814982,17.9105752 C1.0172595,17.9105752 1.03288613,17.9428439 1.03288613,17.9822834 C1.03288613,18.021626 1.0486069,18.0538946 1.06771658,18.0538946 C1.08682626,18.0538946 1.10254703,18.0765699 1.10254703,18.1042841 C1.10254703,18.1887834 1.251659,18.4479987 1.30042163,18.4479987 C1.32555604,18.4479987 1.3461719,18.4801704 1.3461719,18.5196099 C1.3461719,18.5590494 1.36179853,18.5912211 1.38090821,18.5912211 C1.40011202,18.5912211 1.41573866,18.6118615 1.41573866,18.6370562 C1.41573866,18.662251 1.44708606,18.706148 1.48530542,18.7345405 C1.52361891,18.7629331 1.55496632,18.8075084 1.55496632,18.8336722 C1.55496632,18.8898758 1.70991474,19.0569364 1.76216042,19.0569364 C1.78221146,19.0569364 1.79849705,19.0734099 1.79849705,19.0935657 C1.79849705,19.1312609 2.16431089,19.5226517 2.19961202,19.5226517 C2.2104377,19.5226517 2.25760001,19.5588934 2.30438578,19.6032749 C2.35107741,19.6475595 2.42817507,19.7201398 2.47552566,19.7645213 C2.52287624,19.8088059 2.59008959,19.8450476 2.6248259,19.8450476 C2.65956222,19.8450476 2.71058412,19.8773163 2.73816607,19.9167558 C2.76574802,19.9560983 2.81451064,19.988367 2.846517,19.988367 C2.87852336,19.988367 2.91373035,20.0125927 2.92474431,20.0421481 C2.93575826,20.0717035 2.96748221,20.0958323 2.99515829,20.0958323 C3.02292852,20.0958323 3.05079288,20.1079452 3.05719415,20.1226744 C3.0764921,20.1673466 3.36643205,20.3107629 3.43750499,20.3107629 C3.47393576,20.3107629 3.50377698,20.3269457 3.50377698,20.346617 C3.50377698,20.3662883 3.5429377,20.382471 3.59075896,20.382471 C3.63867437,20.382471 3.67774095,20.3985569 3.67774095,20.4182282 C3.67774095,20.4379964 3.72349121,20.4540823 3.77931407,20.4540823 C3.83513692,20.4540823 3.8863471,20.4712341 3.89312491,20.492262 C3.89990273,20.513193 3.97172876,20.5394537 4.05268602,20.5506945 C4.13354914,20.5618383 4.19982113,20.5849981 4.19982113,20.602053 C4.19982113,20.6192048 4.27023512,20.6331588 4.35636988,20.6331588 C4.44250464,20.6331588 4.51301276,20.6493416 4.51301276,20.6690129 C4.51301276,20.6897501 4.62324642,20.7048669 4.77405285,20.7048669 C4.92485928,20.7048669 5.03499881,20.7199838 5.03499881,20.7406241 C5.03499881,20.7644622 7.11145836,20.7764782 11.1948107,20.7764782 C15.2780689,20.7764782 17.3545285,20.7644622 17.3545285,20.7406241 C17.3545285,20.7199838 17.464009,20.7048669 17.6134975,20.7048669 C17.7559258,20.7048669 17.8820685,20.6886842 17.8939297,20.6690129 C17.9057909,20.6493416 17.9771463,20.6331588 18.0526436,20.6331588 C18.1280468,20.6331588 18.1897061,20.6192048 18.1897061,20.602053 C18.1897061,20.5849981 18.2559781,20.5618383 18.3369354,20.5506945 C18.4177985,20.5394537 18.4896245,20.513193 18.4964024,20.492262 C18.5031802,20.4712341 18.5543903,20.4540823 18.6102132,20.4540823 C18.6661302,20.4540823 18.7117863,20.4379964 18.7117863,20.4182282 C18.7117863,20.3985569 18.750947,20.382471 18.7987683,20.382471 C18.8465896,20.382471 18.8857503,20.3662883 18.8857503,20.346617 C18.8857503,20.3269457 18.9170977,20.3107629 18.9554112,20.3107629 C18.9936305,20.3107629 19.0249779,20.294677 19.0249779,20.2750057 C19.0249779,20.2552375 19.0563253,20.2391517 19.0945447,20.2391517 C19.1328582,20.2391517 19.1642056,20.2229689 19.1642056,20.2032976 C19.1642056,20.1836263 19.2033663,20.1674435 19.2511876,20.1674435 C19.2990088,20.1674435 19.3381696,20.1513576 19.3381696,20.1316864 C19.3381696,20.1119182 19.3621743,20.0958323 19.3914507,20.0958323 C19.4208213,20.0958323 19.453769,20.0717035 19.464783,20.0421481 C19.4757969,20.0125927 19.5144869,19.988367 19.5507294,19.988367 C19.5869719,19.988367 19.6166249,19.9722811 19.6166249,19.9525129 C19.6166249,19.9328416 19.6400648,19.9167558 19.6687764,19.9167558 C19.697488,19.9167558 19.7210221,19.900573 19.7210221,19.8809017 C19.7210221,19.8612304 19.7450269,19.8450476 19.7743033,19.8450476 C19.8036738,19.8450476 19.881148,19.7927201 19.9464786,19.7286672 C20.0986971,19.5793399 20.1656281,19.5226517 20.189727,19.5226517 C20.2188151,19.5226517 20.7649942,18.9526689 20.7650883,18.9222414 C20.7651825,18.907706 20.8120624,18.8392925 20.8693914,18.7703946 C20.9267204,18.7013997 20.9736945,18.6270752 20.9736945,18.6052721 C20.9737886,18.583372 21.0129493,18.5352113 21.0608647,18.4981944 C21.108686,18.4611775 21.1478467,18.4025512 21.1478467,18.3677631 C21.1478467,18.3330718 21.1634733,18.3046793 21.182583,18.3046793 C21.2017868,18.3046793 21.2174135,18.2804536 21.2174135,18.2508982 C21.2174135,18.2213428 21.2330401,18.197214 21.2522439,18.197214 C21.2713536,18.197214 21.2869802,18.1649453 21.2869802,18.1255059 C21.2869802,18.0861633 21.302701,18.0538946 21.3218107,18.0538946 C21.3409204,18.0538946 21.3566411,18.021626 21.3566411,17.9822834 C21.3566411,17.9428439 21.3722678,17.9105752 21.3914716,17.9105752 C21.4105813,17.9105752 21.4262079,17.8772407 21.4262079,17.8364445 C21.4262079,17.7955515 21.449742,17.7379912 21.4784536,17.7084358 C21.5071651,17.6788804 21.5306051,17.6236458 21.5306051,17.5856599 C21.5306051,17.5476739 21.5463259,17.5165681 21.5654355,17.5165681 C21.5845452,17.5165681 21.600266,17.4690857 21.600266,17.4111378 C21.600266,17.3532867 21.6158926,17.2958233 21.6350023,17.2837105 C21.6542061,17.2715007 21.6698328,17.2141342 21.6698328,17.1561863 C21.6698328,17.0982383 21.6854594,17.0508528 21.7046632,17.0508528 C21.7237729,17.0508528 21.7393995,16.9782726 21.7393995,16.8896064 C21.7393995,16.8009403 21.7551203,16.7284569 21.77423,16.7284569 C21.7939045,16.7284569 21.8090604,16.6269027 21.8090604,16.4955993 C21.8090604,16.364199 21.8242164,16.2627416 21.8437967,16.2627416 C21.8668601,16.2627416 21.8786272,14.6267302 21.8786272,11.4265123 C21.8786272,8.22629436 21.8668601,6.59037979 21.8437967,6.59037979 C21.824687,6.59037979 21.8090604,6.51072561 21.8090604,6.41333821 C21.8090604,6.31595081 21.7933396,6.22641254 21.77423,6.21420277 C21.7551203,6.20199301 21.7393995,6.13755259 21.7393995,6.0708834 C21.7393995,6.00421421 21.7237729,5.93977379 21.7046632,5.92756403 C21.6854594,5.91545117 21.6698328,5.85895678 21.6698328,5.80217169 C21.6698328,5.7454835 21.6542061,5.68898912 21.6350023,5.67687626 C21.6158926,5.66466649 21.600266,5.62881242 21.600266,5.59722208 C21.600266,5.51834313 21.4889968,5.26484517 21.4543547,5.26484517 C21.4389163,5.26484517 21.4262079,5.23257651 21.4262079,5.19323394 C21.4262079,5.15379446 21.4105813,5.1215258 21.3914716,5.1215258 C21.3722678,5.1215258 21.3566411,5.0813111 21.3566411,5.03198753 C21.3566411,4.98276086 21.3409204,4.94244926 21.3218107,4.94244926 C21.302701,4.94244926 21.2869802,4.9101806 21.2869802,4.87083803 C21.2869802,4.83139855 21.2713536,4.79912989 21.2522439,4.79912989 C21.2330401,4.79912989 21.2174135,4.76695813 21.2174135,4.72751865 C21.2174135,4.68807918 21.2017868,4.65590742 21.182583,4.65590742 C21.1634733,4.65590742 21.1478467,4.63400737 21.1478467,4.60735907 C21.1478467,4.58071078 21.108686,4.51539823 21.0608647,4.46219855 C21.0129493,4.40909576 20.9737886,4.35027571 20.9737886,4.33167035 C20.9737886,4.3129681 20.9111879,4.23127896 20.8346551,4.15007434 C20.7580281,4.06886972 20.6954274,3.98640536 20.6954274,3.96683098 C20.6954274,3.92022069 20.1696759,3.40208094 20.1223253,3.40208094 C20.1117821,3.40208094 20.0539824,3.3536295 19.9939234,3.29451874 C19.9338644,3.23550488 19.8635445,3.18705343 19.837657,3.18705343 C19.8117695,3.18705343 19.7905889,3.17096755 19.7905889,3.15129627 C19.7905889,3.13152808 19.7687492,3.1154422 19.7421086,3.1154422 C19.715468,3.1154422 19.6845913,3.09131338 19.6735774,3.061758 C19.6625634,3.03220262 19.6296157,3.00797689 19.6002452,3.00797689 C19.5709688,3.00797689 19.546964,2.99189101 19.546964,2.97212283 C19.546964,2.95245154 19.5156166,2.93636566 19.4773972,2.93636566 C19.4390837,2.93636566 19.4077363,2.92018288 19.4077363,2.90051159 C19.4077363,2.8808403 19.3764831,2.86465752 19.3381696,2.86465752 C19.2998561,2.86465752 19.2686028,2.84857164 19.2686028,2.82890036 C19.2686028,2.80913217 19.2294421,2.79304629 19.1815267,2.79304629 C19.1337054,2.79304629 19.0945447,2.77696041 19.0945447,2.75719222 C19.0945447,2.73752093 19.0632914,2.72143505 19.0249779,2.72143505 C18.9866644,2.72143505 18.9554112,2.70525227 18.9554112,2.68558098 C18.9554112,2.6659097 18.9005297,2.64972691 18.8335987,2.64972691 C18.7589486,2.64972691 18.7117863,2.63228439 18.7117863,2.60476397 C18.7117863,2.55476208 18.4829409,2.47065038 18.3469138,2.47065038 C18.298716,2.47065038 18.259367,2.45446759 18.259367,2.43479631 C18.259367,2.41512502 18.1976136,2.39894224 18.1222104,2.39894224 C18.0468072,2.39894224 17.9753577,2.38285636 17.9634965,2.36318507 C17.9517294,2.34341688 17.8333059,2.327331 17.7004795,2.327331 C17.5626639,2.327331 17.4589257,2.31192344 17.4589257,2.29147693 C17.4589257,2.26880166 17.1988269,2.25571977 16.7483845,2.25571977 L16.0377492,2.25571977 L16.0262646,1.80182664 C16.0180747,1.47943073 16.0020716,1.34376668 15.9711948,1.33320427 C15.9451191,1.3242892 15.9277038,1.25480983 15.9277038,1.16003881 C15.9277038,1.07302001 15.9120772,1.00189329 15.8928734,1.00189329 C15.8737637,1.00189329 15.8580429,0.961775496 15.8580429,0.912742634 C15.8580429,0.863709772 15.8306493,0.789191451 15.7972309,0.747135597 C15.6073578,0.508754491 15.5203759,0.485400895 14.8980405,0.505750501 L14.4925952,0.519026197 L14.39234,0.642674283 C14.3371761,0.710700111 14.2920848,0.787059587 14.2920848,0.812448144 C14.2920848,0.837836701 14.276364,0.858573919 14.2572544,0.858573919 C14.2381447,0.858573919 14.2224239,0.90557182 14.2224239,0.963035233 C14.2224239,1.02049865 14.2028435,1.07418285 14.1789329,1.08241959 C14.147209,1.09327272 14.1324296,1.25335629 14.1243338,1.6764343 L14.1132257,2.25571977 L11.2271936,2.25571977 L8.34106733,2.25571977 L8.34106733,1.70250118 C8.34106733,1.37244994 8.32704101,1.14046442 8.30633102,1.12728563 C8.2871272,1.11507587 8.27150057,1.06749655 8.27150057,1.02146768 C8.27150057,0.975535706 8.24796648,0.928634708 8.21925489,0.91729707 C8.19054331,0.905959432 8.16710336,0.871946518 8.16710336,0.841809719 C8.16710336,0.811576018 8.15411254,0.786865782 8.1382035,0.786865782 C8.12229446,0.786865782 8.08831123,0.746651083 8.06270615,0.697327512 C8.03710106,0.648100845 7.98880912,0.607789243 7.95529658,0.607789243 C7.92187817,0.607789243 7.88798909,0.587633442 7.88008163,0.563020109 C7.86539636,0.51776646 7.09733791,0.486563729 6.92299739,0.524258953 M6.46182342,4.61792149 C6.46182342,4.86444244 6.47660283,5.05505042 6.49665387,5.0678416 C6.51576355,5.08005136 6.53148432,5.12927803 6.53148432,5.17743877 C6.53148432,5.2255026 6.54711095,5.26484517 6.56622063,5.26484517 C6.58542445,5.26484517 6.60105108,5.2891678 6.60105108,5.31891698 C6.60105108,5.39847426 6.7764271,5.58724108 6.85041827,5.58724108 C6.88553112,5.58724108 6.91424271,5.60342387 6.91424271,5.62309515 C6.91424271,5.64276644 6.96036952,5.65894922 7.01656892,5.65894922 C7.07286246,5.65894922 7.12868531,5.6750351 7.14045235,5.69470639 C7.15231353,5.71447458 7.27064292,5.73056046 7.40356344,5.73056046 C7.54137906,5.73056046 7.64511731,5.7151529 7.64511731,5.69470639 C7.64511731,5.6750351 7.6927503,5.65894922 7.75111484,5.65894922 C7.81776337,5.65894922 7.889307,5.62571153 7.94409435,5.56941095 C7.99191562,5.52008738 8.04604401,5.47977578 8.06430647,5.47977578 C8.08256892,5.47977578 8.0975366,5.44760402 8.0975366,5.40816455 C8.0975366,5.36872507 8.11316323,5.33655331 8.13227291,5.33655331 C8.15147672,5.33655331 8.16710336,5.31184307 8.16710336,5.28160937 C8.16710336,5.25147257 8.19054331,5.21755656 8.21925489,5.20621892 C8.25154366,5.19342774 8.27150057,5.13896832 8.27150057,5.06396548 C8.27150057,4.99710249 8.2871272,4.94244926 8.30633102,4.94244926 C8.32732342,4.94244926 8.34106733,4.79321881 8.34106733,4.56627225 L8.34106733,4.19019214 L11.2267229,4.19019214 L14.1123785,4.19019214 L14.1238631,4.64398836 C14.1321471,4.96638428 14.1480562,5.10214522 14.1789329,5.11270764 C14.2028435,5.12084748 14.2224239,5.17104318 14.2224239,5.22414596 C14.2224239,5.27957441 14.2520769,5.34265819 14.2920848,5.37231048 C14.3303042,5.40070302 14.3616516,5.43771993 14.3616516,5.45448413 C14.3616516,5.53588255 14.5707284,5.65894922 14.709203,5.65894922 C14.7669085,5.65894922 14.8140708,5.6750351 14.8140708,5.69470639 C14.8140708,5.74180119 15.2904008,5.74180119 15.3186417,5.69470639 C15.3305029,5.6750351 15.3862316,5.65894922 15.4425251,5.65894922 C15.4988186,5.65894922 15.5448513,5.64276644 15.5448513,5.62309515 C15.5448513,5.60342387 15.5617017,5.58724108 15.5821293,5.58724108 C15.6266558,5.58724108 15.7189094,5.49760591 15.7189094,5.45448413 C15.7189094,5.43771993 15.7501627,5.40070302 15.7884762,5.37231048 C15.8267897,5.34391793 15.8580429,5.29197798 15.8580429,5.25699604 C15.8580429,5.22191719 15.8737637,5.19323394 15.8928734,5.19323394 C15.9120772,5.19323394 15.9277038,5.12763068 15.9277038,5.04739509 C15.9277038,4.96551215 15.950579,4.87791194 15.9798554,4.84777514 C16.0180747,4.80852947 16.032101,4.71269251 16.032101,4.49214154 L16.032101,4.19019214 L16.621677,4.19019214 C16.9771358,4.19019214 17.2197252,4.20433996 17.232716,4.2259493 C17.2445772,4.24571749 17.34728,4.26180337 17.4609967,4.26180337 C17.5756547,4.26180337 17.6677201,4.27779235 17.6677201,4.29765744 C17.6677201,4.31732873 17.7068808,4.33341461 17.7547021,4.33341461 C17.8026175,4.33341461 17.8417782,4.34959739 17.8417782,4.36926868 C17.8417782,4.38893996 17.8887522,4.40512274 17.9461754,4.40512274 C18.0035986,4.40512274 18.0505726,4.42120862 18.0505726,4.44087991 C18.0505726,4.4606481 18.0799431,4.47673398 18.1159032,4.47673398 C18.1518633,4.47673398 18.2007201,4.5009597 18.2245366,4.53051508 C18.2483531,4.56007046 18.2894907,4.58419928 18.3158488,4.58419928 C18.342207,4.58419928 18.3637642,4.60038206 18.3637642,4.62005335 C18.3637642,4.63972464 18.3951116,4.65590742 18.433331,4.65590742 C18.4716445,4.65590742 18.5029919,4.66802028 18.5029919,4.68294333 C18.5029919,4.69786637 18.5468594,4.73003813 18.6005172,4.75445766 C18.6541749,4.77887719 18.7738222,4.87151635 18.8663582,4.96027939 C18.9588942,5.04894554 19.0481355,5.1215258 19.0646093,5.1215258 C19.0810832,5.1215258 19.0945447,5.14187541 19.0945447,5.16668255 C19.0945447,5.19148969 19.1490496,5.26000003 19.215604,5.31891698 C19.2821584,5.37783394 19.3370399,5.44624738 19.3374165,5.47086071 C19.337793,5.49547405 19.3537962,5.51562985 19.373,5.51562985 C19.3921097,5.51562985 19.4077363,5.5443131 19.4077363,5.57939195 C19.4077363,5.6144708 19.4390837,5.66631384 19.4773972,5.69470639 C19.5156166,5.72319584 19.546964,5.77503888 19.546964,5.81011773 C19.546964,5.84519657 19.5626848,5.87387983 19.5817944,5.87387983 C19.6009041,5.87387983 19.6166249,5.906633 19.6166249,5.9466539 C19.6166249,5.98667479 19.6400648,6.02873064 19.6687764,6.04006828 C19.697488,6.05140592 19.7210221,6.0911361 19.7210221,6.12844372 C19.7210221,6.16575133 19.7366487,6.19627574 19.7557584,6.19627574 C19.7749622,6.19627574 19.7905889,6.24366125 19.7905889,6.30160918 C19.7905889,6.35955711 19.8062155,6.41692362 19.8254193,6.42913338 C19.844529,6.44134314 19.8601556,6.51479553 19.8601556,6.59241475 C19.8601556,6.67013087 19.8758764,6.73360226 19.8949861,6.73360226 C19.9151312,6.73360226 19.9298165,6.84707554 19.9298165,7.00231397 C19.9298165,7.1575524 19.9445018,7.27102568 19.9645528,7.27102568 C19.9848863,7.27102568 19.9993833,7.39041004 19.9993833,7.55756752 L19.9993833,7.84420626 L11.1948107,7.84420626 L2.39014399,7.84420626 L2.39014399,7.48595629 C2.39014399,7.27102568 2.40407617,7.12770631 2.42497444,7.12770631 C2.4445548,7.12770631 2.45971075,7.02615208 2.45971075,6.89484866 C2.45971075,6.76344835 2.47496084,6.66199102 2.4945412,6.66199102 C2.51365088,6.66199102 2.52937165,6.60559354 2.52937165,6.53659868 C2.52937165,6.46760383 2.54499828,6.41120635 2.5642021,6.41120635 C2.58331177,6.41120635 2.59893841,6.3628518 2.59893841,6.30374104 C2.59893841,6.24463028 2.61305886,6.19627574 2.63028581,6.19627574 C2.64751276,6.19627574 2.69062721,6.12379238 2.72602248,6.03522314 C2.76141774,5.9466539 2.80208465,5.87407363 2.81648751,5.87397673 C2.83079623,5.87387983 2.84256328,5.84161117 2.84256328,5.80217169 C2.84256328,5.76282912 2.85818991,5.73056046 2.87739372,5.73056046 C2.8965034,5.73056046 2.91213004,5.70943563 2.91213004,5.68356255 C2.91213004,5.65778639 2.94347744,5.60197032 2.98179093,5.55972066 C3.02001029,5.5173741 3.05135769,5.47347709 3.05135769,5.46213945 C3.05135769,5.40545126 3.57823883,4.87083803 3.63406168,4.87083803 C3.64968832,4.87083803 3.68498945,4.83856937 3.7125714,4.79912989 C3.74015335,4.75978732 3.79061043,4.72751865 3.82468779,4.72751865 C3.85876515,4.72751865 3.8866295,4.71143278 3.8866295,4.69166459 C3.8866295,4.6719933 3.90781018,4.65590742 3.93369768,4.65590742 C3.95958517,4.65590742 4.02303307,4.61559582 4.07471393,4.56627225 C4.12630064,4.51704558 4.19812668,4.47673398 4.23436917,4.47673398 C4.27051753,4.47673398 4.30977239,4.4606481 4.32163357,4.44087991 C4.33340061,4.42120862 4.37350269,4.40512274 4.41068655,4.40512274 C4.44777627,4.40512274 4.47818231,4.38893996 4.47818231,4.36926868 C4.47818231,4.34959739 4.5330638,4.33341461 4.59999474,4.33341461 C4.66701982,4.33341461 4.72180718,4.31732873 4.72180718,4.29765744 C4.72180718,4.27788925 4.80700057,4.26180337 4.91120951,4.26180337 C5.01532431,4.26180337 5.11021375,4.24571749 5.12198079,4.2259493 C5.13515988,4.20414615 5.40081265,4.19019214 5.80268072,4.19019214 L6.46182342,4.19019214 L6.46182342,4.61792149 M10.2203112,14.3121834 L10.2203112,18.845785 L9.72440095,18.8244664 C9.45168795,18.8126442 8.24580134,18.7954924 7.04480982,18.7861898 C5.64500234,18.7753366 4.86103484,18.7566344 4.86103484,18.734056 C4.86103484,18.7145785 4.82309789,18.6986864 4.77687694,18.6986864 C4.73056186,18.6986864 4.64828669,18.6759143 4.59415829,18.6480062 C4.47837058,18.5885079 4.22937995,18.4739686 4.06925402,18.4064273 C4.00712403,18.3802636 3.95619627,18.3466382 3.95619627,18.3317152 C3.95619627,18.3168891 3.93200322,18.3046793 3.90244441,18.3046793 C3.87279146,18.3046793 3.8094377,18.2643677 3.76161643,18.215141 C3.71379517,18.1658175 3.65938436,18.1255059 3.64065123,18.1255059 C3.59358305,18.1255059 3.05135769,17.5600775 3.05135769,17.5110446 C3.05135769,17.4891446 3.02274024,17.4451507 2.98781566,17.4132696 C2.95289107,17.3813886 2.90205745,17.3028972 2.87494618,17.2389413 C2.84783491,17.1748885 2.81375755,17.1224641 2.79926056,17.1224641 C2.78476356,17.1224641 2.77299651,17.0901954 2.77299651,17.0508528 C2.77299651,17.0114133 2.75727574,16.9791447 2.73816607,16.9791447 C2.71905639,16.9791447 2.70333562,16.9545313 2.70333562,16.9242976 C2.70333562,16.8941608 2.67989567,16.8601479 2.65118408,16.8488103 C2.61898945,16.836116 2.59893841,16.7816566 2.59893841,16.7066538 C2.59893841,16.6397908 2.58331177,16.5851375 2.5642021,16.5851375 C2.54499828,16.5851375 2.52937165,16.536783 2.52937165,16.4776722 C2.52937165,16.4185615 2.51365088,16.3702069 2.4945412,16.3702069 C2.47543152,16.3702069 2.45971075,16.3138094 2.45971075,16.2448146 C2.45971075,16.1758197 2.44408412,16.1194223 2.42497444,16.1194223 C2.40200517,16.1194223 2.39014399,15.0387612 2.39014399,12.9490504 L2.39014399,9.77867863 L6.30527468,9.77867863 L10.2203112,9.77867863 L10.2203112,14.3121834 M19.9830035,11.4355242 C19.9341468,15.6903363 19.9092007,16.4780598 19.8212773,16.5340697 C19.8043328,16.544729 19.7905889,16.6009327 19.7905889,16.6588806 C19.7905889,16.7168286 19.7749622,16.7642141 19.7557584,16.7642141 C19.7366487,16.7642141 19.7210221,16.7964827 19.7210221,16.8359222 C19.7210221,16.8752648 19.7092551,16.9076304 19.6948522,16.9077273 C19.6598335,16.9081149 19.546964,17.1151963 19.546964,17.1791522 C19.546964,17.2070603 19.5313374,17.2299294 19.5121335,17.2299294 C19.4930239,17.2299294 19.4773972,17.2586126 19.4773972,17.2936915 C19.4773972,17.3287703 19.4460498,17.3807103 19.4077363,17.4091028 C19.369517,17.4374953 19.3381696,17.4814893 19.3381696,17.5068778 C19.3381696,17.5563952 18.8320926,18.0897487 18.7851185,18.0897487 C18.769586,18.0897487 18.7077385,18.1381032 18.6476795,18.197214 C18.5875263,18.2563248 18.5147589,18.3046793 18.4858591,18.3046793 C18.4569592,18.3046793 18.433331,18.3207652 18.433331,18.3405334 C18.433331,18.3602047 18.4020777,18.3762905 18.3637642,18.3762905 C18.3254507,18.3762905 18.2941033,18.3924733 18.2941033,18.4121446 C18.2941033,18.4318159 18.2637914,18.4479987 18.2266076,18.4479987 C18.1894237,18.4479987 18.1494158,18.4640845 18.1375546,18.4837558 C18.1256934,18.503524 18.0856855,18.5196099 18.0485016,18.5196099 C18.0113178,18.5196099 17.9809117,18.5356958 17.9809117,18.555464 C17.9809117,18.5751353 17.9428806,18.5912211 17.8964714,18.5912211 C17.8499681,18.5912211 17.7884029,18.6154469 17.7596913,18.6450022 C17.7309797,18.6745576 17.6672494,18.6986864 17.6180161,18.6986864 C17.5687828,18.6986864 17.5284924,18.7145785 17.5284924,18.734056 C17.5284924,18.7566344 16.7330403,18.7753366 15.3099811,18.7860928 C14.0897858,18.7952986 12.8838992,18.8125473 12.6302959,18.8243695 L12.169216,18.8459788 L12.169216,14.3122803 L12.169216,9.77867863 L16.0855705,9.77867863 L20.0020191,9.77867863 L19.9830035,11.4355242 M5.93983738,10.8891857 C5.93983738,10.908857 5.88505002,10.9250398 5.81802494,10.9250398 C5.751094,10.9250398 5.69621251,10.9411257 5.69621251,10.960797 C5.69621251,10.9805652 5.66495924,10.996651 5.62664575,10.996651 C5.58833226,10.996651 5.55707899,11.0090546 5.55707899,11.0243653 C5.55707899,11.039579 5.5021975,11.0824101 5.43526656,11.1195239 C5.36824148,11.1566377 5.31345412,11.2006316 5.31345412,11.217202 C5.31345412,11.2338693 5.28935522,11.2474357 5.25989054,11.2474357 C5.20764487,11.2474357 4.86112897,11.5832042 4.8609407,11.6339813 C4.86084656,11.6479354 4.81396666,11.7157674 4.75663763,11.7847622 C4.69930859,11.8537571 4.65233455,11.9303104 4.65233455,11.9549237 C4.65224042,11.979537 4.63651965,11.9996928 4.61740997,11.9996928 C4.59830029,11.9996928 4.58257952,12.0382602 4.58257952,12.0854519 C4.58257952,12.1325467 4.55913957,12.1804167 4.53042798,12.1917544 C4.5017164,12.203092 4.47818231,12.2371049 4.47818231,12.2672417 C4.47818231,12.2974754 4.46255568,12.3220888 4.443446,12.3220888 C4.42424218,12.3220888 4.40861555,12.3624004 4.40861555,12.4117239 C4.40861555,12.4609506 4.39298892,12.5012622 4.3737851,12.5012622 C4.35467542,12.5012622 4.33904879,12.5496167 4.33904879,12.6087275 C4.33904879,12.6678383 4.32332802,12.7161928 4.30421834,12.7161928 C4.28501453,12.7161928 4.26938789,12.7725903 4.26938789,12.8415851 C4.26938789,12.9104831 4.25376126,12.9669775 4.23455744,12.9669775 C4.21544777,12.9669775 4.19982113,13.0546746 4.19982113,13.1618492 C4.19982113,13.2690238 4.18410036,13.3667019 4.16499068,13.3789117 C4.14381001,13.3923812 4.13016024,13.6651628 4.13016024,14.0774846 C4.13016024,14.4898064 4.14381001,14.762588 4.16499068,14.7760575 C4.18410036,14.7881704 4.19982113,14.8858485 4.19982113,14.99312 C4.19982113,15.1002946 4.21544777,15.1879917 4.23455744,15.1879917 C4.25376126,15.1879917 4.26938789,15.2353772 4.26938789,15.2933251 C4.26938789,15.3512731 4.28501453,15.4086396 4.30421834,15.4208493 C4.32332802,15.4330591 4.33904879,15.4904256 4.33904879,15.5483735 C4.33904879,15.6063215 4.35467542,15.653707 4.3737851,15.653707 C4.39298892,15.653707 4.40861555,15.6859756 4.40861555,15.7253182 C4.40861555,15.7647577 4.42424218,15.7970263 4.443446,15.7970263 C4.46255568,15.7970263 4.47818231,15.82726 4.47818231,15.8642769 C4.47818231,15.9012939 4.5017164,15.9515865 4.53042798,15.9761029 C4.55913957,16.0006193 4.58257952,16.0429659 4.58257952,16.0700987 C4.58257952,16.0972315 4.59830029,16.1194223 4.61740997,16.1194223 C4.63651965,16.1194223 4.65224042,16.1516909 4.65224042,16.1910335 C4.65224042,16.230473 4.66786705,16.2627416 4.68697673,16.2627416 C4.70618054,16.2627416 4.72180718,16.2786337 4.72180718,16.2981112 C4.72180718,16.389103 5.29340308,16.9791447 5.3815147,16.9791447 C5.40147161,16.9791447 5.41785133,16.9953275 5.41785133,17.0149988 C5.41785133,17.03467 5.4491046,17.0508528 5.48741809,17.0508528 C5.52573159,17.0508528 5.55707899,17.0669387 5.55707899,17.0867069 C5.55707899,17.1063782 5.58833226,17.1224641 5.62664575,17.1224641 C5.66495924,17.1224641 5.69621251,17.1386468 5.69621251,17.1583181 C5.69621251,17.1779894 5.74431618,17.1941722 5.8031514,17.1941722 C5.86189248,17.1941722 5.93353024,17.218301 5.96224183,17.2478564 C6.03670368,17.3245066 6.83545059,17.3254756 6.93372893,17.2490192 C6.97091279,17.2200453 7.04433914,17.1959164 7.09696136,17.1952381 C7.14958358,17.1946567 7.19269803,17.1779894 7.19269803,17.1583181 C7.19269803,17.1386468 7.23185875,17.1224641 7.27968001,17.1224641 C7.32750128,17.1224641 7.366662,17.1063782 7.366662,17.0867069 C7.366662,17.0669387 7.38624236,17.050659 7.41015299,17.0503683 C7.44950198,17.0499807 7.54053183,16.9795323 7.81484515,16.7374689 C7.86501982,16.6930874 7.91783031,16.6568457 7.93223317,16.6568457 C7.9465419,16.6567488 7.95830894,16.6309726 7.95830894,16.5994792 C7.95830894,16.5679857 8.00528298,16.4970528 8.06270615,16.4418182 C8.12012932,16.3865835 8.16710336,16.3151661 8.16710336,16.2829943 C8.16710336,16.2509195 8.18913126,16.2159375 8.21614839,16.2052782 C8.24307139,16.1946189 8.28411484,16.1387059 8.30736652,16.0810487 C8.33052406,16.0232946 8.36328351,15.9761029 8.38013391,15.9761029 C8.39698432,15.9761029 8.41072822,15.9367603 8.41072822,15.8886965 C8.41072822,15.8406326 8.42635486,15.7913091 8.44546454,15.7790993 C8.46466835,15.7668895 8.48029499,15.717566 8.48029499,15.6695021 C8.48029499,15.6214383 8.49592162,15.5820957 8.51512543,15.5820957 C8.53423511,15.5820957 8.54986175,15.5256014 8.54986175,15.4567034 C8.54986175,15.3877085 8.56558252,15.3313111 8.58469219,15.3313111 C8.60380187,15.3313111 8.61952264,15.2898366 8.61952264,15.2391564 C8.61952264,15.1884762 8.64296259,15.1228729 8.67167418,15.0933176 C8.70518672,15.058917 8.72391985,14.9704447 8.72391985,14.8472811 C8.72391985,14.7414632 8.73954649,14.6449479 8.7587503,14.6327381 C8.77927202,14.6196562 8.79348661,14.3994929 8.79348661,14.0932798 C8.79348661,13.7722405 8.78030752,13.5759152 8.7587503,13.5759152 C8.73935821,13.5759152 8.72391985,13.4800783 8.72391985,13.3599187 C8.72391985,13.2009011 8.71008181,13.1383987 8.67167418,13.1231849 C8.63627891,13.1092309 8.61952264,13.0520582 8.61952264,12.9451743 C8.61952264,12.85864 8.60380187,12.787804 8.58469219,12.787804 C8.56558252,12.787804 8.54986175,12.7394495 8.54986175,12.6803387 C8.54986175,12.621228 8.53423511,12.5728734 8.51512543,12.5728734 C8.49592162,12.5728734 8.48029499,12.5325618 8.48029499,12.4833352 C8.48029499,12.4341085 8.46466835,12.3937969 8.44546454,12.3937969 C8.42635486,12.3937969 8.41072822,12.3615282 8.41072822,12.3220888 C8.41072822,12.2827462 8.39500745,12.2504775 8.37589778,12.2504775 C8.3567881,12.2504775 8.34106733,12.2182089 8.34106733,12.1788663 C8.34106733,12.1394268 8.32544069,12.1071581 8.30633102,12.1071581 C8.2871272,12.1071581 8.27121816,12.0789594 8.27093575,12.044462 C8.2705592,12.0099645 8.23139848,11.9438768 8.18385963,11.8974603 C8.13641491,11.8510438 8.0975366,11.7941618 8.0975366,11.771002 C8.0975366,11.7478422 8.06618919,11.7056895 8.0278757,11.6772969 C7.98965634,11.6489044 7.95793239,11.6090773 7.95755585,11.5888246 C7.95708517,11.568475 7.90050922,11.5035501 7.83169555,11.4444393 C7.76297602,11.3853285 7.67316994,11.3047053 7.6321265,11.2653628 C7.48875684,11.1275668 7.30123723,10.996651 7.24720297,10.996651 C7.21717348,10.996651 7.19269803,10.9805652 7.19269803,10.960797 C7.19269803,10.9411257 7.14572399,10.9250398 7.08830082,10.9250398 C7.03087764,10.9250398 6.98390361,10.908857 6.98390361,10.8891857 C6.98390361,10.8668981 6.78668796,10.8533317 6.46182342,10.8533317 C6.13705303,10.8533317 5.93983738,10.8668981 5.93983738,10.8891857 M15.6145122,11.0325051 C15.5858006,11.051595 15.527342,11.0674871 15.4846982,11.0677778 C15.4375359,11.0680685 15.3317266,11.1459784 15.2143386,11.2668163 L15.0214532,11.4653703 L15.0308669,13.9774808 C15.0382095,15.9483887 15.0496,16.4927891 15.0837715,16.5045143 C15.1076821,16.5127511 15.1272625,16.5664353 15.1272625,16.6238987 C15.1272625,16.6813621 15.1428891,16.7284569 15.1620929,16.7284569 C15.1812026,16.7284569 15.1968292,16.7457056 15.1968292,16.7668305 C15.1968292,16.8118903 15.2564175,16.8719701 15.363074,16.9343755 C15.4573045,16.9896102 16.3650613,16.9974593 16.3975383,16.9433875 C16.4093054,16.9236193 16.4427238,16.9075334 16.4716237,16.9075334 C16.5324357,16.9075334 16.623748,16.8230341 16.623748,16.7668305 C16.623748,16.7457056 16.6393746,16.7284569 16.6584843,16.7284569 C16.6776881,16.7284569 16.6933148,16.6729316 16.6933148,16.6051964 C16.6933148,16.5373644 16.7089414,16.471955 16.7281452,16.4597452 C16.7507379,16.4453067 16.7628815,15.5876192 16.7628815,14.0037415 C16.7628815,12.4050376 16.7509262,11.5698316 16.7281452,11.5698316 C16.7089414,11.5698316 16.6933148,11.5088797 16.6933148,11.4344583 C16.6933148,11.3026704 16.606521,11.1757276 16.5164326,11.1757276 C16.4960991,11.1757276 16.455997,11.1515988 16.4272854,11.1220434 C16.398668,11.092488 16.3302309,11.0682623 16.2752552,11.0682623 C16.2203737,11.0682623 16.1656805,11.0521764 16.1539135,11.0325051 C16.1263315,10.9865731 15.68342,10.9865731 15.6145122,11.0325051 M6.70798997,12.4564931 C6.74809206,12.4908936 6.81332855,12.547388 6.85295995,12.5818854 C6.89249721,12.6162859 6.93815334,12.6444847 6.95443893,12.6444847 C6.97063038,12.6444847 6.98390361,12.6731679 6.98390361,12.7082468 C6.98390361,12.7433256 7.01515687,12.7952656 7.05347037,12.8236581 C7.09178386,12.8520507 7.12303713,12.9039906 7.12303713,12.9390694 C7.12303713,12.9740514 7.1387579,13.0027346 7.15786758,13.0027346 C7.17697726,13.0027346 7.19269803,13.0430462 7.19269803,13.0923698 C7.19269803,13.148089 7.21237252,13.1819081 7.24484956,13.1819081 C7.28118619,13.1819081 7.29709523,13.2195064 7.29709523,13.3051686 C7.29709523,13.3729037 7.31272187,13.43841 7.33183155,13.4505229 C7.35103536,13.4627327 7.366662,13.5926794 7.366662,13.7392935 C7.366662,13.8930784 7.3814414,14.0058733 7.40149244,14.0058733 C7.42060212,14.0058733 7.43632289,14.0370761 7.43632289,14.0753527 C7.43632289,14.1136294 7.42060212,14.1548131 7.40149244,14.1670229 C7.38238277,14.1792326 7.366662,14.3090825 7.366662,14.4556966 C7.366662,14.6095783 7.35197673,14.7222764 7.33183155,14.7222764 C7.31272187,14.7222764 7.29709523,14.7770265 7.29709523,14.8438895 C7.29709523,14.9188924 7.27704419,14.9732549 7.24484956,14.9860461 C7.21613798,14.9973837 7.19269803,15.0281019 7.19269803,15.0543626 C7.19269803,15.1211287 7.11108181,15.2948756 7.07954614,15.2951663 C7.06523741,15.2953601 7.05347037,15.3212332 7.05347037,15.3527266 C7.05347037,15.418136 6.75110442,15.7253182 6.68680929,15.7253182 C6.66346348,15.7253182 6.62486758,15.7495439 6.60105108,15.7790993 C6.57723459,15.8086547 6.51378669,15.8328804 6.46003483,15.8328804 C6.40637712,15.8328804 6.33897549,15.8086547 6.3102639,15.7790993 C6.28155232,15.7495439 6.24003819,15.7253182 6.21801028,15.7253182 C6.19598238,15.7253182 6.12048503,15.6613623 6.05025931,15.5831617 C5.86264557,15.3745297 5.83544017,15.3382881 5.83544017,15.2970074 C5.83544017,15.276464 5.81981353,15.2596998 5.80060972,15.2596998 C5.78150004,15.2596998 5.76587341,15.2274312 5.76587341,15.1879917 C5.76587341,15.1486491 5.75015264,15.1163805 5.73104296,15.1163805 C5.71193328,15.1163805 5.69621251,15.0680259 5.69621251,15.0089151 C5.69621251,14.9498044 5.68058588,14.9014498 5.6614762,14.9014498 C5.64227238,14.9014498 5.62664575,14.8288696 5.62664575,14.7402034 C5.62664575,14.6515373 5.61101912,14.5790539 5.5918153,14.5790539 C5.57025808,14.5790539 5.55707899,14.3886398 5.55707899,14.0796164 C5.55707899,13.7853224 5.57129358,13.5710701 5.5918153,13.5579882 C5.61101912,13.5458753 5.62664575,13.4894779 5.62664575,13.4326928 C5.62664575,13.3759077 5.64227238,13.3194133 5.6614762,13.3073004 C5.68058588,13.2950907 5.69621251,13.2457671 5.69621251,13.1977033 C5.69621251,13.1495425 5.71193328,13.1101999 5.73104296,13.1101999 C5.75015264,13.1101999 5.76587341,13.0698883 5.76587341,13.0206617 C5.76587341,12.971435 5.78150004,12.9311234 5.80060972,12.9311234 C5.81981353,12.9311234 5.83544017,12.912615 5.83544017,12.8899397 C5.83544017,12.8672644 5.90594829,12.7801487 5.99208305,12.6964246 C6.07821781,12.6127005 6.1486318,12.5264569 6.1486318,12.5047507 C6.1486318,12.4831414 6.1799792,12.4654081 6.21829269,12.4654081 C6.25651205,12.4654081 6.28785945,12.4493222 6.28785945,12.4295541 C6.28785945,12.3661796 6.62835062,12.3879827 6.70798997,12.4564931" id="path-1"></path>
    </defs>
    <g id="Material-Components" stroke="none" stroke-width="1" fill="none" fill-rule="evenodd">
        <g id="Navigation" transform="translate(-115.000000, -1215.000000)">
            <g id="Bottom-Navigation-/-Primary-Color-/-Active-/-Resting-Copy-6" transform="translate(81.000000, 1185.000000)">
                <g id="Bottom-Navigation-/-4-up-/-Primary-Color-Copy-4">
                    <g id="Nav_bottom-/-Icon_with_text-/-Games-/-Inactive-Copy" transform="translate(34.000000, 30.000000)">
                        <mask id="mask-2" fill="white">
                            <use xlink:href="#path-1"></use>
                        </mask>
                        <g id="Games"></g>
                        <g id="✱-/-Color-/-Icons-/-Selected-/-On-Primary-/-Inactive-" mask="url(#mask-2)" fill="#FFFFFF" fill-opacity="0.54">
                            <g transform="translate(-8.000000, 0.000000)" id="Rectangle">
                                <rect x="0" y="0" width="38" height="36"></rect>
                            </g>
                        </g>
                    </g>
                </g>
            </g>
        </g>
    </g>
</svg>