<?xml version="1.0" encoding="UTF-8"?>
<svg width="20px" height="20px" viewBox="0 0 20 20" version="1.1" xmlns="http://www.w3.org/2000/svg" xmlns:xlink="http://www.w3.org/1999/xlink">
    <!-- Generator: Sketch 52.6 (67491) - http://www.bohemiancoding.com/sketch -->
    <title>TAB 2</title>
    <desc>Created with Sketch.</desc>
    <defs>
        <path d="M12,2 C6.48,2 2,6.48 2,12 C2,17.52 6.48,22 12,22 C17.52,22 22,17.52 22,12 C22,6.48 17.52,2 12,2 Z M12,5 C13.66,5 15,6.34 15,8 C15,9.66 13.66,11 12,11 C10.34,11 9,9.66 9,8 C9,6.34 10.34,5 12,5 Z M12,19.2 C9.5,19.2 7.29,17.92 6,15.98 C6.03,13.99 10,12.9 12,12.9 C13.99,12.9 17.97,13.99 18,15.98 C16.71,17.92 14.5,19.2 12,19.2 Z" id="path-1"></path>
    </defs>
    <g id="Material-Components" stroke="none" stroke-width="1" fill="none" fill-rule="evenodd">
        <g id="Bottom-Navigation" transform="translate(-278.000000, -1321.000000)">
            <g id="Bottom-Navigation-/-Primary-Color-/-Inactive-/-Resting" transform="translate(153.000000, 1303.000000)">
                <g id="Bottom-Navigation-/-4-up-/-Primary-Color-Copy-2">
                    <g id="Bottom-Navigation-/-Elements-/-Inactive-/-Resting" transform="translate(90.000000, 0.000000)">
                        <g id="Icon-/-Circle-/-Filled" transform="translate(33.000000, 16.000000)">
                            <mask id="mask-2" fill="white">
                                <use xlink:href="#path-1"></use>
                            </mask>
                            <g id="Mask" fill-rule="nonzero"></g>
                            <g id="✱-/-Color-/-Icons-/-Selected-/-On-Primary-/-Inactive-" mask="url(#mask-2)" fill="#FFFFFF" fill-opacity="0.54" fill-rule="evenodd">
                                <rect id="Rectangle" x="0" y="0" width="24" height="24"></rect>
                            </g>
                        </g>
                    </g>
                </g>
            </g>
        </g>
    </g>
</svg>