<?xml version="1.0" encoding="UTF-8"?>
<svg width="4px" height="16px" viewBox="0 0 4 16" version="1.1" xmlns="http://www.w3.org/2000/svg" xmlns:xlink="http://www.w3.org/1999/xlink">
    <!-- Generator: Sketch 52.6 (67491) - http://www.bohemiancoding.com/sketch -->
    <title>Icon / More Vert / Filled</title>
    <desc>Created with Sketch.</desc>
    <defs>
        <path d="M12,8 C13.1,8 14,7.1 14,6 C14,4.9 13.1,4 12,4 C10.9,4 10,4.9 10,6 C10,7.1 10.9,8 12,8 L12,8 Z M12,10 C10.9,10 10,10.9 10,12 C10,13.1 10.9,14 12,14 C13.1,14 14,13.1 14,12 C14,10.9 13.1,10 12,10 L12,10 Z M12,16 C10.9,16 10,16.9 10,18 C10,19.1 10.9,20 12,20 C13.1,20 14,19.1 14,18 C14,16.9 13.1,16 12,16 L12,16 Z" id="path-1"></path>
    </defs>
    <g id="Material-Theme" stroke="none" stroke-width="1" fill="none" fill-rule="evenodd">
        <g id="System-Icons" transform="translate(-198.000000, -1348.000000)">
            <g id="Icon-/-More-Vert-/-Filled" transform="translate(188.000000, 1344.000000)">
                <mask id="mask-2" fill="white">
                    <use xlink:href="#path-1"></use>
                </mask>
                <g id="Mask"></g>
                <g id="✱-/-Color-/-Icons-/-Selected-/-On-Surface-/-Inactive" mask="url(#mask-2)" fill="#414141" fill-opacity="0.54" fill-rule="evenodd">
                    <rect id="Rectangle" x="0" y="0" width="24" height="24"></rect>
                </g>
            </g>
        </g>
    </g>
</svg>