<?xml version="1.0" encoding="UTF-8"?>
<svg width="20px" height="20px" viewBox="0 0 20 20" version="1.1" xmlns="http://www.w3.org/2000/svg" xmlns:xlink="http://www.w3.org/1999/xlink">
    <!-- Generator: Sketch 52.6 (67491) - http://www.bohemiancoding.com/sketch -->
    <title>Football</title>
    <desc>Created with Sketch.</desc>
    <defs>
        <path d="M18.4259463,6.93704308 C18.4973266,6.96251775 18.5676454,6.98878849 18.6369028,7.01744749 C18.8168128,7.09121787 18.9935386,7.16976476 19.1662841,7.25255742 C18.8510435,6.77676498 18.4869778,6.3320198 18.0778018,5.92230227 C17.5484205,5.39370298 16.9627841,4.94205841 16.3277919,4.57241041 L18.4259463,6.93704308 Z M6.54843375,8.95378737 C7.25852118,8.50373496 8.04423452,8.08685268 8.9995091,7.65272194 C9.14678059,7.58558559 9.29750169,7.52587934 9.44822279,7.46643846 C9.47502355,7.45582401 9.50155896,7.44520957 9.52809436,7.43459513 L10.4602831,4.62734015 C9.98821828,4.31792912 9.5307479,4.08547281 9.06982792,3.92068357 C7.8821032,4.34871101 6.8241366,5.02140137 5.9227289,5.92230227 C5.82905892,6.0162401 5.73777713,6.11203545 5.64941423,6.20862689 C5.50055061,6.47239581 5.37503814,6.72289668 5.26650834,6.97339755 C5.12666676,7.29607664 4.99956217,7.63600419 4.87643789,7.96478658 L6.54843375,8.95378737 Z M11.602367,8.88240523 C11.9781083,9.30353328 12.3533189,9.72466133 12.7269374,10.1479123 C12.7378169,10.1603842 12.7486964,10.1728562 12.759576,10.1855935 L16.4787783,9.80373894 C16.6616072,9.35448261 16.8492126,8.89142751 17.0222234,8.43394499 C17.1076674,8.20732662 17.1822319,7.97778928 17.2581232,7.73816821 L14.6433244,4.79106795 C14.5446126,4.78682217 14.4461663,4.78496464 14.3479853,4.78496464 C14.1556036,4.78496464 13.9502196,4.79186403 13.6816813,4.80672425 C13.1793661,4.83591397 12.6640485,4.88951691 12.1657136,4.94126232 L11.8244683,4.97655535 L10.8134694,8.02051241 L11.5025938,8.70885908 L11.4755277,8.73990633 L11.602367,8.88240523 Z M3.87844131,14.8095105 C4.14538748,15.0799135 4.44338008,15.3264339 4.78250255,15.5570327 L6.16473179,13.3895633 C5.95457139,12.3339569 5.84365339,11.2451804 5.83755025,10.1654261 L4.18200634,9.18597832 L4.17961816,9.18942801 C3.972642,9.48105985 3.78344456,9.79259377 3.61680222,10.1160689 C3.26786164,11.6790458 3.35834737,13.2988099 3.87844131,14.8095105 Z M13.2292526,17.4275631 C14.2009792,17.4100492 15.1875655,17.3131924 16.1669873,17.1383195 L18.0525932,13.6214889 C18.0053602,13.5299394 17.9583925,13.4389205 17.9111595,13.3486977 C17.5643417,12.685295 17.1495933,11.9988059 16.6138435,11.2021919 L12.7816004,11.5959877 C12.6030171,11.94308 12.4236377,12.2901724 12.2413395,12.6354071 C11.9590028,13.1717019 11.6742779,13.7077313 11.3871648,14.2421685 L13.2292526,17.4275631 Z M17.3809821,17.8484257 C17.4502395,18.0814128 17.5096788,18.3175842 17.5587693,18.5558784 C17.7376179,18.4038265 17.9114248,18.2440791 18.0778018,18.0776977 C19.3154131,16.8400536 20.1398681,15.2561133 20.4508631,13.5461264 C20.1308461,13.7385132 19.7813748,13.9226738 19.3870587,14.1063037 L17.3809821,17.8484257 Z M11.0682093,19.408749 C11.0785581,19.3957463 11.0886415,19.3822128 11.0984596,19.3689448 C11.3802656,18.9916013 11.6790543,18.5821492 12.0078279,18.1225438 L10.2214645,15.0337407 C9.08336097,14.8670939 8.0824455,14.670196 7.16723939,14.4326978 L5.76643537,16.6285608 C5.79429754,16.6776526 5.91662576,16.8859611 5.94714147,16.9400947 C6.28493718,17.5398108 6.69092887,18.1350157 7.15609452,18.7116454 L11.0682093,19.408749 Z M12.000398,22 C10.7001632,22 9.43389367,21.7537449 8.23741227,21.2678688 C6.99635138,20.7650095 5.88319115,20.0259789 4.92897799,19.0712096 C3.97529554,18.1177673 3.23601916,17.0045775 2.73211182,15.7629529 C2.24624856,14.5648476 2,13.2988099 2,12.000398 C2,10.7019862 2.24624856,9.43568311 2.73211182,8.23704706 C3.23628451,6.9948918 3.97529554,5.88170203 4.92897799,4.92852499 C5.88425256,3.97375579 6.9974128,3.23445979 8.23741227,2.73160053 C9.43601651,2.24598973 10.7020207,2 12.000398,2 C13.29851,2 14.5642488,2.24598973 15.7628531,2.73160053 C17.0028526,3.23392907 18.1157474,3.97322507 19.0712874,4.92852499 C20.0252352,5.88249811 20.7645115,6.99568788 21.2678882,8.2367817 C21.7537514,9.43515238 22,10.7011901 22,12.000398 C22,13.2993406 21.7537514,14.5653783 21.2678882,15.7626876 C20.7645115,17.0043121 20.0255005,18.1172365 19.0712874,19.0712096 C18.1178703,20.0254481 17.00471,20.7644788 15.7628531,21.2678688 C14.5639835,21.7537449 13.2982447,22 12.000398,22 Z" id="path-1"></path>
    </defs>
    <g id="Material-Components" stroke="none" stroke-width="1" fill="none" fill-rule="evenodd">
        <g id="Top-App-Bars" transform="translate(-145.000000, -1435.000000)">
            <g id="Top-Nav-/-Elements-/-Icons-On-Primary-/-Positioned-Right-/-3-Up-with-Menu" transform="translate(79.000000, 1425.000000)">
                <g id="Scooru-/-Football-/-Filled" transform="translate(64.000000, 8.000000)">
                    <mask id="mask-2" fill="white">
                        <use xlink:href="#path-1"></use>
                    </mask>
                    <g id="Football" fill-rule="nonzero"></g>
                    <g id="✱-/-Color-/-Icons-/-Selected-/-On-Primary-/-Active-" mask="url(#mask-2)" fill="#FFFFFF" fill-rule="evenodd">
                        <rect id="Rectangle-3" x="0" y="0" width="24" height="24"></rect>
                    </g>
                </g>
            </g>
        </g>
    </g>
</svg>