<?xml version="1.0" encoding="UTF-8"?>
<svg width="20px" height="21px" viewBox="0 0 20 21" version="1.1" xmlns="http://www.w3.org/2000/svg" xmlns:xlink="http://www.w3.org/1999/xlink">
    <!-- Generator: Sketch 52.6 (67491) - http://www.bohemiancoding.com/sketch -->
    <title>Nav_bottom / Icon_with_text / Services / Active</title>
    <desc>Created with Sketch.</desc>
    <g id="Material-Components" stroke="none" stroke-width="1" fill="none" fill-rule="evenodd">
        <g id="Navigation" transform="translate(-385.000000, -1339.000000)" fill="#FFFFFF">
            <g id="Bottom-Navigation-/-Primary-Color-/-Active-/-Resting-Copy-7" transform="translate(81.000000, 1310.000000)">
                <g id="Bottom-Navigation-/-4-up-/-Primary-Color-Copy-5">
                    <g id="Nav_bottom-/-Icon_with_text-/-Services-/-Active" transform="translate(304.000000, 29.000000)">
                        <path d="M6.2084507,16.2746479 C5.12394366,16.2746479 4.24647887,17.1619718 4.24647887,18.2464789 C4.24647887,19.3309859 5.12394366,20.2183099 6.2084507,20.2183099 C7.29295775,20.2183099 8.18028169,19.3309859 8.18028169,18.2464789 C8.18028169,17.1619718 7.29295775,16.2746479 6.2084507,16.2746479 Z M0.302816901,0.5 L0.302816901,2.47183099 L2.27464789,2.47183099 L5.82394366,9.95492958 L4.49295775,12.3605634 C3.77323944,13.6816901 4.71971831,15.2887324 6.21830986,15.2887324 L18.0492958,15.2887324 L18.0492958,13.3169014 L6.21830986,13.3169014 L7.3028169,11.3450704 L14.6478873,11.3450704 C15.3873239,11.3450704 16.0380282,10.9408451 16.3732394,10.3295775 L19.9028169,3.93098592 C20.2676056,3.28028169 19.7943662,2.47183099 19.0450704,2.47183099 L4.45352113,2.47183099 L3.52676056,0.5 L0.302816901,0.5 Z M16.0676056,16.2746479 C14.9830986,16.2746479 14.1056338,17.1619718 14.1056338,18.2464789 C14.1056338,19.3309859 14.9830986,20.2183099 16.0676056,20.2183099 C17.1521127,20.2183099 18.0394366,19.3309859 18.0394366,18.2464789 C18.0394366,17.1619718 17.1521127,16.2746479 16.0676056,16.2746479 Z" id="Services"></path>
                    </g>
                </g>
            </g>
        </g>
    </g>
</svg>