<?xml version="1.0" encoding="UTF-8"?>
<svg width="21px" height="21px" viewBox="0 0 21 21" version="1.1" xmlns="http://www.w3.org/2000/svg" xmlns:xlink="http://www.w3.org/1999/xlink">
    <!-- Generator: Sketch 52.6 (67491) - http://www.bohemiancoding.com/sketch -->
    <title>Nav_bottom / Icon_with_text / Services / Inactive Copy</title>
    <desc>Created with Sketch.</desc>
    <defs>
        <path d="M0.486457416,1.54248494 L0.495802107,2.58508547 L1.46704318,2.59455152 C2.0738413,2.60049814 2.43828425,2.61712441 2.43828425,2.6390905 C2.43828425,2.65838668 2.46243482,2.67416343 2.49180384,2.67416343 C2.52748357,2.67416343 2.54520208,2.70984316 2.54520208,2.78108126 C2.54520208,2.83981932 2.56134291,2.88799909 2.58088181,2.88799909 C2.60054207,2.88799909 2.61656154,2.92052347 2.61656154,2.96045079 C2.61656154,3.00025674 2.64059074,3.04200446 2.66995977,3.0532909 C2.69945016,3.06457735 2.72347937,3.11275712 2.72347937,3.16020873 C2.72347937,3.2077817 2.74750857,3.25584011 2.7768776,3.26712656 C2.80636799,3.278413 2.8303972,3.32610734 2.8303972,3.37295215 C2.8303972,3.42501543 2.85127105,3.45826797 2.88379543,3.45826797 C2.91680525,3.45826797 2.93731502,3.49164186 2.93731502,3.54528282 C2.93731502,3.59309851 2.95333449,3.6421278 2.97299475,3.65426376 C2.99253365,3.66639972 3.00855312,3.71372997 3.00855312,3.75948255 C3.00855312,3.80523513 3.03270369,3.85195859 3.06207272,3.86324503 C3.09144175,3.87453148 3.11547095,3.92319669 3.11547095,3.97137646 C3.11547095,4.01967759 3.13962152,4.08314867 3.16899055,4.1125177 C3.19835958,4.14188673 3.22238878,4.19916847 3.22238878,4.23982394 C3.22238878,4.28047942 3.23719466,4.3136106 3.25527724,4.3136106 C3.27323846,4.3136106 3.29860263,4.36179037 3.31158811,4.42052843 C3.32445223,4.47938784 3.34981639,4.52744625 3.36777761,4.52744625 C3.3858602,4.52744625 3.40066607,4.56761629 3.40066607,4.61664558 C3.40066607,4.67210693 3.42081177,4.70572354 3.4540643,4.70572354 C3.48974403,4.70572354 3.5075839,4.74140327 3.5075839,4.81264137 C3.5075839,4.88387947 3.52542376,4.9195592 3.56098213,4.9195592 C3.59435603,4.9195592 3.61450173,4.95317582 3.61450173,5.00863716 C3.61450173,5.05766645 3.6305212,5.09771513 3.65018146,5.09771513 C3.66972036,5.09771513 3.68573983,5.1458949 3.68573983,5.20475432 C3.68573983,5.27599242 3.70357969,5.31167214 3.73925942,5.31167214 C3.77251196,5.31167214 3.79265766,5.34528876 3.79265766,5.40075011 C3.79265766,5.45621146 3.81292471,5.48982807 3.84617725,5.48982807 C3.88185698,5.48982807 3.89957548,5.5255078 3.89957548,5.5967459 C3.89957548,5.65560532 3.91498816,5.70366373 3.93367754,5.70366373 C3.95236692,5.70366373 3.97821652,5.75985324 3.99108064,5.82842142 C4.00394476,5.89698961 4.02870212,5.95317912 4.04617791,5.95317912 C4.06353234,5.95317912 4.07785277,5.99371323 4.07785277,6.04334932 C4.07785277,6.0929854 4.10188198,6.14286421 4.13125101,6.15415066 C4.16074139,6.1654371 4.1847706,6.21349551 4.1847706,6.26106848 C4.1847706,6.3085201 4.20879981,6.35669987 4.23816884,6.36798631 C4.26765922,6.37927276 4.29168843,6.42684573 4.29168843,6.47381191 C4.29168843,6.52065672 4.3077079,6.55912772 4.32736816,6.55912772 C4.34690706,6.55912772 4.36292653,6.59966184 4.36292653,6.64929792 C4.36292653,6.69893401 4.38707709,6.74881281 4.41644612,6.7599779 C4.44581515,6.77126434 4.46984436,6.81895868 4.46984436,6.86580349 C4.46984436,6.91786677 4.49071821,6.95111931 4.52336395,6.95111931 C4.55904368,6.95111931 4.57676219,6.98679904 4.57676219,7.05803714 C4.57676219,7.12939659 4.59460205,7.16495496 4.63028178,7.16495496 C4.66353432,7.16495496 4.68380137,7.19869294 4.68380137,7.25403293 C4.68380137,7.30306222 4.69982085,7.34323225 4.71935974,7.34323225 C4.73902,7.34323225 4.75503947,7.38376637 4.75503947,7.43340245 C4.75503947,7.48303854 4.77906868,7.53291734 4.80843771,7.54420379 C4.8379281,7.55549023 4.8619573,7.60184961 4.8619573,7.64735947 C4.8619573,7.69286933 4.88598651,7.75415594 4.91535554,7.78364633 C4.94484593,7.81301536 4.96887513,7.85694754 4.96887513,7.88109811 C4.96887513,7.94954493 5.08610853,8.19857488 5.11826883,8.19857488 C5.13416694,8.19857488 5.14703106,8.23923036 5.14703106,8.28886644 C5.14703106,8.33838117 5.17118163,8.38825998 5.20055065,8.39954642 C5.22991968,8.41083287 5.25394889,8.45840584 5.25394889,8.50537201 C5.25394889,8.55743529 5.27482274,8.59068783 5.30746848,8.59068783 C5.34314821,8.59068783 5.36098808,8.6262462 5.36098808,8.69760566 C5.36098808,8.75634372 5.37700755,8.80452349 5.39654645,8.80452349 C5.41620671,8.80452349 5.43222618,8.84457216 5.43222618,8.89360145 C5.43222618,8.9490628 5.45237187,8.98267941 5.48562441,8.98267941 C5.52130414,8.98267941 5.53914401,9.01835914 5.53914401,9.08959724 C5.53914401,9.1609567 5.55698387,9.19651507 5.59254224,9.19651507 C5.62591614,9.19651507 5.64606183,9.23025305 5.64606183,9.2857144 C5.64606183,9.34105438 5.66620753,9.37479236 5.69958143,9.37479236 C5.73671747,9.37479236 5.75297966,9.41217112 5.75297966,9.49736558 C5.75297966,9.56484153 5.76899913,9.63001165 5.78865939,9.64202625 C5.80819829,9.65416221 5.82421776,9.69324001 5.82421776,9.72891974 C5.82421776,9.76459947 5.84836833,9.81375012 5.87773736,9.8381434 C5.90844134,9.86362893 5.93125695,9.94129909 5.93125695,10.0206683 C5.93125695,10.1198191 5.916087,10.1588969 5.87773736,10.1588969 C5.84533434,10.1588969 5.82421776,10.1919067 5.82421776,10.2427564 C5.82421776,10.288873 5.78416909,10.3699413 5.7351398,10.4228541 C5.68611051,10.4756455 5.64606183,10.5501603 5.64606183,10.5883886 C5.64606183,10.6266169 5.62203263,10.6578063 5.59254224,10.6578063 C5.56001786,10.6578063 5.53914401,10.6910588 5.53914401,10.7431221 C5.53914401,10.7900883 5.5151148,10.8376613 5.48562441,10.8489477 C5.45625538,10.8602342 5.43222618,10.910113 5.43222618,10.9597491 C5.43222618,11.0092638 5.41620671,11.0499193 5.39654645,11.0499193 C5.37700755,11.0499193 5.36098808,11.0824436 5.36098808,11.1223709 C5.36098808,11.1621769 5.33683751,11.2039246 5.30746848,11.2152111 C5.27809945,11.2264975 5.25394889,11.256352 5.25394889,11.2815948 C5.25394889,11.3068376 5.22991968,11.336692 5.20055065,11.3479785 C5.17118163,11.3592649 5.14703106,11.4010126 5.14703106,11.4408186 C5.14703106,11.4806246 5.13234655,11.5132703 5.11426396,11.5132703 C5.09618138,11.5132703 5.07093858,11.5613287 5.0579531,11.6201881 C5.04508898,11.6790475 5.01972481,11.727106 5.00164223,11.727106 C4.98368101,11.727106 4.96887513,11.7671546 4.96887513,11.8161839 C4.96887513,11.8716453 4.94872943,11.9052619 4.91535554,11.9052619 C4.87979717,11.9052619 4.8619573,11.9409416 4.8619573,12.0121797 C4.8619573,12.0835392 4.84411744,12.1192189 4.80843771,12.1192189 C4.77906868,12.1192189 4.75503947,12.1432481 4.75503947,12.1726171 C4.75503947,12.2019862 4.73902,12.2261367 4.71935974,12.2261367 C4.69982085,12.2261367 4.68380137,12.2644864 4.68380137,12.3113312 C4.68380137,12.3582974 4.65965081,12.4058703 4.63028178,12.4171568 C4.59666516,12.4300209 4.57676219,12.4845114 4.57676219,12.5635165 C4.57676219,12.6517449 4.56074272,12.6894878 4.52336395,12.6894878 C4.48246576,12.6894878 4.46984436,12.7345122 4.46984436,12.8813573 C4.46984436,12.9869402 4.44593651,13.1192222 4.41668884,13.1754117 C4.34812065,13.3067228 4.34799929,13.4880341 4.41644612,13.5448304 C4.45370353,13.5757771 4.46984436,13.6579376 4.46984436,13.8165546 C4.46984436,13.9948319 4.48137352,14.0438612 4.52336395,14.0438612 C4.56195631,14.0438612 4.57676219,14.0834244 4.57676219,14.1863374 C4.57676219,14.2893717 4.59168942,14.3289349 4.63028178,14.3289349 C4.66159256,14.3289349 4.68416545,14.3620661 4.68489361,14.4091536 C4.68622857,14.5010229 4.76147153,14.6141301 4.82130183,14.6141301 C4.843632,14.6141301 4.8619573,14.6364602 4.8619573,14.6637661 C4.8619573,14.6910721 4.88598651,14.7226256 4.91535554,14.733912 C4.94484593,14.7451984 4.96887513,14.783184 4.96887513,14.8183783 C4.96887513,14.8778445 5.04181227,14.9343981 5.1916914,14.9909517 C5.22591482,15.0038158 5.25394889,15.0365829 5.25394889,15.0637675 C5.25394889,15.0908307 5.27809945,15.1130395 5.30746848,15.1130395 C5.33683751,15.1130395 5.36098808,15.1370687 5.36098808,15.1665591 C5.36098808,15.1998116 5.39460469,15.2199573 5.45006604,15.2199573 C5.49909533,15.2199573 5.53914401,15.2358554 5.53914401,15.2551516 C5.53914401,15.2745691 5.60334325,15.3006614 5.68174156,15.3131615 C5.76013988,15.3257829 5.82421776,15.3500548 5.82421776,15.3670452 C5.82421776,15.3841569 5.93453366,15.3982346 6.0693642,15.3982346 C6.24375798,15.3982346 6.32737476,15.4136473 6.35892827,15.4516328 C6.39800607,15.4988417 7.11548416,15.5051524 12.4222978,15.5051524 L18.4413711,15.5051524 L18.4413711,14.3824545 L18.4413711,13.2597566 L12.5783663,13.2597566 C7.39048507,13.2597566 6.71536148,13.2535673 6.71536148,13.2062371 C6.71536148,13.176868 6.73138095,13.1527175 6.75091985,13.1527175 C6.77058011,13.1527175 6.78659958,13.1126688 6.78659958,13.0636395 C6.78659958,13.0081781 6.80674528,12.9745615 6.83999782,12.9745615 C6.87337171,12.9745615 6.89351741,12.9409449 6.89351741,12.8854836 C6.89351741,12.8300222 6.91366311,12.7964056 6.947037,12.7964056 C6.98259537,12.7964056 7.00043524,12.7607259 7.00043524,12.6894878 C7.00043524,12.6278371 7.01936734,12.5824486 7.04497422,12.5822059 C7.09096952,12.5819631 7.17871253,12.4255306 7.17871253,12.3437342 C7.17871253,12.3182487 7.20274173,12.2973748 7.23211076,12.2973748 C7.2647565,12.2973748 7.28563036,12.2641223 7.28563036,12.212059 C7.28563036,12.1652142 7.30965956,12.1175199 7.33902859,12.1062334 C7.36839762,12.094947 7.39254818,12.0451895 7.39254818,11.9955534 C7.39254818,11.9459174 7.40820358,11.9052619 7.42749976,11.9052619 C7.44667458,11.9052619 7.47252418,11.8652132 7.4847815,11.8161839 C7.49703882,11.7671546 7.52143211,11.727106 7.53890789,11.727106 C7.55638368,11.727106 7.57070411,11.7018632 7.57070411,11.6711592 C7.57070411,11.5078091 7.43575221,11.5132703 11.4866151,11.5132703 C13.6135639,11.5132703 15.3092005,11.4995567 15.3198802,11.4822022 C15.3304385,11.4652119 15.4229145,11.4431244 15.5254634,11.4332943 C15.6278909,11.4234642 15.7178184,11.3972505 15.7252213,11.375163 C15.7325029,11.3530756 15.7772846,11.334993 15.8247362,11.334993 C15.8775277,11.334993 15.9109016,11.3143619 15.9109016,11.2815948 C15.9109016,11.245915 15.9464599,11.2280752 16.0178194,11.2280752 C16.0890575,11.2280752 16.1247372,11.2103567 16.1247372,11.1746769 C16.1247372,11.1453079 16.1413635,11.1211574 16.1618733,11.1211574 C16.1968248,11.1211574 16.2371162,11.093366 16.3550778,10.9875404 C16.3823837,10.9630258 16.4215829,10.9430014 16.442214,10.9430014 C16.4628451,10.9430014 16.4895442,10.904045 16.5014375,10.856472 C16.5134521,10.808899 16.5618746,10.7409376 16.6090835,10.7053793 C16.6562924,10.6699423 16.6950061,10.6223693 16.6950061,10.5997964 C16.6950061,10.5771022 16.7190353,10.5493108 16.7484043,10.5380244 C16.7777734,10.5267379 16.8019239,10.4845048 16.8019239,10.4439706 C16.8019239,10.4035579 16.8259531,10.3612034 16.8553222,10.3499169 C16.8846912,10.3386305 16.9088417,10.2910575 16.9088417,10.2442127 C16.9088417,10.1972465 16.9248612,10.1588969 16.9444001,10.1588969 C16.9640604,10.1588969 16.9800798,10.1187269 16.9800798,10.0698189 C16.9800798,10.0143576 17.0003469,9.9806196 17.0335994,9.9806196 C17.0632112,9.9806196 17.0869977,9.94894474 17.0869977,9.9093815 C17.0869977,9.87018235 17.1019249,9.8381434 17.1202502,9.8381434 C17.1385755,9.8381434 17.1646678,9.80270639 17.1783815,9.75962373 C17.1920951,9.7164197 17.2253476,9.65913796 17.2520468,9.63231748 C17.2788672,9.60549701 17.3008333,9.56059394 17.3008333,9.53255987 C17.3008333,9.50464716 17.3168528,9.48171019 17.3365131,9.48171019 C17.356052,9.48171019 17.3721928,9.44336055 17.3721928,9.39639437 C17.3721928,9.3494282 17.396222,9.30185523 17.425591,9.29056878 C17.4549601,9.27928234 17.4791106,9.22952489 17.4791106,9.1798888 C17.4791106,9.12345658 17.499135,9.08959724 17.5325089,9.08959724 C17.5619992,9.08959724 17.5860285,9.0644758 17.5860285,9.03377182 C17.5860285,9.00306783 17.6260771,8.92539767 17.6751064,8.86107707 C17.7241357,8.79687783 17.7641844,8.70974162 17.7641844,8.66750847 C17.7641844,8.62296949 17.7866359,8.59068783 17.817704,8.59068783 C17.8509565,8.59068783 17.8711022,8.55694985 17.8711022,8.5014885 C17.8711022,8.44614852 17.8913693,8.41241054 17.9246218,8.41241054 C17.9578743,8.41241054 17.97802,8.37879392 17.97802,8.32333258 C17.97802,8.27430329 17.9940395,8.23425461 18.0136998,8.23425461 C18.03336,8.23425461 18.0493795,8.18607484 18.0493795,8.12733678 C18.0493795,8.05597732 18.0672194,8.02041895 18.1027777,8.02041895 C18.1321468,8.02041895 18.1562973,7.99626839 18.1562973,7.96689936 C18.1562973,7.93753033 18.1712246,7.91350113 18.1895499,7.91350113 C18.2077538,7.91350113 18.2339675,7.87806412 18.2476811,7.83498145 C18.2613948,7.79177742 18.2945259,7.73449568 18.3213464,7.7076752 C18.3481669,7.68085473 18.370133,7.62794193 18.370133,7.59007773 C18.370133,7.55233488 18.3861525,7.52138818 18.4058127,7.52138818 C18.4253516,7.52138818 18.4413711,7.4813395 18.4413711,7.43231022 C18.4413711,7.37684887 18.4616381,7.34323225 18.4948907,7.34323225 C18.5281432,7.34323225 18.5482889,7.30949428 18.5482889,7.25403293 C18.5482889,7.205125 18.5639443,7.16495496 18.5831191,7.16495496 C18.6021726,7.16495496 18.6507164,7.09286735 18.6908865,7.0046389 C18.7310565,6.91641045 18.7796004,6.84420148 18.7986538,6.84420148 C18.8178286,6.84420148 18.833484,6.8041528 18.833484,6.75512351 C18.833484,6.69966217 18.8536297,6.66604555 18.8868823,6.66604555 C18.9203775,6.66604555 18.9404019,6.63218621 18.9404019,6.57575399 C18.9404019,6.5261179 18.9644311,6.47636046 18.9938001,6.46507401 C19.0232905,6.45378757 19.0473197,6.40609324 19.0473197,6.35924842 C19.0473197,6.31228225 19.0633392,6.2739326 19.0829994,6.2739326 C19.1025383,6.2739326 19.1185578,6.23388393 19.1185578,6.18485464 C19.1185578,6.12939329 19.1388248,6.09577668 19.1720774,6.09577668 C19.2014464,6.09577668 19.2254756,6.07368922 19.2254756,6.04662603 C19.2254756,6.01968419 19.2496262,5.9775724 19.2789952,5.95317912 C19.3083642,5.92878583 19.3323934,5.87866431 19.3323934,5.84189234 C19.3323934,5.80512038 19.3481702,5.77490183 19.367345,5.77490183 C19.3866412,5.77490183 19.4123694,5.73485315 19.4247481,5.68582387 C19.4370054,5.63679458 19.4613987,5.5967459 19.4788745,5.5967459 C19.4963503,5.5967459 19.5106707,5.55839626 19.5106707,5.51143009 C19.5106707,5.46458527 19.5346999,5.41689094 19.564069,5.40560449 C19.5935594,5.39431805 19.6175886,5.3445606 19.6175886,5.29492452 C19.6175886,5.24528843 19.6376129,5.2045116 19.6621275,5.20439024 C19.7081228,5.20414752 19.7957445,5.04771496 19.7957445,4.96591858 C19.7957445,4.94043305 19.8198951,4.9195592 19.8492641,4.9195592 C19.8848225,4.9195592 19.9026623,4.88387947 19.9026623,4.81264137 C19.9026623,4.74140327 19.9205022,4.70572354 19.9561819,4.70572354 C19.9894344,4.70572354 20.0095801,4.67210693 20.0095801,4.61664558 C20.0095801,4.56118423 20.0298472,4.52744625 20.0630997,4.52744625 C20.0963523,4.52744625 20.116498,4.49382964 20.116498,4.43836829 C20.116498,4.389339 20.1326388,4.34929033 20.1521777,4.34929033 C20.171838,4.34929033 20.1878574,4.31725139 20.1878574,4.27805223 C20.1878574,4.23885307 20.2027847,4.20669277 20.22111,4.20669277 C20.2393139,4.20669277 20.2655276,4.17137712 20.2792412,4.12817309 C20.2929549,4.08496906 20.326086,4.02768732 20.3529065,4.00086685 C20.379727,3.97404637 20.4016931,3.89042959 20.4016931,3.81506526 C20.4016931,3.73970093 20.4201398,3.6718609 20.4425913,3.66433661 C20.499873,3.64528315 20.5031497,3.30790339 20.4462321,3.28897129 C20.4207466,3.28047612 20.4016931,3.21445648 20.4016931,3.13448049 C20.4016931,3.03423744 20.3866445,2.99491692 20.3481735,2.99491692 C20.3126151,2.99491692 20.2947753,2.95923719 20.2947753,2.88799909 C20.2947753,2.81676099 20.2769354,2.78108126 20.2412557,2.78108126 C20.2118866,2.78108126 20.1878574,2.7638482 20.1878574,2.74285298 C20.1878574,2.69358097 20.0972018,2.60280398 20.0478084,2.60280398 C20.0268132,2.60280398 20.0095801,2.57877477 20.0095801,2.54940574 C20.0095801,2.51578912 19.9757208,2.49588615 19.9179536,2.49588615 C19.8675894,2.49588615 19.8022979,2.47185694 19.7728075,2.44248791 C19.72572,2.39527902 18.8405229,2.38896832 12.2372244,2.38896832 L4.75503947,2.38896832 L4.75503947,2.29989035 C4.75503947,2.25086107 4.73902,2.21081239 4.71935974,2.21081239 C4.69982085,2.21081239 4.68380137,2.17986569 4.68380137,2.14212284 C4.68380137,2.10425864 4.65965081,2.04928273 4.63028178,2.0199137 C4.60091275,1.99042331 4.57676219,1.93314157 4.57676219,1.89260746 C4.57676219,1.85073838 4.55370386,1.81869944 4.52336395,1.81869944 C4.48816966,1.81869944 4.46984436,1.78350515 4.46984436,1.71566512 C4.46984436,1.65680571 4.44690739,1.60365019 4.41644612,1.59199967 C4.38513534,1.57998506 4.36292653,1.52658683 4.36292653,1.46347982 C4.36292653,1.40401361 4.34690706,1.3553484 4.32736816,1.3553484 C4.3077079,1.3553484 4.29168843,1.32452305 4.29168843,1.28665885 C4.29168843,1.24891601 4.26765922,1.19381874 4.23816884,1.16444971 C4.20879981,1.13508068 4.1847706,1.0773135 4.1847706,1.03605123 C4.1847706,0.994788956 4.16074139,0.951827649 4.13125101,0.940541204 C4.10188198,0.929254759 4.07785277,0.881681786 4.07785277,0.834836971 C4.07785277,0.782773693 4.05697892,0.749521156 4.02433318,0.749521156 C3.98913889,0.749521156 3.97093494,0.714326865 3.97093494,0.646365475 C3.97093494,0.496729059 4.01086226,0.500005769 2.16753093,0.500005769 L0.476991365,0.5 L0.486457416,1.54248494 M17.4791106,4.63448544 C17.4791106,4.70572354 17.4612708,4.74140327 17.425591,4.74140327 C17.396222,4.74140327 17.3721928,4.76543248 17.3721928,4.79480151 C17.3721928,4.82417053 17.356052,4.8483211 17.3365131,4.8483211 C17.3168528,4.8483211 17.3008333,4.88836978 17.3008333,4.93739906 C17.3008333,4.99286041 17.2806876,5.02647703 17.2474351,5.02647703 C17.2147894,5.02647703 17.1939155,5.05972957 17.1939155,5.11179284 C17.1939155,5.15863766 17.1698863,5.20633199 17.1405173,5.21761844 C17.1110269,5.22890488 17.0869977,5.27866233 17.0869977,5.32829841 C17.0869977,5.3779345 17.0709782,5.41858997 17.0513179,5.41858997 C17.031779,5.41858997 17.0157596,5.45111435 17.0157596,5.49092031 C17.0157596,5.53072627 16.9917304,5.57259534 16.96224,5.58388178 C16.932871,5.59516823 16.9088417,5.62672173 16.9088417,5.65402764 C16.9088417,5.68133356 16.8937932,5.70366373 16.8755892,5.70366373 C16.8572639,5.70366373 16.8311716,5.73897938 16.817458,5.78218341 C16.8037443,5.82538743 16.7704918,5.88266918 16.7436713,5.90948965 C16.7168508,5.93631013 16.6950061,5.98922293 16.6950061,6.02696577 C16.6950061,6.06482997 16.6788653,6.09577668 16.6593264,6.09577668 C16.6396661,6.09577668 16.6236466,6.13582535 16.6236466,6.18485464 C16.6236466,6.24031599 16.6035009,6.2739326 16.5702484,6.2739326 C16.5345687,6.2739326 16.5167288,6.30961233 16.5167288,6.38085043 C16.5167288,6.44820502 16.4985249,6.48776826 16.4674568,6.48776826 C16.4402722,6.48776826 16.4075051,6.51580234 16.394641,6.55014711 C16.3504661,6.66725915 16.2860242,6.77296338 16.2588396,6.77296338 C16.2439124,6.77296338 16.231655,6.81131302 16.231655,6.85815783 C16.231655,6.90512401 16.2075045,6.95269698 16.1781355,6.96398343 C16.1487664,6.97526987 16.1247372,7.02514868 16.1247372,7.07478476 C16.1247372,7.13121699 16.1047129,7.16495496 16.0712176,7.16495496 C16.0379651,7.16495496 16.0178194,7.19869294 16.0178194,7.25403293 C16.0178194,7.30306222 16.0016786,7.34323225 15.9821397,7.34323225 C15.9624794,7.34323225 15.9464599,7.36896049 15.9464599,7.40039264 C15.9464599,7.43194614 15.8984015,7.51847555 15.8395421,7.59262628 C15.780804,7.66689837 15.7326243,7.75172875 15.7326243,7.78109778 C15.7326243,7.81046681 15.7085951,7.84371934 15.679226,7.85500579 C15.6497356,7.86629223 15.6257064,7.9081613 15.6257064,7.94796726 C15.6257064,7.98777322 15.609687,8.02041895 15.5900267,8.02041895 C15.5704878,8.02041895 15.5544683,8.06847737 15.5544683,8.12733678 C15.5544683,8.19857488 15.5366285,8.23425461 15.5009487,8.23425461 C15.4676962,8.23425461 15.4475505,8.26787123 15.4475505,8.32333258 C15.4475505,8.37879392 15.4272835,8.41241054 15.3940309,8.41241054 C15.3646619,8.41241054 15.3406327,8.42879409 15.3406327,8.44881843 C15.3406327,8.46872141 15.3004627,8.5486974 15.2514334,8.6262462 C15.2025254,8.70391636 15.1623554,8.79979046 15.1623554,8.83947506 C15.1623554,8.87964509 15.1388116,8.91144132 15.1089572,8.91144132 C15.0763114,8.91144132 15.0554376,8.94469385 15.0554376,8.99675713 C15.0554376,9.04360195 15.0314084,9.09117492 15.0020393,9.10246136 C14.9725489,9.11374781 14.9485197,9.16362661 14.9485197,9.2132627 L14.9485197,9.3034329 L11.5090666,9.3034329 C8.47556147,9.3034329 8.06973489,9.2971222 8.06973489,9.25003467 C8.06973489,9.22066564 8.04558432,9.19651507 8.01621529,9.19651507 C7.981021,9.19651507 7.96281706,9.16132078 7.96281706,9.09348075 C7.96281706,9.03462133 7.93975873,8.98146582 7.90929746,8.96981529 C7.87810804,8.95780069 7.85589923,8.90440246 7.85589923,8.84129545 C7.85589923,8.78182924 7.8397584,8.73316403 7.8202195,8.73316403 C7.80055924,8.73316403 7.78453977,8.70233868 7.78453977,8.66447448 C7.78453977,8.62661028 7.76051057,8.57163437 7.73114154,8.54226534 C7.70165115,8.51289631 7.67762194,8.4573136 7.67762194,8.4188426 C7.67762194,8.38025024 7.65359274,8.33959477 7.62422371,8.32830832 C7.59473332,8.31702188 7.57070411,8.26714307 7.57070411,8.21750698 C7.57070411,8.1678709 7.55638368,8.12733678 7.53890789,8.12733678 C7.52143211,8.12733678 7.49703882,8.08716675 7.4847815,8.03825882 C7.47252418,7.98922953 7.44667458,7.9490595 7.42749976,7.9490595 C7.40820358,7.9490595 7.39254818,7.90100108 7.39254818,7.84214167 C7.39254818,7.77090357 7.37470832,7.73522384 7.33902859,7.73522384 C7.30577605,7.73522384 7.28563036,7.70160722 7.28563036,7.64614587 C7.28563036,7.59068453 7.2653633,7.55706791 7.23211076,7.55706791 C7.19643103,7.55706791 7.17871253,7.52138818 7.17871253,7.45015008 C7.17871253,7.39129066 7.1625717,7.34323225 7.1430328,7.34323225 C7.12337254,7.34323225 7.10735307,7.30476125 7.10735307,7.25791644 C7.10735307,7.21095026 7.08332386,7.16337729 7.05395483,7.15209084 C7.02446444,7.1408044 7.00043524,7.09213919 7.00043524,7.04395942 C7.00043524,6.99565829 6.97640603,6.93218721 6.947037,6.90281818 C6.91754662,6.87332779 6.89351741,6.81556061 6.89351741,6.77429833 C6.89351741,6.73315742 6.8694882,6.69019612 6.83999782,6.67890967 C6.81062879,6.66762323 6.78659958,6.62005025 6.78659958,6.57308408 C6.78659958,6.5261179 6.77058011,6.48776826 6.75091985,6.48776826 C6.73138095,6.48776826 6.71536148,6.44723415 6.71536148,6.39759806 C6.71536148,6.34796198 6.69121092,6.29808317 6.66184189,6.28679672 C6.63247286,6.27551028 6.60844365,6.22793731 6.60844365,6.18097113 C6.60844365,6.12902921 6.5875698,6.09577668 6.55492406,6.09577668 C6.51924433,6.09577668 6.50140447,6.06009695 6.50140447,5.98885885 C6.50140447,5.92999943 6.48538499,5.88194102 6.4658461,5.88194102 C6.44618584,5.88194102 6.43016637,5.84929528 6.43016637,5.80948932 C6.43016637,5.76968337 6.40613716,5.7278143 6.37676813,5.71652785 C6.34618551,5.70487733 6.32324854,5.65172181 6.32324854,5.59298375 C6.32324854,5.52502236 6.30504459,5.48982807 6.2698503,5.48982807 C6.23635505,5.48982807 6.21633071,5.4560901 6.21633071,5.39965787 C6.21633071,5.35002179 6.1923015,5.30014298 6.16281111,5.28885654 C6.13344208,5.27757009 6.10941288,5.23084664 6.10941288,5.1849727 C6.10941288,5.13909876 6.0693642,5.02611295 6.02033492,4.93400099 C5.97130563,4.84176768 5.93125695,4.73667025 5.93125695,4.70038372 C5.93125695,4.66409719 5.90710639,4.63448544 5.87773736,4.63448544 C5.84836833,4.63448544 5.82421776,4.61033488 5.82421776,4.58096585 C5.82421776,4.53363559 6.4955792,4.52744625 11.6516642,4.52744625 L17.4791106,4.52744625 L17.4791106,4.63448544 M5.93125695,16.3426552 C5.93125695,16.3812475 5.89157235,16.3961748 5.78865939,16.3961748 C5.71026108,16.3961748 5.64606183,16.4121942 5.64606183,16.4318545 C5.64606183,16.4513934 5.60540636,16.4674129 5.55589163,16.4674129 C5.50625555,16.4674129 5.45637674,16.4914421 5.4450903,16.5209325 C5.43380385,16.5503015 5.38623088,16.5743307 5.3392647,16.5743307 C5.28720143,16.5743307 5.25394889,16.5952046 5.25394889,16.6278503 C5.25394889,16.6572193 5.23671582,16.6812485 5.21559925,16.6812485 C5.16572044,16.6812485 4.96887513,16.8782152 4.96887513,16.928094 C4.96887513,16.9490892 4.94484593,16.9664436 4.91535554,16.9664436 C4.88598651,16.9664436 4.8619573,16.9887738 4.8619573,17.0160797 C4.8619573,17.0433856 4.8379281,17.0749391 4.80843771,17.0862256 C4.77906868,17.097512 4.75503947,17.1393811 4.75503947,17.1791871 C4.75503947,17.218993 4.73902,17.2515174 4.71935974,17.2515174 C4.69982085,17.2515174 4.68380137,17.2921729 4.68380137,17.341809 C4.68380137,17.391445 4.65965081,17.4412025 4.63028178,17.4524889 C4.60091275,17.4637754 4.57676219,17.5056445 4.57676219,17.5454504 C4.57676219,17.5853777 4.55382522,17.635742 4.52554843,17.6574653 C4.43719862,17.7257908 4.43513551,18.9980038 4.52336395,18.9980038 C4.56195631,18.9980038 4.57676219,19.037567 4.57676219,19.1406013 C4.57676219,19.2435143 4.59168942,19.2830775 4.63028178,19.2830775 C4.65965081,19.2830775 4.68380137,19.3039514 4.68380137,19.3294369 C4.68380137,19.4113546 4.77142302,19.5676658 4.81741832,19.5680299 C4.84193297,19.5681513 4.8619573,19.5923018 4.8619573,19.6216709 C4.8619573,19.6511613 4.88598651,19.6751905 4.91535554,19.6751905 C4.94533136,19.6751905 4.96887513,19.7069867 4.96887513,19.7472781 C4.96887513,19.7895112 5.00576846,19.8361133 5.0579531,19.8598998 C5.10698238,19.88223 5.14703106,19.9139048 5.14703106,19.9304097 C5.14703106,19.9467933 5.17118163,19.9602642 5.20055065,19.9602642 C5.22991968,19.9602642 5.25394889,19.9844148 5.25394889,20.0137838 C5.25394889,20.0431528 5.27809945,20.067182 5.30746848,20.067182 C5.33683751,20.067182 5.36098808,20.0829588 5.36098808,20.102255 C5.36098808,20.1214298 5.40103675,20.1472794 5.45006604,20.1595367 C5.49909533,20.171794 5.53914401,20.1961873 5.53914401,20.2136631 C5.53914401,20.2311389 5.60334325,20.2454593 5.68174156,20.2454593 C5.78465453,20.2454593 5.82421776,20.2602652 5.82421776,20.2988576 C5.82421776,20.3416975 5.87749464,20.3523772 6.0895099,20.3523772 C6.23538417,20.3523772 6.36463217,20.3683966 6.37676813,20.3880569 C6.38878273,20.4075958 6.43793338,20.4236153 6.48574907,20.4236153 C6.53356477,20.4236153 6.57276392,20.4075958 6.57276392,20.3880569 C6.57276392,20.3670617 6.69752162,20.3523772 6.87567755,20.3523772 C7.12118807,20.3523772 7.17871253,20.3421829 7.17871253,20.2988576 C7.17871253,20.2632992 7.2142709,20.2454593 7.28563036,20.2454593 C7.34436841,20.2454593 7.39254818,20.2294399 7.39254818,20.2097796 C7.39254818,20.1902407 7.43259686,20.1742212 7.48162615,20.1742212 C7.5370875,20.1742212 7.57070411,20.1539542 7.57070411,20.1207016 C7.57070411,20.0882986 7.60383529,20.067182 7.65480633,20.067182 C7.7029861,20.067182 7.76754942,20.0290751 7.80589906,19.9781041 C7.84267103,19.9290748 7.89303527,19.8890261 7.91779264,19.8890261 C7.94255,19.8890261 7.96281706,19.8649969 7.96281706,19.8356279 C7.96281706,19.8061375 7.98684626,19.7821083 8.01621529,19.7821083 C8.04558432,19.7821083 8.06973489,19.7653607 8.06973489,19.7447295 C8.06973489,19.7242197 8.10978356,19.6702147 8.15881285,19.6248262 C8.20784214,19.5794377 8.24789082,19.5079569 8.24789082,19.4662092 C8.24789082,19.422277 8.27058507,19.3899953 8.30141041,19.3899953 C8.33696878,19.3899953 8.35480864,19.354437 8.35480864,19.2830775 C8.35480864,19.2118394 8.37264851,19.1761597 8.40832824,19.1761597 C8.4469206,19.1761597 8.46172647,19.1365964 8.46172647,19.0336835 C8.46172647,18.9551638 8.47774594,18.8910859 8.4974062,18.8910859 C8.51961501,18.8910859 8.53308593,18.6838037 8.53308593,18.34072 C8.53308593,18.0123209 8.51864414,17.7814949 8.4974062,17.768388 C8.47774594,17.7562521 8.46172647,17.6905965 8.46172647,17.6225138 C8.46172647,17.5454504 8.44158078,17.4910813 8.40832824,17.4783385 C8.37883785,17.4670521 8.35480864,17.4294306 8.35480864,17.3947218 C8.35480864,17.3600129 8.33077944,17.3115904 8.30141041,17.2871971 C8.27192002,17.2628038 8.24789082,17.228095 8.24789082,17.2100124 C8.24789082,17.1919298 8.20784214,17.1339199 8.15881285,17.0810071 C8.10978356,17.0282157 8.06973489,16.9694776 8.06973489,16.9505455 C8.06973489,16.8954483 7.80856898,16.6827048 7.74000079,16.6819767 C7.70565602,16.6816126 7.67762194,16.6572193 7.67762194,16.6278503 C7.67762194,16.5984813 7.65359274,16.5743307 7.62422371,16.5743307 C7.59473332,16.5743307 7.57070411,16.5586753 7.57070411,16.5393791 C7.57070411,16.5202043 7.53065544,16.4943547 7.48162615,16.4820974 C7.43259686,16.4697187 7.39254818,16.4454468 7.39254818,16.427971 C7.39254818,16.4104952 7.32033921,16.3961748 7.23211076,16.3961748 C7.11329969,16.3961748 7.07167334,16.3823398 7.07167334,16.3426552 C7.07167334,16.297388 6.98465849,16.2892569 6.50140447,16.2892569 C6.0182718,16.2892569 5.93125695,16.297388 5.93125695,16.3426552 M15.8395421,16.3426552 C15.8395421,16.3812475 15.7999789,16.3961748 15.6969445,16.3961748 C15.6185462,16.3961748 15.5544683,16.4121942 15.5544683,16.4318545 C15.5544683,16.4513934 15.5138129,16.4674129 15.4641768,16.4674129 C15.4145407,16.4674129 15.3647833,16.4914421 15.3534968,16.5209325 C15.3422104,16.5503015 15.294516,16.5743307 15.2476712,16.5743307 C15.1956079,16.5743307 15.1623554,16.5952046 15.1623554,16.6278503 C15.1623554,16.6572193 15.1451223,16.6812485 15.1240058,16.6812485 C15.074127,16.6812485 14.8772816,16.8782152 14.8772816,16.928094 C14.8772816,16.9490892 14.8531311,16.9664436 14.823762,16.9664436 C14.794393,16.9664436 14.7703638,16.9904729 14.7703638,17.0198419 C14.7703638,17.0493323 14.7462132,17.0733615 14.7168442,17.0733615 C14.6841985,17.0733615 14.663446,17.106614 14.663446,17.1586773 C14.663446,17.2055221 14.6392954,17.2532164 14.6099264,17.2645029 C14.5805574,17.275668 14.5564068,17.3255468 14.5564068,17.3751829 C14.5564068,17.4248189 14.5403873,17.4653531 14.5208484,17.4653531 C14.5011882,17.4653531 14.4851687,17.5066153 14.4851687,17.5571009 C14.4851687,17.6074652 14.4611395,17.6727567 14.4317705,17.7021257 C14.3883237,17.7455724 14.3782509,17.8721505 14.3782509,18.3767638 C14.3782509,18.9051636 14.3862606,18.9980038 14.4317705,18.9980038 C14.4674502,18.9980038 14.4851687,19.0336835 14.4851687,19.105407 C14.4851687,19.2200919 14.5458485,19.3540729 14.6187856,19.400675 C14.6433003,19.4164517 14.663446,19.4605053 14.663446,19.4987336 C14.663446,19.5369618 14.6874752,19.5682726 14.7168442,19.5682726 C14.7462132,19.5682726 14.7703638,19.5923018 14.7703638,19.6216709 C14.7703638,19.6511613 14.794393,19.6751905 14.823762,19.6751905 C14.8531311,19.6751905 14.8772816,19.6965497 14.8772816,19.7227634 C14.8772816,19.7760403 15.0706075,19.9602642 15.1264329,19.9602642 C15.1462146,19.9602642 15.1623554,19.9844148 15.1623554,20.0137838 C15.1623554,20.0431528 15.1863846,20.067182 15.215875,20.067182 C15.245244,20.067182 15.2692732,20.0829588 15.2692732,20.102255 C15.2692732,20.1214298 15.3094433,20.1472794 15.3583512,20.1595367 C15.4073805,20.171794 15.4475505,20.1961873 15.4475505,20.2136631 C15.4475505,20.2311389 15.5116284,20.2454593 15.5900267,20.2454593 C15.693061,20.2454593 15.7326243,20.2602652 15.7326243,20.2988576 C15.7326243,20.3416975 15.7859011,20.3523772 15.9977951,20.3523772 C16.1436693,20.3523772 16.2729173,20.3683966 16.2850533,20.3880569 C16.2971892,20.4075958 16.3462185,20.4236153 16.3941556,20.4236153 C16.4419713,20.4236153 16.4810491,20.4075958 16.4810491,20.3880569 C16.4810491,20.3670617 16.6058068,20.3523772 16.7840841,20.3523772 C17.0295946,20.3523772 17.0869977,20.3421829 17.0869977,20.2988576 C17.0869977,20.2632992 17.1226774,20.2454593 17.1939155,20.2454593 C17.2527749,20.2454593 17.3008333,20.2294399 17.3008333,20.2097796 C17.3008333,20.1902407 17.3410034,20.1742212 17.3899113,20.1742212 C17.4453726,20.1742212 17.4791106,20.1539542 17.4791106,20.1207016 C17.4791106,20.0874491 17.5127272,20.067182 17.5681886,20.067182 C17.6236499,20.067182 17.6572666,20.0470363 17.6572666,20.0137838 C17.6572666,19.9844148 17.6754705,19.9602642 17.6978007,19.9602642 C17.7200095,19.9602642 17.7753495,19.9202155 17.820738,19.8711862 C17.8662478,19.822157 17.9201315,19.7821083 17.9407626,19.7821083 C17.9612724,19.7821083 17.97802,19.7580791 17.97802,19.7285887 C17.97802,19.6992197 17.9940395,19.6751905 18.0136998,19.6751905 C18.03336,19.6751905 18.0493795,19.6511613 18.0493795,19.6216709 C18.0493795,19.5923018 18.0734087,19.5682726 18.1027777,19.5682726 C18.1360303,19.5682726 18.1562973,19.534656 18.1562973,19.4791947 C18.1562973,19.4237333 18.176443,19.3899953 18.2096956,19.3899953 C18.2453753,19.3899953 18.2632152,19.354437 18.2632152,19.2830775 C18.2632152,19.2118394 18.281055,19.1761597 18.3166134,19.1761597 C18.3552057,19.1761597 18.370133,19.1365964 18.370133,19.0336835 C18.370133,18.9551638 18.3861525,18.8910859 18.4058127,18.8910859 C18.4280215,18.8910859 18.4413711,18.6772503 18.4413711,18.3208171 C18.4413711,17.9643838 18.4280215,17.7505482 18.4058127,17.7505482 C18.3861525,17.7505482 18.370133,17.703582 18.370133,17.6461789 C18.370133,17.5887758 18.3487737,17.5204503 18.3226814,17.494358 C18.2965891,17.4682657 18.264186,17.4029742 18.2507151,17.3492119 C18.2372442,17.2954496 18.2104237,17.2515174 18.1912489,17.2515174 C18.1719527,17.2515174 18.1562973,17.2274882 18.1562973,17.1981192 C18.1562973,17.1686288 18.1321468,17.1445996 18.1027777,17.1445996 C18.0732873,17.1445996 18.0493795,17.1130461 18.0493795,17.0738469 C18.0493795,16.9854971 17.7414901,16.6812485 17.6521694,16.6812485 C17.6157616,16.6812485 17.5860285,16.6572193 17.5860285,16.6278503 C17.5860285,16.5984813 17.5619992,16.5743307 17.5325089,16.5743307 C17.5031398,16.5743307 17.4791106,16.5614666 17.4791106,16.5455685 C17.4791106,16.4984809 17.2145466,16.3961748 17.0928229,16.3961748 C17.0163664,16.3961748 16.9800798,16.3789417 16.9800798,16.3426552 C16.9800798,16.297388 16.8929436,16.2892569 16.409811,16.2892569 C15.9266783,16.2892569 15.8395421,16.297388 15.8395421,16.3426552" id="path-1"></path>
    </defs>
    <g id="Material-Components" stroke="none" stroke-width="1" fill="none" fill-rule="evenodd">
        <g id="Navigation" transform="translate(-385.000000, -1215.000000)">
            <g id="Bottom-Navigation-/-Primary-Color-/-Active-/-Resting-Copy-6" transform="translate(81.000000, 1185.000000)">
                <g id="Bottom-Navigation-/-4-up-/-Primary-Color-Copy-4">
                    <g id="Nav_bottom-/-Icon_with_text-/-Services-/-Inactive-Copy" transform="translate(304.000000, 30.000000)">
                        <mask id="mask-2" fill="white">
                            <use xlink:href="#path-1"></use>
                        </mask>
                        <g id="Services"></g>
                        <g id="✱-/-Color-/-Icons-/-Selected-/-On-Primary-/-Inactive-" mask="url(#mask-2)" fill="#FFFFFF" fill-opacity="0.54">
                            <g transform="translate(-14.000000, 0.000000)" id="Rectangle">
                                <rect x="0" y="0" width="49" height="36"></rect>
                            </g>
                        </g>
                    </g>
                </g>
            </g>
        </g>
    </g>
</svg>