<?xml version="1.0" encoding="UTF-8"?>
<svg width="43px" height="35px" viewBox="0 0 43 35" version="1.1" xmlns="http://www.w3.org/2000/svg" xmlns:xlink="http://www.w3.org/1999/xlink">
    <!-- Generator: Sketch 52.6 (67491) - http://www.bohemiancoding.com/sketch -->
    <title>Nav_bottom / Icon_with_text / Profiles / Active</title>
    <desc>Created with Sketch.</desc>
    <g id="Material-Components" stroke="none" stroke-width="1" fill="none" fill-rule="evenodd">
        <g id="Navigation" transform="translate(-204.000000, -866.000000)" fill="#FFFFFF">
            <g id="Bottom-Navigation-/-Primary-Color-/-Active-/-Resting-Copy-3" transform="translate(90.000000, 836.000000)">
                <g id="Bottom-Navigation-/-4-up-/-Primary-Color-Copy-3">
                    <g id="Nav_bottom-/-Icon_with_text-/-Profiles-/-Active" transform="translate(114.000000, 30.000000)">
                        <path d="M21.0984334,8.17124146e-14 C15.5784334,8.17124146e-14 11.0984334,4.48 11.0984334,10 C11.0984334,15.52 15.5784334,20 21.0984334,20 C26.6184334,20 31.0984334,15.52 31.0984334,10 C31.0984334,4.48 26.6184334,8.17124146e-14 21.0984334,8.17124146e-14 Z M21.0984334,3 C22.7584334,3 24.0984334,4.34 24.0984334,6 C24.0984334,7.66 22.7584334,9 21.0984334,9 C19.4384334,9 18.0984334,7.66 18.0984334,6 C18.0984334,4.34 19.4384334,3 21.0984334,3 Z M21.0984334,17.3 C18.5984334,17.3 16.3884334,16.02 15.0984334,14.08 C15.1284334,12.09 19.0984334,11 21.0984334,11 C23.0884334,11 27.0684334,12.09 27.0984334,14.08 C25.8084334,16.02 23.5984334,17.3 21.0984334,17.3 Z M21.2657812,25.5120469 C21.2539687,25.543 21.2010312,25.5649844 21.1384687,25.5649844 C21.0785312,25.5649844 21.0003281,25.5960469 20.9608437,25.6356406 C20.9220156,25.6744688 20.8663437,25.7061875 20.83725,25.7061875 C20.8080469,25.7061875 20.7842031,25.7300313 20.7842031,25.7592344 C20.7842031,25.7883281 20.7535781,25.8121719 20.7160625,25.8121719 C20.6784375,25.8121719 20.6381875,25.8423594 20.6264844,25.8792188 C20.6147812,25.9161875 20.5662187,25.9561094 20.5186406,25.9680313 C20.4666875,25.9811563 20.4237031,26.0238125 20.4107969,26.075 C20.3990937,26.1218125 20.3670469,26.1687344 20.3397031,26.1792344 C20.31225,26.1897344 20.2899375,26.2210156 20.2899375,26.2486875 C20.2899375,26.2763594 20.2660937,26.3080781 20.2368906,26.3192344 C20.20375,26.3320313 20.1839531,26.3859531 20.1839531,26.4639375 C20.1839531,26.550125 20.1622969,26.6019688 20.1132969,26.6324844 C20.0527031,26.6703281 20.04275,26.7148438 20.04275,26.9462813 C20.04275,27.1429375 20.0284219,27.2278125 19.9898125,27.2598594 C19.9470469,27.2952969 19.9367656,27.4052188 19.9367656,27.8281719 L19.9367656,28.3525156 L19.45125,28.3623594 L18.9657344,28.3722031 L18.9558906,28.8390156 C18.9427656,29.4597188 18.9331406,29.4491094 19.5128281,29.4491094 L19.9363281,29.4491094 L19.9454062,32.1062656 L19.9544844,34.7634219 L20.6606094,34.7634219 L21.3668437,34.7634219 L21.3759219,32.1062656 L21.385,29.4491094 L21.9707031,29.4491094 C22.5266562,29.4491094 22.5573906,29.4456094 22.5748906,29.3785625 C22.5850625,29.3397344 22.6153594,29.3079063 22.6421562,29.3079063 C22.6813125,29.3079063 22.6910469,29.2135156 22.6910469,28.83125 L22.6910469,28.3544844 L22.03775,28.3544844 L21.3845625,28.3544844 L21.3845625,27.7542344 C21.3845625,27.2442188 21.3925469,27.1539844 21.4375,27.1539844 C21.4744687,27.1539844 21.4904375,27.1166875 21.4904375,27.0303906 C21.4904375,26.9623594 21.5080469,26.9067969 21.5295937,26.9067969 C21.5838437,26.9067969 21.7363125,26.7576094 21.7370781,26.7037969 C21.7374062,26.6749219 21.7938437,26.6596094 21.8990625,26.6596094 C21.9954219,26.6596094 22.0818281,26.6382813 22.1134375,26.6066719 C22.1860625,26.5340469 22.4645312,26.5353594 22.4926406,26.6084219 C22.5089375,26.6509688 22.5590312,26.6608125 22.7170781,26.6525 L22.9205156,26.642 L22.9305781,26.2799688 C22.9382344,26.0048906 22.952125,25.9180469 22.9883281,25.9180469 C23.0936562,25.9180469 23.1125781,25.6023906 23.0087812,25.5751563 C22.9699531,25.5650938 22.9382344,25.5347969 22.9382344,25.5078906 C22.9382344,25.431875 21.2949844,25.4359219 21.2657812,25.5120469 M24.0328594,26.2358906 L24.0328594,26.9082188 L24.7478437,26.8987031 L25.4629375,26.8890781 L25.4629375,26.2358906 L25.4629375,25.5825938 L24.7478437,25.5730781 L24.0328594,25.5635625 L24.0328594,26.2358906 M27.4313594,30.1634375 L27.4403281,34.7634219 L28.0405781,34.7738125 C28.3707812,34.7795 28.6925625,34.7747969 28.7557812,34.7633125 L28.870625,34.7425313 L28.8617656,30.1625625 L28.8527969,25.5825938 L28.1375937,25.5730781 L27.4223906,25.5635625 L27.4313594,30.1634375 M0.1085,26.2094219 C0.099203125,26.2337031 0.095703125,28.1682188 0.100734375,30.5085156 L0.1098125,34.7634219 L0.745390625,34.7734844 C1.09495312,34.7789531 1.41673437,34.7746875 1.46048437,34.7639688 L1.53989062,34.7443906 L1.53989062,33.0677813 L1.53989062,31.3912813 L2.9876875,31.3912813 C4.38834375,31.3912813 4.43767187,31.3889844 4.50603125,31.320625 C4.55776562,31.2687813 4.62371875,31.2499688 4.75321875,31.2499688 C4.88654687,31.2499688 4.92975,31.2370625 4.92975,31.1970313 C4.92975,31.1600625 4.96704687,31.1440938 5.05334375,31.1440938 C5.1533125,31.1440938 5.1769375,31.1306406 5.1769375,31.0734375 C5.1769375,31.0162344 5.20045312,31.0027813 5.30053125,31.0027813 C5.38682812,31.0027813 5.424125,30.9868125 5.424125,30.9498438 C5.424125,30.92075 5.44796875,30.8969063 5.4770625,30.8969063 C5.50615625,30.8969063 5.53,30.8749219 5.53,30.8480156 C5.53,30.8212188 5.56182812,30.7909219 5.60065625,30.78075 C5.63948437,30.7705781 5.67120312,30.7368906 5.67120312,30.7059375 C5.67120312,30.6750938 5.69504687,30.6497188 5.72425,30.6497188 C5.75334375,30.6497188 5.7771875,30.6277344 5.7771875,30.6008281 C5.7771875,30.5740313 5.80901562,30.5437344 5.84784375,30.5335625 C5.88667187,30.5233906 5.91839062,30.4898125 5.91839062,30.4588594 C5.91839062,30.4279063 5.94223437,30.4025313 5.9714375,30.4025313 C6.00085937,30.4025313 6.024375,30.3711406 6.024375,30.331875 C6.024375,30.2930469 6.04110937,30.2613281 6.0615625,30.2613281 C6.08190625,30.2613281 6.11482812,30.2149531 6.134625,30.1581875 C6.15442187,30.1015313 6.19325,30.0464063 6.22103125,30.0356875 C6.25428125,30.023 6.2715625,29.9630625 6.2715625,29.8601406 C6.2715625,29.7538281 6.28851562,29.6973906 6.3245,29.6836094 C6.40423437,29.6529844 6.40423437,27.8954375 6.3245,27.8954375 C6.2864375,27.8954375 6.2715625,27.8565 6.2715625,27.75675 C6.2715625,27.6805156 6.24771875,27.5942188 6.218625,27.565125 C6.18942187,27.5359219 6.16557812,27.4975313 6.16557812,27.4797031 C6.16557812,27.4619844 6.13385937,27.4186719 6.09503125,27.3834531 C6.05609375,27.3483438 6.024375,27.2822813 6.024375,27.2367813 C6.024375,27.18975 6.00326562,27.1539844 5.97548437,27.1539844 C5.9486875,27.1539844 5.91839062,27.1221563 5.90821875,27.0833281 C5.89804687,27.0445 5.86435937,27.0126719 5.83351562,27.0126719 C5.8025625,27.0126719 5.7771875,26.9888281 5.7771875,26.9597344 C5.7771875,26.9306406 5.75334375,26.9067969 5.72425,26.9067969 C5.69504687,26.9067969 5.67120312,26.8829531 5.67120312,26.8538594 C5.67120312,26.8244375 5.63992187,26.8008125 5.60065625,26.8008125 C5.55351562,26.8008125 5.53,26.7772969 5.53,26.7302656 C5.53,26.6914375 5.50790625,26.6596094 5.48078125,26.6596094 C5.45376562,26.6596094 5.42248437,26.6357656 5.41132812,26.6066719 C5.399625,26.576375 5.34701562,26.553625 5.2880625,26.553625 C5.21489062,26.553625 5.17978125,26.5332813 5.16665625,26.4830781 C5.15342187,26.4323281 5.11853125,26.4124219 5.04273437,26.4124219 C4.98159375,26.4124219 4.92876562,26.3902188 4.91695312,26.3594844 C4.90229687,26.3212031 4.84235937,26.3065469 4.70126562,26.3065469 C4.5530625,26.3065469 4.48896875,26.2894844 4.435375,26.2358906 C4.34732812,26.1478438 0.141640625,26.1221406 0.1085,26.2094219 M3.90567187,27.3305156 C3.94854687,27.3733906 4.02346875,27.4011719 4.09620312,27.4011719 C4.17003125,27.4011719 4.22373437,27.4214063 4.2363125,27.4541094 C4.248125,27.4850625 4.3010625,27.5070469 4.363625,27.5070469 C4.43526562,27.5070469 4.47070312,27.5245469 4.47070312,27.5599844 C4.47070312,27.5891875 4.49454687,27.6130313 4.52364062,27.6130313 C4.55284375,27.6130313 4.57657812,27.6310781 4.57657812,27.6530625 C4.57657812,27.7002031 4.741625,27.8602188 4.79029687,27.8602188 C4.80878125,27.8602188 4.82376562,27.9083438 4.82376562,27.9671875 C4.82376562,28.02975 4.84575,28.0826875 4.8768125,28.0946094 C4.90601562,28.1057656 4.92975,28.1582656 4.92975,28.2115313 C4.92975,28.2647969 4.96146875,28.3369844 5.00040625,28.3722031 C5.10770312,28.4693281 5.10770312,29.1840938 5.00040625,29.2122031 C4.94845312,29.2257656 4.92975,29.2603281 4.92975,29.3424688 C4.92975,29.4039375 4.90590625,29.4779844 4.8768125,29.5071875 C4.84760937,29.5362813 4.82376562,29.59075 4.82376562,29.6282656 C4.82376562,29.6656719 4.79992187,29.6962969 4.77082812,29.6962969 C4.74173437,29.6962969 4.71789062,29.7115 4.71789062,29.7299844 C4.71789062,29.7738438 4.54825,29.9434844 4.50439062,29.9434844 C4.48590625,29.9434844 4.47070312,29.9673281 4.47070312,29.9964219 C4.47070312,30.025625 4.440625,30.0494688 4.403875,30.0494688 C4.367125,30.0494688 4.32785937,30.0733125 4.31670312,30.1024063 C4.30554687,30.1315 4.26015625,30.1555625 4.21575,30.1558906 C4.08001562,30.1566563 3.97632812,30.1964688 3.97632812,30.2477656 C3.97632812,30.2884531 3.77179687,30.2966563 2.75810937,30.2966563 L1.53989062,30.2966563 L1.53989062,28.7782031 L1.53989062,27.2598594 L2.68745312,27.2598594 C3.78798437,27.2598594 3.83796875,27.2628125 3.90567187,27.3305156 M10.1556875,28.3015469 C10.1556875,28.3385156 10.1185,28.3544844 10.0320937,28.3544844 C9.932125,28.3544844 9.9085,28.3679375 9.9085,28.4251406 C9.9085,28.4721719 9.88498437,28.4957969 9.83795312,28.4957969 C9.7986875,28.4957969 9.76729687,28.5193125 9.76729687,28.5487344 C9.76729687,28.5778281 9.74465625,28.6016719 9.716875,28.6016719 C9.68909375,28.6016719 9.645125,28.623 9.61898437,28.6490313 C9.59295312,28.6751719 9.5361875,28.7154219 9.492875,28.7386094 C9.44420312,28.7646406 9.41423437,28.8138594 9.41423437,28.8677813 C9.41423437,28.9215938 9.394,28.9548438 9.3611875,28.9548438 C9.31929687,28.9548438 9.30825,28.9040938 9.30825,28.7105 C9.30825,28.3275781 9.36064062,28.3544844 8.61590625,28.3544844 L7.9664375,28.3544844 L7.9664375,31.5494375 L7.9664375,34.7443906 L8.04595312,34.7639688 C8.08959375,34.7746875 8.411375,34.7789531 8.7609375,34.7734844 L9.39651562,34.7634219 L9.40559375,32.4594375 C9.41357812,30.4439844 9.42134375,30.1553438 9.46739062,30.1553438 C9.50239062,30.1553438 9.52010937,30.1197969 9.52010937,30.0494688 C9.52010937,29.9799063 9.5379375,29.9434844 9.57184375,29.9434844 C9.60028125,29.9434844 9.64053125,29.9117656 9.66142187,29.8728281 C9.68220312,29.834 9.72048437,29.8022813 9.74651562,29.8022813 C9.77265625,29.8022813 9.81378125,29.7784375 9.83795312,29.7493438 C9.862125,29.7201406 9.90926562,29.6962969 9.94273437,29.6962969 C9.97620312,29.6962969 10.0323125,29.6645781 10.0674219,29.62575 C10.1260469,29.5608906 10.17625,29.5550938 10.67325,29.5550938 L11.2150937,29.5550938 L11.2150937,29.3079063 C11.2150937,29.1202188 11.2269062,29.0607188 11.2642031,29.0607188 C11.3398906,29.0607188 11.3562969,28.9783594 11.3562969,28.5988281 L11.3562969,28.2486094 L10.7560469,28.2486094 C10.2459219,28.2486094 10.1556875,28.2565938 10.1556875,28.3015469 M14.1457969,28.3015469 C14.1457969,28.3416875 14.1022656,28.3544844 13.9659844,28.3544844 C13.8158125,28.3544844 13.7831094,28.3661875 13.7676875,28.4251406 C13.7544531,28.4753438 13.7194531,28.4957969 13.6462812,28.4957969 C13.5873281,28.4957969 13.5346094,28.5184375 13.5230156,28.5487344 C13.5118594,28.5778281 13.475,28.6016719 13.4412031,28.6016719 C13.4074062,28.6016719 13.3432031,28.6335 13.2983594,28.6723281 C13.253625,28.7111563 13.2035312,28.7429844 13.1870156,28.7429844 C13.1706094,28.7429844 13.1571562,28.7667188 13.1571562,28.7959219 C13.1571562,28.8250156 13.1333125,28.8488594 13.1042187,28.8488594 C13.0750156,28.8488594 13.0511719,28.8708438 13.0511719,28.89775 C13.0511719,28.9245469 13.0194531,28.9548438 12.980625,28.9650156 C12.9416875,28.9751875 12.9099687,29.008875 12.9099687,29.0397188 C12.9099687,29.0706719 12.886125,29.0960469 12.8570312,29.0960469 C12.8242187,29.0960469 12.8039844,29.1292969 12.8039844,29.1831094 C12.8039844,29.2339688 12.7746719,29.2858125 12.7334375,29.3079063 C12.6946094,29.3286875 12.6627812,29.3689375 12.6627812,29.397375 C12.6627812,29.4259219 12.6389375,29.4491094 12.6098437,29.4491094 C12.572875,29.4491094 12.5567969,29.4864063 12.5567969,29.5727031 C12.5567969,29.6591094 12.5408281,29.6962969 12.5038594,29.6962969 C12.4668906,29.6962969 12.4509219,29.7335938 12.4509219,29.8198906 C12.4509219,29.9199688 12.4374687,29.9434844 12.3802656,29.9434844 C12.319125,29.9434844 12.3097187,29.967 12.3097187,30.1200156 C12.3097187,30.2534531 12.2967031,30.2966563 12.2566719,30.2966563 C12.2137969,30.2966563 12.2037344,30.3535313 12.2037344,30.5967813 C12.2037344,30.82975 12.1926875,30.8969063 12.1545156,30.8969063 C12.0300469,30.8969063 12.0103594,32.1240938 12.1330781,32.2292031 C12.1924687,32.2800625 12.2037344,32.3334375 12.2037344,32.5643281 C12.2037344,32.7849375 12.214125,32.8389688 12.2566719,32.8389688 C12.2967031,32.8389688 12.3097187,32.8821719 12.3097187,33.0155 C12.3097187,33.1685156 12.319125,33.1921406 12.3802656,33.1921406 C12.4371406,33.1921406 12.4509219,33.2156563 12.4509219,33.3131094 C12.4509219,33.3797188 12.4747656,33.4580313 12.5038594,33.4872344 C12.5330625,33.5163281 12.5567969,33.5730938 12.5567969,33.6133438 C12.5567969,33.6534844 12.5794375,33.6864063 12.607,33.6864063 C12.6345625,33.6864063 12.6675937,33.7340938 12.6803906,33.7923906 C12.6931875,33.8506875 12.7263281,33.8982656 12.7538906,33.8982656 C12.7814531,33.8982656 12.8039844,33.9300938 12.8039844,33.9689219 C12.8039844,34.0081875 12.8276094,34.0395781 12.8570312,34.0395781 C12.886125,34.0395781 12.9099687,34.0634219 12.9099687,34.0925156 C12.9099687,34.1219375 12.9413594,34.1454531 12.980625,34.1454531 C13.0276562,34.1454531 13.0511719,34.1689688 13.0511719,34.2161094 C13.0511719,34.255375 13.0746875,34.2867656 13.1042187,34.2867656 C13.1333125,34.2867656 13.1571562,34.3106094 13.1571562,34.3397031 C13.1571562,34.369125 13.1885469,34.3926406 13.2277031,34.3926406 C13.2675156,34.3926406 13.2983594,34.4161563 13.2983594,34.4464531 C13.2983594,34.4778438 13.3417812,34.5090156 13.4020469,34.5210469 C13.4590312,34.5325313 13.5141562,34.5639219 13.5245469,34.5908281 C13.5348281,34.6177344 13.589625,34.6398281 13.6462812,34.6398281 C13.7194531,34.6398281 13.7544531,34.6601719 13.7676875,34.7104844 C13.7831094,34.7694375 13.8158125,34.7810313 13.9659844,34.7810313 C14.1022656,34.7810313 14.1457969,34.7939375 14.1457969,34.8340781 C14.1457969,34.8796875 14.2675312,34.8870156 15.0296562,34.8870156 C15.7828125,34.8870156 15.9165781,34.8791406 15.9338594,34.8340781 C15.94775,34.797875 16.0044062,34.7810313 16.1126875,34.7810313 C16.2414219,34.7810313 16.2745625,34.7677969 16.2895469,34.7104844 C16.3034375,34.6574375 16.3376719,34.6398281 16.4274687,34.6398281 C16.5072031,34.6398281 16.5470156,34.6230938 16.5470156,34.589625 C16.5470156,34.5620625 16.5945937,34.5290313 16.6528906,34.5162344 C16.7111875,34.5034375 16.758875,34.4704063 16.758875,34.4428438 C16.758875,34.4152813 16.7905937,34.3926406 16.8294219,34.3926406 C16.8686875,34.3926406 16.9000781,34.369125 16.9000781,34.3397031 C16.9000781,34.3106094 16.9220625,34.2867656 16.9489687,34.2867656 C16.9757656,34.2867656 17.0060625,34.2549375 17.0162344,34.2161094 C17.0264062,34.1772813 17.0599844,34.1454531 17.0909375,34.1454531 C17.1218906,34.1454531 17.1472656,34.1216094 17.1472656,34.0925156 C17.1472656,34.0634219 17.1711094,34.0395781 17.2002031,34.0395781 C17.2371719,34.0395781 17.2531406,34.0022813 17.2531406,33.9159844 C17.2531406,33.8159063 17.2665937,33.7923906 17.3237969,33.7923906 C17.3630625,33.7923906 17.3944531,33.768875 17.3944531,33.7394531 C17.3944531,33.71025 17.4182969,33.6864063 17.4473906,33.6864063 C17.4840312,33.6864063 17.5003281,33.6496563 17.5003281,33.5669688 C17.5003281,33.4771719 17.5179375,33.4429375 17.5709844,33.4290469 C17.6223906,33.4155938 17.6416406,33.3809219 17.6416406,33.3012969 C17.6416406,33.2277969 17.6589219,33.1921406 17.6945781,33.1921406 C17.7340625,33.1921406 17.7475156,33.1503594 17.7475156,33.0282969 C17.7475156,32.9189219 17.7663281,32.8506719 17.8039531,32.8232188 C17.8471562,32.7916094 17.864875,32.6935 17.8796406,32.4045313 C17.8926562,32.1497969 17.9145312,32.0141719 17.9467969,31.987375 C18.0152656,31.9305 18.0151562,31.1949531 17.9466875,31.1547031 C17.9128906,31.1347969 17.8929844,31.0119688 17.8795312,30.7400625 C17.8647656,30.4426719 17.847375,30.344125 17.8039531,30.3124063 C17.7663281,30.2848438 17.7475156,30.2167031 17.7475156,30.1073281 C17.7475156,29.9852656 17.7340625,29.9434844 17.6945781,29.9434844 C17.6589219,29.9434844 17.6416406,29.9078281 17.6416406,29.8342188 C17.6416406,29.7547031 17.6223906,29.7200313 17.5709844,29.7065781 C17.5179375,29.6926875 17.5003281,29.6583438 17.5003281,29.5686563 C17.5003281,29.4859688 17.4840312,29.4491094 17.4473906,29.4491094 C17.4182969,29.4491094 17.3944531,29.427125 17.3944531,29.4003281 C17.3944531,29.3734219 17.362625,29.343125 17.3237969,29.3329531 C17.2723906,29.3195 17.2531406,29.2848281 17.2531406,29.2053125 C17.2531406,29.1317031 17.2358594,29.0960469 17.2002031,29.0960469 C17.1711094,29.0960469 17.1472656,29.0706719 17.1472656,29.0397188 C17.1472656,29.008875 17.1154375,28.9751875 17.0766094,28.9650156 C17.0377812,28.9548438 17.0059531,28.9245469 17.0059531,28.89775 C17.0059531,28.8708438 16.9822187,28.8488594 16.9530156,28.8488594 C16.9239219,28.8488594 16.9000781,28.8257813 16.9000781,28.7974531 C16.9000781,28.7667188 16.8504219,28.7368594 16.7764844,28.7229688 C16.7057187,28.709625 16.6528906,28.6787813 16.6528906,28.6507813 C16.6528906,28.6237656 16.6307969,28.6016719 16.6036719,28.6016719 C16.5766562,28.6016719 16.545375,28.5778281 16.5342187,28.5487344 C16.5225156,28.5184375 16.4699062,28.4957969 16.4109531,28.4957969 C16.3376719,28.4957969 16.3026719,28.4753438 16.2895469,28.4251406 C16.2744531,28.3673906 16.2414219,28.3544844 16.1077656,28.3544844 C15.9952187,28.3544844 15.938125,28.3380781 15.924125,28.3015469 C15.9068437,28.2564844 15.773625,28.2486094 15.0248437,28.2486094 C14.2670937,28.2486094 14.1457969,28.2559375 14.1457969,28.3015469 M32.5074531,28.3015469 C32.5074531,28.3415781 32.46425,28.3544844 32.3308125,28.3544844 C32.1777969,28.3544844 32.1542812,28.3638906 32.1542812,28.4251406 C32.1542812,28.476 32.1307656,28.4957969 32.0703906,28.4957969 C32.0242344,28.4957969 31.9665937,28.5196406 31.9424219,28.5487344 C31.91825,28.5778281 31.8687031,28.6016719 31.8321719,28.6016719 C31.79575,28.6016719 31.7658906,28.6255156 31.7658906,28.6546094 C31.7658906,28.6838125 31.7420469,28.7076563 31.7129531,28.7076563 C31.6835312,28.7076563 31.6599062,28.7390469 31.6599062,28.7782031 C31.6599062,28.8253438 31.6363906,28.8488594 31.5893594,28.8488594 C31.5505312,28.8488594 31.5187031,28.8643906 31.5187031,28.8833125 C31.5187031,28.9022344 31.4712344,28.9421563 31.4132656,28.9722344 C31.3552969,29.0022031 31.2979844,29.0661875 31.2858437,29.1143125 C31.2738125,29.1625469 31.2417656,29.2020313 31.21475,29.2020313 C31.1877344,29.2020313 31.1656406,29.23375 31.1656406,29.2725781 C31.1656406,29.3118438 31.1420156,29.3432344 31.1125937,29.3432344 C31.0835,29.3432344 31.0596562,29.3670781 31.0596562,29.3961719 C31.0596562,29.4252656 31.0375625,29.4491094 31.0104375,29.4491094 C30.9565156,29.4491094 30.9184531,29.523375 30.9184531,29.6285938 C30.9184531,29.6658906 30.8946094,29.6962969 30.8655156,29.6962969 C30.8284375,29.6962969 30.8124687,29.7335938 30.8124687,29.8198906 C30.8124687,29.9020313 30.7959531,29.9434844 30.7633594,29.9434844 C30.7021094,29.9434844 30.6712656,30.0201563 30.6712656,30.1720781 C30.6712656,30.2435 30.6505937,30.2969844 30.6183281,30.3093438 C30.5761094,30.3255313 30.5652812,30.4016563 30.5652812,30.6839531 C30.5652812,30.9752188 30.555875,31.0381094 30.5123437,31.0381094 C30.4676094,31.0381094 30.4594062,31.1200313 30.4594062,31.5634375 C30.4594062,31.987375 30.4695781,32.0972969 30.5123437,32.1327344 C30.5521562,32.165875 30.5652812,32.2547969 30.5652812,32.4912656 C30.5652812,32.7383438 30.5766562,32.8102031 30.6183281,32.8261719 C30.6545312,32.8400625 30.6712656,32.8967188 30.6712656,33.005 C30.6712656,33.1337344 30.6845,33.166875 30.7419219,33.1818594 C30.7949687,33.19575 30.8124687,33.2299844 30.8124687,33.3197813 C30.8124687,33.4024688 30.828875,33.4392188 30.8655156,33.4392188 C30.9011719,33.4392188 30.9184531,33.4749844 30.9184531,33.5484844 C30.9184531,33.6226406 30.9383594,33.6631094 30.98025,33.6745938 C31.0393125,33.6906719 31.1656406,33.9111719 31.1656406,33.998125 C31.1656406,34.020875 31.1899219,34.0395781 31.2196719,34.0395781 C31.2494219,34.0395781 31.2828906,34.0634219 31.2940469,34.0925156 C31.3053125,34.1216094 31.3365937,34.1454531 31.3636094,34.1454531 C31.390625,34.1454531 31.4128281,34.1772813 31.4128281,34.2161094 C31.4128281,34.2549375 31.4349219,34.2867656 31.4619375,34.2867656 C31.4890625,34.2867656 31.5203437,34.3106094 31.5315,34.3397031 C31.5426562,34.3687969 31.56825,34.3926406 31.5882656,34.3926406 C31.6082812,34.3926406 31.6564062,34.4244688 31.6952344,34.4632969 C31.7340625,34.502125 31.7977187,34.5338438 31.8365469,34.5338438 C31.8757031,34.5338438 31.9070937,34.5574688 31.9070937,34.5868906 C31.9070937,34.6212344 31.9415469,34.6398281 32.0052031,34.6398281 C32.0595625,34.6398281 32.1302187,34.6713281 32.1637969,34.7104844 C32.2050312,34.7587188 32.2679219,34.7810313 32.3620937,34.7810313 C32.452,34.7810313 32.5069062,34.7995156 32.5201406,34.8340781 C32.5375312,34.8793594 32.6805937,34.8870156 33.5083437,34.8870156 C34.3255937,34.8870156 34.4829844,34.8788125 34.5201719,34.8340781 C34.5471875,34.801375 34.6247344,34.7810313 34.7219687,34.7810313 C34.8501562,34.7810313 34.8832969,34.7677969 34.8982812,34.7104844 C34.9121719,34.6574375 34.9465156,34.6398281 35.0362031,34.6398281 C35.1188906,34.6398281 35.15575,34.6235313 35.15575,34.5868906 C35.15575,34.5512344 35.1914062,34.5338438 35.2649062,34.5338438 C35.3445312,34.5338438 35.3792031,34.5147031 35.3926562,34.4632969 C35.4028281,34.4244688 35.433125,34.3926406 35.4600312,34.3926406 C35.4868281,34.3926406 35.5088125,34.3697813 35.5088125,34.3418906 C35.5088125,34.3105 35.5524531,34.2869844 35.6235469,34.2800938 L35.7383906,34.2690469 L35.7487812,34.0307188 C35.7574219,33.8347188 35.7495469,33.7923906 35.7047031,33.7923906 C35.6735312,33.7923906 35.650125,33.761875 35.650125,33.7214063 C35.650125,33.6823594 35.6182969,33.6231875 35.5794687,33.5899375 C35.5406406,33.5566875 35.5088125,33.5092188 35.5088125,33.4843906 C35.5088125,33.4595625 35.4859531,33.4392188 35.4580625,33.4392188 C35.4266719,33.4392188 35.4031562,33.3955781 35.3962656,33.3244844 C35.3822656,33.1786875 35.0497656,33.1175469 35.0497656,33.2608281 C35.0497656,33.3098281 35.0269062,33.3333438 34.9792187,33.3333438 C34.9399531,33.3333438 34.9085625,33.3568594 34.9085625,33.3862813 C34.9085625,33.4217188 34.873125,33.4392188 34.8014844,33.4392188 C34.7389219,33.4392188 34.6859844,33.4613125 34.6741719,33.4922656 C34.6629062,33.5213594 34.6143437,33.5452031 34.566,33.5452031 C34.5079219,33.5452031 34.4719375,33.5690469 34.4596875,33.6158594 C34.4441562,33.6753594 34.4115625,33.6864063 34.2512187,33.6864063 C34.10575,33.6864063 34.061125,33.698875 34.061125,33.7394531 C34.061125,33.7839688 33.9830312,33.7923906 33.5704687,33.7923906 C33.1669844,33.7923906 33.0763125,33.7829844 33.0595781,33.7394531 C33.0456875,33.7031406 32.9889219,33.6864063 32.8793281,33.6864063 C32.7428281,33.6864063 32.7193125,33.6760156 32.7193125,33.6158594 C32.7193125,33.5770313 32.6994062,33.5445469 32.675125,33.5436719 C32.6508437,33.5429063 32.592,33.4952188 32.5444219,33.4377969 C32.4967344,33.380375 32.437125,33.3333438 32.4119687,33.3333438 C32.3868125,33.3333438 32.3661406,33.3015156 32.3661406,33.2626875 C32.3661406,33.2235313 32.342625,33.1921406 32.3132031,33.1921406 C32.2841094,33.1921406 32.2602656,33.172125 32.2602656,33.147625 C32.2602656,33.123125 32.2284375,33.0833125 32.1896094,33.0590313 C32.1407187,33.0285156 32.1189531,32.9766719 32.1189531,32.8905938 C32.1189531,32.8125 32.0992656,32.7585781 32.0660156,32.7457813 C32.0288281,32.7315625 32.0130781,32.6735938 32.0130781,32.5516406 C32.0130781,32.4295781 31.9972187,32.3716094 31.9601406,32.3573906 C31.9230625,32.3431719 31.9070937,32.2853125 31.9070937,32.1645625 L31.9070937,31.9920781 L33.9462812,31.983 L35.9854687,31.9739219 L35.9952031,31.3244531 C36.0029687,30.7961719 35.9949844,30.6601094 35.9521094,30.5947031 C35.923125,30.5504063 35.8886719,30.3857969 35.8755469,30.2288438 C35.8584844,30.023875 35.83825,29.9434844 35.8039062,29.9434844 C35.7706562,29.9434844 35.756,29.8945938 35.756,29.7834688 C35.756,29.673875 35.739375,29.6171094 35.7030625,29.6032188 C35.6723281,29.5914063 35.650125,29.5385781 35.650125,29.4773281 C35.650125,29.4016406 35.6302187,29.36675 35.5794687,29.3534063 C35.5403125,29.3432344 35.5088125,29.3052813 35.5088125,29.2685313 C35.5088125,29.2318906 35.4849687,29.2020313 35.455875,29.2020313 C35.420875,29.2020313 35.4029375,29.1669219 35.4029375,29.0984531 C35.4029375,29.0259375 35.3817187,28.9882031 35.3322812,28.9724531 C35.2934531,28.9600938 35.261625,28.9272813 35.261625,28.8995 C35.261625,28.8716094 35.2377812,28.8488594 35.2086875,28.8488594 C35.1795937,28.8488594 35.15575,28.8250156 35.15575,28.7959219 C35.15575,28.7667188 35.1324531,28.7429844 35.1040156,28.7429844 C35.0755781,28.7429844 35.0352187,28.7111563 35.0144375,28.6723281 C34.9923437,28.6309844 34.9405,28.6016719 34.8896406,28.6016719 C34.8358281,28.6016719 34.8025781,28.5814375 34.8025781,28.5487344 C34.8025781,28.5117656 34.7653906,28.4957969 34.6789844,28.4957969 C34.5790156,28.4957969 34.5553906,28.4823438 34.5553906,28.4251406 C34.5553906,28.3638906 34.531875,28.3544844 34.3777656,28.3544844 C34.2524219,28.3544844 34.194125,28.3389531 34.1797969,28.3015469 C34.1625156,28.2565938 34.0350937,28.2486094 33.3334531,28.2486094 C32.6227344,28.2486094 32.5074531,28.2559375 32.5074531,28.3015469 M39.039875,28.3015469 C39.039875,28.3416875 38.9963437,28.3544844 38.8600625,28.3544844 C38.7098906,28.3544844 38.6771875,28.3661875 38.6617656,28.4251406 C38.6485312,28.4753438 38.6135312,28.4957969 38.5403594,28.4957969 C38.4814062,28.4957969 38.4286875,28.5184375 38.4170937,28.5487344 C38.4059375,28.5778281 38.3762969,28.6016719 38.3513594,28.6016719 C38.3263125,28.6016719 38.2976562,28.6232188 38.2874844,28.6496875 C38.2774219,28.6760469 38.2201094,28.7074375 38.1601719,28.7193594 C38.0955312,28.7322656 38.0512344,28.7631094 38.0512344,28.7950469 C38.0512344,28.8246875 38.0273906,28.8488594 37.9981875,28.8488594 C37.9690937,28.8488594 37.94525,28.8708438 37.94525,28.89775 C37.94525,28.9245469 37.9135312,28.9548438 37.8745937,28.9650156 C37.8231875,28.9784688 37.8040469,29.01325 37.8040469,29.0927656 C37.8040469,29.1662656 37.7867656,29.2020313 37.7511094,29.2020313 C37.7216875,29.2020313 37.6980625,29.2333125 37.6980625,29.2725781 C37.6980625,29.3114063 37.6760781,29.3432344 37.6492812,29.3432344 C37.5962344,29.3432344 37.5580625,29.4476875 37.5572969,29.5949063 C37.5570781,29.645875 37.5330156,29.7074531 37.5039219,29.731625 C37.4627969,29.76575 37.450875,29.8609063 37.450875,30.1553438 C37.450875,30.4498906 37.4627969,30.5450469 37.5039219,30.5790625 C37.5330156,30.6032344 37.5568594,30.6781563 37.5568594,30.7456406 C37.5568594,30.8385 37.5739219,30.872625 37.6275156,30.886625 C37.6777187,30.89975 37.6980625,30.9348594 37.6980625,31.0080313 C37.6980625,31.0669844 37.7207031,31.1197031 37.7511094,31.1312969 C37.7802031,31.1424531 37.8040469,31.1737344 37.8040469,31.2008594 C37.8040469,31.227875 37.8357656,31.2499688 37.8745937,31.2499688 C37.9217344,31.2499688 37.94525,31.2735938 37.94525,31.320625 C37.94525,31.3594531 37.9674531,31.3912813 37.9944687,31.3912813 C38.0214844,31.3912813 38.0527656,31.415125 38.0639219,31.4442188 C38.0758437,31.4751719 38.1287812,31.4971563 38.1913437,31.4971563 C38.2592656,31.4971563 38.2984219,31.5150938 38.2984219,31.546375 C38.2984219,31.6004063 38.3725781,31.6384688 38.4777969,31.6384688 C38.5150937,31.6384688 38.5455,31.6622031 38.5455,31.6914063 C38.5455,31.728375 38.5827969,31.7443438 38.6690937,31.7443438 C38.7555,31.7443438 38.7926875,31.7603125 38.7926875,31.7972813 C38.7926875,31.8373125 38.8358906,31.8503281 38.9693281,31.8503281 C39.1223437,31.8503281 39.1458594,31.8597344 39.1458594,31.920875 C39.1458594,31.982125 39.169375,31.9915313 39.3234844,31.9915313 C39.4488281,31.9915313 39.507125,32.0071719 39.5214531,32.0444688 C39.5366562,32.0839531 39.5994375,32.0974063 39.7675469,32.0974063 C39.9362031,32.0974063 39.9932969,32.1097656 39.9932969,32.1462969 C39.9932969,32.2001094 40.0982969,32.2375156 40.2518594,32.2381719 C40.3066562,32.2385 40.3752344,32.2625625 40.4044375,32.2916563 C40.4335312,32.32075 40.5118437,32.3445938 40.5784531,32.3445938 C40.6625625,32.3445938 40.6995312,32.3607813 40.6995312,32.3976406 C40.6995312,32.4270625 40.7309219,32.4505781 40.7700781,32.4505781 C40.8172187,32.4505781 40.8407344,32.4740938 40.8407344,32.5212344 C40.8407344,32.5603906 40.86425,32.5917813 40.8936719,32.5917813 C40.922875,32.5917813 40.9467187,32.615625 40.9467187,32.6448281 C40.9467187,32.67425 40.9781094,32.6977656 41.0172656,32.6977656 C41.0826719,32.6977656 41.0879219,32.7212813 41.0879219,33.0155 C41.0879219,33.2329375 41.0750156,33.3333438 41.0470156,33.3333438 C41.0244844,33.3333438 40.9286719,33.41275 40.8340625,33.509875 C40.7193281,33.6276719 40.6331406,33.6864063 40.5748437,33.6864063 C40.5209219,33.6864063 40.4876719,33.7066406 40.4876719,33.7394531 C40.4876719,33.7839688 40.4091406,33.7923906 39.9932969,33.7923906 C39.5774531,33.7923906 39.4989219,33.7839688 39.4989219,33.7394531 C39.4989219,33.7028125 39.4621719,33.6864063 39.3794844,33.6864063 C39.2896875,33.6864063 39.2554531,33.6689063 39.2415625,33.6158594 C39.2281094,33.5643438 39.1933281,33.5452031 39.1138125,33.5452031 C39.0403125,33.5452031 39.0045469,33.5279219 39.0045469,33.4922656 C39.0045469,33.4630625 38.9807031,33.4392188 38.9516094,33.4392188 C38.9225156,33.4392188 38.8986719,33.4154844 38.8986719,33.3862813 C38.8986719,33.3571875 38.8748281,33.3333438 38.8457344,33.3333438 C38.8100781,33.3333438 38.7926875,33.2976875 38.7926875,33.2240781 C38.7926875,33.1453281 38.7734375,33.1097813 38.7236719,33.0967656 C38.6652656,33.0815625 38.6529062,33.0424063 38.6441562,32.8441094 L38.633875,32.6095 L37.9894375,32.599875 L37.345,32.59025 L37.345,33.0147344 C37.345,33.3685625 37.3538594,33.4392188 37.3979375,33.4392188 C37.4372031,33.4392188 37.450875,33.4805625 37.450875,33.5992344 C37.450875,33.7039063 37.4680469,33.7658125 37.5004219,33.7782813 C37.5276562,33.7886719 37.5579531,33.8279375 37.5676875,33.8654531 C37.5775312,33.9029688 37.6108906,33.9335938 37.6418437,33.9335938 C37.6749844,33.9335938 37.6980625,33.9633438 37.6980625,34.0058906 C37.6980625,34.1139531 37.9879062,34.3926406 38.1002344,34.3926406 C38.1689219,34.3926406 38.1924375,34.4106875 38.1924375,34.4632969 C38.1924375,34.5025625 38.2159531,34.5338438 38.245375,34.5338438 C38.2745781,34.5338438 38.2984219,34.5576875 38.2984219,34.5868906 C38.2984219,34.62375 38.3355,34.6398281 38.4201562,34.6398281 C38.4943125,34.6398281 38.55425,34.6615938 38.5730625,34.6953906 C38.5905625,34.7265625 38.672375,34.7597031 38.7602031,34.7711875 C38.8460625,34.7823438 38.9289687,34.8129688 38.9445,34.8392188 C38.9887969,34.9141406 40.9306406,34.9091094 40.9594062,34.8340781 C40.9729687,34.79875 41.0285312,34.7810313 41.1254375,34.7810313 C41.241375,34.7810313 41.2748437,34.7667031 41.2896094,34.7104844 C41.3033906,34.6574375 41.3377344,34.6398281 41.4275312,34.6398281 C41.5101094,34.6398281 41.5469687,34.6235313 41.5469687,34.5868906 C41.5469687,34.5512344 41.582625,34.5338438 41.6562344,34.5338438 C41.73575,34.5338438 41.7704219,34.5147031 41.783875,34.4632969 C41.7941562,34.4241406 41.8321094,34.3926406 41.8688594,34.3926406 C41.9055,34.3926406 41.9353594,34.3687969 41.9353594,34.3397031 C41.9353594,34.3106094 41.9592031,34.2867656 41.9882969,34.2867656 C42.0177187,34.2867656 42.0413437,34.255375 42.0413437,34.2161094 C42.0413437,34.1768438 42.0648594,34.1454531 42.0942812,34.1454531 C42.123375,34.1454531 42.1472187,34.1234688 42.1472187,34.0966719 C42.1472187,34.0697656 42.1790469,34.0394688 42.217875,34.0292969 C42.2692812,34.0158438 42.2885312,33.9811719 42.2885312,33.9016563 C42.2885312,33.8280469 42.3058125,33.7923906 42.3414687,33.7923906 C42.3784375,33.7923906 42.3944062,33.7550938 42.3944062,33.6687969 C42.3944062,33.5870938 42.4110312,33.5452031 42.4432969,33.5452031 C42.517125,33.5452031 42.534625,33.4290469 42.5351719,32.9360938 C42.5356094,32.5092031 42.532,32.4859063 42.4650625,32.4859063 C42.4038125,32.4859063 42.3944062,32.4622813 42.3944062,32.3081719 C42.3944062,32.1828281 42.378875,32.1245313 42.3414687,32.1102031 C42.312375,32.0990469 42.2885312,32.0677656 42.2885312,32.04075 C42.2885312,32.013625 42.2567031,31.9915313 42.217875,31.9915313 C42.1707344,31.9915313 42.1472187,31.9680156 42.1472187,31.920875 C42.1472187,31.8817188 42.1237031,31.8503281 42.0942812,31.8503281 C42.0651875,31.8503281 42.0413437,31.8264844 42.0413437,31.7972813 C42.0413437,31.7681875 42.0175,31.7443438 41.9882969,31.7443438 C41.9592031,31.7443438 41.9353594,31.7205 41.9353594,31.6914063 C41.9353594,31.6622031 41.9055,31.6384688 41.8688594,31.6384688 C41.8321094,31.6384688 41.7941562,31.6068594 41.783875,31.5678125 C41.7704219,31.5164063 41.73575,31.4971563 41.6562344,31.4971563 C41.582625,31.4971563 41.5469687,31.479875 41.5469687,31.4442188 C41.5469687,31.4075781 41.5101094,31.3912813 41.4275312,31.3912813 C41.3377344,31.3912813 41.3033906,31.3736719 41.2896094,31.320625 C41.2745156,31.262875 41.241375,31.2499688 41.1089219,31.2499688 C40.9882812,31.2499688 40.9467187,31.2364063 40.9467187,31.1970313 C40.9467187,31.157 40.9035156,31.1440938 40.7700781,31.1440938 C40.6438594,31.1440938 40.5935469,31.1302031 40.5935469,31.0955313 C40.5935469,31.0415 40.44425,31.0027813 40.236,31.0027813 C40.138,31.0027813 40.0991719,30.9877969 40.0991719,30.9498438 C40.0991719,30.9082813 40.0506094,30.8969063 39.8735312,30.8969063 C39.7054219,30.8969063 39.6425312,30.8833438 39.6274375,30.8439688 C39.6155156,30.8130156 39.5625781,30.7909219 39.5000156,30.7909219 C39.4400781,30.7909219 39.3619844,30.7598594 39.3223906,30.720375 C39.2835625,30.6815469 39.2278906,30.6497188 39.1987969,30.6497188 C39.1697031,30.6497188 39.1458594,30.625875 39.1458594,30.5967813 C39.1458594,30.5673594 39.1144687,30.5437344 39.0752031,30.5437344 C39.0281719,30.5437344 39.0045469,30.5202188 39.0045469,30.4731875 C39.0045469,30.4339219 38.9810312,30.4025313 38.9516094,30.4025313 C38.9087344,30.4025313 38.8986719,30.3456563 38.8986719,30.1024063 C38.8986719,29.8591563 38.9087344,29.8022813 38.9516094,29.8022813 C38.9807031,29.8022813 39.0045469,29.7784375 39.0045469,29.7493438 C39.0045469,29.7201406 39.0299219,29.6962969 39.060875,29.6962969 C39.0918281,29.6962969 39.1254062,29.6645781 39.1355781,29.62575 C39.14575,29.5868125 39.1760469,29.5550938 39.2029531,29.5550938 C39.22975,29.5550938 39.2517344,29.53125 39.2517344,29.5021563 C39.2517344,29.4658438 39.2880469,29.4491094 39.3669062,29.4491094 C39.4436875,29.4491094 39.496625,29.4257031 39.5260469,29.3785625 C39.5650937,29.3161094 39.6084062,29.3079063 39.9012031,29.3079063 C40.2025312,29.3079063 40.2339219,29.31425 40.2506562,29.3785625 C40.2641094,29.4299688 40.2988906,29.4491094 40.3784062,29.4491094 C40.4520156,29.4491094 40.4876719,29.4665 40.4876719,29.5021563 C40.4876719,29.5369375 40.5224531,29.5550938 40.5895,29.5550938 C40.6615781,29.5550938 40.6966875,29.5756563 40.7097031,29.62575 C40.719875,29.6645781 40.7535625,29.6962969 40.7845156,29.6962969 C40.8154687,29.6962969 40.8407344,29.7201406 40.8407344,29.7493438 C40.8407344,29.7784375 40.8645781,29.8022813 40.8936719,29.8022813 C40.9293281,29.8022813 40.9467187,29.8379375 40.9467187,29.9115469 C40.9467187,29.9910625 40.9658594,30.0257344 41.0172656,30.0391875 C41.0757812,30.0545 41.0879219,30.0874219 41.0879219,30.2301563 L41.0879219,30.4025313 L41.7412187,30.4025313 L42.3944062,30.4025313 L42.3944062,30.0130469 C42.3944062,29.6993594 42.384125,29.6195156 42.3414687,29.6032188 C42.3087656,29.5906406 42.2885312,29.5369375 42.2885312,29.463 C42.2885312,29.36675 42.2746406,29.3432344 42.217875,29.3432344 C42.1606719,29.3432344 42.1472187,29.3197188 42.1472187,29.2196406 C42.1472187,29.1333438 42.13125,29.0960469 42.0942812,29.0960469 C42.0648594,29.0960469 42.0413437,29.0646563 42.0413437,29.0253906 C42.0413437,28.9862344 42.0177187,28.9548438 41.9882969,28.9548438 C41.9592031,28.9548438 41.9353594,28.931 41.9353594,28.9017969 C41.9353594,28.872375 41.9039687,28.8488594 41.8648125,28.8488594 C41.8176719,28.8488594 41.7941562,28.8253438 41.7941562,28.7782031 C41.7941562,28.739375 41.7719531,28.7076563 41.7449375,28.7076563 C41.7179219,28.7076563 41.6866406,28.6838125 41.6754844,28.6546094 C41.6635625,28.6236563 41.610625,28.6016719 41.5480625,28.6016719 C41.4764219,28.6016719 41.4409844,28.5841719 41.4409844,28.5487344 C41.4409844,28.5117656 41.4037969,28.4957969 41.3173906,28.4957969 C41.2174219,28.4957969 41.1939062,28.4823438 41.1939062,28.4251406 C41.1939062,28.364875 41.1702812,28.3544844 41.0338906,28.3544844 C40.9241875,28.3544844 40.8674219,28.3378594 40.8535312,28.3015469 C40.8361406,28.256375 40.7009531,28.2486094 39.9365312,28.2486094 C39.1630312,28.2486094 39.039875,28.2558281 39.039875,28.3015469 M24.0415,31.5589531 L24.0504687,34.7634219 L24.6860469,34.7734844 C25.0356094,34.7789531 25.3573906,34.7746875 25.4011406,34.7639688 L25.4805469,34.7443906 L25.4805469,31.5494375 L25.4805469,28.3544844 L24.7564844,28.3544844 L24.0324219,28.3544844 L24.0415,31.5589531 M15.3565781,29.3785625 C15.3716719,29.4362031 15.4048125,29.4491094 15.5372656,29.4491094 C15.6579062,29.4491094 15.6994687,29.4626719 15.6994687,29.5021563 C15.6994687,29.53125 15.7222187,29.5550938 15.7501094,29.5550938 C15.7778906,29.5550938 15.8108125,29.5868125 15.8230625,29.62575 C15.8354219,29.6645781 15.8682344,29.6962969 15.896125,29.6962969 C15.9239062,29.6962969 15.9466562,29.7201406 15.9466562,29.7493438 C15.9466562,29.7784375 15.9705,29.8022813 15.9995937,29.8022813 C16.0287969,29.8022813 16.0526406,29.8275469 16.0526406,29.8585 C16.0526406,29.8894531 16.0843594,29.9231406 16.1231875,29.9333125 C16.1732812,29.9463281 16.1938437,29.9814375 16.1938437,30.0535156 C16.1938437,30.1205625 16.212,30.1553438 16.2467812,30.1553438 C16.2822187,30.1553438 16.2998281,30.1907813 16.2998281,30.2624219 C16.2998281,30.3212656 16.3217031,30.3778125 16.3485,30.3880938 C16.3757344,30.3985938 16.4073437,30.4835781 16.4203594,30.58125 C16.4361094,30.7003594 16.4598437,30.7557031 16.4951719,30.7557031 C16.5725,30.7557031 16.5727187,32.3272031 16.4953906,32.3568438 C16.4647656,32.3686563 16.4343594,32.4487188 16.42025,32.5548125 C16.4072344,32.6528125 16.3844844,32.7330938 16.3697187,32.7330938 C16.3548437,32.7330938 16.3320937,32.7767344 16.3190781,32.8301094 C16.2763125,33.0059844 16.1772187,33.1868906 16.1144375,33.2039531 C16.0804219,33.21325 16.0526406,33.2460625 16.0526406,33.2770156 C16.0526406,33.3079688 16.0287969,33.3333438 15.9995937,33.3333438 C15.9705,33.3333438 15.9466562,33.3492031 15.9466562,33.3686719 C15.9466562,33.4147188 15.834,33.5267188 15.7586406,33.5555938 C15.7260469,33.5680625 15.6994687,33.602625 15.6994687,33.632375 C15.6994687,33.6706563 15.663375,33.6864063 15.575875,33.6864063 C15.4895781,33.6864063 15.4522812,33.702375 15.4522812,33.7394531 C15.4522812,33.7835313 15.3817344,33.7923906 15.0285625,33.7923906 C14.6755,33.7923906 14.6048437,33.7835313 14.6048437,33.7394531 C14.6048437,33.7028125 14.5680937,33.6864063 14.4854062,33.6864063 C14.3956094,33.6864063 14.361375,33.6689063 14.3474844,33.6158594 C14.3366562,33.5745156 14.29925,33.5452031 14.2575781,33.5452031 C14.2183125,33.5452031 14.1623125,33.5213594 14.1332187,33.4922656 C14.104125,33.4630625 14.0632187,33.4392188 14.0424375,33.4392188 C14.0216562,33.4392188 14.0045937,33.4068438 14.0045937,33.36725 C14.0045937,33.2786563 13.867,33.0861563 13.8037812,33.0861563 C13.7743594,33.0861563 13.7574062,33.0409844 13.7574062,32.9625625 C13.7574062,32.8762656 13.7414375,32.8389688 13.7044687,32.8389688 C13.6644375,32.8389688 13.6515312,32.795875 13.6515312,32.6624375 C13.6515312,32.5094219 13.6420156,32.4859063 13.580875,32.4859063 C13.5120781,32.4859063 13.5102187,32.4622813 13.5102187,31.5678125 C13.5102187,30.6732344 13.5120781,30.6497188 13.580875,30.6497188 C13.6420156,30.6497188 13.6515312,30.6262031 13.6515312,30.4731875 C13.6515312,30.33975 13.6644375,30.2966563 13.7044687,30.2966563 C13.7414375,30.2966563 13.7574062,30.2593594 13.7574062,30.1730625 C13.7574062,30.104375 13.7752344,30.0494688 13.7975469,30.0494688 C13.8339687,30.0494688 14.0045937,29.8890156 14.0045937,29.8547813 C14.0045937,29.8253594 14.2937812,29.5550938 14.3251719,29.5550938 C14.3431094,29.5550938 14.3576562,29.53125 14.3576562,29.5021563 C14.3576562,29.4650781 14.3949531,29.4491094 14.48125,29.4491094 C14.5580312,29.4491094 14.62825,29.4235156 14.6666406,29.3815156 C14.7615781,29.2775 15.3295625,29.2750938 15.3565781,29.3785625 M33.6020781,29.357125 C33.6020781,29.4187031 33.6788594,29.4491094 33.8345,29.4491094 C33.9181719,29.4491094 33.9551406,29.4654063 33.9551406,29.5021563 C33.9551406,29.53125 33.9789844,29.5550938 34.0080781,29.5550938 C34.0372812,29.5550938 34.061125,29.5803594 34.061125,29.6113125 C34.061125,29.6422656 34.0928437,29.6759531 34.1316719,29.686125 C34.1705,29.6962969 34.2023281,29.7265938 34.2023281,29.7533906 C34.2023281,29.7802969 34.2261719,29.8022813 34.2552656,29.8022813 C34.2907031,29.8022813 34.3083125,29.8377188 34.3083125,29.90925 C34.3083125,29.9698438 34.3302969,30.0248594 34.3590625,30.0357969 C34.3870625,30.0465156 34.4203125,30.1027344 34.433,30.1607031 C34.4457969,30.2186719 34.4785,30.2746719 34.5058437,30.2851719 C34.5418281,30.2989531 34.5553906,30.3710313 34.5553906,30.5475625 L34.5553906,30.7909219 L33.2842344,30.7909219 L32.0130781,30.7909219 L32.0130781,30.5967813 C32.0130781,30.4477031 32.0253281,30.4025313 32.0660156,30.4025313 C32.1029844,30.4025313 32.1189531,30.3652344 32.1189531,30.2789375 C32.1189531,30.1788594 32.1324062,30.1553438 32.1896094,30.1553438 C32.2445156,30.1553438 32.2602656,30.1318281 32.2602656,30.0494688 C32.2602656,29.9788125 32.277875,29.9434844 32.3132031,29.9434844 C32.342625,29.9434844 32.3661406,29.9120938 32.3661406,29.8728281 C32.3661406,29.834 32.38375,29.8022813 32.4052969,29.8022813 C32.4595469,29.8022813 32.6120156,29.6530938 32.6127812,29.5991719 C32.6131094,29.575 32.6371719,29.5550938 32.6662656,29.5550938 C32.6954687,29.5550938 32.7193125,29.53125 32.7193125,29.5021563 C32.7193125,29.4650781 32.7565,29.4491094 32.8429062,29.4491094 C32.942875,29.4491094 32.9665,29.4356563 32.9665,29.3785625 C32.9665,29.3131563 32.9900156,29.3079063 33.2842344,29.3079063 C33.5322969,29.3079063 33.6020781,29.3187344 33.6020781,29.357125" id="Profiles"></path>
                    </g>
                </g>
            </g>
        </g>
    </g>
</svg>