<?xml version="1.0" encoding="UTF-8"?>
<svg width="49px" height="36px" viewBox="0 0 49 36" version="1.1" xmlns="http://www.w3.org/2000/svg" xmlns:xlink="http://www.w3.org/1999/xlink">
    <!-- Generator: Sketch 52.6 (67491) - http://www.bohemiancoding.com/sketch -->
    <title>Nav_bottom / Icon_with_text / Services / Active</title>
    <desc>Created with Sketch.</desc>
    <g id="Material-Components" stroke="none" stroke-width="1" fill="none" fill-rule="evenodd">
        <g id="Navigation" transform="translate(-380.000000, -866.000000)" fill="#FFFFFF">
            <g id="Bottom-Navigation-/-Primary-Color-/-Active-/-Resting-Copy-3" transform="translate(90.000000, 836.000000)">
                <g id="Bottom-Navigation-/-4-up-/-Primary-Color-Copy-3">
                    <g id="Nav_bottom-/-Icon_with_text-/-Services-/-Active" transform="translate(290.000000, 30.000000)">
                        <path d="M20.4640388,16 C19.3640388,16 18.4740388,16.9 18.4740388,18 C18.4740388,19.1 19.3640388,20 20.4640388,20 C21.5640388,20 22.4640388,19.1 22.4640388,18 C22.4640388,16.9 21.5640388,16 20.4640388,16 Z M14.4740388,-7.10542736e-15 L14.4740388,2 L16.4740388,2 L20.0740388,9.59 L18.7240388,12.03 C17.9940388,13.37 18.9540388,15 20.4740388,15 L32.4740388,15 L32.4740388,13 L20.4740388,13 L21.5740388,11 L29.0240388,11 C29.7740388,11 30.4340388,10.59 30.7740388,9.97 L34.3540388,3.48 C34.7240388,2.82 34.2440388,2 33.4840388,2 L18.6840388,2 L17.7440388,-7.10542736e-15 L14.4740388,-7.10542736e-15 Z M30.4640388,16 C29.3640388,16 28.4740388,16.9 28.4740388,18 C28.4740388,19.1 29.3640388,20 30.4640388,20 C31.5640388,20 32.4640388,19.1 32.4640388,18 C32.4640388,16.9 31.5640388,16 30.4640388,16 Z M26.5815228,26.6430654 L26.5815228,27.3299262 L27.2683836,27.3299262 L27.9552444,27.3299262 L27.9552444,26.6430654 L27.9552444,25.9562046 L27.2683836,25.9562046 L26.5815228,25.9562046 L26.5815228,26.6430654 M3.26432203,26.4985538 C3.26432203,26.5196028 3.14344438,26.5346202 2.97394486,26.5346202 C2.74917643,26.5346202 2.67889014,26.5469295 2.66276491,26.5889043 C2.64922464,26.6242321 2.59297099,26.6430654 2.50126646,26.6430654 C2.40020683,26.6430654 2.36044768,26.6584521 2.36044768,26.6973496 C2.36044768,26.7364932 2.32031926,26.7515106 2.21593611,26.7515106 C2.11142987,26.7515106 2.07130145,26.7666511 2.07130145,26.8057948 C2.07130145,26.8375529 2.03769697,26.8604482 1.98993675,26.8611868 C1.8967551,26.8625408 1.78203211,26.9388587 1.78203211,26.9995437 C1.78203211,27.0221929 1.74091894,27.04078 1.69057377,27.04078 C1.64022859,27.04078 1.58976033,27.0651524 1.57831265,27.094941 C1.56686497,27.1248527 1.54175393,27.1492252 1.52255137,27.1492252 C1.47565281,27.1492252 1.38444065,27.2430223 1.38444065,27.2912749 C1.38444065,27.31257 1.36006817,27.3299262 1.33015649,27.3299262 C1.3003679,27.3299262 1.27599542,27.3544218 1.27599542,27.3842104 C1.27599542,27.413999 1.25162294,27.4383714 1.22171126,27.4383714 C1.19192267,27.4383714 1.16755019,27.462867 1.16755019,27.4926556 C1.16755019,27.5224442 1.15130187,27.5469398 1.13136075,27.5469398 C1.11154273,27.5469398 1.09517131,27.5875606 1.09517131,27.6372903 C1.09517131,27.6935439 1.07473782,27.7276408 1.04101025,27.7276408 C1.01122166,27.7276408 0.986726088,27.7520132 0.986726088,27.7819249 C0.986726088,27.8117135 0.962353608,27.836086 0.932565022,27.836086 C0.894529182,27.836086 0.878280862,27.874368 0.878280862,27.9637338 C0.878280862,28.0438675 0.858093555,28.0991364 0.824119795,28.1121843 C0.790884595,28.124986 0.769835635,28.1797626 0.769835635,28.2536186 C0.769835635,28.3198428 0.753587315,28.3840975 0.733769289,28.3964068 C0.685639796,28.4261954 0.685639796,29.3789378 0.733769289,29.4086033 C0.753587315,29.4209127 0.769835635,29.4870138 0.769835635,29.5553306 C0.769835635,29.6418652 0.786453235,29.6797779 0.824119795,29.6797779 C0.862032542,29.6797779 0.878280862,29.71806 0.878280862,29.8074257 C0.878280862,29.8875595 0.898468168,29.9428284 0.932565022,29.9558763 C0.962353608,29.967324 0.986726088,29.9993282 0.986726088,30.0270242 C0.986726088,30.0547202 1.01122166,30.0774925 1.04101025,30.0774925 C1.0751071,30.0774925 1.09517131,30.1118355 1.09517131,30.170428 C1.09517131,30.2657022 1.16828875,30.3666387 1.23722102,30.3666387 C1.25851617,30.3666387 1.27599542,30.3910112 1.27599542,30.4209229 C1.27599542,30.4507115 1.3003679,30.475084 1.33015649,30.475084 C1.36006817,30.475084 1.38444065,30.4956405 1.38444065,30.5207516 C1.38444065,30.5640804 1.47146763,30.62415 1.61031691,30.6765877 C1.64515233,30.6896356 1.67358689,30.7147467 1.67358689,30.732349 C1.67358689,30.7499514 1.69808246,30.7643533 1.72787105,30.7643533 C1.75765963,30.7643533 1.78203211,30.7887258 1.78203211,30.8185144 C1.78203211,30.8522419 1.81625206,30.8727985 1.87250571,30.8727985 C1.92875937,30.8727985 1.96285622,30.893232 1.96285622,30.9269596 C1.96285622,30.9609333 1.99707617,30.9812437 2.05431457,30.9812437 C2.10465974,30.9812437 2.1552511,31.0056162 2.16669878,31.0354048 C2.17814646,31.0653165 2.22639904,31.089689 2.27403616,31.089689 C2.32155019,31.089689 2.36044768,31.1059373 2.36044768,31.1257553 C2.36044768,31.1456964 2.40931574,31.1619448 2.46889291,31.1619448 C2.54127179,31.1619448 2.57746123,31.1800395 2.57746123,31.2162289 C2.57746123,31.2553726 2.61758966,31.27039 2.7219728,31.27039 C2.82647904,31.27039 2.86660747,31.2855305 2.86660747,31.3246741 C2.86660747,31.3635716 2.90648971,31.3788352 3.0081648,31.3788352 C3.08608288,31.3788352 3.1558768,31.3971761 3.1633855,31.4195791 C3.17089419,31.4419821 3.26161398,31.4684472 3.36525856,31.4784177 C3.46878006,31.4883883 3.55346827,31.5106682 3.55346827,31.5280243 C3.55346827,31.5453805 3.61686133,31.5596593 3.69416395,31.5596593 C3.78599157,31.5596593 3.84224523,31.5784926 3.85578549,31.6138204 C3.87006432,31.6511177 3.92828747,31.6681045 4.04153333,31.6681045 C4.1547792,31.6681045 4.21300235,31.6850914 4.22728117,31.7222656 C4.23872885,31.7521773 4.28599669,31.7765498 4.33240288,31.7765498 C4.37880907,31.7765498 4.42693856,31.7927981 4.4391248,31.8126161 C4.45143413,31.8325572 4.49919435,31.8488056 4.54535435,31.8488056 C4.59139125,31.8488056 4.64936821,31.873178 4.67410997,31.9030897 C4.69885173,31.9328783 4.74230368,31.9572508 4.77049205,31.9572508 C4.82600714,31.9572508 4.8767216,31.9933171 5.03760458,32.1470607 C5.09484298,32.2017141 5.15848224,32.2465201 5.17903882,32.2465201 C5.19959541,32.2465201 5.2164592,32.2708926 5.2164592,32.3006812 C5.2164592,32.3305929 5.24083168,32.3549653 5.27062026,32.3549653 C5.30040885,32.3549653 5.32490442,32.3793378 5.32490442,32.4091264 C5.32490442,32.4390381 5.34115274,32.4634106 5.36097077,32.4634106 C5.38091189,32.4634106 5.39716021,32.4963996 5.39716021,32.5367742 C5.39716021,32.5772719 5.42153269,32.619616 5.45144437,32.6310637 C5.48677216,32.644604 5.50560544,32.7008576 5.50560544,32.7925621 C5.50560544,32.8936218 5.52086901,32.9333809 5.5598896,32.9333809 C5.59755616,32.9333809 5.61405066,32.9711706 5.61405066,33.0573359 C5.61405066,33.1254065 5.58967818,33.2056634 5.5598896,33.235452 C5.52997792,33.2652405 5.50560544,33.3478362 5.50560544,33.418861 C5.50560544,33.4897628 5.4896033,33.5478628 5.47015456,33.5478628 C5.45070581,33.5478628 5.42448693,33.5886067 5.4120545,33.6383364 C5.39949898,33.687943 5.37488032,33.7286869 5.35715488,33.7286869 C5.33930634,33.7286869 5.32490442,33.7530594 5.32490442,33.782848 C5.32490442,33.8127597 5.30040885,33.8371322 5.27062026,33.8371322 C5.24083168,33.8371322 5.2164592,33.8615046 5.2164592,33.8912932 C5.2164592,33.9212049 5.19196362,33.9455774 5.16217504,33.9455774 C5.13238645,33.9455774 5.10801397,33.9615795 5.10801397,33.9810283 C5.10801397,34.000477 5.06727008,34.0266959 5.01754037,34.0391283 C4.96793376,34.0516838 4.92718986,34.0763025 4.92718986,34.094151 C4.92718986,34.1118765 4.90281738,34.1262784 4.8730288,34.1262784 C4.84311712,34.1262784 4.81874464,34.150774 4.81874464,34.1805626 C4.81874464,34.2197062 4.77861621,34.2347236 4.67410997,34.2347236 C4.56972683,34.2347236 4.5295984,34.2498641 4.5295984,34.2890078 C4.5295984,34.3334445 4.46731317,34.3431689 4.186168,34.3431689 C3.9812176,34.3431689 3.8427376,34.357817 3.8427376,34.3793583 C3.8427376,34.3992994 3.81824203,34.4155477 3.78845344,34.4155477 C3.75866485,34.4155477 3.73416928,34.3992994 3.73416928,34.3793583 C3.73416928,34.357817 3.59568928,34.3431689 3.39073888,34.3431689 C3.10959371,34.3431689 3.04730848,34.3334445 3.04730848,34.2890078 C3.04730848,34.2498641 3.00718006,34.2347236 2.90279691,34.2347236 C2.79829067,34.2347236 2.75816224,34.2197062 2.75816224,34.1805626 C2.75816224,34.1443731 2.7219728,34.1262784 2.64971702,34.1262784 C2.57746123,34.1262784 2.54127179,34.1083068 2.54127179,34.0721173 C2.54127179,34.0423288 2.52009974,34.0178332 2.49425014,34.0178332 C2.41128523,34.0178332 2.25261792,33.9289598 2.25237174,33.8823074 C2.25212555,33.8574426 2.22762998,33.8371322 2.19784139,33.8371322 C2.16805281,33.8371322 2.14355723,33.8196529 2.14355723,33.7983578 C2.14355723,33.7770626 2.12324683,33.7369342 2.09838198,33.7092382 C1.98599777,33.5839292 1.96285622,33.5473705 1.96285622,33.4951789 C1.96285622,33.4645286 1.93848374,33.4394176 1.90857206,33.4394176 C1.86942838,33.4394176 1.85441099,33.3992892 1.85441099,33.294906 C1.85441099,33.2152646 1.83816267,33.1502714 1.81822155,33.1502714 C1.79840353,33.1502714 1.78203211,33.0618904 1.78203211,32.9540606 C1.78203211,32.6521126 1.76529142,32.6441116 1.13173003,32.6441116 C0.836552222,32.6441116 0.569316596,32.653959 0.537804703,32.6661453 C0.454716703,32.6980265 0.451885556,33.5478628 0.534850463,33.5478628 C0.573994142,33.5478628 0.589134622,33.5881144 0.589134622,33.6924975 C0.589134622,33.7970037 0.604152009,33.8371322 0.643295689,33.8371322 C0.677023262,33.8371322 0.697579849,33.871229 0.697579849,33.9274827 C0.697579849,33.9772124 0.712104862,34.0178332 0.729830302,34.0178332 C0.747555742,34.0178332 0.771312755,34.0550074 0.782760435,34.1003057 C0.807379102,34.1984111 0.993619315,34.4155477 1.05331958,34.4155477 C1.07633803,34.4155477 1.09517131,34.4399202 1.09517131,34.4697088 C1.09517131,34.4996205 1.11154273,34.523993 1.13136075,34.523993 C1.15130187,34.523993 1.16755019,34.5483654 1.16755019,34.578154 C1.16755019,34.6080657 1.19192267,34.6324382 1.22171126,34.6324382 C1.25162294,34.6324382 1.27599542,34.6486865 1.27599542,34.6686276 C1.27599542,34.6884457 1.3003679,34.704694 1.33015649,34.704694 C1.36006817,34.704694 1.38444065,34.7291895 1.38444065,34.7589781 C1.38444065,34.7927057 1.4185375,34.8131392 1.47479115,34.8131392 C1.53104481,34.8131392 1.56514166,34.8336958 1.56514166,34.8674234 C1.56514166,34.8993045 1.59862305,34.9219537 1.64650635,34.922323 C1.69131233,34.9225692 1.76615307,34.9633131 1.81305163,35.0126735 C1.86376609,35.0662191 1.93860683,35.1024085 1.9983071,35.1024085 C2.05345291,35.1024085 2.11881547,35.126781 2.14355723,35.1565696 C2.16829899,35.1864813 2.2272607,35.2108538 2.27452854,35.2108538 C2.3268432,35.2108538 2.36044768,35.2320258 2.36044768,35.2650148 C2.36044768,35.3066204 2.4062384,35.319299 2.55542752,35.319299 C2.69538464,35.319299 2.75631584,35.3345626 2.77121014,35.3735831 C2.78733536,35.4154349 2.85762166,35.4277442 3.08239008,35.4277442 C3.2518896,35.4277442 3.37276726,35.4427616 3.37276726,35.4639337 C3.37276726,35.4858443 3.53537355,35.5 3.78845344,35.5 C4.04153333,35.5 4.20413963,35.4858443 4.20413963,35.4639337 C4.20413963,35.4427616 4.32846389,35.4277442 4.50461045,35.4277442 C4.71276128,35.4277442 4.82649952,35.4114959 4.87512138,35.374691 C4.9136496,35.3455179 5.00449248,35.3210223 5.07699445,35.3204068 C5.15983626,35.3196683 5.2163361,35.2992348 5.22950709,35.2650148 C5.24255498,35.2310411 5.29782389,35.2108538 5.37795765,35.2108538 C5.46732341,35.2108538 5.50560544,35.1946054 5.50560544,35.1565696 C5.50560544,35.122842 5.53970229,35.1024085 5.59595594,35.1024085 C5.64568565,35.1024085 5.68642954,35.0861602 5.68642954,35.0662191 C5.68642954,35.0464011 5.71769525,35.0300297 5.75610037,35.0300297 C5.7943824,35.0300297 5.85026677,35.0056572 5.88005536,34.9758686 C5.90984394,34.94608 5.95169568,34.9215844 5.97299082,34.9215844 C5.99428597,34.9215844 6.01176522,34.8972119 6.01176522,34.8674234 C6.01176522,34.8336958 6.04586208,34.8131392 6.10211573,34.8131392 C6.15836938,34.8131392 6.19246623,34.7927057 6.19246623,34.7589781 C6.19246623,34.7291895 6.20933002,34.704694 6.22988661,34.704694 C6.29438751,34.704694 6.48173557,34.4886652 6.48173557,34.4143168 C6.48173557,34.3751731 6.50610805,34.3431689 6.53589663,34.3431689 C6.56568522,34.3431689 6.59018079,34.3205197 6.59018079,34.2928237 C6.59018079,34.2651277 6.61455327,34.2331234 6.64434186,34.2216757 C6.67413045,34.2102281 6.69862602,34.1597598 6.69862602,34.1094146 C6.69862602,34.0590694 6.71487434,34.0178332 6.73469237,34.0178332 C6.75463349,34.0178332 6.77088181,33.9528399 6.77088181,33.8733216 C6.77088181,33.7688154 6.78589919,33.7286869 6.82516597,33.7286869 C6.87132597,33.7286869 6.87932703,33.6307046 6.87932703,33.0637368 C6.87932703,32.5060009 6.87058741,32.395463 6.82516597,32.3779838 C6.78934581,32.3643204 6.77088181,32.3076975 6.77088181,32.2114385 C6.77088181,32.1313048 6.75463349,32.065696 6.73469237,32.065696 C6.71487434,32.065696 6.69862602,32.0413235 6.69862602,32.0115349 C6.69862602,31.9816233 6.67413045,31.9572508 6.64434186,31.9572508 C6.61061429,31.9572508 6.59018079,31.9231539 6.59018079,31.8669003 C6.59018079,31.8106466 6.56962421,31.7765498 6.53589663,31.7765498 C6.50610805,31.7765498 6.48173557,31.7535313 6.48173557,31.7253429 C6.48173557,31.6971546 6.46881077,31.66872 6.45305482,31.662073 C6.43729887,31.6554259 6.38719989,31.5889555 6.34165535,31.5144841 C6.29611082,31.4398895 6.24330378,31.3788352 6.22410122,31.3788352 C6.18631157,31.3788352 6.13658186,31.3406763 5.977176,31.1890253 C5.91969141,31.1343719 5.84300426,31.0891966 5.80669173,31.0887042 C5.7702561,31.0880888 5.69319968,31.0393438 5.63509962,30.980259 C5.57712266,30.9210511 5.49994314,30.8727985 5.46338442,30.8727985 C5.4269488,30.8727985 5.39716021,30.8564271 5.39716021,30.8366091 C5.39716021,30.816668 5.35592394,30.8004196 5.30570186,30.8004196 C5.25535669,30.8004196 5.20476533,30.7760472 5.19331765,30.7462586 C5.18051594,30.7127772 5.12549322,30.6919744 5.04991392,30.6919744 C4.96497952,30.6919744 4.92718986,30.6753568 4.92718986,30.6378133 C4.92718986,30.5985466 4.88693834,30.5835292 4.78144736,30.5835292 C4.68531147,30.5835292 4.62868853,30.5650652 4.61490208,30.5293681 C4.60136181,30.4939172 4.54510816,30.475084 4.45340363,30.475084 C4.37597792,30.475084 4.31258485,30.4588356 4.31258485,30.4388945 C4.31258485,30.4190765 4.25165365,30.4023358 4.17705909,30.4015972 C4.10246453,30.4009818 4.00989835,30.3766093 3.97137013,30.3474362 C3.93271883,30.3182631 3.83916789,30.2943829 3.76346549,30.2943829 C3.66523701,30.2943829 3.62572405,30.2788732 3.62572405,30.2400988 C3.62572405,30.2012013 3.586088,30.1859377 3.48502838,30.1859377 C3.39332384,30.1859377 3.33707019,30.1669813 3.32352992,30.1316536 C3.31208224,30.101865 3.26149088,30.0774925 3.21114571,30.0774925 C3.16080054,30.0774925 3.11968736,30.0611211 3.11968736,30.0413031 C3.11968736,30.0213619 3.06220278,30.0051136 2.99203958,30.0051136 C2.91707574,30.0051136 2.85651382,29.984557 2.84531232,29.955507 C2.83484939,29.9281803 2.76714806,29.8752501 2.69501536,29.8379529 C2.55641227,29.7663125 2.25200246,29.4823362 2.25200246,29.4246055 C2.25200246,29.4058953 2.22762998,29.3906317 2.19784139,29.3906317 C2.16411382,29.3906317 2.14355723,29.3564117 2.14355723,29.3001581 C2.14355723,29.2504284 2.12730891,29.2098076 2.10749089,29.2098076 C2.08582646,29.2098076 2.07130145,29.0712045 2.07130145,28.8663772 C2.07130145,28.6615499 2.08582646,28.5229468 2.10749089,28.5229468 C2.12730891,28.5229468 2.14355723,28.4742018 2.14355723,28.4145016 C2.14355723,28.3422458 2.16165195,28.3060563 2.19784139,28.3060563 C2.23156896,28.3060563 2.25200246,28.2719595 2.25200246,28.2157058 C2.25200246,28.1594522 2.27255904,28.1253553 2.30628662,28.1253553 C2.3360752,28.1253553 2.36044768,28.1008598 2.36044768,28.0710712 C2.36044768,28.0412826 2.38494326,28.016787 2.41473184,28.016787 C2.44452043,28.016787 2.46889291,27.9924145 2.46889291,27.9626259 C2.46889291,27.9288984 2.50311286,27.9083418 2.55936651,27.9083418 C2.60909622,27.9083418 2.64971702,27.8920935 2.64971702,27.8722754 C2.64971702,27.8523343 2.6740895,27.836086 2.70387808,27.836086 C2.73378976,27.836086 2.75816224,27.8117135 2.75816224,27.7819249 C2.75816224,27.7426582 2.79829067,27.7276408 2.90279691,27.7276408 C3.00410272,27.7276408 3.04730848,27.712131 3.04730848,27.6759416 C3.04730848,27.6175953 3.46324086,27.5919919 4.07772277,27.6126716 C4.34618933,27.6216574 4.42115317,27.6354439 4.42115317,27.6759416 C4.42115317,27.7088075 4.45894283,27.7276408 4.52516704,27.7276408 C4.58228235,27.7276408 4.64936821,27.7520132 4.67410997,27.7819249 C4.69885173,27.8117135 4.74156512,27.836086 4.76889184,27.836086 C4.79634165,27.836086 4.81874464,27.8523343 4.81874464,27.8722754 C4.81874464,27.8920935 4.85124128,27.9083418 4.89100042,27.9083418 C4.96633354,27.9083418 5.10801397,28.0263883 5.10801397,28.0891659 C5.10801397,28.1089839 5.13238645,28.1253553 5.16217504,28.1253553 C5.19196362,28.1253553 5.2164592,28.1497278 5.2164592,28.1795164 C5.2164592,28.209305 5.24083168,28.2338006 5.27062026,28.2338006 C5.30434784,28.2338006 5.32490442,28.2678974 5.32490442,28.3241511 C5.32490442,28.3738808 5.34115274,28.4145016 5.36097077,28.4145016 C5.38091189,28.4145016 5.39716021,28.4533991 5.39716021,28.5010362 C5.39716021,28.5485502 5.42153269,28.5969259 5.45144437,28.6083736 C5.49268064,28.6241295 5.50560544,28.6915847 5.50560544,28.891242 C5.50560544,29.2905568 5.55041141,29.3182528 6.19578975,29.3182528 C6.88720501,29.3182528 6.87932703,29.3226842 6.87932703,28.9396177 C6.87932703,28.6897383 6.86911029,28.631392 6.82516597,28.631392 C6.78417589,28.631392 6.77088181,28.5874477 6.77088181,28.4527836 C6.77088181,28.3545551 6.75463349,28.2640815 6.73469237,28.2517722 C6.71487434,28.2395859 6.69862602,28.181609 6.69862602,28.1231396 C6.69862602,28.0527303 6.68028511,28.016787 6.64434186,28.016787 C6.61061429,28.016787 6.59018079,27.9826902 6.59018079,27.9264365 C6.59018079,27.8733833 6.56937802,27.836086 6.53983562,27.836086 C6.51213962,27.836086 6.48025845,27.799158 6.46893386,27.7539827 C6.45760927,27.7089306 6.41514207,27.6364286 6.37464437,27.5928536 C6.33414666,27.5494016 6.30091146,27.4968408 6.30091146,27.476038 C6.30091146,27.4553583 6.27653898,27.4383714 6.24675039,27.4383714 C6.21683871,27.4383714 6.19246623,27.413999 6.19246623,27.3842104 C6.19246623,27.3544218 6.16809375,27.3299262 6.13830517,27.3299262 C6.10839349,27.3299262 6.08402101,27.31257 6.08402101,27.2912749 C6.08402101,27.2336672 5.98886986,27.1492252 5.92387658,27.1492252 C5.89273397,27.1492252 5.86713056,27.1332231 5.86713056,27.1137743 C5.86713056,27.0942025 5.82650976,27.0681067 5.77678005,27.0556743 C5.72705034,27.0431187 5.68642954,27.0161613 5.68642954,26.9956047 C5.68642954,26.9394742 5.56986016,26.8624177 5.48295626,26.8611868 C5.44061216,26.8605713 5.38571253,26.8355834 5.36097077,26.8057948 C5.33622901,26.7760062 5.26914314,26.7515106 5.21202784,26.7515106 C5.14358794,26.7515106 5.10801397,26.7329235 5.10801397,26.6973496 C5.10801397,26.6593137 5.06948576,26.6430654 4.97888906,26.6430654 C4.90786421,26.6430654 4.82539168,26.6186929 4.79548,26.5889043 C4.75707488,26.5503761 4.66327776,26.5346202 4.47272928,26.5346202 C4.31775477,26.5346202 4.20413963,26.5193566 4.20413963,26.4985538 C4.20413963,26.4762739 4.02343861,26.4623644 3.73416928,26.4623644 C3.44502304,26.4623644 3.26432203,26.4762739 3.26432203,26.4985538 M10.5436925,28.757932 C10.5300291,28.7932598 10.4738985,28.8122161 10.3820709,28.8122161 C10.2811344,28.8122161 10.2413752,28.8274797 10.2413752,28.8663772 C10.2413752,28.9025666 10.2051858,28.9206614 10.13293,28.9206614 C10.0732297,28.9206614 10.0244848,28.9365404 10.0244848,28.9561122 C10.0244848,28.975561 9.98374089,29.0017799 9.93413428,29.0142123 C9.88440457,29.0266447 9.84366068,29.0513865 9.84366068,29.0691119 C9.84366068,29.0868373 9.82101151,29.1013624 9.79331551,29.1013624 C9.76561951,29.1013624 9.73361524,29.1257348 9.72216756,29.1556465 C9.71071988,29.1854351 9.66837577,29.2098076 9.62787807,29.2098076 C9.58676489,29.2098076 9.55451444,29.2336877 9.55451444,29.2640917 C9.55451444,29.2938803 9.53703519,29.3182528 9.51561695,29.3182528 C9.49419871,29.3182528 9.42908233,29.3657668 9.37098228,29.42399 C9.31288223,29.48209 9.26524511,29.5470833 9.26524511,29.5685016 C9.26524511,29.5899198 9.24284212,29.6075221 9.21526921,29.6075221 C9.1878194,29.6075221 9.15569204,29.6359567 9.14399817,29.6707921 C9.11433268,29.7591731 9.04441567,29.8603559 8.94901833,29.9526759 C8.90421236,29.9960047 8.86765364,30.066291 8.86765364,30.1086351 C8.86765364,30.1531949 8.84463519,30.1859377 8.81336948,30.1859377 C8.77730313,30.1859377 8.75920841,30.2220041 8.75920841,30.2943829 C8.75920841,30.3666387 8.74111369,30.4028282 8.70492425,30.4028282 C8.67156596,30.4028282 8.65076319,30.4366788 8.65076319,30.4910861 C8.65076319,30.5395849 8.63451487,30.5893146 8.61457375,30.6016239 C8.59475572,30.6139332 8.57838431,30.7042837 8.57838431,30.8026353 C8.57838431,30.9372994 8.56509023,30.9812437 8.52422324,30.9812437 C8.47929418,30.9812437 8.46993908,31.0490682 8.46993908,31.3750193 C8.46993908,31.6917385 8.45935306,31.772857 8.41577802,31.7895977 C8.37466484,31.8053536 8.36149386,31.8720702 8.36149386,32.065696 C8.36149386,32.2593218 8.37466484,32.3260384 8.41577802,32.3419174 C8.45935306,32.358535 8.46993908,32.4397766 8.46993908,32.7564958 C8.46993908,33.0824469 8.47929418,33.1502714 8.52422324,33.1502714 C8.56582879,33.1502714 8.57838431,33.1964314 8.57838431,33.3490671 C8.57838431,33.4584971 8.59475572,33.5478628 8.61457375,33.5478628 C8.63451487,33.5478628 8.65076319,33.5855294 8.65076319,33.6313201 C8.65076319,33.6772339 8.6746433,33.7464124 8.70381641,33.7850637 C8.73298953,33.8235919 8.75736201,33.8917856 8.75797748,33.9365916 C8.75871604,33.9842287 8.7816114,34.0178332 8.81336948,34.0178332 C8.84414281,34.0178332 8.86765364,34.0503298 8.86765364,34.092797 C8.86765364,34.1339102 8.88796404,34.1889329 8.91282889,34.2149056 C8.93769375,34.2408783 8.98188425,34.2966396 9.01118047,34.3387375 C9.04047668,34.3809585 9.08515956,34.4155477 9.11063988,34.4155477 C9.13599711,34.4155477 9.15679988,34.4525988 9.15679988,34.4978972 C9.15679988,34.5764307 9.26672223,34.704694 9.33417737,34.704694 C9.35165663,34.704694 9.37541364,34.7291895 9.38686132,34.7589781 C9.398309,34.7887667 9.44065311,34.8131392 9.48102772,34.8131392 C9.52226399,34.8131392 9.55451444,34.8370193 9.55451444,34.8674234 C9.55451444,34.8972119 9.57888692,34.9215844 9.60867551,34.9215844 C9.63858719,34.9215844 9.66295967,34.9401715 9.66295967,34.9628207 C9.66295967,35.0236288 9.77755956,35.0999467 9.87086431,35.1013007 C9.91850143,35.1019162 9.95210591,35.1248115 9.95210591,35.1565696 C9.95210591,35.1896817 9.98583348,35.2108538 10.0386405,35.2108538 C10.0862776,35.2108538 10.1345302,35.2352262 10.1459779,35.2650148 C10.1596413,35.3005888 10.216018,35.319299 10.3095689,35.319299 C10.3898258,35.319299 10.458635,35.3386246 10.4670053,35.3634895 C10.4763604,35.3916779 10.585298,35.4124806 10.7682147,35.4212203 C10.9257742,35.428729 11.0701626,35.4495317 11.089119,35.4673803 C11.133925,35.5100937 11.7349897,35.5098475 11.7795495,35.4672572 C11.7985059,35.4491625 11.9590196,35.428729 12.136274,35.4219588 C12.3521797,35.4135885 12.4637023,35.394509 12.4736728,35.3643511 C12.4822894,35.3385015 12.5496214,35.319299 12.6314785,35.319299 C12.7250294,35.319299 12.7814062,35.3005888 12.7949464,35.2650148 C12.8063941,35.2352262 12.8552622,35.2108538 12.9033917,35.2108538 C12.9516442,35.2108538 13.0005123,35.1864813 13.01196,35.1565696 C13.0234077,35.126781 13.0716602,35.1024085 13.1191743,35.1024085 C13.1668114,35.1024085 13.2057089,35.0861602 13.2057089,35.0662191 C13.2057089,35.0464011 13.2464528,35.0300297 13.2960594,35.0300297 C13.352313,35.0300297 13.386533,35.0095962 13.386533,34.9758686 C13.386533,34.94608 13.4091822,34.9215844 13.4368782,34.9215844 C13.4645742,34.9215844 13.4965784,34.8972119 13.5080261,34.8674234 C13.5194738,34.8376348 13.5618179,34.8131392 13.6021925,34.8131392 C13.6434288,34.8131392 13.6756792,34.7893822 13.6756792,34.7589781 C13.6756792,34.7291895 13.7000517,34.704694 13.7299634,34.704694 C13.7629524,34.704694 13.7841245,34.6710895 13.7841245,34.6187748 C13.7841245,34.571507 13.759752,34.5125453 13.7299634,34.4878035 C13.7000517,34.4630618 13.6756792,34.4204715 13.6756792,34.3930217 C13.6756792,34.3656949 13.6513067,34.3431689 13.6215182,34.3431689 C13.5872982,34.3431689 13.567234,34.3088258 13.567234,34.2502334 C13.567234,34.1991497 13.5469236,34.1346488 13.5220587,34.1069528 C13.4095514,33.9815206 13.386533,33.945085 13.386533,33.8928934 C13.386533,33.8622432 13.3620374,33.8371322 13.3322488,33.8371322 C13.3024602,33.8371322 13.2780878,33.8127597 13.2780878,33.782848 C13.2780878,33.7491204 13.2438678,33.7286869 13.1876142,33.7286869 C13.1313605,33.7286869 13.0972637,33.7491204 13.0972637,33.782848 C13.0972637,33.8127597 13.0746145,33.8371322 13.0469185,33.8371322 C13.0192225,33.8371322 12.9872182,33.8615046 12.9757705,33.8912932 C12.9643229,33.9212049 12.9232097,33.9455774 12.8845584,33.9455774 C12.845784,33.9455774 12.8087329,33.9577636 12.8020858,33.9726579 C12.7843604,34.012294 12.5578687,34.1262784 12.4966913,34.1262784 C12.4678874,34.1262784 12.4348984,34.150774 12.4234508,34.1805626 C12.4099105,34.2158903 12.3536568,34.2347236 12.2619523,34.2347236 C12.1608927,34.2347236 12.1212566,34.2501103 12.1212566,34.2890078 C12.1212566,34.3333214 12.0593407,34.3431689 11.7807805,34.3431689 C11.5422256,34.3431689 11.4348882,34.3567091 11.4220865,34.3884672 C11.4075615,34.4245335 11.4033763,34.4245335 11.4010375,34.3884672 C11.399068,34.3573246 11.3263199,34.3431689 11.1670371,34.3431689 C10.9949526,34.3431689 10.9306979,34.3293824 10.9151881,34.2890078 C10.9037405,34.2592192 10.8531491,34.2347236 10.8028039,34.2347236 C10.7524588,34.2347236 10.7113456,34.2195831 10.7113456,34.2011191 C10.7113456,34.1825321 10.6779873,34.1568056 10.6373665,34.1438808 C10.5488624,34.1158155 10.2413752,33.8239612 10.2413752,33.7680768 C10.2413752,33.7464124 10.2170028,33.7286869 10.1870911,33.7286869 C10.1533635,33.7286869 10.13293,33.694467 10.13293,33.6383364 C10.13293,33.5820828 10.1123734,33.5478628 10.0786459,33.5478628 C10.0425795,33.5478628 10.0244848,33.5117965 10.0244848,33.4394176 C10.0244848,33.3798404 10.0082365,33.3309724 9.98829535,33.3309724 C9.96847732,33.3309724 9.95210591,33.2833353 9.95210591,33.2251121 C9.95210591,33.166889 9.92773343,33.0948794 9.89794484,33.0650908 C9.85929353,33.0264395 9.84366068,32.9322731 9.84366068,32.7374163 L9.84366068,32.464026 L11.8952573,32.4546709 L13.9468538,32.4453158 L13.9569475,31.9663597 C13.9634714,31.655549 13.9538702,31.4872804 13.9297439,31.4872804 C13.9066023,31.4872804 13.8925697,31.3435074 13.8925697,31.1065528 C13.8925697,30.8015275 13.8818606,30.721763 13.8384086,30.7050223 C13.799388,30.690128 13.7841245,30.6291968 13.7841245,30.4893628 C13.7841245,30.3400506 13.7714458,30.2943829 13.7299634,30.2943829 C13.6959896,30.2943829 13.6756792,30.2600399 13.6756792,30.2028015 C13.6756792,30.1524563 13.6513067,30.1019881 13.6215182,30.0905404 C13.5916065,30.0790927 13.567234,30.0340405 13.567234,29.9903424 C13.567234,29.8804201 13.4862386,29.7165828 13.4317082,29.7162136 C13.4068434,29.7160905 13.386533,29.6933182 13.386533,29.6656222 C13.386533,29.6379262 13.3620374,29.6057988 13.3322488,29.5943512 C13.3024602,29.5829035 13.2780878,29.5465909 13.2780878,29.5134788 C13.2780878,29.4614104 13.0499958,29.2098076 13.0028511,29.2098076 C12.9864797,29.2098076 12.9325648,29.1683251 12.8292895,29.0760051 C12.8025782,29.052125 12.7380773,29.0219672 12.6858857,29.0087962 C12.6338173,28.9957483 12.591227,28.9705142 12.591227,28.9527887 C12.591227,28.9350633 12.5522064,28.9206614 12.5046924,28.9206614 C12.4570552,28.9206614 12.4088026,28.8961658 12.397355,28.8663772 C12.3830761,28.829203 12.324853,28.8122161 12.2116071,28.8122161 C12.0983613,28.8122161 12.0401381,28.7952292 12.0258593,28.757932 C12.0082569,28.7122643 11.8916876,28.7036478 11.2847143,28.7036478 C10.6778642,28.7036478 10.5611717,28.7122643 10.5436925,28.757932 M17.616143,28.757932 C17.616143,28.7916595 17.5819231,28.8122161 17.5257925,28.8122161 C17.4695388,28.8122161 17.4353189,28.8326496 17.4353189,28.8663772 C17.4353189,28.9025666 17.3992526,28.9206614 17.3268737,28.9206614 C17.2672965,28.9206614 17.2184284,28.9358018 17.2184284,28.9542658 C17.2184284,28.9728529 17.1867935,28.9980871 17.1480191,29.0103964 C17.0297264,29.0479399 16.7484581,29.3372092 16.7484581,29.4212819 C16.7484581,29.4663341 16.7256858,29.4990769 16.694297,29.4990769 C16.6498603,29.4990769 16.6400129,29.4367917 16.6400129,29.1556465 L16.6400129,28.8122161 L16.0112521,28.8122161 C15.4712417,28.8122161 15.3794141,28.8202172 15.3605808,28.8693314 C15.3272225,28.9562353 15.3354697,35.2221783 15.3689511,35.2749854 C15.391231,35.310067 15.5555606,35.3186835 16.0643054,35.3110517 L16.7304865,35.3012043 L16.7397185,32.9966509 C16.74575,31.5020516 16.7616291,30.6919744 16.7848937,30.6919744 C16.8047118,30.6919744 16.820837,30.6432295 16.820837,30.5835292 C16.820837,30.523952 16.8383162,30.475084 16.8597345,30.475084 C16.9103258,30.475084 17.1099832,30.2754266 17.1099832,30.2248352 C17.1099832,30.203417 17.1588513,30.1859377 17.2184284,30.1859377 C17.2908073,30.1859377 17.3268737,30.167843 17.3268737,30.1316536 C17.3268737,30.097926 17.3610936,30.0774925 17.4173473,30.0774925 C17.4669539,30.0774925 17.5076978,30.0611211 17.5076978,30.0413031 C17.5076978,30.018777 17.7125251,30.0051136 18.0499239,30.0051136 L18.59215,30.0051136 L18.59215,29.6978727 C18.59215,29.4488548 18.6024899,29.3906317 18.6464342,29.3906317 C18.6908709,29.3906317 18.7005953,29.3283465 18.7005953,29.0472013 L18.7005953,28.7036478 L18.1583691,28.7036478 C17.7004619,28.7036478 17.616143,28.7121412 17.616143,28.757932 M31.8102814,28.757932 C31.7966181,28.7937521 31.7399951,28.8122161 31.6437361,28.8122161 C31.5382452,28.8122161 31.4979936,28.8271104 31.4979936,28.8663772 C31.4979936,28.9055209 31.4578652,28.9206614 31.353359,28.9206614 C31.2738407,28.9206614 31.2088474,28.9365404 31.2088474,28.9561122 C31.2088474,28.975561 31.1681035,29.0017799 31.1183738,29.0142123 C31.0687672,29.0266447 31.0280233,29.0513865 31.0280233,29.0691119 C31.0280233,29.0868373 31.0036508,29.1013624 30.9738622,29.1013624 C30.9439505,29.1013624 30.9195781,29.1257348 30.9195781,29.1556465 C30.9195781,29.1893741 30.8854812,29.2098076 30.8292276,29.2098076 C30.7729739,29.2098076 30.7388771,29.2303642 30.7388771,29.2640917 C30.7388771,29.2938803 30.7220133,29.3182528 30.7013336,29.3182528 C30.6364634,29.3182528 30.3411625,29.6470351 30.3411625,29.7192909 C30.3411625,29.7572036 30.3208521,29.7884693 30.2959872,29.7885924 C30.2711224,29.7888386 30.2188077,29.8558014 30.179664,29.9374123 C30.1406435,30.0190232 30.0877133,30.0937408 30.062233,30.1034652 C30.0367527,30.1133127 30.0158268,30.1602112 30.0158268,30.2078483 C30.0158268,30.2553624 29.9995785,30.2943829 29.9796374,30.2943829 C29.9598193,30.2943829 29.943571,30.3593762 29.943571,30.4388945 C29.943571,30.5434008 29.9284305,30.5835292 29.8892869,30.5835292 C29.8500201,30.5835292 29.8351258,30.6240269 29.8351258,30.7307488 C29.8351258,30.8133444 29.8112457,30.9017255 29.7808416,30.9321295 C29.7409594,30.9720117 29.7266806,31.0696248 29.7266806,31.3019019 C29.7266806,31.5061137 29.7106784,31.6333922 29.6813822,31.6626884 C29.6181123,31.7260815 29.6182353,32.5055085 29.6815053,32.5266805 C29.7132634,32.5372666 29.7266806,32.6416497 29.7266806,32.8782351 C29.7266806,33.1441167 29.7380052,33.2192036 29.7808416,33.235575 C29.8191237,33.2503462 29.8351258,33.3100465 29.8351258,33.4383098 C29.8351258,33.5759281 29.8482968,33.6202417 29.8892869,33.6202417 C29.9254763,33.6202417 29.943571,33.6563081 29.943571,33.7286869 C29.943571,33.7882641 29.9598193,33.8371322 29.9796374,33.8371322 C29.9995785,33.8371322 30.0158268,33.8760297 30.0158268,33.9236668 C30.0158268,33.9711808 30.0401993,34.0195565 30.070111,34.0310042 C30.0998996,34.0423288 30.124272,34.0929201 30.124272,34.1432653 C30.124272,34.2005037 30.1445824,34.2347236 30.1785562,34.2347236 C30.2083448,34.2347236 30.2327173,34.2574959 30.2327173,34.2851919 C30.2327173,34.3128879 30.2570897,34.3448922 30.2870014,34.3563398 C30.31679,34.3677875 30.3411625,34.4101316 30.3411625,34.4505062 C30.3411625,34.4908809 30.3574108,34.523993 30.3773519,34.523993 C30.39717,34.523993 30.4135414,34.5483654 30.4135414,34.578154 C30.4135414,34.6080657 30.4379139,34.6324382 30.4677024,34.6324382 C30.497491,34.6324382 30.5219866,34.6486865 30.5219866,34.6686276 C30.5219866,34.6884457 30.5463591,34.704694 30.5761477,34.704694 C30.6059363,34.704694 30.6304318,34.7218039 30.6304318,34.7427298 C30.6304318,34.8130161 30.872064,35.0300297 30.9503514,35.0300297 C30.9930648,35.0300297 31.0280233,35.0464011 31.0280233,35.0662191 C31.0280233,35.0861602 31.0506725,35.1024085 31.0783685,35.1024085 C31.1060645,35.1024085 31.1381918,35.126781 31.1495164,35.1565696 C31.1609641,35.1864813 31.201708,35.2108538 31.23999,35.2108538 C31.278272,35.2108538 31.3188928,35.2352262 31.3303405,35.2650148 C31.3449886,35.3031738 31.4043196,35.319299 31.5291362,35.319299 C31.654076,35.319299 31.713407,35.3354242 31.727932,35.3735831 C31.7439341,35.4150656 31.812374,35.4277442 32.0210172,35.4277442 C32.1784536,35.4277442 32.2932997,35.4430078 32.2932997,35.4639337 C32.2932997,35.485475 32.4319028,35.5 32.6367301,35.5 C32.8415574,35.5 32.9801605,35.485475 32.9801605,35.4639337 C32.9801605,35.4438694 33.0756809,35.4277442 33.194466,35.4277442 C33.3368849,35.4277442 33.4271124,35.4095264 33.4630556,35.3735831 C33.4928442,35.3436715 33.5754398,35.319299 33.6463416,35.319299 C33.7370614,35.319299 33.7754665,35.3031738 33.7754665,35.2650148 C33.7754665,35.2312873 33.8096864,35.2108538 33.8659401,35.2108538 C33.9220706,35.2108538 33.9562906,35.1904203 33.9562906,35.1565696 C33.9562906,35.121488 33.9914953,35.1024085 34.0561193,35.1024085 C34.1204971,35.1024085 34.1801974,35.0702812 34.2238955,35.012058 C34.2626699,34.9603588 34.3282786,34.9215844 34.3770236,34.9215844 C34.4288459,34.9215844 34.4623273,34.9002893 34.4623273,34.8674234 C34.4623273,34.8376348 34.4868229,34.8131392 34.5166114,34.8131392 C34.5464,34.8131392 34.5707725,34.795783 34.5707725,34.7744879 C34.5707725,34.7243889 34.6628463,34.6324382 34.7128222,34.6324382 C34.7341174,34.6324382 34.7515966,34.6080657 34.7515966,34.578154 C34.7515966,34.5483654 34.7759691,34.523993 34.8057577,34.523993 C34.8356694,34.523993 34.8600418,34.4996205 34.8600418,34.4697088 C34.8600418,34.4399202 34.8745669,34.4155477 34.8922923,34.4155477 C34.9100177,34.4155477 34.9347595,34.3748038 34.9471919,34.3251972 C34.9596243,34.2754675 34.9858432,34.2347236 35.005292,34.2347236 C35.0248638,34.2347236 35.0407429,34.1859787 35.0407429,34.1262784 C35.0407429,34.0540226 35.0588376,34.0178332 35.095027,34.0178332 C35.1339245,34.0178332 35.1491881,33.978074 35.1491881,33.8762758 C35.1491881,33.7968806 35.1686368,33.7281946 35.1933786,33.7199473 C35.2213208,33.7107153 35.242739,33.6032548 35.2516017,33.4277237 L35.2656344,33.1502714 L34.6109009,33.1502714 L33.9562906,33.1502714 L33.9562906,33.3490671 C33.9562906,33.4584971 33.9400423,33.5478628 33.9201012,33.5478628 C33.9002831,33.5478628 33.8839117,33.5886067 33.8839117,33.6383364 C33.8839117,33.694467 33.8634782,33.7286869 33.8297506,33.7286869 C33.7999621,33.7286869 33.7754665,33.7444429 33.7754665,33.7638916 C33.7754665,33.8074667 33.4599783,34.1262784 33.4168956,34.1262784 C33.3996625,34.1262784 33.3762748,34.150774 33.3648271,34.1805626 C33.352764,34.2119514 33.2986029,34.2347236 33.2361946,34.2347236 C33.1768636,34.2347236 33.11544,34.257619 33.0994379,34.2854381 C33.048108,34.3756655 32.0764092,34.378989 32.0764092,34.2890078 C32.0764092,34.2558957 32.0426816,34.2347236 31.9898746,34.2347236 C31.9423606,34.2347236 31.8939849,34.2103511 31.8825372,34.1805626 C31.8712126,34.150774 31.836131,34.1262784 31.8047422,34.1262784 C31.7733534,34.1262784 31.7099604,34.0856576 31.6638004,34.0359279 C31.6177634,33.9861982 31.5616329,33.9455774 31.5391068,33.9455774 C31.5164576,33.9455774 31.4979936,33.9212049 31.4979936,33.8912932 C31.4979936,33.8615046 31.4736212,33.8371322 31.4438326,33.8371322 C31.410105,33.8371322 31.3895484,33.8029122 31.3895484,33.7467817 C31.3895484,33.697052 31.3733001,33.6563081 31.353359,33.6563081 C31.3335409,33.6563081 31.3172926,33.6075631 31.3172926,33.5478628 C31.3172926,33.475607 31.2991979,33.4394176 31.2630085,33.4394176 C31.2238648,33.4394176 31.2088474,33.3992892 31.2088474,33.294906 C31.2088474,33.1903998 31.1937069,33.1502714 31.1545632,33.1502714 C31.1119729,33.1502714 31.1004022,33.1002955 31.1004022,32.9173788 C31.1004022,32.7893617 31.0840308,32.6745156 31.0642127,32.6622063 C31.0424252,32.6487891 31.0280233,32.4027256 31.0280233,32.0455087 C31.0280233,31.6733976 31.0415636,31.4512141 31.0642127,31.4512141 C31.0840308,31.4512141 31.1004022,31.3634485 31.1004022,31.2562343 C31.1004022,31.1162771 31.1156657,31.0553459 31.1545632,31.0404516 C31.1886601,31.0274037 31.2088474,30.9721348 31.2088474,30.8920011 C31.2088474,30.8217148 31.2218953,30.7643533 31.2380205,30.7643533 C31.2657165,30.7643533 31.3895484,30.5163202 31.3895484,30.4609282 C31.3895484,30.4465263 31.4368163,30.3910112 31.4944239,30.3374656 C31.5521547,30.28392 31.6052079,30.2076021 31.6123473,30.167843 C31.619856,30.1257451 31.6591228,30.0906635 31.7062676,30.0840164 C31.7508273,30.0776156 31.787263,30.0573052 31.787263,30.0387181 C31.787263,30.0202541 31.8116354,30.0051136 31.841424,30.0051136 C31.8712126,30.0051136 31.8957082,29.9807411 31.8957082,29.9509525 C31.8957082,29.9116858 31.9358366,29.8966684 32.0402198,29.8966684 C32.144726,29.8966684 32.1848544,29.881651 32.1848544,29.8425073 C32.1848544,29.7975783 32.2531712,29.7882232 32.582569,29.7882232 C32.9119668,29.7882232 32.9801605,29.7975783 32.9801605,29.8425073 C32.9801605,29.8780813 33.0158575,29.8966684 33.0841743,29.8966684 C33.1414127,29.8966684 33.2084986,29.9210409 33.2332404,29.9509525 C33.2579821,29.9807411 33.3006955,30.0051136 33.3280222,30.0051136 C33.355472,30.0051136 33.377875,30.0213619 33.377875,30.0413031 C33.377875,30.0611211 33.3935079,30.0774925 33.4127104,30.0774925 C33.4492692,30.0774925 33.6670213,30.2776423 33.6670213,30.3112467 C33.6670213,30.3452205 33.8103019,30.475084 33.8478454,30.475084 C33.8676634,30.475084 33.8839117,30.5402003 33.8839117,30.6197186 C33.8839117,30.6992369 33.9002831,30.7643533 33.9201012,30.7643533 C33.9400423,30.7643533 33.9562906,30.8537191 33.9562906,30.963149 L33.9562906,31.1619448 L34.6069619,31.1619448 L35.2576333,31.1619448 L35.2576333,30.8753835 C35.2576333,30.6687098 35.2424928,30.5735586 35.2034722,30.534538 C35.1730682,30.5040109 35.1491881,30.415753 35.1491881,30.3330343 C35.1491881,30.2263123 35.1342938,30.1859377 35.095027,30.1859377 C35.0612994,30.1859377 35.0407429,30.1517178 35.0407429,30.0954641 C35.0407429,30.0458575 35.0244945,30.0051136 35.0046765,30.0051136 C34.9847354,30.0051136 34.9684871,29.9737248 34.9684871,29.9354428 C34.9684871,29.8970377 34.9441146,29.8412764 34.9142029,29.8114878 C34.8844143,29.7816992 34.8600418,29.7312309 34.8600418,29.6993498 C34.8600418,29.6674686 34.8356694,29.6320177 34.8057577,29.62057 C34.7759691,29.6091224 34.7515966,29.5771181 34.7515966,29.5494221 C34.7515966,29.5217261 34.7272241,29.4990769 34.6973125,29.4990769 C34.6675239,29.4990769 34.6431514,29.4815977 34.6431514,29.4603025 C34.6431514,29.4120499 34.5519392,29.3182528 34.5049176,29.3182528 C34.4858381,29.3182528 34.4607271,29.2938803 34.4492794,29.2640917 C34.4378317,29.2341801 34.3873634,29.2098076 34.3370183,29.2098076 C34.2866731,29.2098076 34.2454368,29.1913436 34.2454368,29.1688175 C34.2454368,29.1081325 34.0998174,28.9929171 34.0230072,28.9929171 C33.9863254,28.9929171 33.9562906,28.9766688 33.9562906,28.9567277 C33.9562906,28.9369097 33.9155467,28.9206614 33.8659401,28.9206614 C33.8096864,28.9206614 33.7754665,28.9001048 33.7754665,28.8663772 C33.7754665,28.8247716 33.7293065,28.8122161 33.5766708,28.8122161 C33.424035,28.8122161 33.377875,28.7995375 33.377875,28.757932 C33.377875,28.7114027 33.2678296,28.7036478 32.6044796,28.7036478 C31.9503616,28.7036478 31.8278838,28.7120182 31.8102814,28.757932 M38.5966631,28.757932 C38.5837383,28.7915364 38.5287155,28.8122161 38.4520284,28.8122161 C38.3753412,28.8122161 38.3203185,28.8327727 38.3073937,28.8663772 C38.295946,28.8961658 38.2476935,28.9206614 38.2000563,28.9206614 C38.1525423,28.9206614 38.1136448,28.9350633 38.1136448,28.9527887 C38.1136448,28.9705142 38.0715469,28.9956252 38.0200939,29.00855 C37.9686409,29.0214748 37.8866607,29.0720661 37.8376696,29.1209342 C37.7888015,29.1698023 37.7292243,29.2098076 37.7052211,29.2099307 C37.681341,29.2099307 37.6004687,29.274924 37.5257511,29.3544423 C37.4509103,29.4339605 37.3736077,29.4990769 37.3540359,29.4990769 C37.3343409,29.4990769 37.3183388,29.5234494 37.3183388,29.553238 C37.3183388,29.5830266 37.2976591,29.6075221 37.2725481,29.6075221 C37.247437,29.6075221 37.1986921,29.6725154 37.1642259,29.7520337 C37.1297598,29.831552 37.0853231,29.8966684 37.065382,29.8966684 C37.0454409,29.8966684 37.0290695,29.9210409 37.0290695,29.9509525 C37.0290695,29.9807411 37.004697,30.0051136 36.9749084,30.0051136 C36.9417963,30.0051136 36.9206242,30.0388412 36.9206242,30.0916482 C36.9206242,30.1392853 36.8962518,30.1875379 36.8663401,30.1989856 C36.8365515,30.2104333 36.812179,30.2609016 36.812179,30.3112467 C36.812179,30.3615919 36.7959307,30.4028282 36.7759896,30.4028282 C36.7561715,30.4028282 36.7399232,30.4417257 36.7399232,30.4893628 C36.7399232,30.5368768 36.7154276,30.5851294 36.6856391,30.5965771 C36.6476032,30.6112252 36.631478,30.6705562 36.631478,30.7954959 C36.631478,30.9203125 36.6152297,30.9796435 36.5771938,30.9942916 C36.5337419,31.0109092 36.5229097,31.0904275 36.5229097,31.3927448 C36.5229097,31.6529641 36.5096156,31.7749496 36.479827,31.784797 C36.4186496,31.8052305 36.4168032,32.325546 36.4777344,32.3458564 C36.5102311,32.3566886 36.5229097,32.4720271 36.5229097,32.7556341 C36.5229097,33.0823238 36.5322648,33.1502714 36.5771938,33.1502714 C36.6187994,33.1502714 36.631478,33.1964314 36.631478,33.3490671 C36.631478,33.5017028 36.6440335,33.5478628 36.6856391,33.5478628 C36.7233056,33.5478628 36.7399232,33.5857756 36.7399232,33.6723102 C36.7399232,33.7407501 36.7561715,33.8067281 36.7759896,33.8190374 C36.7959307,33.8313468 36.812179,33.8734447 36.812179,33.9127115 C36.812179,33.9518552 36.8365515,33.9933376 36.8663401,34.0047853 C36.8962518,34.016233 36.9206242,34.0537764 36.9206242,34.0881195 C36.9206242,34.1225856 36.9857406,34.2190908 37.0652589,34.3026711 C37.1447772,34.3863746 37.2098936,34.4830029 37.2098936,34.517469 C37.2098936,34.5804928 37.3274477,34.704694 37.387148,34.704694 C37.4046272,34.704694 37.4283842,34.7291895 37.4398319,34.7589781 C37.4512796,34.7887667 37.4936237,34.8131392 37.5339983,34.8131392 C37.5752346,34.8131392 37.607485,34.8370193 37.607485,34.8674234 C37.607485,34.8972119 37.6318575,34.9215844 37.6617692,34.9215844 C37.6915578,34.9215844 37.7159303,34.94608 37.7159303,34.9758686 C37.7159303,35.0056572 37.7403027,35.0300297 37.7702144,35.0300297 C37.800003,35.0300297 37.8243755,35.0464011 37.8243755,35.0662191 C37.8243755,35.0861602 37.8651194,35.1024085 37.914726,35.1024085 C37.9709796,35.1024085 38.0051996,35.122842 38.0051996,35.1565696 C38.0051996,35.192759 38.0412659,35.2108538 38.1136448,35.2108538 C38.1859006,35.2108538 38.22209,35.2289485 38.22209,35.2650148 C38.22209,35.3040354 38.2618492,35.319299 38.3636474,35.319299 C38.4430426,35.319299 38.5117287,35.3387477 38.5199759,35.3634895 C38.529331,35.3916779 38.6382686,35.4124806 38.8211853,35.4212203 C38.9787448,35.428729 39.1232563,35.4495317 39.1420896,35.4673803 C39.1868956,35.5099706 39.8488915,35.5099706 39.8488915,35.4675034 C39.8488915,35.4495317 39.9979576,35.4292213 40.1802588,35.4223281 C40.4036732,35.4138347 40.5165498,35.3950014 40.5266434,35.3644742 C40.5356292,35.3373937 40.6057924,35.319299 40.701436,35.319299 C40.8192363,35.319299 40.861088,35.3051433 40.861088,35.2650148 C40.861088,35.2320258 40.8946925,35.2108538 40.9470072,35.2108538 C40.994275,35.2108538 41.0532367,35.1864813 41.0779785,35.1565696 C41.1027202,35.126781 41.152573,35.1024085 41.1887625,35.1024085 C41.2248288,35.1024085 41.2644649,35.0861602 41.2767742,35.0662191 C41.2890835,35.0464011 41.3306891,35.0300297 41.3693404,35.0300297 C41.4078686,35.0300297 41.4395036,35.0056572 41.4395036,34.9758686 C41.4395036,34.94608 41.4621528,34.9215844 41.4898488,34.9215844 C41.5175448,34.9215844 41.549549,34.8972119 41.5609967,34.8674234 C41.5724444,34.8376348 41.6149116,34.8131392 41.6552862,34.8131392 C41.6963994,34.8131392 41.7286498,34.7893822 41.7286498,34.7589781 C41.7286498,34.7291895 41.7530223,34.704694 41.782934,34.704694 C41.8161692,34.704694 41.8370951,34.6708433 41.8370951,34.6169284 C41.8370951,34.5686758 41.8127226,34.5047904 41.782934,34.4748787 C41.7530223,34.4450901 41.7286498,34.4032384 41.7286498,34.3819433 C41.7286498,34.3606481 41.7124015,34.3431689 41.6925835,34.3431689 C41.6726424,34.3431689 41.656394,34.3034097 41.656394,34.2546647 C41.656394,34.2059198 41.6360836,34.1531128 41.6112188,34.1371106 C41.5662897,34.1084299 41.4976036,34.0116785 41.450582,33.9109882 C41.3725408,33.7437043 41.2067341,33.6698483 41.1632821,33.782848 C41.1518345,33.8127597 41.1215535,33.8371322 41.0960732,33.8371322 C41.0704698,33.8371322 41.0401888,33.8615046 41.0287411,33.8912932 C41.0172935,33.9212049 40.9748263,33.9455774 40.9344516,33.9455774 C40.894077,33.9455774 40.861088,33.9615795 40.861088,33.9810283 C40.861088,34.000477 40.8203441,34.0266959 40.7707375,34.0391283 C40.7210078,34.0516838 40.6802639,34.0763025 40.6802639,34.094151 C40.6802639,34.1118765 40.6391507,34.1262784 40.5888056,34.1262784 C40.5384604,34.1262784 40.487869,34.150774 40.4764213,34.1805626 C40.4628811,34.2158903 40.4066274,34.2347236 40.3149229,34.2347236 C40.2168175,34.2347236 40.1742272,34.2504796 40.1742272,34.2865459 C40.1742272,34.3272898 40.0984017,34.3408301 39.8216879,34.3498159 C39.2505348,34.368403 38.9812066,34.3483388 38.9812066,34.2874076 C38.9812066,34.2534338 38.9440324,34.2347236 38.8765773,34.2347236 C38.8170001,34.2347236 38.7630852,34.211459 38.7512683,34.1805626 C38.7398206,34.150774 38.7068316,34.1262784 38.6779047,34.1262784 C38.620297,34.1262784 38.4027911,33.9240361 38.4027911,33.8704905 C38.4027911,33.8521496 38.3784186,33.8371322 38.34863,33.8371322 C38.3187183,33.8371322 38.2943458,33.8127597 38.2943458,33.782848 C38.2943458,33.7530594 38.2699734,33.7286869 38.2401848,33.7286869 C38.2063341,33.7286869 38.1859006,33.694467 38.1859006,33.6383364 C38.1859006,33.5886067 38.1696523,33.5478628 38.1497112,33.5478628 C38.1298931,33.5478628 38.1136448,33.5067497 38.1136448,33.4564045 C38.1136448,33.4060593 38.0891492,33.355468 38.0593607,33.3440203 C38.0257562,33.3312186 38.0051996,33.2761958 38.0051996,33.1995087 C38.0051996,33.1228216 37.9845199,33.0677988 37.9509154,33.054874 C37.9090637,33.0387488 37.8967544,32.9689549 37.8967544,32.7487409 L37.8967544,32.4634106 L39.9319795,32.4634106 C41.4668303,32.4634106 41.9779138,32.4527014 42.0106566,32.4199586 C42.0799582,32.3506571 42.0702338,31.5274089 41.9998244,31.5003283 C41.9562494,31.4837107 41.9455403,31.4024691 41.9455403,31.08575 C41.9455403,30.7597988 41.9361852,30.6919744 41.8913792,30.6919744 C41.8498968,30.6919744 41.8370951,30.6461837 41.8370951,30.4969946 C41.8370951,30.3570375 41.8218315,30.2962293 41.782934,30.281212 C41.7530223,30.2697643 41.7286498,30.219296 41.7286498,30.1689508 C41.7286498,30.1186057 41.7124015,30.0774925 41.6925835,30.0774925 C41.6726424,30.0774925 41.656394,30.0379795 41.656394,29.9896039 C41.656394,29.9413513 41.6320216,29.8774658 41.6021099,29.8476772 C41.5723213,29.8177656 41.5479488,29.7759138 41.5479488,29.7546187 C41.5479488,29.7333235 41.5275153,29.7159674 41.5025274,29.7159674 C41.4775394,29.7159674 41.4351953,29.6630372 41.4084841,29.5984132 C41.3555539,29.4707655 40.9835659,29.1013624 40.9077404,29.1013624 C40.882137,29.1013624 40.861088,29.086345 40.861088,29.0681272 C40.861088,29.0497863 40.81222,29.0240597 40.7526428,29.0110119 C40.6929425,28.9978409 40.6441976,28.9722375 40.6441976,28.9538966 C40.6441976,28.9355556 40.6034537,28.9206614 40.553724,28.9206614 C40.4975934,28.9206614 40.4633735,28.9001048 40.4633735,28.8663772 C40.4633735,28.8253871 40.4190599,28.8122161 40.2815646,28.8122161 C40.1531783,28.8122161 40.093478,28.796214 40.0788299,28.757932 C40.0612275,28.7122643 39.9446581,28.7036478 39.3376849,28.7036478 C38.7308348,28.7036478 38.6141423,28.7122643 38.5966631,28.757932 M45.1991433,28.757932 C45.1991433,28.798922 45.1548297,28.8122161 45.0172113,28.8122161 C44.8889481,28.8122161 44.8292478,28.8280952 44.8145997,28.8663772 C44.803152,28.8961658 44.7547763,28.9206614 44.7072623,28.9206614 C44.6596252,28.9206614 44.6207277,28.9355556 44.6207277,28.9538966 C44.6207277,28.9722375 44.5719827,28.9978409 44.5122825,29.0110119 C44.4525822,29.0240597 44.4038372,29.0497863 44.4038372,29.0681272 C44.4038372,29.086345 44.3794648,29.1013624 44.3495531,29.1013624 C44.3197645,29.1013624 44.295392,29.1257348 44.295392,29.1556465 C44.295392,29.1893741 44.2612952,29.2098076 44.2050415,29.2098076 C44.1487878,29.2098076 44.1145679,29.2303642 44.1145679,29.2640917 C44.1145679,29.2938803 44.0901954,29.3182528 44.0604068,29.3182528 C44.0306182,29.3182528 44.0061227,29.3327778 44.0061227,29.3506264 C44.0061227,29.3684749 43.9657481,29.4212819 43.9163876,29.4680574 C43.8670272,29.514956 43.8264064,29.5897967 43.8260371,29.6346027 C43.8256678,29.682486 43.8031418,29.7159674 43.7711375,29.7159674 C43.7413489,29.7159674 43.7169764,29.7383704 43.7169764,29.7656971 C43.7169764,29.7931469 43.692604,29.8357372 43.6626923,29.8604789 C43.6329037,29.8853438 43.6085312,29.9523066 43.6085312,30.009545 C43.6085312,30.0667834 43.5922829,30.1135588 43.5723418,30.1135588 C43.5499388,30.1135588 43.5362754,30.3124777 43.5362754,30.6378133 C43.5362754,30.963149 43.5499388,31.1619448 43.5723418,31.1619448 C43.5922829,31.1619448 43.6085312,31.2095819 43.6085312,31.267805 C43.6085312,31.3260282 43.6329037,31.3981609 43.6626923,31.4279495 C43.692604,31.457738 43.7169764,31.4995898 43.7169764,31.5208849 C43.7169764,31.5421801 43.7413489,31.5596593 43.7711375,31.5596593 C43.8010492,31.5596593 43.8254217,31.5771386 43.8254217,31.5985568 C43.8254217,31.6491482 44.025079,31.8488056 44.0756704,31.8488056 C44.0970886,31.8488056 44.1145679,31.873178 44.1145679,31.9030897 C44.1145679,31.9328783 44.1373402,31.9572508 44.1650362,31.9572508 C44.1927322,31.9572508 44.2247364,31.9816233 44.2361841,32.0115349 C44.2476318,32.0413235 44.2882526,32.065696 44.3265346,32.065696 C44.3648166,32.065696 44.4054374,32.0901916 44.4168851,32.1199802 C44.4283328,32.1497688 44.4789242,32.1741412 44.5292693,32.1741412 C44.5796145,32.1741412 44.6207277,32.1903896 44.6207277,32.2103307 C44.6207277,32.2302718 44.6596252,32.2465201 44.7072623,32.2465201 C44.7547763,32.2465201 44.803152,32.2708926 44.8145997,32.3006812 C44.8274014,32.3342857 44.8824241,32.3549653 44.9591113,32.3549653 C45.0357984,32.3549653 45.0908211,32.3755219 45.1037459,32.4091264 C45.1166707,32.4427309 45.1716934,32.4634106 45.2481344,32.4634106 C45.3160819,32.4634106 45.4182494,32.48766 45.4752416,32.5174485 C45.5321107,32.547114 45.6305854,32.5714865 45.6941015,32.5716096 C45.7574946,32.5717327 45.8195337,32.5881041 45.831843,32.6080452 C45.8440292,32.6278633 45.9244092,32.6441116 46.0102052,32.6441116 C46.104864,32.6441116 46.1841361,32.6655298 46.2113397,32.6983957 C46.2360815,32.7281843 46.3043983,32.7525568 46.3629907,32.7525568 C46.4215831,32.7525568 46.493962,32.7770524 46.5238737,32.806841 C46.5536623,32.8366296 46.6175477,32.861002 46.6658003,32.861002 C46.714176,32.861002 46.753689,32.8773734 46.753689,32.8971915 C46.753689,32.9171326 46.7780614,32.9333809 46.80785,32.9333809 C46.8376386,32.9333809 46.8621342,32.9577534 46.8621342,32.987542 C46.8621342,33.0174537 46.8865067,33.0418261 46.9162953,33.0418261 C46.9460838,33.0418261 46.9705794,33.0661986 46.9705794,33.0959872 C46.9705794,33.1258989 46.9949519,33.1502714 47.0247405,33.1502714 C47.0545291,33.1502714 47.0790246,33.1746438 47.0790246,33.2044324 C47.0790246,33.2343441 47.095273,33.2587166 47.115091,33.2587166 C47.1350321,33.2587166 47.1512804,33.3162012 47.1512804,33.3863644 C47.1512804,33.4664981 47.1714677,33.521767 47.2055646,33.5348149 C47.2353532,33.5462626 47.2597256,33.5713737 47.2597256,33.5904531 C47.2597256,33.6096557 47.2353532,33.6497841 47.2055646,33.6795727 C47.1756529,33.7094844 47.1512804,33.7744777 47.1512804,33.8242074 C47.1512804,33.917389 47.0775475,34.0178332 47.0092307,34.0178332 C46.9879356,34.0178332 46.9705794,34.0423288 46.9705794,34.0721173 C46.9705794,34.1058449 46.9363595,34.1262784 46.8801058,34.1262784 C46.8239753,34.1262784 46.7897553,34.146835 46.7897553,34.1805626 C46.7897553,34.216752 46.753689,34.2347236 46.6813101,34.2347236 C46.6090543,34.2347236 46.5728649,34.2528183 46.5728649,34.2890078 C46.5728649,34.3347985 46.4885459,34.3431689 46.0306387,34.3431689 C45.5727315,34.3431689 45.4884126,34.3347985 45.4884126,34.2890078 C45.4884126,34.2533107 45.4525924,34.2347236 45.3837833,34.2347236 C45.3242061,34.2347236 45.2702912,34.211459 45.2583511,34.1805626 C45.2469035,34.150774 45.2045594,34.1262784 45.1641847,34.1262784 C45.123687,34.1262784 45.090698,34.1100301 45.090698,34.0902121 C45.090698,34.0702709 45.0697722,34.0540226 45.0442918,34.0540226 C45.0186884,34.0540226 44.9689587,34.0052777 44.933754,33.9455774 C44.8985493,33.8858771 44.8543588,33.8371322 44.8356486,33.8371322 C44.8168154,33.8371322 44.8015518,33.8127597 44.8015518,33.782848 C44.8015518,33.7530594 44.7770562,33.7286869 44.7472676,33.7286869 C44.7064006,33.7286869 44.6929835,33.6847426 44.6929835,33.5500785 C44.6929835,33.45185 44.6757504,33.360761 44.6547014,33.3477131 C44.6335294,33.3346652 44.601402,33.2849355 44.5833073,33.2371753 C44.540717,33.1252834 43.4842069,33.0989414 43.376131,33.2070174 C43.295628,33.2875204 43.2932892,33.8371322 43.373546,33.8371322 C43.4126897,33.8371322 43.4277071,33.8772606 43.4277071,33.9817668 C43.4277071,34.08615 43.4428476,34.1262784 43.4819913,34.1262784 C43.5181807,34.1262784 43.5362754,34.1624678 43.5362754,34.2347236 C43.5362754,34.2944239 43.5525237,34.3431689 43.5723418,34.3431689 C43.5922829,34.3431689 43.6085312,34.376281 43.6085312,34.4166556 C43.6085312,34.4570302 43.6329037,34.4994974 43.6626923,34.5109451 C43.692604,34.5223927 43.7169764,34.554397 43.7169764,34.582093 C43.7169764,34.609789 43.7338402,34.6324382 43.7543968,34.6324382 C43.8011723,34.6324382 44.0061227,34.8394812 44.0061227,34.886749 C44.0061227,34.9059516 44.0306182,34.9215844 44.0604068,34.9215844 C44.0901954,34.9215844 44.1145679,34.9361094 44.1145679,34.9538349 C44.1145679,34.9715603 44.1553118,34.9963021 44.2050415,35.0087345 C44.2547712,35.02129 44.295392,35.0473858 44.295392,35.0669577 C44.295392,35.0864064 44.3209954,35.1024085 44.352138,35.1024085 C44.3834037,35.1024085 44.4333796,35.126781 44.4631682,35.1565696 C44.4930799,35.1864813 44.5569653,35.2108538 44.6052179,35.2108538 C44.6591328,35.2108538 44.6929835,35.2317796 44.6929835,35.2650148 C44.6929835,35.3034199 44.7327426,35.3196683 44.8286323,35.3204068 C44.9032269,35.3210223 44.9957931,35.3455179 45.0343213,35.374691 C45.080112,35.4092802 45.1901574,35.4277442 45.3506711,35.4277442 C45.4906283,35.4277442 45.5968578,35.4433771 45.5968578,35.4639337 C45.5968578,35.5096013 46.4001649,35.5130479 46.4481713,35.4675034 C46.4670046,35.4496548 46.603392,35.4286059 46.751104,35.420851 C46.9175262,35.4119883 47.0253559,35.3899546 47.0343418,35.362874 C47.0423428,35.3389939 47.1049973,35.319299 47.1735603,35.319299 C47.250986,35.319299 47.3060087,35.2987424 47.3189335,35.2650148 C47.3308736,35.2341184 47.3847885,35.2108538 47.4443656,35.2108538 C47.5131748,35.2108538 47.548995,35.1922667 47.548995,35.1565696 C47.548995,35.122842 47.5830918,35.1024085 47.6393455,35.1024085 C47.6890752,35.1024085 47.729696,35.0861602 47.729696,35.0662191 C47.729696,35.0464011 47.7540685,35.0300297 47.7839802,35.0300297 C47.8137687,35.0300297 47.8381412,35.0056572 47.8381412,34.9758686 C47.8381412,34.94608 47.8625137,34.9215844 47.8924254,34.9215844 C47.922214,34.9215844 47.9465864,34.8972119 47.9465864,34.8674234 C47.9465864,34.8376348 47.9709589,34.8131392 48.0008706,34.8131392 C48.0306592,34.8131392 48.0550317,34.7887667 48.0550317,34.7589781 C48.0550317,34.7291895 48.0725109,34.704694 48.0938061,34.704694 C48.143782,34.704694 48.2358558,34.6127433 48.2358558,34.5627674 C48.2358558,34.5413491 48.2602283,34.523993 48.2900168,34.523993 C48.323129,34.523993 48.344301,34.4902654 48.344301,34.4374583 C48.344301,34.3899443 48.3686735,34.3415686 48.3984621,34.330121 C48.4283738,34.3186733 48.4527462,34.268205 48.4527462,34.2178598 C48.4527462,34.1675147 48.4689946,34.1262784 48.4888126,34.1262784 C48.5114618,34.1262784 48.525002,33.9040949 48.525002,33.5319838 C48.525002,33.1747669 48.5106001,32.9287034 48.4888126,32.9152862 C48.4689946,32.9029769 48.4527462,32.8486927 48.4527462,32.7946547 C48.4527462,32.7009807 48.3477476,32.5718558 48.2715528,32.5718558 C48.2518579,32.5718558 48.2358558,32.5384975 48.2358558,32.4977536 C48.2358558,32.4202048 48.0694336,32.2495974 47.9917617,32.247628 C47.9668968,32.2470125 47.9465864,32.2302718 47.9465864,32.2103307 C47.9465864,32.1903896 47.922214,32.1741412 47.8924254,32.1741412 C47.8625137,32.1741412 47.8381412,32.1497688 47.8381412,32.1199802 C47.8381412,32.0862526 47.8040444,32.065696 47.7477907,32.065696 C47.6915371,32.065696 47.6574402,32.0452625 47.6574402,32.0115349 C47.6574402,31.9753455 47.6212508,31.9572508 47.548995,31.9572508 C47.4892947,31.9572508 47.4405498,31.9413717 47.4405498,31.9217999 C47.4405498,31.9023512 47.3998059,31.8761323 47.3500762,31.8636998 C47.3004695,31.8511443 47.2597256,31.8265257 47.2597256,31.8088002 C47.2597256,31.7910748 47.1947324,31.7765498 47.115091,31.7765498 C47.0107078,31.7765498 46.9705794,31.7614093 46.9705794,31.7222656 C46.9705794,31.6833681 46.9308203,31.6681045 46.8297606,31.6681045 C46.7380561,31.6681045 46.6818025,31.6491482 46.6682622,31.6138204 C46.6536141,31.5755384 46.5939138,31.5596593 46.4655275,31.5596593 C46.3655757,31.5596593 46.2837186,31.543411 46.2837186,31.5234699 C46.2837186,31.5035288 46.1959531,31.4872804 46.0887388,31.4872804 C45.9487817,31.4872804 45.8878505,31.4720169 45.8729562,31.4331194 C45.8586773,31.3958221 45.8004542,31.3788352 45.6872083,31.3788352 C45.5739625,31.3788352 45.5157393,31.3618483 45.5014605,31.3246741 C45.4900128,31.2947625 45.4411447,31.27039 45.3930153,31.27039 C45.3447627,31.27039 45.2960177,31.2460175 45.28457,31.2162289 C45.2731223,31.1863172 45.2247467,31.1619448 45.1772326,31.1619448 C45.1164245,31.1619448 45.090698,31.1416344 45.090698,31.0935049 C45.090698,31.0558383 45.0663255,31.0157099 45.0364139,31.0042622 C45.0066253,30.9928145 44.9822528,30.9585946 44.9822528,30.9280674 C44.9822528,30.8976634 44.9660045,30.8727985 44.9460634,30.8727985 C44.9250144,30.8727985 44.909997,30.7522901 44.909997,30.5835292 C44.909997,30.4148913 44.9250144,30.2943829 44.9460634,30.2943829 C44.9660045,30.2943829 44.9822528,30.2698874 44.9822528,30.2400988 C44.9822528,30.2103102 45.0066253,30.1859377 45.0364139,30.1859377 C45.0663255,30.1859377 45.090698,30.1650119 45.090698,30.1394084 C45.090698,30.1139281 45.139443,30.0641984 45.1991433,30.0289937 C45.2588435,29.9936659 45.3075885,29.9495985 45.3075885,29.9307652 C45.3075885,29.9120551 45.3462398,29.8966684 45.3935076,29.8966684 C45.4407755,29.8966684 45.4997372,29.8722959 45.5244789,29.8425073 C45.5596836,29.8000401 45.6592661,29.7882232 45.9807859,29.7882232 C46.3223699,29.7882232 46.3921638,29.7974552 46.3921638,29.8425073 C46.3921638,29.8754963 46.4258914,29.8966684 46.4785754,29.8966684 C46.5262125,29.8966684 46.5744651,29.9210409 46.5859127,29.9509525 C46.5973604,29.9807411 46.6398276,30.0051136 46.6802022,30.0051136 C46.7205769,30.0051136 46.753689,30.0213619 46.753689,30.0413031 C46.753689,30.0611211 46.7780614,30.0774925 46.80785,30.0774925 C46.8376386,30.0774925 46.8621342,30.101865 46.8621342,30.1316536 C46.8621342,30.1614421 46.8865067,30.1859377 46.9162953,30.1859377 C46.9500228,30.1859377 46.9705794,30.2200346 46.9705794,30.2762882 C46.9705794,30.3325419 46.9910129,30.3666387 47.0247405,30.3666387 C47.0609299,30.3666387 47.0790246,30.4028282 47.0790246,30.475084 C47.0790246,30.5347842 47.095273,30.5835292 47.115091,30.5835292 C47.1350321,30.5835292 47.1512804,30.6486456 47.1512804,30.7281639 L47.1512804,30.8727985 L47.8019518,30.8727985 L48.4527462,30.8727985 L48.4527462,30.4931787 C48.4527462,30.1799061 48.443268,30.1135588 48.3984621,30.1135588 C48.3605493,30.1135588 48.344301,30.0752768 48.344301,29.9859111 C48.344301,29.9057773 48.3241137,29.8505084 48.2900168,29.8374605 C48.2602283,29.8260128 48.2358558,29.7940085 48.2358558,29.7663125 C48.2358558,29.7386165 48.2213308,29.7159674 48.2036053,29.7159674 C48.1858799,29.7159674 48.1606458,29.6731309 48.1474748,29.6209393 C48.1221175,29.5197566 47.942032,29.3182528 47.8770387,29.3182528 C47.8556205,29.3182528 47.8381412,29.2938803 47.8381412,29.2640917 C47.8381412,29.2336877 47.8058908,29.2098076 47.7647776,29.2098076 C47.7242799,29.2098076 47.6819358,29.1854351 47.6704881,29.1556465 C47.6590404,29.1257348 47.6270362,29.1013624 47.5993402,29.1013624 C47.5716442,29.1013624 47.548995,29.0853602 47.548995,29.0659115 C47.548995,29.0463396 47.5082511,29.0202439 47.4585214,29.0078114 C47.4089148,28.9952559 47.3681709,28.9705142 47.3681709,28.9527887 C47.3681709,28.9350633 47.3194259,28.9206614 47.2597256,28.9206614 C47.1874699,28.9206614 47.1512804,28.9025666 47.1512804,28.8663772 C47.1512804,28.8247716 47.1051204,28.8122161 46.9524847,28.8122161 C46.799849,28.8122161 46.753689,28.7995375 46.753689,28.757932 C46.753689,28.7114027 46.6431511,28.7036478 45.9763546,28.7036478 C45.309558,28.7036478 45.1991433,28.7114027 45.1991433,28.757932 M19.4115824,28.8362193 C19.3661609,28.8817639 19.3874561,28.9929171 19.4417402,28.9929171 C19.481007,28.9929171 19.4959013,29.0331687 19.4959013,29.1386596 C19.4959013,29.2347955 19.5143653,29.2914185 19.5501855,29.3052049 C19.5836668,29.3180066 19.6044696,29.3730293 19.6044696,29.4486087 C19.6044696,29.5161869 19.6207179,29.5713327 19.640536,29.5713327 C19.6604771,29.5713327 19.6767254,29.6200777 19.6767254,29.6797779 C19.6767254,29.7520337 19.6948201,29.7882232 19.7308865,29.7882232 C19.7701532,29.7882232 19.7851706,29.8283516 19.7851706,29.9328578 C19.7851706,30.037241 19.800188,30.0774925 19.8393317,30.0774925 C19.8785985,30.0774925 19.8936159,30.1176209 19.8936159,30.2220041 C19.8936159,30.3265103 19.9086332,30.3666387 19.9479,30.3666387 C19.9839664,30.3666387 20.0020611,30.4028282 20.0020611,30.475084 C20.0020611,30.5347842 20.0183094,30.5835292 20.0382505,30.5835292 C20.0580685,30.5835292 20.0743169,30.6486456 20.0743169,30.7281639 C20.0743169,30.832547 20.0894573,30.8727985 20.128601,30.8727985 C20.1677447,30.8727985 20.1828852,30.9129269 20.1828852,31.0173101 C20.1828852,31.1218163 20.1979026,31.1619448 20.2370463,31.1619448 C20.2729895,31.1619448 20.2913304,31.197888 20.2913304,31.2682974 C20.2913304,31.3267667 20.3075787,31.3846206 20.3273968,31.3969299 C20.3473379,31.4092393 20.3635862,31.4675855 20.3635862,31.5267934 C20.3635862,31.5889555 20.3864816,31.6429935 20.4177473,31.6550566 C20.4513517,31.6678584 20.4720314,31.7228811 20.4720314,31.7995682 C20.4720314,31.8762554 20.4927111,31.9312781 20.5263156,31.9442029 C20.5563504,31.9557737 20.5804767,32.0094424 20.5804767,32.0652036 C20.5804767,32.1202264 20.6048491,32.1855889 20.6347608,32.2103307 C20.6645494,32.2350724 20.6889219,32.3021583 20.6889219,32.3593967 C20.6889219,32.4166351 20.7051702,32.4634106 20.7251113,32.4634106 C20.7449293,32.4634106 20.7611777,32.5208952 20.7611777,32.5910584 C20.7611777,32.6711921 20.7814881,32.726461 20.8154618,32.7395089 C20.8456197,32.7510797 20.869746,32.8047484 20.869746,32.8605097 C20.869746,32.9155324 20.8941185,32.9808949 20.9239071,33.0056367 C20.9536956,33.0303785 20.9781912,33.0974643 20.9781912,33.1547027 C20.9781912,33.2119411 20.9929624,33.2587166 21.0110571,33.2587166 C21.0292749,33.2587166 21.0551245,33.323833 21.0685417,33.4033513 C21.0819589,33.4828696 21.1078085,33.5478628 21.1259032,33.5478628 C21.1439979,33.5478628 21.1588922,33.5947614 21.1588922,33.6518767 C21.1588922,33.7091151 21.1832647,33.776201 21.2131764,33.8009427 C21.242965,33.8256845 21.2673374,33.8846462 21.2673374,33.931914 C21.2673374,33.9842287 21.2886326,34.0178332 21.3216216,34.0178332 C21.3606422,34.0178332 21.3757827,34.0578385 21.3757827,34.1603753 C21.3757827,34.2386626 21.392031,34.3128879 21.4119721,34.3251972 C21.4317901,34.3373835 21.4481616,34.3860053 21.4481616,34.4331501 C21.4481616,34.4802948 21.472534,34.5431955 21.5023226,34.5729841 C21.5321112,34.6028958 21.5566068,34.66912 21.5566068,34.7202037 C21.5566068,34.7787962 21.576671,34.8131392 21.6107678,34.8131392 C21.6499115,34.8131392 21.665052,34.8533907 21.665052,34.9577739 C21.665052,35.0622801 21.6800694,35.1024085 21.7192131,35.1024085 C21.7554025,35.1024085 21.7734972,35.138598 21.7734972,35.2108538 L21.7734972,35.319299 L22.2946744,35.319299 C22.9094025,35.319299 22.9303284,35.314006 22.9303284,35.1565696 C22.9303284,35.0843138 22.9515004,35.0296604 22.9844894,35.0169818 C23.0203096,35.0033184 23.0387736,34.9466955 23.0387736,34.8504365 C23.0387736,34.7450686 23.0536679,34.704694 23.0929347,34.704694 C23.1306012,34.704694 23.1472188,34.6667812 23.1472188,34.5803697 C23.1472188,34.5119298 23.1634672,34.4459518 23.1832852,34.4336425 C23.2032263,34.4213331 23.2194746,34.3733267 23.2194746,34.3269205 C23.2194746,34.2805143 23.2438471,34.2331234 23.2737588,34.2216757 C23.3073633,34.2087509 23.3279198,34.1537282 23.3279198,34.0770411 C23.3279198,34.0003539 23.3485995,33.9453312 23.382204,33.9325295 C23.4179011,33.918743 23.4363651,33.8621201 23.4363651,33.7659842 C23.4363651,33.6604932 23.4513825,33.6202417 23.4906492,33.6202417 C23.5240075,33.6202417 23.5448103,33.586268 23.5448103,33.5319838 C23.5448103,33.483485 23.5610586,33.4336322 23.5809997,33.4213229 C23.6008178,33.4091366 23.6171892,33.3447588 23.6171892,33.2785346 C23.6171892,33.2046786 23.638115,33.1499021 23.6713502,33.1372235 C23.7049547,33.1242987 23.7256344,33.069276 23.7256344,32.9925888 C23.7256344,32.9159017 23.746191,32.8608789 23.7797955,32.8479541 C23.8138923,32.8349062 23.8340796,32.7796373 23.8340796,32.6995036 C23.8340796,32.6293404 23.8503279,32.5718558 23.870146,32.5718558 C23.8900871,32.5718558 23.9063354,32.5248341 23.9063354,32.4672265 C23.9063354,32.4076493 23.9297231,32.3537344 23.9606196,32.3419174 C23.9945933,32.3287465 24.0147806,32.2734776 24.0147806,32.1933438 C24.0147806,32.103978 24.031029,32.065696 24.0690648,32.065696 C24.1079623,32.065696 24.1232259,32.0259369 24.1232259,31.9250003 C24.1232259,31.8332958 24.1421822,31.7770421 24.17751,31.7635019 C24.2072986,31.7520542 24.2316711,31.7024476 24.2316711,31.6532102 C24.2316711,31.604096 24.2479194,31.5538739 24.2678605,31.5415646 C24.2878017,31.5292553 24.30405,31.4632772 24.30405,31.3948373 C24.30405,31.3083027 24.3205445,31.27039 24.358211,31.27039 C24.3973547,31.27039 24.4124952,31.2302616 24.4124952,31.1257553 C24.4124952,31.0213722 24.4275126,30.9812437 24.4666563,30.9812437 C24.5048152,30.9812437 24.5209404,30.9427155 24.5209404,30.8521188 C24.5209404,30.781094 24.5453129,30.6986215 24.5751015,30.6687098 C24.6050132,30.6389212 24.6293857,30.5831599 24.6293857,30.5447548 C24.6293857,30.5064728 24.645634,30.475084 24.6655751,30.475084 C24.6853931,30.475084 24.7016414,30.4099676 24.7016414,30.3304493 C24.7016414,30.2260661 24.7167819,30.1859377 24.7559256,30.1859377 C24.7950693,30.1859377 24.8100867,30.1456862 24.8100867,30.0413031 C24.8100867,29.9367968 24.8252271,29.8966684 24.8643708,29.8966684 C24.9003141,29.8966684 24.9185319,29.8607251 24.9185319,29.7903157 C24.9185319,29.7318464 24.9349033,29.6739925 24.9547213,29.6616832 C24.9746625,29.6493739 24.9909108,29.5833959 24.9909108,29.514956 C24.9909108,29.4285444 25.0074053,29.3906317 25.0450718,29.3906317 C25.0842155,29.3906317 25.099356,29.3503802 25.099356,29.245997 C25.099356,29.1414908 25.1143734,29.1013624 25.1535171,29.1013624 C25.1926607,29.1013624 25.2078012,29.0612339 25.2078012,28.9567277 L25.2078012,28.8122161 L24.5209404,28.8122161 L23.8340796,28.8122161 L23.8340796,28.9036745 C23.8340796,28.9540196 23.8097071,29.0044879 23.7797955,29.0159356 C23.7444677,29.0295989 23.7256344,29.0857295 23.7256344,29.1775571 C23.7256344,29.2784937 23.7102477,29.3182528 23.6713502,29.3182528 C23.6322066,29.3182528 23.6171892,29.3583812 23.6171892,29.4628875 C23.6171892,29.5424058 23.6008178,29.6075221 23.5809997,29.6075221 C23.5610586,29.6075221 23.5448103,29.6725154 23.5448103,29.7520337 C23.5448103,29.85654 23.5297929,29.8966684 23.4906492,29.8966684 C23.4515056,29.8966684 23.4363651,29.9367968 23.4363651,30.0413031 C23.4363651,30.1456862 23.4213477,30.1859377 23.382204,30.1859377 C23.3440451,30.1859377 23.3279198,30.2243428 23.3279198,30.3149395 C23.3279198,30.3859644 23.3035474,30.46856 23.2737588,30.4983486 C23.2438471,30.5281372 23.2194746,30.608394 23.2194746,30.6764647 C23.2194746,30.7446584 23.2032263,30.8004196 23.1832852,30.8004196 C23.1634672,30.8004196 23.1472188,30.865536 23.1472188,30.9450543 C23.1472188,31.0494375 23.1320784,31.089689 23.0929347,31.089689 C23.0540372,31.089689 23.0387736,31.1294481 23.0387736,31.2303847 C23.0387736,31.3220892 23.0198172,31.3783428 22.9844894,31.3918831 C22.9505157,31.4050541 22.9303284,31.460323 22.9303284,31.5404568 C22.9303284,31.61062 22.913957,31.6681045 22.8941389,31.6681045 C22.8741978,31.6681045 22.8579495,31.7313745 22.8579495,31.8088002 C22.8579495,31.9005048 22.8391162,31.9567584 22.8037884,31.9702987 C22.7683376,31.983962 22.7495043,32.0402157 22.7495043,32.1330281 C22.7495043,32.2258404 22.7307941,32.2820941 22.6953432,32.2957574 C22.6617387,32.3085592 22.641059,32.3635819 22.641059,32.4397766 C22.641059,32.507478 22.6166866,32.5831804 22.586898,32.6080452 C22.5569863,32.632787 22.5326138,32.7070123 22.5326138,32.7729903 C22.5326138,32.8389683 22.5163655,32.9029769 22.4964244,32.9152862 C22.4766064,32.9275955 22.460358,32.9882805 22.460358,33.0500734 C22.460358,33.178829 22.3695152,33.2993374 22.2943051,33.2705336 C22.2626701,33.2583473 22.2434676,33.1977854 22.2434676,33.110266 C22.2434676,33.0092064 22.2280809,32.9694473 22.1891834,32.9694473 C22.1500397,32.9694473 22.1350224,32.9293188 22.1350224,32.8249357 C22.1350224,32.7454174 22.1186509,32.680301 22.0988329,32.680301 C22.0788918,32.680301 22.0626435,32.6346334 22.0626435,32.578749 C22.0626435,32.5228646 22.0387634,32.4456851 22.0095902,32.4070338 C21.9804171,32.3683825 21.9560446,32.2834481 21.9553061,32.2182086 C21.9546906,32.1469376 21.9325338,32.0912994 21.9000372,32.0787439 C21.866802,32.0660653 21.845753,32.0112888 21.845753,31.9374328 C21.845753,31.8712085 21.8315973,31.8081848 21.8143642,31.7974756 C21.7971312,31.7868896 21.7725125,31.7126643 21.7597108,31.6327768 C21.7469091,31.5527661 21.7203209,31.4872804 21.7007491,31.4872804 C21.6810541,31.4872804 21.665052,31.4396433 21.665052,31.3814202 C21.665052,31.323197 21.6405564,31.2511874 21.6107678,31.2213988 C21.5809793,31.1914872 21.5566068,31.1166464 21.5566068,31.0549767 C21.5566068,30.9886293 21.53445,30.9343452 21.5023226,30.9220359 C21.4669948,30.9083725 21.4481616,30.8522419 21.4481616,30.7604143 C21.4481616,30.6829886 21.4317901,30.6197186 21.4119721,30.6197186 C21.392031,30.6197186 21.3757827,30.574051 21.3757827,30.5181666 C21.3757827,30.4622823 21.3519026,30.3849796 21.3227294,30.3464514 C21.2935563,30.3078001 21.2691838,30.2335748 21.2684453,30.1812602 C21.2678298,30.1290686 21.242965,30.0660448 21.2131764,30.0413031 C21.1832647,30.0165613 21.1588922,29.9514449 21.1588922,29.8966684 C21.1588922,29.8418919 21.1345197,29.7767755 21.1046081,29.7520337 C21.0748195,29.727292 21.050447,29.6530667 21.050447,29.5870887 C21.050447,29.5211106 21.0341987,29.4571021 21.0142576,29.4447928 C20.9944395,29.4324834 20.9781912,29.3763529 20.9781912,29.3199761 C20.9781912,29.2622453 20.9544342,29.2084536 20.9239071,29.1967597 C20.8905488,29.183958 20.869746,29.1290584 20.869746,29.0538483 C20.869746,28.8279721 20.8185392,28.8122161 20.0866262,28.8122161 C19.7285477,28.8122161 19.4248764,28.8230483 19.4115824,28.8362193 M26.5815228,32.065696 L26.5815228,35.319299 L27.2683836,35.319299 L27.9552444,35.319299 L27.9552444,32.065696 L27.9552444,28.8122161 L27.2683836,28.8122161 L26.5815228,28.8122161 L26.5815228,32.065696 M11.6150968,29.8425073 C11.6150968,29.8785737 11.6512863,29.8966684 11.7235421,29.8966684 C11.7832423,29.8966684 11.8319873,29.9126705 11.8319873,29.9321193 C11.8319873,29.9516911 11.8726081,29.9777869 11.9223378,29.9903424 C11.9720675,30.0027748 12.0128114,30.0275166 12.0128114,30.045242 C12.0128114,30.0629675 12.0371839,30.0774925 12.0669725,30.0774925 C12.096761,30.0774925 12.1212566,30.0959565 12.1212566,30.1184826 C12.1212566,30.1410087 12.1618774,30.1972623 12.2116071,30.2432992 C12.2613368,30.2893361 12.3019576,30.3421432 12.3019576,30.3604841 C12.3019576,30.3789481 12.3263301,30.4141528 12.3562418,30.4388945 C12.3860304,30.4636363 12.4104029,30.522598 12.4104029,30.5698658 C12.4104029,30.6171337 12.4248048,30.6559081 12.4424071,30.6559081 C12.4601326,30.6559081 12.4854898,30.7290255 12.498907,30.8185144 C12.5123241,30.9080032 12.538543,30.9812437 12.5572532,30.9812437 C12.5758403,30.9812437 12.591227,31.0707326 12.591227,31.1800395 L12.591227,31.3788352 L11.2173823,31.3788352 L9.84366068,31.3788352 L9.84366068,31.2858997 C9.84366068,31.234816 9.86815625,31.1685918 9.89794484,31.1386801 C9.92773343,31.1088915 9.95210591,31.0378667 9.95210591,30.9807514 C9.95210591,30.9237592 9.96847732,30.8670131 9.98829535,30.8547038 C10.0082365,30.8423945 10.0244848,30.7943881 10.0244848,30.7479819 C10.0244848,30.7015757 10.0488573,30.6541848 10.0786459,30.6427371 C10.1085575,30.6312894 10.13293,30.5889453 10.13293,30.5485707 C10.13293,30.5073344 10.156687,30.475084 10.1870911,30.475084 C10.2177413,30.475084 10.2413752,30.4427104 10.2413752,30.4011049 C10.2413752,30.360361 10.281996,30.2893361 10.3317257,30.2432992 C10.3814555,30.1972623 10.4220763,30.1410087 10.4220763,30.1184826 C10.4220763,30.0959565 10.4465718,30.0774925 10.4763604,30.0774925 C10.506149,30.0774925 10.5305215,30.0611211 10.5305215,30.0413031 C10.5305215,30.0213619 10.5712654,30.0051136 10.6209951,30.0051136 C10.6771256,30.0051136 10.7113456,29.9846801 10.7113456,29.9509525 C10.7113456,29.9147631 10.747535,29.8966684 10.8197908,29.8966684 C10.8920466,29.8966684 10.928236,29.8785737 10.928236,29.8425073 C10.928236,29.7980706 10.9905213,29.7882232 11.2716664,29.7882232 C11.5528116,29.7882232 11.6150968,29.7980706 11.6150968,29.8425073 M39.6811153,29.8425073 C39.692563,29.8722959 39.7336762,29.8966684 39.7724506,29.8966684 C39.8517227,29.8966684 40.0651665,30.0085602 40.0655358,30.0502889 C40.0656589,30.0651832 40.0901545,30.0774925 40.1199431,30.0774925 C40.1497316,30.0774925 40.1742272,30.101865 40.1742272,30.1316536 C40.1742272,30.1614421 40.1985997,30.1859377 40.2283883,30.1859377 C40.2583,30.1859377 40.2826724,30.2028015 40.2826724,30.2236043 C40.2826724,30.2590552 40.3109839,30.2999221 40.4181982,30.4195689 C40.4430631,30.4472649 40.4633735,30.5016721 40.4633735,30.5404465 C40.4633735,30.5790978 40.4877459,30.6310432 40.5176576,30.6559081 C40.5488002,30.6816346 40.5718187,30.7605374 40.5718187,30.8410404 C40.5718187,30.9414846 40.5872053,30.9812437 40.6261028,30.9812437 C40.6677084,30.9812437 40.6802639,31.0274037 40.6802639,31.1800395 L40.6802639,31.3788352 L39.2884476,31.3788352 L37.8967544,31.3788352 L37.8967544,31.274329 C37.8967544,31.2146287 37.920019,31.1607138 37.9509154,31.1488969 C37.9850123,31.135849 38.0051996,31.0805801 38.0051996,31.0004463 C38.0051996,30.93016 38.0200939,30.8727985 38.0384348,30.8727985 C38.0567757,30.8727985 38.0823791,30.8241767 38.095427,30.7647226 C38.1084749,30.7052685 38.1342014,30.6474146 38.1525423,30.63609 C38.1708832,30.6247655 38.1859006,30.5838985 38.1859006,30.5452472 C38.1859006,30.5067189 38.2102731,30.475084 38.2401848,30.475084 C38.2739123,30.475084 38.2943458,30.4409871 38.2943458,30.3847335 C38.2943458,30.3284798 38.3147793,30.2943829 38.34863,30.2943829 C38.3784186,30.2943829 38.4027911,30.2698874 38.4027911,30.2400988 C38.4027911,30.2103102 38.4271635,30.1859377 38.4570752,30.1859377 C38.4868638,30.1859377 38.5112363,30.1684585 38.5112363,30.1471633 C38.5112363,30.0830317 38.6095879,30.0051136 38.6905833,30.0051136 C38.732435,30.0051136 38.775887,29.9807411 38.7873346,29.9509525 C38.7987823,29.9210409 38.847158,29.8966684 38.894672,29.8966684 C38.9474791,29.8966684 38.9812066,29.8754963 38.9812066,29.8425073 C38.9812066,29.7980706 39.0429995,29.7882232 39.3208211,29.7882232 C39.5892877,29.7882232 39.6647439,29.7995477 39.6811153,29.8425073" id="Services"></path>
                    </g>
                </g>
            </g>
        </g>
    </g>
</svg>