<?xml version="1.0" encoding="UTF-8"?>
<svg width="243px" height="39px" viewBox="0 0 243 39" version="1.1" xmlns="http://www.w3.org/2000/svg" xmlns:xlink="http://www.w3.org/1999/xlink">
    <!-- Generator: Sketch 52.6 (67491) - http://www.bohemiancoding.com/sketch -->
    <title>Scooru_logo / Banner / Text</title>
    <desc>Created with Sketch.</desc>
    <defs>
        <path d="M32.0232713,3.87348473 L27.8583777,12.2046954 C27.8583777,12.2046954 23.549867,9.90670554 19.6722074,9.90670554 C16.8706782,9.90670554 15.7227394,10.4093908 15.7227394,12.1328832 C15.7227394,14.0718122 18.3078457,14.647307 21.4674202,15.6516802 C26.3503989,17.1597361 32.6705452,19.8895964 32.6705452,27.4298757 C32.6705452,38.2745128 22.7599734,39.9980052 15.2190824,39.9980052 C6.31382979,39.9980052 1,35.0429646 1,35.0429646 L6.17121011,26.352693 C6.17121011,26.352693 11.1978059,30.5906092 15.2918883,30.5906092 C17.0871011,30.5906092 19.2413564,30.3751726 19.2413564,27.932561 C19.2413564,25.2755102 15.2200798,25.0600737 11.0541888,22.9047108 C7.32014628,20.9657818 3.58610372,18.3805432 3.58610372,12.8500077 C3.58610372,5.30873101 9.97706117,1 19.6722074,1 C26.7802527,1.00099739 32.0232713,3.87348473 32.0232713,3.87348473 Z M49.8297872,20.4640939 C49.8297872,25.5627589 53.7792553,29.5852386 58.5914229,29.5852386 C62.3972739,29.5852386 64.7669548,27.8617462 64.7669548,27.8617462 L69.0764628,36.6946448 C69.0764628,36.6946448 64.9105718,39.9980052 56.7244016,39.9980052 C46.0957447,39.9980052 36.3287899,31.3795458 36.3287899,20.6067209 C36.3287899,9.76208378 46.0239362,1 56.7244016,1 C64.9105718,1 69.0764628,4.4479822 69.0764628,4.4479822 L64.7669548,13.1382538 C64.7669548,13.1382538 62.3972739,11.413764 58.5914229,11.413764 C53.7792553,11.4147614 49.8297872,15.4362437 49.8297872,20.4640939 Z M93.7765957,1.00099739 C105.98504,1.00099739 115.751995,9.04495934 115.751995,20.5359061 C115.751995,31.8832285 106.487699,39.9990026 93.7765957,39.9990026 C80.4910239,39.9990026 71.5857713,31.8832285 71.5857713,20.5359061 C71.5857713,9.04495934 81.3527261,1.00099739 93.7765957,1.00099739 Z M93.7047872,29.1533681 C98.6595745,29.1533681 102.250997,25.5627589 102.250997,20.5349087 C102.250997,15.4362437 98.4451463,11.8446371 93.7047872,11.8446371 C88.893617,11.8446371 85.0867686,15.4362437 85.0867686,20.5349087 C85.0867686,25.5627589 88.5335771,29.1533681 93.7047872,29.1533681 Z M141.242021,1.00099739 C153.450465,1.00099739 163.21742,9.04495934 163.21742,20.5359061 C163.21742,31.8832285 153.953125,39.9990026 141.242021,39.9990026 C127.956449,39.9990026 119.051197,31.8832285 119.051197,20.5359061 C119.051197,9.04495934 128.818152,1.00099739 141.242021,1.00099739 Z M141.170213,29.1533681 C146.125,29.1533681 149.716423,25.5627589 149.716423,20.5349087 C149.716423,15.4362437 145.910572,11.8446371 141.170213,11.8446371 C136.359043,11.8446371 132.552194,15.4362437 132.552194,20.5349087 C132.552194,25.5627589 135.999003,29.1533681 141.170213,29.1533681 Z M169.02992,2.07818014 L181.741024,2.07818014 L181.741024,7.39228172 L181.884641,7.39228172 C181.884641,7.39228172 185.905918,1 193.159574,1 C197.898936,1 201.202128,3.29898726 201.202128,3.29898726 L195.887301,14.0718122 C195.887301,14.0718122 193.51762,12.061071 189.27992,12.061071 C182.67254,12.061071 181.739029,18.5959797 181.739029,19.5295381 L181.739029,38.9208225 L169.027926,38.9208225 L169.027926,2.07818014 L169.02992,2.07818014 Z M216.78258,19.6023477 C216.78258,26.8553782 218.72141,29.6570508 224.036237,29.6570508 C229.350066,29.6570508 231.289894,26.8553782 231.289894,19.6023477 L231.289894,2.07917754 L244,2.07917754 L244,22.691269 C244,35.0439619 237.823471,40 224.035239,40 C210.246011,40 204.070479,35.0449593 204.070479,22.691269 L204.070479,2.07917754 L216.781582,2.07917754 L216.781582,19.6023477 L216.78258,19.6023477 Z" id="path-1"></path>
    </defs>
    <g id="Material-Theme" stroke="none" stroke-width="1" fill="none" fill-rule="evenodd">
        <g id="Product-Icons" transform="translate(-141.000000, -1635.000000)">
            <g id="Scooru_logo-/-Banner-/-Text" transform="translate(140.000000, 1634.000000)">
                <mask id="mask-2" fill="white">
                    <use xlink:href="#path-1"></use>
                </mask>
                <g id="scooru" fill-rule="nonzero"></g>
                <g id="✱-/-Color-/-Icons-/-Selected-/-On-Surface-/-Inactive" mask="url(#mask-2)" fill="#414141" fill-opacity="0.54" fill-rule="evenodd">
                    <rect id="Rectangle" x="0" y="0" width="245" height="41"></rect>
                </g>
            </g>
        </g>
    </g>
</svg>