<?xml version="1.0" encoding="UTF-8"?>
<svg width="243px" height="39px" viewBox="0 0 243 39" version="1.1" xmlns="http://www.w3.org/2000/svg" xmlns:xlink="http://www.w3.org/1999/xlink">
    <!-- Generator: Sketch 52.6 (67491) - http://www.bohemiancoding.com/sketch -->
    <title>Scooru_logo / Banner / Text and abstract balls</title>
    <desc>Created with Sketch.</desc>
    <defs>
        <path d="M102.943343,14.6998949 C102.870596,14.5800634 102.795756,14.4622113 102.718884,14.3465243 L102.365017,13.8260953 L100.221463,14.1538765 C99.0402947,14.3360903 98.0725661,14.4920918 98.0725661,14.497436 C97.916366,14.7315655 96.3764972,17.2510019 96.3502942,17.3080073 C96.3243457,17.380791 97.5678412,21.3938206 97.6823202,21.6073365 C97.7136111,21.6699407 100.627227,23.4811355 100.699985,23.4862253 C100.715503,23.4867343 101.558322,23.2368265 102.583545,22.9296589 L104.262523,22.4295455 C104.349416,21.8203159 104.394207,21.1905614 104.394207,20.5428819 C104.394207,18.35584 103.867917,16.3772008 102.943343,14.6998949 Z M32.0232713,3.87348473 L27.8583777,12.2046954 C27.8583777,12.2046954 23.549867,9.90670554 19.6722074,9.90670554 C16.8706782,9.90670554 15.7227394,10.4093908 15.7227394,12.1328832 C15.7227394,14.0718122 18.3078457,14.647307 21.4674202,15.6516802 C26.3503989,17.1597361 32.6705452,19.8895964 32.6705452,27.4298757 C32.6705452,38.2745128 22.7599734,39.9980052 15.2190824,39.9980052 C6.31382979,39.9980052 1,35.0429646 1,35.0429646 L6.17121011,26.352693 C6.17121011,26.352693 11.1978059,30.5906092 15.2918883,30.5906092 C17.0871011,30.5906092 19.2413564,30.3751726 19.2413564,27.932561 C19.2413564,25.2755102 15.2200798,25.0600737 11.0541888,22.9047108 C7.32014628,20.9657818 3.58610372,18.3805432 3.58610372,12.8500077 C3.58610372,5.30873101 9.97706117,1 19.6722074,1 C26.7802527,1.00099739 32.0232713,3.87348473 32.0232713,3.87348473 Z M49.8297872,20.4640939 C49.8297872,25.5627589 53.7792553,29.5852386 58.5914229,29.5852386 C62.3972739,29.5852386 64.7669548,27.8617462 64.7669548,27.8617462 L69.0764628,36.6946448 C69.0764628,36.6946448 64.9105718,39.9980052 56.7244016,39.9980052 C46.0957447,39.9980052 36.3287899,31.3795458 36.3287899,20.6067209 C36.3287899,9.76208378 46.0239362,1 56.7244016,1 C64.9105718,1 69.0764628,4.4479822 69.0764628,4.4479822 L64.7669548,13.1382538 C64.7669548,13.1382538 62.3972739,11.413764 58.5914229,11.413764 C53.7792553,11.4147614 49.8297872,15.4362437 49.8297872,20.4640939 Z M93.7765957,1.00099739 C105.98504,1.00099739 115.751995,9.04495934 115.751995,20.5359061 C115.751995,31.8832285 106.487699,39.9990026 93.7765957,39.9990026 C80.4910239,39.9990026 71.5857713,31.8832285 71.5857713,20.5359061 C71.5857713,9.04495934 81.3527261,1.00099739 93.7765957,1.00099739 Z M97.3231107,31.1587999 C98.7123761,30.6121586 100.174399,29.6804761 101.053852,28.7800957 L101.329619,28.4991403 L100.746794,26.5263453 C100.429306,25.4437511 100.13802,24.5225026 100.106729,24.4912005 C100.054832,24.4288508 97.2399227,22.7110533 97.1618226,22.6901852 C97.140962,22.6850954 96.3813308,23.2314823 95.4759296,23.902823 L93.8317578,25.1208051 L93.8317578,27.1559499 L93.8317578,29.1910946 L95.2001626,30.2945569 C96.3551278,31.2315836 96.5840857,31.3980191 96.6985646,31.3771511 C96.7766647,31.3618818 97.057774,31.2628857 97.3231107,31.1587999 Z M90.6474628,29.91486 L92.6869685,28.9882673 L92.6869685,27.1093785 L92.6869685,25.2304897 L90.9596087,23.9552477 C90.0073984,23.2526048 89.2113883,22.6749159 89.1905277,22.6644819 C89.169667,22.6540478 88.4100358,22.9350032 87.5046346,23.2889967 L85.8553749,23.9292898 L85.0593647,25.5582709 C84.6223096,26.4482173 84.2529243,27.2289881 84.2320637,27.2811582 C84.1697362,27.4893298 85.4755592,28.8790917 86.3758724,29.5662107 C87.0991248,30.1179419 88.4258084,30.9038024 88.5507176,30.8569765 C88.5817542,30.8465425 89.5235341,30.4197652 90.6474628,29.91486 Z M87.229122,22.1751004 L88.7170937,21.5920672 L89.3780187,19.5151863 C89.7423161,18.3699879 90.0336014,17.3968238 90.0180831,17.3499979 C90.0025649,17.292738 88.5402873,15.0753795 88.1345231,14.4923462 C88.1294352,14.4872565 87.0263671,14.664126 85.6839109,14.8878214 L83.2437289,15.2990749 L83.1033014,15.5540724 C82.9211527,15.8818536 82.5621977,16.7824885 82.4009096,17.3184413 C82.1872156,18.0317727 82.0259275,18.9011055 81.9582577,19.7027444 C81.9061062,20.3740851 81.9061062,20.4835152 81.968688,20.519907 C82.0104093,20.5458649 82.8427983,21.0716382 83.8158692,21.685719 C84.78894,22.2997998 85.6213291,22.794271 85.6630503,22.7787472 C85.7045171,22.7683132 86.4122513,22.4977919 87.229122,22.1751004 Z M96.2668518,15.2525035 L97.1096711,13.8940437 L96.4332279,11.8171628 C96.0638425,10.6773087 95.7567846,9.69371057 95.7567846,9.62601662 C95.7567846,9.51149679 95.7204057,9.49597298 95.2780083,9.41784501 C93.6442668,9.12645564 91.9532858,9.18371556 90.4704021,9.58453499 L90.2623048,9.64179491 L89.6067222,11.6560716 L88.9511395,13.6703483 L89.9397286,15.1433279 L90.9232298,16.6163075 L93.1761751,16.6163075 L95.4240325,16.6163075 L96.2668518,15.2525035 Z M141.242021,1.00099739 C153.450465,1.00099739 163.21742,9.04495934 163.21742,20.5359061 C163.21742,31.8832285 153.953125,39.9990026 141.242021,39.9990026 C127.956449,39.9990026 119.051197,31.8832285 119.051197,20.5359061 C119.051197,9.04495934 128.818152,1.00099739 141.242021,1.00099739 Z M130.525122,20.5787172 C130.525122,23.0428292 131.360687,25.3151577 132.762613,27.1283842 C135.262343,25.93843 136.903426,23.3801307 136.903426,20.5787172 C136.903426,17.7773037 135.262343,15.2190044 132.762564,14.0291476 C131.360687,15.8423254 130.525122,18.1146539 130.525122,20.5787172 Z M141.252327,31.3064705 C144.055204,31.3064705 146.609964,30.2254112 148.52288,28.4589375 C147.330065,27.8045454 146.30034,26.8870232 145.50315,25.7581398 C144.429304,24.23741 143.861677,22.4463911 143.861677,20.5787172 C143.861677,18.711092 144.429207,16.9201218 145.503052,15.399392 C146.300146,14.2704599 147.330016,13.3528403 148.52288,12.6984482 C146.609964,10.9320232 144.055204,9.85101256 141.252327,9.85101256 C138.44945,9.85101256 135.89469,10.9320719 133.981725,12.6985456 C135.174638,13.3530351 136.204509,14.2705573 137.001699,15.3995381 C138.075447,16.9202192 138.643025,18.7111407 138.643025,20.5787172 C138.643025,22.4463424 138.075399,24.2373126 137.001651,25.7580911 C136.20446,26.8869745 135.174638,27.8045941 133.981774,28.4589862 C135.894739,30.2254112 138.449499,31.3064705 141.252327,31.3064705 Z M149.741993,27.1283355 C151.143967,25.3151577 151.979532,23.0428779 151.979532,20.5787172 C151.979532,18.1145565 151.143967,15.8422767 149.741993,14.0291476 C147.242262,15.2190044 145.601179,17.7773037 145.601179,20.5787172 C145.601179,23.3801794 147.242262,25.9384787 149.741993,27.1283355 Z M169.02992,2.07818014 L181.741024,2.07818014 L181.741024,7.39228172 L181.884641,7.39228172 C181.884641,7.39228172 185.905918,1 193.159574,1 C197.898936,1 201.202128,3.29898726 201.202128,3.29898726 L195.887301,14.0718122 C195.887301,14.0718122 193.51762,12.061071 189.27992,12.061071 C182.67254,12.061071 181.739029,18.5959797 181.739029,19.5295381 L181.739029,38.9208225 L169.027926,38.9208225 L169.027926,2.07818014 L169.02992,2.07818014 Z M216.78258,19.6023477 C216.78258,26.8553782 218.72141,29.6570508 224.036237,29.6570508 C229.350066,29.6570508 231.289894,26.8553782 231.289894,19.6023477 L231.289894,2.07917754 L244,2.07917754 L244,22.691269 C244,35.0439619 237.823471,40 224.035239,40 C210.246011,40 204.070479,35.0449593 204.070479,22.691269 L204.070479,2.07917754 L216.781582,2.07917754 L216.781582,19.6023477 L216.78258,19.6023477 Z" id="path-1"></path>
    </defs>
    <g id="Material-Theme" stroke="none" stroke-width="1" fill="none" fill-rule="evenodd">
        <g id="Product-Icons" transform="translate(-142.000000, -1716.000000)">
            <g id="Scooru_logo-/-Banner-/-Text-and-abstract-balls" transform="translate(141.000000, 1715.000000)">
                <mask id="mask-2" fill="white">
                    <use xlink:href="#path-1"></use>
                </mask>
                <g id="scooru" fill-rule="nonzero"></g>
                <g id="✱-/-Color-/-Icons-/-Selected-/-On-Surface-/-Inactive" mask="url(#mask-2)" fill="#414141" fill-opacity="0.54" fill-rule="evenodd">
                    <rect id="Rectangle" x="0" y="0" width="245" height="41"></rect>
                </g>
            </g>
        </g>
    </g>
</svg>