<?xml version="1.0" encoding="UTF-8"?>
<svg width="21px" height="21px" viewBox="0 0 21 21" version="1.1" xmlns="http://www.w3.org/2000/svg" xmlns:xlink="http://www.w3.org/1999/xlink">
    <!-- Generator: Sketch 52.6 (67491) - http://www.bohemiancoding.com/sketch -->
    <title>Nav_bottom / Icon_with_text / Profiles / Inactive Copy</title>
    <desc>Created with Sketch.</desc>
    <defs>
        <path d="M8.99440226,0.535436515 C8.99440226,0.556500944 8.86006489,0.570873029 8.66131919,0.570873029 C8.39740742,0.570873029 8.3240144,0.581844087 8.30810176,0.623972946 C8.29467884,0.65919004 8.23925521,0.677292284 8.14312984,0.677621416 C7.94763162,0.678279679 7.84111432,0.710754008 7.84111432,0.769778296 C7.84111432,0.805543942 7.78926291,0.818818921 7.64897183,0.818818921 C7.5013198,0.818818921 7.45672109,0.831106505 7.45672109,0.871918838 C7.45672109,0.912072907 7.41396262,0.925018755 7.28200673,0.925018755 C7.1499426,0.925018755 7.10718413,0.937964602 7.10718413,0.978118672 C7.10718413,1.01234837 7.0730856,1.03143801 7.01116701,1.03176714 C6.86145824,1.03253512 6.75775542,1.07027555 6.75775542,1.12392402 C6.75775542,1.15606922 6.71683719,1.17296465 6.63922245,1.17296465 C6.56604593,1.17296465 6.51289552,1.1932611 6.50044686,1.22606456 C6.48875593,1.25711266 6.43636328,1.27927419 6.37444468,1.27927419 C6.29185047,1.27927419 6.26846863,1.29485309 6.26846863,1.35003751 C6.26846863,1.40741614 6.24519503,1.42091054 6.14614693,1.42091054 C6.06073824,1.42091054 6.02382523,1.43692828 6.02382523,1.47401046 C6.02382523,1.51109263 5.98702047,1.52711037 5.90150353,1.52711037 C5.80256368,1.52711037 5.77929008,1.54060477 5.77929008,1.5979834 C5.77929008,1.65536203 5.75590824,1.66885643 5.65696839,1.66885643 C5.58270937,1.66885643 5.53432194,1.68630041 5.53388894,1.71306979 C5.53345595,1.73742554 5.45486696,1.79359735 5.35917459,1.837701 C5.26348221,1.88191436 5.18510973,1.94170662 5.18510973,1.9705605 C5.18510973,2.0068747 5.14754722,2.02300216 5.06278803,2.02300216 C4.97737934,2.02300216 4.94046633,2.0390199 4.94046633,2.07610207 C4.94046633,2.1053948 4.91686799,2.1293117 4.88807368,2.1293117 C4.85895462,2.1293117 4.83568102,2.16079863 4.83568102,2.20007502 C4.83568102,2.24648259 4.81240742,2.27094805 4.76824171,2.27094805 C4.73122045,2.27094805 4.67731231,2.29486495 4.64840975,2.32404797 C4.61961544,2.35334069 4.56982076,2.37725759 4.53788722,2.37725759 C4.50584543,2.37725759 4.47142216,2.40907366 4.46135497,2.44802091 C4.45128779,2.48696816 4.42130274,2.51889394 4.39478166,2.51889394 C4.36815233,2.51889394 4.34639423,2.54281085 4.34639423,2.57199386 C4.34639423,2.60128658 4.32279588,2.62509377 4.29400157,2.62509377 C4.26509901,2.62509377 4.21010837,2.65306997 4.17167987,2.68708025 C4.13325137,2.72120024 4.07035854,2.77704292 4.03182179,2.81105319 C3.99339329,2.84517318 3.95020182,2.8733688 3.93580467,2.87369793 C3.89575243,2.87457561 3.75232212,3.03727639 3.75232212,3.08170917 C3.75232212,3.10332216 3.72818253,3.12098556 3.69873872,3.12098556 C3.66929492,3.12098556 3.63617063,3.14490246 3.6251292,3.17408548 C3.61408778,3.2033782 3.58312848,3.2272951 3.55639091,3.2272951 C3.52954508,3.2272951 3.50767872,3.25911117 3.50767872,3.29805842 C3.50767872,3.33711538 3.48570412,3.36893145 3.45896654,3.36893145 C3.43222897,3.36893145 3.40126967,3.39284836 3.39022824,3.42203137 C3.37907857,3.45132409 3.34595428,3.47524099 3.31651048,3.47524099 C3.28706667,3.47524099 3.26303533,3.49959674 3.26303533,3.52943802 C3.26303533,3.55927929 3.23943698,3.59285073 3.21064267,3.60404121 C3.18174011,3.61523168 3.15814177,3.64660891 3.15814177,3.67381713 C3.15814177,3.70091564 3.13465167,3.72318689 3.10574911,3.72318689 C3.0769548,3.72318689 3.05335645,3.73668129 3.05335645,3.75313787 C3.05335645,3.76959446 3.02185591,3.8198419 2.98342741,3.86482324 C2.94499891,3.90969486 2.91360662,3.97596004 2.91360662,4.01194511 C2.91360662,4.05374484 2.88838453,4.07733261 2.84367758,4.07733261 C2.80416659,4.07733261 2.77374854,4.10092039 2.77374854,4.13152963 C2.77374854,4.16137091 2.75015019,4.19494235 2.72135588,4.20624253 C2.69256157,4.21743301 2.66896322,4.24881024 2.66896322,4.27590875 C2.66896322,4.30300726 2.64709687,4.3252785 2.62035929,4.3252785 C2.59264747,4.3252785 2.56201292,4.37826871 2.54891476,4.44925145 C2.5351671,4.5234158 2.50561504,4.5732244 2.47508874,4.5732244 C2.44716043,4.5732244 2.42431983,4.5971413 2.42431983,4.62632431 C2.42431983,4.65550733 2.40072148,4.67942423 2.37192717,4.67942423 C2.34269986,4.67942423 2.31942626,4.71091116 2.31942626,4.75029726 C2.31942626,4.78924451 2.30297237,4.82117029 2.28272975,4.82117029 C2.26248714,4.82117029 2.22297615,4.87690326 2.19493958,4.94514323 C2.16679476,5.0132735 2.12825802,5.06900647 2.10931439,5.06900647 C2.09037077,5.06900647 2.07478287,5.11684028 2.07478287,5.17531601 C2.07478287,5.24893181 2.05767948,5.28162556 2.01914273,5.28162556 C1.98850818,5.28162556 1.95549215,5.31234452 1.94574971,5.34997524 C1.93611553,5.38760597 1.90613047,5.42688236 1.8791764,5.43741457 C1.85211408,5.44794679 1.83013947,5.50444773 1.83013947,5.56380115 C1.83013947,5.63566157 1.81281958,5.6712078 1.77774681,5.6712078 C1.74115855,5.6712078 1.72535416,5.7086191 1.72535416,5.79518074 C1.72535416,5.89545621 1.7120395,5.91915369 1.65542512,5.91915369 C1.60097572,5.91915369 1.58560432,5.94274146 1.58560432,6.02645063 C1.58560432,6.08920508 1.56373797,6.14230499 1.53310342,6.15426345 C1.50355136,6.16578306 1.48071076,6.21844413 1.48071076,6.27538392 C1.48071076,6.33067805 1.45602992,6.39003146 1.42572012,6.40725602 C1.39551857,6.42437087 1.36185304,6.50621496 1.35091986,6.58915615 C1.33987844,6.67198763 1.30956863,6.74812677 1.28348055,6.75832985 C1.25273776,6.77028831 1.23606737,6.83611465 1.23606737,6.94593493 C1.23606737,7.08526736 1.2238352,7.11839995 1.16624657,7.13364972 C1.11049819,7.14835094 1.09631753,7.18192237 1.09631753,7.29821558 C1.09631753,7.39541914 1.07878115,7.45115211 1.04392488,7.46475623 C1.00647062,7.47934773 0.991423969,7.53859144 0.991423969,7.67232863 C0.991423969,7.80606581 0.976485567,7.86541923 0.939031313,7.88001074 C0.900494565,7.89493138 0.886638656,7.95680814 0.886638656,8.11402339 C0.886638656,8.28034462 0.871159008,8.34331848 0.816709614,8.3985029 C0.756198261,8.4597214 0.746780573,8.51655148 0.746780573,8.81968179 C0.746780573,9.09845635 0.736063893,9.17426635 0.694387916,9.19050352 C0.649139713,9.20805721 0.64199526,9.38096107 0.64199526,10.4478964 C0.64199526,11.514722 0.649139713,11.6876258 0.694387916,11.7052892 C0.736063893,11.7214167 0.746780573,11.7967879 0.746780573,12.0723808 C0.746780573,12.3807772 0.754574522,12.4241129 0.816709614,12.4633893 C0.87386524,12.4995938 0.886638656,12.5460014 0.886638656,12.7173693 C0.886638656,12.8564823 0.90428329,12.944909 0.939031313,12.9801261 C0.971939097,13.0134781 0.991423969,13.1005883 0.991423969,13.214029 C0.991423969,13.3420613 1.00679537,13.4007564 1.04392488,13.4151285 C1.07964714,13.4290617 1.09631753,13.4858918 1.09631753,13.5945053 C1.09631753,13.7235249 1.1094157,13.7568769 1.16624657,13.7719073 C1.22405169,13.7872668 1.23606737,13.8201799 1.23606737,13.9633522 C1.23606737,14.093469 1.24905728,14.1363658 1.28846002,14.1363658 C1.32515653,14.1363658 1.34096093,14.1737771 1.34096093,14.2603387 C1.34096093,14.3370264 1.36759025,14.4113005 1.41078172,14.455075 C1.44931847,14.4940223 1.48071076,14.5663215 1.48071076,14.6155816 C1.48071076,14.6649513 1.50430911,14.7144308 1.53310342,14.7256213 C1.56352147,14.73747 1.58560432,14.7904602 1.58560432,14.8517884 C1.58560432,14.9278179 1.60519745,14.9628155 1.65542512,14.9760905 C1.70792602,14.9900238 1.72535416,15.0244729 1.72535416,15.1145453 C1.72535416,15.1973767 1.7414833,15.2343492 1.77774681,15.2343492 C1.80664938,15.2343492 1.83013947,15.2650682 1.83013947,15.3025892 C1.83013947,15.3402199 1.85373782,15.3948558 1.88264038,15.4240388 C1.91143469,15.4533315 1.93503303,15.5022624 1.93503303,15.5328717 C1.93503303,15.5649072 1.96469334,15.5884949 2.00496208,15.5884949 C2.0614682,15.5884949 2.07478287,15.6120827 2.07478287,15.7124679 C2.07478287,15.7990295 2.09058726,15.8364408 2.12728377,15.8364408 C2.15629458,15.8364408 2.17967643,15.8679278 2.17967643,15.9069847 C2.17967643,15.9458223 2.21106872,15.9974959 2.24960547,16.021742 C2.28803397,16.0460977 2.31942626,16.0940412 2.31942626,16.1283807 C2.31942626,16.1626104 2.34302461,16.1906963 2.37192717,16.1906963 C2.40104623,16.1906963 2.42431983,16.2221832 2.42431983,16.2614596 C2.42431983,16.3013942 2.44759342,16.3323326 2.47757848,16.3323326 C2.50853777,16.3323326 2.53949707,16.375778 2.55140449,16.4363382 C2.56266242,16.4934974 2.59372997,16.5487916 2.62046754,16.5592141 C2.64709687,16.5695269 2.66896322,16.60244 2.66896322,16.6322813 C2.66896322,16.6621226 2.69256157,16.6864783 2.72135588,16.6864783 C2.75015019,16.6864783 2.77374854,16.7119312 2.77374854,16.7429793 C2.77374854,16.7740274 2.80524908,16.8077085 2.84367758,16.8179116 C2.88210608,16.8281147 2.91360662,16.8504956 2.91360662,16.8677202 C2.91360662,16.8849448 2.94499891,16.9309135 2.98342741,16.9698607 C3.02185591,17.008808 3.05335645,17.0646507 3.05335645,17.0938337 C3.05335645,17.1230167 3.0769548,17.1469336 3.10574911,17.1469336 C3.13486817,17.1469336 3.15814177,17.1784205 3.15814177,17.2178066 C3.15814177,17.2571927 3.18152361,17.2886797 3.21064267,17.2886797 C3.23943698,17.2886797 3.26303533,17.3140228 3.26303533,17.3450709 C3.26303533,17.376119 3.29453587,17.4099098 3.33296437,17.4200032 C3.37139287,17.4302063 3.40278516,17.4605961 3.40278516,17.4875849 C3.40278516,17.5145737 3.42638351,17.5366256 3.45528607,17.5366256 C3.48408038,17.5366256 3.50767872,17.5516559 3.50767872,17.570197 C3.50767872,17.6189085 3.66593919,17.7844617 3.71259463,17.7844617 C3.73446099,17.7844617 3.75232212,17.8083786 3.75232212,17.8376714 C3.75232212,17.8668544 3.77234824,17.8907713 3.79692083,17.8907713 C3.82149342,17.8907713 3.86684987,17.9186378 3.89780917,17.9527578 C3.98603234,18.050071 4.11170977,18.1387172 4.16128794,18.1387172 C4.18618528,18.1387172 4.20664439,18.1640603 4.20664439,18.1951084 C4.20664439,18.2261565 4.23803669,18.2599474 4.27646519,18.2701504 C4.31489368,18.2803535 4.34639423,18.3106336 4.34639423,18.3376224 C4.34639423,18.3646112 4.36826058,18.3866631 4.39510641,18.3866631 C4.42184398,18.3866631 4.45226203,18.409044 4.46265396,18.4364717 C4.47293765,18.4637896 4.52966028,18.4969222 4.58865614,18.5100875 C4.647652,18.523143 4.69582294,18.5566047 4.69582294,18.5842518 C4.69582294,18.6118989 4.72732348,18.634609 4.76575198,18.634609 C4.80461347,18.634609 4.83568102,18.6581967 4.83568102,18.6877089 C4.83568102,18.7168919 4.85927936,18.7408088 4.88807368,18.7408088 C4.91686799,18.7408088 4.94046633,18.7629703 4.94046633,18.7901785 C4.94046633,18.8442659 5.0139676,18.8824451 5.11810342,18.8824451 C5.15501643,18.8824451 5.18510973,18.906362 5.18510973,18.9356548 C5.18510973,18.9727369 5.22202274,18.9887547 5.30743143,18.9887547 C5.40647953,18.9887547 5.42975313,19.0022491 5.42975313,19.0596277 C5.42975313,19.098575 5.45161948,19.130391 5.47846531,19.130391 C5.50520288,19.130391 5.53616218,19.1543079 5.54720361,19.1836007 C5.55900278,19.2146487 5.61139543,19.2367006 5.67331403,19.2367006 C5.74270182,19.2367006 5.77929008,19.2544737 5.77929008,19.2882645 C5.77929008,19.3190932 5.82832701,19.3490442 5.90150353,19.3629774 C5.97164907,19.3763621 6.02382523,19.4073005 6.02382523,19.4353864 C6.02382523,19.4680802 6.06506821,19.4846465 6.14614693,19.4846465 C6.23166387,19.4846465 6.26846863,19.5006642 6.26846863,19.5377464 C6.26846863,19.5748286 6.30538164,19.5908463 6.39079033,19.5908463 C6.48983843,19.5908463 6.51311202,19.6043407 6.51311202,19.6617193 C6.51311202,19.7205242 6.53638562,19.7325924 6.65037212,19.7325924 C6.72593013,19.7325924 6.81133882,19.7565093 6.84013313,19.7856923 C6.86892744,19.8148753 6.94091322,19.8387922 6.99990908,19.8387922 C7.06799789,19.8387922 7.10718413,19.856675 7.10718413,19.8878328 C7.10718413,19.9414813 7.2109952,19.9792217 7.36059572,19.9799897 C7.42251431,19.9803188 7.45672109,19.9994085 7.45672109,20.0336382 C7.45672109,20.075767 7.50716526,20.0867381 7.70136448,20.0867381 C7.88528003,20.0867381 7.94600788,20.0988062 7.94600788,20.1353399 C7.94600788,20.1683627 8.01323069,20.1916214 8.15752699,20.208078 C8.29218911,20.2235472 8.37608231,20.2509748 8.38842273,20.2835588 C8.40314463,20.3225061 8.47794489,20.334684 8.70353641,20.334684 C8.91992675,20.334684 9.01345413,20.3489463 9.05177438,20.3877839 C9.13090461,20.4679823 11.9998356,20.4679823 11.9998356,20.3877839 C11.9998356,20.3441191 12.0619706,20.334684 12.3493725,20.334684 C12.621836,20.334684 12.6988012,20.324042 12.6988012,20.2861919 C12.6988012,20.2360542 12.8684279,20.1941447 13.0745345,20.1933768 C13.1519328,20.1931573 13.188088,20.1761522 13.188088,20.139838 C13.188088,20.0984771 13.2347435,20.0867381 13.3988494,20.0867381 C13.5539706,20.0867381 13.614915,20.0726951 13.6297451,20.0336382 C13.642302,20.0003959 13.6956689,19.9805382 13.7716599,19.9805382 C13.8642131,19.9805382 13.8979869,19.9634234 13.9118428,19.9096652 C13.9269977,19.8509701 13.9594725,19.8387922 14.1007378,19.8387922 C14.2291214,19.8387922 14.2714469,19.8256269 14.2714469,19.7856923 C14.2714469,19.7485004 14.3083599,19.7325924 14.3940934,19.7325924 C14.4735483,19.7325924 14.5378484,19.7075783 14.5766017,19.6617193 C14.6095094,19.6227721 14.6784642,19.5908463 14.7297744,19.5908463 C14.7810846,19.5908463 14.8321782,19.5669294 14.8432197,19.5377464 C14.8542611,19.5085634 14.8966948,19.4846465 14.937613,19.4846465 C14.978423,19.4846465 15.0518161,19.4527207 15.1006365,19.4137734 C15.1494569,19.3748262 15.2171127,19.3429004 15.2508865,19.3429004 C15.2847685,19.3429004 15.321465,19.3189835 15.3325065,19.2898005 C15.3435479,19.2606175 15.3766722,19.2367006 15.406116,19.2367006 C15.4355598,19.2367006 15.4595911,19.2127837 15.4595911,19.1836007 C15.4595911,19.147835 15.4949886,19.130391 15.5677322,19.130391 C15.6464294,19.130391 15.6808527,19.1111917 15.6941673,19.0596277 C15.7071573,19.0091608 15.741797,18.9887547 15.8143241,18.9887547 C15.8725622,18.9887547 15.9247383,18.9660446 15.936321,18.9356548 C15.9473624,18.906362 15.9783217,18.8824451 16.0050593,18.8824451 C16.0317969,18.8824451 16.0537715,18.8506291 16.0537715,18.8116818 C16.0537715,18.7543032 16.0770451,18.7408088 16.1760932,18.7408088 C16.2615019,18.7408088 16.2984149,18.724791 16.2984149,18.6877089 C16.2984149,18.6585259 16.3220132,18.634609 16.3508075,18.634609 C16.3796018,18.634609 16.4032002,18.6125571 16.4032002,18.5855683 C16.4032002,18.5585795 16.4347007,18.5281897 16.4731292,18.5180963 C16.5115577,18.5078932 16.5430583,18.4741024 16.5430583,18.4430543 C16.5430583,18.4038876 16.5753166,18.3866631 16.6489261,18.3866631 C16.7108447,18.3866631 16.7632373,18.3646112 16.7750365,18.3334534 C16.7860779,18.3042704 16.8170372,18.2803535 16.8437748,18.2803535 C16.8706206,18.2803535 16.892487,18.2485375 16.892487,18.2095902 C16.892487,18.1623049 16.9157606,18.1387172 16.962416,18.1387172 C17.0011693,18.1387172 17.0322368,18.1151294 17.0322368,18.0856173 C17.0322368,18.0563245 17.0558352,18.0324076 17.0847377,18.0324076 C17.1138568,18.0324076 17.1371304,18.0009207 17.1371304,17.9616443 C17.1371304,17.9222582 17.160404,17.8907713 17.189523,17.8907713 C17.2183173,17.8907713 17.2419157,17.8668544 17.2419157,17.8376714 C17.2419157,17.8081592 17.2729832,17.7844617 17.3118447,17.7844617 C17.3502732,17.7844617 17.3817738,17.7623002 17.3817738,17.7352017 C17.3817738,17.7081032 17.4207435,17.675958 17.4684815,17.6638898 C17.5162194,17.6517119 17.579437,17.5942236 17.6092055,17.536077 C17.6388658,17.4779304 17.6784851,17.430316 17.6972122,17.430316 C17.7159393,17.430316 17.7312025,17.3983902 17.7312025,17.359443 C17.7312025,17.3122674 17.7544761,17.2886797 17.8011315,17.2886797 C17.839993,17.2886797 17.8710606,17.2649822 17.8710606,17.23547 C17.8710606,17.206287 17.8945507,17.1823701 17.9234532,17.1823701 C17.9525723,17.1823701 17.9758459,17.1508832 17.9758459,17.1114971 C17.9758459,17.0722207 17.9991195,17.0407338 18.0282385,17.0407338 C18.0571411,17.0407338 18.0807394,17.0168169 18.0807394,16.9875241 C18.0807394,16.958012 18.111807,16.9344242 18.1505602,16.9344242 C18.1900712,16.9344242 18.2204893,16.9108365 18.2204893,16.8802272 C18.2204893,16.8503859 18.2440876,16.8168145 18.2728819,16.805624 C18.3017845,16.7943238 18.3252746,16.766567 18.3252746,16.7437473 C18.3252746,16.7209275 18.3567751,16.6749587 18.3952036,16.6416067 C18.4336321,16.6082547 18.4651327,16.5489013 18.4651327,16.5097346 C18.4651327,16.4701291 18.488298,16.4385324 18.5175253,16.4385324 C18.5463196,16.4385324 18.569918,16.4147252 18.569918,16.3854325 C18.569918,16.3562495 18.5935163,16.3323326 18.6224189,16.3323326 C18.6512132,16.3323326 18.6748116,16.3029302 18.6748116,16.2669451 C18.6748116,16.2310697 18.7062038,16.1728134 18.7447406,16.1374866 C18.7831691,16.1022695 18.8145614,16.0536678 18.8145614,16.0295314 C18.8145614,16.0053951 18.8381597,15.9765412 18.866954,15.9653507 C18.8976968,15.9533923 18.9194549,15.9002924 18.9194549,15.8375379 C18.9194549,15.7538288 18.9348263,15.730241 18.9892757,15.730241 C19.0346322,15.730241 19.0592048,15.7065435 19.0592048,15.6630981 C19.0592048,15.6262354 19.0828031,15.586959 19.1115974,15.5757685 C19.1416907,15.5640295 19.1640983,15.511149 19.1640983,15.4521247 C19.1640983,15.3786186 19.1842327,15.3435112 19.2339191,15.330346 C19.2802498,15.3180584 19.3038482,15.2819636 19.3038482,15.2237073 C19.3038482,15.1753249 19.3274465,15.1265037 19.3562408,15.1153132 C19.3868754,15.1033548 19.4087417,15.0502549 19.4087417,14.9875004 C19.4087417,14.91564 19.4260616,14.8800938 19.4611344,14.8800938 C19.4973979,14.8800938 19.5135271,14.843231 19.5135271,14.7602898 C19.5135271,14.6702174 19.5309552,14.635878 19.5834561,14.6219448 C19.6336838,14.6086698 19.6532769,14.5736721 19.6532769,14.4976427 C19.6532769,14.4363145 19.6753597,14.3833243 19.7057778,14.3714756 C19.7413918,14.357652 19.7581704,14.3010414 19.7581704,14.1947318 C19.7581704,14.0681258 19.7714851,14.0347738 19.8280995,14.0198532 C19.8848221,14.0048228 19.8979203,13.9714708 19.8979203,13.8423415 C19.8979203,13.7338377 19.9145907,13.6770076 19.9504212,13.6630744 C19.9873342,13.6487023 20.0028138,13.5902266 20.0028138,13.4644983 C20.0028138,13.3358078 20.016345,13.2863283 20.051526,13.2863283 C20.1175581,13.2863283 20.1425637,13.207227 20.1425637,12.9988866 C20.1425637,12.8757913 20.1581516,12.817535 20.1949563,12.8032726 C20.2358746,12.7873646 20.2474572,12.7171498 20.2474572,12.4855508 C20.2474572,12.2449555 20.2574162,12.1883449 20.2998499,12.1883449 C20.3439074,12.1883449 20.3522426,12.1109989 20.3522426,11.7051795 C20.3522426,11.2859754 20.3603613,11.2160898 20.4134034,11.1767037 C20.467961,11.1363302 20.4745643,11.0585454 20.4745643,10.4593063 C20.4745643,9.86895369 20.4670951,9.77888131 20.4134034,9.71875992 C20.3614437,9.66050361 20.3522426,9.57745271 20.3522426,9.16603806 C20.3522426,8.75923126 20.3439074,8.6817756 20.2998499,8.6817756 C20.2573079,8.6817756 20.2474572,8.6247261 20.2474572,8.38072979 C20.2474572,8.13673348 20.2374983,8.07968398 20.1949563,8.07968398 C20.1547958,8.07968398 20.1425637,8.03437351 20.1425637,7.884838 C20.1425637,7.73727729 20.1256768,7.67287718 20.0726346,7.61922871 C20.0234895,7.56942011 20.0028138,7.50118014 20.0028138,7.38905593 C20.0028138,7.27089765 19.9891744,7.22964647 19.9504212,7.22964647 C19.9113432,7.22964647 19.8979203,7.18795645 19.8979203,7.06694569 C19.8979203,6.93397648 19.8851469,6.90084389 19.8280995,6.88570383 C19.7701861,6.87034435 19.7581704,6.83743118 19.7581704,6.69425888 C19.7581704,6.56403243 19.7451805,6.52124531 19.7057778,6.52124531 C19.6690813,6.52124531 19.6532769,6.483834 19.6532769,6.39727236 C19.6532769,6.29688719 19.6399622,6.27329942 19.5834561,6.27329942 C19.5268417,6.27329942 19.5135271,6.24971164 19.5135271,6.14932647 C19.5135271,6.06276483 19.4977227,6.02535352 19.4611344,6.02535352 C19.4245461,6.02535352 19.4087417,5.98794222 19.4087417,5.90138058 C19.4087417,5.81481894 19.3928291,5.77740763 19.3562408,5.77740763 C19.3209516,5.77740763 19.3038482,5.74164199 19.3038482,5.66791648 C19.3038482,5.58804719 19.2847963,5.55326893 19.2339191,5.53977453 C19.185207,5.52682869 19.1640983,5.49150188 19.1640983,5.42293277 C19.1640983,5.3681872 19.1408247,5.31552613 19.1115974,5.30422594 C19.0828031,5.29292575 19.0592048,5.25935431 19.0592048,5.22951304 C19.0592048,5.19890379 19.0287867,5.17531601 18.9892757,5.17531601 C18.9327696,5.17531601 18.9194549,5.15172824 18.9194549,5.05134307 C18.9194549,4.96478143 18.9036506,4.92737012 18.866954,4.92737012 C18.837835,4.92737012 18.8145614,4.89588319 18.8145614,4.85616796 C18.8145614,4.81700129 18.7831691,4.75775758 18.7447406,4.72440556 C18.7062038,4.69105355 18.6748116,4.64332945 18.6748116,4.61842515 C18.6748116,4.59352085 18.6512132,4.5732244 18.6224189,4.5732244 C18.5932998,4.5732244 18.569918,4.54173746 18.569918,4.50235137 C18.569918,4.46340411 18.5476186,4.43147834 18.5203398,4.43147834 C18.4929527,4.43147834 18.4602615,4.38375424 18.4475963,4.3252785 C18.4349311,4.26680277 18.4022398,4.21896896 18.374961,4.21896896 C18.3476822,4.21896896 18.3252746,4.18715289 18.3252746,4.14820564 C18.3252746,4.10881955 18.302001,4.07733261 18.2728819,4.07733261 C18.2440876,4.07733261 18.2204893,4.05341571 18.2204893,4.0242327 C18.2204893,3.99472055 18.1894217,3.97102307 18.1505602,3.97102307 C18.104013,3.97102307 18.0807394,3.9474353 18.0807394,3.90025975 C18.0807394,3.86087365 18.0573576,3.82938672 18.0282385,3.82938672 C17.9994442,3.82938672 17.9758459,3.80546982 17.9758459,3.7762868 C17.9758459,3.74699408 17.9540878,3.72318689 17.9274584,3.72318689 C17.9009374,3.72318689 17.8709523,3.69126111 17.8608851,3.65231386 C17.850818,3.6133666 17.8175854,3.58144083 17.7869509,3.58144083 C17.7563163,3.58144083 17.7312025,3.55247724 17.7312025,3.51704072 C17.7312025,3.45318917 17.5564881,3.2272951 17.5072347,3.2272951 C17.4931623,3.2272951 17.4579813,3.2033782 17.429187,3.17408548 C17.4003927,3.14490246 17.3463763,3.12098556 17.309355,3.12098556 C17.2652975,3.12098556 17.2419157,3.0965201 17.2419157,3.05022224 C17.2419157,3.01083614 17.2186421,2.97934921 17.189523,2.97934921 C17.1607287,2.97934921 17.1371304,2.95543231 17.1371304,2.92624929 C17.1371304,2.89695657 17.1153723,2.87303967 17.0887429,2.87303967 C17.0622219,2.87303967 17.0322368,2.8412236 17.0221696,2.80227635 C17.0121025,2.76332909 16.9787617,2.73140332 16.9481271,2.73140332 C16.9174926,2.73140332 16.892487,2.70748641 16.892487,2.6783034 C16.892487,2.64901068 16.8706206,2.62509377 16.8437748,2.62509377 C16.8170372,2.62509377 16.7860779,2.60128658 16.7750365,2.57199386 C16.7638868,2.54281085 16.7267573,2.51889394 16.692334,2.51889394 C16.6579108,2.51889394 16.6100646,2.48696816 16.5860332,2.44802091 C16.5621102,2.40907366 16.5111247,2.37725759 16.4728045,2.37725759 C16.4342677,2.37725759 16.4032002,2.35356011 16.4032002,2.32404797 C16.4032002,2.29486495 16.3814421,2.27094805 16.354921,2.27094805 C16.3282917,2.27094805 16.2983066,2.23902227 16.2882394,2.20007502 C16.2757908,2.15202179 16.2406098,2.1293117 16.1782582,2.1293117 C16.127814,2.1293117 16.0774781,2.1053948 16.0664366,2.07610207 C16.055287,2.04691906 16.0243277,2.02300216 15.9975901,2.02300216 C15.9708525,2.02300216 15.9488779,1.99985323 15.9488779,1.9715479 C15.9488779,1.94060952 15.899841,1.91065853 15.8265562,1.89672529 C15.7565189,1.88345031 15.7042345,1.85240222 15.7042345,1.82431631 C15.7042345,1.7972178 15.674466,1.77505626 15.6380942,1.77505626 C15.6017224,1.77505626 15.562861,1.75113936 15.5518195,1.72195635 C15.5407781,1.69277334 15.4929319,1.66885643 15.445627,1.66885643 C15.3902033,1.66885643 15.3515583,1.643623 15.3373777,1.5979834 C15.3220063,1.5491622 15.2844438,1.52711037 15.216355,1.52711037 C15.1608231,1.52711037 15.1088634,1.50385173 15.0974973,1.47401046 C15.0858063,1.44296236 15.0334137,1.42091054 14.9714951,1.42091054 C14.9042723,1.42091054 14.865519,1.40291801 14.865519,1.37154078 C14.865519,1.31811173 14.7923425,1.27927419 14.6916707,1.27927419 C14.6569226,1.27927419 14.6193601,1.25535729 14.6083187,1.22606456 C14.594571,1.18996979 14.5388227,1.17296465 14.4338209,1.17296465 C14.3090094,1.17296465 14.2761016,1.15947025 14.2612715,1.10209162 C14.2478486,1.05008881 14.2136418,1.0313283 14.1324548,1.0313283 C14.0716187,1.0313283 13.9982257,1.00741139 13.9694314,0.978118672 C13.9405288,0.94893566 13.8647543,0.925018755 13.8008873,0.925018755 C13.729984,0.925018755 13.6769418,0.904393167 13.6647096,0.871918838 C13.649663,0.832203611 13.5869867,0.818818921 13.4162775,0.818818921 C13.2113616,0.818818921 13.188088,0.811578024 13.188088,0.747945892 C13.188088,0.683874918 13.1648144,0.677072863 12.9434446,0.677072863 C12.7492454,0.677072863 12.6988012,0.666101806 12.6988012,0.623972946 C12.6988012,0.580856691 12.6425116,0.570873029 12.4017652,0.570873029 C12.2270508,0.570873029 12.1047291,0.556281523 12.1047291,0.535436515 C12.1047291,0.512287584 11.5630497,0.5 10.5495116,0.5 C9.53608171,0.5 8.99440226,0.512287584 8.99440226,0.535436515 M11.4979918,2.6783034 C11.5137962,2.71999342 11.5848078,2.73140332 11.8289099,2.73140332 C12.0701976,2.73140332 12.1396936,2.74237438 12.1396936,2.78044394 C12.1396936,2.83946823 12.2462109,2.87194256 12.4417092,2.87260082 C12.5378345,2.87292996 12.5932582,2.89092249 12.6065728,2.92624929 C12.6203205,2.96245378 12.6763936,2.97934921 12.7833439,2.97934921 C12.8908355,2.97934921 12.9498313,2.99723203 12.9713729,3.03617929 C12.9903166,3.07040899 13.0674983,3.10046968 13.1653557,3.11166016 C13.2706822,3.12372832 13.3278379,3.1473161 13.3278379,3.17869332 C13.3278379,3.21028996 13.3692973,3.2272951 13.4464791,3.2272951 C13.5195473,3.2272951 13.5726977,3.24759156 13.5851464,3.28039502 C13.5961878,3.30957803 13.6450083,3.33349494 13.6937205,3.33349494 C13.7423244,3.33349494 13.8136607,3.36542071 13.8520892,3.40436797 C13.8911672,3.44408319 13.9685654,3.47524099 14.027886,3.47524099 C14.0898046,3.47524099 14.1421973,3.49729282 14.1539964,3.52834091 C14.1650379,3.55752392 14.1959972,3.58144083 14.2227347,3.58144083 C14.2495806,3.58144083 14.2714469,3.60469947 14.2714469,3.6330048 C14.2714469,3.66383347 14.3204838,3.69389416 14.3937686,3.7077177 C14.4638059,3.72110239 14.5160903,3.75204077 14.5160903,3.78023638 C14.5160903,3.81282042 14.5573333,3.82938672 14.638412,3.82938672 C14.7373519,3.82938672 14.7607337,3.84288112 14.7607337,3.90025975 C14.7607337,3.93953613 14.7840073,3.97102307 14.8131264,3.97102307 C14.8419207,3.97102307 14.865519,3.99493997 14.865519,4.0242327 C14.865519,4.05341571 14.8952876,4.07733261 14.9316593,4.07733261 C14.9680311,4.07733261 15.0068926,4.10124952 15.017934,4.13043253 C15.0289755,4.15972525 15.0779041,4.18353245 15.1265081,4.18353245 C15.1842049,4.18353245 15.215056,4.20328035 15.215056,4.24003339 C15.215056,4.27108148 15.2464483,4.30476263 15.2848768,4.31496571 C15.3233053,4.32516879 15.3548058,4.35555862 15.3548058,4.38254742 C15.3548058,4.40942651 15.3710432,4.43147834 15.3908528,4.43147834 C15.4106624,4.43147834 15.477344,4.48732102 15.5391544,4.55545128 C15.6008565,4.62369126 15.6784712,4.67942423 15.7114872,4.67942423 C15.7446115,4.67942423 15.7885607,4.71135001 15.8091281,4.75029726 C15.8296955,4.78924451 15.8695312,4.82117029 15.897676,4.82117029 C15.9258208,4.82117029 15.9488779,4.84508719 15.9488779,4.87427021 C15.9488779,4.90345322 15.9724763,4.92737012 16.0013788,4.92737012 C16.0301731,4.92737012 16.0537715,4.95128703 16.0537715,4.98047004 C16.0537715,5.00998218 16.084839,5.03367967 16.1235923,5.03367967 C16.1753354,5.03367967 16.1935213,5.05726744 16.1935213,5.12452002 C16.1935213,5.18255691 16.2377953,5.25781836 16.315843,5.33242155 C16.3831741,5.39671195 16.4381647,5.46736556 16.4381647,5.48941738 C16.4381647,5.51146921 16.4617631,5.52946174 16.4905574,5.52946174 C16.5194599,5.52946174 16.5430583,5.55173299 16.5430583,5.5788315 C16.5430583,5.60593001 16.5665484,5.63730723 16.5954509,5.64860742 C16.6242452,5.6597979 16.6478436,5.69336933 16.6478436,5.72321061 C16.6478436,5.75381986 16.6782616,5.77740763 16.7177726,5.77740763 C16.772222,5.77740763 16.7875934,5.80110512 16.7875934,5.88481428 C16.7875934,5.94756873 16.8094598,6.00066865 16.8400943,6.01251739 C16.8688886,6.02381758 16.892487,6.0551948 16.892487,6.08229331 C16.892487,6.10939182 16.9239875,6.13166307 16.962416,6.13166307 C17.0189222,6.13166307 17.0322368,6.15525084 17.0322368,6.25563601 C17.0322368,6.33188486 17.049232,6.37960896 17.0764025,6.37960896 C17.1194857,6.37960896 17.1588885,6.43841383 17.2481942,6.6363317 C17.272442,6.68998017 17.312386,6.73375469 17.3369586,6.73375469 C17.3648869,6.73375469 17.3817738,6.7806011 17.3817738,6.85772763 C17.3817738,6.94428927 17.3975782,6.98170058 17.4341664,6.98170058 C17.4707547,6.98170058 17.4865591,7.01911188 17.4865591,7.10567352 C17.4865591,7.2060587 17.4998738,7.22964647 17.5564881,7.22964647 C17.6126695,7.22964647 17.6264172,7.25323424 17.6264172,7.34977955 C17.6264172,7.42394389 17.6464433,7.47781178 17.6788098,7.49031879 C17.7147486,7.50436174 17.7312025,7.56130153 17.7312025,7.67123152 C17.7312025,7.80815031 17.7414862,7.83173809 17.8011315,7.83173809 C17.8616429,7.83173809 17.8710606,7.85532586 17.8710606,8.00881095 C17.8710606,8.14265785 17.883834,8.18588381 17.9234532,8.18588381 C17.9646962,8.18588381 17.9758459,8.23525357 17.9758459,8.41726341 C17.9758459,8.59027698 17.9890523,8.6537994 18.0282385,8.66904917 C18.0643938,8.68298241 18.0808477,8.74058046 18.0810642,8.85380177 C18.0817137,9.1083303 18.1190597,9.28397693 18.1726431,9.28397693 C18.2619488,9.28397693 18.2409484,11.6017225 18.1505602,11.7182351 C18.0990336,11.7845003 18.0807394,11.8618462 18.0807394,12.0121497 C18.0807394,12.1608075 18.0664505,12.2216969 18.0282385,12.2365078 C17.9897018,12.2515382 17.9758459,12.3133052 17.9758459,12.4705205 C17.9758459,12.6368417 17.9642632,12.684127 17.9234532,12.684127 C17.8837257,12.684127 17.8710606,12.7277918 17.8710606,12.8646009 C17.8710606,13.0152335 17.8594779,13.0480369 17.8011315,13.0635061 C17.7486306,13.0774394 17.7312025,13.1117788 17.7312025,13.2018512 C17.7312025,13.2847923 17.7150733,13.3216551 17.6788098,13.3216551 C17.6391906,13.3216551 17.6264172,13.3649908 17.6264172,13.4988377 C17.6264172,13.6523228 17.6171077,13.6759105 17.5564881,13.6759105 C17.5026882,13.6759105 17.4865591,13.6994983 17.4865591,13.7783802 C17.4865591,13.8367462 17.4640432,13.8896267 17.4341664,13.901256 C17.4035319,13.9131048 17.3817738,13.9662047 17.3817738,14.0289592 C17.3817738,14.0985157 17.3641291,14.1363658 17.3316544,14.1363658 C17.304159,14.1363658 17.2721172,14.1667556 17.2604263,14.2039475 C17.2488436,14.2410297 17.2162606,14.2804158 17.188224,14.2913868 C17.1588885,14.302687 17.1371304,14.3571035 17.1371304,14.4185414 C17.1371304,14.4904018 17.1198105,14.525948 17.0847377,14.525948 C17.0497732,14.525948 17.0322368,14.5613846 17.0322368,14.6322576 C17.0322368,14.7058734 17.0151334,14.7384574 16.9765967,14.7384574 C16.9459621,14.7384574 16.9126214,14.7703832 16.9026624,14.8093304 C16.8925952,14.8482777 16.8626102,14.8800938 16.8359809,14.8800938 C16.8093515,14.8800938 16.7875934,14.9040107 16.7875934,14.9333034 C16.7875934,14.9628155 16.7565259,14.9864033 16.7177726,14.9864033 C16.6789111,14.9864033 16.6478436,14.9628155 16.6478436,14.9333034 C16.6478436,14.9040107 16.6260855,14.8800938 16.5994562,14.8800938 C16.5729351,14.8800938 16.54295,14.8482777 16.5328828,14.8093304 C16.5228157,14.7703832 16.4895831,14.7384574 16.4589486,14.7384574 C16.428314,14.7384574 16.4032002,14.7145405 16.4032002,14.6853575 C16.4032002,14.6560648 16.3796018,14.6322576 16.3508075,14.6322576 C16.3220132,14.6322576 16.2984149,14.6083407 16.2984149,14.579048 C16.2984149,14.5498649 16.275899,14.525948 16.2482955,14.525948 C16.2208001,14.525948 16.1882171,14.4940223 16.1760932,14.455075 C16.1605053,14.4054858 16.1231593,14.3843117 16.05139,14.3843117 C15.9836259,14.3843117 15.9488779,14.3663192 15.9488779,14.3311021 C15.9488779,14.3019191 15.9193259,14.2780022 15.8830624,14.2780022 C15.8466906,14.2780022 15.8091281,14.2464055 15.7989527,14.2071291 C15.785638,14.1555652 15.751323,14.1363658 15.6726257,14.1363658 C15.599774,14.1363658 15.5644847,14.1190315 15.5644847,14.0832659 C15.5644847,14.0478294 15.5295202,14.0300563 15.4595911,14.0300563 C15.3933426,14.0300563 15.3548058,14.011954 15.3548058,13.9807962 C15.3548058,13.9272575 15.2816293,13.8884199 15.1809575,13.8884199 C15.1461012,13.8884199 15.1086469,13.864503 15.0974973,13.83532 C15.0858063,13.8042719 15.0334137,13.7821104 14.9714951,13.7821104 C14.9005918,13.7821104 14.865519,13.7645567 14.865519,13.7290105 C14.865519,13.69127 14.8276318,13.6759105 14.7341044,13.6759105 C14.640577,13.6759105 14.5902411,13.6555044 14.5591735,13.6050375 C14.527673,13.5540221 14.4776618,13.5341645 14.3796962,13.5341645 C14.2912565,13.5341645 14.2369154,13.5157331 14.2238172,13.4810646 C14.2100696,13.4446406 14.1538882,13.4279646 14.0454224,13.4279646 C13.9338174,13.4279646 13.8870537,13.4134828 13.8870537,13.378924 C13.8870537,13.3195706 13.7803199,13.2874254 13.5812494,13.2867671 C13.4726754,13.286438 13.4327314,13.2719562 13.4327314,13.2331187 C13.4327314,13.1909898 13.382179,13.1800187 13.188088,13.1800187 C13.00309,13.1800187 12.9434446,13.1680603 12.9434446,13.1309781 C12.9434446,13.0663586 12.8338963,13.0393698 12.5677113,13.0388212 C12.3971105,13.0384921 12.3493725,13.0267531 12.3493725,12.9851728 C12.3493725,12.9413983 12.2857219,12.9320729 11.9860879,12.9320729 C11.6955468,12.9320729 11.6189063,12.9214309 11.6027772,12.8789729 C11.5725756,12.7989939 9.52655577,12.7989939 9.49624597,12.8789729 C9.48033332,12.9212115 9.40596606,12.9320729 9.13469334,12.9320729 C8.88517872,12.9320729 8.7823419,12.9453478 8.75278984,12.9815523 C8.72616052,13.0140267 8.61574624,13.0354202 8.43085645,13.0438679 C8.21403312,13.0538516 8.13923286,13.0709664 8.10502609,13.1184711 C8.0732008,13.1625748 8.01160695,13.1800187 7.88766151,13.1800187 C7.78969591,13.1800187 7.68523534,13.2026191 7.64691509,13.2320216 C7.60956909,13.260656 7.50283529,13.2845729 7.4097409,13.2851215 C7.27042406,13.2861089 7.23729978,13.2988353 7.22225312,13.3570916 C7.20709822,13.4157868 7.17451519,13.4279646 7.03324986,13.4279646 C6.90486621,13.4279646 6.86264898,13.4411299 6.86264898,13.4810646 C6.86264898,13.5205604 6.82151425,13.5341645 6.70211528,13.5341645 C6.57091714,13.5341645 6.53822586,13.54722 6.52328746,13.6050375 C6.5095398,13.6582471 6.47554952,13.6759105 6.3867851,13.6759105 C6.30494864,13.6759105 6.26846863,13.6922574 6.26846863,13.7290105 C6.26846863,13.7660926 6.23166387,13.7821104 6.14614693,13.7821104 C6.06073824,13.7821104 6.02382523,13.7981281 6.02382523,13.83532 C6.02382523,13.8700982 5.98940196,13.8884199 5.92369464,13.8884199 C5.868704,13.8884199 5.78362006,13.920236 5.73479963,13.9592929 C5.68587095,13.9982402 5.62254511,14.0300563 5.5939673,14.0300563 C5.56538949,14.0300563 5.53302295,14.0539732 5.52198152,14.0832659 C5.51094009,14.1124489 5.46060417,14.1363658 5.41016,14.1363658 C5.34780841,14.1363658 5.31251914,14.1590759 5.30007048,14.2071291 C5.28718881,14.2573766 5.25244079,14.2780022 5.1811045,14.2780022 C5.11474769,14.2780022 5.08032442,14.2962141 5.08032442,14.3311021 C5.08032442,14.3606142 5.04925687,14.3843117 5.01039537,14.3843117 C4.96384818,14.3843117 4.94046633,14.4078995 4.94046633,14.455075 C4.94046633,14.4940223 4.91881647,14.525948 4.89240365,14.525948 C4.86588257,14.525948 4.82463959,14.5498649 4.8007165,14.579048 C4.77679341,14.6083407 4.73349369,14.6322576 4.70448288,14.6322576 C4.67547207,14.6322576 4.59980582,14.6879906 4.53637173,14.7562305 C4.47293765,14.8243608 4.40419935,14.8800938 4.38374023,14.8800938 C4.36317287,14.8800938 4.34639423,14.9040107 4.34639423,14.9333034 C4.34639423,14.9928762 4.34000752,14.9952899 4.26185153,14.9649 C4.23143348,14.9530513 4.20664439,14.9069729 4.20664439,14.8624304 C4.20664439,14.8178879 4.18304605,14.7722483 4.15414349,14.7610578 C4.12534918,14.7498673 4.10175083,14.7162959 4.10175083,14.6864546 C4.10175083,14.6566133 4.07891023,14.6322576 4.05098191,14.6322576 C4.02045561,14.6322576 3.99090356,14.582449 3.9771559,14.5082846 C3.96405773,14.4371922 3.93342318,14.3843117 3.90571137,14.3843117 C3.87540156,14.3843117 3.85710743,14.3455839 3.85710743,14.281842 C3.85710743,14.2254508 3.83502458,14.1707052 3.80796226,14.1602827 C3.78100818,14.1497505 3.7483169,14.0922622 3.73532698,14.0324699 C3.72233707,13.9726776 3.68942928,13.9238564 3.66215046,13.9238564 C3.63021692,13.9238564 3.61246404,13.8855674 3.61246404,13.8164498 C3.61246404,13.7536953 3.59070593,13.7005954 3.56007138,13.6887467 C3.52965333,13.6768979 3.50767872,13.6239077 3.50767872,13.5625795 C3.50767872,13.4865501 3.48797735,13.4515524 3.43774968,13.4382774 C3.38524878,13.4243442 3.36782064,13.3898951 3.36782064,13.2998227 C3.36782064,13.2169912 3.3516915,13.1800187 3.31542798,13.1800187 C3.27580874,13.1800187 3.26303533,13.1366831 3.26303533,13.0029459 C3.26303533,12.869099 3.25026191,12.825873 3.21064267,12.825873 C3.17178118,12.825873 3.15814177,12.7845121 3.15814177,12.6661344 C3.15814177,12.5501704 3.13898164,12.4897198 3.08832097,12.4457259 C3.03051585,12.3954785 3.01839193,12.3412814 3.01839193,12.131076 C3.01839193,11.9379854 3.00583501,11.872159 2.96599928,11.8566898 C2.9243233,11.8404527 2.91360662,11.7647524 2.91360662,11.4865264 C2.91360662,11.1816407 2.90462193,11.1284311 2.84367758,11.0725884 C2.75361417,10.990086 2.73358805,9.88606854 2.82213597,9.88606854 C2.89195676,9.88606854 2.91252413,9.77153071 2.91306537,9.37876686 C2.91339012,9.11732657 2.92659653,9.01770937 2.96599928,8.97777472 C3.00042255,8.94288676 3.01839193,8.85467946 3.01839193,8.7201743 C3.01839193,8.56065513 3.03376333,8.50163084 3.08832097,8.45160282 C3.1377909,8.40618264 3.15814177,8.3424408 3.15814177,8.23360791 C3.15814177,8.1203866 3.17210592,8.07968398 3.21064267,8.07968398 C3.25026191,8.07968398 3.26303533,8.0363483 3.26303533,7.90261112 C3.26303533,7.76876422 3.27580874,7.72553825 3.31542798,7.72553825 C3.35136675,7.72553825 3.36782064,7.68900463 3.36782064,7.60935476 C3.36782064,7.5371652 3.39423347,7.47035146 3.43774968,7.43261103 C3.47617818,7.39925901 3.50767872,7.33365209 3.50767872,7.28691539 C3.50767872,7.24006897 3.53127707,7.1925643 3.56007138,7.18137382 C3.59254617,7.1687571 3.61246404,7.11488921 3.61246404,7.03973747 C3.61246404,6.97040039 3.6328149,6.91049842 3.65976898,6.90007591 C3.71389362,6.87901148 3.85710743,6.61603524 3.85710743,6.5378116 C3.85710743,6.50928686 3.87951504,6.48580879 3.90679386,6.48580879 C3.93407268,6.48580879 3.96654747,6.43929151 3.97877964,6.38257115 C3.99112006,6.32574107 4.02381134,6.27044694 4.05152316,6.25969531 C4.07912673,6.24894367 4.10175083,6.21745674 4.10175083,6.18969996 C4.10175083,6.16194319 4.12534918,6.13001741 4.15414349,6.11882693 C4.18488629,6.10686848 4.20664439,6.05387827 4.20664439,5.99101412 C4.20664439,5.90730495 4.22201579,5.88371718 4.27646519,5.88371718 C4.31532668,5.88371718 4.34639423,5.8601294 4.34639423,5.83061726 C4.34639423,5.80132454 4.36999257,5.77740763 4.39878688,5.77740763 C4.42790594,5.77740763 4.45128779,5.7459207 4.45128779,5.70664431 C4.45128779,5.66769706 4.47358714,5.63577128 4.50086596,5.63577128 C4.52814479,5.63577128 4.56094432,5.58793747 4.57360949,5.52946174 C4.58627465,5.47109572 4.61896594,5.42326191 4.64624476,5.42326191 C4.67352358,5.42326191 4.69582294,5.39133613 4.69582294,5.35238888 C4.69582294,5.31311249 4.71920478,5.28162556 4.74832384,5.28162556 C4.77711815,5.28162556 4.8007165,5.25770865 4.8007165,5.22841593 C4.8007165,5.19890379 4.83178404,5.17531601 4.87064554,5.17531601 C4.91719273,5.17531601 4.94046633,5.15172824 4.94046633,5.10444299 C4.94046633,5.0651666 4.96384818,5.03367967 4.99296724,5.03367967 C5.02176155,5.03367967 5.04535989,5.00976276 5.04535989,4.98047004 C5.04535989,4.9509579 5.07642744,4.92737012 5.11528894,4.92737012 C5.15371743,4.92737012 5.18510973,4.90520859 5.18510973,4.87800036 C5.18510973,4.85090185 5.20870807,4.81952463 5.23750239,4.80833415 C5.26640495,4.79714367 5.29000329,4.76357224 5.29000329,4.73373096 C5.29000329,4.703012 5.32042134,4.67942423 5.35982408,4.67942423 C5.39868558,4.67942423 5.42975313,4.65583646 5.42975313,4.62632431 C5.42975313,4.5971413 5.45335147,4.5732244 5.48214578,4.5732244 C5.51104834,4.5732244 5.53497144,4.5452482 5.53551268,4.51123792 C5.53637868,4.4528719 5.74746479,4.3252785 5.84315717,4.3252785 C5.86567302,4.3252785 5.8840754,4.29335273 5.8840754,4.25440548 C5.8840754,4.20722993 5.90734899,4.18353245 5.95400444,4.18353245 C5.99243294,4.18353245 6.02382523,4.16137091 6.02382523,4.1342724 C6.02382523,4.10717389 6.06322797,4.07502869 6.11129066,4.06274111 C6.15924509,4.05056323 6.19864783,4.02489096 6.19864783,4.00580132 C6.19864783,3.98671168 6.23155562,3.97102307 6.27182436,3.97102307 C6.31555707,3.97102307 6.35225358,3.94260803 6.36318676,3.90025975 C6.37596017,3.85088999 6.41092469,3.82938672 6.47847225,3.82938672 C6.53248865,3.82938672 6.58444831,3.80579895 6.59570623,3.7762868 C6.60674766,3.74699408 6.63987194,3.72318689 6.66931575,3.72318689 C6.6995173,3.72318689 6.7227909,3.69224851 6.7227909,3.65231386 C6.7227909,3.59493523 6.7460645,3.58144083 6.8451126,3.58144083 C6.93052129,3.58144083 6.9674343,3.56542308 6.9674343,3.52834091 C6.9674343,3.49125874 7.0043473,3.47524099 7.08975599,3.47524099 C7.18880409,3.47524099 7.21207769,3.46174659 7.21207769,3.40436797 C7.21207769,3.34698934 7.23535129,3.33349494 7.33439939,3.33349494 C7.41980808,3.33349494 7.45672109,3.31747719 7.45672109,3.28039502 C7.45672109,3.24232545 7.49504134,3.2272951 7.5922492,3.2272951 C7.67008044,3.2272951 7.74628794,3.20469472 7.77118528,3.17408548 C7.79521662,3.14490246 7.86146518,3.12098556 7.91862081,3.12098556 C7.99298807,3.12098556 8.02762785,3.10090852 8.04072601,3.05022224 C8.05577266,2.99185622 8.0883557,2.97934921 8.22594055,2.97934921 C8.34198378,2.97934921 8.39892291,2.96322176 8.41288707,2.92624929 C8.42782547,2.88697291 8.48909457,2.87303967 8.64713853,2.87303967 C8.83170357,2.87303967 8.86363712,2.86338514 8.87944151,2.80227635 C8.8961119,2.7374374 8.9270712,2.73140332 9.24305088,2.73140332 C9.52677227,2.73140332 9.58847436,2.72196821 9.58847436,2.6783034 C9.58847436,2.63233467 9.71674977,2.62509377 10.5331659,2.62509377 C11.3405974,2.62509377 11.4807802,2.63288323 11.4979918,2.6783034 M10.0904263,4.37837842 C10.0748384,4.41951989 10.0070744,4.43147834 9.79111704,4.43147834 C9.54149417,4.43147834 9.51010188,4.43893866 9.49375623,4.50235137 C9.47860133,4.56104652 9.44612655,4.5732244 9.30486122,4.5732244 C9.17647756,4.5732244 9.13415209,4.58638967 9.13415209,4.62632431 C9.13415209,4.66340649 9.09723908,4.67942423 9.01183039,4.67942423 C8.91289054,4.67942423 8.8895087,4.69291863 8.8895087,4.75029726 C8.8895087,4.80767589 8.8662351,4.82117029 8.767187,4.82117029 C8.68177831,4.82117029 8.6448653,4.83718803 8.6448653,4.87427021 C8.6448653,4.90345322 8.62299894,4.92737012 8.59626137,4.92737012 C8.56941554,4.92737012 8.53910574,4.94975108 8.52871381,4.97717872 C8.51832188,5.00460636 8.46159925,5.03773896 8.40260339,5.05079452 C8.34371577,5.06395978 8.29543659,5.0973118 8.29543659,5.12495886 C8.29543659,5.15271564 8.27140525,5.17531601 8.24196144,5.17531601 C8.21251763,5.17531601 8.17939335,5.19923292 8.16824367,5.22841593 C8.15720225,5.25770865 8.12624295,5.28162556 8.09950537,5.28162556 C8.0727678,5.28162556 8.05079319,5.31344162 8.05079319,5.35238888 C8.05079319,5.39177497 8.0275196,5.42326191 7.99840054,5.42326191 C7.96960623,5.42326191 7.94600788,5.44717881 7.94600788,5.47636182 C7.94600788,5.50587397 7.91494033,5.52946174 7.87607884,5.52946174 C7.82953164,5.52946174 7.8061498,5.55315922 7.8061498,5.60033477 C7.8061498,5.63972086 7.7828762,5.6712078 7.75375714,5.6712078 C7.72496283,5.6712078 7.70136448,5.6951247 7.70136448,5.72430772 C7.70136448,5.75349073 7.66986394,5.80933341 7.63143544,5.84828066 C7.59300694,5.88722791 7.5615064,5.9430706 7.5615064,5.97225361 C7.5615064,6.00143662 7.53790806,6.02535352 7.50911374,6.02535352 C7.47252548,6.02535352 7.45672109,6.06276483 7.45672109,6.14932647 C7.45672109,6.24971164 7.44340643,6.27329942 7.38679205,6.27329942 C7.33028592,6.27329942 7.31697125,6.29688719 7.31697125,6.39727236 C7.31697125,6.483834 7.30105861,6.52124531 7.26447035,6.52124531 C7.22820684,6.52124531 7.21207769,6.55821777 7.21207769,6.64137838 C7.21207769,6.71554273 7.19205157,6.76941062 7.15968503,6.78202734 C7.1191998,6.79771595 7.10718413,6.86617535 7.10718413,7.08274401 C7.10718413,7.33321325 7.09982318,7.36502932 7.03736334,7.38159561 C6.97111477,7.3991493 6.9674343,7.42986826 6.9674343,7.96766949 C6.9674343,8.50426389 6.97122302,8.53662851 7.03736334,8.55780265 C7.09819944,8.57744084 7.10718413,8.61145112 7.10718413,8.82154687 C7.10718413,8.99269536 7.12244728,9.07552684 7.15968503,9.10679435 C7.18847935,9.13104039 7.21207769,9.20531445 7.21207769,9.27168934 C7.21207769,9.34629253 7.23210381,9.40016042 7.26447035,9.41277714 C7.2940224,9.42429675 7.31697125,9.47695782 7.31697125,9.53323934 C7.31697125,9.60224729 7.33862111,9.64031686 7.38679205,9.65578605 C7.43582897,9.67158438 7.45672109,9.70943452 7.45672109,9.78217263 C7.45672109,9.85085145 7.47447397,9.88606854 7.50911374,9.88606854 C7.53790806,9.88606854 7.5615064,9.91689721 7.5615064,9.95452794 C7.5615064,9.99215867 7.59300694,10.0330807 7.63143544,10.045478 C7.67495166,10.0594112 7.70136448,10.0990168 7.70136448,10.1502516 C7.70136448,10.1955621 7.72496283,10.2418599 7.75375714,10.2530504 C7.78255145,10.2642409 7.8061498,10.2978123 7.8061498,10.3276536 C7.8061498,10.3582628 7.83656785,10.3819603 7.87607884,10.3819603 C7.91450734,10.3819603 7.94600788,10.4041219 7.94600788,10.4312204 C7.94600788,10.4584286 7.96960623,10.4898058 7.99840054,10.5009963 C8.02719485,10.5121868 8.05079319,10.5457582 8.05079319,10.5755995 C8.05079319,10.6054408 8.0727678,10.6299062 8.09950537,10.6299062 C8.12624295,10.6299062 8.15720225,10.6537134 8.16824367,10.6830061 C8.17939335,10.7121891 8.21251763,10.7361061 8.24196144,10.7361061 C8.27140525,10.7361061 8.29543659,10.7582676 8.29543659,10.7854758 C8.29543659,10.8395631 8.36882961,10.8777424 8.47307368,10.8777424 C8.50987843,10.8777424 8.54007999,10.9016593 8.54007999,10.930952 C8.54007999,10.960135 8.56367833,10.9840519 8.59247264,10.9840519 C8.6213752,10.9840519 8.6448653,11.0062135 8.6448653,11.0334217 C8.6448653,11.087509 8.71836657,11.1256883 8.82250238,11.1256883 C8.85941539,11.1256883 8.8895087,11.1496052 8.8895087,11.1788979 C8.8895087,11.2159801 8.9264217,11.2319978 9.01183039,11.2319978 C9.09215137,11.2319978 9.13415209,11.2486738 9.13415209,11.2804899 C9.13415209,11.3119768 9.19130772,11.3355646 9.29674253,11.3476328 C9.39449164,11.3587135 9.47178163,11.3887742 9.49061701,11.4230039 C9.51562259,11.4683144 9.58252065,11.4799437 9.81742161,11.4799437 C10.0565443,11.4799437 10.1127257,11.4900371 10.1127257,11.5330436 C10.1127257,11.5771473 10.1802732,11.5861436 10.5108666,11.5861436 C10.8325835,11.5861436 10.9129044,11.5759405 10.9291418,11.5330436 C10.944838,11.4916828 11.0140093,11.4799437 11.2420905,11.4799437 C11.4846772,11.4799437 11.5486525,11.4677659 11.6154423,11.4090707 C11.661773,11.3683681 11.7462075,11.3381977 11.8140798,11.3381977 C11.8868233,11.3381977 11.9398654,11.3177915 11.9523141,11.2850978 C11.9646545,11.2522943 12.0178049,11.2319978 12.0909815,11.2319978 C12.1730344,11.2319978 12.2095144,11.215651 12.2095144,11.1788979 C12.2095144,11.1493858 12.240582,11.1256883 12.2794435,11.1256883 C12.317872,11.1256883 12.3807648,11.0938722 12.4191933,11.054925 C12.4576218,11.015868 12.5127207,10.9840519 12.541515,10.9840519 C12.5704176,10.9840519 12.5940159,10.960135 12.5940159,10.930952 C12.5940159,10.9016593 12.617506,10.8777424 12.6464086,10.8777424 C12.6755276,10.8777424 12.6988012,10.8462555 12.6988012,10.8069791 C12.6988012,10.7605715 12.7220748,10.7361061 12.7662405,10.7361061 C12.8032618,10.7361061 12.8571699,10.7121891 12.8860725,10.6830061 C12.9148668,10.6537134 12.9613058,10.6299062 12.9892341,10.6299062 C13.0172706,10.6299062 13.0483382,10.5979804 13.0584054,10.5590332 C13.0684726,10.5200859 13.1017051,10.4881602 13.1323396,10.4881602 C13.1687114,10.4881602 13.188088,10.4568926 13.188088,10.3985266 C13.188088,10.3491569 13.2116864,10.2996774 13.2404807,10.2884869 C13.269275,10.2772964 13.2928733,10.2379103 13.2928733,10.2010476 C13.2928733,10.1576022 13.3175542,10.1340144 13.3628024,10.1340144 C13.4016639,10.1340144 13.4327314,10.1104267 13.4327314,10.0808048 C13.4327314,10.0516218 13.4563298,10.0277049 13.4851241,10.0277049 C13.5217123,10.0277049 13.5375167,9.99029359 13.5375167,9.90373195 C13.5375167,9.80345648 13.5508314,9.779759 13.6074458,9.779759 C13.6477145,9.779759 13.6773748,9.75617123 13.6773748,9.72413574 C13.6773748,9.69352649 13.7009732,9.64459557 13.7297675,9.61530285 C13.7585618,9.58611984 13.7821601,9.50142328 13.7821601,9.42725893 C13.7821601,9.32193678 13.7976398,9.28814593 13.8520892,9.27366413 C13.9091365,9.25852407 13.92191,9.22539148 13.92191,9.09242227 C13.92191,8.97141151 13.9354411,8.92972149 13.9744109,8.92972149 C14.0182518,8.92972149 14.0268035,8.85577656 14.0268035,8.47639741 C14.0268035,8.197184 14.0414172,8.0082624 14.064799,7.9844552 C14.0921861,7.95680814 14.0921861,7.93936416 14.064799,7.92224931 C14.0407677,7.90710925 14.0268035,7.73650931 14.0268035,7.45663764 C14.0268035,7.09667726 14.0170611,7.01110301 13.9744109,6.99453671 C13.9385803,6.98060347 13.92191,6.9237734 13.92191,6.81515993 C13.92191,6.68603059 13.9088118,6.65278828 13.8520892,6.63775794 C13.7954748,6.62272759 13.7821601,6.58948528 13.7821601,6.46287928 C13.7821601,6.35656974 13.7653815,6.29995909 13.7297675,6.28613555 C13.7009732,6.27494507 13.6773748,6.23665609 13.6773748,6.20110986 C13.6773748,6.16545392 13.6458743,6.12628725 13.6074458,6.11388996 C13.5624141,6.09940816 13.5375167,6.0603512 13.5375167,6.00417938 C13.5375167,5.95612615 13.5139184,5.90774379 13.4851241,5.89655331 C13.4563298,5.88525312 13.4327314,5.8538759 13.4327314,5.82677739 C13.4327314,5.79967888 13.4012309,5.77740763 13.3628024,5.77740763 C13.3112757,5.77740763 13.2928733,5.75381986 13.2928733,5.68777409 C13.2928733,5.63851405 13.269275,5.58892487 13.2404807,5.57773439 C13.2116864,5.56654391 13.188088,5.52715782 13.188088,5.49029507 C13.188088,5.45343231 13.1736909,5.42326191 13.1561545,5.42326191 C13.1385098,5.42326191 13.0674983,5.36741923 12.9982188,5.29928896 C12.9229855,5.22523432 12.8373603,5.17531601 12.7855089,5.17531601 C12.7220748,5.17531601 12.6988012,5.15633609 12.6988012,5.10444299 C12.6988012,5.0651666 12.6755276,5.03367967 12.6464086,5.03367967 C12.617506,5.03367967 12.5940159,5.00976276 12.5940159,4.98047004 C12.5940159,4.95128703 12.5642474,4.92737012 12.5277673,4.92737012 C12.4913956,4.92737012 12.4526423,4.90345322 12.4414927,4.87427021 C12.4304512,4.84508719 12.3827133,4.82117029 12.3353001,4.82117029 C12.2798765,4.82117029 12.2413397,4.79582715 12.2270508,4.75029726 C12.2113547,4.70048866 12.1741169,4.67942423 12.1012651,4.67942423 C12.0414033,4.67942423 11.9891189,4.65704327 11.9775362,4.62632431 C11.9634638,4.58913243 11.9061999,4.5732244 11.7864762,4.5732244 C11.6636133,4.5732244 11.6154423,4.55929115 11.6154423,4.52385464 C11.6154423,4.45265248 11.5358791,4.43147834 11.2668796,4.43147834 C11.0875105,4.43147834 11.02386,4.41842278 11.0087051,4.37837842 C10.9922512,4.33504275 10.9076002,4.3252785 10.5495116,4.3252785 C10.1915312,4.3252785 10.106772,4.33504275 10.0904263,4.37837842 M10.9641063,6.68065477 C10.9751478,6.70983778 11.0161743,6.73375469 11.055144,6.73375469 C11.094222,6.73375469 11.1576561,6.76568046 11.1960846,6.80462772 C11.2345131,6.84357497 11.2974059,6.87539103 11.3358344,6.87539103 C11.3746959,6.87539103 11.4057635,6.89908852 11.4057635,6.92860066 C11.4057635,6.95778367 11.4275216,6.98170058 11.4541509,6.98170058 C11.480672,6.98170058 11.510657,7.01351664 11.5207242,7.05257361 C11.5307914,7.09152086 11.5640239,7.12333693 11.5946585,7.12333693 C11.6333035,7.12333693 11.6504068,7.15603068 11.6504068,7.22964647 C11.6504068,7.30040979 11.667835,7.3358463 11.7027995,7.3358463 C11.7393878,7.3358463 11.7551922,7.37325761 11.7551922,7.45981925 C11.7551922,7.54638089 11.7709966,7.5837922 11.8076931,7.5837922 C11.8508845,7.5837922 11.8600857,7.64874085 11.8600857,7.95571103 C11.8600857,8.26268121 11.8508845,8.32762987 11.8076931,8.32762987 C11.7709966,8.32762987 11.7551922,8.36504118 11.7551922,8.45160282 C11.7551922,8.53816446 11.7393878,8.57557576 11.7027995,8.57557576 C11.6662112,8.57557576 11.6504068,8.61298707 11.6504068,8.69954871 C11.6504068,8.79982417 11.6370922,8.82352166 11.5804778,8.82352166 C11.5416163,8.82352166 11.5105488,8.84710943 11.5105488,8.87662157 C11.5105488,8.90580458 11.4870587,8.92972149 11.4581561,8.92972149 C11.4293618,8.92972149 11.4057635,8.95287042 11.4057635,8.98128546 C11.4057635,9.01211413 11.3566183,9.04217483 11.2834418,9.05599836 C11.2134045,9.06938305 11.1611201,9.10032143 11.1611201,9.12851705 C11.1611201,9.15967485 11.1222586,9.17766738 11.055144,9.17766738 C10.9932254,9.17766738 10.940941,9.19971921 10.9291418,9.2307673 C10.9129044,9.27377384 10.832367,9.28397693 10.5097841,9.28397693 C10.1870929,9.28397693 10.1066637,9.27377384 10.0904263,9.2307673 C10.0779777,9.19807355 10.0248273,9.17766738 9.95165073,9.17766738 C9.86851528,9.17766738 9.83311776,9.16143022 9.83311776,9.12347036 C9.83311776,9.09362908 9.80951941,9.06005765 9.7807251,9.04875746 C9.75182254,9.03756698 9.72833245,9.00618976 9.72833245,8.97909125 C9.72833245,8.95199274 9.6968319,8.92972149 9.65840341,8.92972149 C9.61954191,8.92972149 9.58847436,8.90613372 9.58847436,8.87662157 C9.58847436,8.84743856 9.56487602,8.82352166 9.53608171,8.82352166 C9.50696265,8.82352166 9.48368905,8.79203472 9.48368905,8.75264863 C9.48368905,8.71370137 9.46182269,8.6817756 9.43508512,8.6817756 C9.4073733,8.6817756 9.37673875,8.62878539 9.36364059,8.55780265 C9.34989293,8.4836383 9.32034087,8.43382971 9.28981457,8.43382971 C9.2479221,8.43382971 9.23904565,8.35055938 9.23904565,7.95571103 C9.23904565,7.5609724 9.2479221,7.47759236 9.28981457,7.47759236 C9.32034087,7.47759236 9.34989293,7.42778376 9.36364059,7.35361942 C9.37673875,7.28263668 9.4073733,7.22964647 9.43508512,7.22964647 C9.46182269,7.22964647 9.48368905,7.20737522 9.48368905,7.18027671 C9.48368905,7.1531782 9.5072874,7.12180098 9.53608171,7.1106105 C9.56487602,7.09931031 9.58847436,7.06573888 9.58847436,7.0358976 C9.58847436,7.00528835 9.61889241,6.98170058 9.65840341,6.98170058 C9.6972649,6.98170058 9.72833245,6.95811281 9.72833245,6.92860066 C9.72833245,6.89930794 9.75182254,6.87539103 9.7807251,6.87539103 C9.80984416,6.87539103 9.83311776,6.8439041 9.83311776,6.80462772 C9.83311776,6.74724909 9.85639136,6.73375469 9.95543946,6.73375469 C10.0408481,6.73375469 10.0777612,6.71773694 10.0777612,6.68065477 C10.0777612,6.63622199 10.1492057,6.62744514 10.5108666,6.62744514 C10.863651,6.62744514 10.9476525,6.63731909 10.9641063,6.68065477 M10.8116913,15.0351148 C10.8116913,15.1052199 10.971792,15.1280397 11.4625943,15.1280397 C11.823714,15.1280397 11.8950502,15.1368165 11.8950502,15.1812493 C11.8950502,15.2232684 11.9450614,15.2343492 12.1359049,15.2343492 C12.309645,15.2343492 12.3820638,15.248063 12.3954867,15.283719 C12.4069611,15.3139991 12.4951843,15.3425238 12.6238927,15.3576639 C12.7539001,15.3730234 12.840716,15.4013287 12.852407,15.4322671 C12.8655051,15.4668259 12.9299135,15.4822951 13.0603539,15.4822951 C13.1858148,15.4822951 13.264079,15.5001779 13.2928733,15.535395 C13.3167964,15.564578 13.3895399,15.5884949 13.4544895,15.5884949 C13.531996,15.5884949 13.5724812,15.6053904 13.5724812,15.6378647 C13.5724812,15.6996317 13.6485805,15.730241 13.802511,15.730241 C13.8854299,15.730241 13.92191,15.7464782 13.92191,15.7833409 C13.92191,15.8200939 13.95839,15.8364408 14.0402264,15.8364408 C14.1290991,15.8364408 14.1629811,15.8541042 14.1767288,15.9073139 C14.1888527,15.9541603 14.2243585,15.9781869 14.2819471,15.9781869 C14.329685,15.9781869 14.377856,16.0019941 14.3888974,16.0312868 C14.4006966,16.0623349 14.4530892,16.0843867 14.5150078,16.0843867 C14.5858029,16.0843867 14.6208756,16.1019404 14.6208756,16.1374866 C14.6208756,16.1669988 14.6519432,16.1906963 14.6908047,16.1906963 C14.7373519,16.1906963 14.7607337,16.214284 14.7607337,16.2614596 C14.7607337,16.3074283 14.7840073,16.3323326 14.826874,16.3323326 C14.8632458,16.3323326 14.9021073,16.3562495 14.9131487,16.3854325 C14.9241901,16.4147252 14.9730106,16.4385324 15.0217227,16.4385324 C15.0906775,16.4385324 15.1101624,16.456525 15.1101624,16.5200474 C15.1101624,16.5648093 15.1289978,16.620652 15.1520549,16.6440203 C15.1847462,16.6770432 15.1761945,16.6864783 15.1138429,16.6864783 C15.063074,16.6864783 15.027027,16.7124797 15.0154443,16.7573514 C15.0053771,16.796518 14.9678146,16.8282244 14.9313346,16.8282244 C14.8951793,16.8282244 14.865519,16.8521413 14.865519,16.8813243 C14.865519,16.9105073 14.8365082,16.9344242 14.8010024,16.9344242 C14.7654967,16.9344242 14.7002224,16.96635 14.6558401,17.0052973 C14.6115662,17.0442445 14.561988,17.0761703 14.5456424,17.0761703 C14.529405,17.0761703 14.5160903,17.1000872 14.5160903,17.1292702 C14.5160903,17.1663524 14.4791773,17.1823701 14.3937686,17.1823701 C14.3113909,17.1823701 14.2714469,17.1988267 14.2714469,17.2327273 C14.2714469,17.2603743 14.2231677,17.2937263 14.1642801,17.3068916 C14.1052843,17.3199472 14.0485616,17.3531895 14.0381697,17.3805074 C14.0277778,17.4079351 13.9738696,17.430316 13.9182295,17.430316 C13.8516562,17.430316 13.8171246,17.4484183 13.8171246,17.4834159 C13.8171246,17.5191816 13.7818354,17.5366256 13.7089836,17.5366256 C13.6302864,17.5366256 13.5959713,17.5558249 13.5826567,17.6073889 C13.568909,17.6605985 13.5349187,17.6782619 13.4460461,17.6782619 C13.3643179,17.6782619 13.3278379,17.6946088 13.3278379,17.7313618 C13.3278379,17.7714062 13.2855124,17.7844617 13.1569122,17.7844617 C13.0370803,17.7844617 12.9798164,17.8004795 12.965744,17.8376714 C12.9545943,17.8670738 12.9022016,17.8909907 12.8484017,17.8912101 C12.6977187,17.8919781 12.5940159,17.9296088 12.5940159,17.9834767 C12.5940159,18.02012 12.536752,18.0324076 12.3657182,18.0324076 C12.195009,18.0324076 12.1323327,18.0457923 12.117286,18.0856173 C12.1019146,18.1263199 12.0350166,18.1388269 11.8301007,18.139156 C11.5168272,18.1397046 11.4057635,18.1638409 11.4057635,18.2314226 C11.4057635,18.3219338 9.74749257,18.3013082 9.65028471,18.2095902 C9.58793312,18.1506756 9.52698877,18.1387172 9.28862383,18.1387172 C9.06595504,18.1387172 8.99732499,18.1268684 8.98173709,18.0856173 C8.96669044,18.0457923 8.9040141,18.0324076 8.73341322,18.0324076 C8.56302884,18.0324076 8.50511547,18.02012 8.50511547,17.9836961 C8.50511547,17.9330098 8.35973667,17.8907713 8.18513056,17.8907713 C8.12710894,17.8907713 8.07493279,17.8679515 8.06345836,17.8376714 C8.05100969,17.8048679 7.99796754,17.7844617 7.92479102,17.7844617 C7.84262981,17.7844617 7.8061498,17.7681149 7.8061498,17.7313618 C7.8061498,17.6912077 7.76349958,17.6782619 7.63143544,17.6782619 C7.47999469,17.6782619 7.45672109,17.6688268 7.45672109,17.6073889 C7.45672109,17.55012 7.43344749,17.5366256 7.33439939,17.5366256 C7.2489907,17.5366256 7.21207769,17.5204981 7.21207769,17.4834159 C7.21207769,17.4463338 7.17516468,17.430316 7.08975599,17.430316 C6.99070789,17.430316 6.9674343,17.4168216 6.9674343,17.359443 C6.9674343,17.3204957 6.94903192,17.2886797 6.92651606,17.2886797 C6.85095806,17.2886797 6.61973757,17.1651456 6.61887158,17.1243332 C6.61833033,17.1021717 6.5629067,17.0735372 6.49568389,17.0607011 C6.42239912,17.0468776 6.37336219,17.0168169 6.37336219,16.9859882 C6.37336219,16.9576829 6.34186165,16.9344242 6.30343315,16.9344242 C6.26457165,16.9344242 6.23350411,16.9108365 6.23350411,16.8813243 C6.23350411,16.8458878 6.19864783,16.8282244 6.12871879,16.8282244 C6.04720708,16.8282244 6.02382523,16.8124261 6.02382523,16.7573514 C6.02382523,16.7101758 6.00055163,16.6864783 5.95400444,16.6864783 C5.91514294,16.6864783 5.8840754,16.6628906 5.8840754,16.6333784 C5.8840754,16.6041954 5.90918923,16.5802785 5.93982378,16.5802785 C5.97035008,16.5802785 6.00369086,16.5483527 6.01375805,16.5094055 C6.02382523,16.4704582 6.05381028,16.4385324 6.08033136,16.4385324 C6.10696069,16.4385324 6.12871879,16.4147252 6.12871879,16.3854325 C6.12871879,16.3560301 6.15978634,16.3323326 6.19832309,16.3323326 C6.23653509,16.3323326 6.2875205,16.3004068 6.31155184,16.2614596 C6.33558319,16.2225123 6.38288813,16.1906963 6.41666191,16.1906963 C6.45054393,16.1906963 6.4781475,16.1667794 6.4781475,16.1374866 C6.4781475,16.1019404 6.51322027,16.0843867 6.58412356,16.0843867 C6.64604215,16.0843867 6.69843481,16.0623349 6.71012573,16.0312868 C6.72127541,16.0019941 6.76002865,15.9781869 6.79640042,15.9781869 C6.83288043,15.9781869 6.89404128,15.9462611 6.93246977,15.9073139 C6.97133127,15.8679278 7.04894601,15.8364408 7.10718413,15.8364408 C7.17711317,15.8364408 7.21207769,15.8187774 7.21207769,15.7833409 C7.21207769,15.7475753 7.24736696,15.730241 7.32021873,15.730241 C7.39891597,15.730241 7.43323099,15.7109319 7.44654565,15.659368 C7.46170056,15.6006728 7.49428359,15.5884949 7.63554892,15.5884949 C7.76393257,15.5884949 7.8061498,15.5753297 7.8061498,15.535395 C7.8061498,15.4952409 7.84890827,15.4822951 7.9809724,15.4822951 C8.11292829,15.4822951 8.15568676,15.4692395 8.15568676,15.4290855 C8.15568676,15.392881 8.19173377,15.3758758 8.26924026,15.3756564 C8.47523866,15.3748884 8.6448653,15.332979 8.6448653,15.2828413 C8.6448653,15.2457591 8.71133036,15.2343492 8.92555571,15.2343492 C9.14281204,15.2343492 9.21079259,15.222281 9.22638049,15.1812493 C9.24272613,15.138133 9.3243461,15.1280397 9.65688792,15.1280397 C10.0498328,15.1280397 10.28744,15.0866788 10.28744,15.0183291 C10.28744,15.0007754 10.4054318,14.9864033 10.5495116,14.9864033 C10.7486903,14.9864033 10.8116913,14.9981423 10.8116913,15.0351148" id="path-1"></path>
    </defs>
    <g id="Material-Components" stroke="none" stroke-width="1" fill="none" fill-rule="evenodd">
        <g id="Navigation" transform="translate(-206.000000, -1215.000000)">
            <g id="Bottom-Navigation-/-Primary-Color-/-Active-/-Resting-Copy-6" transform="translate(81.000000, 1185.000000)">
                <g id="Bottom-Navigation-/-4-up-/-Primary-Color-Copy-4">
                    <g id="Nav_bottom-/-Icon_with_text-/-Profiles-/-Inactive-Copy" transform="translate(125.000000, 30.000000)">
                        <mask id="mask-2" fill="white">
                            <use xlink:href="#path-1"></use>
                        </mask>
                        <g id="Profiles"></g>
                        <g id="-/-Color-/-Icons-/-Selected-/-On-Primary-/-Inactive-" mask="url(#mask-2)" fill="#FFFFFF" fill-opacity="0.54">
                            <g transform="translate(-11.000000, 0.000000)" id="Rectangle">
                                <rect x="0" y="0" width="43" height="36"></rect>
                            </g>
                        </g>
                    </g>
                </g>
            </g>
        </g>
    </g>
</svg>