<?xml version="1.0" encoding="UTF-8"?>
<svg width="20px" height="20px" viewBox="0 0 20 20" version="1.1" xmlns="http://www.w3.org/2000/svg" xmlns:xlink="http://www.w3.org/1999/xlink">
    <!-- Generator: Sketch 52.6 (67491) - http://www.bohemiancoding.com/sketch -->
    <title>TAB 4</title>
    <desc>Created with Sketch.</desc>
    <defs>
        <path d="M8,18 C6.9,18 6.01,18.9 6.01,20 C6.01,21.1 6.9,22 8,22 C9.1,22 10,21.1 10,20 C10,18.9 9.1,18 8,18 Z M2,2 L2,4 L4,4 L7.6,11.59 L6.25,14.03 C5.52,15.37 6.48,17 8,17 L20,17 L20,15 L8,15 L9.1,13 L16.55,13 C17.3,13 17.96,12.59 18.3,11.97 L21.88,5.48 C22.25,4.82 21.77,4 21.01,4 L6.21,4 L5.27,2 L2,2 Z M18,18 C16.9,18 16.01,18.9 16.01,20 C16.01,21.1 16.9,22 18,22 C19.1,22 20,21.1 20,20 C20,18.9 19.1,18 18,18 Z" id="path-1"></path>
    </defs>
    <g id="Material-Components" stroke="none" stroke-width="1" fill="none" fill-rule="evenodd">
        <g id="Bottom-Navigation" transform="translate(-458.000000, -1321.000000)">
            <g id="Bottom-Navigation-/-Primary-Color-/-Inactive-/-Resting" transform="translate(153.000000, 1303.000000)">
                <g id="Bottom-Navigation-/-4-up-/-Primary-Color-Copy-2">
                    <g id="Bottom-Navigation-/-Elements-/-Inactive-/-Resting" transform="translate(270.000000, 0.000000)">
                        <g id="Icon-/-Shopping-Cart-/-Filled" transform="translate(33.000000, 16.000000)">
                            <mask id="mask-2" fill="white">
                                <use xlink:href="#path-1"></use>
                            </mask>
                            <g id="Mask" fill-rule="nonzero"></g>
                            <g id="✱-/-Color-/-Icons-/-Selected-/-On-Primary-/-Inactive-" mask="url(#mask-2)" fill="#FFFFFF" fill-opacity="0.54" fill-rule="evenodd">
                                <rect id="Rectangle" x="0" y="0" width="24" height="24"></rect>
                            </g>
                        </g>
                    </g>
                </g>
            </g>
        </g>
    </g>
</svg>