<?xml version="1.0" encoding="UTF-8"?>
<svg width="171px" height="171px" viewBox="0 0 171 171" version="1.1" xmlns="http://www.w3.org/2000/svg" xmlns:xlink="http://www.w3.org/1999/xlink">
    <!-- Generator: Sketch 52.6 (67491) - http://www.bohemiancoding.com/sketch -->
    <title>Scooru_logo / Icon / No caption</title>
    <desc>Created with Sketch.</desc>
    <defs>
        <path d="M81.9306831,0.110461638 C75.9201869,0.476199427 71.8249787,0.999309967 67.3143592,1.9773948 C12.8989941,13.7785927 -15.8628542,73.8804771 9.07105583,123.683678 C35.0806394,175.635148 104.615218,186.870595 145.721596,145.764217 C187.9753,103.510513 174.743241,31.9054719 120.16347,7.45598863 C108.482279,2.22312488 93.7428707,-0.608705457 81.9306831,0.110461638 M111.520717,18.4404308 C122.590878,22.7730169 132.398981,29.8147881 140.199922,39.0312046 C141.34549,40.3846981 143.528048,43.1607007 143.528048,43.2640041 C143.528048,43.290819 141.939375,42.9945362 139.998151,42.6055002 C138.056488,42.2164642 136.432647,41.9395233 136.389128,41.9896364 C136.346048,42.0397496 135.755241,48.2744359 135.076956,55.8441532 L133.84303,69.6081146 L136.789593,72.9911891 C138.410357,74.8515285 142.525346,79.5749089 145.933477,83.4872483 C149.341609,87.399148 152.160691,90.5997933 152.197616,90.5993537 C152.234542,90.5984745 153.402089,89.3654282 154.792508,87.8589578 L157.320143,85.1198807 L157.35575,85.7445362 C157.606315,90.1382251 156.275241,99.3458498 154.516886,105.381403 C152.288611,113.028487 147.744143,122.23831 143.5364,127.633822 C143.241876,128.011428 143.277483,128.187264 142.847125,124.252945 C142.633925,122.30205 142.431714,120.67821 142.397866,120.643922 C142.364017,120.610073 136.261647,121.936313 128.837873,123.590924 L115.339423,126.59903 L108.283146,138.519356 C104.402457,145.075382 101.240495,150.4854 101.25676,150.542107 C101.273025,150.598814 102.739053,151.325894 104.514992,152.157595 C107.472984,153.543618 107.719593,153.679891 107.451884,153.781436 C106.748981,154.048706 103.633616,154.923487 101.767123,155.378022 C91.2495237,157.937747 80.9125957,158.047205 70.42357,155.710351 C67.702516,155.103719 63.390151,153.907598 63.1725545,153.698793 C63.1312332,153.658791 64.5317628,152.958526 66.2852821,152.142649 C68.0383617,151.326773 69.4938399,150.627387 69.5188965,150.589143 C69.543953,150.550899 66.3833103,145.138683 62.4947088,138.561996 L55.4252435,126.604744 L41.9729504,123.602354 C34.5742332,121.950819 28.4701047,120.619305 28.4081227,120.643043 C28.3461407,120.66678 28.1281047,122.236991 27.9232563,124.133377 C27.7188476,126.029323 27.5219119,127.663274 27.4863052,127.764379 C27.4397088,127.896256 27.1447448,127.549421 26.4326111,126.526058 C18.2448322,114.755631 13.8529016,101.56885 13.4454029,87.5292663 L13.3737499,85.0622945 L15.9396291,87.8339012 C17.3507088,89.3579552 18.5437525,90.5918807 18.5907885,90.5751763 C18.6382641,90.5589115 22.7831458,85.8315747 27.8023695,80.070765 L36.9282306,69.5962457 L36.8666882,69.0260992 C36.8328399,68.7126724 36.2697268,62.5065593 35.6151792,55.2348832 C34.9606317,47.9636467 34.3992769,41.9883177 34.3680661,41.9566673 C34.3364157,41.9254565 32.7112563,42.2204205 30.7564054,42.612094 C28.8015545,43.0037676 27.1935391,43.3163151 27.1834286,43.3066442 C27.1728785,43.2969732 27.7606085,42.5224179 28.489007,41.5856544 C36.089935,31.8105208 45.8874877,24.1559629 56.8846779,19.4009321 C59.2272461,18.3881197 63.0283695,16.9871506 63.1373875,17.0966082 C63.1593669,17.1185876 62.4085494,18.5388987 61.4682692,20.2524154 C60.2128039,22.5409141 59.7960738,23.3910786 59.8989376,23.454819 C59.9758656,23.5022945 65.7397525,25.9982791 72.7081124,29.0011095 L85.3770584,34.4612406 L98.1501869,28.9580298 C105.175693,25.931022 110.942218,23.4359167 110.965076,23.413058 C110.999804,23.3783305 108.634377,18.9943125 107.742452,17.4394873 L107.476501,16.9757213 L108.743395,17.4126724 C109.440143,17.6526879 110.689894,18.1155747 111.520717,18.4404308 M83.1864447,39.2500343 C64.6063496,40.5428647 53.2302339,49.754006 52.4640308,64.1272374 C52.0798303,71.3316564 54.7604422,77.6388749 59.9981414,81.8549701 C64.8740591,85.7800575 70.018126,87.7177644 85.4393368,91.4393222 C95.6206504,93.8961834 99.8367455,95.7011346 102.320861,98.6657207 C104.332859,101.067194 104.782558,104.796225 103.42247,107.796417 C98.6041388,118.423034 72.1483728,117.535944 57.0533368,106.241153 C56.6124293,105.911461 56.22691,105.66661 56.1961388,105.696942 C56.1658072,105.727713 54.883527,108.564818 53.3467249,112.001962 L50.5526992,118.251595 L51.0169049,118.677117 C56.8476093,124.021636 70.4933213,128.36741 82.5820103,128.729191 C105.386553,129.412312 119.819129,119.733888 120.1919,103.509109 C120.456532,91.9879289 114.690447,84.9984688 101.209581,80.498839 C98.0814679,79.4548158 96.6963239,79.0886384 85.9888226,76.4766024 C73.0460129,73.3190369 68.6510051,70.2401577 68.6668303,64.3417567 C68.6804576,59.3269289 72.0085835,55.5829521 77.9742416,53.8720729 C87.4042982,51.1677233 100.726033,53.2940138 110.698982,59.0961449 C111.113075,59.3370395 111.49244,59.4917747 111.542553,59.4403428 C111.631789,59.3484688 116.548589,47.2914302 116.615846,46.9999829 C116.735853,46.4803891 111.003617,43.6331731 107.258761,42.3522117 C100.093465,39.9010652 90.8862802,38.7146153 83.1864447,39.2500343" id="path-1"></path>
    </defs>
    <g id="Material-Theme" stroke="none" stroke-width="1" fill="none" fill-rule="evenodd">
        <g id="Product-Icons" transform="translate(-454.000000, -1634.000000)">
            <g id="Scooru-logo-/-Icon-/-No-caption" transform="translate(454.000000, 1634.000000)">
                <mask id="mask-2" fill="white">
                    <use xlink:href="#path-1"></use>
                </mask>
                <g id="Icon" fill-rule="nonzero"></g>
                <g id="✱-/-Color-/-Icons-/-Selected-/-On-Surface-/-Inactive" mask="url(#mask-2)" fill="#414141" fill-opacity="0.54" fill-rule="evenodd">
                    <rect id="Rectangle" x="0" y="0" width="171" height="171"></rect>
                </g>
            </g>
        </g>
    </g>
</svg>