<?xml version="1.0" encoding="UTF-8"?>
<svg width="30px" height="36px" viewBox="0 0 30 36" version="1.1" xmlns="http://www.w3.org/2000/svg" xmlns:xlink="http://www.w3.org/1999/xlink">
    <!-- Generator: Sketch 52.6 (67491) - http://www.bohemiancoding.com/sketch -->
    <title>TAB 3</title>
    <desc>Created with Sketch.</desc>
    <defs>
        <path d="M12,8 C13.66,8 15,6.66 15,5 C15,3.34 13.66,2 12,2 C10.34,2 9,3.34 9,5 C9,6.66 10.34,8 12,8 M12,11.55 C9.64,9.35 6.48,8 3,8 L3,19 C6.48,19 9.64,20.35 12,22.55 C14.359,20.359 17.52,19 21,19 L21,8 C17.52,8 14.359,9.35 12,11.55" id="path-1"></path>
    </defs>
    <g id="Material-Components" stroke="none" stroke-width="1" fill="none" fill-rule="evenodd">
        <g id="Bottom-Navigation" transform="translate(-363.000000, -1477.000000)">
            <g id="Bottom-Navigation-/-Primary-Color-/-Active-/-Resting" transform="translate(153.000000, 1447.000000)">
                <g id="Bottom-Navigation-/-4-up-/-Primary-Color-Copy-3">
                    <g id="Bottom-Navigation-/-Elements-/-Active-/-Resting" transform="translate(180.000000, 20.000000)">
                        <g id="Icon-and-Label" transform="translate(4.000000, 8.000000)">
                            <g id="✱-/-Text-/-Caption-/-Selected-/-On-Primary-/-High-Emphasis-/-Center" transform="translate(0.000000, 24.000000)" fill="#FFFFFF" font-family="Roboto-Regular, Roboto" font-size="12" font-weight="normal" letter-spacing="0.400000006" line-spacing="16">
                                <text id="Caption">
                                    <tspan x="25.0681641" y="13">News</tspan>
                                </text>
                            </g>
                            <g id="Scooru-/-News-/-Filled" transform="translate(29.000000, 0.000000)">
                                <mask id="mask-2" fill="white">
                                    <use xlink:href="#path-1"></use>
                                </mask>
                                <g id="News" fill-rule="nonzero"></g>
                                <g id="✱-/-Color-/-Icons-/-Selected-/-On-Primary-/-Active-" mask="url(#mask-2)" fill="#FFFFFF" fill-rule="evenodd">
                                    <rect id="Rectangle-3" x="0" y="0" width="24" height="24"></rect>
                                </g>
                            </g>
                        </g>
                    </g>
                </g>
            </g>
        </g>
    </g>
</svg>