<?xml version="1.0" encoding="UTF-8"?>
<svg width="144px" height="32px" viewBox="0 0 144 32" version="1.1" xmlns="http://www.w3.org/2000/svg" xmlns:xlink="http://www.w3.org/1999/xlink">
    <!-- Generator: Sketch 52.6 (67491) - http://www.bohemiancoding.com/sketch -->
    <title>Buttons / Outlined / with Icon / Disabled</title>
    <desc>Created with Sketch.</desc>
    <defs>
        <path d="M4,0 L140,0 C142.209139,-4.05812251e-16 144,1.790861 144,4 L144,28 C144,30.209139 142.209139,32 140,32 L4,32 C1.790861,32 2.705415e-16,30.209139 0,28 L0,4 C-2.705415e-16,1.790861 1.790861,4.05812251e-16 4,0 Z" id="path-1"></path>
        <polygon id="path-3" points="6.80327869 0.888888889 6.80327869 6.88888889 0.803278689 6.88888889 0.803278689 8.88888889 6.80327869 8.88888889 6.80327869 14.8888889 8.80327869 14.8888889 8.80327869 8.88888889 14.8032787 8.88888889 14.8032787 6.88888889 8.80327869 6.88888889 8.80327869 0.888888889"></polygon>
    </defs>
    <g id="Page-1" stroke="none" stroke-width="1" fill="none" fill-rule="evenodd">
        <g id="Artboard" transform="translate(-178.000000, -135.000000)">
            <g id="Cards-/-Profiles-/-Detailed">
                <g id="Buttons-/-Outlined-/-with-Icon-/-Disabled" transform="translate(178.000000, 135.000000)">
                    <mask id="mask-2" fill="white">
                        <use xlink:href="#path-1"></use>
                    </mask>
                    <path stroke-opacity="0.12" stroke="#000000" d="M4,0.5 C2.06700338,0.5 0.5,2.06700338 0.5,4 L0.5,28 C0.5,29.9329966 2.06700338,31.5 4,31.5 L140,31.5 C141.932997,31.5 143.5,29.9329966 143.5,28 L143.5,4 C143.5,2.06700338 141.932997,0.5 140,0.5 L4,0.5 Z"></path>
                    <g id="TEXT-COLOR-&amp;-STYLE" mask="url(#mask-2)" fill-opacity="0.38" font-family="Roboto-Medium, Roboto" font-size="14" font-weight="400" letter-spacing="1.25" line-spacing="16">
                        <g transform="translate(40.000000, 8.000000)" id="Button">
                            <text>
                                <tspan x="6.12841797" y="13.1728516" fill="#000000">FOLLOW</tspan>
                            </text>
                        </g>
                    </g>
                    <g id="Icon-/-Add-/-Filled" mask="url(#mask-2)">
                        <g transform="translate(18.163934, 8.111111)">
                            <mask id="mask-4" fill="white">
                                <use xlink:href="#path-3"></use>
                            </mask>
                            <g id="Mask" stroke="none" fill="none"></g>
                            <g id="↳-Icon-Color" stroke="none" stroke-width="1" fill="none" fill-rule="evenodd" mask="url(#mask-4)" fill-opacity="0.38">
                                <g transform="translate(-4.000000, -1.000000)" fill="#000000" id="Rectangle">
                                    <rect x="0" y="0" width="23.6065574" height="17.7777778"></rect>
                                </g>
                            </g>
                        </g>
                    </g>
                </g>
            </g>
        </g>
    </g>
</svg>