<?xml version="1.0" encoding="UTF-8"?>
<svg width="144px" height="32px" viewBox="0 0 144 32" version="1.1" xmlns="http://www.w3.org/2000/svg" xmlns:xlink="http://www.w3.org/1999/xlink">
    <!-- Generator: Sketch 52.6 (67491) - http://www.bohemiancoding.com/sketch -->
    <title>Buttons / Outlined / with Icon / Disabled Copy</title>
    <desc>Created with Sketch.</desc>
    <defs>
        <path d="M4,0 L140,0 C142.209139,-4.05812251e-16 144,1.790861 144,4 L144,28 C144,30.209139 142.209139,32 140,32 L4,32 C1.790861,32 2.705415e-16,30.209139 0,28 L0,4 C-2.705415e-16,1.790861 1.790861,4.05812251e-16 4,0 Z" id="path-1"></path>
        <path d="M18.6721311,0.481481481 L2.93442623,0.481481481 C1.85245902,0.481481481 0.97704918,1.14814815 0.97704918,1.96296296 L0.967213115,15.2962963 L4.90163934,12.3333333 L18.6721311,12.3333333 C19.7540984,12.3333333 20.6393443,11.6666667 20.6393443,10.8518519 L20.6393443,1.96296296 C20.6393443,1.14814815 19.7540984,0.481481481 18.6721311,0.481481481 Z M16.704918,9.37037037 L4.90163934,9.37037037 L4.90163934,7.88888889 L16.704918,7.88888889 L16.704918,9.37037037 Z M16.704918,7.14814815 L4.90163934,7.14814815 L4.90163934,5.66666667 L16.704918,5.66666667 L16.704918,7.14814815 Z M16.704918,4.92592593 L4.90163934,4.92592593 L4.90163934,3.44444444 L16.704918,3.44444444 L16.704918,4.92592593 Z" id="path-3"></path>
    </defs>
    <g id="Page-1" stroke="none" stroke-width="1" fill="none" fill-rule="evenodd">
        <g id="Artboard" transform="translate(-22.000000, -135.000000)">
            <g id="Cards-/-Profiles-/-Detailed">
                <g id="Buttons-/-Outlined-/-with-Icon-/-Disabled-Copy" transform="translate(22.000000, 135.000000)">
                    <mask id="mask-2" fill="white">
                        <use xlink:href="#path-1"></use>
                    </mask>
                    <path stroke-opacity="0.12" stroke="#000000" d="M4,0.5 C2.06700338,0.5 0.5,2.06700338 0.5,4 L0.5,28 C0.5,29.9329966 2.06700338,31.5 4,31.5 L140,31.5 C141.932997,31.5 143.5,29.9329966 143.5,28 L143.5,4 C143.5,2.06700338 141.932997,0.5 140,0.5 L4,0.5 Z"></path>
                    <g id="TEXT-COLOR-&amp;-STYLE" mask="url(#mask-2)" fill-opacity="0.38" font-family="Roboto-Medium, Roboto" font-size="14" font-weight="400" letter-spacing="1.25" line-spacing="16">
                        <g transform="translate(40.000000, 8.000000)" id="Button">
                            <text>
                                <tspan x="0.458496094" y="13.1728516" fill="#000000">MESSAGE</tspan>
                            </text>
                        </g>
                    </g>
                    <g id="Icon-/-Add-/-Filled" mask="url(#mask-2)">
                        <g transform="translate(15.163934, 8.111111)">
                            <mask id="mask-4" fill="white">
                                <use xlink:href="#path-3"></use>
                            </mask>
                            <g id="Message" stroke="none" fill="none" fill-rule="nonzero"></g>
                            <g id="↳-Icon-Color" stroke="none" stroke-width="1" fill="none" fill-rule="evenodd" mask="url(#mask-4)" fill-opacity="0.54">
                                <g transform="translate(-1.000000, -1.000000)" fill="#414141" id="Rectangle">
                                    <rect x="0" y="0" width="23.6065574" height="17.7777778"></rect>
                                </g>
                            </g>
                        </g>
                    </g>
                </g>
            </g>
        </g>
    </g>
</svg>