<?xml version="1.0" encoding="UTF-8"?>
<svg width="30px" height="36px" viewBox="0 0 30 36" version="1.1" xmlns="http://www.w3.org/2000/svg" xmlns:xlink="http://www.w3.org/1999/xlink">
    <!-- Generator: Sketch 52.6 (67491) - http://www.bohemiancoding.com/sketch -->
    <title>Nav_bottom / Icon_with_text / News / Active</title>
    <desc>Created with Sketch.</desc>
    <g id="Material-Components" stroke="none" stroke-width="1" fill="none" fill-rule="evenodd">
        <g id="Navigation" transform="translate(-300.000000, -1071.000000)" fill="#FFFFFF">
            <g id="Bottom-Navigation-/-Primary-Color-/-Active-/-Resting-Copy-3" transform="translate(90.000000, 1042.000000)">
                <g id="Bottom-Navigation-/-4-up-/-Primary-Color-Copy-3">
                    <g id="Nav_bottom-/-Icon_with_text-/-News-/-Active" transform="translate(210.000000, 29.000000)">
                        <path d="M15.2569705,6.40278818 C16.8900752,6.40278818 18.2083645,5.08449882 18.2083645,3.45139409 C18.2083645,1.81828936 16.8900752,0.5 15.2569705,0.5 C13.6238657,0.5 12.3055764,1.81828936 12.3055764,3.45139409 C12.3055764,5.08449882 13.6238657,6.40278818 15.2569705,6.40278818 M15.2569705,9.89527119 C12.9352071,7.73091552 9.82640533,6.40278818 6.40278818,6.40278818 L6.40278818,17.2245665 C9.82640533,17.2245665 12.9352071,18.5526939 15.2569705,20.7170495 C17.57775,18.561548 20.6875356,17.2245665 24.1111527,17.2245665 L24.1111527,6.40278818 C20.6875356,6.40278818 17.57775,7.73091552 15.2569705,9.89527119 M0.5,31.0976482 L0.5,35.3239059 L1.11632925,35.3239059 L1.73265849,35.3239059 L1.73265849,32.1835617 C1.73265849,30.1095404 1.74263716,29.0432174 1.76200751,29.0432174 C1.77814946,29.0432174 1.79135652,29.0605333 1.79135652,29.081738 C1.79135652,29.1028693 1.81777063,29.1485804 1.85005454,29.1832122 C1.88233845,29.217844 1.90875256,29.2636285 1.90875256,29.2849799 C1.90875256,29.3063313 1.93516667,29.3427975 1.96745059,29.3660565 C1.9997345,29.3893156 2.02614861,29.4318717 2.02614861,29.4605604 C2.02614861,29.4893224 2.03935567,29.5128016 2.05549762,29.5128016 C2.07163958,29.5128016 2.08484663,29.5301175 2.08484663,29.5513222 C2.08484663,29.5724535 2.11126075,29.6181646 2.14354466,29.6527964 C2.17582857,29.6874282 2.20224268,29.7332127 2.20224268,29.7545641 C2.20224268,29.7759155 2.22865679,29.8123816 2.26094071,29.8356407 C2.29322462,29.8588998 2.31963873,29.9014559 2.31963873,29.9301445 C2.31963873,29.9589066 2.33284578,29.9823858 2.34898774,29.9823858 C2.3651297,29.9823858 2.37833675,29.9997017 2.37833675,30.0209064 C2.37833675,30.0420377 2.40475086,30.0877487 2.43703478,30.1223806 C2.46931869,30.1570124 2.4957328,30.2027969 2.4957328,30.2241483 C2.4957328,30.2454997 2.52214691,30.2819658 2.55443082,30.3052249 C2.58671474,30.328484 2.61312885,30.3710401 2.61312885,30.3997287 C2.61312885,30.4284908 2.6263359,30.45197 2.64247786,30.45197 C2.65861981,30.45197 2.67182687,30.4692859 2.67182687,30.4904906 C2.67182687,30.5116218 2.69824098,30.5573329 2.73052489,30.5919648 C2.76280881,30.6265966 2.78922292,30.6692994 2.78922292,30.6867621 C2.78922292,30.7042247 2.81563703,30.7469275 2.84792094,30.7815594 C2.88020485,30.8161912 2.90661896,30.8619023 2.90661896,30.8830336 C2.90661896,30.9042382 2.91982602,30.9215542 2.93596798,30.9215542 C2.95210993,30.9215542 2.96531699,30.9450334 2.96531699,30.9737954 C2.96531699,31.0024841 2.9917311,31.0450401 3.02401501,31.0682992 C3.05629892,31.0915583 3.08271303,31.1280245 3.08271303,31.1493759 C3.08271303,31.1707273 3.10912714,31.2165117 3.14141106,31.2511436 C3.17369497,31.2857754 3.20010908,31.3314865 3.20010908,31.3526178 C3.20010908,31.3738224 3.21331614,31.3911384 3.22945809,31.3911384 C3.24560005,31.3911384 3.2588071,31.4146176 3.2588071,31.4433796 C3.2588071,31.4720683 3.28522122,31.5146243 3.31750513,31.5378834 C3.34978904,31.5611425 3.37620315,31.6036986 3.37620315,31.6323872 C3.37620315,31.6611493 3.38941021,31.6846285 3.40555216,31.6846285 C3.42169412,31.6846285 3.43490118,31.7019444 3.43490118,31.7231491 C3.43490118,31.7442803 3.46131529,31.7899914 3.4935992,31.8246233 C3.52588311,31.8592551 3.55229722,31.9050396 3.55229722,31.926391 C3.55229722,31.9477424 3.57871133,31.9842085 3.61099525,32.0074676 C3.64327916,32.0307267 3.66969327,32.0732828 3.66969327,32.1019714 C3.66969327,32.1307335 3.68290032,32.1542127 3.69904228,32.1542127 C3.71518424,32.1542127 3.72839129,32.1715286 3.72839129,32.1927332 C3.72839129,32.2138645 3.7548054,32.2595756 3.78708932,32.2942074 C3.81937323,32.3288393 3.84578734,32.3746237 3.84578734,32.3959751 C3.84578734,32.4173266 3.87220145,32.4537927 3.90448536,32.4770518 C3.93676928,32.5003109 3.96318339,32.5428669 3.96318339,32.5715556 C3.96318339,32.6003176 3.97639044,32.6237968 3.9925324,32.6237968 C4.00867435,32.6237968 4.02188141,32.6411128 4.02188141,32.6623174 C4.02188141,32.6834487 4.04829552,32.7291598 4.08057943,32.7637916 C4.11286335,32.7984235 4.13927746,32.8442079 4.13927746,32.8655593 C4.13927746,32.8869107 4.16569157,32.9233769 4.19797548,32.946636 C4.23025939,32.9698951 4.2566735,33.0124511 4.2566735,33.0411398 C4.2566735,33.0699018 4.26988056,33.093381 4.28602252,33.093381 C4.30216447,33.093381 4.31537153,33.110697 4.31537153,33.1319016 C4.31537153,33.1530329 4.34178564,33.198744 4.37406955,33.2333758 C4.40635346,33.2680077 4.43276757,33.3107105 4.43276757,33.3281731 C4.43276757,33.3456358 4.45918169,33.3883386 4.4914656,33.4229704 C4.52374951,33.4576023 4.55016362,33.5033134 4.55016362,33.5244446 C4.55016362,33.5456493 4.56337068,33.5629652 4.57951263,33.5629652 C4.59565459,33.5629652 4.60886165,33.5864444 4.60886165,33.6152065 C4.60886165,33.6438951 4.63527576,33.6864512 4.66755967,33.7097103 C4.69984358,33.7329694 4.72625769,33.7694355 4.72625769,33.7907869 C4.72625769,33.8121383 4.7526718,33.8579228 4.78495572,33.8925546 C4.81723963,33.9271865 4.84365374,33.9728975 4.84365374,33.9940288 C4.84365374,34.0152335 4.85686079,34.0325494 4.87300275,34.0325494 C4.88914471,34.0325494 4.90235176,34.0560286 4.90235176,34.0847907 C4.90235176,34.1134793 4.92876587,34.1560354 4.96104979,34.1792945 C4.9933337,34.2025536 5.01974781,34.2451096 5.01974781,34.2737983 C5.01974781,34.3025603 5.03295487,34.3260395 5.04909682,34.3260395 C5.06523878,34.3260395 5.07844583,34.3433554 5.07844583,34.3645601 C5.07844583,34.3856914 5.10485994,34.4314025 5.13714386,34.4660343 C5.16942777,34.5006661 5.19584188,34.5464506 5.19584188,34.567802 C5.19584188,34.5891534 5.22225599,34.6256196 5.2545399,34.6488787 C5.28682382,34.6721378 5.31323793,34.7146938 5.31323793,34.7433825 C5.31323793,34.7721445 5.32644498,34.7956237 5.34258694,34.7956237 C5.3587289,34.7956237 5.37193595,34.8129396 5.37193595,34.8341443 C5.37193595,34.8552756 5.39835006,34.9009867 5.43063397,34.9356185 C5.46291789,34.9702503 5.489332,35.0160348 5.489332,35.0373862 C5.489332,35.0587376 5.51574611,35.0952038 5.54803002,35.1184628 C5.58031393,35.1417219 5.60672804,35.1786283 5.60672804,35.20042 C5.60672804,35.3129001 5.67078226,35.3239059 6.32379777,35.3239059 L6.9570027,35.3239059 L6.9495187,31.1049855 L6.94210808,26.8860651 L6.31110433,26.8860651 L5.68010057,26.8860651 L5.67261658,30.0190721 C5.66770062,32.0736496 5.65508054,33.1520791 5.63593031,33.1520791 C5.61986173,33.1520791 5.60672804,33.1256649 5.60672804,33.093381 C5.60672804,33.0610971 5.59352099,33.034683 5.57737903,33.034683 C5.56123708,33.034683 5.54803002,33.0173671 5.54803002,32.9961624 C5.54803002,32.9750311 5.52161591,32.9293201 5.489332,32.8946882 C5.45704808,32.8600564 5.43063397,32.8142719 5.43063397,32.7929205 C5.43063397,32.7715691 5.40421986,32.735103 5.37193595,32.7118439 C5.33965204,32.6885848 5.31323793,32.6460287 5.31323793,32.6173401 C5.31323793,32.588578 5.30003087,32.5650988 5.28388892,32.5650988 C5.26774696,32.5650988 5.2545399,32.5477829 5.2545399,32.5265782 C5.2545399,32.505447 5.22812579,32.4597359 5.19584188,32.425104 C5.16355797,32.3904722 5.13714386,32.3446877 5.13714386,32.3233363 C5.13714386,32.3019849 5.11072975,32.2655188 5.07844583,32.2422597 C5.04616192,32.2190006 5.01974781,32.1764445 5.01974781,32.1477559 C5.01974781,32.1189938 5.00654075,32.0955146 4.9903988,32.0955146 C4.97425684,32.0955146 4.96104979,32.0781987 4.96104979,32.0569941 C4.96104979,32.0358628 4.93463568,31.9901517 4.90235176,31.9555199 C4.87006785,31.920888 4.84365374,31.8781852 4.84365374,31.8607225 C4.84365374,31.8432599 4.81723963,31.8005571 4.78495572,31.7659252 C4.7526718,31.7312934 4.72625769,31.6855823 4.72625769,31.664451 C4.72625769,31.6432464 4.71305064,31.6259304 4.69690868,31.6259304 C4.68076672,31.6259304 4.66755967,31.6086145 4.66755967,31.5874099 C4.66755967,31.5662786 4.64114556,31.5205675 4.60886165,31.4859357 C4.57657773,31.4513038 4.55016362,31.408601 4.55016362,31.3911384 C4.55016362,31.3736757 4.52374951,31.3309729 4.4914656,31.296341 C4.45918169,31.2617092 4.43276757,31.2159981 4.43276757,31.1948668 C4.43276757,31.1736622 4.41956052,31.1563463 4.40341856,31.1563463 C4.38727661,31.1563463 4.37406955,31.1328671 4.37406955,31.104105 C4.37406955,31.0754164 4.34765544,31.0328603 4.31537153,31.0096012 C4.28308761,30.9863421 4.2566735,30.949876 4.2566735,30.9285246 C4.2566735,30.9071732 4.23025939,30.8613887 4.19797548,30.8267569 C4.16569157,30.792125 4.13927746,30.7464139 4.13927746,30.7252827 C4.13927746,30.704078 4.1260704,30.6867621 4.10992845,30.6867621 C4.09378649,30.6867621 4.08057943,30.6632829 4.08057943,30.6345208 C4.08057943,30.6058322 4.05416532,30.5632761 4.02188141,30.540017 C3.9895975,30.5167579 3.96318339,30.4802918 3.96318339,30.4589404 C3.96318339,30.437589 3.93676928,30.3918045 3.90448536,30.3571727 C3.87220145,30.3225408 3.84578734,30.2768298 3.84578734,30.2556985 C3.84578734,30.2344938 3.83258028,30.2171779 3.81643833,30.2171779 C3.80029637,30.2171779 3.78708932,30.1936987 3.78708932,30.1649366 C3.78708932,30.136248 3.76067521,30.0936919 3.72839129,30.0704328 C3.69610738,30.0471737 3.66969327,30.0107076 3.66969327,29.9893562 C3.66969327,29.9680048 3.64327916,29.9222203 3.61099525,29.8875885 C3.57871133,29.8529566 3.55229722,29.8072456 3.55229722,29.7861143 C3.55229722,29.7649096 3.53909017,29.7475937 3.52294821,29.7475937 C3.50680625,29.7475937 3.4935992,29.7241145 3.4935992,29.6953525 C3.4935992,29.6666638 3.46718509,29.6241077 3.43490118,29.6008486 C3.40261726,29.5775895 3.37620315,29.5350335 3.37620315,29.5063448 C3.37620315,29.4775828 3.3629961,29.4541036 3.34685414,29.4541036 C3.33071218,29.4541036 3.31750513,29.4367877 3.31750513,29.415583 C3.31750513,29.3944517 3.29109102,29.3487406 3.2588071,29.3141088 C3.22652319,29.279477 3.20010908,29.2336925 3.20010908,29.2123411 C3.20010908,29.1909897 3.17369497,29.1545235 3.14141106,29.1312644 C3.10912714,29.1080054 3.08271303,29.0654493 3.08271303,29.0367606 C3.08271303,29.0079986 3.06950598,28.9845194 3.05336402,28.9845194 C3.03722207,28.9845194 3.02401501,28.9672035 3.02401501,28.9459988 C3.02401501,28.9248675 2.9976009,28.8791564 2.96531699,28.8445246 C2.93303307,28.8098928 2.90661896,28.7641083 2.90661896,28.7427569 C2.90661896,28.7214055 2.88020485,28.6849394 2.84792094,28.6616803 C2.81563703,28.6384212 2.78922292,28.5958651 2.78922292,28.5671764 C2.78922292,28.5384144 2.77601586,28.5149352 2.7598739,28.5149352 C2.74373195,28.5149352 2.73052489,28.4976193 2.73052489,28.4764146 C2.73052489,28.4552833 2.70411078,28.4095723 2.67182687,28.3749404 C2.63954296,28.3403086 2.61312885,28.2945241 2.61312885,28.2731727 C2.61312885,28.2518213 2.58671474,28.2153552 2.55443082,28.1920961 C2.52214691,28.168837 2.4957328,28.1262809 2.4957328,28.0975923 C2.4957328,28.0688302 2.48252574,28.045351 2.46638379,28.045351 C2.45024183,28.045351 2.43703478,28.0280351 2.43703478,28.0068304 C2.43703478,27.9856991 2.41062067,27.9399881 2.37833675,27.9053562 C2.34605284,27.8707244 2.31963873,27.8249399 2.31963873,27.8035885 C2.31963873,27.7822371 2.29322462,27.745771 2.26094071,27.7225119 C2.22865679,27.6992528 2.20224268,27.6566967 2.20224268,27.6280081 C2.20224268,27.599246 2.18903563,27.5757668 2.17289367,27.5757668 C2.15675171,27.5757668 2.14354466,27.5584509 2.14354466,27.5372462 C2.14354466,27.516115 2.11713055,27.4704039 2.08484663,27.435772 C2.05256272,27.4011402 2.02614861,27.3553557 2.02614861,27.3340043 C2.02614861,27.3126529 1.9997345,27.2761868 1.96745059,27.2529277 C1.93516667,27.2296686 1.90875256,27.1871125 1.90875256,27.1584239 C1.90875256,27.1296618 1.89554551,27.1061826 1.87940355,27.1061826 C1.8632616,27.1061826 1.85005454,27.0896738 1.85005454,27.0694964 C1.84998117,27.0493189 1.81872447,26.9964907 1.78057076,26.9521003 L1.71116034,26.8713905 L1.10554348,26.8713905 L0.5,26.8713905 L0.5,31.0976482 M11.0656442,28.9551704 C11.0656442,28.9713123 11.0070196,28.9845194 10.9353346,28.9845194 C10.8636497,28.9845194 10.7968073,28.9977264 10.7868286,29.0138684 C10.77685,29.0300104 10.7298182,29.0432174 10.6823461,29.0432174 C10.6348741,29.0432174 10.59606,29.0564245 10.59606,29.0725664 C10.59606,29.0887084 10.5696459,29.1019154 10.537362,29.1019154 C10.5050781,29.1019154 10.478664,29.1151225 10.478664,29.1312644 C10.478664,29.1474064 10.4522499,29.1606135 10.419966,29.1606135 C10.3876821,29.1606135 10.3612679,29.1738205 10.3612679,29.1899625 C10.3612679,29.2061044 10.3348538,29.2193115 10.3025699,29.2193115 C10.270286,29.2193115 10.2438719,29.2325185 10.2438719,29.2486605 C10.2438719,29.2648025 10.226556,29.2780095 10.2053513,29.2780095 C10.18422,29.2780095 10.1412971,29.3014887 10.109967,29.3301774 C10.0787103,29.358866 10.0068786,29.4145558 9.95038178,29.4539568 C9.82469464,29.541637 9.4807976,29.8902299 9.4807976,29.9299978 C9.4807976,29.9458463 9.44117643,29.995813 9.39275056,30.0410838 C9.34432469,30.0863547 9.30470353,30.1383758 9.30470353,30.1567923 C9.30470353,30.1752088 9.27828941,30.2186453 9.2460055,30.2532772 C9.21372159,30.287909 9.18730748,30.3336201 9.18730748,30.3547514 C9.18730748,30.375956 9.17410042,30.393272 9.15795847,30.393272 C9.14181651,30.393272 9.12860945,30.4196861 9.12860945,30.45197 C9.12860945,30.4842539 9.1154024,30.510668 9.09926044,30.510668 C9.08311849,30.510668 9.06991143,30.5502892 9.06991143,30.598715 C9.06991143,30.6471409 9.05670438,30.6867621 9.04056242,30.6867621 C9.02442046,30.6867621 9.01121341,30.7131762 9.01121341,30.7454601 C9.01121341,30.777744 8.99800635,30.8041581 8.9818644,30.8041581 C8.96572244,30.8041581 8.95251538,30.8429722 8.95251538,30.8904442 C8.95251538,30.9379162 8.93930833,30.984948 8.92316637,30.9949267 C8.90702442,31.0049054 8.89381736,31.0643371 8.89381736,31.1269972 C8.89381736,31.1896574 8.88061031,31.2490891 8.86446835,31.2590678 C8.84832639,31.2690465 8.83511934,31.3548923 8.83511934,31.4498364 C8.83511934,31.5447804 8.82191228,31.6306263 8.80577033,31.640605 C8.7879408,31.6516108 8.77642131,31.8707746 8.77642131,32.1999971 C8.77642131,32.5412528 8.78728045,32.7411929 8.80577033,32.7411929 C8.82257263,32.7411929 8.83511934,32.8292399 8.83511934,32.946636 C8.83511934,33.064032 8.84766604,33.1520791 8.86446835,33.1520791 C8.88061031,33.1520791 8.89381736,33.2041002 8.89381736,33.2677142 C8.89381736,33.3313281 8.90702442,33.391567 8.92316637,33.4015457 C8.93930833,33.4115243 8.95251538,33.4651596 8.95251538,33.5207026 C8.95251538,33.5762457 8.96572244,33.6216632 8.9818644,33.6216632 C8.99800635,33.6216632 9.01121341,33.6472703 9.01121341,33.6786003 C9.01121341,33.7099304 9.02442046,33.7437551 9.04056242,33.7537338 C9.05670438,33.7637125 9.06991143,33.8041407 9.06991143,33.8435418 C9.06991143,33.8829428 9.08311849,33.9151534 9.09926044,33.9151534 C9.1154024,33.9151534 9.12860945,33.9415675 9.12860945,33.9738514 C9.12860945,34.0061353 9.14181651,34.0325494 9.15795847,34.0325494 C9.17410042,34.0325494 9.18730748,34.0560286 9.18730748,34.0847907 C9.18730748,34.1134793 9.21372159,34.1560354 9.2460055,34.1792945 C9.27828941,34.2025536 9.30470353,34.2421747 9.30470353,34.2673415 C9.30470353,34.2925083 9.33111764,34.3321294 9.36340155,34.3553885 C9.39568546,34.3786476 9.42209957,34.4140132 9.42209957,34.4339705 C9.42209957,34.4770402 9.91039376,34.9717178 9.95287645,34.9717178 C9.96901841,34.9717178 10.0105473,34.9981319 10.0451791,35.0304158 C10.0798109,35.0626997 10.125522,35.0891138 10.1466533,35.0891138 C10.167858,35.0891138 10.1851739,35.1023209 10.1851739,35.1184628 C10.1851739,35.1346048 10.211588,35.1478119 10.2438719,35.1478119 C10.2761558,35.1478119 10.3025699,35.1610189 10.3025699,35.1771609 C10.3025699,35.1933028 10.328984,35.2065099 10.3612679,35.2065099 C10.3935519,35.2065099 10.419966,35.2197169 10.419966,35.2358589 C10.419966,35.2520009 10.4465268,35.2652079 10.4790309,35.2652079 C10.5115349,35.2652079 10.5643631,35.278415 10.5964269,35.2945569 C10.6284907,35.3106989 10.6810254,35.337113 10.7130892,35.3532549 C10.745153,35.3693969 10.8169847,35.382604 10.8727479,35.382604 C10.928511,35.382604 10.982293,35.395811 10.9922717,35.411953 C11.0023971,35.428315 11.1393103,35.441302 11.3021973,35.441302 C11.4771174,35.441302 11.5939264,35.4530416 11.5939264,35.470651 C11.5939264,35.4867929 11.626137,35.5 11.665538,35.5 C11.7049391,35.5 11.7453673,35.4867929 11.755346,35.470651 C11.7657649,35.4537019 11.921975,35.441302 12.1239696,35.441302 C12.3379973,35.441302 12.4743968,35.4298559 12.4743968,35.411953 C12.4743968,35.395811 12.5264179,35.382604 12.5900319,35.382604 C12.6536459,35.382604 12.7138847,35.3693969 12.7238634,35.3532549 C12.7338421,35.337113 12.7800668,35.3239059 12.8265849,35.3239059 C12.8731031,35.3239059 12.9193278,35.3106989 12.9293065,35.2945569 C12.9392851,35.278415 12.9731099,35.2652079 13.0044399,35.2652079 C13.03577,35.2652079 13.061377,35.2520009 13.061377,35.2358589 C13.061377,35.2197169 13.0874243,35.2065099 13.119268,35.2065099 C13.1511116,35.2065099 13.2336557,35.1729053 13.3026993,35.1318166 C13.3717428,35.0908014 13.451352,35.0496394 13.4796004,35.0403945 C13.5078489,35.0311495 13.5309612,35.0119259 13.5309612,34.9976183 C13.5309612,34.983384 13.5520925,34.9717178 13.5779196,34.9717178 C13.6036734,34.9717178 13.6598034,34.9344445 13.7026529,34.8888802 C13.7454291,34.8433159 13.8167472,34.7823433 13.8611376,34.7534345 C13.956742,34.6911412 13.9635657,34.6245924 13.8831494,34.5382329 C13.8508654,34.5036011 13.8244513,34.4548817 13.8244513,34.4300084 C13.8244513,34.4051351 13.8112443,34.3847376 13.7951023,34.3847376 C13.7789604,34.3847376 13.7657533,34.3674216 13.7657533,34.346217 C13.7657533,34.3250857 13.7393392,34.2793746 13.7070553,34.2447428 C13.6747714,34.2101109 13.6483573,34.1613916 13.6483573,34.1365183 C13.6483573,34.111645 13.6351502,34.0912474 13.6190083,34.0912474 C13.6028663,34.0912474 13.5896592,34.0747386 13.5896592,34.0545612 C13.5895859,33.9976975 13.4564147,33.8564553 13.4027794,33.8564553 C13.3764387,33.8564553 13.3548671,33.8696624 13.3548671,33.8858044 C13.3548671,33.9019463 13.3370376,33.9151534 13.3151726,33.9151534 C13.293381,33.9151534 13.2362971,33.9514728 13.1883115,33.9958631 C13.0815545,34.0946226 12.9886649,34.1499455 12.9296733,34.1499455 C12.9052403,34.1499455 12.885283,34.1631525 12.885283,34.1792945 C12.885283,34.1954364 12.8588688,34.2086435 12.8265849,34.2086435 C12.794301,34.2086435 12.7678869,34.2218505 12.7678869,34.2379925 C12.7678869,34.2541345 12.7414728,34.2673415 12.7091889,34.2673415 C12.676905,34.2673415 12.6504909,34.2805486 12.6504909,34.2966905 C12.6504909,34.3128325 12.6108697,34.3260395 12.5624438,34.3260395 C12.514018,34.3260395 12.4743968,34.3392466 12.4743968,34.3553885 C12.4743968,34.3715305 12.4215686,34.3847376 12.3570007,34.3847376 C12.2924329,34.3847376 12.2396047,34.3979446 12.2396047,34.4140866 C12.2396047,34.4324297 12.0640976,34.4434356 11.7717815,34.4434356 C11.4914984,34.4434356 11.296621,34.431696 11.2857618,34.4140866 C11.2757832,34.3979446 11.2295585,34.3847376 11.1830403,34.3847376 C11.1365221,34.3847376 11.0902974,34.3715305 11.0803187,34.3553885 C11.0703401,34.3392466 11.0394502,34.3260395 11.0117154,34.3260395 C10.9839072,34.3260395 10.9421583,34.2996254 10.9188992,34.2673415 C10.8956401,34.2350576 10.8593941,34.2086435 10.8384095,34.2086435 C10.7886629,34.2086435 10.478664,33.8986445 10.478664,33.848898 C10.478664,33.8279134 10.4522499,33.7916674 10.419966,33.7684083 C10.3876821,33.7451492 10.3612679,33.7025931 10.3612679,33.6739045 C10.3612679,33.6451425 10.3480609,33.6216632 10.3319189,33.6216632 C10.315777,33.6216632 10.3025699,33.5952491 10.3025699,33.5629652 C10.3025699,33.5306813 10.2893629,33.5042672 10.2732209,33.5042672 C10.257079,33.5042672 10.2438719,33.4720567 10.2438719,33.4326556 C10.2438719,33.3932546 10.2306648,33.3528263 10.2145229,33.3428476 C10.1983809,33.332869 10.1851739,33.2858372 10.1851739,33.2383652 C10.1851739,33.1908931 10.1719668,33.1520791 10.1558249,33.1520791 C10.1396829,33.1520791 10.1264759,33.0992508 10.1264759,33.034683 C10.1264759,32.9701152 10.1132688,32.917287 10.0971268,32.917287 C10.0803245,32.917287 10.0677778,32.8292399 10.0677778,32.7118439 L10.0677778,32.5064008 L12.0928596,32.5064008 L14.1179415,32.5064008 L14.1179415,32.0679266 C14.1179415,31.807234 14.1060551,31.6220417 14.0885924,31.6112559 C14.0720836,31.6010572 14.0592434,31.4593014 14.0592434,31.2866559 C14.0592434,31.1019772 14.0475772,30.9802522 14.0298944,30.9802522 C14.0137525,30.9802522 14.0005454,30.927424 14.0005454,30.8628561 C14.0005454,30.7982883 13.9873384,30.7454601 13.9711964,30.7454601 C13.9550544,30.7454601 13.9418474,30.6926319 13.9418474,30.628064 C13.9418474,30.5634962 13.9286403,30.510668 13.9124984,30.510668 C13.8963564,30.510668 13.8831494,30.4842539 13.8831494,30.45197 C13.8831494,30.4196861 13.8699423,30.393272 13.8538003,30.393272 C13.8376584,30.393272 13.8244513,30.3610614 13.8244513,30.3216604 C13.8244513,30.2822593 13.8112443,30.2418311 13.7951023,30.2318524 C13.7789604,30.2218737 13.7657533,30.188049 13.7657533,30.1567189 C13.7657533,30.1253889 13.7525463,30.0997818 13.7364043,30.0997818 C13.7202623,30.0997818 13.7070553,30.083273 13.7069819,30.0630956 C13.7069819,30.0429181 13.6673607,29.9801846 13.6190083,29.9236878 C13.5706558,29.8671909 13.5310346,29.8108408 13.5310346,29.7985142 C13.5308878,29.7597002 13.0936609,29.3367075 13.0536729,29.3367075 C13.0327617,29.3367075 12.9965891,29.3102934 12.97333,29.2780095 C12.9500709,29.2457256 12.9075148,29.2193115 12.8788262,29.2193115 C12.8500641,29.2193115 12.8265849,29.2061044 12.8265849,29.1899625 C12.8265849,29.1738205 12.8001708,29.1606135 12.7678869,29.1606135 C12.735603,29.1606135 12.7091889,29.1474064 12.7091889,29.1312644 C12.7091889,29.1151225 12.6695677,29.1019154 12.6211419,29.1019154 C12.572716,29.1019154 12.5330948,29.0887084 12.5330948,29.0725664 C12.5330948,29.0564245 12.4934737,29.0432174 12.4450478,29.0432174 C12.3966219,29.0432174 12.3570007,29.0300104 12.3570007,29.0138684 C12.3570007,28.9977264 12.285169,28.9845194 12.1973421,28.9845194 C12.1095152,28.9845194 12.0294658,28.9713123 12.0194871,28.9551704 C12.008628,28.937561 11.8137505,28.9258214 11.5334675,28.9258214 C11.2411513,28.9258214 11.0656442,28.9368272 11.0656442,28.9551704 M26.752691,28.9551704 C26.7427123,28.9713123 26.6824735,28.9845194 26.6188595,28.9845194 C26.5552455,28.9845194 26.5032244,28.9977264 26.5032244,29.0138684 C26.5032244,29.0300104 26.4503962,29.0432174 26.3858284,29.0432174 C26.3212605,29.0432174 26.2684323,29.0564245 26.2684323,29.0725664 C26.2684323,29.0887084 26.2420182,29.1019154 26.2097343,29.1019154 C26.1774504,29.1019154 26.1510363,29.1151225 26.1510363,29.1312644 C26.1510363,29.1474064 26.1114151,29.1606135 26.0629892,29.1606135 C26.0145634,29.1606135 25.9749422,29.1738205 25.9749422,29.1899625 C25.9749422,29.2061044 25.951463,29.2193115 25.922701,29.2193115 C25.8940123,29.2193115 25.8514562,29.2457256 25.8281971,29.2780095 C25.804938,29.3102934 25.7702328,29.3367075 25.7510092,29.3367075 C25.7024366,29.3367075 25.2118679,29.8231674 25.2118679,29.8713732 C25.2118679,29.893018 25.1854538,29.9297777 25.1531699,29.9530368 C25.120886,29.9762959 25.0944718,30.0188519 25.0944718,30.0475406 C25.0944718,30.0763026 25.0812648,30.0997818 25.0651228,30.0997818 C25.0489809,30.0997818 25.0357738,30.139403 25.0357738,30.1878289 C25.0357738,30.2362547 25.0225668,30.2758759 25.0064248,30.2758759 C24.9902829,30.2758759 24.9770758,30.3345006 24.9770758,30.4061855 C24.9770758,30.4778705 24.9638687,30.5447129 24.9477268,30.5546915 C24.9315848,30.5646702 24.9183778,30.6835337 24.9183778,30.8188326 C24.9183778,30.9541316 24.9315848,31.0729951 24.9477268,31.0829737 C24.9638687,31.0929524 24.9770758,31.1531912 24.9770758,31.2168052 C24.9770758,31.2804192 24.9902829,31.3324403 25.0064248,31.3324403 C25.0225668,31.3324403 25.0357738,31.3691266 25.0357738,31.4140306 C25.0357738,31.4619428 25.0599868,31.5130101 25.0944718,31.5378834 C25.1267558,31.5611425 25.1531699,31.5973152 25.1531699,31.6182997 C25.1531699,31.6677528 25.4971403,32.0097421 25.6012559,32.0638177 C25.6453528,32.0867099 25.6814521,32.1164258 25.6814521,32.129853 C25.6814521,32.1432068 25.7078662,32.1542127 25.7401501,32.1542127 C25.772434,32.1542127 25.7988481,32.1674197 25.7988481,32.1835617 C25.7988481,32.1997036 25.8252622,32.2129107 25.8575462,32.2129107 C25.8898301,32.2129107 25.9162442,32.2261177 25.9162442,32.2422597 C25.9162442,32.2584017 25.9426583,32.2716087 25.9749422,32.2716087 C26.0072261,32.2716087 26.0336402,32.2848158 26.0336402,32.3009577 C26.0336402,32.3170997 26.0600543,32.3303067 26.0923382,32.3303067 C26.1246222,32.3303067 26.1510363,32.3435138 26.1510363,32.3596557 C26.1510363,32.3757977 26.1906574,32.3890048 26.2390833,32.3890048 C26.2875092,32.3890048 26.3271303,32.4022118 26.3271303,32.4183538 C26.3271303,32.4344957 26.3667515,32.4477028 26.4151774,32.4477028 C26.4636032,32.4477028 26.5032244,32.4609098 26.5032244,32.4770518 C26.5032244,32.4931937 26.5428456,32.5064008 26.5912714,32.5064008 C26.6396973,32.5064008 26.6793185,32.5196079 26.6793185,32.5357498 C26.6793185,32.5518918 26.7247361,32.5650988 26.7802791,32.5650988 C26.8358221,32.5650988 26.8894574,32.5783059 26.8994361,32.5944478 C26.9094147,32.6105898 26.9556394,32.6237968 27.0021576,32.6237968 C27.0486758,32.6237968 27.0949005,32.6370039 27.1048792,32.6531459 C27.1148578,32.6692878 27.167686,32.6824949 27.2222752,32.6824949 C27.2768644,32.6824949 27.3296926,32.6957019 27.3396712,32.7118439 C27.3496499,32.7279858 27.4032852,32.7411929 27.4588282,32.7411929 C27.5143712,32.7411929 27.5597888,32.7544 27.5597888,32.7705419 C27.5597888,32.7866839 27.59941,32.7998909 27.6478359,32.7998909 C27.6962617,32.7998909 27.7358829,32.813098 27.7358829,32.8292399 C27.7358829,32.8453819 27.7755041,32.8585889 27.8239299,32.8585889 C27.8723558,32.8585889 27.911977,32.871796 27.911977,32.887938 C27.911977,32.9040799 27.9383911,32.917287 27.970675,32.917287 C28.0029589,32.917287 28.029373,32.930494 28.029373,32.946636 C28.029373,32.9627779 28.0557871,32.975985 28.088071,32.975985 C28.120355,32.975985 28.1467691,32.9869909 28.1467691,33.0003447 C28.1467691,33.0137718 28.1830885,33.0434877 28.2274789,33.0663799 C28.2718692,33.0893455 28.3213957,33.1212626 28.3375376,33.1374046 C28.3536796,33.1535465 28.3855967,33.203073 28.4085623,33.2474633 C28.4314545,33.2918537 28.4611704,33.3281731 28.4745975,33.3281731 C28.4879513,33.3281731 28.4989572,33.3677943 28.4989572,33.4162202 C28.4989572,33.464646 28.5121643,33.5042672 28.5283062,33.5042672 C28.5444482,33.5042672 28.5576552,33.5703025 28.5576552,33.6510123 C28.5576552,33.731722 28.5444482,33.7977573 28.5283062,33.7977573 C28.5121643,33.7977573 28.4989572,33.8310684 28.4989572,33.8717902 C28.4989572,33.9547745 28.209576,34.2673415 28.1327549,34.2673415 C28.1081751,34.2673415 28.088071,34.2805486 28.088071,34.2966905 C28.088071,34.3128325 28.0616569,34.3260395 28.029373,34.3260395 C27.9970891,34.3260395 27.970675,34.3392466 27.970675,34.3553885 C27.970675,34.3715305 27.9384645,34.3847376 27.8990634,34.3847376 C27.8596624,34.3847376 27.8192341,34.3979446 27.8092554,34.4140866 C27.7984697,34.4315492 27.6138644,34.4434356 27.3543458,34.4434356 C27.0948271,34.4434356 26.9102218,34.4315492 26.8994361,34.4140866 C26.8894574,34.3979446 26.8498362,34.3847376 26.811389,34.3847376 C26.7729418,34.3847376 26.7333207,34.3715305 26.723342,34.3553885 C26.7133633,34.3392466 26.6729351,34.3260395 26.633534,34.3260395 C26.594133,34.3260395 26.5619224,34.3128325 26.5619224,34.2966905 C26.5619224,34.2805486 26.5415982,34.2673415 26.516725,34.2673415 C26.4572198,34.2673415 26.0923382,33.903267 26.0923382,33.8439086 C26.0923382,33.8185217 26.0791312,33.7977573 26.0629892,33.7977573 C26.0468473,33.7977573 26.0336402,33.7581362 26.0336402,33.7097103 C26.0336402,33.6612844 26.0204332,33.6216632 26.0042912,33.6216632 C25.9881493,33.6216632 25.9749422,33.555628 25.9749422,33.4749182 L25.9749422,33.3281731 L25.358613,33.3281731 L24.7422837,33.3281731 L24.7422837,33.5171808 C24.7422837,33.6211496 24.7554908,33.7144061 24.7716327,33.7243848 C24.7877747,33.7343635 24.8009817,33.7937952 24.8009817,33.8564553 C24.8009817,33.9191155 24.8141888,33.9785472 24.8303307,33.9885259 C24.8464727,33.9985046 24.8599732,34.0422346 24.8603401,34.0856711 C24.860707,34.1291077 24.8868276,34.1976376 24.9183778,34.2379925 C24.949928,34.2783474 24.9760486,34.3278738 24.9764154,34.3480513 C24.9767823,34.3682287 24.9902829,34.3847376 25.0064248,34.3847376 C25.0225668,34.3847376 25.0357738,34.4052819 25.0357738,34.4304486 C25.0357738,34.4832035 25.580785,35.0304158 25.6333931,35.0304158 C25.6526901,35.0304158 25.687542,35.0568299 25.7108011,35.0891138 C25.7340602,35.1213977 25.7758092,35.1478119 25.8036173,35.1478119 C25.8313522,35.1478119 25.862242,35.1610189 25.8722207,35.1771609 C25.8821993,35.1933028 25.9226276,35.2065099 25.9620286,35.2065099 C26.0014297,35.2065099 26.0336402,35.2197169 26.0336402,35.2358589 C26.0336402,35.2520009 26.0600543,35.2652079 26.0923382,35.2652079 C26.1246222,35.2652079 26.1510363,35.278415 26.1510363,35.2945569 C26.1510363,35.3106989 26.1964539,35.3239059 26.2519969,35.3239059 C26.3075399,35.3239059 26.3611752,35.337113 26.3711539,35.3532549 C26.3811325,35.3693969 26.4413714,35.382604 26.5049854,35.382604 C26.5685993,35.382604 26.6206205,35.395811 26.6206205,35.411953 C26.6206205,35.4297091 26.7458674,35.441302 26.9375898,35.441302 C27.1450139,35.441302 27.266739,35.4534818 27.2897779,35.4765208 C27.3171459,35.5038887 27.3328476,35.5038887 27.3602156,35.4765208 C27.3832545,35.4534818 27.5049796,35.441302 27.7124037,35.441302 C27.9041261,35.441302 28.029373,35.4297091 28.029373,35.411953 C28.029373,35.395811 28.0879977,35.382604 28.1596826,35.382604 C28.2313676,35.382604 28.29821,35.3693969 28.3081886,35.3532549 C28.3181673,35.337113 28.3577885,35.3239059 28.3962357,35.3239059 C28.4346829,35.3239059 28.474304,35.3106989 28.4842827,35.2945569 C28.4942614,35.278415 28.5280861,35.2652079 28.5594162,35.2652079 C28.5907462,35.2652079 28.6163533,35.2520009 28.6163533,35.2358589 C28.6163533,35.2197169 28.6530395,35.2065099 28.6979435,35.2065099 C28.7458558,35.2065099 28.7969231,35.1822969 28.8217963,35.1478119 C28.8450554,35.1155279 28.8876115,35.0891138 28.9163002,35.0891138 C28.9450622,35.0891138 28.9685414,35.0759068 28.9685414,35.0597648 C28.9685414,35.0436229 28.9870313,35.0304158 29.0095566,35.0304158 C29.0626784,35.0304158 29.4968236,34.6065427 29.4968236,34.5546683 C29.4968236,34.5328767 29.5232377,34.4960437 29.5555216,34.4727846 C29.5878055,34.4495255 29.6142197,34.4069694 29.6142197,34.3782808 C29.6142197,34.3495187 29.6274267,34.3260395 29.6435687,34.3260395 C29.6597106,34.3260395 29.6729177,34.2864184 29.6729177,34.2379925 C29.6729177,34.1895666 29.6861247,34.1499455 29.7022667,34.1499455 C29.7184086,34.1499455 29.7316157,34.1111314 29.7316157,34.0636594 C29.7316157,34.0161873 29.7448228,33.9691555 29.7609647,33.9591769 C29.7779871,33.9486846 29.7903137,33.7882189 29.7903137,33.5776397 C29.7903137,33.3670606 29.7779871,33.2065948 29.7609647,33.1961026 C29.7448228,33.1861239 29.7316157,33.1465027 29.7316157,33.1080555 C29.7316157,33.0696083 29.7184086,33.0299872 29.7022667,33.0200085 C29.6861247,33.0100298 29.6729177,32.9696016 29.6729177,32.9302005 C29.6729177,32.8907995 29.6597106,32.8585889 29.6435687,32.8585889 C29.6274267,32.8585889 29.6142197,32.8351097 29.6142197,32.8063477 C29.6142197,32.777659 29.5878055,32.735103 29.5555216,32.7118439 C29.5232377,32.6885848 29.4963834,32.6493305 29.4959431,32.6246773 C29.4954295,32.5999508 29.432696,32.5336954 29.3565353,32.4774187 C29.2803013,32.4210685 29.1966566,32.3517315 29.170536,32.3233363 C29.1444154,32.2948678 29.1044273,32.2716087 29.0816085,32.2716087 C29.058863,32.2716087 29.0211495,32.2451946 28.9978904,32.2129107 C28.9746313,32.1806268 28.9320753,32.1542127 28.9033866,32.1542127 C28.8746246,32.1542127 28.8511454,32.1410056 28.8511454,32.1248636 C28.8511454,32.1087217 28.8247312,32.0955146 28.7924473,32.0955146 C28.7601634,32.0955146 28.7337493,32.0823076 28.7337493,32.0661656 C28.7337493,32.0500237 28.7081423,32.0368166 28.6768122,32.0368166 C28.6454822,32.0368166 28.6116574,32.0236096 28.6016788,32.0074676 C28.5917001,31.9913256 28.5512718,31.9781186 28.5118708,31.9781186 C28.4724697,31.9781186 28.4402592,31.9649115 28.4402592,31.9487696 C28.4402592,31.9326276 28.400638,31.9194206 28.3522122,31.9194206 C28.3037863,31.9194206 28.2641651,31.9062135 28.2641651,31.8900716 C28.2641651,31.8739296 28.224544,31.8607225 28.1761181,31.8607225 C28.1276922,31.8607225 28.088071,31.8475155 28.088071,31.8313735 C28.088071,31.8152316 28.049257,31.8020245 28.001785,31.8020245 C27.9543129,31.8020245 27.9072811,31.7888175 27.8973025,31.7726755 C27.8873238,31.7565336 27.8344956,31.7433265 27.7799064,31.7433265 C27.7253173,31.7433265 27.672489,31.7301194 27.6625104,31.7139775 C27.6525317,31.6978355 27.5997035,31.6846285 27.5451143,31.6846285 C27.4905252,31.6846285 27.4376969,31.6714214 27.4277183,31.6552795 C27.4177396,31.6391375 27.3583079,31.6259304 27.2956477,31.6259304 C27.2329876,31.6259304 27.1735558,31.6127234 27.1635772,31.5965814 C27.1535985,31.5804395 27.1065667,31.5672324 27.0590947,31.5672324 C27.0116227,31.5672324 26.9728086,31.5540254 26.9728086,31.5378834 C26.9728086,31.5217415 26.9331874,31.5085344 26.8847616,31.5085344 C26.8363357,31.5085344 26.7967145,31.4953273 26.7967145,31.4791854 C26.7967145,31.4630434 26.7669987,31.4495429 26.7306793,31.449176 C26.6943599,31.4488092 26.6316263,31.4226885 26.5912714,31.3911384 C26.5509166,31.3595882 26.5075534,31.3334675 26.4949333,31.3331007 C26.4524506,31.3318534 26.2684323,31.1294185 26.2684323,31.0839276 C26.2684323,31.059201 26.2552253,31.0389502 26.2390833,31.0389502 C26.2229413,31.0389502 26.2097343,30.999329 26.2097343,30.9509032 C26.2097343,30.9024773 26.1965272,30.8628561 26.1803853,30.8628561 C26.1642433,30.8628561 26.1510363,30.823235 26.1510363,30.7748091 C26.1510363,30.7263832 26.1642433,30.6867621 26.1803853,30.6867621 C26.1965272,30.6867621 26.2097343,30.6368688 26.2097343,30.5758228 C26.2097343,30.4985615 26.2275638,30.4521167 26.2684323,30.422621 C26.3007162,30.3993619 26.3271303,30.3628224 26.3271303,30.3414709 C26.3271303,30.2920912 26.4350613,30.1856277 26.5399107,30.1314788 C26.5843011,30.1085865 26.6206205,30.0788707 26.6206205,30.0654435 C26.6206205,30.0520897 26.6462275,30.0410838 26.6775575,30.0410838 C26.7088876,30.0410838 26.7427123,30.0278768 26.752691,30.0117348 C26.7626697,29.9955928 26.8154979,29.9823858 26.8700871,29.9823858 C26.9246762,29.9823858 26.9775044,29.9691787 26.9874831,29.9530368 C26.9975351,29.9368214 27.1296057,29.9236878 27.2827342,29.9236878 C27.4478957,29.9236878 27.5597888,29.9355741 27.5597888,29.9530368 C27.5597888,29.9691787 27.6052064,29.9823858 27.6607494,29.9823858 C27.7162924,29.9823858 27.7699278,29.9955928 27.7799064,30.0117348 C27.7898851,30.0278768 27.8237098,30.0410838 27.8550399,30.0410838 C27.88637,30.0410838 27.911977,30.0520897 27.911977,30.0654435 C27.911977,30.0788707 27.9481496,30.1085865 27.9923199,30.1314788 C28.103039,30.1888561 28.3228631,30.4112482 28.3228631,30.4658374 C28.3228631,30.4904906 28.3360702,30.510668 28.3522122,30.510668 C28.3683541,30.510668 28.3815612,30.5370821 28.3815612,30.569366 C28.3815612,30.6016499 28.3947682,30.628064 28.4109102,30.628064 C28.4270521,30.628064 28.4402592,30.6668781 28.4402592,30.7143501 C28.4402592,30.7618222 28.4534662,30.808854 28.4696082,30.8188326 C28.4857502,30.8288113 28.4989572,30.8692396 28.4989572,30.9086406 L28.4989572,30.9802522 L29.0859374,30.9802522 L29.6729177,30.9802522 L29.6729177,30.6867621 C29.6729177,30.510668 29.6611781,30.393272 29.6435687,30.393272 C29.6274267,30.393272 29.6142197,30.3536508 29.6142197,30.3052249 C29.6142197,30.2567991 29.6010126,30.2171779 29.5848706,30.2171779 C29.5687287,30.2171779 29.5555216,30.1866549 29.5555216,30.1493083 C29.5555216,30.1120351 29.5291075,30.0531169 29.4968236,30.0184851 C29.4645397,29.9838532 29.4381256,29.9351339 29.4381256,29.9102606 C29.4381256,29.8853873 29.4249185,29.8649897 29.4087766,29.8649897 C29.3926346,29.8649897 29.3794276,29.8469401 29.3794276,29.8249283 C29.3794276,29.7814184 29.0773529,29.454177 29.0371447,29.4540302 C29.0236442,29.4540302 28.9663402,29.414409 28.9098434,29.3660565 C28.8533465,29.317704 28.790613,29.2780829 28.7704356,29.2780829 C28.7502581,29.2780095 28.7337493,29.2648025 28.7337493,29.2486605 C28.7337493,29.2325185 28.7073352,29.2193115 28.6750513,29.2193115 C28.6427674,29.2193115 28.6163533,29.2061044 28.6163533,29.1899625 C28.6163533,29.1738205 28.5899391,29.1606135 28.5576552,29.1606135 C28.5253713,29.1606135 28.4989572,29.1474064 28.4989572,29.1312644 C28.4989572,29.1151225 28.4667467,29.1019154 28.4273456,29.1019154 C28.3879446,29.1019154 28.3475163,29.0887084 28.3375376,29.0725664 C28.327559,29.0564245 28.2747308,29.0432174 28.2201416,29.0432174 C28.1655524,29.0432174 28.1127242,29.0300104 28.1027456,29.0138684 C28.0927669,28.9977264 28.032528,28.9845194 27.9689141,28.9845194 C27.9053001,28.9845194 27.853279,28.9713123 27.853279,28.9551704 C27.853279,28.9366805 27.6533388,28.9258214 27.3120832,28.9258214 C26.9828606,28.9258214 26.7636969,28.9373409 26.752691,28.9551704 M15.1158079,29.144178 C15.1158079,29.199721 15.1290149,29.2533563 15.1451569,29.263335 C15.1612988,29.2733137 15.1745059,29.3203455 15.1745059,29.3678175 C15.1745059,29.4152895 15.1877129,29.4541036 15.2038549,29.4541036 C15.2199968,29.4541036 15.2332039,29.4995212 15.2332039,29.5550642 C15.2332039,29.6106072 15.246411,29.6642425 15.2625529,29.6742212 C15.2786949,29.6841998 15.2919019,29.7312316 15.2919019,29.7787036 C15.2919019,29.8261757 15.305109,29.8649897 15.3212509,29.8649897 C15.3373929,29.8649897 15.3505999,29.9038038 15.3505999,29.9512758 C15.3505999,29.9987479 15.363807,30.0457797 15.379949,30.0557583 C15.3960909,30.065737 15.409298,30.1193723 15.409298,30.1749153 C15.409298,30.2304583 15.422505,30.2758759 15.438647,30.2758759 C15.4547889,30.2758759 15.467996,30.3154971 15.467996,30.3639229 C15.467996,30.4123488 15.481203,30.45197 15.497345,30.45197 C15.513487,30.45197 15.526694,30.5047982 15.526694,30.569366 C15.526694,30.6339339 15.5399011,30.6867621 15.556043,30.6867621 C15.572185,30.6867621 15.585392,30.7263832 15.585392,30.7748091 C15.585392,30.823235 15.5985991,30.8628561 15.6147411,30.8628561 C15.630883,30.8628561 15.6440901,30.9082737 15.6440901,30.9638167 C15.6440901,31.0193597 15.6572971,31.0729951 15.6734391,31.0829737 C15.689581,31.0929524 15.7027881,31.1399842 15.7027881,31.1874562 C15.7027881,31.2349282 15.7159951,31.2737423 15.7321371,31.2737423 C15.7482791,31.2737423 15.7614861,31.3191599 15.7614861,31.3747029 C15.7614861,31.4302459 15.7746932,31.4838812 15.7908351,31.4938599 C15.8069771,31.5038386 15.8201841,31.5508704 15.8201841,31.5983424 C15.8201841,31.6458144 15.8333912,31.6846285 15.8495331,31.6846285 C15.8656751,31.6846285 15.8788822,31.7234425 15.8788822,31.7709146 C15.8788822,31.8183866 15.8920892,31.8654184 15.9082312,31.875397 C15.9243731,31.8853757 15.9375802,31.939011 15.9375802,31.994554 C15.9375802,32.050097 15.9507872,32.0955146 15.9669292,32.0955146 C15.9830711,32.0955146 15.9962782,32.1351358 15.9962782,32.1835617 C15.9962782,32.2319875 16.0094853,32.2716087 16.0256272,32.2716087 C16.0417692,32.2716087 16.0549762,32.3244369 16.0549762,32.3890048 C16.0549762,32.4535726 16.0681833,32.5064008 16.0843252,32.5064008 C16.1004672,32.5064008 16.1136743,32.546022 16.1136743,32.5944478 C16.1136743,32.6428737 16.1268813,32.6824949 16.1430233,32.6824949 C16.1591652,32.6824949 16.1723723,32.7279125 16.1723723,32.7834555 C16.1723723,32.8389985 16.1855793,32.8926338 16.2017213,32.9026125 C16.2178632,32.9125911 16.2310703,32.9596229 16.2310703,33.0070949 C16.2310703,33.054567 16.2442774,33.093381 16.2604193,33.093381 C16.2765613,33.093381 16.2897683,33.1387986 16.2897683,33.1943416 C16.2897683,33.2498846 16.3029754,33.30352 16.3191173,33.3134986 C16.3352593,33.3234773 16.3484663,33.3705091 16.3484663,33.4179811 C16.3484663,33.4654531 16.3616734,33.5042672 16.3778154,33.5042672 C16.3939573,33.5042672 16.4071644,33.5430813 16.4071644,33.5905533 C16.4071644,33.6380253 16.4203714,33.6850571 16.4365134,33.6950358 C16.4526553,33.7050144 16.4658624,33.7586498 16.4658624,33.8141928 C16.4658624,33.8697358 16.4790694,33.9151534 16.4952114,33.9151534 C16.5113534,33.9151534 16.5245604,33.9539674 16.5245604,34.0014395 C16.5245604,34.0489115 16.5377675,34.0959433 16.5539094,34.1059219 C16.5700514,34.1159006 16.5832584,34.1695359 16.5832584,34.2250789 C16.5832584,34.2806219 16.5964655,34.3260395 16.6126075,34.3260395 C16.6287494,34.3260395 16.6419565,34.3656607 16.6419565,34.4140866 C16.6419565,34.4625124 16.6551635,34.5021336 16.6713055,34.5021336 C16.6874474,34.5021336 16.7006545,34.5549618 16.7006545,34.6195296 C16.7006545,34.6840975 16.7138615,34.7369257 16.7300035,34.7369257 C16.7461455,34.7369257 16.7593525,34.7765469 16.7593525,34.8249727 C16.7593525,34.8733986 16.7725596,34.9130198 16.7887015,34.9130198 C16.8048435,34.9130198 16.8180505,34.9584374 16.8180505,35.0139804 C16.8180505,35.0695234 16.8312576,35.1231587 16.8473995,35.1331374 C16.8635415,35.143116 16.8767486,35.1901478 16.8767486,35.2376198 L16.8767486,35.3239059 L17.3924841,35.3239059 C17.9515094,35.3239059 17.992011,35.3131202 17.992011,35.1646142 C17.992011,35.1230853 18.0052181,35.0891138 18.02136,35.0891138 C18.037502,35.0891138 18.050709,35.0502998 18.050709,35.0028277 C18.050709,34.9553557 18.0639161,34.9083239 18.080058,34.8983453 C18.0962,34.8883666 18.1094071,34.8347313 18.1094071,34.7791883 C18.1094071,34.7236453 18.1226141,34.6782277 18.1387561,34.6782277 C18.154898,34.6782277 18.1681051,34.6386065 18.1681051,34.5901806 C18.1681051,34.5417548 18.1813121,34.5021336 18.1974541,34.5021336 C18.213596,34.5021336 18.2268031,34.4625124 18.2268031,34.4140866 C18.2268031,34.3656607 18.2400102,34.3260395 18.2561521,34.3260395 C18.2722941,34.3260395 18.2855011,34.2864184 18.2855011,34.2379925 C18.2855011,34.1895666 18.2987082,34.1499455 18.3148501,34.1499455 C18.3309921,34.1499455 18.3441991,34.1111314 18.3441991,34.0636594 C18.3441991,34.0161873 18.3574062,33.9691555 18.3735482,33.9591769 C18.3896901,33.9491982 18.4028972,33.8955629 18.4028972,33.8400199 C18.4028972,33.7844769 18.4161042,33.7390593 18.4322462,33.7390593 C18.4483881,33.7390593 18.4615952,33.6994381 18.4615952,33.6510123 C18.4615952,33.6025864 18.4748022,33.5629652 18.4909442,33.5629652 C18.5070862,33.5629652 18.5202932,33.5233441 18.5202932,33.4749182 C18.5202932,33.4264923 18.5335003,33.3868712 18.5496422,33.3868712 C18.5657842,33.3868712 18.5789912,33.34725 18.5789912,33.2988241 C18.5789912,33.2503982 18.5921983,33.2107771 18.6083403,33.2107771 C18.6244822,33.2107771 18.6376893,33.171963 18.6376893,33.124491 C18.6376893,33.077019 18.6508963,33.0299872 18.6670383,33.0200085 C18.6831802,33.0100298 18.6963873,32.9563945 18.6963873,32.9008515 C18.6963873,32.8453085 18.7095943,32.7998909 18.7257363,32.7998909 C18.7418783,32.7998909 18.7550853,32.7602698 18.7550853,32.7118439 C18.7550853,32.663418 18.7682924,32.6237968 18.7844343,32.6237968 C18.8005763,32.6237968 18.8137833,32.5841757 18.8137833,32.5357498 C18.8137833,32.4873239 18.8269904,32.4477028 18.8431323,32.4477028 C18.8592743,32.4477028 18.8724814,32.4080816 18.8724814,32.3596557 C18.8724814,32.3112299 18.8856884,32.2716087 18.9018304,32.2716087 C18.9179723,32.2716087 18.9311794,32.2327946 18.9311794,32.1853226 C18.9311794,32.1378506 18.9443864,32.0908188 18.9605284,32.0808401 C18.9766703,32.0708615 18.9898774,32.0172261 18.9898774,31.9616831 C18.9898774,31.9061401 19.0030845,31.8607225 19.0192264,31.8607225 C19.0353684,31.8607225 19.0485754,31.8211014 19.0485754,31.7726755 C19.0485754,31.7242496 19.0617825,31.6846285 19.0779244,31.6846285 C19.0940664,31.6846285 19.1072735,31.6458144 19.1072735,31.5983424 C19.1072735,31.5508704 19.1204805,31.5038386 19.1366225,31.4938599 C19.1527644,31.4838812 19.1659715,31.4170389 19.1659715,31.3453539 C19.1659715,31.2736689 19.1791785,31.2150443 19.1953205,31.2150443 C19.2114624,31.2150443 19.2246695,31.1622161 19.2246695,31.0976482 C19.2246695,31.0330804 19.2378766,30.9802522 19.2540185,30.9802522 C19.2701605,30.9802522 19.2833675,30.927424 19.2833675,30.8628561 C19.2833675,30.7982883 19.2965746,30.7454601 19.3127165,30.7454601 C19.3288585,30.7454601 19.3420655,30.7718742 19.3420655,30.8041581 C19.3420655,30.836442 19.3552726,30.8628561 19.3714146,30.8628561 C19.3875565,30.8628561 19.4007636,30.9156844 19.4007636,30.9802522 C19.4007636,31.04482 19.4139706,31.0976482 19.4301126,31.0976482 C19.4462545,31.0976482 19.4594616,31.1504765 19.4594616,31.2150443 C19.4594616,31.2796121 19.4726686,31.3324403 19.4888106,31.3324403 C19.5049526,31.3324403 19.5181596,31.3852686 19.5181596,31.4498364 C19.5181596,31.5144042 19.5313667,31.5672324 19.5475086,31.5672324 C19.5636506,31.5672324 19.5768576,31.6060465 19.5768576,31.6535185 C19.5768576,31.7009905 19.5900647,31.7480223 19.6062067,31.758001 C19.6223486,31.7679797 19.6355557,31.8142044 19.6355557,31.8607225 C19.6355557,31.9072407 19.6487627,31.9534654 19.6649047,31.9634441 C19.6810466,31.9734227 19.6942537,32.0204545 19.6942537,32.0679266 C19.6942537,32.1153986 19.7074607,32.1542127 19.7236027,32.1542127 C19.7397447,32.1542127 19.7529517,32.1938338 19.7529517,32.2422597 C19.7529517,32.2906856 19.7661588,32.3303067 19.7823007,32.3303067 C19.7984427,32.3303067 19.8116497,32.3699279 19.8116497,32.4183538 C19.8116497,32.4667796 19.8248568,32.5064008 19.8409987,32.5064008 C19.8571407,32.5064008 19.8703478,32.546022 19.8703478,32.5944478 C19.8703478,32.6428737 19.8835548,32.6824949 19.8996968,32.6824949 C19.9158387,32.6824949 19.9290458,32.722116 19.9290458,32.7705419 C19.9290458,32.8189678 19.9422528,32.8585889 19.9583948,32.8585889 C19.9745367,32.8585889 19.9877438,32.897403 19.9877438,32.944875 C19.9877438,32.9923471 20.0009509,33.0393789 20.0170928,33.0493575 C20.0332348,33.0593362 20.0464418,33.1055609 20.0464418,33.1520791 C20.0464418,33.1985972 20.0596489,33.2448219 20.0757908,33.2548006 C20.0919328,33.2647793 20.1051399,33.3118111 20.1051399,33.3592831 C20.1051399,33.4067551 20.1183469,33.4455692 20.1344889,33.4455692 C20.1506308,33.4455692 20.1638379,33.4851903 20.1638379,33.5336162 C20.1638379,33.5820421 20.1770449,33.6216632 20.1931869,33.6216632 C20.2093288,33.6216632 20.2225359,33.6612844 20.2225359,33.7097103 C20.2225359,33.7581362 20.235743,33.7977573 20.2518849,33.7977573 C20.2680269,33.7977573 20.2812339,33.8373785 20.2812339,33.8858044 C20.2812339,33.9342302 20.294441,33.9738514 20.3105829,33.9738514 C20.3267249,33.9738514 20.3399319,34.0126655 20.3399319,34.0601375 C20.3399319,34.1076095 20.353139,34.1546413 20.369281,34.16462 C20.3854229,34.1745986 20.39863,34.2208233 20.39863,34.2673415 C20.39863,34.3138597 20.411837,34.3600844 20.427979,34.370063 C20.4441209,34.3800417 20.457328,34.4196629 20.457328,34.4581101 C20.457328,34.4965573 20.470535,34.5361785 20.486677,34.5461571 C20.502819,34.5561358 20.516026,34.6031676 20.516026,34.6506396 C20.516026,34.6981116 20.5292331,34.7369257 20.545375,34.7369257 C20.561517,34.7369257 20.574724,34.7765469 20.574724,34.8249727 C20.574724,34.8733986 20.5879311,34.9130198 20.604073,34.9130198 C20.620215,34.9130198 20.6334221,34.9526409 20.6334221,35.0010668 C20.6334221,35.0494927 20.6466291,35.0891138 20.6627711,35.0891138 C20.678913,35.0891138 20.6921201,35.1230853 20.6921201,35.1646142 C20.6921201,35.3156148 20.732475,35.3260337 21.2850435,35.3173024 L21.792708,35.3092314 L21.8018062,35.1991726 C21.8067956,35.1386403 21.8233044,35.0891138 21.8384925,35.0891138 C21.8536806,35.0891138 21.8660806,35.0494927 21.8660806,35.0010668 C21.8660806,34.9526409 21.8792876,34.9130198 21.8954296,34.9130198 C21.9115715,34.9130198 21.9247786,34.8601915 21.9247786,34.7956237 C21.9247786,34.7310559 21.9379856,34.6782277 21.9541276,34.6782277 C21.9702695,34.6782277 21.9834766,34.6386065 21.9834766,34.5901806 C21.9834766,34.5417548 21.9966837,34.5021336 22.0128256,34.5021336 C22.0289676,34.5021336 22.0421746,34.456716 22.0421746,34.401173 C22.0421746,34.34563 22.0553817,34.2919947 22.0715236,34.282016 C22.0876656,34.2720373 22.1008726,34.2250056 22.1008726,34.1775335 C22.1008726,34.1300615 22.1140797,34.0912474 22.1302217,34.0912474 C22.1463636,34.0912474 22.1595707,34.0458298 22.1595707,33.9902868 C22.1595707,33.9347438 22.1727777,33.8811085 22.1889197,33.8711298 C22.2050616,33.8611512 22.2182687,33.8141194 22.2182687,33.7666474 C22.2182687,33.7191753 22.2314758,33.6803613 22.2476177,33.6803613 C22.2637597,33.6803613 22.2769667,33.6415472 22.2769667,33.5940752 C22.2769667,33.5466032 22.2901738,33.4995714 22.3063157,33.4895927 C22.3224577,33.479614 22.3356647,33.4259787 22.3356647,33.3704357 C22.3356647,33.3148927 22.3488718,33.2694751 22.3650138,33.2694751 C22.3811557,33.2694751 22.3943628,33.230661 22.3943628,33.183189 C22.3943628,33.135717 22.4075698,33.0886852 22.4237118,33.0787065 C22.4398537,33.0687279 22.4530608,33.0150925 22.4530608,32.9595495 C22.4530608,32.9040065 22.4662678,32.8585889 22.4824098,32.8585889 C22.4985518,32.8585889 22.5117588,32.8189678 22.5117588,32.7705419 C22.5117588,32.722116 22.5249659,32.6824949 22.5411078,32.6824949 C22.5572498,32.6824949 22.5704568,32.6296667 22.5704568,32.5650988 C22.5704568,32.500531 22.5836639,32.4477028 22.5998058,32.4477028 C22.6159478,32.4477028 22.6291549,32.4080816 22.6291549,32.3596557 C22.6291549,32.3112299 22.6423619,32.2716087 22.6585039,32.2716087 C22.6746458,32.2716087 22.6878529,32.2261911 22.6878529,32.1706481 C22.6878529,32.1151051 22.7010599,32.0614698 22.7172019,32.0514911 C22.7333439,32.0415125 22.7465509,31.9944807 22.7465509,31.9470086 C22.7465509,31.8995366 22.759758,31.8607225 22.7758999,31.8607225 C22.7920419,31.8607225 22.8052489,31.8219085 22.8052489,31.7744364 C22.8052489,31.7269644 22.818456,31.6799326 22.8345979,31.669954 C22.8507399,31.6599753 22.863947,31.60634 22.863947,31.550797 C22.863947,31.495254 22.877154,31.4498364 22.893296,31.4498364 C22.9094379,31.4498364 22.922645,31.4110223 22.922645,31.3635503 C22.922645,31.3160783 22.935852,31.2690465 22.951994,31.2590678 C22.9681359,31.2490891 22.981343,31.1954538 22.981343,31.1399108 C22.981343,31.0843678 22.9945501,31.0389502 23.010692,31.0389502 C23.026834,31.0389502 23.040041,30.999329 23.040041,30.9509032 C23.040041,30.9024773 23.0532481,30.8628561 23.06939,30.8628561 C23.085532,30.8628561 23.098739,30.8100279 23.098739,30.7454601 C23.098739,30.6808923 23.1119461,30.628064 23.1280881,30.628064 C23.14423,30.628064 23.1574371,30.5884429 23.1574371,30.540017 C23.1574371,30.4915911 23.1706441,30.45197 23.1867861,30.45197 C23.202928,30.45197 23.2161351,30.4065524 23.2161351,30.3510094 C23.2161351,30.2954664 23.2293422,30.2418311 23.2454841,30.2318524 C23.2616261,30.2218737 23.2748331,30.1748419 23.2748331,30.1273699 C23.2748331,30.0798979 23.2880402,30.0410838 23.3041821,30.0410838 C23.3203241,30.0410838 23.3335311,30.0022697 23.3335311,29.9547977 C23.3335311,29.9073257 23.3467382,29.8602939 23.3628802,29.8503152 C23.3790221,29.8403366 23.3922292,29.7867013 23.3922292,29.7311583 C23.3922292,29.6756152 23.4054362,29.6301976 23.4215782,29.6301976 C23.4377201,29.6301976 23.4509272,29.5913836 23.4509272,29.5439116 C23.4509272,29.4964395 23.4641342,29.4494077 23.4802762,29.4394291 C23.4964182,29.4294504 23.5096252,29.3758151 23.5096252,29.3202721 C23.5096252,29.2647291 23.5228323,29.2193115 23.5389742,29.2193115 C23.5551162,29.2193115 23.5683232,29.1796903 23.5683232,29.1312644 L23.5683232,29.0432174 L22.9593312,29.0434375 L22.3503392,29.0436576 L22.313653,29.1226799 C22.2934755,29.1661164 22.2769667,29.2378747 22.2769667,29.2821184 C22.2769667,29.326362 22.2637597,29.3707524 22.2476177,29.380731 C22.2314758,29.3907097 22.2182687,29.4435379 22.2182687,29.4981271 C22.2182687,29.5527163 22.2050616,29.6055445 22.1889197,29.6155231 C22.1727777,29.6255018 22.1595707,29.6857407 22.1595707,29.7493546 C22.1595707,29.8129686 22.1463636,29.8649897 22.1302217,29.8649897 C22.1140797,29.8649897 22.1008726,29.917818 22.1008726,29.9823858 C22.1008726,30.0469536 22.0876656,30.0997818 22.0715236,30.0997818 C22.0553817,30.0997818 22.0421746,30.1526101 22.0421746,30.2171779 C22.0421746,30.2817457 22.0289676,30.3345739 22.0128256,30.3345739 C21.9966837,30.3345739 21.9834766,30.3874022 21.9834766,30.45197 C21.9834766,30.5165378 21.9702695,30.569366 21.9541276,30.569366 C21.9379856,30.569366 21.9247786,30.6221942 21.9247786,30.6867621 C21.9247786,30.7513299 21.9115715,30.8041581 21.8954296,30.8041581 C21.8792876,30.8041581 21.8660806,30.8569863 21.8660806,30.9215542 C21.8660806,30.986122 21.8528735,31.0389502 21.8367315,31.0389502 C21.8205896,31.0389502 21.8073825,31.0917784 21.8073825,31.1563463 C21.8073825,31.2209141 21.7941755,31.2737423 21.7780335,31.2737423 C21.7618916,31.2737423 21.7486845,31.3265705 21.7486845,31.3911384 C21.7486845,31.4557062 21.7354775,31.5085344 21.7193355,31.5085344 C21.7031935,31.5085344 21.6899865,31.5613626 21.6899865,31.6259304 C21.6899865,31.6904983 21.6767794,31.7433265 21.6606375,31.7433265 C21.6444955,31.7433265 21.6312885,31.7961547 21.6312885,31.8607225 C21.6312885,31.9252904 21.6180814,31.9781186 21.6019394,31.9781186 C21.5857975,31.9781186 21.5725904,32.0309468 21.5725904,32.0955146 C21.5725904,32.1600825 21.5593834,32.2129107 21.5432414,32.2129107 C21.5270995,32.2129107 21.5138924,32.2657389 21.5138924,32.3303067 C21.5138924,32.3948746 21.5006854,32.4477028 21.4845434,32.4477028 C21.4684014,32.4477028 21.4551944,32.500531 21.4551944,32.5650988 C21.4551944,32.6296667 21.4419873,32.6824949 21.4258454,32.6824949 C21.4097034,32.6824949 21.3964964,32.734516 21.3964964,32.79813 C21.3964964,32.861744 21.3832893,32.9219828 21.3671474,32.9319615 C21.3510054,32.9419401 21.3377983,33.0087825 21.3377983,33.0804675 C21.3377983,33.1521524 21.3245913,33.2107771 21.3084493,33.2107771 C21.2923074,33.2107771 21.2791003,33.2768124 21.2791003,33.3575221 C21.2791003,33.4382319 21.2685347,33.5042672 21.2556211,33.5042672 C21.2016923,33.5042672 21.1617043,33.4267124 21.1617043,33.3223033 C21.1617043,33.2609639 21.1484972,33.2107771 21.1323553,33.2107771 C21.1162133,33.2107771 21.1030062,33.1521524 21.1030062,33.0804675 C21.1030062,33.0087825 21.0897992,32.9419401 21.0736572,32.9319615 C21.0575153,32.9219828 21.0443082,32.874951 21.0443082,32.827479 C21.0443082,32.780007 21.0311012,32.7411929 21.0149592,32.7411929 C20.9988173,32.7411929 20.9856102,32.7015717 20.9856102,32.6531459 C20.9856102,32.60472 20.9724031,32.5650988 20.9562612,32.5650988 C20.9401192,32.5650988 20.9269122,32.5254777 20.9269122,32.4770518 C20.9269122,32.4286259 20.9137051,32.3890048 20.8975632,32.3890048 C20.8814212,32.3890048 20.8682142,32.3493836 20.8682142,32.3009577 C20.8682142,32.2525318 20.8550071,32.2129107 20.8388651,32.2129107 C20.8227232,32.2129107 20.8095161,32.1740966 20.8095161,32.1266246 C20.8095161,32.0791526 20.7963091,32.0321208 20.7801671,32.0221421 C20.7640252,32.0121634 20.7508181,31.9659387 20.7508181,31.9194206 C20.7508181,31.8729024 20.7376111,31.8266777 20.7214691,31.816699 C20.7053271,31.8067204 20.6921201,31.7596886 20.6921201,31.7122165 C20.6921201,31.6647445 20.678913,31.6259304 20.6627711,31.6259304 C20.6466291,31.6259304 20.6334221,31.5863093 20.6334221,31.5378834 C20.6334221,31.4894575 20.620215,31.4498364 20.604073,31.4498364 C20.5879311,31.4498364 20.574724,31.4102152 20.574724,31.3617893 C20.574724,31.3133635 20.561517,31.2737423 20.545375,31.2737423 C20.5292331,31.2737423 20.516026,31.2341211 20.516026,31.1856953 C20.516026,31.1372694 20.502819,31.0976482 20.486677,31.0976482 C20.470535,31.0976482 20.457328,31.0522306 20.457328,30.9966876 C20.457328,30.9411446 20.4441209,30.8875093 20.427979,30.8775306 C20.411837,30.867552 20.39863,30.8279308 20.39863,30.7894836 C20.39863,30.7510364 20.3854229,30.7114152 20.369281,30.7014366 C20.353139,30.6914579 20.3399319,30.6444261 20.3399319,30.5969541 C20.3399319,30.5494821 20.3267249,30.510668 20.3105829,30.510668 C20.294441,30.510668 20.2812339,30.4710468 20.2812339,30.422621 C20.2812339,30.3741951 20.2680269,30.3345739 20.2518849,30.3345739 C20.235743,30.3345739 20.2225359,30.2949528 20.2225359,30.2465269 C20.2225359,30.198101 20.2093288,30.1584799 20.1931869,30.1584799 C20.1770449,30.1584799 20.1638379,30.1196658 20.1638379,30.0721938 C20.1638379,30.0247217 20.1506308,29.9776899 20.1344889,29.9677113 C20.1183469,29.9577326 20.1051399,29.9115079 20.1051399,29.8649897 C20.1051399,29.8184716 20.0919328,29.7722469 20.0757908,29.7622682 C20.0596489,29.7522895 20.0464418,29.7052577 20.0464418,29.6577857 C20.0464418,29.6103137 20.0332348,29.5714996 20.0170928,29.5714996 C20.0009509,29.5714996 19.9877438,29.5318785 19.9877438,29.4834526 C19.9877438,29.4350267 19.9745367,29.3954056 19.9583948,29.3954056 C19.9422528,29.3954056 19.9290458,29.3557844 19.9290458,29.3073585 C19.9290458,29.2589327 19.9158387,29.2193115 19.8996968,29.2193115 C19.8835548,29.2193115 19.8703478,29.1796903 19.8703478,29.1312644 L19.8703478,29.0432174 L19.3420655,29.0432174 C18.8333738,29.0432174 18.8137833,29.0454186 18.8137833,29.1019154 C18.8137833,29.1341994 18.8005763,29.1606135 18.7844343,29.1606135 C18.7682924,29.1606135 18.7550853,29.1994275 18.7550853,29.2468996 C18.7550853,29.2943716 18.7418783,29.3414034 18.7257363,29.351382 C18.7095943,29.3613607 18.6963873,29.4075854 18.6963873,29.4541036 C18.6963873,29.5006218 18.6831802,29.5468465 18.6670383,29.5568251 C18.6508963,29.5668038 18.6376893,29.6138356 18.6376893,29.6613076 C18.6376893,29.7087796 18.6244822,29.7475937 18.6083403,29.7475937 C18.5921983,29.7475937 18.5789912,29.7872149 18.5789912,29.8356407 C18.5789912,29.8840666 18.5657842,29.9236878 18.5496422,29.9236878 C18.5335003,29.9236878 18.5202932,29.9633089 18.5202932,30.0117348 C18.5202932,30.0601607 18.5070862,30.0997818 18.4909442,30.0997818 C18.4748022,30.0997818 18.4615952,30.1385959 18.4615952,30.1860679 C18.4615952,30.23354 18.4483881,30.2805718 18.4322462,30.2905504 C18.4161042,30.3005291 18.4028972,30.3467538 18.4028972,30.393272 C18.4028972,30.4397901 18.3896901,30.4860148 18.3735482,30.4959935 C18.3574062,30.5059722 18.3441991,30.553004 18.3441991,30.600476 C18.3441991,30.647948 18.3309921,30.6867621 18.3148501,30.6867621 C18.2987082,30.6867621 18.2855011,30.7263832 18.2855011,30.7748091 C18.2855011,30.823235 18.2722941,30.8628561 18.2561521,30.8628561 C18.2400102,30.8628561 18.2268031,30.9024773 18.2268031,30.9509032 C18.2268031,30.999329 18.213596,31.0389502 18.1974541,31.0389502 C18.1813121,31.0389502 18.1681051,31.0785714 18.1681051,31.1269972 C18.1681051,31.1754231 18.154898,31.2150443 18.1387561,31.2150443 C18.1226141,31.2150443 18.1094071,31.2538584 18.1094071,31.3013304 C18.1094071,31.3488024 18.0962,31.3958342 18.080058,31.4058129 C18.0639161,31.4157915 18.050709,31.4694268 18.050709,31.5249698 C18.050709,31.5805129 18.037502,31.6259304 18.02136,31.6259304 C18.0052181,31.6259304 17.992011,31.6655516 17.992011,31.7139775 C17.992011,31.7624034 17.9788039,31.8020245 17.962662,31.8020245 C17.94652,31.8020245 17.933313,31.8416457 17.933313,31.8900716 C17.933313,31.9384974 17.9201059,31.9781186 17.903964,31.9781186 C17.887822,31.9781186 17.874615,32.0177398 17.874615,32.0661656 C17.874615,32.1145915 17.8614079,32.1542127 17.8452659,32.1542127 C17.829124,32.1542127 17.8159169,32.1930267 17.8159169,32.2404988 C17.8159169,32.2879708 17.8027099,32.3350026 17.7865679,32.3449812 C17.770426,32.3549599 17.7572189,32.4011846 17.7572189,32.4477028 C17.7572189,32.494221 17.7440119,32.5404457 17.7278699,32.5504243 C17.7117279,32.560403 17.6985209,32.6074348 17.6985209,32.6549068 C17.6985209,32.7023788 17.6853138,32.7411929 17.6691719,32.7411929 C17.6530299,32.7411929 17.6398229,32.7808141 17.6398229,32.8292399 C17.6398229,32.8776658 17.6266158,32.917287 17.6104739,32.917287 C17.5943319,32.917287 17.5811248,32.9701152 17.5811248,33.034683 C17.5811248,33.0992508 17.5679178,33.1520791 17.5517758,33.1520791 C17.5356339,33.1520791 17.5224268,33.2181143 17.5224268,33.2988241 C17.5224268,33.3795339 17.5092198,33.4455692 17.4930778,33.4455692 C17.4769358,33.4455692 17.4637288,33.4191551 17.4637288,33.3868712 C17.4637288,33.3545872 17.4505217,33.3281731 17.4343798,33.3281731 C17.4182378,33.3281731 17.4050308,33.2563414 17.4050308,33.1685145 C17.4050308,33.0806876 17.3918237,33.0006382 17.3756818,32.9906595 C17.3595398,32.9806808 17.3463327,32.9278526 17.3463327,32.8732634 C17.3463327,32.8186743 17.3331257,32.7658461 17.3169837,32.7558674 C17.3008418,32.7458887 17.2876347,32.699664 17.2876347,32.6531459 C17.2876347,32.6066277 17.2744277,32.560403 17.2582857,32.5504243 C17.2421438,32.5404457 17.2289367,32.4868103 17.2289367,32.4312673 C17.2289367,32.3757243 17.2157296,32.3303067 17.1995877,32.3303067 C17.1834457,32.3303067 17.1702387,32.2774785 17.1702387,32.2129107 C17.1702387,32.1483429 17.1570316,32.0955146 17.1408897,32.0955146 C17.1247477,32.0955146 17.1115407,32.0426864 17.1115407,31.9781186 C17.1115407,31.9135508 17.0983336,31.8607225 17.0821916,31.8607225 C17.0660497,31.8607225 17.0528426,31.8078943 17.0528426,31.7433265 C17.0528426,31.6787587 17.0396356,31.6259304 17.0234936,31.6259304 C17.0073517,31.6259304 16.9941446,31.5805129 16.9941446,31.5249698 C16.9941446,31.4694268 16.9809375,31.4157915 16.9647956,31.4058129 C16.9486536,31.3958342 16.9354466,31.3496095 16.9354466,31.3030913 C16.9354466,31.2565731 16.9222395,31.2103484 16.9060976,31.2003698 C16.8899556,31.1903911 16.8767486,31.1367558 16.8767486,31.0812128 C16.8767486,31.0256698 16.8635415,30.9802522 16.8473995,30.9802522 C16.8312576,30.9802522 16.8180505,30.927424 16.8180505,30.8628561 C16.8180505,30.7982883 16.8048435,30.7454601 16.7887015,30.7454601 C16.7725596,30.7454601 16.7593525,30.6926319 16.7593525,30.628064 C16.7593525,30.5634962 16.7461455,30.510668 16.7300035,30.510668 C16.7138615,30.510668 16.7006545,30.4578398 16.7006545,30.393272 C16.7006545,30.3287041 16.6874474,30.2758759 16.6713055,30.2758759 C16.6551635,30.2758759 16.6419565,30.2304583 16.6419565,30.1749153 C16.6419565,30.1193723 16.6287494,30.065737 16.6126075,30.0557583 C16.5964655,30.0457797 16.5832584,29.9929514 16.5832584,29.9383623 C16.5832584,29.8837731 16.5700514,29.8309449 16.5539094,29.8209662 C16.5377675,29.8109876 16.5245604,29.7647629 16.5245604,29.7182447 C16.5245604,29.6717265 16.5113534,29.6255018 16.4952114,29.6155231 C16.4790694,29.6055445 16.4658624,29.5519092 16.4658624,29.4963662 C16.4658624,29.4408232 16.4526553,29.3954056 16.4365134,29.3954056 C16.4203714,29.3954056 16.4071644,29.3425773 16.4071644,29.2780095 C16.4071644,29.2134417 16.3939573,29.1606135 16.3778154,29.1606135 C16.3616734,29.1606135 16.3484663,29.1341994 16.3484663,29.1019154 C16.3484663,29.0450517 16.3288759,29.0432174 15.7321371,29.0432174 L15.1158079,29.0432174 L15.1158079,29.144178 M11.7700205,29.9530368 C11.7700205,29.9691787 11.8228487,29.9823858 11.8874166,29.9823858 C11.9519844,29.9823858 12.0048126,29.9955928 12.0048126,30.0117348 C12.0048126,30.0278768 12.0312267,30.0410838 12.0635106,30.0410838 C12.0957945,30.0410838 12.1222087,30.0542909 12.1222087,30.0704328 C12.1222087,30.0865748 12.1422394,30.0997818 12.1667458,30.0997818 C12.2248568,30.0997818 12.5917928,30.4667179 12.5917928,30.5248289 C12.5917928,30.5493353 12.6016981,30.5694394 12.6138046,30.5695861 C12.6401453,30.5698796 12.7091889,30.7120022 12.7091889,30.7660044 C12.7091889,30.7869889 12.7223959,30.8041581 12.7385379,30.8041581 C12.7546799,30.8041581 12.7678869,30.8495757 12.7678869,30.9051187 C12.7678869,30.9606617 12.781094,31.014297 12.7972359,31.0242757 C12.8133779,31.0342544 12.8265849,31.1473214 12.8265849,31.2755032 L12.8265849,31.5085344 L11.4765304,31.5085344 L10.1264759,31.5085344 L10.1264759,31.3911384 C10.1264759,31.3265705 10.1396829,31.2737423 10.1558249,31.2737423 C10.1719668,31.2737423 10.1851739,31.2341211 10.1851739,31.1856953 C10.1851739,31.1372694 10.1983809,31.0976482 10.2145229,31.0976482 C10.2306648,31.0976482 10.2438719,31.0580271 10.2438719,31.0096012 C10.2438719,30.9611753 10.257079,30.9215542 10.2732209,30.9215542 C10.2893629,30.9215542 10.3025699,30.8951401 10.3025699,30.8628561 C10.3025699,30.8305722 10.315777,30.8041581 10.3319189,30.8041581 C10.3480609,30.8041581 10.3612679,30.777744 10.3612679,30.7454601 C10.3612679,30.7131762 10.374475,30.6867621 10.390617,30.6867621 C10.4067589,30.6867621 10.419966,30.6668047 10.419966,30.6424451 C10.419966,30.6180854 10.4595871,30.556746 10.508013,30.5060455 C10.5564389,30.4553451 10.59606,30.4011228 10.59606,30.3855678 C10.59606,30.3449195 10.805612,30.1584799 10.8512497,30.1584799 C10.8723076,30.1584799 10.8896235,30.1485746 10.8897703,30.1364681 C10.8900638,30.1101274 11.0321864,30.0410838 11.0861885,30.0410838 C11.1071731,30.0410838 11.1243423,30.0278768 11.1243423,30.0117348 C11.1243423,29.9955928 11.1565528,29.9823858 11.1959538,29.9823858 C11.2353549,29.9823858 11.2757832,29.9691787 11.2857618,29.9530368 C11.2957405,29.9368948 11.4088076,29.9236878 11.5369894,29.9236878 C11.6728019,29.9236878 11.7700205,29.935941 11.7700205,29.9530368" id="News"></path>
                    </g>
                </g>
            </g>
        </g>
    </g>
</svg>