<?xml version="1.0" encoding="UTF-8"?>
<svg width="31px" height="37px" viewBox="0 0 31 37" version="1.1" xmlns="http://www.w3.org/2000/svg" xmlns:xlink="http://www.w3.org/1999/xlink">
    <!-- Generator: Sketch 52.6 (67491) - http://www.bohemiancoding.com/sketch -->
    <title>Nav_bottom / Icon_with_text / News / Active</title>
    <desc>Created with Sketch.</desc>
    <g id="Material-Components" stroke="none" stroke-width="1" fill="none" fill-rule="evenodd">
        <g id="Navigation" transform="translate(-300.000000, -865.000000)" fill="#FFFFFF">
            <g id="Bottom-Navigation-/-Primary-Color-/-Active-/-Resting-Copy-3" transform="translate(90.000000, 836.000000)">
                <g id="Bottom-Navigation-/-4-up-/-Primary-Color-Copy-3">
                    <g id="Nav_bottom-/-Icon_with_text-/-News-/-Active" transform="translate(210.000000, 29.000000)">
                        <path d="M15.5,6.62359212 C17.16,6.62359212 18.5,5.28359212 18.5,3.62359212 C18.5,1.96359212 17.16,0.623592123 15.5,0.623592123 C13.84,0.623592123 12.5,1.96359212 12.5,3.62359212 C12.5,5.28359212 13.84,6.62359212 15.5,6.62359212 M15.5,10.1735921 C13.14,7.97359212 9.98,6.62359212 6.5,6.62359212 L6.5,17.6235921 C9.98,17.6235921 13.14,18.9735921 15.5,21.1735921 C17.859,18.9825921 21.02,17.6235921 24.5,17.6235921 L24.5,6.62359212 C21.02,6.62359212 17.859,7.97359212 15.5,10.1735921 M0.5,31.7251468 L0.5,36.0210059 L1.12647945,36.0210059 L1.7529589,36.0210059 L1.7529589,32.8289439 C1.7529589,30.720766 1.7631019,29.636882 1.78279125,29.636882 C1.79919905,29.636882 1.8126236,29.6544831 1.8126236,29.6760369 C1.8126236,29.6975162 1.83947272,29.7439801 1.87228831,29.7791823 C1.9051039,29.8143845 1.93195302,29.860923 1.93195302,29.882626 C1.93195302,29.904329 1.95880214,29.9413957 1.99161773,29.9650379 C2.02443332,29.98868 2.05128244,30.0319369 2.05128244,30.0610981 C2.05128244,30.0903338 2.064707,30.1141997 2.0811148,30.1141997 C2.09752259,30.1141997 2.11094715,30.1318007 2.11094715,30.1533546 C2.11094715,30.1748339 2.13779627,30.2212978 2.17061186,30.2565 C2.20342745,30.2917022 2.23027657,30.3382406 2.23027657,30.3599437 C2.23027657,30.3816467 2.25712569,30.4187134 2.28994128,30.4423556 C2.32275687,30.4659977 2.34960599,30.5092546 2.34960599,30.5384157 C2.34960599,30.5676514 2.36303055,30.5915173 2.37943834,30.5915173 C2.39584614,30.5915173 2.4092707,30.6091184 2.4092707,30.6306723 C2.4092707,30.6521516 2.43611982,30.6986155 2.46893541,30.7338177 C2.501751,30.7690198 2.52860012,30.8155583 2.52860012,30.8372613 C2.52860012,30.8589644 2.55544924,30.8960311 2.58826483,30.9196732 C2.62108042,30.9433154 2.64792954,30.9865723 2.64792954,31.0157334 C2.64792954,31.0449691 2.66135409,31.068835 2.67776189,31.068835 C2.69416968,31.068835 2.70759424,31.0864361 2.70759424,31.10799 C2.70759424,31.1294693 2.73444336,31.1759332 2.76725895,31.2111353 C2.80007454,31.2463375 2.82692366,31.2897436 2.82692366,31.3074938 C2.82692366,31.3252441 2.85377278,31.3686502 2.88658837,31.4038523 C2.91940396,31.4390545 2.94625308,31.4855184 2.94625308,31.5069977 C2.94625308,31.5285516 2.95967764,31.5461527 2.97608544,31.5461527 C2.99249323,31.5461527 3.00591779,31.5700186 3.00591779,31.5992543 C3.00591779,31.6284154 3.03276691,31.6716723 3.0655825,31.6953144 C3.09839809,31.7189566 3.12524721,31.7560233 3.12524721,31.7777263 C3.12524721,31.7994294 3.15209633,31.8459678 3.18491192,31.88117 C3.21772751,31.9163722 3.24457663,31.9628361 3.24457663,31.9843154 C3.24457663,32.0058693 3.25800119,32.0234703 3.27440898,32.0234703 C3.29081678,32.0234703 3.30424134,32.0473362 3.30424134,32.0765719 C3.30424134,32.1057331 3.33109046,32.14899 3.36390605,32.1726321 C3.39672164,32.1962743 3.42357076,32.2395312 3.42357076,32.2686923 C3.42357076,32.297928 3.43699532,32.3217939 3.45340311,32.3217939 C3.46981091,32.3217939 3.48323547,32.339395 3.48323547,32.3609489 C3.48323547,32.3824282 3.51008458,32.428892 3.54290017,32.4640942 C3.57571576,32.4992964 3.60256488,32.5458349 3.60256488,32.5675379 C3.60256488,32.589241 3.629414,32.6263077 3.66222959,32.6499498 C3.69504518,32.6735919 3.7218943,32.7168489 3.7218943,32.74601 C3.7218943,32.7752457 3.73531886,32.7991116 3.75172666,32.7991116 C3.76813445,32.7991116 3.78155901,32.8167127 3.78155901,32.8382665 C3.78155901,32.8597458 3.80840813,32.9062097 3.84122372,32.9414119 C3.87403931,32.9766141 3.90088843,33.0231526 3.90088843,33.0448556 C3.90088843,33.0665586 3.92773755,33.1036253 3.96055314,33.1272675 C3.99336873,33.1509096 4.02021785,33.1941665 4.02021785,33.2233277 C4.02021785,33.2525634 4.03364241,33.2764292 4.0500502,33.2764292 C4.066458,33.2764292 4.07988256,33.2940303 4.07988256,33.3155842 C4.07988256,33.3370635 4.10673168,33.3835274 4.13954727,33.4187296 C4.17236286,33.4539318 4.19921198,33.5004702 4.19921198,33.5221733 C4.19921198,33.5438763 4.2260611,33.580943 4.25887669,33.6045851 C4.29169228,33.6282273 4.3185414,33.6714842 4.3185414,33.7006453 C4.3185414,33.729881 4.33196596,33.7537469 4.34837375,33.7537469 C4.36478155,33.7537469 4.3782061,33.771348 4.3782061,33.7929019 C4.3782061,33.8143812 4.40505522,33.8608451 4.43787081,33.8960473 C4.4706864,33.9312494 4.49753552,33.9746555 4.49753552,33.9924058 C4.49753552,34.010156 4.52438464,34.0535621 4.55720023,34.0887643 C4.59001582,34.1239664 4.61686494,34.1704303 4.61686494,34.1919096 C4.61686494,34.2134635 4.6302895,34.2310646 4.6466973,34.2310646 C4.66310509,34.2310646 4.67652965,34.2549305 4.67652965,34.2841662 C4.67652965,34.3133273 4.70337877,34.3565842 4.73619436,34.3802264 C4.76900995,34.4038685 4.79585907,34.4409352 4.79585907,34.4626382 C4.79585907,34.4843413 4.82270819,34.5308798 4.85552378,34.5660819 C4.88833937,34.6012841 4.91518849,34.647748 4.91518849,34.6692273 C4.91518849,34.6907812 4.92861305,34.7083823 4.94502084,34.7083823 C4.96142864,34.7083823 4.9748532,34.7322482 4.9748532,34.7614839 C4.9748532,34.790645 5.00170232,34.8339019 5.03451791,34.857544 C5.0673335,34.8811862 5.09418262,34.9244431 5.09418262,34.9536042 C5.09418262,34.9828399 5.10760718,35.0067058 5.12401497,35.0067058 C5.14042277,35.0067058 5.15384733,35.0243069 5.15384733,35.0458608 C5.15384733,35.0673401 5.18069645,35.113804 5.21351204,35.1490061 C5.24632763,35.1842083 5.27317674,35.2307468 5.27317674,35.2524498 C5.27317674,35.2741529 5.30002586,35.3112196 5.33284145,35.3348617 C5.36565704,35.3585039 5.39250616,35.4017608 5.39250616,35.4309219 C5.39250616,35.4601576 5.40593072,35.4840235 5.42233852,35.4840235 C5.43874631,35.4840235 5.45217087,35.5016246 5.45217087,35.5231785 C5.45217087,35.5446577 5.47901999,35.5911216 5.51183558,35.6263238 C5.54465117,35.661526 5.57150029,35.7080645 5.57150029,35.7297675 C5.57150029,35.7514705 5.59834941,35.7885372 5.631165,35.8121794 C5.66398059,35.8358215 5.69082971,35.8733357 5.69082971,35.8954862 C5.69082971,36.0098187 5.75593882,36.0210059 6.41970871,36.0210059 L7.06334177,36.0210059 L7.05573452,31.7326049 L7.04820185,27.4442039 L6.40680622,27.4442039 L5.7654106,27.4442039 L5.75780335,30.6288078 C5.75280643,32.7172218 5.73997851,33.8134116 5.7205129,33.8134116 C5.70417969,33.8134116 5.69082971,33.7865625 5.69082971,33.7537469 C5.69082971,33.7209313 5.67740515,33.6940822 5.66099735,33.6940822 C5.64458956,33.6940822 5.631165,33.6764811 5.631165,33.6549272 C5.631165,33.6334479 5.60431588,33.5869841 5.57150029,33.5517819 C5.5386847,33.5165797 5.51183558,33.4700412 5.51183558,33.4483382 C5.51183558,33.4266351 5.48498646,33.3895684 5.45217087,33.3659263 C5.41935528,33.3422842 5.39250616,33.2990273 5.39250616,33.2698661 C5.39250616,33.2406304 5.3790816,33.2167645 5.36267381,33.2167645 C5.34626601,33.2167645 5.33284145,33.1991634 5.33284145,33.1776096 C5.33284145,33.1561303 5.30599233,33.1096664 5.27317674,33.0744642 C5.24036115,33.039262 5.21351204,32.9927236 5.21351204,32.9710205 C5.21351204,32.9493175 5.18666292,32.9122508 5.15384733,32.8886086 C5.12103174,32.8649665 5.09418262,32.8217096 5.09418262,32.7925485 C5.09418262,32.7633127 5.08075806,32.7394469 5.06435026,32.7394469 C5.04794247,32.7394469 5.03451791,32.7218458 5.03451791,32.7002919 C5.03451791,32.6788126 5.00766879,32.6323487 4.9748532,32.5971465 C4.94203761,32.5619444 4.91518849,32.5185383 4.91518849,32.500788 C4.91518849,32.4830378 4.88833937,32.4396317 4.85552378,32.4044295 C4.82270819,32.3692273 4.79585907,32.3227634 4.79585907,32.3012842 C4.79585907,32.2797303 4.78243451,32.2621292 4.76602672,32.2621292 C4.74961892,32.2621292 4.73619436,32.2445281 4.73619436,32.2229742 C4.73619436,32.2014949 4.70934524,32.155031 4.67652965,32.1198289 C4.64371406,32.0846267 4.61686494,32.0412206 4.61686494,32.0234703 C4.61686494,32.0057201 4.59001582,31.962314 4.55720023,31.9271118 C4.52438464,31.8919097 4.49753552,31.8454458 4.49753552,31.8239665 C4.49753552,31.8024126 4.48411096,31.7848115 4.46770317,31.7848115 C4.45129537,31.7848115 4.43787081,31.7609456 4.43787081,31.7317099 C4.43787081,31.7025488 4.4110217,31.6592919 4.3782061,31.6356497 C4.34539051,31.6120076 4.3185414,31.5749409 4.3185414,31.5532379 C4.3185414,31.5315348 4.29169228,31.4849963 4.25887669,31.4497942 C4.2260611,31.414592 4.19921198,31.3681281 4.19921198,31.3466488 C4.19921198,31.3250949 4.18578742,31.3074938 4.16937962,31.3074938 C4.15297183,31.3074938 4.13954727,31.283628 4.13954727,31.2543922 C4.13954727,31.2252311 4.11269815,31.1819742 4.07988256,31.1583321 C4.04706697,31.1346899 4.02021785,31.0976232 4.02021785,31.0759202 C4.02021785,31.0542171 3.99336873,31.0076787 3.96055314,30.9724765 C3.92773755,30.9372743 3.90088843,30.8908104 3.90088843,30.8693311 C3.90088843,30.8477773 3.88746387,30.8301762 3.87105608,30.8301762 C3.85464828,30.8301762 3.84122372,30.8063103 3.84122372,30.7770746 C3.84122372,30.7479134 3.8143746,30.7046565 3.78155901,30.6810144 C3.74874342,30.6573722 3.7218943,30.6203055 3.7218943,30.5986025 C3.7218943,30.5768995 3.69504518,30.530361 3.66222959,30.4951588 C3.629414,30.4599566 3.60256488,30.4134927 3.60256488,30.3920135 C3.60256488,30.3704596 3.58914032,30.3528585 3.57273253,30.3528585 C3.55632473,30.3528585 3.54290017,30.3289926 3.54290017,30.2997569 C3.54290017,30.2705958 3.51605106,30.2273389 3.48323547,30.2036967 C3.45041988,30.1800546 3.42357076,30.1367977 3.42357076,30.1076365 C3.42357076,30.0784008 3.4101462,30.0545349 3.3937384,30.0545349 C3.37733061,30.0545349 3.36390605,30.0369339 3.36390605,30.01538 C3.36390605,29.9939007 3.33705693,29.9474368 3.30424134,29.9122346 C3.27142575,29.8770324 3.24457663,29.830494 3.24457663,29.8087909 C3.24457663,29.7870879 3.21772751,29.7500212 3.18491192,29.726379 C3.15209633,29.7027369 3.12524721,29.65948 3.12524721,29.6303189 C3.12524721,29.6010832 3.11182265,29.5772173 3.09541485,29.5772173 C3.07900706,29.5772173 3.0655825,29.5596162 3.0655825,29.5380623 C3.0655825,29.516583 3.03873338,29.4701191 3.00591779,29.4349169 C2.9731022,29.3997148 2.94625308,29.3531763 2.94625308,29.3314732 C2.94625308,29.3097702 2.91940396,29.2727035 2.88658837,29.2490614 C2.85377278,29.2254192 2.82692366,29.1821623 2.82692366,29.1530012 C2.82692366,29.1237655 2.8134991,29.0998996 2.79709131,29.0998996 C2.78068351,29.0998996 2.76725895,29.0822985 2.76725895,29.0607446 C2.76725895,29.0392653 2.74040983,28.9928014 2.70759424,28.9575993 C2.67477865,28.9223971 2.64792954,28.8758586 2.64792954,28.8541556 C2.64792954,28.8324525 2.62108042,28.7953858 2.58826483,28.7717437 C2.55544924,28.7481016 2.52860012,28.7048446 2.52860012,28.6756835 C2.52860012,28.6464478 2.51517556,28.6225819 2.49876776,28.6225819 C2.48235997,28.6225819 2.46893541,28.6049808 2.46893541,28.583427 C2.46893541,28.5619477 2.44208629,28.5154838 2.4092707,28.4802816 C2.37645511,28.4450794 2.34960599,28.3985409 2.34960599,28.3768379 C2.34960599,28.3551349 2.32275687,28.3180682 2.28994128,28.294426 C2.25712569,28.2707839 2.23027657,28.227527 2.23027657,28.1983658 C2.23027657,28.1691301 2.21685201,28.1452642 2.20044422,28.1452642 C2.18403642,28.1452642 2.17061186,28.1276632 2.17061186,28.1061093 C2.17061186,28.08463 2.14376274,28.0381661 2.11094715,28.0029639 C2.07813156,27.9677617 2.05128244,27.9212233 2.05128244,27.8995202 C2.05128244,27.8778172 2.02443332,27.8407505 1.99161773,27.8171083 C1.95880214,27.7934662 1.93195302,27.7502093 1.93195302,27.7210482 C1.93195302,27.6918125 1.91852846,27.6679466 1.90212067,27.6679466 C1.88571287,27.6679466 1.87228831,27.6511659 1.87228831,27.6306561 C1.87221373,27.6101464 1.84044228,27.5564481 1.80166021,27.5113267 L1.7311067,27.4292877 L1.11551606,27.4292877 L0.5,27.4292877 L0.5,31.7251468 M11.2396477,29.5473849 C11.2396477,29.5637927 11.1800575,29.5772173 11.107192,29.5772173 C11.0343265,29.5772173 10.9663833,29.5906418 10.9562403,29.6070496 C10.9460973,29.6234574 10.898291,29.636882 10.8500371,29.636882 C10.8017833,29.636882 10.76233,29.6503065 10.76233,29.6667143 C10.76233,29.6831221 10.7354809,29.6965467 10.7026653,29.6965467 C10.6698497,29.6965467 10.6430006,29.7099712 10.6430006,29.726379 C10.6430006,29.7427868 10.6161515,29.7562114 10.5833359,29.7562114 C10.5505203,29.7562114 10.5236712,29.769636 10.5236712,29.7860437 C10.5236712,29.8024515 10.496822,29.8158761 10.4640065,29.8158761 C10.4311909,29.8158761 10.4043417,29.8293007 10.4043417,29.8457085 C10.4043417,29.8621163 10.3867407,29.8755408 10.3651868,29.8755408 C10.3437075,29.8755408 10.3000777,29.8994067 10.2682316,29.9285678 C10.2364602,29.957729 10.1634455,30.0143358 10.1060182,30.0543858 C9.97826114,30.1435099 9.62870052,30.4978437 9.62870052,30.5382666 C9.62870052,30.554376 9.58842685,30.6051656 9.53920346,30.651182 C9.48998007,30.6971984 9.4497064,30.7500763 9.4497064,30.7687961 C9.4497064,30.7875159 9.42285728,30.8316678 9.39004169,30.86687 C9.3572261,30.9020721 9.33037698,30.948536 9.33037698,30.9700153 C9.33037698,30.9915692 9.31695242,31.0091703 9.30054462,31.0091703 C9.28413683,31.0091703 9.27071227,31.0360194 9.27071227,31.068835 C9.27071227,31.1016506 9.25728771,31.1284997 9.24087991,31.1284997 C9.22447212,31.1284997 9.21104756,31.1687734 9.21104756,31.2179968 C9.21104756,31.2672202 9.197623,31.3074938 9.1812152,31.3074938 C9.16480741,31.3074938 9.15138285,31.334343 9.15138285,31.3671585 C9.15138285,31.3999741 9.13795829,31.4268233 9.12155049,31.4268233 C9.1051427,31.4268233 9.09171814,31.4662765 9.09171814,31.5145304 C9.09171814,31.5627842 9.07829358,31.6105906 9.06188579,31.6207336 C9.04547799,31.6308766 9.03205343,31.6912871 9.03205343,31.7549792 C9.03205343,31.8186712 9.01862887,31.8790818 9.00222108,31.8892248 C8.98581328,31.8993678 8.97238872,31.9866274 8.97238872,32.0831351 C8.97238872,32.1796427 8.95896416,32.2669024 8.94255637,32.2770454 C8.92443321,32.2882325 8.91272401,32.5110056 8.91272401,32.84565 C8.91272401,33.1925257 8.92376198,33.3957587 8.94255637,33.3957587 C8.95963539,33.3957587 8.97238872,33.4852557 8.97238872,33.6045851 C8.97238872,33.7239146 8.98514205,33.8134116 9.00222108,33.8134116 C9.01862887,33.8134116 9.03205343,33.8662895 9.03205343,33.9309511 C9.03205343,33.9956127 9.04547799,34.0568436 9.06188579,34.0669866 C9.07829358,34.0771296 9.09171814,34.1316483 9.09171814,34.188106 C9.09171814,34.2445637 9.1051427,34.2907293 9.12155049,34.2907293 C9.13795829,34.2907293 9.15138285,34.316758 9.15138285,34.3486041 C9.15138285,34.3804501 9.16480741,34.4148319 9.1812152,34.4249749 C9.197623,34.4351179 9.21104756,34.476212 9.21104756,34.5162619 C9.21104756,34.5563118 9.22447212,34.5890528 9.24087991,34.5890528 C9.25728771,34.5890528 9.27071227,34.615902 9.27071227,34.6487176 C9.27071227,34.6815331 9.28413683,34.7083823 9.30054462,34.7083823 C9.31695242,34.7083823 9.33037698,34.7322482 9.33037698,34.7614839 C9.33037698,34.790645 9.3572261,34.8339019 9.39004169,34.857544 C9.42285728,34.8811862 9.4497064,34.9214599 9.4497064,34.9470411 C9.4497064,34.9726223 9.47655552,35.012896 9.50937111,35.0365382 C9.5421867,35.0601803 9.56903581,35.0961283 9.56903581,35.1164143 C9.56903581,35.1601933 10.0653716,35.6630176 10.1085539,35.6630176 C10.1249617,35.6630176 10.1671745,35.6898667 10.2023767,35.7226823 C10.2375789,35.7554979 10.2840428,35.782347 10.3055221,35.782347 C10.3270759,35.782347 10.344677,35.7957716 10.344677,35.8121794 C10.344677,35.8285872 10.3715262,35.8420117 10.4043417,35.8420117 C10.4371573,35.8420117 10.4640065,35.8554363 10.4640065,35.8718441 C10.4640065,35.8882519 10.4908556,35.9016765 10.5236712,35.9016765 C10.5564868,35.9016765 10.5833359,35.915101 10.5833359,35.9315088 C10.5833359,35.9479166 10.6103342,35.9613412 10.6433735,35.9613412 C10.6764128,35.9613412 10.7301111,35.9747657 10.7627029,35.9911735 C10.7952948,36.0075813 10.8486947,36.0344304 10.8812865,36.0508382 C10.9138784,36.067246 10.9868931,36.0806706 11.0435745,36.0806706 C11.100256,36.0806706 11.1549238,36.0940951 11.1650668,36.1105029 C11.175359,36.1271345 11.3145269,36.1403353 11.4800965,36.1403353 C11.6578973,36.1403353 11.7766301,36.1522682 11.7766301,36.1701676 C11.7766301,36.1865754 11.8093711,36.2 11.849421,36.2 C11.8894709,36.2 11.930565,36.1865754 11.940708,36.1701676 C11.9512985,36.1529395 12.1100812,36.1403353 12.3154024,36.1403353 C12.5329548,36.1403353 12.6716007,36.1287007 12.6716007,36.1105029 C12.6716007,36.0940951 12.7244785,36.0806706 12.7891402,36.0806706 C12.8538018,36.0806706 12.9150327,36.067246 12.9251757,36.0508382 C12.9353187,36.0344304 12.9823047,36.0210059 13.029589,36.0210059 C13.0768732,36.0210059 13.1238592,36.0075813 13.1340022,35.9911735 C13.1441452,35.9747657 13.178527,35.9613412 13.210373,35.9613412 C13.2422191,35.9613412 13.2682478,35.9479166 13.2682478,35.9315088 C13.2682478,35.915101 13.294724,35.9016765 13.3270921,35.9016765 C13.3594602,35.9016765 13.4433637,35.8675184 13.5135443,35.8257531 C13.5837249,35.7840624 13.6646452,35.7422225 13.6933588,35.7328253 C13.7220725,35.7234281 13.7455655,35.7038879 13.7455655,35.6893447 C13.7455655,35.674876 13.7670448,35.6630176 13.7932972,35.6630176 C13.8194751,35.6630176 13.8765295,35.6251305 13.9200847,35.5788158 C13.9635654,35.5325011 14.036058,35.4705243 14.0811795,35.4411395 C14.1783584,35.3778203 14.1852944,35.3101754 14.1035537,35.2223937 C14.0707381,35.1871916 14.043889,35.1376699 14.043889,35.1123869 C14.043889,35.087104 14.0304645,35.0663705 14.0140567,35.0663705 C13.9976489,35.0663705 13.9842243,35.0487694 13.9842243,35.0272156 C13.9842243,35.0057363 13.9573752,34.9592724 13.9245596,34.9240702 C13.891744,34.888868 13.8648949,34.8393463 13.8648949,34.8140634 C13.8648949,34.7887805 13.8514703,34.768047 13.8350625,34.768047 C13.8186547,34.768047 13.8052302,34.7512663 13.8052302,34.7307565 C13.8051556,34.6729563 13.6697913,34.5293881 13.6152727,34.5293881 C13.5884981,34.5293881 13.5665713,34.5428127 13.5665713,34.5592205 C13.5665713,34.5756283 13.5484482,34.5890528 13.5262231,34.5890528 C13.5040726,34.5890528 13.4460486,34.6259704 13.3972727,34.6710918 C13.2887575,34.7714777 13.1943381,34.8277117 13.1343751,34.8277117 C13.1095397,34.8277117 13.0892537,34.8411362 13.0892537,34.857544 C13.0892537,34.8739518 13.0624045,34.8873764 13.029589,34.8873764 C12.9967734,34.8873764 12.9699242,34.900801 12.9699242,34.9172087 C12.9699242,34.9336165 12.9430751,34.9470411 12.9102595,34.9470411 C12.8774439,34.9470411 12.8505948,34.9604657 12.8505948,34.9768735 C12.8505948,34.9932813 12.8103211,35.0067058 12.7610978,35.0067058 C12.7118744,35.0067058 12.6716007,35.0201304 12.6716007,35.0365382 C12.6716007,35.052946 12.6179025,35.0663705 12.5522713,35.0663705 C12.4866401,35.0663705 12.4329419,35.0797951 12.4329419,35.0962029 C12.4329419,35.1148481 12.2545444,35.1260352 11.9574141,35.1260352 C11.6725151,35.1260352 11.4744283,35.1141023 11.4633903,35.0962029 C11.4532473,35.0797951 11.4062614,35.0663705 11.3589771,35.0663705 C11.3116928,35.0663705 11.2647069,35.052946 11.2545639,35.0365382 C11.2444209,35.0201304 11.2130223,35.0067058 11.1848307,35.0067058 C11.1565646,35.0067058 11.114128,34.9798567 11.0904859,34.9470411 C11.0668438,34.9142255 11.0300008,34.8873764 11.0086707,34.8873764 C10.9581048,34.8873764 10.6430006,34.5722721 10.6430006,34.5217063 C10.6430006,34.5003762 10.6161515,34.4635332 10.5833359,34.4398911 C10.5505203,34.4162489 10.5236712,34.372992 10.5236712,34.3438309 C10.5236712,34.3145952 10.5102466,34.2907293 10.4938388,34.2907293 C10.477431,34.2907293 10.4640065,34.2638802 10.4640065,34.2310646 C10.4640065,34.198249 10.4505819,34.1713999 10.4341741,34.1713999 C10.4177663,34.1713999 10.4043417,34.1386589 10.4043417,34.0986089 C10.4043417,34.058559 10.3909172,34.0174649 10.3745094,34.0073219 C10.3581016,33.9971789 10.344677,33.9493726 10.344677,33.9011188 C10.344677,33.8528649 10.3312525,33.8134116 10.3148447,33.8134116 C10.2984369,33.8134116 10.2850123,33.7597134 10.2850123,33.6940822 C10.2850123,33.628451 10.2715878,33.5747528 10.25518,33.5747528 C10.2381009,33.5747528 10.2253476,33.4852557 10.2253476,33.3659263 L10.2253476,33.1570998 L12.2837801,33.1570998 L14.3422126,33.1570998 L14.3422126,32.7114044 C14.3422126,32.4464186 14.3301305,32.2581764 14.3123802,32.247213 C14.2955995,32.2368463 14.2825478,32.092756 14.2825478,31.9172672 C14.2825478,31.7295471 14.2706895,31.6058174 14.2527155,31.6058174 C14.2363077,31.6058174 14.2228831,31.5521191 14.2228831,31.486488 C14.2228831,31.4208568 14.2094586,31.3671585 14.1930508,31.3671585 C14.176643,31.3671585 14.1632184,31.3134603 14.1632184,31.2478291 C14.1632184,31.1821979 14.1497939,31.1284997 14.1333861,31.1284997 C14.1169783,31.1284997 14.1035537,31.1016506 14.1035537,31.068835 C14.1035537,31.0360194 14.0901292,31.0091703 14.0737214,31.0091703 C14.0573136,31.0091703 14.043889,30.9764293 14.043889,30.9363793 C14.043889,30.8963294 14.0304645,30.8552353 14.0140567,30.8450923 C13.9976489,30.8349493 13.9842243,30.8005676 13.9842243,30.7687215 C13.9842243,30.7368755 13.9707997,30.7108467 13.9543919,30.7108467 C13.9379842,30.7108467 13.9245596,30.694066 13.924485,30.6735563 C13.924485,30.6530466 13.8842113,30.5892799 13.8350625,30.5318526 C13.7859137,30.4744253 13.74564,30.4171472 13.74564,30.4046176 C13.7454909,30.3651643 13.3010634,29.9352055 13.2604168,29.9352055 C13.2391612,29.9352055 13.2023929,29.9083564 13.1787507,29.8755408 C13.1551086,29.8427252 13.1118517,29.8158761 13.0826905,29.8158761 C13.0534548,29.8158761 13.029589,29.8024515 13.029589,29.7860437 C13.029589,29.769636 13.0027398,29.7562114 12.9699242,29.7562114 C12.9371087,29.7562114 12.9102595,29.7427868 12.9102595,29.726379 C12.9102595,29.7099712 12.8699859,29.6965467 12.8207625,29.6965467 C12.7715391,29.6965467 12.7312654,29.6831221 12.7312654,29.6667143 C12.7312654,29.6503065 12.6909917,29.636882 12.6417683,29.636882 C12.592545,29.636882 12.5522713,29.6234574 12.5522713,29.6070496 C12.5522713,29.5906418 12.4792566,29.5772173 12.3899833,29.5772173 C12.3007099,29.5772173 12.2193422,29.5637927 12.2091992,29.5473849 C12.1981612,29.5294855 12.0000744,29.5175526 11.7151754,29.5175526 C11.4180452,29.5175526 11.2396477,29.5287397 11.2396477,29.5473849 M27.1850412,29.5473849 C27.1748982,29.5637927 27.1136673,29.5772173 27.0490057,29.5772173 C26.9843441,29.5772173 26.9314662,29.5906418 26.9314662,29.6070496 C26.9314662,29.6234574 26.877768,29.636882 26.8121368,29.636882 C26.7465056,29.636882 26.6928074,29.6503065 26.6928074,29.6667143 C26.6928074,29.6831221 26.6659583,29.6965467 26.6331427,29.6965467 C26.6003271,29.6965467 26.573478,29.7099712 26.573478,29.726379 C26.573478,29.7427868 26.5332043,29.7562114 26.4839809,29.7562114 C26.4347575,29.7562114 26.3944838,29.769636 26.3944838,29.7860437 C26.3944838,29.8024515 26.370618,29.8158761 26.3413822,29.8158761 C26.3122211,29.8158761 26.2689642,29.8427252 26.2453221,29.8755408 C26.2216799,29.9083564 26.1864032,29.9352055 26.166863,29.9352055 C26.1174904,29.9352055 25.6188426,30.4296768 25.6188426,30.4786764 C25.6188426,30.5006778 25.5919935,30.5380428 25.5591779,30.561685 C25.5263623,30.5853271 25.4995132,30.628584 25.4995132,30.6577452 C25.4995132,30.6869809 25.4860886,30.7108467 25.4696808,30.7108467 C25.453273,30.7108467 25.4398485,30.7511204 25.4398485,30.8003438 C25.4398485,30.8495672 25.4264239,30.8898409 25.4100161,30.8898409 C25.3936083,30.8898409 25.3801838,30.949431 25.3801838,31.0222965 C25.3801838,31.0951621 25.3667592,31.1631052 25.3503514,31.1732482 C25.3339436,31.1833912 25.3205191,31.3042123 25.3205191,31.4417394 C25.3205191,31.5792666 25.3339436,31.7000876 25.3503514,31.7102306 C25.3667592,31.7203736 25.3801838,31.7816045 25.3801838,31.8462662 C25.3801838,31.9109278 25.3936083,31.9638056 25.4100161,31.9638056 C25.4264239,31.9638056 25.4398485,32.0010961 25.4398485,32.0467396 C25.4398485,32.0954409 25.4644602,32.1473492 25.4995132,32.1726321 C25.5323288,32.1962743 25.5591779,32.2330426 25.5591779,32.2543728 C25.5591779,32.3046403 25.9088131,32.6522618 26.0146434,32.7072279 C26.0594665,32.7304972 26.0961603,32.7607024 26.0961603,32.7743507 C26.0961603,32.7879244 26.1230094,32.7991116 26.155825,32.7991116 C26.1886406,32.7991116 26.2154897,32.8125361 26.2154897,32.8289439 C26.2154897,32.8453517 26.2423388,32.8587763 26.2751544,32.8587763 C26.30797,32.8587763 26.3348191,32.8722008 26.3348191,32.8886086 C26.3348191,32.9050164 26.3616682,32.918441 26.3944838,32.918441 C26.4272994,32.918441 26.4541485,32.9318655 26.4541485,32.9482733 C26.4541485,32.9646811 26.4809977,32.9781057 26.5138133,32.9781057 C26.5466288,32.9781057 26.573478,32.9915303 26.573478,33.0079381 C26.573478,33.0243458 26.6137516,33.0377704 26.662975,33.0377704 C26.7121984,33.0377704 26.7524721,33.051195 26.7524721,33.0676028 C26.7524721,33.0840106 26.7927458,33.0974351 26.8419692,33.0974351 C26.8911925,33.0974351 26.9314662,33.1108597 26.9314662,33.1272675 C26.9314662,33.1436753 26.9717399,33.1570998 27.0209633,33.1570998 C27.0701867,33.1570998 27.1104604,33.1705244 27.1104604,33.1869322 C27.1104604,33.20334 27.1566259,33.2167645 27.2130837,33.2167645 C27.2695414,33.2167645 27.32406,33.2301891 27.334203,33.2465969 C27.344346,33.2630047 27.391332,33.2764292 27.4386163,33.2764292 C27.4859005,33.2764292 27.5328865,33.2898538 27.5430295,33.3062616 C27.5531725,33.3226694 27.6068707,33.336094 27.6623589,33.336094 C27.7178471,33.336094 27.7715453,33.3495185 27.7816883,33.3659263 C27.7918313,33.3823341 27.84635,33.3957587 27.9028077,33.3957587 C27.9592654,33.3957587 28.005431,33.4091832 28.005431,33.425591 C28.005431,33.4419988 28.0457047,33.4554234 28.0949281,33.4554234 C28.1441514,33.4554234 28.1844251,33.4688479 28.1844251,33.4852557 C28.1844251,33.5016635 28.2246988,33.5150881 28.2739222,33.5150881 C28.3231456,33.5150881 28.3634192,33.5285126 28.3634192,33.5449204 C28.3634192,33.5613282 28.3902684,33.5747528 28.423084,33.5747528 C28.4558995,33.5747528 28.4827487,33.5881774 28.4827487,33.6045851 C28.4827487,33.6209929 28.5095978,33.6344175 28.5424134,33.6344175 C28.575229,33.6344175 28.6020781,33.6456046 28.6020781,33.6591784 C28.6020781,33.6728267 28.6389956,33.7030319 28.6841171,33.7263012 C28.7292385,33.749645 28.7795806,33.7820877 28.7959884,33.7984955 C28.8123962,33.8149032 28.8448389,33.8652453 28.8681827,33.9103668 C28.8914519,33.9554882 28.9216572,33.9924058 28.9353055,33.9924058 C28.9488792,33.9924058 28.9600663,34.0326794 28.9600663,34.0819028 C28.9600663,34.1311262 28.9734909,34.1713999 28.9898987,34.1713999 C29.0063065,34.1713999 29.019731,34.2385227 29.019731,34.3205617 C29.019731,34.4026006 29.0063065,34.4697234 28.9898987,34.4697234 C28.9734909,34.4697234 28.9600663,34.5035832 28.9600663,34.5449755 C28.9600663,34.6293265 28.6659193,34.9470411 28.5878331,34.9470411 C28.5628485,34.9470411 28.5424134,34.9604657 28.5424134,34.9768735 C28.5424134,34.9932813 28.5155643,35.0067058 28.4827487,35.0067058 C28.4499331,35.0067058 28.423084,35.0201304 28.423084,35.0365382 C28.423084,35.052946 28.3903429,35.0663705 28.350293,35.0663705 C28.3102431,35.0663705 28.269149,35.0797951 28.259006,35.0962029 C28.2480426,35.1139531 28.0603971,35.1260352 27.7966045,35.1260352 C27.5328119,35.1260352 27.3451664,35.1139531 27.334203,35.0962029 C27.32406,35.0797951 27.2837863,35.0663705 27.2447059,35.0663705 C27.2056256,35.0663705 27.1653519,35.052946 27.1552089,35.0365382 C27.1450659,35.0201304 27.1039718,35.0067058 27.0639219,35.0067058 C27.0238719,35.0067058 26.9911309,34.9932813 26.9911309,34.9768735 C26.9911309,34.9604657 26.970472,34.9470411 26.9451891,34.9470411 C26.884704,34.9470411 26.5138133,34.5769707 26.5138133,34.5166348 C26.5138133,34.4908298 26.5003887,34.4697234 26.4839809,34.4697234 C26.4675731,34.4697234 26.4541485,34.4294498 26.4541485,34.3802264 C26.4541485,34.331003 26.440724,34.2907293 26.4243162,34.2907293 C26.4079084,34.2907293 26.3944838,34.2236065 26.3944838,34.1415675 L26.3944838,33.9924058 L25.7680044,33.9924058 L25.1415249,33.9924058 L25.1415249,34.1845261 C25.1415249,34.2902072 25.1549495,34.3849995 25.1713573,34.3951425 C25.1877651,34.4052855 25.2011897,34.4656961 25.2011897,34.5293881 C25.2011897,34.5930802 25.2146142,34.6534907 25.231022,34.6636337 C25.2474298,34.6737767 25.2611527,34.7182269 25.2615256,34.7623788 C25.2618985,34.8065307 25.2884493,34.8761893 25.3205191,34.9172087 C25.3525889,34.9582282 25.3791396,35.0085703 25.3795126,35.0290801 C25.3798855,35.0495898 25.3936083,35.0663705 25.4100161,35.0663705 C25.4264239,35.0663705 25.4398485,35.0872532 25.4398485,35.1128344 C25.4398485,35.1664581 25.9938353,35.7226823 26.0473098,35.7226823 C26.0669246,35.7226823 26.1023505,35.7495314 26.1259926,35.782347 C26.1496348,35.8151626 26.1920713,35.8420117 26.2203375,35.8420117 C26.248529,35.8420117 26.2799276,35.8554363 26.2900706,35.8718441 C26.3002136,35.8882519 26.3413077,35.9016765 26.3813576,35.9016765 C26.4214075,35.9016765 26.4541485,35.915101 26.4541485,35.9315088 C26.4541485,35.9479166 26.4809977,35.9613412 26.5138133,35.9613412 C26.5466288,35.9613412 26.573478,35.9747657 26.573478,35.9911735 C26.573478,36.0075813 26.6196435,36.0210059 26.6761013,36.0210059 C26.732559,36.0210059 26.7870776,36.0344304 26.7972206,36.0508382 C26.8073636,36.067246 26.8685945,36.0806706 26.9332562,36.0806706 C26.9979178,36.0806706 27.0507956,36.0940951 27.0507956,36.1105029 C27.0507956,36.1285515 27.1781052,36.1403353 27.3729851,36.1403353 C27.5838252,36.1403353 27.7075549,36.1527157 27.7309733,36.1761341 C27.758792,36.2039528 27.7747523,36.2039528 27.802571,36.1761341 C27.8259894,36.1527157 27.9497191,36.1403353 28.1605592,36.1403353 C28.3554391,36.1403353 28.4827487,36.1285515 28.4827487,36.1105029 C28.4827487,36.0940951 28.5423388,36.0806706 28.6152043,36.0806706 C28.6880698,36.0806706 28.756013,36.067246 28.766156,36.0508382 C28.776299,36.0344304 28.8165727,36.0210059 28.8556531,36.0210059 C28.8947335,36.0210059 28.9350072,36.0075813 28.9451502,35.9911735 C28.9552932,35.9747657 28.989675,35.9613412 29.021521,35.9613412 C29.053367,35.9613412 29.0793958,35.9479166 29.0793958,35.9315088 C29.0793958,35.915101 29.1166862,35.9016765 29.1623297,35.9016765 C29.211031,35.9016765 29.2629393,35.8770648 29.2882222,35.8420117 C29.3118644,35.8091962 29.3551213,35.782347 29.3842824,35.782347 C29.4135181,35.782347 29.437384,35.7689225 29.437384,35.7525147 C29.437384,35.7361069 29.4561784,35.7226823 29.4790747,35.7226823 C29.5330713,35.7226823 29.9743664,35.2918285 29.9743664,35.2390999 C29.9743664,35.2169493 30.0012155,35.1795097 30.0340311,35.1558676 C30.0668467,35.1322254 30.0936958,35.0889685 30.0936958,35.0598074 C30.0936958,35.0305717 30.1071204,35.0067058 30.1235282,35.0067058 C30.139936,35.0067058 30.1533605,34.9664321 30.1533605,34.9172087 C30.1533605,34.8679854 30.1667851,34.8277117 30.1831929,34.8277117 C30.1996007,34.8277117 30.2130252,34.7882584 30.2130252,34.7400046 C30.2130252,34.6917507 30.2264498,34.6439444 30.2428576,34.6338014 C30.2601604,34.6231363 30.2726899,34.4600279 30.2726899,34.2459808 C30.2726899,34.0319336 30.2601604,33.8688252 30.2428576,33.8581602 C30.2264498,33.8480172 30.2130252,33.8077435 30.2130252,33.7686631 C30.2130252,33.7295827 30.1996007,33.689309 30.1831929,33.679166 C30.1667851,33.669023 30.1533605,33.627929 30.1533605,33.587879 C30.1533605,33.5478291 30.139936,33.5150881 30.1235282,33.5150881 C30.1071204,33.5150881 30.0936958,33.4912222 30.0936958,33.4619865 C30.0936958,33.4328254 30.0668467,33.3895684 30.0340311,33.3659263 C30.0012155,33.3422842 29.9739189,33.3023834 29.9734714,33.2773242 C29.9729494,33.2521905 29.9091827,33.1848439 29.8317677,33.1276404 C29.7542782,33.0703623 29.669256,32.9998833 29.6427052,32.9710205 C29.6161544,32.9420831 29.5755078,32.918441 29.5523132,32.918441 C29.5291931,32.918441 29.4908585,32.8915919 29.4672164,32.8587763 C29.4435742,32.8259607 29.4003173,32.7991116 29.3711562,32.7991116 C29.3419205,32.7991116 29.3180546,32.785687 29.3180546,32.7692792 C29.3180546,32.7528714 29.2912055,32.7394469 29.2583899,32.7394469 C29.2255743,32.7394469 29.1987252,32.7260223 29.1987252,32.7096145 C29.1987252,32.6932067 29.1726964,32.6797822 29.1408504,32.6797822 C29.1090044,32.6797822 29.0746226,32.6663576 29.0644796,32.6499498 C29.0543366,32.633542 29.0132425,32.6201174 28.9731926,32.6201174 C28.9331426,32.6201174 28.9004016,32.6066929 28.9004016,32.5902851 C28.9004016,32.5738773 28.860128,32.5604527 28.8109046,32.5604527 C28.7616812,32.5604527 28.7214075,32.5470282 28.7214075,32.5306204 C28.7214075,32.5142126 28.6811338,32.500788 28.6319104,32.500788 C28.5826871,32.500788 28.5424134,32.4873635 28.5424134,32.4709557 C28.5424134,32.4545479 28.5029601,32.4411233 28.4547063,32.4411233 C28.4064524,32.4411233 28.3586461,32.4276988 28.3485031,32.411291 C28.3383601,32.3948832 28.2846618,32.3814586 28.2291737,32.3814586 C28.1736855,32.3814586 28.1199872,32.368034 28.1098442,32.3516262 C28.0997012,32.3352185 28.046003,32.3217939 27.9905148,32.3217939 C27.9350266,32.3217939 27.8813284,32.3083693 27.8711854,32.2919615 C27.8610424,32.2755537 27.8006319,32.2621292 27.7369398,32.2621292 C27.6732477,32.2621292 27.6128372,32.2487046 27.6026942,32.2322968 C27.5925512,32.215889 27.5447449,32.2024645 27.496491,32.2024645 C27.4482372,32.2024645 27.4087839,32.1890399 27.4087839,32.1726321 C27.4087839,32.1562243 27.3685102,32.1427998 27.3192868,32.1427998 C27.2700634,32.1427998 27.2297898,32.1293752 27.2297898,32.1129674 C27.2297898,32.0965596 27.1995845,32.0828367 27.162667,32.0824638 C27.1257494,32.0820909 27.0619828,32.0555401 27.0209633,32.0234703 C26.9799438,31.9914006 26.9358665,31.9648498 26.9230386,31.9644769 C26.8798562,31.963209 26.6928074,31.7574403 26.6928074,31.7112002 C26.6928074,31.6860664 26.6793828,31.6654821 26.662975,31.6654821 C26.6465672,31.6654821 26.6331427,31.6252084 26.6331427,31.575985 C26.6331427,31.5267616 26.6197181,31.486488 26.6033103,31.486488 C26.5869025,31.486488 26.573478,31.4462143 26.573478,31.3969909 C26.573478,31.3477675 26.5869025,31.3074938 26.6033103,31.3074938 C26.6197181,31.3074938 26.6331427,31.2567788 26.6331427,31.1947275 C26.6331427,31.1161939 26.6512658,31.0689842 26.6928074,31.0390026 C26.725623,31.0153605 26.7524721,30.9782192 26.7524721,30.9565162 C26.7524721,30.9063232 26.8621806,30.7981064 26.9687567,30.7430657 C27.0138781,30.7197965 27.0507956,30.6895912 27.0507956,30.6759429 C27.0507956,30.6623692 27.0768244,30.651182 27.1086704,30.651182 C27.1405164,30.651182 27.1748982,30.6377575 27.1850412,30.6213497 C27.1951842,30.6049419 27.2488825,30.5915173 27.3043707,30.5915173 C27.3598588,30.5915173 27.4135571,30.5780928 27.4237001,30.561685 C27.4339177,30.5452026 27.5681633,30.5318526 27.7238136,30.5318526 C27.8916951,30.5318526 28.005431,30.5439347 28.005431,30.561685 C28.005431,30.5780928 28.0515966,30.5915173 28.1080543,30.5915173 C28.164512,30.5915173 28.2190306,30.6049419 28.2291737,30.6213497 C28.2393167,30.6377575 28.2736984,30.651182 28.3055445,30.651182 C28.3373905,30.651182 28.3634192,30.6623692 28.3634192,30.6759429 C28.3634192,30.6895912 28.4001876,30.7197965 28.4450853,30.7430657 C28.5576279,30.8013879 28.7810722,31.0274426 28.7810722,31.0829308 C28.7810722,31.10799 28.7944968,31.1284997 28.8109046,31.1284997 C28.8273124,31.1284997 28.8407369,31.1553488 28.8407369,31.1881644 C28.8407369,31.22098 28.8541615,31.2478291 28.8705693,31.2478291 C28.8869771,31.2478291 28.9004016,31.2872824 28.9004016,31.3355363 C28.9004016,31.3837901 28.9138262,31.4315964 28.930234,31.4417394 C28.9466418,31.4518824 28.9600663,31.4929765 28.9600663,31.5330264 L28.9600663,31.6058174 L29.5567134,31.6058174 L30.1533605,31.6058174 L30.1533605,31.3074938 C30.1533605,31.1284997 30.1414276,31.0091703 30.1235282,31.0091703 C30.1071204,31.0091703 30.0936958,30.9688966 30.0936958,30.9196732 C30.0936958,30.8704498 30.0802713,30.8301762 30.0638635,30.8301762 C30.0474557,30.8301762 30.0340311,30.7991505 30.0340311,30.7611888 C30.0340311,30.7233018 30.007182,30.6634133 29.9743664,30.6282111 C29.9415508,30.5930089 29.9147017,30.5434872 29.9147017,30.5182043 C29.9147017,30.4929214 29.9012771,30.4721879 29.8848693,30.4721879 C29.8684615,30.4721879 29.855037,30.453841 29.855037,30.4314667 C29.855037,30.3872403 29.5479875,30.0546095 29.5071171,30.0544604 C29.4933943,30.0544604 29.4351466,30.0141867 29.3777193,29.9650379 C29.320292,29.9158891 29.2565254,29.8756154 29.2360156,29.8756154 C29.2155059,29.8755408 29.1987252,29.8621163 29.1987252,29.8457085 C29.1987252,29.8293007 29.1718761,29.8158761 29.1390605,29.8158761 C29.1062449,29.8158761 29.0793958,29.8024515 29.0793958,29.7860437 C29.0793958,29.769636 29.0525466,29.7562114 29.019731,29.7562114 C28.9869155,29.7562114 28.9600663,29.7427868 28.9600663,29.726379 C28.9600663,29.7099712 28.9273253,29.6965467 28.8872754,29.6965467 C28.8472255,29.6965467 28.8061314,29.6831221 28.7959884,29.6667143 C28.7858454,29.6503065 28.7321471,29.636882 28.676659,29.636882 C28.6211708,29.636882 28.5674726,29.6234574 28.5573296,29.6070496 C28.5471866,29.5906418 28.4859556,29.5772173 28.421294,29.5772173 C28.3566324,29.5772173 28.3037545,29.5637927 28.3037545,29.5473849 C28.3037545,29.5285905 28.1005216,29.5175526 27.7536459,29.5175526 C27.4190015,29.5175526 27.1962284,29.5292618 27.1850412,29.5473849 M15.3565126,29.7395053 C15.3565126,29.795963 15.3699372,29.8504816 15.386345,29.8606246 C15.4027528,29.8707676 15.4161773,29.918574 15.4161773,29.9668278 C15.4161773,30.0150817 15.4296019,30.0545349 15.4460097,30.0545349 C15.4624175,30.0545349 15.475842,30.1007005 15.475842,30.1571582 C15.475842,30.213616 15.4892666,30.2681346 15.5056744,30.2782776 C15.5220822,30.2884206 15.5355067,30.336227 15.5355067,30.3844808 C15.5355067,30.4327346 15.5489313,30.4721879 15.5653391,30.4721879 C15.5817469,30.4721879 15.5951715,30.5116412 15.5951715,30.559895 C15.5951715,30.6081489 15.608596,30.6559552 15.6250038,30.6660982 C15.6414116,30.6762412 15.6548362,30.7307598 15.6548362,30.7872176 C15.6548362,30.8436753 15.6682607,30.8898409 15.6846685,30.8898409 C15.7010763,30.8898409 15.7145009,30.9301146 15.7145009,30.9793379 C15.7145009,31.0285613 15.7279254,31.068835 15.7443332,31.068835 C15.760741,31.068835 15.7741656,31.1225332 15.7741656,31.1881644 C15.7741656,31.2537956 15.7875901,31.3074938 15.8039979,31.3074938 C15.8204057,31.3074938 15.8338303,31.3477675 15.8338303,31.3969909 C15.8338303,31.4462143 15.8472549,31.486488 15.8636626,31.486488 C15.8800704,31.486488 15.893495,31.5326535 15.893495,31.5891113 C15.893495,31.645569 15.9069196,31.7000876 15.9233274,31.7102306 C15.9397352,31.7203736 15.9531597,31.76818 15.9531597,31.8164338 C15.9531597,31.8646876 15.9665843,31.9041409 15.9829921,31.9041409 C15.9993999,31.9041409 16.0128244,31.9503065 16.0128244,32.0067642 C16.0128244,32.063222 16.026249,32.1177406 16.0426568,32.1278836 C16.0590646,32.1380266 16.0724891,32.1858329 16.0724891,32.2340868 C16.0724891,32.2823406 16.0859137,32.3217939 16.1023215,32.3217939 C16.1187293,32.3217939 16.1321538,32.3612472 16.1321538,32.409501 C16.1321538,32.4577549 16.1455784,32.5055612 16.1619862,32.5157042 C16.178394,32.5258472 16.1918185,32.5803658 16.1918185,32.6368236 C16.1918185,32.6932813 16.2052431,32.7394469 16.2216509,32.7394469 C16.2380587,32.7394469 16.2514833,32.7797205 16.2514833,32.8289439 C16.2514833,32.8781673 16.2649078,32.918441 16.2813156,32.918441 C16.2977234,32.918441 16.311148,32.9721392 16.311148,33.0377704 C16.311148,33.1034016 16.3245725,33.1570998 16.3409803,33.1570998 C16.3573881,33.1570998 16.3708127,33.1973735 16.3708127,33.2465969 C16.3708127,33.2958203 16.3842372,33.336094 16.400645,33.336094 C16.4170528,33.336094 16.4304774,33.3822595 16.4304774,33.4387173 C16.4304774,33.495175 16.4439019,33.5496936 16.4603097,33.5598366 C16.4767175,33.5699796 16.4901421,33.617786 16.4901421,33.6660398 C16.4901421,33.7142936 16.5035667,33.7537469 16.5199744,33.7537469 C16.5363822,33.7537469 16.5498068,33.7999125 16.5498068,33.8563702 C16.5498068,33.9128279 16.5632314,33.9673466 16.5796392,33.9774896 C16.596047,33.9876326 16.6094715,34.0354389 16.6094715,34.0836928 C16.6094715,34.1319466 16.6228961,34.1713999 16.6393039,34.1713999 C16.6557117,34.1713999 16.6691362,34.2108532 16.6691362,34.259107 C16.6691362,34.3073608 16.6825608,34.3551672 16.6989686,34.3653102 C16.7153764,34.3754532 16.7288009,34.4299718 16.7288009,34.4864295 C16.7288009,34.5428873 16.7422255,34.5890528 16.7586333,34.5890528 C16.7750411,34.5890528 16.7884656,34.6285061 16.7884656,34.67676 C16.7884656,34.7250138 16.8018902,34.7728202 16.818298,34.7829632 C16.8347058,34.7931062 16.8481303,34.8476248 16.8481303,34.9040825 C16.8481303,34.9605402 16.8615549,35.0067058 16.8779627,35.0067058 C16.8943705,35.0067058 16.9077951,35.0469795 16.9077951,35.0962029 C16.9077951,35.1454263 16.9212196,35.1856999 16.9376274,35.1856999 C16.9540352,35.1856999 16.9674598,35.2393982 16.9674598,35.3050294 C16.9674598,35.3706605 16.9808843,35.4243588 16.9972921,35.4243588 C17.0136999,35.4243588 17.0271245,35.4646325 17.0271245,35.5138558 C17.0271245,35.5630792 17.040549,35.6033529 17.0569568,35.6033529 C17.0733646,35.6033529 17.0867892,35.6495185 17.0867892,35.7059762 C17.0867892,35.7624339 17.1002137,35.8169526 17.1166215,35.8270956 C17.1330293,35.8372386 17.1464539,35.8850449 17.1464539,35.9332987 L17.1464539,36.0210059 L17.6706829,36.0210059 C18.2389147,36.0210059 18.2800834,36.0100425 18.2800834,35.8590908 C18.2800834,35.816878 18.2935079,35.782347 18.3099157,35.782347 C18.3263235,35.782347 18.3397481,35.7428937 18.3397481,35.6946399 C18.3397481,35.6463861 18.3531726,35.5985797 18.3695804,35.5884367 C18.3859882,35.5782937 18.3994128,35.5237751 18.3994128,35.4673174 C18.3994128,35.4108596 18.4128374,35.3646941 18.4292451,35.3646941 C18.4456529,35.3646941 18.4590775,35.3244204 18.4590775,35.275197 C18.4590775,35.2259736 18.4725021,35.1856999 18.4889099,35.1856999 C18.5053177,35.1856999 18.5187422,35.1454263 18.5187422,35.0962029 C18.5187422,35.0469795 18.5321668,35.0067058 18.5485746,35.0067058 C18.5649824,35.0067058 18.5784069,34.9664321 18.5784069,34.9172087 C18.5784069,34.8679854 18.5918315,34.8277117 18.6082393,34.8277117 C18.6246471,34.8277117 18.6380716,34.7882584 18.6380716,34.7400046 C18.6380716,34.6917507 18.6514962,34.6439444 18.667904,34.6338014 C18.6843118,34.6236584 18.6977363,34.5691398 18.6977363,34.512682 C18.6977363,34.4562243 18.7111609,34.4100587 18.7275687,34.4100587 C18.7439765,34.4100587 18.757401,34.369785 18.757401,34.3205617 C18.757401,34.2713383 18.7708256,34.2310646 18.7872334,34.2310646 C18.8036412,34.2310646 18.8170658,34.1907909 18.8170658,34.1415675 C18.8170658,34.0923441 18.8304903,34.0520705 18.8468981,34.0520705 C18.8633059,34.0520705 18.8767305,34.0117968 18.8767305,33.9625734 C18.8767305,33.91335 18.890155,33.8730763 18.9065628,33.8730763 C18.9229706,33.8730763 18.9363952,33.833623 18.9363952,33.7853692 C18.9363952,33.7371154 18.9498197,33.689309 18.9662275,33.679166 C18.9826353,33.669023 18.9960599,33.6145044 18.9960599,33.5580467 C18.9960599,33.5015889 19.0094844,33.4554234 19.0258922,33.4554234 C19.0423,33.4554234 19.0557246,33.4151497 19.0557246,33.3659263 C19.0557246,33.3167029 19.0691492,33.2764292 19.0855569,33.2764292 C19.1019647,33.2764292 19.1153893,33.2361556 19.1153893,33.1869322 C19.1153893,33.1377088 19.1288139,33.0974351 19.1452217,33.0974351 C19.1616295,33.0974351 19.175054,33.0571614 19.175054,33.0079381 C19.175054,32.9587147 19.1884786,32.918441 19.2048864,32.918441 C19.2212942,32.918441 19.2347187,32.8789877 19.2347187,32.8307339 C19.2347187,32.78248 19.2481433,32.7346737 19.2645511,32.7245307 C19.2809589,32.7143877 19.2943834,32.6598691 19.2943834,32.6034113 C19.2943834,32.5469536 19.307808,32.500788 19.3242158,32.500788 C19.3406236,32.500788 19.3540481,32.4605143 19.3540481,32.411291 C19.3540481,32.3620676 19.3674727,32.3217939 19.3838805,32.3217939 C19.4002883,32.3217939 19.4137129,32.2823406 19.4137129,32.2340868 C19.4137129,32.1858329 19.4271374,32.1380266 19.4435452,32.1278836 C19.459953,32.1177406 19.4733776,32.0497974 19.4733776,31.9769319 C19.4733776,31.9040663 19.4868021,31.8444762 19.5032099,31.8444762 C19.5196177,31.8444762 19.5330423,31.790778 19.5330423,31.7251468 C19.5330423,31.6595156 19.5464668,31.6058174 19.5628746,31.6058174 C19.5792824,31.6058174 19.592707,31.5521191 19.592707,31.486488 C19.592707,31.4208568 19.6061315,31.3671585 19.6225393,31.3671585 C19.6389471,31.3671585 19.6523717,31.3940077 19.6523717,31.4268233 C19.6523717,31.4596388 19.6657962,31.486488 19.682204,31.486488 C19.6986118,31.486488 19.7120364,31.5401862 19.7120364,31.6058174 C19.7120364,31.6714486 19.725461,31.7251468 19.7418688,31.7251468 C19.7582765,31.7251468 19.7717011,31.778845 19.7717011,31.8444762 C19.7717011,31.9101074 19.7851257,31.9638056 19.8015335,31.9638056 C19.8179413,31.9638056 19.8313658,32.0175039 19.8313658,32.0831351 C19.8313658,32.1487662 19.8447904,32.2024645 19.8611982,32.2024645 C19.877606,32.2024645 19.8910305,32.2419178 19.8910305,32.2901716 C19.8910305,32.3384254 19.9044551,32.3862318 19.9208629,32.3963748 C19.9372707,32.4065178 19.9506952,32.4535037 19.9506952,32.500788 C19.9506952,32.5480723 19.9641198,32.5950583 19.9805276,32.6052013 C19.9969354,32.6153443 20.0103599,32.6631506 20.0103599,32.7114044 C20.0103599,32.7596583 20.0237845,32.7991116 20.0401923,32.7991116 C20.0566001,32.7991116 20.0700247,32.8393852 20.0700247,32.8886086 C20.0700247,32.937832 20.0834492,32.9781057 20.099857,32.9781057 C20.1162648,32.9781057 20.1296894,33.0183794 20.1296894,33.0676028 C20.1296894,33.1168261 20.1431139,33.1570998 20.1595217,33.1570998 C20.1759295,33.1570998 20.1893541,33.1973735 20.1893541,33.2465969 C20.1893541,33.2958203 20.2027786,33.336094 20.2191864,33.336094 C20.2355942,33.336094 20.2490188,33.3763676 20.2490188,33.425591 C20.2490188,33.4748144 20.2624433,33.5150881 20.2788511,33.5150881 C20.2952589,33.5150881 20.3086835,33.5545414 20.3086835,33.6027952 C20.3086835,33.651049 20.322108,33.6988554 20.3385158,33.7089984 C20.3549236,33.7191414 20.3683482,33.7661273 20.3683482,33.8134116 C20.3683482,33.8606959 20.3817728,33.9076819 20.3981806,33.9178249 C20.4145883,33.9279679 20.4280129,33.9757742 20.4280129,34.0240281 C20.4280129,34.0722819 20.4414375,34.1117352 20.4578453,34.1117352 C20.4742531,34.1117352 20.4876776,34.1520089 20.4876776,34.2012322 C20.4876776,34.2504556 20.5011022,34.2907293 20.51751,34.2907293 C20.5339178,34.2907293 20.5473423,34.331003 20.5473423,34.3802264 C20.5473423,34.4294498 20.5607669,34.4697234 20.5771747,34.4697234 C20.5935825,34.4697234 20.607007,34.5099971 20.607007,34.5592205 C20.607007,34.6084439 20.6204316,34.6487176 20.6368394,34.6487176 C20.6532472,34.6487176 20.6666717,34.6881708 20.6666717,34.7364247 C20.6666717,34.7846785 20.6800963,34.8324849 20.6965041,34.8426279 C20.7129119,34.8527709 20.7263365,34.8997568 20.7263365,34.9470411 C20.7263365,34.9943254 20.739761,35.0413113 20.7561688,35.0514543 C20.7725766,35.0615973 20.7860012,35.101871 20.7860012,35.1409514 C20.7860012,35.1800318 20.7994257,35.2203055 20.8158335,35.2304485 C20.8322413,35.2405915 20.8456659,35.2883978 20.8456659,35.3366517 C20.8456659,35.3849055 20.8590904,35.4243588 20.8754982,35.4243588 C20.891906,35.4243588 20.9053306,35.4646325 20.9053306,35.5138558 C20.9053306,35.5630792 20.9187551,35.6033529 20.9351629,35.6033529 C20.9515707,35.6033529 20.9649953,35.6436266 20.9649953,35.69285 C20.9649953,35.7420734 20.9784199,35.782347 20.9948276,35.782347 C21.0112354,35.782347 21.02466,35.816878 21.02466,35.8590908 C21.02466,36.0125782 21.0656795,36.0231687 21.6273481,36.0142936 L22.1433733,36.0060897 L22.1526213,35.8942184 C22.1576928,35.8326891 22.1744735,35.782347 22.1899118,35.782347 C22.20535,35.782347 22.2179542,35.7420734 22.2179542,35.69285 C22.2179542,35.6436266 22.2313787,35.6033529 22.2477865,35.6033529 C22.2641943,35.6033529 22.2776189,35.5496547 22.2776189,35.4840235 C22.2776189,35.4183923 22.2910435,35.3646941 22.3074513,35.3646941 C22.323859,35.3646941 22.3372836,35.3244204 22.3372836,35.275197 C22.3372836,35.2259736 22.3507082,35.1856999 22.367116,35.1856999 C22.3835238,35.1856999 22.3969483,35.1395344 22.3969483,35.0830766 C22.3969483,35.0266189 22.4103729,34.9721003 22.4267807,34.9619573 C22.4431885,34.9518143 22.456613,34.9040079 22.456613,34.8557541 C22.456613,34.8075003 22.4700376,34.768047 22.4864454,34.768047 C22.5028532,34.768047 22.5162777,34.7218814 22.5162777,34.6654237 C22.5162777,34.6089659 22.5297023,34.5544473 22.5461101,34.5443043 C22.5625179,34.5341613 22.5759424,34.486355 22.5759424,34.4381011 C22.5759424,34.3898473 22.589367,34.350394 22.6057748,34.350394 C22.6221826,34.350394 22.6356072,34.3109407 22.6356072,34.2626869 C22.6356072,34.2144331 22.6490317,34.1666267 22.6654395,34.1564837 C22.6818473,34.1463407 22.6952719,34.0918221 22.6952719,34.0353643 C22.6952719,33.9789066 22.7086964,33.932741 22.7251042,33.932741 C22.741512,33.932741 22.7549366,33.8932878 22.7549366,33.8450339 C22.7549366,33.7967801 22.7683611,33.7489737 22.7847689,33.7388307 C22.8011767,33.7286877 22.8146013,33.6741691 22.8146013,33.6177114 C22.8146013,33.5612537 22.8280258,33.5150881 22.8444336,33.5150881 C22.8608414,33.5150881 22.874266,33.4748144 22.874266,33.425591 C22.874266,33.3763676 22.8876905,33.336094 22.9040983,33.336094 C22.9205061,33.336094 22.9339307,33.2823957 22.9339307,33.2167645 C22.9339307,33.1511334 22.9473553,33.0974351 22.9637631,33.0974351 C22.9801708,33.0974351 22.9935954,33.0571614 22.9935954,33.0079381 C22.9935954,32.9587147 23.00702,32.918441 23.0234278,32.918441 C23.0398356,32.918441 23.0532601,32.8722754 23.0532601,32.8158177 C23.0532601,32.75936 23.0666847,32.7048413 23.0830925,32.6946983 C23.0995003,32.6845553 23.1129248,32.636749 23.1129248,32.5884951 C23.1129248,32.5402413 23.1263494,32.500788 23.1427572,32.500788 C23.159165,32.500788 23.1725895,32.4613347 23.1725895,32.4130809 C23.1725895,32.3648271 23.1860141,32.3170207 23.2024219,32.3068777 C23.2188297,32.2967347 23.2322542,32.2422161 23.2322542,32.1857584 C23.2322542,32.1293006 23.2456788,32.0831351 23.2620866,32.0831351 C23.2784944,32.0831351 23.291919,32.0436818 23.291919,31.9954279 C23.291919,31.9471741 23.3053435,31.8993678 23.3217513,31.8892248 C23.3381591,31.8790818 23.3515837,31.8245631 23.3515837,31.7681054 C23.3515837,31.7116477 23.3650082,31.6654821 23.381416,31.6654821 C23.3978238,31.6654821 23.4112484,31.6252084 23.4112484,31.575985 C23.4112484,31.5267616 23.4246729,31.486488 23.4410807,31.486488 C23.4574885,31.486488 23.4709131,31.4327897 23.4709131,31.3671585 C23.4709131,31.3015274 23.4843376,31.2478291 23.5007454,31.2478291 C23.5171532,31.2478291 23.5305778,31.2075554 23.5305778,31.1583321 C23.5305778,31.1091087 23.5440024,31.068835 23.5604101,31.068835 C23.5768179,31.068835 23.5902425,31.0226694 23.5902425,30.9662117 C23.5902425,30.909754 23.6036671,30.8552353 23.6200749,30.8450923 C23.6364827,30.8349493 23.6499072,30.787143 23.6499072,30.7388892 C23.6499072,30.6906353 23.6633318,30.651182 23.6797396,30.651182 C23.6961474,30.651182 23.7095719,30.6117287 23.7095719,30.5634749 C23.7095719,30.5152211 23.7229965,30.4674147 23.7394043,30.4572717 C23.7558121,30.4471287 23.7692366,30.3926101 23.7692366,30.3361524 C23.7692366,30.2796946 23.7826612,30.2335291 23.799069,30.2335291 C23.8154768,30.2335291 23.8289013,30.1940758 23.8289013,30.1458219 C23.8289013,30.0975681 23.8423259,30.0497618 23.8587337,30.0396188 C23.8751415,30.0294758 23.888566,29.9749571 23.888566,29.9184994 C23.888566,29.8620417 23.9019906,29.8158761 23.9183984,29.8158761 C23.9348062,29.8158761 23.9482308,29.7756024 23.9482308,29.726379 L23.9482308,29.636882 L23.3292094,29.6371057 L22.710188,29.6373295 L22.6728976,29.7176531 C22.6523879,29.761805 22.6356072,29.8347451 22.6356072,29.8797173 C22.6356072,29.9246896 22.6221826,29.9698111 22.6057748,29.9799541 C22.589367,29.9900971 22.5759424,30.0437953 22.5759424,30.0992835 C22.5759424,30.1547717 22.5625179,30.2084699 22.5461101,30.2186129 C22.5297023,30.2287559 22.5162777,30.2899868 22.5162777,30.3546484 C22.5162777,30.4193101 22.5028532,30.4721879 22.4864454,30.4721879 C22.4700376,30.4721879 22.456613,30.5258861 22.456613,30.5915173 C22.456613,30.6571485 22.4431885,30.7108467 22.4267807,30.7108467 C22.4103729,30.7108467 22.3969483,30.764545 22.3969483,30.8301762 C22.3969483,30.8958073 22.3835238,30.9495056 22.367116,30.9495056 C22.3507082,30.9495056 22.3372836,31.0032038 22.3372836,31.068835 C22.3372836,31.1344662 22.323859,31.1881644 22.3074513,31.1881644 C22.2910435,31.1881644 22.2776189,31.2418627 22.2776189,31.3074938 C22.2776189,31.373125 22.2641943,31.4268233 22.2477865,31.4268233 C22.2313787,31.4268233 22.2179542,31.4805215 22.2179542,31.5461527 C22.2179542,31.6117839 22.2045296,31.6654821 22.1881218,31.6654821 C22.171714,31.6654821 22.1582895,31.7191803 22.1582895,31.7848115 C22.1582895,31.8504427 22.1448649,31.9041409 22.1284571,31.9041409 C22.1120493,31.9041409 22.0986248,31.9578392 22.0986248,32.0234703 C22.0986248,32.0891015 22.0852002,32.1427998 22.0687924,32.1427998 C22.0523846,32.1427998 22.0389601,32.196498 22.0389601,32.2621292 C22.0389601,32.3277604 22.0255355,32.3814586 22.0091277,32.3814586 C21.9927199,32.3814586 21.9792954,32.4351568 21.9792954,32.500788 C21.9792954,32.5664192 21.9658708,32.6201174 21.949463,32.6201174 C21.9330552,32.6201174 21.9196306,32.6738157 21.9196306,32.7394469 C21.9196306,32.805078 21.9062061,32.8587763 21.8897983,32.8587763 C21.8733905,32.8587763 21.8599659,32.9124745 21.8599659,32.9781057 C21.8599659,33.0437369 21.8465414,33.0974351 21.8301336,33.0974351 C21.8137258,33.0974351 21.8003012,33.1511334 21.8003012,33.2167645 C21.8003012,33.2823957 21.7868767,33.336094 21.7704689,33.336094 C21.7540611,33.336094 21.7406365,33.3889718 21.7406365,33.4536334 C21.7406365,33.5182951 21.727212,33.579526 21.7108042,33.589669 C21.6943964,33.599812 21.6809718,33.6677552 21.6809718,33.7406207 C21.6809718,33.8134862 21.6675472,33.8730763 21.6511394,33.8730763 C21.6347317,33.8730763 21.6213071,33.9401991 21.6213071,34.0222381 C21.6213071,34.1042771 21.6105674,34.1713999 21.5974412,34.1713999 C21.5426243,34.1713999 21.5019777,34.0925679 21.5019777,33.9864393 C21.5019777,33.9240897 21.4885531,33.8730763 21.4721453,33.8730763 C21.4557375,33.8730763 21.442313,33.8134862 21.442313,33.7406207 C21.442313,33.6677552 21.4288884,33.599812 21.4124806,33.589669 C21.3960728,33.579526 21.3826483,33.5317196 21.3826483,33.4834658 C21.3826483,33.435212 21.3692237,33.3957587 21.3528159,33.3957587 C21.3364081,33.3957587 21.3229835,33.355485 21.3229835,33.3062616 C21.3229835,33.2570382 21.309559,33.2167645 21.2931512,33.2167645 C21.2767434,33.2167645 21.2633188,33.1764909 21.2633188,33.1272675 C21.2633188,33.0780441 21.2498943,33.0377704 21.2334865,33.0377704 C21.2170787,33.0377704 21.2036541,32.9974967 21.2036541,32.9482733 C21.2036541,32.89905 21.1902296,32.8587763 21.1738218,32.8587763 C21.157414,32.8587763 21.1439894,32.819323 21.1439894,32.7710692 C21.1439894,32.7228153 21.1305649,32.675009 21.1141571,32.664866 C21.0977493,32.654723 21.0843247,32.607737 21.0843247,32.5604527 C21.0843247,32.5131685 21.0709002,32.4661825 21.0544924,32.4560395 C21.0380846,32.4458965 21.02466,32.3980901 21.02466,32.3498363 C21.02466,32.3015825 21.0112354,32.2621292 20.9948276,32.2621292 C20.9784199,32.2621292 20.9649953,32.2218555 20.9649953,32.1726321 C20.9649953,32.1234087 20.9515707,32.0831351 20.9351629,32.0831351 C20.9187551,32.0831351 20.9053306,32.0428614 20.9053306,31.993638 C20.9053306,31.9444146 20.891906,31.9041409 20.8754982,31.9041409 C20.8590904,31.9041409 20.8456659,31.8638673 20.8456659,31.8146439 C20.8456659,31.7654205 20.8322413,31.7251468 20.8158335,31.7251468 C20.7994257,31.7251468 20.7860012,31.6789812 20.7860012,31.6225235 C20.7860012,31.5660658 20.7725766,31.5115471 20.7561688,31.5014041 C20.739761,31.4912611 20.7263365,31.4509875 20.7263365,31.4119071 C20.7263365,31.3728267 20.7129119,31.332553 20.6965041,31.32241 C20.6800963,31.312267 20.6666717,31.2644607 20.6666717,31.2162068 C20.6666717,31.167953 20.6532472,31.1284997 20.6368394,31.1284997 C20.6204316,31.1284997 20.607007,31.088226 20.607007,31.0390026 C20.607007,30.9897793 20.5935825,30.9495056 20.5771747,30.9495056 C20.5607669,30.9495056 20.5473423,30.9092319 20.5473423,30.8600085 C20.5473423,30.8107851 20.5339178,30.7705115 20.51751,30.7705115 C20.5011022,30.7705115 20.4876776,30.7310582 20.4876776,30.6828043 C20.4876776,30.6345505 20.4742531,30.5867441 20.4578453,30.5766011 C20.4414375,30.5664581 20.4280129,30.5194722 20.4280129,30.4721879 C20.4280129,30.4249036 20.4145883,30.3779177 20.3981806,30.3677747 C20.3817728,30.3576317 20.3683482,30.3098253 20.3683482,30.2615715 C20.3683482,30.2133176 20.3549236,30.1738644 20.3385158,30.1738644 C20.322108,30.1738644 20.3086835,30.1335907 20.3086835,30.0843673 C20.3086835,30.0351439 20.2952589,29.9948702 20.2788511,29.9948702 C20.2624433,29.9948702 20.2490188,29.9545966 20.2490188,29.9053732 C20.2490188,29.8561498 20.2355942,29.8158761 20.2191864,29.8158761 C20.2027786,29.8158761 20.1893541,29.7756024 20.1893541,29.726379 L20.1893541,29.636882 L19.6523717,29.636882 C19.1353024,29.636882 19.1153893,29.6391194 19.1153893,29.6965467 C19.1153893,29.7293623 19.1019647,29.7562114 19.0855569,29.7562114 C19.0691492,29.7562114 19.0557246,29.7956647 19.0557246,29.8439185 C19.0557246,29.8921724 19.0423,29.9399787 19.0258922,29.9501217 C19.0094844,29.9602647 18.9960599,30.0072507 18.9960599,30.0545349 C18.9960599,30.1018192 18.9826353,30.1488052 18.9662275,30.1589482 C18.9498197,30.1690912 18.9363952,30.2168975 18.9363952,30.2651514 C18.9363952,30.3134052 18.9229706,30.3528585 18.9065628,30.3528585 C18.890155,30.3528585 18.8767305,30.3931322 18.8767305,30.4423556 C18.8767305,30.4915789 18.8633059,30.5318526 18.8468981,30.5318526 C18.8304903,30.5318526 18.8170658,30.5721263 18.8170658,30.6213497 C18.8170658,30.6705731 18.8036412,30.7108467 18.7872334,30.7108467 C18.7708256,30.7108467 18.757401,30.7503 18.757401,30.7985539 C18.757401,30.8468077 18.7439765,30.894614 18.7275687,30.904757 C18.7111609,30.9149 18.6977363,30.961886 18.6977363,31.0091703 C18.6977363,31.0564546 18.6843118,31.1034405 18.667904,31.1135835 C18.6514962,31.1237265 18.6380716,31.1715329 18.6380716,31.2197867 C18.6380716,31.2680405 18.6246471,31.3074938 18.6082393,31.3074938 C18.5918315,31.3074938 18.5784069,31.3477675 18.5784069,31.3969909 C18.5784069,31.4462143 18.5649824,31.486488 18.5485746,31.486488 C18.5321668,31.486488 18.5187422,31.5267616 18.5187422,31.575985 C18.5187422,31.6252084 18.5053177,31.6654821 18.4889099,31.6654821 C18.4725021,31.6654821 18.4590775,31.7057558 18.4590775,31.7549792 C18.4590775,31.8042025 18.4456529,31.8444762 18.4292451,31.8444762 C18.4128374,31.8444762 18.3994128,31.8839295 18.3994128,31.9321833 C18.3994128,31.9804372 18.3859882,32.0282435 18.3695804,32.0383865 C18.3531726,32.0485295 18.3397481,32.1030482 18.3397481,32.1595059 C18.3397481,32.2159636 18.3263235,32.2621292 18.3099157,32.2621292 C18.2935079,32.2621292 18.2800834,32.3024029 18.2800834,32.3516262 C18.2800834,32.4008496 18.2666588,32.4411233 18.250251,32.4411233 C18.2338432,32.4411233 18.2204187,32.481397 18.2204187,32.5306204 C18.2204187,32.5798438 18.2069941,32.6201174 18.1905863,32.6201174 C18.1741785,32.6201174 18.160754,32.6603911 18.160754,32.7096145 C18.160754,32.7588379 18.1473294,32.7991116 18.1309216,32.7991116 C18.1145138,32.7991116 18.1010892,32.8385649 18.1010892,32.8868187 C18.1010892,32.9350725 18.0876647,32.9828789 18.0712569,32.9930219 C18.0548491,33.0031649 18.0414245,33.0501508 18.0414245,33.0974351 C18.0414245,33.1447194 18.028,33.1917054 18.0115922,33.2018484 C17.9951844,33.2119914 17.9817598,33.2597977 17.9817598,33.3080515 C17.9817598,33.3563054 17.9683353,33.3957587 17.9519275,33.3957587 C17.9355197,33.3957587 17.9220951,33.4360323 17.9220951,33.4852557 C17.9220951,33.5344791 17.9086706,33.5747528 17.8922628,33.5747528 C17.875855,33.5747528 17.8624304,33.628451 17.8624304,33.6940822 C17.8624304,33.7597134 17.8490058,33.8134116 17.8325981,33.8134116 C17.8161903,33.8134116 17.8027657,33.8805344 17.8027657,33.9625734 C17.8027657,34.0446124 17.7893411,34.1117352 17.7729333,34.1117352 C17.7565255,34.1117352 17.743101,34.0848861 17.743101,34.0520705 C17.743101,34.0192549 17.7296764,33.9924058 17.7132686,33.9924058 C17.6968608,33.9924058 17.6834363,33.9193911 17.6834363,33.8301177 C17.6834363,33.7408444 17.6700117,33.6594767 17.6536039,33.6493337 C17.6371961,33.6391907 17.6237716,33.5854924 17.6237716,33.5300043 C17.6237716,33.4745161 17.610347,33.4208178 17.5939392,33.4106748 C17.5775314,33.4005318 17.5641069,33.3535459 17.5641069,33.3062616 C17.5641069,33.2589773 17.5506823,33.2119914 17.5342745,33.2018484 C17.5178667,33.1917054 17.5044422,33.1371867 17.5044422,33.080729 C17.5044422,33.0242713 17.4910176,32.9781057 17.4746098,32.9781057 C17.458202,32.9781057 17.4447774,32.9244075 17.4447774,32.8587763 C17.4447774,32.7931451 17.4313529,32.7394469 17.4149451,32.7394469 C17.3985373,32.7394469 17.3851127,32.6857486 17.3851127,32.6201174 C17.3851127,32.5544863 17.3716882,32.500788 17.3552804,32.500788 C17.3388726,32.500788 17.325448,32.4470898 17.325448,32.3814586 C17.325448,32.3158274 17.3120235,32.2621292 17.2956157,32.2621292 C17.2792079,32.2621292 17.2657833,32.2159636 17.2657833,32.1595059 C17.2657833,32.1030482 17.2523588,32.0485295 17.235951,32.0383865 C17.2195432,32.0282435 17.2061186,31.9812576 17.2061186,31.9339733 C17.2061186,31.886689 17.192694,31.839703 17.1762863,31.82956 C17.1598785,31.819417 17.1464539,31.7648984 17.1464539,31.7084407 C17.1464539,31.651983 17.1330293,31.6058174 17.1166215,31.6058174 C17.1002137,31.6058174 17.0867892,31.5521191 17.0867892,31.486488 C17.0867892,31.4208568 17.0733646,31.3671585 17.0569568,31.3671585 C17.040549,31.3671585 17.0271245,31.3134603 17.0271245,31.2478291 C17.0271245,31.1821979 17.0136999,31.1284997 16.9972921,31.1284997 C16.9808843,31.1284997 16.9674598,31.0748015 16.9674598,31.0091703 C16.9674598,30.9435391 16.9540352,30.8898409 16.9376274,30.8898409 C16.9212196,30.8898409 16.9077951,30.8436753 16.9077951,30.7872176 C16.9077951,30.7307598 16.8943705,30.6762412 16.8779627,30.6660982 C16.8615549,30.6559552 16.8481303,30.602257 16.8481303,30.5467688 C16.8481303,30.4912806 16.8347058,30.4375824 16.818298,30.4274394 C16.8018902,30.4172964 16.7884656,30.3703104 16.7884656,30.3230261 C16.7884656,30.2757419 16.7750411,30.2287559 16.7586333,30.2186129 C16.7422255,30.2084699 16.7288009,30.1539513 16.7288009,30.0974935 C16.7288009,30.0410358 16.7153764,29.9948702 16.6989686,29.9948702 C16.6825608,29.9948702 16.6691362,29.941172 16.6691362,29.8755408 C16.6691362,29.8099096 16.6557117,29.7562114 16.6393039,29.7562114 C16.6228961,29.7562114 16.6094715,29.7293623 16.6094715,29.6965467 C16.6094715,29.6387465 16.5895584,29.636882 15.9829921,29.636882 L15.3565126,29.636882 L15.3565126,29.7395053 M11.9556242,30.561685 C11.9556242,30.5780928 12.0093224,30.5915173 12.0749536,30.5915173 C12.1405848,30.5915173 12.194283,30.6049419 12.194283,30.6213497 C12.194283,30.6377575 12.2211321,30.651182 12.2539477,30.651182 C12.2867633,30.651182 12.3136124,30.6646066 12.3136124,30.6810144 C12.3136124,30.6974222 12.333973,30.7108467 12.358883,30.7108467 C12.4179511,30.7108467 12.7909301,31.0838258 12.7909301,31.1428938 C12.7909301,31.1678038 12.8009985,31.188239 12.8133044,31.1883882 C12.8400789,31.1886865 12.9102595,31.3331497 12.9102595,31.3880412 C12.9102595,31.4093713 12.9236841,31.4268233 12.9400919,31.4268233 C12.9564997,31.4268233 12.9699242,31.4729888 12.9699242,31.5294466 C12.9699242,31.5859043 12.9833488,31.6404229 12.9997566,31.6505659 C13.0161644,31.6607089 13.029589,31.7756381 13.029589,31.9059309 L13.029589,32.1427998 L11.6573006,32.1427998 L10.2850123,32.1427998 L10.2850123,32.0234703 C10.2850123,31.9578392 10.2984369,31.9041409 10.3148447,31.9041409 C10.3312525,31.9041409 10.344677,31.8638673 10.344677,31.8146439 C10.344677,31.7654205 10.3581016,31.7251468 10.3745094,31.7251468 C10.3909172,31.7251468 10.4043417,31.6848731 10.4043417,31.6356497 C10.4043417,31.5864264 10.4177663,31.5461527 10.4341741,31.5461527 C10.4505819,31.5461527 10.4640065,31.5193036 10.4640065,31.486488 C10.4640065,31.4536724 10.477431,31.4268233 10.4938388,31.4268233 C10.5102466,31.4268233 10.5236712,31.3999741 10.5236712,31.3671585 C10.5236712,31.334343 10.5370957,31.3074938 10.5535035,31.3074938 C10.5699113,31.3074938 10.5833359,31.2872078 10.5833359,31.262447 C10.5833359,31.2376861 10.6236096,31.1753365 10.6728329,31.1238011 C10.7220563,31.0722657 10.76233,31.0171504 10.76233,31.0013393 C10.76233,30.9600215 10.975333,30.7705115 11.0217223,30.7705115 C11.043127,30.7705115 11.0607281,30.760443 11.0608773,30.7481372 C11.0611756,30.7213626 11.2056388,30.651182 11.2605303,30.651182 C11.2818605,30.651182 11.2993124,30.6377575 11.2993124,30.6213497 C11.2993124,30.6049419 11.3320534,30.5915173 11.3721033,30.5915173 C11.4121533,30.5915173 11.4532473,30.5780928 11.4633903,30.561685 C11.4735333,30.5452772 11.5884625,30.5318526 11.7187553,30.5318526 C11.8568045,30.5318526 11.9556242,30.5443076 11.9556242,30.561685" id="News"></path>
                    </g>
                </g>
            </g>
        </g>
    </g>
</svg>