<?xml version="1.0" encoding="UTF-8"?>
<svg width="22px" height="22px" viewBox="0 0 22 22" version="1.1" xmlns="http://www.w3.org/2000/svg" xmlns:xlink="http://www.w3.org/1999/xlink">
    <!-- Generator: Sketch 52.6 (67491) - http://www.bohemiancoding.com/sketch -->
    <title>Icon / Games / Filled</title>
    <desc>Created with Sketch.</desc>
    <defs>
        <path d="M7.55322105,5.10370642 C7.04698947,5.10370642 6.63516491,4.56531193 6.63508772,3.9033945 L6.63508772,2.20031193 C6.63508772,1.53849541 7.04698947,1 7.55322105,1 L16.4664632,1 C16.9726947,1 17.3845965,1.53849541 17.3845965,2.20031193 L17.3845965,3.9033945 C17.3845965,4.56521101 16.9726947,5.10370642 16.4664632,5.10370642 L7.55322105,5.10370642 Z M13.4817965,2.23553211 C13.1368982,2.23553211 12.8573825,2.60095413 12.8573825,3.05195413 C12.8573825,3.50285321 13.1368982,3.86837615 13.4817965,3.86837615 L14.9537123,3.86837615 C15.2985333,3.86837615 15.5781263,3.50285321 15.5781263,3.05195413 C15.5781263,2.60105505 15.2986105,2.23553211 14.9537123,2.23553211 L13.4817965,2.23553211 Z M9.06604912,2.23553211 C8.72115088,2.23553211 8.44155789,2.60095413 8.44155789,3.05195413 C8.44155789,3.50285321 8.72115088,3.86837615 9.06604912,3.86837615 L10.5379649,3.86837615 C10.8828632,3.86837615 11.1623789,3.50285321 11.1623789,3.05195413 C11.1623789,2.60105505 10.8828632,2.23553211 10.5379649,2.23553211 L9.06604912,2.23553211 Z M1,6.50904884 C1,5.97537077 1.41190175,5.5412844 1.91813333,5.5412844 L11.5711158,5.5412844 L11.5711158,22.9191409 L1.91813333,22.9191409 C1.41190175,22.9191409 1,22.4849732 1,21.9513765 L1,6.50904884 Z M7.89688421,7.22587486 L4.85262456,7.22587486 C4.35997895,7.22587486 3.96058246,7.74802165 3.96058246,8.39207669 C3.96058246,9.03613174 4.35997895,9.55827853 4.85262456,9.55827853 L7.00476491,9.55827853 L7.00476491,13.1955446 L4.85262456,13.1955446 C4.35997895,13.1955446 3.96058246,13.7176914 3.96058246,14.3617464 L3.96058246,20.3315171 C3.96058246,20.9755721 4.35997895,21.4977189 4.85262456,21.4977189 L7.89688421,21.4977189 C8.38952982,21.4977189 8.78892632,20.9755721 8.78892632,20.3315171 C8.78892632,19.6873611 8.38952982,19.1652143 7.89688421,19.1652143 L5.74474386,19.1652143 L5.74474386,15.5279483 L7.89688421,15.5279483 C8.38952982,15.5279483 8.78892632,15.0058015 8.78892632,14.3617464 L8.78892632,8.39207669 C8.78892632,7.74802165 8.38952982,7.22587486 7.89688421,7.22587486 Z M22.0818667,5.50770313 C22.5880982,5.50770313 23,5.94178949 23,6.47546756 L23,21.9177952 C23,22.4513919 22.5880982,22.8855596 22.0818667,22.8855596 L12.4288842,22.8855596 L12.4288842,5.50770313 L22.0818667,5.50770313 Z M20.0394175,20.2979358 L20.0394175,8.35859633 C20.0394175,7.71454128 19.6400211,7.1923945 19.1473754,7.1923945 L16.103193,7.1923945 C15.6105474,7.1923945 15.2111509,7.71454128 15.2111509,8.35859633 C15.2111509,9.00265138 15.6105474,9.52479817 16.103193,9.52479817 L18.2553333,9.52479817 L18.2553333,20.2979358 C18.2553333,20.9419908 18.6547298,21.4641376 19.1473754,21.4641376 C19.6400211,21.4641376 20.0394175,20.9419908 20.0394175,20.2979358 Z" id="path-1"></path>
    </defs>
    <g id="Material-Theme" stroke="none" stroke-width="1" fill="none" fill-rule="evenodd">
        <g id="System-Icons" transform="translate(-1005.000000, -1393.000000)">
            <g id="Scooru-/-Games-/-Filled" transform="translate(1004.000000, 1392.000000)">
                <mask id="mask-2" fill="white">
                    <use xlink:href="#path-1"></use>
                </mask>
                <g id="Games" fill-rule="nonzero"></g>
                <g id="✱-/-Color-/-Icons-/-Selected-/-On-Surface-/-Inactive" mask="url(#mask-2)" fill="#414141" fill-opacity="0.54" fill-rule="evenodd">
                    <rect id="Rectangle" x="0" y="0" width="24" height="24"></rect>
                </g>
            </g>
        </g>
    </g>
</svg>