<?xml version="1.0" encoding="UTF-8"?>
<svg width="22px" height="21px" viewBox="0 0 22 21" version="1.1" xmlns="http://www.w3.org/2000/svg" xmlns:xlink="http://www.w3.org/1999/xlink">
    <!-- Generator: Sketch 52.6 (67491) - http://www.bohemiancoding.com/sketch -->
    <title>Icon / Games / Filled</title>
    <desc>Created with Sketch.</desc>
    <defs>
        <path d="M7.76495135,2.04453852 C7.30520746,2.19245243 7.15014213,2.49812229 7.1497173,3.25751752 L7.14936327,3.81908056 L6.39244625,3.81922217 C5.89460868,3.81936378 5.52974494,3.83564918 5.32631906,3.86680386 C3.19363986,4.19336151 1.54159235,5.77007135 1.08758375,7.91230938 L1.01337897,8.26272868 L1.00282887,12.83666 C0.99518181,16.1632714 1.00261645,17.5082329 1.03030163,17.7686577 C1.28435385,20.1626113 3.14046449,22.0056228 5.57045844,22.2768101 C5.97008797,22.321418 18.0299215,22.321418 18.4294803,22.2768101 C20.8600406,22.005552 22.7155848,20.1631778 22.9697079,17.7686577 C22.9973222,17.5082329 23.0048277,16.1632714 22.9971806,12.83666 L22.9866305,8.26272868 L22.9123549,7.91230938 C22.3728834,5.36647668 20.3820288,3.82000104 17.6433203,3.81922217 L16.9221604,3.81908056 L16.9093445,3.25751752 C16.8898728,2.40756131 16.6747639,2.07732174 16.096349,2.0093479 C15.4280812,1.93082395 15.0935225,2.34702211 15.0930268,3.25751752 L15.0926728,3.81908056 L12.0357618,3.81908056 L8.97885082,3.81908056 L8.96660137,3.25751752 C8.95605127,2.77313311 8.94500552,2.67534991 8.88616566,2.54655365 C8.69498924,2.12787728 8.19785974,1.90526296 7.76495135,2.04453852 M7.15502775,6.08976082 C7.17223363,6.81495671 7.41481527,7.12827363 7.98799051,7.16544682 C8.61412869,7.20608951 8.94153602,6.84058851 8.96610573,6.07347542 L8.97998372,5.64212476 L12.0338501,5.64212476 L15.0877872,5.64212476 L15.0983373,6.08976082 C15.1155432,6.81495671 15.3581248,7.12827363 15.9313001,7.16544682 C16.5585711,7.20616032 16.8848456,6.84087174 16.9095569,6.07014753 L16.9234349,5.6355398 L17.7090284,5.64991343 C18.4442079,5.66336659 18.5129606,5.66988075 18.7806076,5.75102452 C20.2823338,6.20659085 21.1803674,7.44045764 21.1803674,9.04832216 L21.1803674,9.45099635 L12.0000047,9.45099635 L2.81964214,9.45099635 L2.81964214,9.04832216 C2.81964214,7.4701962 3.71802971,6.20899826 5.15249013,5.77347005 C5.51423841,5.66357901 5.64912399,5.65005504 6.42253883,5.64594829 L7.14447765,5.64212476 L7.15502775,6.08976082 M11.0884472,15.881888 L11.0884472,20.4897354 L8.34577364,20.4787605 C5.6654802,20.4679979 5.59708152,20.466157 5.34260446,20.3981831 C4.13444028,20.075449 3.27612895,19.237459 2.92620529,18.0390661 L2.83776849,17.7360869 L2.82764322,14.5050637 L2.81751795,11.2740406 L6.953018,11.2740406 L11.0884472,11.2740406 L11.0884472,15.881888 M21.1723663,14.5050637 L21.162241,17.7360869 L21.0738042,18.0390661 C20.7238805,19.237459 19.8654984,20.075449 18.657405,20.3981831 C18.4028572,20.466157 18.3345293,20.4679979 15.6542359,20.4787605 L12.9114914,20.4897354 L12.9114914,15.881888 L12.9114914,11.2740406 L17.0469915,11.2740406 L21.1824915,11.2740406 L21.1723663,14.5050637 M16.4003195,12.7097755 C16.3191758,12.7507722 16.2224547,12.8367308 16.1724656,12.9122101 L16.0855865,13.0434846 L16.0768774,15.5328848 C16.0668937,18.3635704 16.0525909,18.2076554 16.3394263,18.3974865 C16.5406572,18.5306727 17.225706,18.5306727 17.4268661,18.3974865 C17.7112942,18.2092839 17.6970621,18.3583307 17.6970621,15.5712617 C17.6970621,12.7844051 17.7112942,12.9333103 17.4270785,12.7449661 C17.2378847,12.6196393 16.6206681,12.5984683 16.4003195,12.7097755 M6.88008443,12.4335199 C5.38855431,12.6831821 4.46042818,14.7410901 4.95939864,16.6920809 C5.58199652,19.1262524 8.04980091,19.5523634 9.10644008,17.4081428 C10.2233352,15.1415693 8.86286716,12.1015809 6.88008443,12.4335199 M7.47478575,13.6763763 C8.49559704,14.154459 8.65668088,16.4311577 7.7349981,17.3543982 C6.63226418,18.4591147 5.46276011,15.9183801 6.32730238,14.2962835 C6.6325474,13.723604 7.07055383,13.48697 7.47478575,13.6763763" id="path-1"></path>
    </defs>
    <g id="Material-Theme" stroke="none" stroke-width="1" fill="none" fill-rule="evenodd">
        <g id="System-Icons" transform="translate(-861.000000, -1394.000000)">
            <g id="Icon-/-Games" transform="translate(860.000000, 1392.000000)">
                <mask id="mask-2" fill="white">
                    <use xlink:href="#path-1"></use>
                </mask>
                <g id="News" fill-rule="nonzero"></g>
                <g id="✱-/-Color-/-Icons-/-Selected-/-On-Surface-/-Inactive" mask="url(#mask-2)" fill="#414141" fill-opacity="0.54" fill-rule="evenodd">
                    <rect id="Rectangle" x="0" y="0" width="24" height="24"></rect>
                </g>
            </g>
        </g>
    </g>
</svg>