<?xml version="1.0" encoding="UTF-8"?>
<svg width="22px" height="22px" viewBox="0 0 22 22" version="1.1" xmlns="http://www.w3.org/2000/svg" xmlns:xlink="http://www.w3.org/1999/xlink">
    <!-- Generator: Sketch 52.6 (67491) - http://www.bohemiancoding.com/sketch -->
    <title>TAB 1</title>
    <desc>Created with Sketch.</desc>
    <defs>
        <path d="M19.883003,7.95421505 L19.883003,7.51912107 C19.883003,5.70000347 18.5159177,4.22003046 16.8356006,4.22003046 L15.9930945,4.22003046 L15.9930945,4.72871105 C15.9930945,5.36053214 15.51825,5.8745493 14.9345793,5.8745493 C14.3509421,5.8745493 13.8760976,5.36053214 13.8760976,4.72871105 L13.8760976,4.22003046 L8.16817073,4.22003046 L8.16817073,4.72871105 C8.16817073,5.36053214 7.69332622,5.8745493 7.10965549,5.8745493 C6.52598476,5.8745493 6.05117378,5.36053214 6.05117378,4.72871105 L6.05117378,4.22003046 L5.16496951,4.22003046 C3.48431707,4.22003046 2.11699695,5.70000347 2.11699695,7.51912107 L2.11699695,7.95421505 L19.883003,7.95421505 Z M2.11699695,16.4092692 C2.11699695,18.2283868 3.48431707,19.7083598 5.16496951,19.7083598 L9.94151829,19.7083598 L9.94151829,10.2458552 L2.11699695,10.2458552 L2.11699695,16.4092692 Z M16.834997,19.7083598 C18.5156829,19.7083598 19.883003,18.2283868 19.883003,16.4092692 L19.883003,10.2458552 L12.0585152,10.2458552 L12.0585152,19.7083598 L16.834997,19.7083598 Z M5.16496951,22 C2.31700915,22 0,19.4919927 0,16.4092692 L0,7.51912107 C0,4.43617978 2.31714329,1.92802723 5.16530488,1.92802723 L6.05147561,1.92802723 L6.05147561,1.14580195 C6.05147561,0.513980862 6.52632012,0 7.10999085,0 C7.69366159,0 8.16847256,0.513980862 8.16847256,1.14580195 L8.16847256,1.92802723 L13.8764329,1.92802723 L13.8764329,1.14580195 C13.8764329,0.513980862 14.3512774,0 14.9349146,0 C15.5185518,0 15.9934299,0.513980862 15.9934299,1.14580195 L15.9934299,1.92802723 L16.834997,1.92802723 C19.6829909,1.92802723 22,4.43617978 22,7.51912107 L22,16.4092692 C22,19.4919927 19.683125,22 16.8353323,22 L5.16496951,22 Z M5.68905244,16.7714482 C5.71433902,16.7855338 5.79046707,16.8163553 5.97146402,16.8163553 C6.15772622,16.8163553 6.23569878,16.7845173 6.26152195,16.7700687 L6.26152195,13.2678253 C6.23559817,13.2534855 6.15635122,13.2208852 5.97146402,13.2208852 C5.79016524,13.2208852 5.71417134,13.2517793 5.68905244,13.2657923 L5.68905244,16.7714482 Z M5.97146402,18.3514002 C5.37045488,18.3514002 4.83085122,18.2152632 4.36771098,17.9467283 L4.36432378,17.9447317 C3.71441829,17.5575216 3.57799146,17.0194717 3.57799146,16.6362913 L3.57799146,13.4462193 C3.57799146,13.0458312 3.71411646,12.4865802 4.36268049,12.0960665 L4.3666378,12.0937068 C4.82632378,11.8256802 5.3662628,11.689761 5.97146402,11.689761 C6.57160122,11.689761 7.109025,11.8256802 7.56877805,12.0936705 C8.22894573,12.4805902 8.36738476,13.042818 8.36738476,13.4464008 L8.36738476,16.6362913 C8.36738476,17.0205608 8.2289122,17.5596998 7.56931463,17.9460023 C7.10771707,18.215118 6.57029329,18.3514002 5.97146402,18.3514002 Z M14.9492012,18.3513784 L17.0533537,18.3513784 L17.0533537,11.6897392 L14.9492012,11.6897392 L14.9492012,18.3513784 Z" id="path-1"></path>
    </defs>
    <g id="Material-Components" stroke="none" stroke-width="1" fill="none" fill-rule="evenodd">
        <g id="Bottom-Navigation" transform="translate(-187.000000, -1320.000000)">
            <g id="Bottom-Navigation-/-Primary-Color-/-Inactive-/-Resting" transform="translate(153.000000, 1303.000000)">
                <g id="Bottom-Navigation-/-4-up-/-Primary-Color-Copy-2">
                    <g id="TAB-1" transform="translate(34.000000, 17.000000)">
                        <g id="↳-Icon">
                            <mask id="mask-2" fill="white">
                                <use xlink:href="#path-1"></use>
                            </mask>
                            <g id="Match" fill-rule="nonzero"></g>
                            <g id="↳-Icon-Color" mask="url(#mask-2)" fill="#FFFFFF" fill-opacity="0.54">
                                <g transform="translate(-1.000000, -1.000000)" id="Rectangle">
                                    <rect x="0" y="0" width="24" height="24"></rect>
                                </g>
                            </g>
                        </g>
                    </g>
                </g>
            </g>
        </g>
    </g>
</svg>